solid CATIA STL
  facet normal  0.000000e+000 -5.877852e-001  8.090170e-001
    outer loop
      vertex -1.000000e+000  9.425018e-001  3.440278e+000
      vertex  1.000000e+000  2.467502e+000  4.548255e+000
      vertex -1.000000e+000  2.467502e+000  4.548255e+000
    endloop
  endfacet
  facet normal  0.000000e+000 -9.510565e-001  3.090169e-001
    outer loop
      vertex -1.000000e+000  2.467502e+000  4.548255e+000
      vertex  1.000000e+000  2.467502e+000  4.548255e+000
      vertex  1.000000e+000  3.050000e+000  6.341000e+000
    endloop
  endfacet
  facet normal  0.000000e+000 -9.510565e-001  3.090169e-001
    outer loop
      vertex -1.000000e+000  2.467502e+000  4.548255e+000
      vertex  1.000000e+000  3.050000e+000  6.341000e+000
      vertex -1.000000e+000  3.050000e+000  6.341000e+000
    endloop
  endfacet
  facet normal  0.000000e+000 -5.877852e-001  8.090170e-001
    outer loop
      vertex  1.000000e+000  2.467502e+000  4.548255e+000
      vertex -1.000000e+000  9.425018e-001  3.440278e+000
      vertex  1.000000e+000  9.425018e-001  3.440278e+000
    endloop
  endfacet
  facet normal  0.000000e+000  0.000000e+000  9.999999e-001
    outer loop
      vertex  1.000000e+000  9.425018e-001  3.440278e+000
      vertex -1.000000e+000  9.425018e-001  3.440278e+000
      vertex -1.000000e+000 -9.425018e-001  3.440278e+000
    endloop
  endfacet
  facet normal  0.000000e+000  0.000000e+000  9.999999e-001
    outer loop
      vertex  1.000000e+000  9.425018e-001  3.440278e+000
      vertex -1.000000e+000 -9.425018e-001  3.440278e+000
      vertex  1.000000e+000 -9.425018e-001  3.440278e+000
    endloop
  endfacet
  facet normal  0.000000e+000  5.877852e-001  8.090170e-001
    outer loop
      vertex  1.000000e+000 -9.425018e-001  3.440278e+000
      vertex -1.000000e+000 -9.425018e-001  3.440278e+000
      vertex -1.000000e+000 -2.467502e+000  4.548255e+000
    endloop
  endfacet
  facet normal  -0.000000e+000  5.877852e-001  8.090170e-001
    outer loop
      vertex  1.000000e+000 -9.425018e-001  3.440278e+000
      vertex -1.000000e+000 -2.467502e+000  4.548255e+000
      vertex  1.000000e+000 -2.467502e+000  4.548255e+000
    endloop
  endfacet
  facet normal  0.000000e+000  9.510565e-001  3.090169e-001
    outer loop
      vertex  1.000000e+000 -2.467502e+000  4.548255e+000
      vertex -1.000000e+000 -2.467502e+000  4.548255e+000
      vertex -1.000000e+000 -3.050000e+000  6.341000e+000
    endloop
  endfacet
  facet normal  -0.000000e+000  9.510565e-001  3.090169e-001
    outer loop
      vertex  1.000000e+000 -2.467502e+000  4.548255e+000
      vertex -1.000000e+000 -3.050000e+000  6.341000e+000
      vertex  1.000000e+000 -3.050000e+000  6.341000e+000
    endloop
  endfacet
  facet normal  0.000000e+000  5.877851e-001 -8.090172e-001
    outer loop
      vertex -1.000000e+000 -9.425018e-001  9.241722e+000
      vertex  1.000000e+000 -2.467502e+000  8.133745e+000
      vertex -1.000000e+000 -2.467502e+000  8.133745e+000
    endloop
  endfacet
  facet normal  0.000000e+000  9.510565e-001 -3.090169e-001
    outer loop
      vertex -1.000000e+000 -2.467502e+000  8.133745e+000
      vertex  1.000000e+000 -2.467502e+000  8.133745e+000
      vertex  1.000000e+000 -3.050000e+000  6.341000e+000
    endloop
  endfacet
  facet normal  0.000000e+000  9.510565e-001 -3.090169e-001
    outer loop
      vertex -1.000000e+000 -2.467502e+000  8.133745e+000
      vertex  1.000000e+000 -3.050000e+000  6.341000e+000
      vertex -1.000000e+000 -3.050000e+000  6.341000e+000
    endloop
  endfacet
  facet normal  0.000000e+000  5.877851e-001 -8.090172e-001
    outer loop
      vertex  1.000000e+000 -2.467502e+000  8.133745e+000
      vertex -1.000000e+000 -9.425018e-001  9.241722e+000
      vertex  1.000000e+000 -9.425018e-001  9.241722e+000
    endloop
  endfacet
  facet normal  0.000000e+000  0.000000e+000 -9.999999e-001
    outer loop
      vertex  1.000000e+000 -9.425018e-001  9.241722e+000
      vertex -1.000000e+000 -9.425018e-001  9.241722e+000
      vertex -1.000000e+000  9.425018e-001  9.241722e+000
    endloop
  endfacet
  facet normal  0.000000e+000  0.000000e+000 -9.999999e-001
    outer loop
      vertex  1.000000e+000 -9.425018e-001  9.241722e+000
      vertex -1.000000e+000  9.425018e-001  9.241722e+000
      vertex  1.000000e+000  9.425018e-001  9.241722e+000
    endloop
  endfacet
  facet normal  -0.000000e+000 -5.877851e-001 -8.090172e-001
    outer loop
      vertex  1.000000e+000  9.425018e-001  9.241722e+000
      vertex -1.000000e+000  9.425018e-001  9.241722e+000
      vertex -1.000000e+000  2.467502e+000  8.133745e+000
    endloop
  endfacet
  facet normal  0.000000e+000 -5.877851e-001 -8.090172e-001
    outer loop
      vertex  1.000000e+000  9.425018e-001  9.241722e+000
      vertex -1.000000e+000  2.467502e+000  8.133745e+000
      vertex  1.000000e+000  2.467502e+000  8.133745e+000
    endloop
  endfacet
  facet normal  -0.000000e+000 -9.510565e-001 -3.090169e-001
    outer loop
      vertex  1.000000e+000  2.467502e+000  8.133745e+000
      vertex -1.000000e+000  2.467502e+000  8.133745e+000
      vertex -1.000000e+000  3.050000e+000  6.341000e+000
    endloop
  endfacet
  facet normal  0.000000e+000 -9.510565e-001 -3.090169e-001
    outer loop
      vertex  1.000000e+000  2.467502e+000  8.133745e+000
      vertex -1.000000e+000  3.050000e+000  6.341000e+000
      vertex  1.000000e+000  3.050000e+000  6.341000e+000
    endloop
  endfacet
  facet normal -1.000000e+000  0.000000e+000  0.000000e+000
    outer loop
      vertex -1.000000e+000  3.236068e+000  3.989859e+000
      vertex -1.000000e+000  1.236068e+000  2.536774e+000
      vertex -1.000000e+000  9.425018e-001  3.440278e+000
    endloop
  endfacet
  facet normal -1.000000e+000  0.000000e+000  -0.000000e+000
    outer loop
      vertex -1.000000e+000  9.425018e-001  3.440278e+000
      vertex -1.000000e+000  1.236068e+000  2.536774e+000
      vertex -1.000000e+000 -1.236068e+000  2.536774e+000
    endloop
  endfacet
  facet normal -1.000000e+000  0.000000e+000  0.000000e+000
    outer loop
      vertex -1.000000e+000  9.425018e-001  3.440278e+000
      vertex -1.000000e+000 -1.236068e+000  2.536774e+000
      vertex -1.000000e+000 -9.425018e-001  3.440278e+000
    endloop
  endfacet
  facet normal -1.000000e+000  -0.000000e+000  0.000000e+000
    outer loop
      vertex -1.000000e+000 -9.425018e-001  3.440278e+000
      vertex -1.000000e+000 -1.236068e+000  2.536774e+000
      vertex -1.000000e+000 -3.236068e+000  3.989859e+000
    endloop
  endfacet
  facet normal -1.000000e+000  0.000000e+000  0.000000e+000
    outer loop
      vertex -1.000000e+000 -9.425018e-001  3.440278e+000
      vertex -1.000000e+000 -3.236068e+000  3.989859e+000
      vertex -1.000000e+000 -2.467502e+000  4.548255e+000
    endloop
  endfacet
  facet normal -1.000000e+000  0.000000e+000  -0.000000e+000
    outer loop
      vertex -1.000000e+000 -3.236068e+000  8.692141e+000
      vertex -1.000000e+000 -1.236068e+000  1.014523e+001
      vertex -1.000000e+000 -9.425018e-001  9.241722e+000
    endloop
  endfacet
  facet normal -1.000000e+000  0.000000e+000  0.000000e+000
    outer loop
      vertex -1.000000e+000 -9.425018e-001  9.241722e+000
      vertex -1.000000e+000 -1.236068e+000  1.014523e+001
      vertex -1.000000e+000  1.236068e+000  1.014523e+001
    endloop
  endfacet
  facet normal -1.000000e+000  0.000000e+000  0.000000e+000
    outer loop
      vertex -1.000000e+000 -9.425018e-001  9.241722e+000
      vertex -1.000000e+000  1.236068e+000  1.014523e+001
      vertex -1.000000e+000  9.425018e-001  9.241722e+000
    endloop
  endfacet
  facet normal -1.000000e+000  0.000000e+000  0.000000e+000
    outer loop
      vertex -1.000000e+000  9.425018e-001  9.241722e+000
      vertex -1.000000e+000  1.236068e+000  1.014523e+001
      vertex -1.000000e+000  3.236068e+000  8.692141e+000
    endloop
  endfacet
  facet normal -9.999999e-001  -0.000000e+000  0.000000e+000
    outer loop
      vertex -1.000000e+000  9.425018e-001  9.241722e+000
      vertex -1.000000e+000  3.236068e+000  8.692141e+000
      vertex -1.000000e+000  2.467502e+000  8.133745e+000
    endloop
  endfacet
  facet normal -1.000000e+000  0.000000e+000  0.000000e+000
    outer loop
      vertex -1.000000e+000 -9.425018e-001  9.241722e+000
      vertex -1.000000e+000 -2.467502e+000  8.133745e+000
      vertex -1.000000e+000 -3.236068e+000  8.692141e+000
    endloop
  endfacet
  facet normal -9.999999e-001  0.000000e+000  0.000000e+000
    outer loop
      vertex -1.000000e+000 -3.236068e+000  8.692141e+000
      vertex -1.000000e+000 -2.467502e+000  8.133745e+000
      vertex -1.000000e+000 -3.050000e+000  6.341000e+000
    endloop
  endfacet
  facet normal -1.000000e+000  0.000000e+000  0.000000e+000
    outer loop
      vertex -1.000000e+000 -3.236068e+000  8.692141e+000
      vertex -1.000000e+000 -3.050000e+000  6.341000e+000
      vertex -1.000000e+000 -4.000000e+000  6.341000e+000
    endloop
  endfacet
  facet normal -1.000000e+000  0.000000e+000  0.000000e+000
    outer loop
      vertex -1.000000e+000 -4.000000e+000  6.341000e+000
      vertex -1.000000e+000 -3.050000e+000  6.341000e+000
      vertex -1.000000e+000 -2.467502e+000  4.548255e+000
    endloop
  endfacet
  facet normal -1.000000e+000  -0.000000e+000  0.000000e+000
    outer loop
      vertex -1.000000e+000 -4.000000e+000  6.341000e+000
      vertex -1.000000e+000 -2.467502e+000  4.548255e+000
      vertex -1.000000e+000 -3.236068e+000  3.989859e+000
    endloop
  endfacet
  facet normal -1.000000e+000  0.000000e+000  -0.000000e+000
    outer loop
      vertex -1.000000e+000  9.425018e-001  3.440278e+000
      vertex -1.000000e+000  2.467502e+000  4.548255e+000
      vertex -1.000000e+000  3.236068e+000  3.989859e+000
    endloop
  endfacet
  facet normal -9.999999e-001  0.000000e+000  0.000000e+000
    outer loop
      vertex -1.000000e+000  3.236068e+000  3.989859e+000
      vertex -1.000000e+000  2.467502e+000  4.548255e+000
      vertex -1.000000e+000  3.050000e+000  6.341000e+000
    endloop
  endfacet
  facet normal -1.000000e+000  0.000000e+000  0.000000e+000
    outer loop
      vertex -1.000000e+000  3.236068e+000  3.989859e+000
      vertex -1.000000e+000  3.050000e+000  6.341000e+000
      vertex -1.000000e+000  4.000000e+000  6.341000e+000
    endloop
  endfacet
  facet normal -1.000000e+000  0.000000e+000  0.000000e+000
    outer loop
      vertex -1.000000e+000  4.000000e+000  6.341000e+000
      vertex -1.000000e+000  3.050000e+000  6.341000e+000
      vertex -1.000000e+000  2.467502e+000  8.133745e+000
    endloop
  endfacet
  facet normal -1.000000e+000  0.000000e+000  0.000000e+000
    outer loop
      vertex -1.000000e+000  4.000000e+000  6.341000e+000
      vertex -1.000000e+000  2.467502e+000  8.133745e+000
      vertex -1.000000e+000  3.236068e+000  8.692141e+000
    endloop
  endfacet
  facet normal  1.000000e+000  -0.000000e+000  0.000000e+000
    outer loop
      vertex  1.000000e+000 -2.467502e+000  4.548255e+000
      vertex  1.000000e+000 -3.236068e+000  3.989859e+000
      vertex  1.000000e+000 -9.425018e-001  3.440278e+000
    endloop
  endfacet
  facet normal  1.000000e+000  0.000000e+000  0.000000e+000
    outer loop
      vertex  1.000000e+000 -9.425018e-001  3.440278e+000
      vertex  1.000000e+000 -3.236068e+000  3.989859e+000
      vertex  1.000000e+000 -1.236068e+000  2.536774e+000
    endloop
  endfacet
  facet normal  1.000000e+000  0.000000e+000  0.000000e+000
    outer loop
      vertex  1.000000e+000 -9.425018e-001  3.440278e+000
      vertex  1.000000e+000 -1.236068e+000  2.536774e+000
      vertex  1.000000e+000  9.425018e-001  3.440278e+000
    endloop
  endfacet
  facet normal  1.000000e+000  0.000000e+000  0.000000e+000
    outer loop
      vertex  1.000000e+000  9.425018e-001  3.440278e+000
      vertex  1.000000e+000 -1.236068e+000  2.536774e+000
      vertex  1.000000e+000  1.236068e+000  2.536774e+000
    endloop
  endfacet
  facet normal  1.000000e+000  0.000000e+000  -0.000000e+000
    outer loop
      vertex  1.000000e+000  9.425018e-001  3.440278e+000
      vertex  1.000000e+000  1.236068e+000  2.536774e+000
      vertex  1.000000e+000  3.236068e+000  3.989859e+000
    endloop
  endfacet
  facet normal  9.999999e-001  0.000000e+000  0.000000e+000
    outer loop
      vertex  1.000000e+000  2.467502e+000  8.133745e+000
      vertex  1.000000e+000  3.236068e+000  8.692141e+000
      vertex  1.000000e+000  9.425018e-001  9.241722e+000
    endloop
  endfacet
  facet normal  1.000000e+000  -0.000000e+000  0.000000e+000
    outer loop
      vertex  1.000000e+000  9.425018e-001  9.241722e+000
      vertex  1.000000e+000  3.236068e+000  8.692141e+000
      vertex  1.000000e+000  1.236068e+000  1.014523e+001
    endloop
  endfacet
  facet normal  1.000000e+000  0.000000e+000  0.000000e+000
    outer loop
      vertex  1.000000e+000  9.425018e-001  9.241722e+000
      vertex  1.000000e+000  1.236068e+000  1.014523e+001
      vertex  1.000000e+000 -9.425018e-001  9.241722e+000
    endloop
  endfacet
  facet normal  1.000000e+000  0.000000e+000  -0.000000e+000
    outer loop
      vertex  1.000000e+000 -9.425018e-001  9.241722e+000
      vertex  1.000000e+000  1.236068e+000  1.014523e+001
      vertex  1.000000e+000 -1.236068e+000  1.014523e+001
    endloop
  endfacet
  facet normal  1.000000e+000  0.000000e+000  0.000000e+000
    outer loop
      vertex  1.000000e+000 -9.425018e-001  9.241722e+000
      vertex  1.000000e+000 -1.236068e+000  1.014523e+001
      vertex  1.000000e+000 -3.236068e+000  8.692141e+000
    endloop
  endfacet
  facet normal  1.000000e+000  0.000000e+000  0.000000e+000
    outer loop
      vertex  1.000000e+000 -3.236068e+000  3.989859e+000
      vertex  1.000000e+000 -2.467502e+000  4.548255e+000
      vertex  1.000000e+000 -4.000000e+000  6.341000e+000
    endloop
  endfacet
  facet normal  1.000000e+000  -0.000000e+000  0.000000e+000
    outer loop
      vertex  1.000000e+000 -4.000000e+000  6.341000e+000
      vertex  1.000000e+000 -2.467502e+000  4.548255e+000
      vertex  1.000000e+000 -3.050000e+000  6.341000e+000
    endloop
  endfacet
  facet normal  1.000000e+000  0.000000e+000  0.000000e+000
    outer loop
      vertex  1.000000e+000 -4.000000e+000  6.341000e+000
      vertex  1.000000e+000 -3.050000e+000  6.341000e+000
      vertex  1.000000e+000 -3.236068e+000  8.692141e+000
    endloop
  endfacet
  facet normal  9.999999e-001  0.000000e+000  0.000000e+000
    outer loop
      vertex  1.000000e+000 -3.236068e+000  8.692141e+000
      vertex  1.000000e+000 -3.050000e+000  6.341000e+000
      vertex  1.000000e+000 -2.467502e+000  8.133745e+000
    endloop
  endfacet
  facet normal  1.000000e+000  0.000000e+000  -0.000000e+000
    outer loop
      vertex  1.000000e+000 -3.236068e+000  8.692141e+000
      vertex  1.000000e+000 -2.467502e+000  8.133745e+000
      vertex  1.000000e+000 -9.425018e-001  9.241722e+000
    endloop
  endfacet
  facet normal  1.000000e+000  -0.000000e+000  0.000000e+000
    outer loop
      vertex  1.000000e+000  3.236068e+000  8.692141e+000
      vertex  1.000000e+000  2.467502e+000  8.133745e+000
      vertex  1.000000e+000  4.000000e+000  6.341000e+000
    endloop
  endfacet
  facet normal  1.000000e+000  0.000000e+000  0.000000e+000
    outer loop
      vertex  1.000000e+000  4.000000e+000  6.341000e+000
      vertex  1.000000e+000  2.467502e+000  8.133745e+000
      vertex  1.000000e+000  3.050000e+000  6.341000e+000
    endloop
  endfacet
  facet normal  1.000000e+000  -0.000000e+000  0.000000e+000
    outer loop
      vertex  1.000000e+000  4.000000e+000  6.341000e+000
      vertex  1.000000e+000  3.050000e+000  6.341000e+000
      vertex  1.000000e+000  3.236068e+000  3.989859e+000
    endloop
  endfacet
  facet normal  9.999999e-001  0.000000e+000  0.000000e+000
    outer loop
      vertex  1.000000e+000  3.236068e+000  3.989859e+000
      vertex  1.000000e+000  3.050000e+000  6.341000e+000
      vertex  1.000000e+000  2.467502e+000  4.548255e+000
    endloop
  endfacet
  facet normal  1.000000e+000  0.000000e+000  0.000000e+000
    outer loop
      vertex  1.000000e+000  3.236068e+000  3.989859e+000
      vertex  1.000000e+000  2.467502e+000  4.548255e+000
      vertex  1.000000e+000  9.425018e-001  3.440278e+000
    endloop
  endfacet
  facet normal  3.825196e-001  9.234840e-001 -2.925921e-002
    outer loop
      vertex  5.817072e-017  9.500000e-001  0.000000e+000
      vertex  3.263358e-001  8.921911e-001  2.441770e+000
      vertex  6.717514e-001  6.717514e-001  0.000000e+000
    endloop
  endfacet
  facet normal -9.238795e-001  3.826834e-001  0.000000e+000
    outer loop
      vertex -9.500000e-001  1.163414e-016  0.000000e+000
      vertex -9.500000e-001  1.163414e-016  2.341000e+000
      vertex -6.717514e-001  6.717514e-001  0.000000e+000
    endloop
  endfacet
  facet normal -9.916835e-001  8.993318e-002 -9.206401e-002
    outer loop
      vertex -6.717514e-001  6.717514e-001  0.000000e+000
      vertex -9.500000e-001  1.163414e-016  2.341000e+000
      vertex -9.351531e-001  1.672985e-001  2.344500e+000
    endloop
  endfacet
  facet normal -8.838031e-001  4.678571e-001  1.372038e-003
    outer loop
      vertex -6.717514e-001  6.717514e-001  0.000000e+000
      vertex -9.351531e-001  1.672985e-001  2.344500e+000
      vertex -6.639387e-001  6.794744e-001  2.399133e+000
    endloop
  endfacet
  facet normal -3.826829e-001  9.238781e-001 -1.727804e-003
    outer loop
      vertex -6.717514e-001  6.717514e-001  0.000000e+000
      vertex -6.639387e-001  6.794744e-001  2.399133e+000
      vertex  5.817072e-017  9.500000e-001  0.000000e+000
    endloop
  endfacet
  facet normal -4.181945e-001  9.082599e-001 -1.331645e-002
    outer loop
      vertex  5.817072e-017  9.500000e-001  0.000000e+000
      vertex -6.639387e-001  6.794744e-001  2.399133e+000
      vertex -8.678462e-002  9.460277e-001  2.454481e+000
    endloop
  endfacet
  facet normal  1.294088e-001  9.915722e-001  6.180333e-003
    outer loop
      vertex  5.817072e-017  9.500000e-001  0.000000e+000
      vertex -8.678462e-002  9.460277e-001  2.454481e+000
      vertex  3.263358e-001  8.921911e-001  2.441770e+000
    endloop
  endfacet
  facet normal  9.497167e-001  3.131104e-001  -0.000000e+000
    outer loop
      vertex  9.500000e-001  0.000000e+000  2.341000e+000
      vertex  9.500000e-001  0.000000e+000  0.000000e+000
      vertex  7.637276e-001  5.649957e-001  2.381104e+000
    endloop
  endfacet
  facet normal  9.237210e-001  3.826177e-001 -1.852657e-002
    outer loop
      vertex  7.637276e-001  5.649957e-001  2.381104e+000
      vertex  9.500000e-001  0.000000e+000  0.000000e+000
      vertex  6.717514e-001  6.717514e-001  0.000000e+000
    endloop
  endfacet
  facet normal  6.000844e-001  7.998362e-001  1.268052e-002
    outer loop
      vertex  7.637276e-001  5.649957e-001  2.381104e+000
      vertex  6.717514e-001  6.717514e-001  0.000000e+000
      vertex  3.263358e-001  8.921911e-001  2.441770e+000
    endloop
  endfacet
  facet normal -3.825196e-001 -9.234840e-001 -2.925921e-002
    outer loop
      vertex -1.745122e-016 -9.500000e-001  0.000000e+000
      vertex -3.263358e-001 -8.921911e-001  2.441770e+000
      vertex -6.717514e-001 -6.717514e-001  0.000000e+000
    endloop
  endfacet
  facet normal  9.238795e-001 -3.826834e-001  0.000000e+000
    outer loop
      vertex  9.500000e-001  0.000000e+000  0.000000e+000
      vertex  9.500000e-001  0.000000e+000  2.341000e+000
      vertex  6.717514e-001 -6.717514e-001  0.000000e+000
    endloop
  endfacet
  facet normal  9.916835e-001 -8.993318e-002 -9.206401e-002
    outer loop
      vertex  6.717514e-001 -6.717514e-001  0.000000e+000
      vertex  9.500000e-001  0.000000e+000  2.341000e+000
      vertex  9.351531e-001 -1.672985e-001  2.344500e+000
    endloop
  endfacet
  facet normal  8.838031e-001 -4.678571e-001  1.372038e-003
    outer loop
      vertex  6.717514e-001 -6.717514e-001  0.000000e+000
      vertex  9.351531e-001 -1.672985e-001  2.344500e+000
      vertex  6.639387e-001 -6.794744e-001  2.399133e+000
    endloop
  endfacet
  facet normal  3.826829e-001 -9.238781e-001 -1.727804e-003
    outer loop
      vertex  6.717514e-001 -6.717514e-001  0.000000e+000
      vertex  6.639387e-001 -6.794744e-001  2.399133e+000
      vertex -1.745122e-016 -9.500000e-001  0.000000e+000
    endloop
  endfacet
  facet normal  4.181945e-001 -9.082599e-001 -1.331645e-002
    outer loop
      vertex -1.745122e-016 -9.500000e-001  0.000000e+000
      vertex  6.639387e-001 -6.794744e-001  2.399133e+000
      vertex  8.678462e-002 -9.460277e-001  2.454481e+000
    endloop
  endfacet
  facet normal -1.294088e-001 -9.915722e-001  6.180333e-003
    outer loop
      vertex -1.745122e-016 -9.500000e-001  0.000000e+000
      vertex  8.678462e-002 -9.460277e-001  2.454481e+000
      vertex -3.263358e-001 -8.921911e-001  2.441770e+000
    endloop
  endfacet
  facet normal -9.497167e-001 -3.131104e-001  0.000000e+000
    outer loop
      vertex -9.500000e-001  1.163414e-016  2.341000e+000
      vertex -9.500000e-001  1.163414e-016  0.000000e+000
      vertex -7.637276e-001 -5.649957e-001  2.381104e+000
    endloop
  endfacet
  facet normal -9.237210e-001 -3.826177e-001 -1.852657e-002
    outer loop
      vertex -7.637276e-001 -5.649957e-001  2.381104e+000
      vertex -9.500000e-001  1.163414e-016  0.000000e+000
      vertex -6.717514e-001 -6.717514e-001  0.000000e+000
    endloop
  endfacet
  facet normal -6.000844e-001 -7.998362e-001  1.268052e-002
    outer loop
      vertex -7.637276e-001 -5.649957e-001  2.381104e+000
      vertex -6.717514e-001 -6.717514e-001  0.000000e+000
      vertex -3.263358e-001 -8.921911e-001  2.441770e+000
    endloop
  endfacet
  facet normal  5.749232e-003  2.713585e-001 -9.624612e-001
    outer loop
      vertex  3.263358e-001  8.921911e-001  2.441770e+000
      vertex -8.678462e-002  9.460277e-001  2.454481e+000
      vertex  0.000000e+000  1.236068e+000  2.536774e+000
    endloop
  endfacet
  facet normal -2.274449e-001 -1.433526e-001 -9.631817e-001
    outer loop
      vertex -9.500000e-001  1.163414e-016  2.341000e+000
      vertex -7.637276e-001 -5.649957e-001  2.381104e+000
      vertex -1.000000e+000 -1.236068e+000  2.536774e+000
    endloop
  endfacet
  facet normal -2.690192e-002 -2.168929e-001 -9.758246e-001
    outer loop
      vertex -1.000000e+000 -1.236068e+000  2.536774e+000
      vertex -7.637276e-001 -5.649957e-001  2.381104e+000
      vertex -3.263358e-001 -8.921911e-001  2.441770e+000
    endloop
  endfacet
  facet normal  2.052145e-001  4.367275e-001 -8.758745e-001
    outer loop
      vertex  7.637276e-001  5.649957e-001  2.381104e+000
      vertex  3.263358e-001  8.921911e-001  2.441770e+000
      vertex  0.000000e+000  1.236068e+000  2.536774e+000
    endloop
  endfacet
  facet normal  0.000000e+000 -9.510565e-001 -3.090170e-001
    outer loop
      vertex  1.000000e+000 -4.000000e+000  6.341000e+000
      vertex  0.000000e+000 -3.236068e+000  3.989859e+000
      vertex  1.000000e+000 -3.236068e+000  3.989859e+000
    endloop
  endfacet
  facet normal  0.000000e+000  5.877853e-001 -8.090170e-001
    outer loop
      vertex -1.000000e+000  1.236068e+000  2.536774e+000
      vertex -1.000000e+000  3.236068e+000  3.989859e+000
      vertex  0.000000e+000  3.236068e+000  3.989859e+000
    endloop
  endfacet
  facet normal  0.000000e+000  5.877853e-001 -8.090170e-001
    outer loop
      vertex -1.000000e+000  1.236068e+000  2.536774e+000
      vertex  0.000000e+000  3.236068e+000  3.989859e+000
      vertex  0.000000e+000  1.236068e+000  2.536774e+000
    endloop
  endfacet
  facet normal  0.000000e+000  2.729555e-001 -9.620267e-001
    outer loop
      vertex -1.000000e+000  1.236068e+000  2.536774e+000
      vertex  0.000000e+000  1.236068e+000  2.536774e+000
      vertex -8.678462e-002  9.460277e-001  2.454481e+000
    endloop
  endfacet
  facet normal -1.392633e-002  2.321048e-001 -9.725912e-001
    outer loop
      vertex -1.000000e+000  1.236068e+000  2.536774e+000
      vertex -8.678462e-002  9.460277e-001  2.454481e+000
      vertex -6.639387e-001  6.794744e-001  2.399133e+000
    endloop
  endfacet
  facet normal -1.213733e-001  1.686126e-001 -9.781812e-001
    outer loop
      vertex -1.000000e+000  1.236068e+000  2.536774e+000
      vertex -6.639387e-001  6.794744e-001  2.399133e+000
      vertex -9.351531e-001  1.672985e-001  2.344500e+000
    endloop
  endfacet
  facet normal -7.264175e-001  7.874906e-002 -6.827270e-001
    outer loop
      vertex -1.000000e+000  1.236068e+000  2.536774e+000
      vertex -9.351531e-001  1.672985e-001  2.344500e+000
      vertex -9.500000e-001  1.163414e-016  2.341000e+000
    endloop
  endfacet
  facet normal -9.688997e-001  0.000000e+000 -2.474539e-001
    outer loop
      vertex -1.000000e+000  1.236068e+000  2.536774e+000
      vertex -9.500000e-001  1.163414e-016  2.341000e+000
      vertex -1.000000e+000 -1.236068e+000  2.536774e+000
    endloop
  endfacet
  facet normal  -0.000000e+000 -5.877853e-001 -8.090170e-001
    outer loop
      vertex  1.000000e+000 -1.236068e+000  2.536774e+000
      vertex  1.000000e+000 -3.236068e+000  3.989859e+000
      vertex  0.000000e+000 -3.236068e+000  3.989859e+000
    endloop
  endfacet
  facet normal  0.000000e+000 -5.877853e-001 -8.090170e-001
    outer loop
      vertex  1.000000e+000 -1.236068e+000  2.536774e+000
      vertex  0.000000e+000 -3.236068e+000  3.989859e+000
      vertex  0.000000e+000 -1.236068e+000  2.536774e+000
    endloop
  endfacet
  facet normal  0.000000e+000 -2.729555e-001 -9.620267e-001
    outer loop
      vertex  1.000000e+000 -1.236068e+000  2.536774e+000
      vertex  0.000000e+000 -1.236068e+000  2.536774e+000
      vertex  8.678462e-002 -9.460277e-001  2.454481e+000
    endloop
  endfacet
  facet normal  1.392633e-002 -2.321048e-001 -9.725912e-001
    outer loop
      vertex  1.000000e+000 -1.236068e+000  2.536774e+000
      vertex  8.678462e-002 -9.460277e-001  2.454481e+000
      vertex  6.639387e-001 -6.794744e-001  2.399133e+000
    endloop
  endfacet
  facet normal  1.213733e-001 -1.686126e-001 -9.781812e-001
    outer loop
      vertex  1.000000e+000 -1.236068e+000  2.536774e+000
      vertex  6.639387e-001 -6.794744e-001  2.399133e+000
      vertex  9.351531e-001 -1.672985e-001  2.344500e+000
    endloop
  endfacet
  facet normal  7.264175e-001 -7.874906e-002 -6.827270e-001
    outer loop
      vertex  1.000000e+000 -1.236068e+000  2.536774e+000
      vertex  9.351531e-001 -1.672985e-001  2.344500e+000
      vertex  9.500000e-001  0.000000e+000  2.341000e+000
    endloop
  endfacet
  facet normal  9.688997e-001  0.000000e+000 -2.474539e-001
    outer loop
      vertex  1.000000e+000  1.236068e+000  2.536774e+000
      vertex  1.000000e+000 -1.236068e+000  2.536774e+000
      vertex  9.500000e-001  0.000000e+000  2.341000e+000
    endloop
  endfacet
  facet normal  2.274449e-001  1.433526e-001 -9.631817e-001
    outer loop
      vertex  1.000000e+000  1.236068e+000  2.536774e+000
      vertex  9.500000e-001  0.000000e+000  2.341000e+000
      vertex  7.637276e-001  5.649957e-001  2.381104e+000
    endloop
  endfacet
  facet normal  0.000000e+000  2.259724e-001 -9.741337e-001
    outer loop
      vertex  1.000000e+000  1.236068e+000  2.536774e+000
      vertex  7.637276e-001  5.649957e-001  2.381104e+000
      vertex  0.000000e+000  1.236068e+000  2.536774e+000
    endloop
  endfacet
  facet normal  0.000000e+000  5.877853e-001 -8.090170e-001
    outer loop
      vertex  1.000000e+000  1.236068e+000  2.536774e+000
      vertex  0.000000e+000  1.236068e+000  2.536774e+000
      vertex  0.000000e+000  3.236068e+000  3.989859e+000
    endloop
  endfacet
  facet normal  0.000000e+000  5.877853e-001 -8.090170e-001
    outer loop
      vertex  1.000000e+000  1.236068e+000  2.536774e+000
      vertex  0.000000e+000  3.236068e+000  3.989859e+000
      vertex  1.000000e+000  3.236068e+000  3.989859e+000
    endloop
  endfacet
  facet normal  0.000000e+000  9.510565e-001 -3.090170e-001
    outer loop
      vertex  1.000000e+000  4.000000e+000  6.341000e+000
      vertex  1.000000e+000  3.236068e+000  3.989859e+000
      vertex -1.000000e+000  4.000000e+000  6.341000e+000
    endloop
  endfacet
  facet normal  0.000000e+000  9.510565e-001 -3.090170e-001
    outer loop
      vertex -1.000000e+000  4.000000e+000  6.341000e+000
      vertex  1.000000e+000  3.236068e+000  3.989859e+000
      vertex  0.000000e+000  3.236068e+000  3.989859e+000
    endloop
  endfacet
  facet normal  0.000000e+000  9.510565e-001 -3.090170e-001
    outer loop
      vertex -1.000000e+000  4.000000e+000  6.341000e+000
      vertex  0.000000e+000  3.236068e+000  3.989859e+000
      vertex -1.000000e+000  3.236068e+000  3.989859e+000
    endloop
  endfacet
  facet normal -4.027842e-003 -2.589566e-001 -9.658806e-001
    outer loop
      vertex -3.263358e-001 -8.921911e-001  2.441770e+000
      vertex  8.678462e-002 -9.460277e-001  2.454481e+000
      vertex -1.000000e+000 -1.236068e+000  2.536774e+000
    endloop
  endfacet
  facet normal  0.000000e+000 -2.729555e-001 -9.620267e-001
    outer loop
      vertex -1.000000e+000 -1.236068e+000  2.536774e+000
      vertex  8.678462e-002 -9.460277e-001  2.454481e+000
      vertex  0.000000e+000 -1.236068e+000  2.536774e+000
    endloop
  endfacet
  facet normal  -0.000000e+000 -5.877853e-001 -8.090170e-001
    outer loop
      vertex -1.000000e+000 -1.236068e+000  2.536774e+000
      vertex  0.000000e+000 -1.236068e+000  2.536774e+000
      vertex -1.000000e+000 -3.236068e+000  3.989859e+000
    endloop
  endfacet
  facet normal  0.000000e+000 -5.877853e-001 -8.090170e-001
    outer loop
      vertex -1.000000e+000 -3.236068e+000  3.989859e+000
      vertex  0.000000e+000 -1.236068e+000  2.536774e+000
      vertex  0.000000e+000 -3.236068e+000  3.989859e+000
    endloop
  endfacet
  facet normal  -0.000000e+000 -9.510565e-001 -3.090170e-001
    outer loop
      vertex -1.000000e+000 -3.236068e+000  3.989859e+000
      vertex  0.000000e+000 -3.236068e+000  3.989859e+000
      vertex -1.000000e+000 -4.000000e+000  6.341000e+000
    endloop
  endfacet
  facet normal  0.000000e+000 -9.510565e-001 -3.090170e-001
    outer loop
      vertex -1.000000e+000 -4.000000e+000  6.341000e+000
      vertex  0.000000e+000 -3.236068e+000  3.989859e+000
      vertex  1.000000e+000 -4.000000e+000  6.341000e+000
    endloop
  endfacet
  facet normal  0.000000e+000 -9.510565e-001  3.090171e-001
    outer loop
      vertex -1.000000e+000 -4.000000e+000  6.341000e+000
      vertex  1.000000e+000 -4.000000e+000  6.341000e+000
      vertex -1.000000e+000 -3.236068e+000  8.692141e+000
    endloop
  endfacet
  facet normal  0.000000e+000 -9.510565e-001  3.090171e-001
    outer loop
      vertex -1.000000e+000 -3.236068e+000  8.692141e+000
      vertex  1.000000e+000 -4.000000e+000  6.341000e+000
      vertex  1.000000e+000 -3.236068e+000  8.692141e+000
    endloop
  endfacet
  facet normal  0.000000e+000 -5.877855e-001  8.090168e-001
    outer loop
      vertex -1.000000e+000 -3.236068e+000  8.692141e+000
      vertex  1.000000e+000 -3.236068e+000  8.692141e+000
      vertex -1.000000e+000 -1.236068e+000  1.014523e+001
    endloop
  endfacet
  facet normal  0.000000e+000 -5.877855e-001  8.090168e-001
    outer loop
      vertex -1.000000e+000 -1.236068e+000  1.014523e+001
      vertex  1.000000e+000 -3.236068e+000  8.692141e+000
      vertex  1.000000e+000 -1.236068e+000  1.014523e+001
    endloop
  endfacet
  facet normal  0.000000e+000  0.000000e+000  1.000000e+000
    outer loop
      vertex -1.000000e+000 -1.236068e+000  1.014523e+001
      vertex  1.000000e+000 -1.236068e+000  1.014523e+001
      vertex -1.000000e+000  1.236068e+000  1.014523e+001
    endloop
  endfacet
  facet normal  -0.000000e+000  0.000000e+000  1.000000e+000
    outer loop
      vertex -1.000000e+000  1.236068e+000  1.014523e+001
      vertex  1.000000e+000 -1.236068e+000  1.014523e+001
      vertex  1.000000e+000  1.236068e+000  1.014523e+001
    endloop
  endfacet
  facet normal  0.000000e+000  5.877855e-001  8.090168e-001
    outer loop
      vertex -1.000000e+000  1.236068e+000  1.014523e+001
      vertex  1.000000e+000  1.236068e+000  1.014523e+001
      vertex -1.000000e+000  3.236068e+000  8.692141e+000
    endloop
  endfacet
  facet normal  -0.000000e+000  5.877855e-001  8.090168e-001
    outer loop
      vertex -1.000000e+000  3.236068e+000  8.692141e+000
      vertex  1.000000e+000  1.236068e+000  1.014523e+001
      vertex  1.000000e+000  3.236068e+000  8.692141e+000
    endloop
  endfacet
  facet normal  0.000000e+000  9.510565e-001  3.090171e-001
    outer loop
      vertex -1.000000e+000  3.236068e+000  8.692141e+000
      vertex  1.000000e+000  3.236068e+000  8.692141e+000
      vertex -1.000000e+000  4.000000e+000  6.341000e+000
    endloop
  endfacet
  facet normal  -0.000000e+000  9.510565e-001  3.090171e-001
    outer loop
      vertex -1.000000e+000  4.000000e+000  6.341000e+000
      vertex  1.000000e+000  3.236068e+000  8.692141e+000
      vertex  1.000000e+000  4.000000e+000  6.341000e+000
    endloop
  endfacet
  facet normal  0.000000e+000  0.000000e+000 -1.000000e+000
    outer loop
      vertex  5.817072e-017  9.500000e-001  0.000000e+000
      vertex  6.717514e-001  6.717514e-001  0.000000e+000
      vertex -6.717514e-001  6.717514e-001  0.000000e+000
    endloop
  endfacet
  facet normal  0.000000e+000  0.000000e+000 -1.000000e+000
    outer loop
      vertex -1.745122e-016 -9.500000e-001  0.000000e+000
      vertex -6.717514e-001 -6.717514e-001  0.000000e+000
      vertex  6.717514e-001 -6.717514e-001  0.000000e+000
    endloop
  endfacet
  facet normal  0.000000e+000  0.000000e+000 -1.000000e+000
    outer loop
      vertex  6.717514e-001 -6.717514e-001  0.000000e+000
      vertex -6.717514e-001 -6.717514e-001  0.000000e+000
      vertex -9.500000e-001  1.163414e-016  0.000000e+000
    endloop
  endfacet
  facet normal  0.000000e+000  0.000000e+000 -1.000000e+000
    outer loop
      vertex  6.717514e-001 -6.717514e-001  0.000000e+000
      vertex -9.500000e-001  1.163414e-016  0.000000e+000
      vertex  9.500000e-001  0.000000e+000  0.000000e+000
    endloop
  endfacet
  facet normal  0.000000e+000  0.000000e+000 -1.000000e+000
    outer loop
      vertex  9.500000e-001  0.000000e+000  0.000000e+000
      vertex -9.500000e-001  1.163414e-016  0.000000e+000
      vertex -6.717514e-001  6.717514e-001  0.000000e+000
    endloop
  endfacet
  facet normal  0.000000e+000  0.000000e+000 -1.000000e+000
    outer loop
      vertex  9.500000e-001  0.000000e+000  0.000000e+000
      vertex -6.717514e-001  6.717514e-001  0.000000e+000
      vertex  6.717514e-001  6.717514e-001  0.000000e+000
    endloop
  endfacet
endsolid CATIA STL
