solid CATIA STL
  facet normal  0.000000e+000  0.000000e+000  1.000000e+000
    outer loop
      vertex -1.267500e+001 -4.050000e+000 -1.720000e+001
      vertex -1.267500e+001 -1.000000e+001 -1.720000e+001
      vertex  0.000000e+000 -4.050000e+000 -1.720000e+001
    endloop
  endfacet
  facet normal  0.000000e+000  0.000000e+000  1.000000e+000
    outer loop
      vertex  0.000000e+000 -4.050000e+000 -1.720000e+001
      vertex -1.267500e+001 -1.000000e+001 -1.720000e+001
      vertex  0.000000e+000 -1.000000e+001 -1.720000e+001
    endloop
  endfacet
  facet normal  0.000000e+000  0.000000e+000  9.999999e-001
    outer loop
      vertex -1.267500e+001  5.000000e+001 -1.720000e+001
      vertex -1.267500e+001  4.405000e+001 -1.720000e+001
      vertex  0.000000e+000  5.000000e+001 -1.720000e+001
    endloop
  endfacet
  facet normal  0.000000e+000  0.000000e+000  9.999999e-001
    outer loop
      vertex  0.000000e+000  5.000000e+001 -1.720000e+001
      vertex -1.267500e+001  4.405000e+001 -1.720000e+001
      vertex  0.000000e+000  4.405000e+001 -1.720000e+001
    endloop
  endfacet
  facet normal  0.000000e+000  0.000000e+000  1.000000e+000
    outer loop
      vertex -1.267500e+001  2.395000e+001 -1.720000e+001
      vertex -1.267500e+001  1.605000e+001 -1.720000e+001
      vertex  0.000000e+000  2.395000e+001 -1.720000e+001
    endloop
  endfacet
  facet normal  0.000000e+000  0.000000e+000  1.000000e+000
    outer loop
      vertex  0.000000e+000  2.395000e+001 -1.720000e+001
      vertex -1.267500e+001  1.605000e+001 -1.720000e+001
      vertex  0.000000e+000  1.605000e+001 -1.720000e+001
    endloop
  endfacet
  facet normal  0.000000e+000  0.000000e+000 -1.000000e+000
    outer loop
      vertex  0.000000e+000 -4.050000e+000 -2.230000e+001
      vertex -1.267500e+001 -1.000000e+001 -2.230000e+001
      vertex -1.267500e+001 -4.050000e+000 -2.230000e+001
    endloop
  endfacet
  facet normal  0.000000e+000  0.000000e+000 -1.000000e+000
    outer loop
      vertex  3.000000e+000 -1.000000e+001 -2.230000e+001
      vertex -1.267500e+001 -1.000000e+001 -2.230000e+001
      vertex  0.000000e+000 -4.050000e+000 -2.230000e+001
    endloop
  endfacet
  facet normal  0.000000e+000  0.000000e+000 -1.000000e+000
    outer loop
      vertex  3.000000e+000 -1.000000e+001 -2.230000e+001
      vertex  0.000000e+000 -4.050000e+000 -2.230000e+001
      vertex  0.000000e+000  1.605000e+001 -2.230000e+001
    endloop
  endfacet
  facet normal  0.000000e+000  0.000000e+000 -9.999999e-001
    outer loop
      vertex  3.000000e+000 -1.000000e+001 -2.230000e+001
      vertex  0.000000e+000  1.605000e+001 -2.230000e+001
      vertex  0.000000e+000  2.395000e+001 -2.230000e+001
    endloop
  endfacet
  facet normal  0.000000e+000  0.000000e+000 -1.000000e+000
    outer loop
      vertex  3.000000e+000 -1.000000e+001 -2.230000e+001
      vertex  0.000000e+000  2.395000e+001 -2.230000e+001
      vertex  0.000000e+000  4.405000e+001 -2.230000e+001
    endloop
  endfacet
  facet normal  0.000000e+000  0.000000e+000 -1.000000e+000
    outer loop
      vertex  3.000000e+000 -1.000000e+001 -2.230000e+001
      vertex  0.000000e+000  4.405000e+001 -2.230000e+001
      vertex  3.000000e+000  5.000000e+001 -2.230000e+001
    endloop
  endfacet
  facet normal  0.000000e+000  0.000000e+000 -1.000000e+000
    outer loop
      vertex  0.000000e+000  2.395000e+001 -2.230000e+001
      vertex  0.000000e+000  1.605000e+001 -2.230000e+001
      vertex -1.267500e+001  2.395000e+001 -2.230000e+001
    endloop
  endfacet
  facet normal  0.000000e+000  0.000000e+000 -1.000000e+000
    outer loop
      vertex -1.267500e+001  2.395000e+001 -2.230000e+001
      vertex  0.000000e+000  1.605000e+001 -2.230000e+001
      vertex -1.267500e+001  1.605000e+001 -2.230000e+001
    endloop
  endfacet
  facet normal  0.000000e+000  0.000000e+000 -9.999999e-001
    outer loop
      vertex  3.000000e+000  5.000000e+001 -2.230000e+001
      vertex  0.000000e+000  4.405000e+001 -2.230000e+001
      vertex -1.267500e+001  5.000000e+001 -2.230000e+001
    endloop
  endfacet
  facet normal  0.000000e+000  0.000000e+000 -9.999999e-001
    outer loop
      vertex -1.267500e+001  5.000000e+001 -2.230000e+001
      vertex  0.000000e+000  4.405000e+001 -2.230000e+001
      vertex -1.267500e+001  4.405000e+001 -2.230000e+001
    endloop
  endfacet
  facet normal  0.000000e+000  9.999999e-001  0.000000e+000
    outer loop
      vertex  3.000000e+000  5.000000e+001 -2.230000e+001
      vertex -1.267500e+001  5.000000e+001 -2.230000e+001
      vertex -1.267500e+001  5.000000e+001 -2.030000e+001
    endloop
  endfacet
  facet normal  -0.000000e+000  1.000000e+000  0.000000e+000
    outer loop
      vertex  3.000000e+000  5.000000e+001 -2.230000e+001
      vertex -1.267500e+001  5.000000e+001 -2.030000e+001
      vertex -4.325000e+000  5.000000e+001 -2.030000e+001
    endloop
  endfacet
  facet normal  -0.000000e+000  1.000000e+000  0.000000e+000
    outer loop
      vertex  3.000000e+000  5.000000e+001 -2.230000e+001
      vertex -4.325000e+000  5.000000e+001 -2.030000e+001
      vertex -4.325000e+000  5.000000e+001 -1.920000e+001
    endloop
  endfacet
  facet normal  -0.000000e+000  9.999999e-001  0.000000e+000
    outer loop
      vertex  3.000000e+000  5.000000e+001 -2.230000e+001
      vertex -4.325000e+000  5.000000e+001 -1.920000e+001
      vertex  0.000000e+000  5.000000e+001 -1.720000e+001
    endloop
  endfacet
  facet normal  -0.000000e+000  1.000000e+000  0.000000e+000
    outer loop
      vertex  3.000000e+000  5.000000e+001 -2.230000e+001
      vertex  0.000000e+000  5.000000e+001 -1.720000e+001
      vertex  0.000000e+000  5.000000e+001 -1.000000e+001
    endloop
  endfacet
  facet normal  -0.000000e+000  1.000000e+000  0.000000e+000
    outer loop
      vertex  3.000000e+000  5.000000e+001 -2.230000e+001
      vertex  0.000000e+000  5.000000e+001 -1.000000e+001
      vertex  3.000000e+000  5.000000e+001 -1.000000e+001
    endloop
  endfacet
  facet normal  0.000000e+000  1.000000e+000  0.000000e+000
    outer loop
      vertex -4.325000e+000  5.000000e+001 -1.920000e+001
      vertex -1.267500e+001  5.000000e+001 -1.920000e+001
      vertex  0.000000e+000  5.000000e+001 -1.720000e+001
    endloop
  endfacet
  facet normal  0.000000e+000  1.000000e+000  0.000000e+000
    outer loop
      vertex  0.000000e+000  5.000000e+001 -1.720000e+001
      vertex -1.267500e+001  5.000000e+001 -1.920000e+001
      vertex -1.267500e+001  5.000000e+001 -1.720000e+001
    endloop
  endfacet
  facet normal  0.000000e+000 -1.000000e+000  0.000000e+000
    outer loop
      vertex -1.267500e+001  4.405000e+001 -1.720000e+001
      vertex -1.267500e+001  4.405000e+001 -1.920000e+001
      vertex  0.000000e+000  4.405000e+001 -1.720000e+001
    endloop
  endfacet
  facet normal  0.000000e+000 -1.000000e+000  0.000000e+000
    outer loop
      vertex  0.000000e+000  4.405000e+001 -1.720000e+001
      vertex -1.267500e+001  4.405000e+001 -1.920000e+001
      vertex -4.325000e+000  4.405000e+001 -1.920000e+001
    endloop
  endfacet
  facet normal  0.000000e+000 -1.000000e+000  0.000000e+000
    outer loop
      vertex  0.000000e+000  4.405000e+001 -1.720000e+001
      vertex -4.325000e+000  4.405000e+001 -1.920000e+001
      vertex  0.000000e+000  4.405000e+001 -2.230000e+001
    endloop
  endfacet
  facet normal  0.000000e+000 -1.000000e+000  0.000000e+000
    outer loop
      vertex  0.000000e+000  4.405000e+001 -2.230000e+001
      vertex -4.325000e+000  4.405000e+001 -1.920000e+001
      vertex -4.325000e+000  4.405000e+001 -2.030000e+001
    endloop
  endfacet
  facet normal  0.000000e+000 -1.000000e+000  -0.000000e+000
    outer loop
      vertex  0.000000e+000  4.405000e+001 -2.230000e+001
      vertex -4.325000e+000  4.405000e+001 -2.030000e+001
      vertex -1.267500e+001  4.405000e+001 -2.230000e+001
    endloop
  endfacet
  facet normal  0.000000e+000 -1.000000e+000  0.000000e+000
    outer loop
      vertex -1.267500e+001  4.405000e+001 -2.230000e+001
      vertex -4.325000e+000  4.405000e+001 -2.030000e+001
      vertex -1.267500e+001  4.405000e+001 -2.030000e+001
    endloop
  endfacet
  facet normal  0.000000e+000  1.000000e+000  0.000000e+000
    outer loop
      vertex -1.267500e+001  2.395000e+001 -2.230000e+001
      vertex -1.267500e+001  2.395000e+001 -2.030000e+001
      vertex  0.000000e+000  2.395000e+001 -2.230000e+001
    endloop
  endfacet
  facet normal  0.000000e+000  1.000000e+000  0.000000e+000
    outer loop
      vertex  0.000000e+000  2.395000e+001 -2.230000e+001
      vertex -1.267500e+001  2.395000e+001 -2.030000e+001
      vertex -4.325000e+000  2.395000e+001 -2.030000e+001
    endloop
  endfacet
  facet normal  -0.000000e+000  1.000000e+000  0.000000e+000
    outer loop
      vertex  0.000000e+000  2.395000e+001 -2.230000e+001
      vertex -4.325000e+000  2.395000e+001 -2.030000e+001
      vertex  0.000000e+000  2.395000e+001 -1.720000e+001
    endloop
  endfacet
  facet normal  0.000000e+000  1.000000e+000  0.000000e+000
    outer loop
      vertex  0.000000e+000  2.395000e+001 -1.720000e+001
      vertex -4.325000e+000  2.395000e+001 -2.030000e+001
      vertex -4.325000e+000  2.395000e+001 -1.920000e+001
    endloop
  endfacet
  facet normal  0.000000e+000  1.000000e+000  -0.000000e+000
    outer loop
      vertex  0.000000e+000  2.395000e+001 -1.720000e+001
      vertex -4.325000e+000  2.395000e+001 -1.920000e+001
      vertex -1.267500e+001  2.395000e+001 -1.720000e+001
    endloop
  endfacet
  facet normal  0.000000e+000  1.000000e+000  0.000000e+000
    outer loop
      vertex -1.267500e+001  2.395000e+001 -1.720000e+001
      vertex -4.325000e+000  2.395000e+001 -1.920000e+001
      vertex -1.267500e+001  2.395000e+001 -1.920000e+001
    endloop
  endfacet
  facet normal  0.000000e+000 -1.000000e+000  0.000000e+000
    outer loop
      vertex -1.267500e+001  1.605000e+001 -1.720000e+001
      vertex -1.267500e+001  1.605000e+001 -1.920000e+001
      vertex  0.000000e+000  1.605000e+001 -1.720000e+001
    endloop
  endfacet
  facet normal  0.000000e+000 -1.000000e+000  0.000000e+000
    outer loop
      vertex  0.000000e+000  1.605000e+001 -1.720000e+001
      vertex -1.267500e+001  1.605000e+001 -1.920000e+001
      vertex -4.325000e+000  1.605000e+001 -1.920000e+001
    endloop
  endfacet
  facet normal  0.000000e+000 -1.000000e+000  0.000000e+000
    outer loop
      vertex  0.000000e+000  1.605000e+001 -1.720000e+001
      vertex -4.325000e+000  1.605000e+001 -1.920000e+001
      vertex  0.000000e+000  1.605000e+001 -2.230000e+001
    endloop
  endfacet
  facet normal  0.000000e+000 -1.000000e+000  0.000000e+000
    outer loop
      vertex  0.000000e+000  1.605000e+001 -2.230000e+001
      vertex -4.325000e+000  1.605000e+001 -1.920000e+001
      vertex -4.325000e+000  1.605000e+001 -2.030000e+001
    endloop
  endfacet
  facet normal  0.000000e+000 -1.000000e+000  -0.000000e+000
    outer loop
      vertex  0.000000e+000  1.605000e+001 -2.230000e+001
      vertex -4.325000e+000  1.605000e+001 -2.030000e+001
      vertex -1.267500e+001  1.605000e+001 -2.230000e+001
    endloop
  endfacet
  facet normal  0.000000e+000 -1.000000e+000  0.000000e+000
    outer loop
      vertex -1.267500e+001  1.605000e+001 -2.230000e+001
      vertex -4.325000e+000  1.605000e+001 -2.030000e+001
      vertex -1.267500e+001  1.605000e+001 -2.030000e+001
    endloop
  endfacet
  facet normal  0.000000e+000  1.000000e+000  0.000000e+000
    outer loop
      vertex -1.267500e+001 -4.050000e+000 -2.230000e+001
      vertex -1.267500e+001 -4.050000e+000 -2.030000e+001
      vertex  0.000000e+000 -4.050000e+000 -2.230000e+001
    endloop
  endfacet
  facet normal  0.000000e+000  1.000000e+000  0.000000e+000
    outer loop
      vertex  0.000000e+000 -4.050000e+000 -2.230000e+001
      vertex -1.267500e+001 -4.050000e+000 -2.030000e+001
      vertex -4.325000e+000 -4.050000e+000 -2.030000e+001
    endloop
  endfacet
  facet normal  -0.000000e+000  1.000000e+000  0.000000e+000
    outer loop
      vertex  0.000000e+000 -4.050000e+000 -2.230000e+001
      vertex -4.325000e+000 -4.050000e+000 -2.030000e+001
      vertex  0.000000e+000 -4.050000e+000 -1.720000e+001
    endloop
  endfacet
  facet normal  0.000000e+000  1.000000e+000  0.000000e+000
    outer loop
      vertex  0.000000e+000 -4.050000e+000 -1.720000e+001
      vertex -4.325000e+000 -4.050000e+000 -2.030000e+001
      vertex -4.325000e+000 -4.050000e+000 -1.920000e+001
    endloop
  endfacet
  facet normal  0.000000e+000  1.000000e+000  -0.000000e+000
    outer loop
      vertex  0.000000e+000 -4.050000e+000 -1.720000e+001
      vertex -4.325000e+000 -4.050000e+000 -1.920000e+001
      vertex -1.267500e+001 -4.050000e+000 -1.720000e+001
    endloop
  endfacet
  facet normal  0.000000e+000  1.000000e+000  0.000000e+000
    outer loop
      vertex -1.267500e+001 -4.050000e+000 -1.720000e+001
      vertex -4.325000e+000 -4.050000e+000 -1.920000e+001
      vertex -1.267500e+001 -4.050000e+000 -1.920000e+001
    endloop
  endfacet
  facet normal  0.000000e+000 -1.000000e+000  0.000000e+000
    outer loop
      vertex -4.325000e+000 -1.000000e+001 -2.030000e+001
      vertex -1.267500e+001 -1.000000e+001 -2.030000e+001
      vertex -1.267500e+001 -1.000000e+001 -2.230000e+001
    endloop
  endfacet
  facet normal  0.000000e+000 -9.999999e-001  0.000000e+000
    outer loop
      vertex -4.325000e+000 -1.000000e+001 -2.030000e+001
      vertex -1.267500e+001 -1.000000e+001 -2.230000e+001
      vertex  3.000000e+000 -1.000000e+001 -2.230000e+001
    endloop
  endfacet
  facet normal  0.000000e+000 -1.000000e+000  0.000000e+000
    outer loop
      vertex -4.325000e+000 -1.000000e+001 -2.030000e+001
      vertex  3.000000e+000 -1.000000e+001 -2.230000e+001
      vertex  0.000000e+000 -1.000000e+001 -1.720000e+001
    endloop
  endfacet
  facet normal  0.000000e+000 -1.000000e+000  0.000000e+000
    outer loop
      vertex -4.325000e+000 -1.000000e+001 -2.030000e+001
      vertex  0.000000e+000 -1.000000e+001 -1.720000e+001
      vertex -4.325000e+000 -1.000000e+001 -1.920000e+001
    endloop
  endfacet
  facet normal  0.000000e+000 -1.000000e+000  0.000000e+000
    outer loop
      vertex  0.000000e+000 -1.000000e+001 -1.720000e+001
      vertex -1.267500e+001 -1.000000e+001 -1.720000e+001
      vertex -4.325000e+000 -1.000000e+001 -1.920000e+001
    endloop
  endfacet
  facet normal  0.000000e+000 -1.000000e+000  0.000000e+000
    outer loop
      vertex -4.325000e+000 -1.000000e+001 -1.920000e+001
      vertex -1.267500e+001 -1.000000e+001 -1.720000e+001
      vertex -1.267500e+001 -1.000000e+001 -1.920000e+001
    endloop
  endfacet
  facet normal  0.000000e+000 -1.000000e+000  0.000000e+000
    outer loop
      vertex  3.000000e+000 -1.000000e+001 -1.000000e+001
      vertex  0.000000e+000 -1.000000e+001 -1.000000e+001
      vertex  3.000000e+000 -1.000000e+001 -2.230000e+001
    endloop
  endfacet
  facet normal  0.000000e+000 -1.000000e+000  0.000000e+000
    outer loop
      vertex  3.000000e+000 -1.000000e+001 -2.230000e+001
      vertex  0.000000e+000 -1.000000e+001 -1.000000e+001
      vertex  0.000000e+000 -1.000000e+001 -1.720000e+001
    endloop
  endfacet
  facet normal -1.000000e+000  0.000000e+000  0.000000e+000
    outer loop
      vertex -4.325000e+000 -4.050000e+000 -2.030000e+001
      vertex -4.325000e+000 -1.000000e+001 -2.030000e+001
      vertex -4.325000e+000 -4.050000e+000 -1.920000e+001
    endloop
  endfacet
  facet normal -1.000000e+000  -0.000000e+000  0.000000e+000
    outer loop
      vertex -4.325000e+000 -4.050000e+000 -1.920000e+001
      vertex -4.325000e+000 -1.000000e+001 -2.030000e+001
      vertex -4.325000e+000 -1.000000e+001 -1.920000e+001
    endloop
  endfacet
  facet normal -1.000000e+000  0.000000e+000  0.000000e+000
    outer loop
      vertex -4.325000e+000  2.395000e+001 -2.030000e+001
      vertex -4.325000e+000  1.605000e+001 -2.030000e+001
      vertex -4.325000e+000  2.395000e+001 -1.920000e+001
    endloop
  endfacet
  facet normal -1.000000e+000  -0.000000e+000  0.000000e+000
    outer loop
      vertex -4.325000e+000  2.395000e+001 -1.920000e+001
      vertex -4.325000e+000  1.605000e+001 -2.030000e+001
      vertex -4.325000e+000  1.605000e+001 -1.920000e+001
    endloop
  endfacet
  facet normal -1.000000e+000  0.000000e+000  0.000000e+000
    outer loop
      vertex -4.325000e+000  5.000000e+001 -2.030000e+001
      vertex -4.325000e+000  4.405000e+001 -2.030000e+001
      vertex -4.325000e+000  5.000000e+001 -1.920000e+001
    endloop
  endfacet
  facet normal -1.000000e+000  -0.000000e+000  0.000000e+000
    outer loop
      vertex -4.325000e+000  5.000000e+001 -1.920000e+001
      vertex -4.325000e+000  4.405000e+001 -2.030000e+001
      vertex -4.325000e+000  4.405000e+001 -1.920000e+001
    endloop
  endfacet
  facet normal  0.000000e+000  0.000000e+000  1.000000e+000
    outer loop
      vertex -1.267500e+001  5.000000e+001 -2.030000e+001
      vertex -1.267500e+001  4.405000e+001 -2.030000e+001
      vertex -4.325000e+000  5.000000e+001 -2.030000e+001
    endloop
  endfacet
  facet normal  0.000000e+000  0.000000e+000  1.000000e+000
    outer loop
      vertex -4.325000e+000  5.000000e+001 -2.030000e+001
      vertex -1.267500e+001  4.405000e+001 -2.030000e+001
      vertex -4.325000e+000  4.405000e+001 -2.030000e+001
    endloop
  endfacet
  facet normal  0.000000e+000  0.000000e+000 -1.000000e+000
    outer loop
      vertex -1.267500e+001  1.605000e+001 -1.920000e+001
      vertex -1.267500e+001  2.395000e+001 -1.920000e+001
      vertex -4.325000e+000  1.605000e+001 -1.920000e+001
    endloop
  endfacet
  facet normal  0.000000e+000  0.000000e+000 -1.000000e+000
    outer loop
      vertex -4.325000e+000  1.605000e+001 -1.920000e+001
      vertex -1.267500e+001  2.395000e+001 -1.920000e+001
      vertex -4.325000e+000  2.395000e+001 -1.920000e+001
    endloop
  endfacet
  facet normal  0.000000e+000  0.000000e+000 -1.000000e+000
    outer loop
      vertex -1.267500e+001 -1.000000e+001 -1.920000e+001
      vertex -1.267500e+001 -4.050000e+000 -1.920000e+001
      vertex -4.325000e+000 -1.000000e+001 -1.920000e+001
    endloop
  endfacet
  facet normal  0.000000e+000  0.000000e+000 -1.000000e+000
    outer loop
      vertex -4.325000e+000 -1.000000e+001 -1.920000e+001
      vertex -1.267500e+001 -4.050000e+000 -1.920000e+001
      vertex -4.325000e+000 -4.050000e+000 -1.920000e+001
    endloop
  endfacet
  facet normal  0.000000e+000  0.000000e+000 -1.000000e+000
    outer loop
      vertex -1.267500e+001  4.405000e+001 -1.920000e+001
      vertex -1.267500e+001  5.000000e+001 -1.920000e+001
      vertex -4.325000e+000  4.405000e+001 -1.920000e+001
    endloop
  endfacet
  facet normal  0.000000e+000  0.000000e+000 -1.000000e+000
    outer loop
      vertex -4.325000e+000  4.405000e+001 -1.920000e+001
      vertex -1.267500e+001  5.000000e+001 -1.920000e+001
      vertex -4.325000e+000  5.000000e+001 -1.920000e+001
    endloop
  endfacet
  facet normal  0.000000e+000  0.000000e+000  1.000000e+000
    outer loop
      vertex -1.267500e+001  2.395000e+001 -2.030000e+001
      vertex -1.267500e+001  1.605000e+001 -2.030000e+001
      vertex -4.325000e+000  2.395000e+001 -2.030000e+001
    endloop
  endfacet
  facet normal  0.000000e+000  0.000000e+000  1.000000e+000
    outer loop
      vertex -4.325000e+000  2.395000e+001 -2.030000e+001
      vertex -1.267500e+001  1.605000e+001 -2.030000e+001
      vertex -4.325000e+000  1.605000e+001 -2.030000e+001
    endloop
  endfacet
  facet normal  0.000000e+000  0.000000e+000  1.000000e+000
    outer loop
      vertex -1.267500e+001 -4.050000e+000 -2.030000e+001
      vertex -1.267500e+001 -1.000000e+001 -2.030000e+001
      vertex -4.325000e+000 -4.050000e+000 -2.030000e+001
    endloop
  endfacet
  facet normal  0.000000e+000  0.000000e+000  1.000000e+000
    outer loop
      vertex -4.325000e+000 -4.050000e+000 -2.030000e+001
      vertex -1.267500e+001 -1.000000e+001 -2.030000e+001
      vertex -4.325000e+000 -1.000000e+001 -2.030000e+001
    endloop
  endfacet
  facet normal -1.000000e+000  0.000000e+000  -0.000000e+000
    outer loop
      vertex  0.000000e+000  2.467502e+000 -1.792745e+000
      vertex  0.000000e+000  3.050000e+000  0.000000e+000
      vertex  0.000000e+000  1.795000e+001 -2.050000e+000
    endloop
  endfacet
  facet normal -1.000000e+000  0.000000e+000  0.000000e+000
    outer loop
      vertex  0.000000e+000  4.415117e+001  4.998005e+000
      vertex  0.000000e+000  4.094250e+001  2.900722e+000
      vertex  0.000000e+000  4.297500e+001  5.152851e+000
    endloop
  endfacet
  facet normal -1.000000e+000  0.000000e+000  0.000000e+000
    outer loop
      vertex  0.000000e+000  4.151169e+000  4.998005e+000
      vertex  0.000000e+000  9.425018e-001  2.900722e+000
      vertex  0.000000e+000  2.975000e+000  5.152851e+000
    endloop
  endfacet
  facet normal -9.999999e-001  -0.000000e+000  0.000000e+000
    outer loop
      vertex  0.000000e+000  4.000000e+001  1.000000e+001
      vertex  0.000000e+000  3.842849e+001  8.912510e+000
      vertex  0.000000e+000  3.547500e+001  7.837530e+000
    endloop
  endfacet
  facet normal -9.999999e-001  0.000000e+000  0.000000e+000
    outer loop
      vertex  0.000000e+000  1.795000e+001  2.050000e+000
      vertex  0.000000e+000  1.795000e+001 -2.050000e+000
      vertex  0.000000e+000  3.050000e+000  0.000000e+000
    endloop
  endfacet
  facet normal -1.000000e+000  0.000000e+000  0.000000e+000
    outer loop
      vertex  0.000000e+000  1.795000e+001  2.050000e+000
      vertex  0.000000e+000  3.050000e+000  0.000000e+000
      vertex  0.000000e+000  2.467502e+000  1.792745e+000
    endloop
  endfacet
  facet normal -1.000000e+000  0.000000e+000  0.000000e+000
    outer loop
      vertex  0.000000e+000  1.795000e+001  2.050000e+000
      vertex  0.000000e+000  2.467502e+000  1.792745e+000
      vertex  0.000000e+000  9.425018e-001  2.900722e+000
    endloop
  endfacet
  facet normal -1.000000e+000  0.000000e+000  0.000000e+000
    outer loop
      vertex  0.000000e+000  1.795000e+001  2.050000e+000
      vertex  0.000000e+000  9.425018e-001  2.900722e+000
      vertex  0.000000e+000  4.151169e+000  4.998005e+000
    endloop
  endfacet
  facet normal -1.000000e+000  0.000000e+000  0.000000e+000
    outer loop
      vertex  0.000000e+000  1.795000e+001  2.050000e+000
      vertex  0.000000e+000  4.151169e+000  4.998005e+000
      vertex  0.000000e+000  5.092340e+000  5.720191e+000
    endloop
  endfacet
  facet normal -1.000000e+000  0.000000e+000  0.000000e+000
    outer loop
      vertex  0.000000e+000  1.795000e+001  2.050000e+000
      vertex  0.000000e+000  5.092340e+000  5.720191e+000
      vertex  0.000000e+000  5.247185e+000  6.896360e+000
    endloop
  endfacet
  facet normal -1.000000e+000  0.000000e+000  0.000000e+000
    outer loop
      vertex  0.000000e+000  1.795000e+001  2.050000e+000
      vertex  0.000000e+000  5.247185e+000  6.896360e+000
      vertex  0.000000e+000  4.525000e+000  7.837530e+000
    endloop
  endfacet
  facet normal -1.000000e+000  0.000000e+000  0.000000e+000
    outer loop
      vertex  0.000000e+000  2.205000e+001 -2.050000e+000
      vertex  0.000000e+000  2.205000e+001  2.050000e+000
      vertex  0.000000e+000  3.753250e+001  1.792745e+000
    endloop
  endfacet
  facet normal -1.000000e+000  0.000000e+000  0.000000e+000
    outer loop
      vertex  0.000000e+000  2.205000e+001 -2.050000e+000
      vertex  0.000000e+000  3.753250e+001  1.792745e+000
      vertex  0.000000e+000  3.695000e+001  3.735173e-016
    endloop
  endfacet
  facet normal -1.000000e+000  0.000000e+000  -0.000000e+000
    outer loop
      vertex  0.000000e+000  2.205000e+001 -2.050000e+000
      vertex  0.000000e+000  3.695000e+001  3.735173e-016
      vertex  0.000000e+000  3.753250e+001 -1.792745e+000
    endloop
  endfacet
  facet normal -1.000000e+000  0.000000e+000  -0.000000e+000
    outer loop
      vertex  0.000000e+000  2.205000e+001 -2.050000e+000
      vertex  0.000000e+000  3.753250e+001 -1.792745e+000
      vertex  0.000000e+000  3.905750e+001 -2.900722e+000
    endloop
  endfacet
  facet normal -1.000000e+000  0.000000e+000  -0.000000e+000
    outer loop
      vertex  0.000000e+000  2.205000e+001  2.050000e+000
      vertex  0.000000e+000  3.475282e+001  6.896360e+000
      vertex  0.000000e+000  3.490766e+001  5.720191e+000
    endloop
  endfacet
  facet normal -1.000000e+000  0.000000e+000  -0.000000e+000
    outer loop
      vertex  0.000000e+000  2.205000e+001  2.050000e+000
      vertex  0.000000e+000  3.490766e+001  5.720191e+000
      vertex  0.000000e+000  3.584883e+001  4.998005e+000
    endloop
  endfacet
  facet normal -1.000000e+000  0.000000e+000  -0.000000e+000
    outer loop
      vertex  0.000000e+000  2.205000e+001  2.050000e+000
      vertex  0.000000e+000  3.584883e+001  4.998005e+000
      vertex  0.000000e+000  3.905750e+001  2.900722e+000
    endloop
  endfacet
  facet normal -1.000000e+000  0.000000e+000  0.000000e+000
    outer loop
      vertex  0.000000e+000  2.205000e+001  2.050000e+000
      vertex  0.000000e+000  3.905750e+001  2.900722e+000
      vertex  0.000000e+000  3.753250e+001  1.792745e+000
    endloop
  endfacet
  facet normal -1.000000e+000  0.000000e+000  0.000000e+000
    outer loop
      vertex  0.000000e+000 -1.000000e+001 -1.000000e+001
      vertex  0.000000e+000 -1.000000e+001  0.000000e+000
      vertex  0.000000e+000 -3.050000e+000  3.735173e-016
    endloop
  endfacet
  facet normal -1.000000e+000  0.000000e+000  -0.000000e+000
    outer loop
      vertex  0.000000e+000 -1.000000e+001 -1.000000e+001
      vertex  0.000000e+000 -3.050000e+000  3.735173e-016
      vertex  0.000000e+000 -2.467502e+000 -1.792745e+000
    endloop
  endfacet
  facet normal -1.000000e+000  0.000000e+000  -0.000000e+000
    outer loop
      vertex  0.000000e+000 -1.000000e+001 -1.000000e+001
      vertex  0.000000e+000 -2.467502e+000 -1.792745e+000
      vertex  0.000000e+000 -9.425018e-001 -2.900722e+000
    endloop
  endfacet
  facet normal -1.000000e+000  0.000000e+000  0.000000e+000
    outer loop
      vertex  0.000000e+000 -1.000000e+001 -1.000000e+001
      vertex  0.000000e+000 -9.425018e-001 -2.900722e+000
      vertex  0.000000e+000 -4.050000e+000 -1.720000e+001
    endloop
  endfacet
  facet normal -1.000000e+000  0.000000e+000  0.000000e+000
    outer loop
      vertex  0.000000e+000 -1.000000e+001 -1.000000e+001
      vertex  0.000000e+000 -4.050000e+000 -1.720000e+001
      vertex  0.000000e+000 -1.000000e+001 -1.720000e+001
    endloop
  endfacet
  facet normal -1.000000e+000  0.000000e+000  -0.000000e+000
    outer loop
      vertex  0.000000e+000 -1.000000e+001  0.000000e+000
      vertex  0.000000e+000 -5.247185e+000  6.896360e+000
      vertex  0.000000e+000 -5.092340e+000  5.720191e+000
    endloop
  endfacet
  facet normal -1.000000e+000  0.000000e+000  -0.000000e+000
    outer loop
      vertex  0.000000e+000 -1.000000e+001  0.000000e+000
      vertex  0.000000e+000 -5.092340e+000  5.720191e+000
      vertex  0.000000e+000 -4.151169e+000  4.998005e+000
    endloop
  endfacet
  facet normal -1.000000e+000  0.000000e+000  -0.000000e+000
    outer loop
      vertex  0.000000e+000 -1.000000e+001  0.000000e+000
      vertex  0.000000e+000 -4.151169e+000  4.998005e+000
      vertex  0.000000e+000 -9.425018e-001  2.900722e+000
    endloop
  endfacet
  facet normal -1.000000e+000  0.000000e+000  0.000000e+000
    outer loop
      vertex  0.000000e+000 -1.000000e+001  0.000000e+000
      vertex  0.000000e+000 -9.425018e-001  2.900722e+000
      vertex  0.000000e+000 -2.467502e+000  1.792745e+000
    endloop
  endfacet
  facet normal -1.000000e+000  0.000000e+000  0.000000e+000
    outer loop
      vertex  0.000000e+000 -1.000000e+001  0.000000e+000
      vertex  0.000000e+000 -2.467502e+000  1.792745e+000
      vertex  0.000000e+000 -3.050000e+000  3.735173e-016
    endloop
  endfacet
  facet normal -1.000000e+000  -0.000000e+000  0.000000e+000
    outer loop
      vertex  0.000000e+000 -1.776357e-015  1.000000e+001
      vertex  0.000000e+000  4.000000e+001  1.000000e+001
      vertex  0.000000e+000  3.547500e+001  7.837530e+000
    endloop
  endfacet
  facet normal -1.000000e+000  -0.000000e+000  0.000000e+000
    outer loop
      vertex  0.000000e+000 -1.776357e-015  1.000000e+001
      vertex  0.000000e+000  3.547500e+001  7.837530e+000
      vertex  0.000000e+000  3.475282e+001  6.896360e+000
    endloop
  endfacet
  facet normal -9.999999e-001  -0.000000e+000  0.000000e+000
    outer loop
      vertex  0.000000e+000 -1.776357e-015  1.000000e+001
      vertex  0.000000e+000  3.475282e+001  6.896360e+000
      vertex  0.000000e+000  2.205000e+001  2.050000e+000
    endloop
  endfacet
  facet normal -1.000000e+000  0.000000e+000  0.000000e+000
    outer loop
      vertex  0.000000e+000 -1.776357e-015  1.000000e+001
      vertex  0.000000e+000  2.205000e+001  2.050000e+000
      vertex  0.000000e+000  1.795000e+001  2.050000e+000
    endloop
  endfacet
  facet normal -9.999999e-001  0.000000e+000  0.000000e+000
    outer loop
      vertex  0.000000e+000 -1.776357e-015  1.000000e+001
      vertex  0.000000e+000  1.795000e+001  2.050000e+000
      vertex  0.000000e+000  4.525000e+000  7.837530e+000
    endloop
  endfacet
  facet normal -1.000000e+000  0.000000e+000  0.000000e+000
    outer loop
      vertex  0.000000e+000 -1.776357e-015  1.000000e+001
      vertex  0.000000e+000  4.525000e+000  7.837530e+000
      vertex  0.000000e+000  1.571516e+000  8.912510e+000
    endloop
  endfacet
  facet normal -1.000000e+000  0.000000e+000  0.000000e+000
    outer loop
      vertex  0.000000e+000 -1.776357e-015  1.000000e+001
      vertex  0.000000e+000  1.571516e+000  8.912510e+000
      vertex  0.000000e+000 -1.571516e+000  8.912510e+000
    endloop
  endfacet
  facet normal -1.000000e+000  -0.000000e+000  0.000000e+000
    outer loop
      vertex  0.000000e+000 -1.776357e-015  1.000000e+001
      vertex  0.000000e+000 -1.571516e+000  8.912510e+000
      vertex  0.000000e+000 -4.525000e+000  7.837530e+000
    endloop
  endfacet
  facet normal -1.000000e+000  0.000000e+000  0.000000e+000
    outer loop
      vertex  0.000000e+000  5.000000e+001  1.000000e+001
      vertex  0.000000e+000  5.000000e+001  2.000000e+000
      vertex  0.000000e+000  4.452500e+001  7.837530e+000
    endloop
  endfacet
  facet normal -1.000000e+000  0.000000e+000  0.000000e+000
    outer loop
      vertex  0.000000e+000  5.000000e+001  1.000000e+001
      vertex  0.000000e+000  4.452500e+001  7.837530e+000
      vertex  0.000000e+000  4.157151e+001  8.912510e+000
    endloop
  endfacet
  facet normal -9.999999e-001  0.000000e+000  0.000000e+000
    outer loop
      vertex  0.000000e+000  5.000000e+001  1.000000e+001
      vertex  0.000000e+000  4.157151e+001  8.912510e+000
      vertex  0.000000e+000  3.842849e+001  8.912510e+000
    endloop
  endfacet
  facet normal -1.000000e+000  0.000000e+000  0.000000e+000
    outer loop
      vertex  0.000000e+000  5.000000e+001  1.000000e+001
      vertex  0.000000e+000  3.842849e+001  8.912510e+000
      vertex  0.000000e+000  4.000000e+001  1.000000e+001
    endloop
  endfacet
  facet normal -1.000000e+000  0.000000e+000  0.000000e+000
    outer loop
      vertex  0.000000e+000  5.000000e+001  2.000000e+000
      vertex  0.000000e+000  5.000000e+001 -1.000000e+001
      vertex  0.000000e+000  4.246750e+001  1.792745e+000
    endloop
  endfacet
  facet normal -1.000000e+000  0.000000e+000  0.000000e+000
    outer loop
      vertex  0.000000e+000  5.000000e+001  2.000000e+000
      vertex  0.000000e+000  4.246750e+001  1.792745e+000
      vertex  0.000000e+000  4.094250e+001  2.900722e+000
    endloop
  endfacet
  facet normal -9.999999e-001  0.000000e+000  0.000000e+000
    outer loop
      vertex  0.000000e+000  5.000000e+001  2.000000e+000
      vertex  0.000000e+000  4.094250e+001  2.900722e+000
      vertex  0.000000e+000  4.415117e+001  4.998005e+000
    endloop
  endfacet
  facet normal -1.000000e+000  0.000000e+000  0.000000e+000
    outer loop
      vertex  0.000000e+000  5.000000e+001  2.000000e+000
      vertex  0.000000e+000  4.415117e+001  4.998005e+000
      vertex  0.000000e+000  4.509234e+001  5.720191e+000
    endloop
  endfacet
  facet normal -1.000000e+000  0.000000e+000  0.000000e+000
    outer loop
      vertex  0.000000e+000  5.000000e+001  2.000000e+000
      vertex  0.000000e+000  4.509234e+001  5.720191e+000
      vertex  0.000000e+000  4.524718e+001  6.896360e+000
    endloop
  endfacet
  facet normal -1.000000e+000  0.000000e+000  0.000000e+000
    outer loop
      vertex  0.000000e+000  5.000000e+001  2.000000e+000
      vertex  0.000000e+000  4.524718e+001  6.896360e+000
      vertex  0.000000e+000  4.452500e+001  7.837530e+000
    endloop
  endfacet
  facet normal -1.000000e+000  -0.000000e+000  0.000000e+000
    outer loop
      vertex  0.000000e+000 -1.000000e+001  1.000000e+001
      vertex  0.000000e+000 -1.776357e-015  1.000000e+001
      vertex  0.000000e+000 -4.525000e+000  7.837530e+000
    endloop
  endfacet
  facet normal -1.000000e+000  -0.000000e+000  0.000000e+000
    outer loop
      vertex  0.000000e+000 -1.000000e+001  1.000000e+001
      vertex  0.000000e+000 -4.525000e+000  7.837530e+000
      vertex  0.000000e+000 -5.247185e+000  6.896360e+000
    endloop
  endfacet
  facet normal -1.000000e+000  -0.000000e+000  0.000000e+000
    outer loop
      vertex  0.000000e+000 -1.000000e+001  1.000000e+001
      vertex  0.000000e+000 -5.247185e+000  6.896360e+000
      vertex  0.000000e+000 -1.000000e+001  0.000000e+000
    endloop
  endfacet
  facet normal -1.000000e+000  0.000000e+000  0.000000e+000
    outer loop
      vertex  0.000000e+000  5.000000e+001 -1.000000e+001
      vertex  0.000000e+000  5.000000e+001 -1.720000e+001
      vertex  0.000000e+000  4.405000e+001 -1.720000e+001
    endloop
  endfacet
  facet normal -1.000000e+000  0.000000e+000  0.000000e+000
    outer loop
      vertex  0.000000e+000  5.000000e+001 -1.000000e+001
      vertex  0.000000e+000  4.405000e+001 -1.720000e+001
      vertex  0.000000e+000  4.094250e+001 -2.900722e+000
    endloop
  endfacet
  facet normal -1.000000e+000  0.000000e+000  0.000000e+000
    outer loop
      vertex  0.000000e+000  5.000000e+001 -1.000000e+001
      vertex  0.000000e+000  4.094250e+001 -2.900722e+000
      vertex  0.000000e+000  4.246750e+001 -1.792745e+000
    endloop
  endfacet
  facet normal -1.000000e+000  0.000000e+000  0.000000e+000
    outer loop
      vertex  0.000000e+000  5.000000e+001 -1.000000e+001
      vertex  0.000000e+000  4.246750e+001 -1.792745e+000
      vertex  0.000000e+000  4.305000e+001  0.000000e+000
    endloop
  endfacet
  facet normal -1.000000e+000  0.000000e+000  0.000000e+000
    outer loop
      vertex  0.000000e+000  5.000000e+001 -1.000000e+001
      vertex  0.000000e+000  4.305000e+001  0.000000e+000
      vertex  0.000000e+000  4.246750e+001  1.792745e+000
    endloop
  endfacet
  facet normal -1.000000e+000  -0.000000e+000  0.000000e+000
    outer loop
      vertex  0.000000e+000  2.467502e+000 -1.792745e+000
      vertex  0.000000e+000  1.795000e+001 -2.050000e+000
      vertex  0.000000e+000  9.425018e-001 -2.900722e+000
    endloop
  endfacet
  facet normal -1.000000e+000  0.000000e+000  0.000000e+000
    outer loop
      vertex  0.000000e+000  9.425018e-001 -2.900722e+000
      vertex  0.000000e+000  1.795000e+001 -2.050000e+000
      vertex  0.000000e+000  2.205000e+001 -2.050000e+000
    endloop
  endfacet
  facet normal -1.000000e+000  0.000000e+000  0.000000e+000
    outer loop
      vertex  0.000000e+000  9.425018e-001 -2.900722e+000
      vertex  0.000000e+000  2.205000e+001 -2.050000e+000
      vertex  0.000000e+000  1.605000e+001 -1.720000e+001
    endloop
  endfacet
  facet normal -1.000000e+000  0.000000e+000  0.000000e+000
    outer loop
      vertex  0.000000e+000  1.605000e+001 -1.720000e+001
      vertex  0.000000e+000  2.205000e+001 -2.050000e+000
      vertex  0.000000e+000  3.905750e+001 -2.900722e+000
    endloop
  endfacet
  facet normal -1.000000e+000  0.000000e+000  0.000000e+000
    outer loop
      vertex  0.000000e+000  1.605000e+001 -1.720000e+001
      vertex  0.000000e+000  3.905750e+001 -2.900722e+000
      vertex  0.000000e+000  2.395000e+001 -1.720000e+001
    endloop
  endfacet
  facet normal -1.000000e+000  0.000000e+000  0.000000e+000
    outer loop
      vertex  0.000000e+000  2.395000e+001 -1.720000e+001
      vertex  0.000000e+000  3.905750e+001 -2.900722e+000
      vertex  0.000000e+000  4.094250e+001 -2.900722e+000
    endloop
  endfacet
  facet normal -1.000000e+000  0.000000e+000  0.000000e+000
    outer loop
      vertex  0.000000e+000  2.395000e+001 -1.720000e+001
      vertex  0.000000e+000  4.094250e+001 -2.900722e+000
      vertex  0.000000e+000  2.395000e+001 -2.230000e+001
    endloop
  endfacet
  facet normal -9.999999e-001  0.000000e+000  0.000000e+000
    outer loop
      vertex  0.000000e+000  2.395000e+001 -2.230000e+001
      vertex  0.000000e+000  4.094250e+001 -2.900722e+000
      vertex  0.000000e+000  4.405000e+001 -1.720000e+001
    endloop
  endfacet
  facet normal -1.000000e+000  0.000000e+000  -0.000000e+000
    outer loop
      vertex  0.000000e+000  2.395000e+001 -2.230000e+001
      vertex  0.000000e+000  4.405000e+001 -1.720000e+001
      vertex  0.000000e+000  4.405000e+001 -2.230000e+001
    endloop
  endfacet
  facet normal -1.000000e+000  0.000000e+000  -0.000000e+000
    outer loop
      vertex  0.000000e+000  3.584883e+001  4.998005e+000
      vertex  0.000000e+000  3.702500e+001  5.152851e+000
      vertex  0.000000e+000  3.905750e+001  2.900722e+000
    endloop
  endfacet
  facet normal -1.000000e+000  0.000000e+000  0.000000e+000
    outer loop
      vertex  0.000000e+000  3.905750e+001  2.900722e+000
      vertex  0.000000e+000  3.702500e+001  5.152851e+000
      vertex  0.000000e+000  3.896679e+001  5.859606e+000
    endloop
  endfacet
  facet normal -1.000000e+000  0.000000e+000  0.000000e+000
    outer loop
      vertex  0.000000e+000  3.905750e+001  2.900722e+000
      vertex  0.000000e+000  3.896679e+001  5.859606e+000
      vertex  0.000000e+000  4.094250e+001  2.900722e+000
    endloop
  endfacet
  facet normal -9.999999e-001  0.000000e+000  0.000000e+000
    outer loop
      vertex  0.000000e+000  4.094250e+001  2.900722e+000
      vertex  0.000000e+000  3.896679e+001  5.859606e+000
      vertex  0.000000e+000  4.103321e+001  5.859606e+000
    endloop
  endfacet
  facet normal -1.000000e+000  0.000000e+000  -0.000000e+000
    outer loop
      vertex  0.000000e+000  4.094250e+001  2.900722e+000
      vertex  0.000000e+000  4.103321e+001  5.859606e+000
      vertex  0.000000e+000  4.297500e+001  5.152851e+000
    endloop
  endfacet
  facet normal -1.000000e+000  0.000000e+000  0.000000e+000
    outer loop
      vertex  0.000000e+000  1.605000e+001 -2.230000e+001
      vertex  0.000000e+000 -4.050000e+000 -2.230000e+001
      vertex  0.000000e+000  1.605000e+001 -1.720000e+001
    endloop
  endfacet
  facet normal -1.000000e+000  -0.000000e+000  0.000000e+000
    outer loop
      vertex  0.000000e+000  1.605000e+001 -1.720000e+001
      vertex  0.000000e+000 -4.050000e+000 -2.230000e+001
      vertex  0.000000e+000  9.425018e-001 -2.900722e+000
    endloop
  endfacet
  facet normal -1.000000e+000  0.000000e+000  0.000000e+000
    outer loop
      vertex  0.000000e+000 -4.050000e+000 -2.230000e+001
      vertex  0.000000e+000 -4.050000e+000 -1.720000e+001
      vertex  0.000000e+000  9.425018e-001 -2.900722e+000
    endloop
  endfacet
  facet normal -1.000000e+000  -0.000000e+000  0.000000e+000
    outer loop
      vertex  0.000000e+000  9.425018e-001 -2.900722e+000
      vertex  0.000000e+000 -4.050000e+000 -1.720000e+001
      vertex  0.000000e+000 -9.425018e-001 -2.900722e+000
    endloop
  endfacet
  facet normal -1.000000e+000  0.000000e+000  -0.000000e+000
    outer loop
      vertex  0.000000e+000 -4.151169e+000  4.998005e+000
      vertex  0.000000e+000 -2.975000e+000  5.152851e+000
      vertex  0.000000e+000 -9.425018e-001  2.900722e+000
    endloop
  endfacet
  facet normal -1.000000e+000  0.000000e+000  0.000000e+000
    outer loop
      vertex  0.000000e+000 -9.425018e-001  2.900722e+000
      vertex  0.000000e+000 -2.975000e+000  5.152851e+000
      vertex  0.000000e+000 -1.033207e+000  5.859606e+000
    endloop
  endfacet
  facet normal -1.000000e+000  0.000000e+000  0.000000e+000
    outer loop
      vertex  0.000000e+000 -9.425018e-001  2.900722e+000
      vertex  0.000000e+000 -1.033207e+000  5.859606e+000
      vertex  0.000000e+000  9.425018e-001  2.900722e+000
    endloop
  endfacet
  facet normal -1.000000e+000  0.000000e+000  0.000000e+000
    outer loop
      vertex  0.000000e+000  9.425018e-001  2.900722e+000
      vertex  0.000000e+000 -1.033207e+000  5.859606e+000
      vertex  0.000000e+000  1.033207e+000  5.859606e+000
    endloop
  endfacet
  facet normal -1.000000e+000  0.000000e+000  -0.000000e+000
    outer loop
      vertex  0.000000e+000  9.425018e-001  2.900722e+000
      vertex  0.000000e+000  1.033207e+000  5.859606e+000
      vertex  0.000000e+000  2.975000e+000  5.152851e+000
    endloop
  endfacet
  facet normal  1.000000e+000  0.000000e+000  0.000000e+000
    outer loop
      vertex  3.000000e+000 -1.000000e+001 -2.230000e+001
      vertex  3.000000e+000  4.094250e+001 -2.900722e+000
      vertex  3.000000e+000  3.905750e+001 -2.900722e+000
    endloop
  endfacet
  facet normal  1.000000e+000  0.000000e+000  0.000000e+000
    outer loop
      vertex  3.000000e+000  4.297500e+001  5.152851e+000
      vertex  3.000000e+000  4.094250e+001  2.900722e+000
      vertex  3.000000e+000  4.415117e+001  4.998005e+000
    endloop
  endfacet
  facet normal  1.000000e+000  0.000000e+000  0.000000e+000
    outer loop
      vertex  3.000000e+000  2.975000e+000  5.152851e+000
      vertex  3.000000e+000  9.425018e-001  2.900722e+000
      vertex  3.000000e+000  4.151169e+000  4.998005e+000
    endloop
  endfacet
  facet normal  9.999999e-001  0.000000e+000  -0.000000e+000
    outer loop
      vertex  3.000000e+000  3.547500e+001  7.837530e+000
      vertex  3.000000e+000  3.842849e+001  8.912510e+000
      vertex  3.000000e+000  4.000000e+001  1.000000e+001
    endloop
  endfacet
  facet normal  1.000000e+000  0.000000e+000  0.000000e+000
    outer loop
      vertex  3.000000e+000  1.795000e+001  2.050000e+000
      vertex  3.000000e+000  4.525000e+000  7.837530e+000
      vertex  3.000000e+000  5.247185e+000  6.896360e+000
    endloop
  endfacet
  facet normal  1.000000e+000  0.000000e+000  0.000000e+000
    outer loop
      vertex  3.000000e+000  1.795000e+001  2.050000e+000
      vertex  3.000000e+000  5.247185e+000  6.896360e+000
      vertex  3.000000e+000  5.092340e+000  5.720191e+000
    endloop
  endfacet
  facet normal  1.000000e+000  0.000000e+000  0.000000e+000
    outer loop
      vertex  3.000000e+000  1.795000e+001  2.050000e+000
      vertex  3.000000e+000  5.092340e+000  5.720191e+000
      vertex  3.000000e+000  4.151169e+000  4.998005e+000
    endloop
  endfacet
  facet normal  1.000000e+000  0.000000e+000  0.000000e+000
    outer loop
      vertex  3.000000e+000  1.795000e+001  2.050000e+000
      vertex  3.000000e+000  4.151169e+000  4.998005e+000
      vertex  3.000000e+000  9.425018e-001  2.900722e+000
    endloop
  endfacet
  facet normal  1.000000e+000  0.000000e+000  0.000000e+000
    outer loop
      vertex  3.000000e+000  1.795000e+001  2.050000e+000
      vertex  3.000000e+000  9.425018e-001  2.900722e+000
      vertex  3.000000e+000  2.467502e+000  1.792745e+000
    endloop
  endfacet
  facet normal  1.000000e+000  -0.000000e+000  0.000000e+000
    outer loop
      vertex  3.000000e+000  1.795000e+001  2.050000e+000
      vertex  3.000000e+000  2.467502e+000  1.792745e+000
      vertex  3.000000e+000  3.050000e+000  0.000000e+000
    endloop
  endfacet
  facet normal  9.999999e-001  -0.000000e+000  0.000000e+000
    outer loop
      vertex  3.000000e+000  1.795000e+001  2.050000e+000
      vertex  3.000000e+000  3.050000e+000  0.000000e+000
      vertex  3.000000e+000  1.795000e+001 -2.050000e+000
    endloop
  endfacet
  facet normal  1.000000e+000  0.000000e+000  0.000000e+000
    outer loop
      vertex  3.000000e+000  1.795000e+001 -2.050000e+000
      vertex  3.000000e+000  3.050000e+000  0.000000e+000
      vertex  3.000000e+000  2.467502e+000 -1.792745e+000
    endloop
  endfacet
  facet normal  1.000000e+000  0.000000e+000  0.000000e+000
    outer loop
      vertex  3.000000e+000  1.795000e+001 -2.050000e+000
      vertex  3.000000e+000  2.467502e+000 -1.792745e+000
      vertex  3.000000e+000  9.425018e-001 -2.900722e+000
    endloop
  endfacet
  facet normal  1.000000e+000  -0.000000e+000  0.000000e+000
    outer loop
      vertex  3.000000e+000  1.795000e+001 -2.050000e+000
      vertex  3.000000e+000  9.425018e-001 -2.900722e+000
      vertex  3.000000e+000 -1.000000e+001 -2.230000e+001
    endloop
  endfacet
  facet normal  1.000000e+000  0.000000e+000  0.000000e+000
    outer loop
      vertex  3.000000e+000  1.795000e+001 -2.050000e+000
      vertex  3.000000e+000 -1.000000e+001 -2.230000e+001
      vertex  3.000000e+000  3.905750e+001 -2.900722e+000
    endloop
  endfacet
  facet normal  1.000000e+000  0.000000e+000  0.000000e+000
    outer loop
      vertex  3.000000e+000  1.795000e+001 -2.050000e+000
      vertex  3.000000e+000  3.905750e+001 -2.900722e+000
      vertex  3.000000e+000  2.205000e+001 -2.050000e+000
    endloop
  endfacet
  facet normal  1.000000e+000  0.000000e+000  -0.000000e+000
    outer loop
      vertex  3.000000e+000  2.205000e+001  2.050000e+000
      vertex  3.000000e+000  3.753250e+001  1.792745e+000
      vertex  3.000000e+000  3.905750e+001  2.900722e+000
    endloop
  endfacet
  facet normal  1.000000e+000  0.000000e+000  0.000000e+000
    outer loop
      vertex  3.000000e+000  2.205000e+001  2.050000e+000
      vertex  3.000000e+000  3.905750e+001  2.900722e+000
      vertex  3.000000e+000  3.584883e+001  4.998005e+000
    endloop
  endfacet
  facet normal  1.000000e+000  0.000000e+000  0.000000e+000
    outer loop
      vertex  3.000000e+000  2.205000e+001  2.050000e+000
      vertex  3.000000e+000  3.584883e+001  4.998005e+000
      vertex  3.000000e+000  3.490766e+001  5.720191e+000
    endloop
  endfacet
  facet normal  1.000000e+000  0.000000e+000  0.000000e+000
    outer loop
      vertex  3.000000e+000  2.205000e+001  2.050000e+000
      vertex  3.000000e+000  3.490766e+001  5.720191e+000
      vertex  3.000000e+000  3.475282e+001  6.896360e+000
    endloop
  endfacet
  facet normal  1.000000e+000  0.000000e+000  0.000000e+000
    outer loop
      vertex  3.000000e+000  5.000000e+001  2.000000e+000
      vertex  3.000000e+000  4.452500e+001  7.837530e+000
      vertex  3.000000e+000  4.524718e+001  6.896360e+000
    endloop
  endfacet
  facet normal  1.000000e+000  0.000000e+000  0.000000e+000
    outer loop
      vertex  3.000000e+000  5.000000e+001  2.000000e+000
      vertex  3.000000e+000  4.524718e+001  6.896360e+000
      vertex  3.000000e+000  4.509234e+001  5.720191e+000
    endloop
  endfacet
  facet normal  1.000000e+000  0.000000e+000  0.000000e+000
    outer loop
      vertex  3.000000e+000  5.000000e+001  2.000000e+000
      vertex  3.000000e+000  4.509234e+001  5.720191e+000
      vertex  3.000000e+000  4.415117e+001  4.998005e+000
    endloop
  endfacet
  facet normal  9.999999e-001  0.000000e+000  0.000000e+000
    outer loop
      vertex  3.000000e+000  5.000000e+001  2.000000e+000
      vertex  3.000000e+000  4.415117e+001  4.998005e+000
      vertex  3.000000e+000  4.094250e+001  2.900722e+000
    endloop
  endfacet
  facet normal  1.000000e+000  0.000000e+000  0.000000e+000
    outer loop
      vertex  3.000000e+000  5.000000e+001  2.000000e+000
      vertex  3.000000e+000  4.094250e+001  2.900722e+000
      vertex  3.000000e+000  4.246750e+001  1.792745e+000
    endloop
  endfacet
  facet normal  1.000000e+000  -0.000000e+000  0.000000e+000
    outer loop
      vertex  3.000000e+000  5.000000e+001  2.000000e+000
      vertex  3.000000e+000  4.246750e+001  1.792745e+000
      vertex  3.000000e+000  5.000000e+001 -1.000000e+001
    endloop
  endfacet
  facet normal  1.000000e+000  0.000000e+000  0.000000e+000
    outer loop
      vertex  3.000000e+000 -1.000000e+001  0.000000e+000
      vertex  3.000000e+000 -1.000000e+001 -1.000000e+001
      vertex  3.000000e+000 -2.467502e+000 -1.792745e+000
    endloop
  endfacet
  facet normal  1.000000e+000  0.000000e+000  0.000000e+000
    outer loop
      vertex  3.000000e+000 -1.000000e+001  0.000000e+000
      vertex  3.000000e+000 -2.467502e+000 -1.792745e+000
      vertex  3.000000e+000 -3.050000e+000  3.735173e-016
    endloop
  endfacet
  facet normal  1.000000e+000  0.000000e+000  -0.000000e+000
    outer loop
      vertex  3.000000e+000 -1.000000e+001  0.000000e+000
      vertex  3.000000e+000 -3.050000e+000  3.735173e-016
      vertex  3.000000e+000 -2.467502e+000  1.792745e+000
    endloop
  endfacet
  facet normal  1.000000e+000  0.000000e+000  -0.000000e+000
    outer loop
      vertex  3.000000e+000 -1.000000e+001  0.000000e+000
      vertex  3.000000e+000 -2.467502e+000  1.792745e+000
      vertex  3.000000e+000 -9.425018e-001  2.900722e+000
    endloop
  endfacet
  facet normal  9.999999e-001  0.000000e+000  0.000000e+000
    outer loop
      vertex  3.000000e+000 -1.000000e+001  0.000000e+000
      vertex  3.000000e+000 -9.425018e-001  2.900722e+000
      vertex  3.000000e+000 -4.151169e+000  4.998005e+000
    endloop
  endfacet
  facet normal  1.000000e+000  0.000000e+000  0.000000e+000
    outer loop
      vertex  3.000000e+000 -1.000000e+001  0.000000e+000
      vertex  3.000000e+000 -4.151169e+000  4.998005e+000
      vertex  3.000000e+000 -5.092340e+000  5.720191e+000
    endloop
  endfacet
  facet normal  9.999999e-001  0.000000e+000  0.000000e+000
    outer loop
      vertex  3.000000e+000 -1.000000e+001  0.000000e+000
      vertex  3.000000e+000 -5.092340e+000  5.720191e+000
      vertex  3.000000e+000 -5.247185e+000  6.896360e+000
    endloop
  endfacet
  facet normal  1.000000e+000  0.000000e+000  0.000000e+000
    outer loop
      vertex  3.000000e+000 -1.776357e-015  1.000000e+001
      vertex  3.000000e+000 -4.525000e+000  7.837530e+000
      vertex  3.000000e+000 -1.571516e+000  8.912510e+000
    endloop
  endfacet
  facet normal  1.000000e+000  0.000000e+000  0.000000e+000
    outer loop
      vertex  3.000000e+000 -1.776357e-015  1.000000e+001
      vertex  3.000000e+000 -1.571516e+000  8.912510e+000
      vertex  3.000000e+000  1.571516e+000  8.912510e+000
    endloop
  endfacet
  facet normal  1.000000e+000  -0.000000e+000  -0.000000e+000
    outer loop
      vertex  3.000000e+000 -1.776357e-015  1.000000e+001
      vertex  3.000000e+000  1.571516e+000  8.912510e+000
      vertex  3.000000e+000  4.525000e+000  7.837530e+000
    endloop
  endfacet
  facet normal  1.000000e+000  -0.000000e+000  -0.000000e+000
    outer loop
      vertex  3.000000e+000 -1.776357e-015  1.000000e+001
      vertex  3.000000e+000  4.525000e+000  7.837530e+000
      vertex  3.000000e+000  1.795000e+001  2.050000e+000
    endloop
  endfacet
  facet normal  1.000000e+000  0.000000e+000  -0.000000e+000
    outer loop
      vertex  3.000000e+000 -1.776357e-015  1.000000e+001
      vertex  3.000000e+000  1.795000e+001  2.050000e+000
      vertex  3.000000e+000  2.205000e+001  2.050000e+000
    endloop
  endfacet
  facet normal  1.000000e+000  0.000000e+000  -0.000000e+000
    outer loop
      vertex  3.000000e+000 -1.776357e-015  1.000000e+001
      vertex  3.000000e+000  2.205000e+001  2.050000e+000
      vertex  3.000000e+000  3.475282e+001  6.896360e+000
    endloop
  endfacet
  facet normal  1.000000e+000  0.000000e+000  -0.000000e+000
    outer loop
      vertex  3.000000e+000 -1.776357e-015  1.000000e+001
      vertex  3.000000e+000  3.475282e+001  6.896360e+000
      vertex  3.000000e+000  3.547500e+001  7.837530e+000
    endloop
  endfacet
  facet normal  1.000000e+000  0.000000e+000  -0.000000e+000
    outer loop
      vertex  3.000000e+000 -1.776357e-015  1.000000e+001
      vertex  3.000000e+000  3.547500e+001  7.837530e+000
      vertex  3.000000e+000  4.000000e+001  1.000000e+001
    endloop
  endfacet
  facet normal  1.000000e+000  -0.000000e+000  0.000000e+000
    outer loop
      vertex  3.000000e+000  5.000000e+001  1.000000e+001
      vertex  3.000000e+000  4.000000e+001  1.000000e+001
      vertex  3.000000e+000  3.842849e+001  8.912510e+000
    endloop
  endfacet
  facet normal  9.999999e-001  0.000000e+000  0.000000e+000
    outer loop
      vertex  3.000000e+000  5.000000e+001  1.000000e+001
      vertex  3.000000e+000  3.842849e+001  8.912510e+000
      vertex  3.000000e+000  4.157151e+001  8.912510e+000
    endloop
  endfacet
  facet normal  1.000000e+000  -0.000000e+000  0.000000e+000
    outer loop
      vertex  3.000000e+000  5.000000e+001  1.000000e+001
      vertex  3.000000e+000  4.157151e+001  8.912510e+000
      vertex  3.000000e+000  4.452500e+001  7.837530e+000
    endloop
  endfacet
  facet normal  1.000000e+000  -0.000000e+000  0.000000e+000
    outer loop
      vertex  3.000000e+000  5.000000e+001  1.000000e+001
      vertex  3.000000e+000  4.452500e+001  7.837530e+000
      vertex  3.000000e+000  5.000000e+001  2.000000e+000
    endloop
  endfacet
  facet normal  1.000000e+000  0.000000e+000  0.000000e+000
    outer loop
      vertex  3.000000e+000 -1.000000e+001  1.000000e+001
      vertex  3.000000e+000 -1.000000e+001  0.000000e+000
      vertex  3.000000e+000 -5.247185e+000  6.896360e+000
    endloop
  endfacet
  facet normal  9.999999e-001  0.000000e+000  -0.000000e+000
    outer loop
      vertex  3.000000e+000 -1.000000e+001  1.000000e+001
      vertex  3.000000e+000 -5.247185e+000  6.896360e+000
      vertex  3.000000e+000 -4.525000e+000  7.837530e+000
    endloop
  endfacet
  facet normal  1.000000e+000  0.000000e+000  -0.000000e+000
    outer loop
      vertex  3.000000e+000 -1.000000e+001  1.000000e+001
      vertex  3.000000e+000 -4.525000e+000  7.837530e+000
      vertex  3.000000e+000 -1.776357e-015  1.000000e+001
    endloop
  endfacet
  facet normal  1.000000e+000  0.000000e+000  0.000000e+000
    outer loop
      vertex  3.000000e+000  2.205000e+001 -2.050000e+000
      vertex  3.000000e+000  3.905750e+001 -2.900722e+000
      vertex  3.000000e+000  3.753250e+001 -1.792745e+000
    endloop
  endfacet
  facet normal  1.000000e+000  0.000000e+000  0.000000e+000
    outer loop
      vertex  3.000000e+000  2.205000e+001 -2.050000e+000
      vertex  3.000000e+000  3.753250e+001 -1.792745e+000
      vertex  3.000000e+000  3.695000e+001  3.735173e-016
    endloop
  endfacet
  facet normal  1.000000e+000  0.000000e+000  -0.000000e+000
    outer loop
      vertex  3.000000e+000  2.205000e+001 -2.050000e+000
      vertex  3.000000e+000  3.695000e+001  3.735173e-016
      vertex  3.000000e+000  3.753250e+001  1.792745e+000
    endloop
  endfacet
  facet normal  1.000000e+000  0.000000e+000  0.000000e+000
    outer loop
      vertex  3.000000e+000  2.205000e+001 -2.050000e+000
      vertex  3.000000e+000  3.753250e+001  1.792745e+000
      vertex  3.000000e+000  2.205000e+001  2.050000e+000
    endloop
  endfacet
  facet normal  1.000000e+000  0.000000e+000  0.000000e+000
    outer loop
      vertex  3.000000e+000  5.000000e+001 -1.000000e+001
      vertex  3.000000e+000  4.246750e+001  1.792745e+000
      vertex  3.000000e+000  4.305000e+001  0.000000e+000
    endloop
  endfacet
  facet normal  1.000000e+000  0.000000e+000  0.000000e+000
    outer loop
      vertex  3.000000e+000  5.000000e+001 -1.000000e+001
      vertex  3.000000e+000  4.305000e+001  0.000000e+000
      vertex  3.000000e+000  4.246750e+001 -1.792745e+000
    endloop
  endfacet
  facet normal  1.000000e+000  0.000000e+000  0.000000e+000
    outer loop
      vertex  3.000000e+000  5.000000e+001 -1.000000e+001
      vertex  3.000000e+000  4.246750e+001 -1.792745e+000
      vertex  3.000000e+000  4.094250e+001 -2.900722e+000
    endloop
  endfacet
  facet normal  1.000000e+000  0.000000e+000  0.000000e+000
    outer loop
      vertex  3.000000e+000  5.000000e+001 -1.000000e+001
      vertex  3.000000e+000  4.094250e+001 -2.900722e+000
      vertex  3.000000e+000 -1.000000e+001 -2.230000e+001
    endloop
  endfacet
  facet normal  1.000000e+000  0.000000e+000  0.000000e+000
    outer loop
      vertex  3.000000e+000  5.000000e+001 -1.000000e+001
      vertex  3.000000e+000 -1.000000e+001 -2.230000e+001
      vertex  3.000000e+000  5.000000e+001 -2.230000e+001
    endloop
  endfacet
  facet normal  1.000000e+000  0.000000e+000  0.000000e+000
    outer loop
      vertex  3.000000e+000  4.297500e+001  5.152851e+000
      vertex  3.000000e+000  4.103321e+001  5.859606e+000
      vertex  3.000000e+000  4.094250e+001  2.900722e+000
    endloop
  endfacet
  facet normal  9.999999e-001  0.000000e+000  -0.000000e+000
    outer loop
      vertex  3.000000e+000  4.094250e+001  2.900722e+000
      vertex  3.000000e+000  4.103321e+001  5.859606e+000
      vertex  3.000000e+000  3.896679e+001  5.859606e+000
    endloop
  endfacet
  facet normal  1.000000e+000  0.000000e+000  0.000000e+000
    outer loop
      vertex  3.000000e+000  4.094250e+001  2.900722e+000
      vertex  3.000000e+000  3.896679e+001  5.859606e+000
      vertex  3.000000e+000  3.905750e+001  2.900722e+000
    endloop
  endfacet
  facet normal  1.000000e+000  0.000000e+000  0.000000e+000
    outer loop
      vertex  3.000000e+000  3.905750e+001  2.900722e+000
      vertex  3.000000e+000  3.896679e+001  5.859606e+000
      vertex  3.000000e+000  3.702500e+001  5.152851e+000
    endloop
  endfacet
  facet normal  1.000000e+000  0.000000e+000  0.000000e+000
    outer loop
      vertex  3.000000e+000  3.905750e+001  2.900722e+000
      vertex  3.000000e+000  3.702500e+001  5.152851e+000
      vertex  3.000000e+000  3.584883e+001  4.998005e+000
    endloop
  endfacet
  facet normal  1.000000e+000  0.000000e+000  0.000000e+000
    outer loop
      vertex  3.000000e+000 -1.000000e+001 -2.230000e+001
      vertex  3.000000e+000  9.425018e-001 -2.900722e+000
      vertex  3.000000e+000 -1.000000e+001 -1.000000e+001
    endloop
  endfacet
  facet normal  9.999999e-001  0.000000e+000  0.000000e+000
    outer loop
      vertex  3.000000e+000 -1.000000e+001 -1.000000e+001
      vertex  3.000000e+000  9.425018e-001 -2.900722e+000
      vertex  3.000000e+000 -9.425018e-001 -2.900722e+000
    endloop
  endfacet
  facet normal  1.000000e+000  0.000000e+000  0.000000e+000
    outer loop
      vertex  3.000000e+000 -1.000000e+001 -1.000000e+001
      vertex  3.000000e+000 -9.425018e-001 -2.900722e+000
      vertex  3.000000e+000 -2.467502e+000 -1.792745e+000
    endloop
  endfacet
  facet normal  1.000000e+000  0.000000e+000  0.000000e+000
    outer loop
      vertex  3.000000e+000  2.975000e+000  5.152851e+000
      vertex  3.000000e+000  1.033207e+000  5.859606e+000
      vertex  3.000000e+000  9.425018e-001  2.900722e+000
    endloop
  endfacet
  facet normal  1.000000e+000  0.000000e+000  -0.000000e+000
    outer loop
      vertex  3.000000e+000  9.425018e-001  2.900722e+000
      vertex  3.000000e+000  1.033207e+000  5.859606e+000
      vertex  3.000000e+000 -1.033207e+000  5.859606e+000
    endloop
  endfacet
  facet normal  1.000000e+000  0.000000e+000  0.000000e+000
    outer loop
      vertex  3.000000e+000  9.425018e-001  2.900722e+000
      vertex  3.000000e+000 -1.033207e+000  5.859606e+000
      vertex  3.000000e+000 -9.425018e-001  2.900722e+000
    endloop
  endfacet
  facet normal  1.000000e+000  0.000000e+000  0.000000e+000
    outer loop
      vertex  3.000000e+000 -9.425018e-001  2.900722e+000
      vertex  3.000000e+000 -1.033207e+000  5.859606e+000
      vertex  3.000000e+000 -2.975000e+000  5.152851e+000
    endloop
  endfacet
  facet normal  1.000000e+000  0.000000e+000  0.000000e+000
    outer loop
      vertex  3.000000e+000 -9.425018e-001  2.900722e+000
      vertex  3.000000e+000 -2.975000e+000  5.152851e+000
      vertex  3.000000e+000 -4.151169e+000  4.998005e+000
    endloop
  endfacet
  facet normal -1.000000e+000  0.000000e+000  0.000000e+000
    outer loop
      vertex -1.267500e+001 -4.050000e+000 -2.230000e+001
      vertex -1.267500e+001 -1.000000e+001 -2.230000e+001
      vertex -1.267500e+001 -4.050000e+000 -2.030000e+001
    endloop
  endfacet
  facet normal -1.000000e+000  -0.000000e+000  0.000000e+000
    outer loop
      vertex -1.267500e+001 -4.050000e+000 -2.030000e+001
      vertex -1.267500e+001 -1.000000e+001 -2.230000e+001
      vertex -1.267500e+001 -1.000000e+001 -2.030000e+001
    endloop
  endfacet
  facet normal -1.000000e+000  0.000000e+000  0.000000e+000
    outer loop
      vertex -1.267500e+001  5.000000e+001 -2.230000e+001
      vertex -1.267500e+001  4.405000e+001 -2.230000e+001
      vertex -1.267500e+001  5.000000e+001 -2.030000e+001
    endloop
  endfacet
  facet normal -1.000000e+000  -0.000000e+000  0.000000e+000
    outer loop
      vertex -1.267500e+001  5.000000e+001 -2.030000e+001
      vertex -1.267500e+001  4.405000e+001 -2.230000e+001
      vertex -1.267500e+001  4.405000e+001 -2.030000e+001
    endloop
  endfacet
  facet normal -1.000000e+000  0.000000e+000  0.000000e+000
    outer loop
      vertex -1.267500e+001 -4.050000e+000 -1.920000e+001
      vertex -1.267500e+001 -1.000000e+001 -1.920000e+001
      vertex -1.267500e+001 -4.050000e+000 -1.720000e+001
    endloop
  endfacet
  facet normal -1.000000e+000  -0.000000e+000  0.000000e+000
    outer loop
      vertex -1.267500e+001 -4.050000e+000 -1.720000e+001
      vertex -1.267500e+001 -1.000000e+001 -1.920000e+001
      vertex -1.267500e+001 -1.000000e+001 -1.720000e+001
    endloop
  endfacet
  facet normal -9.999999e-001  0.000000e+000  0.000000e+000
    outer loop
      vertex -1.267500e+001  2.395000e+001 -1.920000e+001
      vertex -1.267500e+001  1.605000e+001 -1.920000e+001
      vertex -1.267500e+001  2.395000e+001 -1.720000e+001
    endloop
  endfacet
  facet normal -9.999999e-001  -0.000000e+000  0.000000e+000
    outer loop
      vertex -1.267500e+001  2.395000e+001 -1.720000e+001
      vertex -1.267500e+001  1.605000e+001 -1.920000e+001
      vertex -1.267500e+001  1.605000e+001 -1.720000e+001
    endloop
  endfacet
  facet normal -9.999999e-001  0.000000e+000  0.000000e+000
    outer loop
      vertex -1.267500e+001  2.395000e+001 -2.230000e+001
      vertex -1.267500e+001  1.605000e+001 -2.230000e+001
      vertex -1.267500e+001  2.395000e+001 -2.030000e+001
    endloop
  endfacet
  facet normal -9.999999e-001  -0.000000e+000  0.000000e+000
    outer loop
      vertex -1.267500e+001  2.395000e+001 -2.030000e+001
      vertex -1.267500e+001  1.605000e+001 -2.230000e+001
      vertex -1.267500e+001  1.605000e+001 -2.030000e+001
    endloop
  endfacet
  facet normal -1.000000e+000  0.000000e+000  0.000000e+000
    outer loop
      vertex -1.267500e+001  5.000000e+001 -1.920000e+001
      vertex -1.267500e+001  4.405000e+001 -1.920000e+001
      vertex -1.267500e+001  5.000000e+001 -1.720000e+001
    endloop
  endfacet
  facet normal -1.000000e+000  -0.000000e+000  0.000000e+000
    outer loop
      vertex -1.267500e+001  5.000000e+001 -1.720000e+001
      vertex -1.267500e+001  4.405000e+001 -1.920000e+001
      vertex -1.267500e+001  4.405000e+001 -1.720000e+001
    endloop
  endfacet
  facet normal  0.000000e+000  1.000000e+000  -0.000000e+000
    outer loop
      vertex  3.000000e+000  1.795000e+001  2.050000e+000
      vertex  3.000000e+000  1.795000e+001 -2.050000e+000
      vertex  0.000000e+000  1.795000e+001  2.050000e+000
    endloop
  endfacet
  facet normal  0.000000e+000  1.000000e+000  0.000000e+000
    outer loop
      vertex  0.000000e+000  1.795000e+001  2.050000e+000
      vertex  3.000000e+000  1.795000e+001 -2.050000e+000
      vertex  0.000000e+000  1.795000e+001 -2.050000e+000
    endloop
  endfacet
  facet normal  -0.000000e+000  0.000000e+000  9.999999e-001
    outer loop
      vertex  3.000000e+000  2.205000e+001 -2.050000e+000
      vertex  0.000000e+000  2.205000e+001 -2.050000e+000
      vertex  3.000000e+000  1.795000e+001 -2.050000e+000
    endloop
  endfacet
  facet normal  0.000000e+000  0.000000e+000  9.999999e-001
    outer loop
      vertex  3.000000e+000  1.795000e+001 -2.050000e+000
      vertex  0.000000e+000  2.205000e+001 -2.050000e+000
      vertex  0.000000e+000  1.795000e+001 -2.050000e+000
    endloop
  endfacet
  facet normal  0.000000e+000 -1.000000e+000  -0.000000e+000
    outer loop
      vertex  3.000000e+000  2.205000e+001 -2.050000e+000
      vertex  3.000000e+000  2.205000e+001  2.050000e+000
      vertex  0.000000e+000  2.205000e+001 -2.050000e+000
    endloop
  endfacet
  facet normal  0.000000e+000 -1.000000e+000  0.000000e+000
    outer loop
      vertex  0.000000e+000  2.205000e+001 -2.050000e+000
      vertex  3.000000e+000  2.205000e+001  2.050000e+000
      vertex  0.000000e+000  2.205000e+001  2.050000e+000
    endloop
  endfacet
  facet normal  0.000000e+000  0.000000e+000 -9.999999e-001
    outer loop
      vertex  3.000000e+000  1.795000e+001  2.050000e+000
      vertex  0.000000e+000  1.795000e+001  2.050000e+000
      vertex  3.000000e+000  2.205000e+001  2.050000e+000
    endloop
  endfacet
  facet normal  -0.000000e+000  0.000000e+000 -9.999999e-001
    outer loop
      vertex  3.000000e+000  2.205000e+001  2.050000e+000
      vertex  0.000000e+000  1.795000e+001  2.050000e+000
      vertex  0.000000e+000  2.205000e+001  2.050000e+000
    endloop
  endfacet
  facet normal  0.000000e+000  6.087615e-001  7.933532e-001
    outer loop
      vertex  0.000000e+000  3.490766e+001  5.720191e+000
      vertex  3.000000e+000  3.584883e+001  4.998005e+000
      vertex  0.000000e+000  3.584883e+001  4.998005e+000
    endloop
  endfacet
  facet normal  0.000000e+000 -1.305262e-001  9.914449e-001
    outer loop
      vertex  0.000000e+000  3.584883e+001  4.998005e+000
      vertex  3.000000e+000  3.584883e+001  4.998005e+000
      vertex  3.000000e+000  3.702500e+001  5.152851e+000
    endloop
  endfacet
  facet normal  0.000000e+000 -1.305262e-001  9.914449e-001
    outer loop
      vertex  0.000000e+000  3.584883e+001  4.998005e+000
      vertex  3.000000e+000  3.702500e+001  5.152851e+000
      vertex  0.000000e+000  3.702500e+001  5.152851e+000
    endloop
  endfacet
  facet normal  -0.000000e+000  6.087615e-001  7.933532e-001
    outer loop
      vertex  3.000000e+000  3.584883e+001  4.998005e+000
      vertex  0.000000e+000  3.490766e+001  5.720191e+000
      vertex  3.000000e+000  3.490766e+001  5.720191e+000
    endloop
  endfacet
  facet normal  0.000000e+000  9.914447e-001  1.305266e-001
    outer loop
      vertex  3.000000e+000  3.490766e+001  5.720191e+000
      vertex  0.000000e+000  3.490766e+001  5.720191e+000
      vertex  0.000000e+000  3.475282e+001  6.896360e+000
    endloop
  endfacet
  facet normal  -0.000000e+000  9.914447e-001  1.305266e-001
    outer loop
      vertex  3.000000e+000  3.490766e+001  5.720191e+000
      vertex  0.000000e+000  3.475282e+001  6.896360e+000
      vertex  3.000000e+000  3.475282e+001  6.896360e+000
    endloop
  endfacet
  facet normal  0.000000e+000  7.933542e-001 -6.087604e-001
    outer loop
      vertex  3.000000e+000  3.475282e+001  6.896360e+000
      vertex  0.000000e+000  3.475282e+001  6.896360e+000
      vertex  0.000000e+000  3.547500e+001  7.837530e+000
    endloop
  endfacet
  facet normal  0.000000e+000  7.933542e-001 -6.087604e-001
    outer loop
      vertex  3.000000e+000  3.475282e+001  6.896360e+000
      vertex  0.000000e+000  3.547500e+001  7.837530e+000
      vertex  3.000000e+000  3.547500e+001  7.837530e+000
    endloop
  endfacet
  facet normal  0.000000e+000 -3.420205e-001  9.396925e-001
    outer loop
      vertex  0.000000e+000  3.702500e+001  5.152851e+000
      vertex  3.000000e+000  3.702500e+001  5.152851e+000
      vertex  0.000000e+000  3.896679e+001  5.859606e+000
    endloop
  endfacet
  facet normal  0.000000e+000 -3.420205e-001  9.396925e-001
    outer loop
      vertex  0.000000e+000  3.896679e+001  5.859606e+000
      vertex  3.000000e+000  3.702500e+001  5.152851e+000
      vertex  3.000000e+000  3.896679e+001  5.859606e+000
    endloop
  endfacet
  facet normal  0.000000e+000  0.000000e+000  9.999999e-001
    outer loop
      vertex  0.000000e+000  3.896679e+001  5.859606e+000
      vertex  3.000000e+000  3.896679e+001  5.859606e+000
      vertex  0.000000e+000  4.103321e+001  5.859606e+000
    endloop
  endfacet
  facet normal  -0.000000e+000  0.000000e+000  9.999999e-001
    outer loop
      vertex  0.000000e+000  4.103321e+001  5.859606e+000
      vertex  3.000000e+000  3.896679e+001  5.859606e+000
      vertex  3.000000e+000  4.103321e+001  5.859606e+000
    endloop
  endfacet
  facet normal  0.000000e+000  3.420205e-001  9.396925e-001
    outer loop
      vertex  0.000000e+000  4.103321e+001  5.859606e+000
      vertex  3.000000e+000  4.103321e+001  5.859606e+000
      vertex  0.000000e+000  4.297500e+001  5.152851e+000
    endloop
  endfacet
  facet normal  -0.000000e+000  3.420205e-001  9.396925e-001
    outer loop
      vertex  0.000000e+000  4.297500e+001  5.152851e+000
      vertex  3.000000e+000  4.103321e+001  5.859606e+000
      vertex  3.000000e+000  4.297500e+001  5.152851e+000
    endloop
  endfacet
  facet normal  0.000000e+000 -9.914447e-001  1.305266e-001
    outer loop
      vertex  0.000000e+000  4.509234e+001  5.720191e+000
      vertex  3.000000e+000  4.524718e+001  6.896360e+000
      vertex  0.000000e+000  4.524718e+001  6.896360e+000
    endloop
  endfacet
  facet normal  0.000000e+000 -7.933542e-001 -6.087604e-001
    outer loop
      vertex  0.000000e+000  4.524718e+001  6.896360e+000
      vertex  3.000000e+000  4.524718e+001  6.896360e+000
      vertex  3.000000e+000  4.452500e+001  7.837530e+000
    endloop
  endfacet
  facet normal  -0.000000e+000 -7.933542e-001 -6.087604e-001
    outer loop
      vertex  0.000000e+000  4.524718e+001  6.896360e+000
      vertex  3.000000e+000  4.452500e+001  7.837530e+000
      vertex  0.000000e+000  4.452500e+001  7.837530e+000
    endloop
  endfacet
  facet normal  0.000000e+000 -9.914447e-001  1.305266e-001
    outer loop
      vertex  3.000000e+000  4.524718e+001  6.896360e+000
      vertex  0.000000e+000  4.509234e+001  5.720191e+000
      vertex  3.000000e+000  4.509234e+001  5.720191e+000
    endloop
  endfacet
  facet normal  0.000000e+000 -6.087615e-001  7.933532e-001
    outer loop
      vertex  3.000000e+000  4.509234e+001  5.720191e+000
      vertex  0.000000e+000  4.509234e+001  5.720191e+000
      vertex  0.000000e+000  4.415117e+001  4.998005e+000
    endloop
  endfacet
  facet normal  0.000000e+000 -6.087615e-001  7.933532e-001
    outer loop
      vertex  3.000000e+000  4.509234e+001  5.720191e+000
      vertex  0.000000e+000  4.415117e+001  4.998005e+000
      vertex  3.000000e+000  4.415117e+001  4.998005e+000
    endloop
  endfacet
  facet normal  0.000000e+000  1.305262e-001  9.914449e-001
    outer loop
      vertex  3.000000e+000  4.415117e+001  4.998005e+000
      vertex  0.000000e+000  4.415117e+001  4.998005e+000
      vertex  0.000000e+000  4.297500e+001  5.152851e+000
    endloop
  endfacet
  facet normal  -0.000000e+000  1.305262e-001  9.914449e-001
    outer loop
      vertex  3.000000e+000  4.415117e+001  4.998005e+000
      vertex  0.000000e+000  4.297500e+001  5.152851e+000
      vertex  3.000000e+000  4.297500e+001  5.152851e+000
    endloop
  endfacet
  facet normal  0.000000e+000  3.420197e-001 -9.396928e-001
    outer loop
      vertex  0.000000e+000  3.842849e+001  8.912510e+000
      vertex  3.000000e+000  3.547500e+001  7.837530e+000
      vertex  0.000000e+000  3.547500e+001  7.837530e+000
    endloop
  endfacet
  facet normal  0.000000e+000  3.420197e-001 -9.396928e-001
    outer loop
      vertex  3.000000e+000  3.547500e+001  7.837530e+000
      vertex  0.000000e+000  3.842849e+001  8.912510e+000
      vertex  3.000000e+000  3.842849e+001  8.912510e+000
    endloop
  endfacet
  facet normal  0.000000e+000  0.000000e+000 -1.000000e+000
    outer loop
      vertex  3.000000e+000  3.842849e+001  8.912510e+000
      vertex  0.000000e+000  3.842849e+001  8.912510e+000
      vertex  0.000000e+000  4.157151e+001  8.912510e+000
    endloop
  endfacet
  facet normal  0.000000e+000  0.000000e+000 -1.000000e+000
    outer loop
      vertex  3.000000e+000  3.842849e+001  8.912510e+000
      vertex  0.000000e+000  4.157151e+001  8.912510e+000
      vertex  3.000000e+000  4.157151e+001  8.912510e+000
    endloop
  endfacet
  facet normal  -0.000000e+000 -3.420197e-001 -9.396928e-001
    outer loop
      vertex  3.000000e+000  4.157151e+001  8.912510e+000
      vertex  0.000000e+000  4.157151e+001  8.912510e+000
      vertex  0.000000e+000  4.452500e+001  7.837530e+000
    endloop
  endfacet
  facet normal  0.000000e+000 -3.420197e-001 -9.396928e-001
    outer loop
      vertex  3.000000e+000  4.157151e+001  8.912510e+000
      vertex  0.000000e+000  4.452500e+001  7.837530e+000
      vertex  3.000000e+000  4.452500e+001  7.837530e+000
    endloop
  endfacet
  facet normal  0.000000e+000  6.087614e-001  7.933534e-001
    outer loop
      vertex  0.000000e+000 -5.092340e+000  5.720191e+000
      vertex  3.000000e+000 -4.151169e+000  4.998005e+000
      vertex  0.000000e+000 -4.151169e+000  4.998005e+000
    endloop
  endfacet
  facet normal  0.000000e+000 -1.305263e-001  9.914449e-001
    outer loop
      vertex  0.000000e+000 -4.151169e+000  4.998005e+000
      vertex  3.000000e+000 -4.151169e+000  4.998005e+000
      vertex  3.000000e+000 -2.975000e+000  5.152851e+000
    endloop
  endfacet
  facet normal  0.000000e+000 -1.305263e-001  9.914449e-001
    outer loop
      vertex  0.000000e+000 -4.151169e+000  4.998005e+000
      vertex  3.000000e+000 -2.975000e+000  5.152851e+000
      vertex  0.000000e+000 -2.975000e+000  5.152851e+000
    endloop
  endfacet
  facet normal  -0.000000e+000  6.087614e-001  7.933534e-001
    outer loop
      vertex  3.000000e+000 -4.151169e+000  4.998005e+000
      vertex  0.000000e+000 -5.092340e+000  5.720191e+000
      vertex  3.000000e+000 -5.092340e+000  5.720191e+000
    endloop
  endfacet
  facet normal  0.000000e+000  9.914449e-001  1.305263e-001
    outer loop
      vertex  3.000000e+000 -5.092340e+000  5.720191e+000
      vertex  0.000000e+000 -5.092340e+000  5.720191e+000
      vertex  0.000000e+000 -5.247185e+000  6.896360e+000
    endloop
  endfacet
  facet normal  -0.000000e+000  9.914449e-001  1.305263e-001
    outer loop
      vertex  3.000000e+000 -5.092340e+000  5.720191e+000
      vertex  0.000000e+000 -5.247185e+000  6.896360e+000
      vertex  3.000000e+000 -5.247185e+000  6.896360e+000
    endloop
  endfacet
  facet normal  0.000000e+000  7.933534e-001 -6.087614e-001
    outer loop
      vertex  3.000000e+000 -5.247185e+000  6.896360e+000
      vertex  0.000000e+000 -5.247185e+000  6.896360e+000
      vertex  0.000000e+000 -4.525000e+000  7.837530e+000
    endloop
  endfacet
  facet normal  0.000000e+000  7.933534e-001 -6.087614e-001
    outer loop
      vertex  3.000000e+000 -5.247185e+000  6.896360e+000
      vertex  0.000000e+000 -4.525000e+000  7.837530e+000
      vertex  3.000000e+000 -4.525000e+000  7.837530e+000
    endloop
  endfacet
  facet normal  0.000000e+000 -3.420203e-001  9.396927e-001
    outer loop
      vertex  0.000000e+000 -2.975000e+000  5.152851e+000
      vertex  3.000000e+000 -2.975000e+000  5.152851e+000
      vertex  0.000000e+000 -1.033207e+000  5.859606e+000
    endloop
  endfacet
  facet normal  0.000000e+000 -3.420203e-001  9.396927e-001
    outer loop
      vertex  0.000000e+000 -1.033207e+000  5.859606e+000
      vertex  3.000000e+000 -2.975000e+000  5.152851e+000
      vertex  3.000000e+000 -1.033207e+000  5.859606e+000
    endloop
  endfacet
  facet normal  0.000000e+000  0.000000e+000  1.000000e+000
    outer loop
      vertex  0.000000e+000 -1.033207e+000  5.859606e+000
      vertex  3.000000e+000 -1.033207e+000  5.859606e+000
      vertex  0.000000e+000  1.033207e+000  5.859606e+000
    endloop
  endfacet
  facet normal  -0.000000e+000  0.000000e+000  1.000000e+000
    outer loop
      vertex  0.000000e+000  1.033207e+000  5.859606e+000
      vertex  3.000000e+000 -1.033207e+000  5.859606e+000
      vertex  3.000000e+000  1.033207e+000  5.859606e+000
    endloop
  endfacet
  facet normal  0.000000e+000  3.420203e-001  9.396927e-001
    outer loop
      vertex  0.000000e+000  1.033207e+000  5.859606e+000
      vertex  3.000000e+000  1.033207e+000  5.859606e+000
      vertex  0.000000e+000  2.975000e+000  5.152851e+000
    endloop
  endfacet
  facet normal  -0.000000e+000  3.420203e-001  9.396927e-001
    outer loop
      vertex  0.000000e+000  2.975000e+000  5.152851e+000
      vertex  3.000000e+000  1.033207e+000  5.859606e+000
      vertex  3.000000e+000  2.975000e+000  5.152851e+000
    endloop
  endfacet
  facet normal  0.000000e+000 -9.914449e-001  1.305263e-001
    outer loop
      vertex  0.000000e+000  5.092340e+000  5.720191e+000
      vertex  3.000000e+000  5.247185e+000  6.896360e+000
      vertex  0.000000e+000  5.247185e+000  6.896360e+000
    endloop
  endfacet
  facet normal  0.000000e+000 -7.933534e-001 -6.087614e-001
    outer loop
      vertex  0.000000e+000  5.247185e+000  6.896360e+000
      vertex  3.000000e+000  5.247185e+000  6.896360e+000
      vertex  3.000000e+000  4.525000e+000  7.837530e+000
    endloop
  endfacet
  facet normal  -0.000000e+000 -7.933534e-001 -6.087614e-001
    outer loop
      vertex  0.000000e+000  5.247185e+000  6.896360e+000
      vertex  3.000000e+000  4.525000e+000  7.837530e+000
      vertex  0.000000e+000  4.525000e+000  7.837530e+000
    endloop
  endfacet
  facet normal  0.000000e+000 -9.914449e-001  1.305263e-001
    outer loop
      vertex  3.000000e+000  5.247185e+000  6.896360e+000
      vertex  0.000000e+000  5.092340e+000  5.720191e+000
      vertex  3.000000e+000  5.092340e+000  5.720191e+000
    endloop
  endfacet
  facet normal  0.000000e+000 -6.087614e-001  7.933534e-001
    outer loop
      vertex  3.000000e+000  5.092340e+000  5.720191e+000
      vertex  0.000000e+000  5.092340e+000  5.720191e+000
      vertex  0.000000e+000  4.151169e+000  4.998005e+000
    endloop
  endfacet
  facet normal  0.000000e+000 -6.087614e-001  7.933534e-001
    outer loop
      vertex  3.000000e+000  5.092340e+000  5.720191e+000
      vertex  0.000000e+000  4.151169e+000  4.998005e+000
      vertex  3.000000e+000  4.151169e+000  4.998005e+000
    endloop
  endfacet
  facet normal  0.000000e+000  1.305263e-001  9.914449e-001
    outer loop
      vertex  3.000000e+000  4.151169e+000  4.998005e+000
      vertex  0.000000e+000  4.151169e+000  4.998005e+000
      vertex  0.000000e+000  2.975000e+000  5.152851e+000
    endloop
  endfacet
  facet normal  -0.000000e+000  1.305263e-001  9.914449e-001
    outer loop
      vertex  3.000000e+000  4.151169e+000  4.998005e+000
      vertex  0.000000e+000  2.975000e+000  5.152851e+000
      vertex  3.000000e+000  2.975000e+000  5.152851e+000
    endloop
  endfacet
  facet normal  0.000000e+000  3.420200e-001 -9.396927e-001
    outer loop
      vertex  0.000000e+000 -1.571516e+000  8.912510e+000
      vertex  3.000000e+000 -4.525000e+000  7.837530e+000
      vertex  0.000000e+000 -4.525000e+000  7.837530e+000
    endloop
  endfacet
  facet normal  0.000000e+000  3.420200e-001 -9.396927e-001
    outer loop
      vertex  3.000000e+000 -4.525000e+000  7.837530e+000
      vertex  0.000000e+000 -1.571516e+000  8.912510e+000
      vertex  3.000000e+000 -1.571516e+000  8.912510e+000
    endloop
  endfacet
  facet normal  0.000000e+000  0.000000e+000 -1.000000e+000
    outer loop
      vertex  3.000000e+000 -1.571516e+000  8.912510e+000
      vertex  0.000000e+000 -1.571516e+000  8.912510e+000
      vertex  0.000000e+000  1.571516e+000  8.912510e+000
    endloop
  endfacet
  facet normal  0.000000e+000  0.000000e+000 -1.000000e+000
    outer loop
      vertex  3.000000e+000 -1.571516e+000  8.912510e+000
      vertex  0.000000e+000  1.571516e+000  8.912510e+000
      vertex  3.000000e+000  1.571516e+000  8.912510e+000
    endloop
  endfacet
  facet normal  -0.000000e+000 -3.420200e-001 -9.396927e-001
    outer loop
      vertex  3.000000e+000  1.571516e+000  8.912510e+000
      vertex  0.000000e+000  1.571516e+000  8.912510e+000
      vertex  0.000000e+000  4.525000e+000  7.837530e+000
    endloop
  endfacet
  facet normal  0.000000e+000 -3.420200e-001 -9.396927e-001
    outer loop
      vertex  3.000000e+000  1.571516e+000  8.912510e+000
      vertex  0.000000e+000  4.525000e+000  7.837530e+000
      vertex  3.000000e+000  4.525000e+000  7.837530e+000
    endloop
  endfacet
  facet normal  0.000000e+000  5.877848e-001 -8.090173e-001
    outer loop
      vertex  0.000000e+000  3.905750e+001  2.900722e+000
      vertex  3.000000e+000  3.753250e+001  1.792745e+000
      vertex  0.000000e+000  3.753250e+001  1.792745e+000
    endloop
  endfacet
  facet normal  0.000000e+000  9.510568e-001 -3.090163e-001
    outer loop
      vertex  0.000000e+000  3.753250e+001  1.792745e+000
      vertex  3.000000e+000  3.753250e+001  1.792745e+000
      vertex  3.000000e+000  3.695000e+001  3.735173e-016
    endloop
  endfacet
  facet normal  0.000000e+000  9.510568e-001 -3.090163e-001
    outer loop
      vertex  0.000000e+000  3.753250e+001  1.792745e+000
      vertex  3.000000e+000  3.695000e+001  3.735173e-016
      vertex  0.000000e+000  3.695000e+001  3.735173e-016
    endloop
  endfacet
  facet normal  0.000000e+000  5.877848e-001 -8.090173e-001
    outer loop
      vertex  3.000000e+000  3.753250e+001  1.792745e+000
      vertex  0.000000e+000  3.905750e+001  2.900722e+000
      vertex  3.000000e+000  3.905750e+001  2.900722e+000
    endloop
  endfacet
  facet normal  0.000000e+000  0.000000e+000 -1.000000e+000
    outer loop
      vertex  3.000000e+000  3.905750e+001  2.900722e+000
      vertex  0.000000e+000  3.905750e+001  2.900722e+000
      vertex  0.000000e+000  4.094250e+001  2.900722e+000
    endloop
  endfacet
  facet normal  0.000000e+000  0.000000e+000 -1.000000e+000
    outer loop
      vertex  3.000000e+000  3.905750e+001  2.900722e+000
      vertex  0.000000e+000  4.094250e+001  2.900722e+000
      vertex  3.000000e+000  4.094250e+001  2.900722e+000
    endloop
  endfacet
  facet normal  -0.000000e+000 -5.877848e-001 -8.090173e-001
    outer loop
      vertex  3.000000e+000  4.094250e+001  2.900722e+000
      vertex  0.000000e+000  4.094250e+001  2.900722e+000
      vertex  0.000000e+000  4.246750e+001  1.792745e+000
    endloop
  endfacet
  facet normal  0.000000e+000 -5.877848e-001 -8.090173e-001
    outer loop
      vertex  3.000000e+000  4.094250e+001  2.900722e+000
      vertex  0.000000e+000  4.246750e+001  1.792745e+000
      vertex  3.000000e+000  4.246750e+001  1.792745e+000
    endloop
  endfacet
  facet normal  -0.000000e+000 -9.510568e-001 -3.090163e-001
    outer loop
      vertex  3.000000e+000  4.246750e+001  1.792745e+000
      vertex  0.000000e+000  4.246750e+001  1.792745e+000
      vertex  0.000000e+000  4.305000e+001  0.000000e+000
    endloop
  endfacet
  facet normal  0.000000e+000 -9.510568e-001 -3.090163e-001
    outer loop
      vertex  3.000000e+000  4.246750e+001  1.792745e+000
      vertex  0.000000e+000  4.305000e+001  0.000000e+000
      vertex  3.000000e+000  4.305000e+001  0.000000e+000
    endloop
  endfacet
  facet normal  0.000000e+000 -5.877848e-001  8.090173e-001
    outer loop
      vertex  0.000000e+000  4.094250e+001 -2.900722e+000
      vertex  3.000000e+000  4.246750e+001 -1.792745e+000
      vertex  0.000000e+000  4.246750e+001 -1.792745e+000
    endloop
  endfacet
  facet normal  0.000000e+000 -9.510568e-001  3.090163e-001
    outer loop
      vertex  0.000000e+000  4.246750e+001 -1.792745e+000
      vertex  3.000000e+000  4.246750e+001 -1.792745e+000
      vertex  3.000000e+000  4.305000e+001  0.000000e+000
    endloop
  endfacet
  facet normal  0.000000e+000 -9.510568e-001  3.090163e-001
    outer loop
      vertex  0.000000e+000  4.246750e+001 -1.792745e+000
      vertex  3.000000e+000  4.305000e+001  0.000000e+000
      vertex  0.000000e+000  4.305000e+001  0.000000e+000
    endloop
  endfacet
  facet normal  0.000000e+000 -5.877848e-001  8.090173e-001
    outer loop
      vertex  3.000000e+000  4.246750e+001 -1.792745e+000
      vertex  0.000000e+000  4.094250e+001 -2.900722e+000
      vertex  3.000000e+000  4.094250e+001 -2.900722e+000
    endloop
  endfacet
  facet normal  0.000000e+000  0.000000e+000  1.000000e+000
    outer loop
      vertex  3.000000e+000  4.094250e+001 -2.900722e+000
      vertex  0.000000e+000  4.094250e+001 -2.900722e+000
      vertex  0.000000e+000  3.905750e+001 -2.900722e+000
    endloop
  endfacet
  facet normal  0.000000e+000  0.000000e+000  1.000000e+000
    outer loop
      vertex  3.000000e+000  4.094250e+001 -2.900722e+000
      vertex  0.000000e+000  3.905750e+001 -2.900722e+000
      vertex  3.000000e+000  3.905750e+001 -2.900722e+000
    endloop
  endfacet
  facet normal  0.000000e+000  5.877848e-001  8.090173e-001
    outer loop
      vertex  3.000000e+000  3.905750e+001 -2.900722e+000
      vertex  0.000000e+000  3.905750e+001 -2.900722e+000
      vertex  0.000000e+000  3.753250e+001 -1.792745e+000
    endloop
  endfacet
  facet normal  -0.000000e+000  5.877848e-001  8.090173e-001
    outer loop
      vertex  3.000000e+000  3.905750e+001 -2.900722e+000
      vertex  0.000000e+000  3.753250e+001 -1.792745e+000
      vertex  3.000000e+000  3.753250e+001 -1.792745e+000
    endloop
  endfacet
  facet normal  0.000000e+000  9.510568e-001  3.090163e-001
    outer loop
      vertex  3.000000e+000  3.753250e+001 -1.792745e+000
      vertex  0.000000e+000  3.753250e+001 -1.792745e+000
      vertex  0.000000e+000  3.695000e+001  3.735173e-016
    endloop
  endfacet
  facet normal  -0.000000e+000  9.510568e-001  3.090163e-001
    outer loop
      vertex  3.000000e+000  3.753250e+001 -1.792745e+000
      vertex  0.000000e+000  3.695000e+001  3.735173e-016
      vertex  3.000000e+000  3.695000e+001  3.735173e-016
    endloop
  endfacet
  facet normal  0.000000e+000  5.877852e-001 -8.090171e-001
    outer loop
      vertex  0.000000e+000 -9.425018e-001  2.900722e+000
      vertex  3.000000e+000 -2.467502e+000  1.792745e+000
      vertex  0.000000e+000 -2.467502e+000  1.792745e+000
    endloop
  endfacet
  facet normal  0.000000e+000  9.510565e-001 -3.090170e-001
    outer loop
      vertex  0.000000e+000 -2.467502e+000  1.792745e+000
      vertex  3.000000e+000 -2.467502e+000  1.792745e+000
      vertex  3.000000e+000 -3.050000e+000  3.735173e-016
    endloop
  endfacet
  facet normal  0.000000e+000  9.510565e-001 -3.090170e-001
    outer loop
      vertex  0.000000e+000 -2.467502e+000  1.792745e+000
      vertex  3.000000e+000 -3.050000e+000  3.735173e-016
      vertex  0.000000e+000 -3.050000e+000  3.735173e-016
    endloop
  endfacet
  facet normal  0.000000e+000  5.877852e-001 -8.090171e-001
    outer loop
      vertex  3.000000e+000 -2.467502e+000  1.792745e+000
      vertex  0.000000e+000 -9.425018e-001  2.900722e+000
      vertex  3.000000e+000 -9.425018e-001  2.900722e+000
    endloop
  endfacet
  facet normal  0.000000e+000  0.000000e+000 -1.000000e+000
    outer loop
      vertex  3.000000e+000 -9.425018e-001  2.900722e+000
      vertex  0.000000e+000 -9.425018e-001  2.900722e+000
      vertex  0.000000e+000  9.425018e-001  2.900722e+000
    endloop
  endfacet
  facet normal  0.000000e+000  0.000000e+000 -1.000000e+000
    outer loop
      vertex  3.000000e+000 -9.425018e-001  2.900722e+000
      vertex  0.000000e+000  9.425018e-001  2.900722e+000
      vertex  3.000000e+000  9.425018e-001  2.900722e+000
    endloop
  endfacet
  facet normal  -0.000000e+000 -5.877852e-001 -8.090171e-001
    outer loop
      vertex  3.000000e+000  9.425018e-001  2.900722e+000
      vertex  0.000000e+000  9.425018e-001  2.900722e+000
      vertex  0.000000e+000  2.467502e+000  1.792745e+000
    endloop
  endfacet
  facet normal  0.000000e+000 -5.877852e-001 -8.090171e-001
    outer loop
      vertex  3.000000e+000  9.425018e-001  2.900722e+000
      vertex  0.000000e+000  2.467502e+000  1.792745e+000
      vertex  3.000000e+000  2.467502e+000  1.792745e+000
    endloop
  endfacet
  facet normal  -0.000000e+000 -9.510565e-001 -3.090170e-001
    outer loop
      vertex  3.000000e+000  2.467502e+000  1.792745e+000
      vertex  0.000000e+000  2.467502e+000  1.792745e+000
      vertex  0.000000e+000  3.050000e+000  0.000000e+000
    endloop
  endfacet
  facet normal  0.000000e+000 -9.510565e-001 -3.090170e-001
    outer loop
      vertex  3.000000e+000  2.467502e+000  1.792745e+000
      vertex  0.000000e+000  3.050000e+000  0.000000e+000
      vertex  3.000000e+000  3.050000e+000  0.000000e+000
    endloop
  endfacet
  facet normal  0.000000e+000 -5.877852e-001  8.090171e-001
    outer loop
      vertex  0.000000e+000  9.425018e-001 -2.900722e+000
      vertex  3.000000e+000  2.467502e+000 -1.792745e+000
      vertex  0.000000e+000  2.467502e+000 -1.792745e+000
    endloop
  endfacet
  facet normal  0.000000e+000 -9.510565e-001  3.090170e-001
    outer loop
      vertex  0.000000e+000  2.467502e+000 -1.792745e+000
      vertex  3.000000e+000  2.467502e+000 -1.792745e+000
      vertex  3.000000e+000  3.050000e+000  0.000000e+000
    endloop
  endfacet
  facet normal  0.000000e+000 -9.510565e-001  3.090170e-001
    outer loop
      vertex  0.000000e+000  2.467502e+000 -1.792745e+000
      vertex  3.000000e+000  3.050000e+000  0.000000e+000
      vertex  0.000000e+000  3.050000e+000  0.000000e+000
    endloop
  endfacet
  facet normal  0.000000e+000 -5.877852e-001  8.090171e-001
    outer loop
      vertex  3.000000e+000  2.467502e+000 -1.792745e+000
      vertex  0.000000e+000  9.425018e-001 -2.900722e+000
      vertex  3.000000e+000  9.425018e-001 -2.900722e+000
    endloop
  endfacet
  facet normal  0.000000e+000  0.000000e+000  1.000000e+000
    outer loop
      vertex  3.000000e+000  9.425018e-001 -2.900722e+000
      vertex  0.000000e+000  9.425018e-001 -2.900722e+000
      vertex  0.000000e+000 -9.425018e-001 -2.900722e+000
    endloop
  endfacet
  facet normal  0.000000e+000  0.000000e+000  1.000000e+000
    outer loop
      vertex  3.000000e+000  9.425018e-001 -2.900722e+000
      vertex  0.000000e+000 -9.425018e-001 -2.900722e+000
      vertex  3.000000e+000 -9.425018e-001 -2.900722e+000
    endloop
  endfacet
  facet normal  0.000000e+000  5.877852e-001  8.090171e-001
    outer loop
      vertex  3.000000e+000 -9.425018e-001 -2.900722e+000
      vertex  0.000000e+000 -9.425018e-001 -2.900722e+000
      vertex  0.000000e+000 -2.467502e+000 -1.792745e+000
    endloop
  endfacet
  facet normal  -0.000000e+000  5.877852e-001  8.090171e-001
    outer loop
      vertex  3.000000e+000 -9.425018e-001 -2.900722e+000
      vertex  0.000000e+000 -2.467502e+000 -1.792745e+000
      vertex  3.000000e+000 -2.467502e+000 -1.792745e+000
    endloop
  endfacet
  facet normal  0.000000e+000  9.510565e-001  3.090170e-001
    outer loop
      vertex  3.000000e+000 -2.467502e+000 -1.792745e+000
      vertex  0.000000e+000 -2.467502e+000 -1.792745e+000
      vertex  0.000000e+000 -3.050000e+000  3.735173e-016
    endloop
  endfacet
  facet normal  -0.000000e+000  9.510565e-001  3.090170e-001
    outer loop
      vertex  3.000000e+000 -2.467502e+000 -1.792745e+000
      vertex  0.000000e+000 -3.050000e+000  3.735173e-016
      vertex  3.000000e+000 -3.050000e+000  3.735173e-016
    endloop
  endfacet
  facet normal  0.000000e+000  1.000000e+000  0.000000e+000
    outer loop
      vertex  3.000000e+000  5.000000e+001 -1.000000e+001
      vertex  0.000000e+000  5.000000e+001 -1.000000e+001
      vertex  3.000000e+000  5.000000e+001  2.000000e+000
    endloop
  endfacet
  facet normal  0.000000e+000  1.000000e+000  0.000000e+000
    outer loop
      vertex  3.000000e+000  5.000000e+001  2.000000e+000
      vertex  0.000000e+000  5.000000e+001 -1.000000e+001
      vertex  0.000000e+000  5.000000e+001  2.000000e+000
    endloop
  endfacet
  facet normal  0.000000e+000 -1.000000e+000  0.000000e+000
    outer loop
      vertex  3.000000e+000 -1.000000e+001  0.000000e+000
      vertex  0.000000e+000 -1.000000e+001  0.000000e+000
      vertex  3.000000e+000 -1.000000e+001 -1.000000e+001
    endloop
  endfacet
  facet normal  0.000000e+000 -1.000000e+000  0.000000e+000
    outer loop
      vertex  3.000000e+000 -1.000000e+001 -1.000000e+001
      vertex  0.000000e+000 -1.000000e+001  0.000000e+000
      vertex  0.000000e+000 -1.000000e+001 -1.000000e+001
    endloop
  endfacet
  facet normal  0.000000e+000 -1.000000e+000  0.000000e+000
    outer loop
      vertex  3.000000e+000 -1.000000e+001  1.000000e+001
      vertex  0.000000e+000 -1.000000e+001  1.000000e+001
      vertex  3.000000e+000 -1.000000e+001  0.000000e+000
    endloop
  endfacet
  facet normal  0.000000e+000 -1.000000e+000  0.000000e+000
    outer loop
      vertex  3.000000e+000 -1.000000e+001  0.000000e+000
      vertex  0.000000e+000 -1.000000e+001  1.000000e+001
      vertex  0.000000e+000 -1.000000e+001  0.000000e+000
    endloop
  endfacet
  facet normal  0.000000e+000  0.000000e+000  1.000000e+000
    outer loop
      vertex  3.000000e+000 -1.000000e+001  1.000000e+001
      vertex  3.000000e+000 -1.776357e-015  1.000000e+001
      vertex  0.000000e+000 -1.000000e+001  1.000000e+001
    endloop
  endfacet
  facet normal  0.000000e+000  0.000000e+000  1.000000e+000
    outer loop
      vertex  0.000000e+000 -1.000000e+001  1.000000e+001
      vertex  3.000000e+000 -1.776357e-015  1.000000e+001
      vertex  0.000000e+000 -1.776357e-015  1.000000e+001
    endloop
  endfacet
  facet normal  0.000000e+000  0.000000e+000  1.000000e+000
    outer loop
      vertex  3.000000e+000 -1.776357e-015  1.000000e+001
      vertex  3.000000e+000  4.000000e+001  1.000000e+001
      vertex  0.000000e+000 -1.776357e-015  1.000000e+001
    endloop
  endfacet
  facet normal  0.000000e+000  0.000000e+000  1.000000e+000
    outer loop
      vertex  0.000000e+000 -1.776357e-015  1.000000e+001
      vertex  3.000000e+000  4.000000e+001  1.000000e+001
      vertex  0.000000e+000  4.000000e+001  1.000000e+001
    endloop
  endfacet
  facet normal  0.000000e+000  0.000000e+000  1.000000e+000
    outer loop
      vertex  3.000000e+000  4.000000e+001  1.000000e+001
      vertex  3.000000e+000  5.000000e+001  1.000000e+001
      vertex  0.000000e+000  4.000000e+001  1.000000e+001
    endloop
  endfacet
  facet normal  0.000000e+000  0.000000e+000  1.000000e+000
    outer loop
      vertex  0.000000e+000  4.000000e+001  1.000000e+001
      vertex  3.000000e+000  5.000000e+001  1.000000e+001
      vertex  0.000000e+000  5.000000e+001  1.000000e+001
    endloop
  endfacet
  facet normal  0.000000e+000  1.000000e+000  0.000000e+000
    outer loop
      vertex  3.000000e+000  5.000000e+001  2.000000e+000
      vertex  0.000000e+000  5.000000e+001  2.000000e+000
      vertex  3.000000e+000  5.000000e+001  1.000000e+001
    endloop
  endfacet
  facet normal  0.000000e+000  1.000000e+000  0.000000e+000
    outer loop
      vertex  3.000000e+000  5.000000e+001  1.000000e+001
      vertex  0.000000e+000  5.000000e+001  2.000000e+000
      vertex  0.000000e+000  5.000000e+001  1.000000e+001
    endloop
  endfacet
endsolid CATIA STL
