solid CATIA STL
  facet normal  1.000000e+000  -0.000000e+000  0.000000e+000
    outer loop
      vertex  4.000000e+000 -2.467502e+000 -1.792745e+000
      vertex  4.000000e+000 -3.236068e+000 -2.351141e+000
      vertex  4.000000e+000 -9.425018e-001 -2.900722e+000
    endloop
  endfacet
  facet normal  1.000000e+000  0.000000e+000  0.000000e+000
    outer loop
      vertex  4.000000e+000 -9.425018e-001 -2.900722e+000
      vertex  4.000000e+000 -3.236068e+000 -2.351141e+000
      vertex  4.000000e+000 -1.236068e+000 -3.804226e+000
    endloop
  endfacet
  facet normal  9.999999e-001  0.000000e+000  0.000000e+000
    outer loop
      vertex  4.000000e+000 -9.425018e-001 -2.900722e+000
      vertex  4.000000e+000 -1.236068e+000 -3.804226e+000
      vertex  4.000000e+000  9.425018e-001 -2.900722e+000
    endloop
  endfacet
  facet normal  1.000000e+000  0.000000e+000  0.000000e+000
    outer loop
      vertex  4.000000e+000  9.425018e-001 -2.900722e+000
      vertex  4.000000e+000 -1.236068e+000 -3.804226e+000
      vertex  4.000000e+000  1.236068e+000 -3.804226e+000
    endloop
  endfacet
  facet normal  1.000000e+000  0.000000e+000  -0.000000e+000
    outer loop
      vertex  4.000000e+000  9.425018e-001 -2.900722e+000
      vertex  4.000000e+000  1.236068e+000 -3.804226e+000
      vertex  4.000000e+000  3.236068e+000 -2.351141e+000
    endloop
  endfacet
  facet normal  1.000000e+000  0.000000e+000  0.000000e+000
    outer loop
      vertex  4.000000e+000  2.467502e+000  1.792745e+000
      vertex  4.000000e+000  3.236068e+000  2.351141e+000
      vertex  4.000000e+000  9.425018e-001  2.900722e+000
    endloop
  endfacet
  facet normal  1.000000e+000  -0.000000e+000  0.000000e+000
    outer loop
      vertex  4.000000e+000  9.425018e-001  2.900722e+000
      vertex  4.000000e+000  3.236068e+000  2.351141e+000
      vertex  4.000000e+000  1.236068e+000  3.804226e+000
    endloop
  endfacet
  facet normal  9.999999e-001  0.000000e+000  0.000000e+000
    outer loop
      vertex  4.000000e+000  9.425018e-001  2.900722e+000
      vertex  4.000000e+000  1.236068e+000  3.804226e+000
      vertex  4.000000e+000 -9.425018e-001  2.900722e+000
    endloop
  endfacet
  facet normal  1.000000e+000  0.000000e+000  -0.000000e+000
    outer loop
      vertex  4.000000e+000 -9.425018e-001  2.900722e+000
      vertex  4.000000e+000  1.236068e+000  3.804226e+000
      vertex  4.000000e+000 -1.236068e+000  3.804226e+000
    endloop
  endfacet
  facet normal  1.000000e+000  0.000000e+000  0.000000e+000
    outer loop
      vertex  4.000000e+000 -9.425018e-001  2.900722e+000
      vertex  4.000000e+000 -1.236068e+000  3.804226e+000
      vertex  4.000000e+000 -3.236068e+000  2.351141e+000
    endloop
  endfacet
  facet normal  1.000000e+000  0.000000e+000  0.000000e+000
    outer loop
      vertex  4.000000e+000 -3.236068e+000 -2.351141e+000
      vertex  4.000000e+000 -2.467502e+000 -1.792745e+000
      vertex  4.000000e+000 -4.000000e+000  4.898587e-016
    endloop
  endfacet
  facet normal  1.000000e+000  0.000000e+000  0.000000e+000
    outer loop
      vertex  4.000000e+000 -4.000000e+000  4.898587e-016
      vertex  4.000000e+000 -2.467502e+000 -1.792745e+000
      vertex  4.000000e+000 -3.050000e+000  3.735173e-016
    endloop
  endfacet
  facet normal  1.000000e+000  0.000000e+000  0.000000e+000
    outer loop
      vertex  4.000000e+000 -4.000000e+000  4.898587e-016
      vertex  4.000000e+000 -3.050000e+000  3.735173e-016
      vertex  4.000000e+000 -3.236068e+000  2.351141e+000
    endloop
  endfacet
  facet normal  1.000000e+000  0.000000e+000  0.000000e+000
    outer loop
      vertex  4.000000e+000 -3.236068e+000  2.351141e+000
      vertex  4.000000e+000 -3.050000e+000  3.735173e-016
      vertex  4.000000e+000 -2.467502e+000  1.792745e+000
    endloop
  endfacet
  facet normal  9.999999e-001  0.000000e+000  -0.000000e+000
    outer loop
      vertex  4.000000e+000 -3.236068e+000  2.351141e+000
      vertex  4.000000e+000 -2.467502e+000  1.792745e+000
      vertex  4.000000e+000 -9.425018e-001  2.900722e+000
    endloop
  endfacet
  facet normal  1.000000e+000  -0.000000e+000  0.000000e+000
    outer loop
      vertex  4.000000e+000  3.236068e+000  2.351141e+000
      vertex  4.000000e+000  2.467502e+000  1.792745e+000
      vertex  4.000000e+000  4.000000e+000  0.000000e+000
    endloop
  endfacet
  facet normal  1.000000e+000  0.000000e+000  0.000000e+000
    outer loop
      vertex  4.000000e+000  4.000000e+000  0.000000e+000
      vertex  4.000000e+000  2.467502e+000  1.792745e+000
      vertex  4.000000e+000  3.050000e+000  0.000000e+000
    endloop
  endfacet
  facet normal  1.000000e+000  -0.000000e+000  0.000000e+000
    outer loop
      vertex  4.000000e+000  4.000000e+000  0.000000e+000
      vertex  4.000000e+000  3.050000e+000  0.000000e+000
      vertex  4.000000e+000  3.236068e+000 -2.351141e+000
    endloop
  endfacet
  facet normal  1.000000e+000  0.000000e+000  0.000000e+000
    outer loop
      vertex  4.000000e+000  3.236068e+000 -2.351141e+000
      vertex  4.000000e+000  3.050000e+000  0.000000e+000
      vertex  4.000000e+000  2.467502e+000 -1.792745e+000
    endloop
  endfacet
  facet normal  9.999999e-001  0.000000e+000  0.000000e+000
    outer loop
      vertex  4.000000e+000  3.236068e+000 -2.351141e+000
      vertex  4.000000e+000  2.467502e+000 -1.792745e+000
      vertex  4.000000e+000  9.425018e-001 -2.900722e+000
    endloop
  endfacet
  facet normal  0.000000e+000 -5.877852e-001  8.090171e-001
    outer loop
      vertex  2.500000e+000  9.425018e-001 -2.900722e+000
      vertex  4.000000e+000  2.467502e+000 -1.792745e+000
      vertex  2.500000e+000  2.467502e+000 -1.792745e+000
    endloop
  endfacet
  facet normal  0.000000e+000 -9.510565e-001  3.090170e-001
    outer loop
      vertex  2.500000e+000  2.467502e+000 -1.792745e+000
      vertex  4.000000e+000  2.467502e+000 -1.792745e+000
      vertex  4.000000e+000  3.050000e+000  0.000000e+000
    endloop
  endfacet
  facet normal  0.000000e+000 -9.510565e-001  3.090170e-001
    outer loop
      vertex  2.500000e+000  2.467502e+000 -1.792745e+000
      vertex  4.000000e+000  3.050000e+000  0.000000e+000
      vertex  2.500000e+000  3.050000e+000  0.000000e+000
    endloop
  endfacet
  facet normal  0.000000e+000 -5.877852e-001  8.090171e-001
    outer loop
      vertex  4.000000e+000  2.467502e+000 -1.792745e+000
      vertex  2.500000e+000  9.425018e-001 -2.900722e+000
      vertex  4.000000e+000  9.425018e-001 -2.900722e+000
    endloop
  endfacet
  facet normal  0.000000e+000  0.000000e+000  1.000000e+000
    outer loop
      vertex  4.000000e+000  9.425018e-001 -2.900722e+000
      vertex  2.500000e+000  9.425018e-001 -2.900722e+000
      vertex  2.500000e+000 -9.425018e-001 -2.900722e+000
    endloop
  endfacet
  facet normal  0.000000e+000  0.000000e+000  1.000000e+000
    outer loop
      vertex  4.000000e+000  9.425018e-001 -2.900722e+000
      vertex  2.500000e+000 -9.425018e-001 -2.900722e+000
      vertex  4.000000e+000 -9.425018e-001 -2.900722e+000
    endloop
  endfacet
  facet normal  0.000000e+000  5.877852e-001  8.090171e-001
    outer loop
      vertex  4.000000e+000 -9.425018e-001 -2.900722e+000
      vertex  2.500000e+000 -9.425018e-001 -2.900722e+000
      vertex  2.500000e+000 -2.467502e+000 -1.792745e+000
    endloop
  endfacet
  facet normal  -0.000000e+000  5.877852e-001  8.090171e-001
    outer loop
      vertex  4.000000e+000 -9.425018e-001 -2.900722e+000
      vertex  2.500000e+000 -2.467502e+000 -1.792745e+000
      vertex  4.000000e+000 -2.467502e+000 -1.792745e+000
    endloop
  endfacet
  facet normal  0.000000e+000  9.510565e-001  3.090170e-001
    outer loop
      vertex  4.000000e+000 -2.467502e+000 -1.792745e+000
      vertex  2.500000e+000 -2.467502e+000 -1.792745e+000
      vertex  2.500000e+000 -3.050000e+000  3.735173e-016
    endloop
  endfacet
  facet normal  -0.000000e+000  9.510565e-001  3.090170e-001
    outer loop
      vertex  4.000000e+000 -2.467502e+000 -1.792745e+000
      vertex  2.500000e+000 -3.050000e+000  3.735173e-016
      vertex  4.000000e+000 -3.050000e+000  3.735173e-016
    endloop
  endfacet
  facet normal  0.000000e+000  5.877852e-001 -8.090171e-001
    outer loop
      vertex  2.500000e+000 -9.425018e-001  2.900722e+000
      vertex  4.000000e+000 -2.467502e+000  1.792745e+000
      vertex  2.500000e+000 -2.467502e+000  1.792745e+000
    endloop
  endfacet
  facet normal  0.000000e+000  9.510565e-001 -3.090170e-001
    outer loop
      vertex  2.500000e+000 -2.467502e+000  1.792745e+000
      vertex  4.000000e+000 -2.467502e+000  1.792745e+000
      vertex  4.000000e+000 -3.050000e+000  3.735173e-016
    endloop
  endfacet
  facet normal  0.000000e+000  9.510565e-001 -3.090170e-001
    outer loop
      vertex  2.500000e+000 -2.467502e+000  1.792745e+000
      vertex  4.000000e+000 -3.050000e+000  3.735173e-016
      vertex  2.500000e+000 -3.050000e+000  3.735173e-016
    endloop
  endfacet
  facet normal  0.000000e+000  5.877852e-001 -8.090171e-001
    outer loop
      vertex  4.000000e+000 -2.467502e+000  1.792745e+000
      vertex  2.500000e+000 -9.425018e-001  2.900722e+000
      vertex  4.000000e+000 -9.425018e-001  2.900722e+000
    endloop
  endfacet
  facet normal  0.000000e+000  0.000000e+000 -1.000000e+000
    outer loop
      vertex  4.000000e+000 -9.425018e-001  2.900722e+000
      vertex  2.500000e+000 -9.425018e-001  2.900722e+000
      vertex  2.500000e+000  9.425018e-001  2.900722e+000
    endloop
  endfacet
  facet normal  0.000000e+000  0.000000e+000 -1.000000e+000
    outer loop
      vertex  4.000000e+000 -9.425018e-001  2.900722e+000
      vertex  2.500000e+000  9.425018e-001  2.900722e+000
      vertex  4.000000e+000  9.425018e-001  2.900722e+000
    endloop
  endfacet
  facet normal  -0.000000e+000 -5.877852e-001 -8.090171e-001
    outer loop
      vertex  4.000000e+000  9.425018e-001  2.900722e+000
      vertex  2.500000e+000  9.425018e-001  2.900722e+000
      vertex  2.500000e+000  2.467502e+000  1.792745e+000
    endloop
  endfacet
  facet normal  0.000000e+000 -5.877852e-001 -8.090171e-001
    outer loop
      vertex  4.000000e+000  9.425018e-001  2.900722e+000
      vertex  2.500000e+000  2.467502e+000  1.792745e+000
      vertex  4.000000e+000  2.467502e+000  1.792745e+000
    endloop
  endfacet
  facet normal  -0.000000e+000 -9.510565e-001 -3.090170e-001
    outer loop
      vertex  4.000000e+000  2.467502e+000  1.792745e+000
      vertex  2.500000e+000  2.467502e+000  1.792745e+000
      vertex  2.500000e+000  3.050000e+000  0.000000e+000
    endloop
  endfacet
  facet normal  0.000000e+000 -9.510565e-001 -3.090170e-001
    outer loop
      vertex  4.000000e+000  2.467502e+000  1.792745e+000
      vertex  2.500000e+000  3.050000e+000  0.000000e+000
      vertex  4.000000e+000  3.050000e+000  0.000000e+000
    endloop
  endfacet
  facet normal  1.000000e+000  -0.000000e+000  0.000000e+000
    outer loop
      vertex  2.500000e+000  9.425018e-001  2.900722e+000
      vertex  2.500000e+000 -9.425018e-001  2.900722e+000
      vertex  2.500000e+000  2.467502e+000  1.792745e+000
    endloop
  endfacet
  facet normal  1.000000e+000  0.000000e+000  0.000000e+000
    outer loop
      vertex  2.500000e+000  2.467502e+000  1.792745e+000
      vertex  2.500000e+000 -9.425018e-001  2.900722e+000
      vertex  2.500000e+000 -2.467502e+000  1.792745e+000
    endloop
  endfacet
  facet normal  1.000000e+000  -0.000000e+000  0.000000e+000
    outer loop
      vertex  2.500000e+000  2.467502e+000  1.792745e+000
      vertex  2.500000e+000 -2.467502e+000  1.792745e+000
      vertex  2.500000e+000  3.050000e+000  0.000000e+000
    endloop
  endfacet
  facet normal  1.000000e+000  0.000000e+000  0.000000e+000
    outer loop
      vertex  2.500000e+000  3.050000e+000  0.000000e+000
      vertex  2.500000e+000 -2.467502e+000  1.792745e+000
      vertex  2.500000e+000 -3.050000e+000  3.735173e-016
    endloop
  endfacet
  facet normal  1.000000e+000  0.000000e+000  0.000000e+000
    outer loop
      vertex  2.500000e+000  3.050000e+000  0.000000e+000
      vertex  2.500000e+000 -3.050000e+000  3.735173e-016
      vertex  2.500000e+000  2.467502e+000 -1.792745e+000
    endloop
  endfacet
  facet normal  1.000000e+000  0.000000e+000  0.000000e+000
    outer loop
      vertex  2.500000e+000  2.467502e+000 -1.792745e+000
      vertex  2.500000e+000 -3.050000e+000  3.735173e-016
      vertex  2.500000e+000 -2.467502e+000 -1.792745e+000
    endloop
  endfacet
  facet normal  1.000000e+000  -0.000000e+000  0.000000e+000
    outer loop
      vertex  2.500000e+000  2.467502e+000 -1.792745e+000
      vertex  2.500000e+000 -2.467502e+000 -1.792745e+000
      vertex  2.500000e+000  9.425018e-001 -2.900722e+000
    endloop
  endfacet
  facet normal  1.000000e+000  0.000000e+000  0.000000e+000
    outer loop
      vertex  2.500000e+000  9.425018e-001 -2.900722e+000
      vertex  2.500000e+000 -2.467502e+000 -1.792745e+000
      vertex  2.500000e+000 -9.425018e-001 -2.900722e+000
    endloop
  endfacet
  facet normal -1.000000e+000  0.000000e+000  0.000000e+000
    outer loop
      vertex  0.000000e+000  4.000000e+000  0.000000e+000
      vertex  0.000000e+000 -3.236068e+000  2.351141e+000
      vertex  0.000000e+000  3.236068e+000  2.351141e+000
    endloop
  endfacet
  facet normal -1.000000e+000  0.000000e+000  0.000000e+000
    outer loop
      vertex  0.000000e+000  3.236068e+000  2.351141e+000
      vertex  0.000000e+000 -3.236068e+000  2.351141e+000
      vertex  0.000000e+000 -1.236068e+000  3.804226e+000
    endloop
  endfacet
  facet normal -9.999999e-001  0.000000e+000  0.000000e+000
    outer loop
      vertex  0.000000e+000  3.236068e+000  2.351141e+000
      vertex  0.000000e+000 -1.236068e+000  3.804226e+000
      vertex  0.000000e+000  1.236068e+000  3.804226e+000
    endloop
  endfacet
  facet normal -1.000000e+000  0.000000e+000  0.000000e+000
    outer loop
      vertex  0.000000e+000 -3.236068e+000  2.351141e+000
      vertex  0.000000e+000  4.000000e+000  0.000000e+000
      vertex  0.000000e+000 -4.000000e+000  4.898587e-016
    endloop
  endfacet
  facet normal -1.000000e+000  0.000000e+000  0.000000e+000
    outer loop
      vertex  0.000000e+000 -4.000000e+000  4.898587e-016
      vertex  0.000000e+000  4.000000e+000  0.000000e+000
      vertex  0.000000e+000  3.236068e+000 -2.351141e+000
    endloop
  endfacet
  facet normal -1.000000e+000  0.000000e+000  0.000000e+000
    outer loop
      vertex  0.000000e+000 -4.000000e+000  4.898587e-016
      vertex  0.000000e+000  3.236068e+000 -2.351141e+000
      vertex  0.000000e+000 -3.236068e+000 -2.351141e+000
    endloop
  endfacet
  facet normal -1.000000e+000  0.000000e+000  0.000000e+000
    outer loop
      vertex  0.000000e+000 -3.236068e+000 -2.351141e+000
      vertex  0.000000e+000  3.236068e+000 -2.351141e+000
      vertex  0.000000e+000  1.236068e+000 -3.804226e+000
    endloop
  endfacet
  facet normal -9.999999e-001  0.000000e+000  0.000000e+000
    outer loop
      vertex  0.000000e+000 -3.236068e+000 -2.351141e+000
      vertex  0.000000e+000  1.236068e+000 -3.804226e+000
      vertex  0.000000e+000 -1.236068e+000 -3.804226e+000
    endloop
  endfacet
  facet normal  0.000000e+000  9.510565e-001 -3.090170e-001
    outer loop
      vertex  0.000000e+000  4.000000e+000  0.000000e+000
      vertex  4.000000e+000  4.000000e+000  0.000000e+000
      vertex  0.000000e+000  3.236068e+000 -2.351141e+000
    endloop
  endfacet
  facet normal  0.000000e+000  9.510565e-001 -3.090170e-001
    outer loop
      vertex  0.000000e+000  3.236068e+000 -2.351141e+000
      vertex  4.000000e+000  4.000000e+000  0.000000e+000
      vertex  4.000000e+000  3.236068e+000 -2.351141e+000
    endloop
  endfacet
  facet normal  0.000000e+000  5.877853e-001 -8.090170e-001
    outer loop
      vertex  0.000000e+000  3.236068e+000 -2.351141e+000
      vertex  4.000000e+000  3.236068e+000 -2.351141e+000
      vertex  0.000000e+000  1.236068e+000 -3.804226e+000
    endloop
  endfacet
  facet normal  0.000000e+000  5.877853e-001 -8.090170e-001
    outer loop
      vertex  0.000000e+000  1.236068e+000 -3.804226e+000
      vertex  4.000000e+000  3.236068e+000 -2.351141e+000
      vertex  4.000000e+000  1.236068e+000 -3.804226e+000
    endloop
  endfacet
  facet normal  -0.000000e+000  0.000000e+000 -1.000000e+000
    outer loop
      vertex  0.000000e+000  1.236068e+000 -3.804226e+000
      vertex  4.000000e+000  1.236068e+000 -3.804226e+000
      vertex  0.000000e+000 -1.236068e+000 -3.804226e+000
    endloop
  endfacet
  facet normal  0.000000e+000  0.000000e+000 -1.000000e+000
    outer loop
      vertex  0.000000e+000 -1.236068e+000 -3.804226e+000
      vertex  4.000000e+000  1.236068e+000 -3.804226e+000
      vertex  4.000000e+000 -1.236068e+000 -3.804226e+000
    endloop
  endfacet
  facet normal  -0.000000e+000 -5.877853e-001 -8.090170e-001
    outer loop
      vertex  0.000000e+000 -1.236068e+000 -3.804226e+000
      vertex  4.000000e+000 -1.236068e+000 -3.804226e+000
      vertex  0.000000e+000 -3.236068e+000 -2.351141e+000
    endloop
  endfacet
  facet normal  0.000000e+000 -5.877853e-001 -8.090170e-001
    outer loop
      vertex  0.000000e+000 -3.236068e+000 -2.351141e+000
      vertex  4.000000e+000 -1.236068e+000 -3.804226e+000
      vertex  4.000000e+000 -3.236068e+000 -2.351141e+000
    endloop
  endfacet
  facet normal  -0.000000e+000 -9.510565e-001 -3.090170e-001
    outer loop
      vertex  0.000000e+000 -3.236068e+000 -2.351141e+000
      vertex  4.000000e+000 -3.236068e+000 -2.351141e+000
      vertex  0.000000e+000 -4.000000e+000  4.898587e-016
    endloop
  endfacet
  facet normal  0.000000e+000 -9.510565e-001 -3.090170e-001
    outer loop
      vertex  0.000000e+000 -4.000000e+000  4.898587e-016
      vertex  4.000000e+000 -3.236068e+000 -2.351141e+000
      vertex  4.000000e+000 -4.000000e+000  4.898587e-016
    endloop
  endfacet
  facet normal  0.000000e+000 -9.510565e-001  3.090170e-001
    outer loop
      vertex  0.000000e+000 -4.000000e+000  4.898587e-016
      vertex  4.000000e+000 -4.000000e+000  4.898587e-016
      vertex  0.000000e+000 -3.236068e+000  2.351141e+000
    endloop
  endfacet
  facet normal  0.000000e+000 -9.510565e-001  3.090170e-001
    outer loop
      vertex  0.000000e+000 -3.236068e+000  2.351141e+000
      vertex  4.000000e+000 -4.000000e+000  4.898587e-016
      vertex  4.000000e+000 -3.236068e+000  2.351141e+000
    endloop
  endfacet
  facet normal  0.000000e+000 -5.877853e-001  8.090170e-001
    outer loop
      vertex  0.000000e+000 -3.236068e+000  2.351141e+000
      vertex  4.000000e+000 -3.236068e+000  2.351141e+000
      vertex  0.000000e+000 -1.236068e+000  3.804226e+000
    endloop
  endfacet
  facet normal  0.000000e+000 -5.877853e-001  8.090170e-001
    outer loop
      vertex  0.000000e+000 -1.236068e+000  3.804226e+000
      vertex  4.000000e+000 -3.236068e+000  2.351141e+000
      vertex  4.000000e+000 -1.236068e+000  3.804226e+000
    endloop
  endfacet
  facet normal  0.000000e+000  0.000000e+000  1.000000e+000
    outer loop
      vertex  0.000000e+000 -1.236068e+000  3.804226e+000
      vertex  4.000000e+000 -1.236068e+000  3.804226e+000
      vertex  0.000000e+000  1.236068e+000  3.804226e+000
    endloop
  endfacet
  facet normal  -0.000000e+000  0.000000e+000  1.000000e+000
    outer loop
      vertex  0.000000e+000  1.236068e+000  3.804226e+000
      vertex  4.000000e+000 -1.236068e+000  3.804226e+000
      vertex  4.000000e+000  1.236068e+000  3.804226e+000
    endloop
  endfacet
  facet normal  0.000000e+000  5.877853e-001  8.090170e-001
    outer loop
      vertex  0.000000e+000  1.236068e+000  3.804226e+000
      vertex  4.000000e+000  1.236068e+000  3.804226e+000
      vertex  0.000000e+000  3.236068e+000  2.351141e+000
    endloop
  endfacet
  facet normal  -0.000000e+000  5.877853e-001  8.090170e-001
    outer loop
      vertex  0.000000e+000  3.236068e+000  2.351141e+000
      vertex  4.000000e+000  1.236068e+000  3.804226e+000
      vertex  4.000000e+000  3.236068e+000  2.351141e+000
    endloop
  endfacet
  facet normal  0.000000e+000  9.510565e-001  3.090170e-001
    outer loop
      vertex  0.000000e+000  3.236068e+000  2.351141e+000
      vertex  4.000000e+000  3.236068e+000  2.351141e+000
      vertex  0.000000e+000  4.000000e+000  0.000000e+000
    endloop
  endfacet
  facet normal  -0.000000e+000  9.510565e-001  3.090170e-001
    outer loop
      vertex  0.000000e+000  4.000000e+000  0.000000e+000
      vertex  4.000000e+000  3.236068e+000  2.351141e+000
      vertex  4.000000e+000  4.000000e+000  0.000000e+000
    endloop
  endfacet
endsolid CATIA STL
