solid CATIA STL
  facet normal -1.000000e+000  0.000000e+000  -0.000000e+000
    outer loop
      vertex  0.000000e+000 -1.350000e+001 -4.175000e+001
      vertex  0.000000e+000 -1.243934e+001 -4.131066e+001
      vertex  0.000000e+000 -1.050000e+001 -4.400000e+001
    endloop
  endfacet
  facet normal -1.000000e+000  0.000000e+000  -0.000000e+000
    outer loop
      vertex  0.000000e+000 -1.243934e+001 -4.131066e+001
      vertex  0.000000e+000 -1.200000e+001 -4.025000e+001
      vertex  0.000000e+000 -1.050000e+001 -4.400000e+001
    endloop
  endfacet
  facet normal -1.000000e+000  0.000000e+000  0.000000e+000
    outer loop
      vertex  0.000000e+000  1.050000e+001 -4.400000e+001
      vertex  0.000000e+000  1.050000e+001 -3.050000e+001
      vertex  0.000000e+000  1.200000e+001 -4.025000e+001
    endloop
  endfacet
  facet normal -1.000000e+000  0.000000e+000  -0.000000e+000
    outer loop
      vertex  0.000000e+000  1.050000e+001 -4.400000e+001
      vertex  0.000000e+000  1.200000e+001 -4.025000e+001
      vertex  0.000000e+000  1.243934e+001 -4.131066e+001
    endloop
  endfacet
  facet normal -1.000000e+000  0.000000e+000  -0.000000e+000
    outer loop
      vertex  0.000000e+000  1.050000e+001 -4.400000e+001
      vertex  0.000000e+000  1.243934e+001 -4.131066e+001
      vertex  0.000000e+000  1.350000e+001 -4.175000e+001
    endloop
  endfacet
  facet normal -1.000000e+000  0.000000e+000  0.000000e+000
    outer loop
      vertex  0.000000e+000  1.650000e+001 -5.000000e+001
      vertex  0.000000e+000 -1.650000e+001 -5.000000e+001
      vertex  0.000000e+000 -1.050000e+001 -4.400000e+001
    endloop
  endfacet
  facet normal -1.000000e+000  0.000000e+000  0.000000e+000
    outer loop
      vertex  0.000000e+000  1.650000e+001 -5.000000e+001
      vertex  0.000000e+000 -1.050000e+001 -4.400000e+001
      vertex  0.000000e+000  1.050000e+001 -4.400000e+001
    endloop
  endfacet
  facet normal -1.000000e+000  0.000000e+000  0.000000e+000
    outer loop
      vertex  0.000000e+000  1.650000e+001 -5.000000e+001
      vertex  0.000000e+000  1.050000e+001 -4.400000e+001
      vertex  0.000000e+000  1.350000e+001 -4.175000e+001
    endloop
  endfacet
  facet normal -9.999999e-001  0.000000e+000  0.000000e+000
    outer loop
      vertex  0.000000e+000  1.650000e+001 -5.000000e+001
      vertex  0.000000e+000  1.350000e+001 -4.175000e+001
      vertex  0.000000e+000  1.456066e+001 -4.131066e+001
    endloop
  endfacet
  facet normal -1.000000e+000  0.000000e+000  0.000000e+000
    outer loop
      vertex  0.000000e+000  1.650000e+001 -5.000000e+001
      vertex  0.000000e+000  1.456066e+001 -4.131066e+001
      vertex  0.000000e+000  1.500000e+001 -4.025000e+001
    endloop
  endfacet
  facet normal -1.000000e+000  0.000000e+000  0.000000e+000
    outer loop
      vertex  0.000000e+000 -1.650000e+001 -5.000000e+001
      vertex  0.000000e+000 -1.650000e+001 -3.050000e+001
      vertex  0.000000e+000 -1.500000e+001 -4.025000e+001
    endloop
  endfacet
  facet normal -1.000000e+000  0.000000e+000  -0.000000e+000
    outer loop
      vertex  0.000000e+000 -1.650000e+001 -5.000000e+001
      vertex  0.000000e+000 -1.500000e+001 -4.025000e+001
      vertex  0.000000e+000 -1.456066e+001 -4.131066e+001
    endloop
  endfacet
  facet normal -9.999999e-001  0.000000e+000  -0.000000e+000
    outer loop
      vertex  0.000000e+000 -1.650000e+001 -5.000000e+001
      vertex  0.000000e+000 -1.456066e+001 -4.131066e+001
      vertex  0.000000e+000 -1.350000e+001 -4.175000e+001
    endloop
  endfacet
  facet normal -1.000000e+000  0.000000e+000  -0.000000e+000
    outer loop
      vertex  0.000000e+000 -1.650000e+001 -5.000000e+001
      vertex  0.000000e+000 -1.350000e+001 -4.175000e+001
      vertex  0.000000e+000 -1.050000e+001 -4.400000e+001
    endloop
  endfacet
  facet normal -1.000000e+000  -0.000000e+000  0.000000e+000
    outer loop
      vertex  0.000000e+000  1.050000e+001 -3.050000e+001
      vertex  0.000000e+000  1.650000e+001 -3.050000e+001
      vertex  0.000000e+000  1.350000e+001 -3.875000e+001
    endloop
  endfacet
  facet normal -9.999999e-001  -0.000000e+000  0.000000e+000
    outer loop
      vertex  0.000000e+000  1.050000e+001 -3.050000e+001
      vertex  0.000000e+000  1.350000e+001 -3.875000e+001
      vertex  0.000000e+000  1.243934e+001 -3.918934e+001
    endloop
  endfacet
  facet normal -1.000000e+000  -0.000000e+000  0.000000e+000
    outer loop
      vertex  0.000000e+000  1.050000e+001 -3.050000e+001
      vertex  0.000000e+000  1.243934e+001 -3.918934e+001
      vertex  0.000000e+000  1.200000e+001 -4.025000e+001
    endloop
  endfacet
  facet normal -1.000000e+000  -0.000000e+000  0.000000e+000
    outer loop
      vertex  0.000000e+000 -1.650000e+001 -3.050000e+001
      vertex  0.000000e+000 -1.050000e+001 -3.050000e+001
      vertex  0.000000e+000 -1.350000e+001 -3.875000e+001
    endloop
  endfacet
  facet normal -9.999999e-001  -0.000000e+000  0.000000e+000
    outer loop
      vertex  0.000000e+000 -1.650000e+001 -3.050000e+001
      vertex  0.000000e+000 -1.350000e+001 -3.875000e+001
      vertex  0.000000e+000 -1.456066e+001 -3.918934e+001
    endloop
  endfacet
  facet normal -1.000000e+000  -0.000000e+000  0.000000e+000
    outer loop
      vertex  0.000000e+000 -1.650000e+001 -3.050000e+001
      vertex  0.000000e+000 -1.456066e+001 -3.918934e+001
      vertex  0.000000e+000 -1.500000e+001 -4.025000e+001
    endloop
  endfacet
  facet normal -1.000000e+000  0.000000e+000  0.000000e+000
    outer loop
      vertex  0.000000e+000 -1.050000e+001 -3.050000e+001
      vertex  0.000000e+000 -1.050000e+001 -4.400000e+001
      vertex  0.000000e+000 -1.200000e+001 -4.025000e+001
    endloop
  endfacet
  facet normal -1.000000e+000  0.000000e+000  0.000000e+000
    outer loop
      vertex  0.000000e+000 -1.050000e+001 -3.050000e+001
      vertex  0.000000e+000 -1.200000e+001 -4.025000e+001
      vertex  0.000000e+000 -1.243934e+001 -3.918934e+001
    endloop
  endfacet
  facet normal -9.999999e-001  0.000000e+000  0.000000e+000
    outer loop
      vertex  0.000000e+000 -1.050000e+001 -3.050000e+001
      vertex  0.000000e+000 -1.243934e+001 -3.918934e+001
      vertex  0.000000e+000 -1.350000e+001 -3.875000e+001
    endloop
  endfacet
  facet normal -1.000000e+000  0.000000e+000  0.000000e+000
    outer loop
      vertex  0.000000e+000  1.650000e+001 -3.050000e+001
      vertex  0.000000e+000  1.650000e+001 -5.000000e+001
      vertex  0.000000e+000  1.500000e+001 -4.025000e+001
    endloop
  endfacet
  facet normal -1.000000e+000  0.000000e+000  0.000000e+000
    outer loop
      vertex  0.000000e+000  1.650000e+001 -3.050000e+001
      vertex  0.000000e+000  1.500000e+001 -4.025000e+001
      vertex  0.000000e+000  1.456066e+001 -3.918934e+001
    endloop
  endfacet
  facet normal -9.999999e-001  0.000000e+000  0.000000e+000
    outer loop
      vertex  0.000000e+000  1.650000e+001 -3.050000e+001
      vertex  0.000000e+000  1.456066e+001 -3.918934e+001
      vertex  0.000000e+000  1.350000e+001 -3.875000e+001
    endloop
  endfacet
  facet normal  1.000000e+000  0.000000e+000  0.000000e+000
    outer loop
      vertex  1.200000e+001  1.050000e+001 -3.350000e+001
      vertex  1.200000e+001  1.650000e+001 -3.350000e+001
      vertex  1.200000e+001  1.050000e+001 -3.050000e+001
    endloop
  endfacet
  facet normal  1.000000e+000  -0.000000e+000  0.000000e+000
    outer loop
      vertex  1.200000e+001  1.050000e+001 -3.050000e+001
      vertex  1.200000e+001  1.650000e+001 -3.350000e+001
      vertex  1.200000e+001  1.650000e+001 -3.050000e+001
    endloop
  endfacet
  facet normal  1.000000e+000  0.000000e+000  0.000000e+000
    outer loop
      vertex  1.200000e+001 -1.650000e+001 -3.350000e+001
      vertex  1.200000e+001 -1.050000e+001 -3.350000e+001
      vertex  1.200000e+001 -1.650000e+001 -3.050000e+001
    endloop
  endfacet
  facet normal  1.000000e+000  -0.000000e+000  0.000000e+000
    outer loop
      vertex  1.200000e+001 -1.650000e+001 -3.050000e+001
      vertex  1.200000e+001 -1.050000e+001 -3.350000e+001
      vertex  1.200000e+001 -1.050000e+001 -3.050000e+001
    endloop
  endfacet
  facet normal  0.000000e+000 -1.000000e+000  0.000000e+000
    outer loop
      vertex  0.000000e+000 -1.650000e+001 -5.000000e+001
      vertex  3.000000e+000 -1.650000e+001 -5.000000e+001
      vertex  0.000000e+000 -1.650000e+001 -3.050000e+001
    endloop
  endfacet
  facet normal  0.000000e+000 -1.000000e+000  0.000000e+000
    outer loop
      vertex  0.000000e+000 -1.650000e+001 -3.050000e+001
      vertex  3.000000e+000 -1.650000e+001 -5.000000e+001
      vertex  3.000000e+000 -1.650000e+001 -3.350000e+001
    endloop
  endfacet
  facet normal  0.000000e+000 -1.000000e+000  0.000000e+000
    outer loop
      vertex  0.000000e+000 -1.650000e+001 -3.050000e+001
      vertex  3.000000e+000 -1.650000e+001 -3.350000e+001
      vertex  1.200000e+001 -1.650000e+001 -3.050000e+001
    endloop
  endfacet
  facet normal  0.000000e+000 -1.000000e+000  -0.000000e+000
    outer loop
      vertex  1.200000e+001 -1.650000e+001 -3.050000e+001
      vertex  3.000000e+000 -1.650000e+001 -3.350000e+001
      vertex  1.200000e+001 -1.650000e+001 -3.350000e+001
    endloop
  endfacet
  facet normal  0.000000e+000  0.000000e+000  1.000000e+000
    outer loop
      vertex  1.200000e+001 -1.650000e+001 -3.050000e+001
      vertex  1.200000e+001 -1.050000e+001 -3.050000e+001
      vertex  0.000000e+000 -1.650000e+001 -3.050000e+001
    endloop
  endfacet
  facet normal  0.000000e+000  0.000000e+000  1.000000e+000
    outer loop
      vertex  0.000000e+000 -1.650000e+001 -3.050000e+001
      vertex  1.200000e+001 -1.050000e+001 -3.050000e+001
      vertex  0.000000e+000 -1.050000e+001 -3.050000e+001
    endloop
  endfacet
  facet normal  0.000000e+000  1.000000e+000  0.000000e+000
    outer loop
      vertex  0.000000e+000 -1.050000e+001 -4.400000e+001
      vertex  0.000000e+000 -1.050000e+001 -3.050000e+001
      vertex  3.000000e+000 -1.050000e+001 -4.400000e+001
    endloop
  endfacet
  facet normal  0.000000e+000  1.000000e+000  -0.000000e+000
    outer loop
      vertex  3.000000e+000 -1.050000e+001 -4.400000e+001
      vertex  0.000000e+000 -1.050000e+001 -3.050000e+001
      vertex  3.000000e+000 -1.050000e+001 -3.350000e+001
    endloop
  endfacet
  facet normal  0.000000e+000  1.000000e+000  0.000000e+000
    outer loop
      vertex  0.000000e+000 -1.050000e+001 -3.050000e+001
      vertex  1.200000e+001 -1.050000e+001 -3.050000e+001
      vertex  3.000000e+000 -1.050000e+001 -3.350000e+001
    endloop
  endfacet
  facet normal  0.000000e+000  1.000000e+000  0.000000e+000
    outer loop
      vertex  3.000000e+000 -1.050000e+001 -3.350000e+001
      vertex  1.200000e+001 -1.050000e+001 -3.050000e+001
      vertex  1.200000e+001 -1.050000e+001 -3.350000e+001
    endloop
  endfacet
  facet normal  0.000000e+000 -1.000000e+000  0.000000e+000
    outer loop
      vertex  1.200000e+001  1.050000e+001 -3.050000e+001
      vertex  0.000000e+000  1.050000e+001 -3.050000e+001
      vertex  1.200000e+001  1.050000e+001 -3.350000e+001
    endloop
  endfacet
  facet normal  0.000000e+000 -1.000000e+000  0.000000e+000
    outer loop
      vertex  1.200000e+001  1.050000e+001 -3.350000e+001
      vertex  0.000000e+000  1.050000e+001 -3.050000e+001
      vertex  3.000000e+000  1.050000e+001 -3.350000e+001
    endloop
  endfacet
  facet normal  0.000000e+000 -1.000000e+000  0.000000e+000
    outer loop
      vertex  0.000000e+000  1.050000e+001 -3.050000e+001
      vertex  0.000000e+000  1.050000e+001 -4.400000e+001
      vertex  3.000000e+000  1.050000e+001 -3.350000e+001
    endloop
  endfacet
  facet normal  0.000000e+000 -1.000000e+000  -0.000000e+000
    outer loop
      vertex  3.000000e+000  1.050000e+001 -3.350000e+001
      vertex  0.000000e+000  1.050000e+001 -4.400000e+001
      vertex  3.000000e+000  1.050000e+001 -4.400000e+001
    endloop
  endfacet
  facet normal  0.000000e+000  0.000000e+000  1.000000e+000
    outer loop
      vertex  1.200000e+001  1.050000e+001 -3.050000e+001
      vertex  1.200000e+001  1.650000e+001 -3.050000e+001
      vertex  0.000000e+000  1.050000e+001 -3.050000e+001
    endloop
  endfacet
  facet normal  0.000000e+000  0.000000e+000  1.000000e+000
    outer loop
      vertex  0.000000e+000  1.050000e+001 -3.050000e+001
      vertex  1.200000e+001  1.650000e+001 -3.050000e+001
      vertex  0.000000e+000  1.650000e+001 -3.050000e+001
    endloop
  endfacet
  facet normal  0.000000e+000  1.000000e+000  -0.000000e+000
    outer loop
      vertex  1.200000e+001  1.650000e+001 -3.050000e+001
      vertex  1.200000e+001  1.650000e+001 -3.350000e+001
      vertex  0.000000e+000  1.650000e+001 -3.050000e+001
    endloop
  endfacet
  facet normal  0.000000e+000  1.000000e+000  0.000000e+000
    outer loop
      vertex  0.000000e+000  1.650000e+001 -3.050000e+001
      vertex  1.200000e+001  1.650000e+001 -3.350000e+001
      vertex  3.000000e+000  1.650000e+001 -3.350000e+001
    endloop
  endfacet
  facet normal  0.000000e+000  1.000000e+000  0.000000e+000
    outer loop
      vertex  0.000000e+000  1.650000e+001 -3.050000e+001
      vertex  3.000000e+000  1.650000e+001 -3.350000e+001
      vertex  0.000000e+000  1.650000e+001 -5.000000e+001
    endloop
  endfacet
  facet normal  0.000000e+000  1.000000e+000  0.000000e+000
    outer loop
      vertex  0.000000e+000  1.650000e+001 -5.000000e+001
      vertex  3.000000e+000  1.650000e+001 -3.350000e+001
      vertex  3.000000e+000  1.650000e+001 -5.000000e+001
    endloop
  endfacet
  facet normal  0.000000e+000  0.000000e+000 -1.000000e+000
    outer loop
      vertex  1.200000e+001  1.650000e+001 -3.350000e+001
      vertex  1.200000e+001  1.050000e+001 -3.350000e+001
      vertex  3.000000e+000  1.650000e+001 -3.350000e+001
    endloop
  endfacet
  facet normal  0.000000e+000  0.000000e+000 -1.000000e+000
    outer loop
      vertex  3.000000e+000  1.650000e+001 -3.350000e+001
      vertex  1.200000e+001  1.050000e+001 -3.350000e+001
      vertex  3.000000e+000  1.050000e+001 -3.350000e+001
    endloop
  endfacet
  facet normal  0.000000e+000  0.000000e+000 -1.000000e+000
    outer loop
      vertex  1.200000e+001 -1.050000e+001 -3.350000e+001
      vertex  1.200000e+001 -1.650000e+001 -3.350000e+001
      vertex  3.000000e+000 -1.050000e+001 -3.350000e+001
    endloop
  endfacet
  facet normal  0.000000e+000  0.000000e+000 -1.000000e+000
    outer loop
      vertex  3.000000e+000 -1.050000e+001 -3.350000e+001
      vertex  1.200000e+001 -1.650000e+001 -3.350000e+001
      vertex  3.000000e+000 -1.650000e+001 -3.350000e+001
    endloop
  endfacet
  facet normal  9.999999e-001  0.000000e+000  0.000000e+000
    outer loop
      vertex  3.000000e+000  1.650000e+001 -5.000000e+001
      vertex  3.000000e+000  1.456066e+001 -4.131066e+001
      vertex  3.000000e+000  1.350000e+001 -4.175000e+001
    endloop
  endfacet
  facet normal  1.000000e+000  0.000000e+000  0.000000e+000
    outer loop
      vertex  3.000000e+000  1.650000e+001 -5.000000e+001
      vertex  3.000000e+000  1.500000e+001 -4.025000e+001
      vertex  3.000000e+000  1.456066e+001 -4.131066e+001
    endloop
  endfacet
  facet normal  9.999999e-001  0.000000e+000  0.000000e+000
    outer loop
      vertex  3.000000e+000 -1.650000e+001 -5.000000e+001
      vertex  3.000000e+000 -1.350000e+001 -4.175000e+001
      vertex  3.000000e+000 -1.456066e+001 -4.131066e+001
    endloop
  endfacet
  facet normal  1.000000e+000  0.000000e+000  0.000000e+000
    outer loop
      vertex  3.000000e+000 -1.650000e+001 -5.000000e+001
      vertex  3.000000e+000 -1.456066e+001 -4.131066e+001
      vertex  3.000000e+000 -1.500000e+001 -4.025000e+001
    endloop
  endfacet
  facet normal  1.000000e+000  0.000000e+000  0.000000e+000
    outer loop
      vertex  3.000000e+000 -1.650000e+001 -5.000000e+001
      vertex  3.000000e+000 -1.500000e+001 -4.025000e+001
      vertex  3.000000e+000 -1.650000e+001 -3.350000e+001
    endloop
  endfacet
  facet normal  1.000000e+000  0.000000e+000  0.000000e+000
    outer loop
      vertex  3.000000e+000 -1.050000e+001 -4.400000e+001
      vertex  3.000000e+000 -1.200000e+001 -4.025000e+001
      vertex  3.000000e+000 -1.243934e+001 -4.131066e+001
    endloop
  endfacet
  facet normal  1.000000e+000  0.000000e+000  0.000000e+000
    outer loop
      vertex  3.000000e+000 -1.050000e+001 -4.400000e+001
      vertex  3.000000e+000 -1.243934e+001 -4.131066e+001
      vertex  3.000000e+000 -1.350000e+001 -4.175000e+001
    endloop
  endfacet
  facet normal  1.000000e+000  0.000000e+000  0.000000e+000
    outer loop
      vertex  3.000000e+000 -1.050000e+001 -4.400000e+001
      vertex  3.000000e+000 -1.350000e+001 -4.175000e+001
      vertex  3.000000e+000 -1.650000e+001 -5.000000e+001
    endloop
  endfacet
  facet normal  1.000000e+000  0.000000e+000  0.000000e+000
    outer loop
      vertex  3.000000e+000 -1.050000e+001 -4.400000e+001
      vertex  3.000000e+000 -1.650000e+001 -5.000000e+001
      vertex  3.000000e+000  1.650000e+001 -5.000000e+001
    endloop
  endfacet
  facet normal  1.000000e+000  0.000000e+000  0.000000e+000
    outer loop
      vertex  3.000000e+000 -1.050000e+001 -4.400000e+001
      vertex  3.000000e+000  1.650000e+001 -5.000000e+001
      vertex  3.000000e+000  1.050000e+001 -4.400000e+001
    endloop
  endfacet
  facet normal  1.000000e+000  0.000000e+000  0.000000e+000
    outer loop
      vertex  3.000000e+000  1.050000e+001 -4.400000e+001
      vertex  3.000000e+000  1.650000e+001 -5.000000e+001
      vertex  3.000000e+000  1.350000e+001 -4.175000e+001
    endloop
  endfacet
  facet normal  1.000000e+000  0.000000e+000  0.000000e+000
    outer loop
      vertex  3.000000e+000  1.050000e+001 -4.400000e+001
      vertex  3.000000e+000  1.350000e+001 -4.175000e+001
      vertex  3.000000e+000  1.243934e+001 -4.131066e+001
    endloop
  endfacet
  facet normal  1.000000e+000  0.000000e+000  0.000000e+000
    outer loop
      vertex  3.000000e+000  1.050000e+001 -4.400000e+001
      vertex  3.000000e+000  1.243934e+001 -4.131066e+001
      vertex  3.000000e+000  1.200000e+001 -4.025000e+001
    endloop
  endfacet
  facet normal  1.000000e+000  0.000000e+000  0.000000e+000
    outer loop
      vertex  3.000000e+000  1.050000e+001 -4.400000e+001
      vertex  3.000000e+000  1.200000e+001 -4.025000e+001
      vertex  3.000000e+000  1.050000e+001 -3.350000e+001
    endloop
  endfacet
  facet normal  1.000000e+000  0.000000e+000  -0.000000e+000
    outer loop
      vertex  3.000000e+000  1.050000e+001 -3.350000e+001
      vertex  3.000000e+000  1.200000e+001 -4.025000e+001
      vertex  3.000000e+000  1.243934e+001 -3.918934e+001
    endloop
  endfacet
  facet normal  9.999999e-001  0.000000e+000  -0.000000e+000
    outer loop
      vertex  3.000000e+000  1.050000e+001 -3.350000e+001
      vertex  3.000000e+000  1.243934e+001 -3.918934e+001
      vertex  3.000000e+000  1.350000e+001 -3.875000e+001
    endloop
  endfacet
  facet normal  1.000000e+000  0.000000e+000  -0.000000e+000
    outer loop
      vertex  3.000000e+000  1.050000e+001 -3.350000e+001
      vertex  3.000000e+000  1.350000e+001 -3.875000e+001
      vertex  3.000000e+000  1.650000e+001 -3.350000e+001
    endloop
  endfacet
  facet normal  1.000000e+000  0.000000e+000  -0.000000e+000
    outer loop
      vertex  3.000000e+000 -1.650000e+001 -3.350000e+001
      vertex  3.000000e+000 -1.500000e+001 -4.025000e+001
      vertex  3.000000e+000 -1.456066e+001 -3.918934e+001
    endloop
  endfacet
  facet normal  9.999999e-001  0.000000e+000  -0.000000e+000
    outer loop
      vertex  3.000000e+000 -1.650000e+001 -3.350000e+001
      vertex  3.000000e+000 -1.456066e+001 -3.918934e+001
      vertex  3.000000e+000 -1.350000e+001 -3.875000e+001
    endloop
  endfacet
  facet normal  1.000000e+000  0.000000e+000  -0.000000e+000
    outer loop
      vertex  3.000000e+000 -1.650000e+001 -3.350000e+001
      vertex  3.000000e+000 -1.350000e+001 -3.875000e+001
      vertex  3.000000e+000 -1.050000e+001 -3.350000e+001
    endloop
  endfacet
  facet normal  9.999999e-001  -0.000000e+000  0.000000e+000
    outer loop
      vertex  3.000000e+000 -1.050000e+001 -3.350000e+001
      vertex  3.000000e+000 -1.350000e+001 -3.875000e+001
      vertex  3.000000e+000 -1.243934e+001 -3.918934e+001
    endloop
  endfacet
  facet normal  1.000000e+000  -0.000000e+000  0.000000e+000
    outer loop
      vertex  3.000000e+000 -1.050000e+001 -3.350000e+001
      vertex  3.000000e+000 -1.243934e+001 -3.918934e+001
      vertex  3.000000e+000 -1.200000e+001 -4.025000e+001
    endloop
  endfacet
  facet normal  1.000000e+000  -0.000000e+000  0.000000e+000
    outer loop
      vertex  3.000000e+000 -1.050000e+001 -3.350000e+001
      vertex  3.000000e+000 -1.200000e+001 -4.025000e+001
      vertex  3.000000e+000 -1.050000e+001 -4.400000e+001
    endloop
  endfacet
  facet normal  9.999999e-001  -0.000000e+000  0.000000e+000
    outer loop
      vertex  3.000000e+000  1.650000e+001 -3.350000e+001
      vertex  3.000000e+000  1.350000e+001 -3.875000e+001
      vertex  3.000000e+000  1.456066e+001 -3.918934e+001
    endloop
  endfacet
  facet normal  1.000000e+000  -0.000000e+000  0.000000e+000
    outer loop
      vertex  3.000000e+000  1.650000e+001 -3.350000e+001
      vertex  3.000000e+000  1.456066e+001 -3.918934e+001
      vertex  3.000000e+000  1.500000e+001 -4.025000e+001
    endloop
  endfacet
  facet normal  1.000000e+000  -0.000000e+000  0.000000e+000
    outer loop
      vertex  3.000000e+000  1.650000e+001 -3.350000e+001
      vertex  3.000000e+000  1.500000e+001 -4.025000e+001
      vertex  3.000000e+000  1.650000e+001 -5.000000e+001
    endloop
  endfacet
  facet normal  0.000000e+000 -3.826825e-001  9.238799e-001
    outer loop
      vertex  0.000000e+000  1.350000e+001 -4.175000e+001
      vertex  3.000000e+000  1.456066e+001 -4.131066e+001
      vertex  0.000000e+000  1.456066e+001 -4.131066e+001
    endloop
  endfacet
  facet normal  0.000000e+000 -9.238797e-001  3.826829e-001
    outer loop
      vertex  0.000000e+000  1.456066e+001 -4.131066e+001
      vertex  3.000000e+000  1.456066e+001 -4.131066e+001
      vertex  3.000000e+000  1.500000e+001 -4.025000e+001
    endloop
  endfacet
  facet normal  0.000000e+000 -9.238797e-001  3.826829e-001
    outer loop
      vertex  0.000000e+000  1.456066e+001 -4.131066e+001
      vertex  3.000000e+000  1.500000e+001 -4.025000e+001
      vertex  0.000000e+000  1.500000e+001 -4.025000e+001
    endloop
  endfacet
  facet normal  0.000000e+000 -3.826825e-001  9.238799e-001
    outer loop
      vertex  3.000000e+000  1.456066e+001 -4.131066e+001
      vertex  0.000000e+000  1.350000e+001 -4.175000e+001
      vertex  3.000000e+000  1.350000e+001 -4.175000e+001
    endloop
  endfacet
  facet normal  0.000000e+000  3.826825e-001  9.238799e-001
    outer loop
      vertex  3.000000e+000  1.350000e+001 -4.175000e+001
      vertex  0.000000e+000  1.350000e+001 -4.175000e+001
      vertex  0.000000e+000  1.243934e+001 -4.131066e+001
    endloop
  endfacet
  facet normal  -0.000000e+000  3.826825e-001  9.238799e-001
    outer loop
      vertex  3.000000e+000  1.350000e+001 -4.175000e+001
      vertex  0.000000e+000  1.243934e+001 -4.131066e+001
      vertex  3.000000e+000  1.243934e+001 -4.131066e+001
    endloop
  endfacet
  facet normal  0.000000e+000  9.238797e-001  3.826829e-001
    outer loop
      vertex  3.000000e+000  1.243934e+001 -4.131066e+001
      vertex  0.000000e+000  1.243934e+001 -4.131066e+001
      vertex  0.000000e+000  1.200000e+001 -4.025000e+001
    endloop
  endfacet
  facet normal  -0.000000e+000  9.238797e-001  3.826829e-001
    outer loop
      vertex  3.000000e+000  1.243934e+001 -4.131066e+001
      vertex  0.000000e+000  1.200000e+001 -4.025000e+001
      vertex  3.000000e+000  1.200000e+001 -4.025000e+001
    endloop
  endfacet
  facet normal  0.000000e+000  3.826825e-001 -9.238799e-001
    outer loop
      vertex  0.000000e+000  1.350000e+001 -3.875000e+001
      vertex  3.000000e+000  1.243934e+001 -3.918934e+001
      vertex  0.000000e+000  1.243934e+001 -3.918934e+001
    endloop
  endfacet
  facet normal  0.000000e+000  9.238797e-001 -3.826829e-001
    outer loop
      vertex  0.000000e+000  1.243934e+001 -3.918934e+001
      vertex  3.000000e+000  1.243934e+001 -3.918934e+001
      vertex  3.000000e+000  1.200000e+001 -4.025000e+001
    endloop
  endfacet
  facet normal  0.000000e+000  9.238797e-001 -3.826829e-001
    outer loop
      vertex  0.000000e+000  1.243934e+001 -3.918934e+001
      vertex  3.000000e+000  1.200000e+001 -4.025000e+001
      vertex  0.000000e+000  1.200000e+001 -4.025000e+001
    endloop
  endfacet
  facet normal  0.000000e+000  3.826825e-001 -9.238799e-001
    outer loop
      vertex  3.000000e+000  1.243934e+001 -3.918934e+001
      vertex  0.000000e+000  1.350000e+001 -3.875000e+001
      vertex  3.000000e+000  1.350000e+001 -3.875000e+001
    endloop
  endfacet
  facet normal  -0.000000e+000 -3.826825e-001 -9.238799e-001
    outer loop
      vertex  3.000000e+000  1.350000e+001 -3.875000e+001
      vertex  0.000000e+000  1.350000e+001 -3.875000e+001
      vertex  0.000000e+000  1.456066e+001 -3.918934e+001
    endloop
  endfacet
  facet normal  0.000000e+000 -3.826825e-001 -9.238799e-001
    outer loop
      vertex  3.000000e+000  1.350000e+001 -3.875000e+001
      vertex  0.000000e+000  1.456066e+001 -3.918934e+001
      vertex  3.000000e+000  1.456066e+001 -3.918934e+001
    endloop
  endfacet
  facet normal  -0.000000e+000 -9.238797e-001 -3.826829e-001
    outer loop
      vertex  3.000000e+000  1.456066e+001 -3.918934e+001
      vertex  0.000000e+000  1.456066e+001 -3.918934e+001
      vertex  0.000000e+000  1.500000e+001 -4.025000e+001
    endloop
  endfacet
  facet normal  0.000000e+000 -9.238797e-001 -3.826829e-001
    outer loop
      vertex  3.000000e+000  1.456066e+001 -3.918934e+001
      vertex  0.000000e+000  1.500000e+001 -4.025000e+001
      vertex  3.000000e+000  1.500000e+001 -4.025000e+001
    endloop
  endfacet
  facet normal  0.000000e+000 -3.826825e-001  9.238799e-001
    outer loop
      vertex  0.000000e+000 -1.350000e+001 -4.175000e+001
      vertex  3.000000e+000 -1.243934e+001 -4.131066e+001
      vertex  0.000000e+000 -1.243934e+001 -4.131066e+001
    endloop
  endfacet
  facet normal  0.000000e+000 -9.238797e-001  3.826829e-001
    outer loop
      vertex  0.000000e+000 -1.243934e+001 -4.131066e+001
      vertex  3.000000e+000 -1.243934e+001 -4.131066e+001
      vertex  3.000000e+000 -1.200000e+001 -4.025000e+001
    endloop
  endfacet
  facet normal  0.000000e+000 -9.238797e-001  3.826829e-001
    outer loop
      vertex  0.000000e+000 -1.243934e+001 -4.131066e+001
      vertex  3.000000e+000 -1.200000e+001 -4.025000e+001
      vertex  0.000000e+000 -1.200000e+001 -4.025000e+001
    endloop
  endfacet
  facet normal  0.000000e+000 -3.826825e-001  9.238799e-001
    outer loop
      vertex  3.000000e+000 -1.243934e+001 -4.131066e+001
      vertex  0.000000e+000 -1.350000e+001 -4.175000e+001
      vertex  3.000000e+000 -1.350000e+001 -4.175000e+001
    endloop
  endfacet
  facet normal  0.000000e+000  3.826825e-001  9.238799e-001
    outer loop
      vertex  3.000000e+000 -1.350000e+001 -4.175000e+001
      vertex  0.000000e+000 -1.350000e+001 -4.175000e+001
      vertex  0.000000e+000 -1.456066e+001 -4.131066e+001
    endloop
  endfacet
  facet normal  -0.000000e+000  3.826825e-001  9.238799e-001
    outer loop
      vertex  3.000000e+000 -1.350000e+001 -4.175000e+001
      vertex  0.000000e+000 -1.456066e+001 -4.131066e+001
      vertex  3.000000e+000 -1.456066e+001 -4.131066e+001
    endloop
  endfacet
  facet normal  0.000000e+000  9.238797e-001  3.826829e-001
    outer loop
      vertex  3.000000e+000 -1.456066e+001 -4.131066e+001
      vertex  0.000000e+000 -1.456066e+001 -4.131066e+001
      vertex  0.000000e+000 -1.500000e+001 -4.025000e+001
    endloop
  endfacet
  facet normal  -0.000000e+000  9.238797e-001  3.826829e-001
    outer loop
      vertex  3.000000e+000 -1.456066e+001 -4.131066e+001
      vertex  0.000000e+000 -1.500000e+001 -4.025000e+001
      vertex  3.000000e+000 -1.500000e+001 -4.025000e+001
    endloop
  endfacet
  facet normal  0.000000e+000  3.826825e-001 -9.238799e-001
    outer loop
      vertex  0.000000e+000 -1.350000e+001 -3.875000e+001
      vertex  3.000000e+000 -1.456066e+001 -3.918934e+001
      vertex  0.000000e+000 -1.456066e+001 -3.918934e+001
    endloop
  endfacet
  facet normal  0.000000e+000  9.238797e-001 -3.826829e-001
    outer loop
      vertex  0.000000e+000 -1.456066e+001 -3.918934e+001
      vertex  3.000000e+000 -1.456066e+001 -3.918934e+001
      vertex  3.000000e+000 -1.500000e+001 -4.025000e+001
    endloop
  endfacet
  facet normal  0.000000e+000  9.238797e-001 -3.826829e-001
    outer loop
      vertex  0.000000e+000 -1.456066e+001 -3.918934e+001
      vertex  3.000000e+000 -1.500000e+001 -4.025000e+001
      vertex  0.000000e+000 -1.500000e+001 -4.025000e+001
    endloop
  endfacet
  facet normal  0.000000e+000  3.826825e-001 -9.238799e-001
    outer loop
      vertex  3.000000e+000 -1.456066e+001 -3.918934e+001
      vertex  0.000000e+000 -1.350000e+001 -3.875000e+001
      vertex  3.000000e+000 -1.350000e+001 -3.875000e+001
    endloop
  endfacet
  facet normal  -0.000000e+000 -3.826825e-001 -9.238799e-001
    outer loop
      vertex  3.000000e+000 -1.350000e+001 -3.875000e+001
      vertex  0.000000e+000 -1.350000e+001 -3.875000e+001
      vertex  0.000000e+000 -1.243934e+001 -3.918934e+001
    endloop
  endfacet
  facet normal  0.000000e+000 -3.826825e-001 -9.238799e-001
    outer loop
      vertex  3.000000e+000 -1.350000e+001 -3.875000e+001
      vertex  0.000000e+000 -1.243934e+001 -3.918934e+001
      vertex  3.000000e+000 -1.243934e+001 -3.918934e+001
    endloop
  endfacet
  facet normal  -0.000000e+000 -9.238797e-001 -3.826829e-001
    outer loop
      vertex  3.000000e+000 -1.243934e+001 -3.918934e+001
      vertex  0.000000e+000 -1.243934e+001 -3.918934e+001
      vertex  0.000000e+000 -1.200000e+001 -4.025000e+001
    endloop
  endfacet
  facet normal  0.000000e+000 -9.238797e-001 -3.826829e-001
    outer loop
      vertex  3.000000e+000 -1.243934e+001 -3.918934e+001
      vertex  0.000000e+000 -1.200000e+001 -4.025000e+001
      vertex  3.000000e+000 -1.200000e+001 -4.025000e+001
    endloop
  endfacet
  facet normal  -0.000000e+000  0.000000e+000  1.000000e+000
    outer loop
      vertex  3.000000e+000  1.050000e+001 -4.400000e+001
      vertex  0.000000e+000  1.050000e+001 -4.400000e+001
      vertex  3.000000e+000 -1.050000e+001 -4.400000e+001
    endloop
  endfacet
  facet normal  0.000000e+000  0.000000e+000  1.000000e+000
    outer loop
      vertex  3.000000e+000 -1.050000e+001 -4.400000e+001
      vertex  0.000000e+000  1.050000e+001 -4.400000e+001
      vertex  0.000000e+000 -1.050000e+001 -4.400000e+001
    endloop
  endfacet
  facet normal  0.000000e+000  0.000000e+000 -1.000000e+000
    outer loop
      vertex  3.000000e+000  1.650000e+001 -5.000000e+001
      vertex  3.000000e+000 -1.650000e+001 -5.000000e+001
      vertex  0.000000e+000  1.650000e+001 -5.000000e+001
    endloop
  endfacet
  facet normal  0.000000e+000  0.000000e+000 -1.000000e+000
    outer loop
      vertex  0.000000e+000  1.650000e+001 -5.000000e+001
      vertex  3.000000e+000 -1.650000e+001 -5.000000e+001
      vertex  0.000000e+000 -1.650000e+001 -5.000000e+001
    endloop
  endfacet
endsolid CATIA STL
