solid CATIA STL
  facet normal -9.510565e-001 -2.024160e-016  3.090171e-001
    outer loop
      vertex -2.950000e+000  0.000000e+000  1.671334e-015
      vertex -2.950000e+000 -2.000000e+000  3.612708e-016
      vertex -2.386600e+000  0.000000e+000  1.733966e+000
    endloop
  endfacet
  facet normal -9.510565e-001  0.000000e+000  3.090171e-001
    outer loop
      vertex -2.386600e+000  0.000000e+000  1.733966e+000
      vertex -2.950000e+000 -2.000000e+000  3.612708e-016
      vertex -2.386600e+000 -2.000000e+000  1.733966e+000
    endloop
  endfacet
  facet normal -5.877853e-001  0.000000e+000  8.090171e-001
    outer loop
      vertex -2.386600e+000  0.000000e+000  1.733966e+000
      vertex -2.386600e+000 -2.000000e+000  1.733966e+000
      vertex -9.116001e-001  0.000000e+000  2.805617e+000
    endloop
  endfacet
  facet normal -5.877853e-001  0.000000e+000  8.090171e-001
    outer loop
      vertex -9.116001e-001  0.000000e+000  2.805617e+000
      vertex -2.386600e+000 -2.000000e+000  1.733966e+000
      vertex -9.116001e-001 -2.000000e+000  2.805617e+000
    endloop
  endfacet
  facet normal  0.000000e+000  0.000000e+000  1.000000e+000
    outer loop
      vertex -9.116001e-001  0.000000e+000  2.805617e+000
      vertex -9.116001e-001 -2.000000e+000  2.805617e+000
      vertex  9.116001e-001  0.000000e+000  2.805617e+000
    endloop
  endfacet
  facet normal  0.000000e+000  0.000000e+000  1.000000e+000
    outer loop
      vertex  9.116001e-001  0.000000e+000  2.805617e+000
      vertex -9.116001e-001 -2.000000e+000  2.805617e+000
      vertex  9.116001e-001 -2.000000e+000  2.805617e+000
    endloop
  endfacet
  facet normal  5.877853e-001  -0.000000e+000  8.090171e-001
    outer loop
      vertex  9.116001e-001  0.000000e+000  2.805617e+000
      vertex  9.116001e-001 -2.000000e+000  2.805617e+000
      vertex  2.386600e+000  0.000000e+000  1.733966e+000
    endloop
  endfacet
  facet normal  5.877853e-001  0.000000e+000  8.090171e-001
    outer loop
      vertex  2.386600e+000  0.000000e+000  1.733966e+000
      vertex  9.116001e-001 -2.000000e+000  2.805617e+000
      vertex  2.386600e+000 -2.000000e+000  1.733966e+000
    endloop
  endfacet
  facet normal  9.510565e-001  -0.000000e+000  3.090171e-001
    outer loop
      vertex  2.386600e+000  0.000000e+000  1.733966e+000
      vertex  2.386600e+000 -2.000000e+000  1.733966e+000
      vertex  2.950000e+000  0.000000e+000  0.000000e+000
    endloop
  endfacet
  facet normal  9.510565e-001  0.000000e+000  3.090171e-001
    outer loop
      vertex  2.950000e+000  0.000000e+000  0.000000e+000
      vertex  2.386600e+000 -2.000000e+000  1.733966e+000
      vertex  2.950000e+000 -2.000000e+000  0.000000e+000
    endloop
  endfacet
  facet normal  9.510565e-001  0.000000e+000 -3.090171e-001
    outer loop
      vertex  2.950000e+000  0.000000e+000  0.000000e+000
      vertex  2.950000e+000 -2.000000e+000  0.000000e+000
      vertex  2.386600e+000  0.000000e+000 -1.733966e+000
    endloop
  endfacet
  facet normal  9.510565e-001  0.000000e+000 -3.090171e-001
    outer loop
      vertex  2.386600e+000  0.000000e+000 -1.733966e+000
      vertex  2.950000e+000 -2.000000e+000  0.000000e+000
      vertex  2.386600e+000 -2.000000e+000 -1.733966e+000
    endloop
  endfacet
  facet normal  5.877853e-001  0.000000e+000 -8.090171e-001
    outer loop
      vertex  2.386600e+000  0.000000e+000 -1.733966e+000
      vertex  2.386600e+000 -2.000000e+000 -1.733966e+000
      vertex  9.116001e-001  0.000000e+000 -2.805617e+000
    endloop
  endfacet
  facet normal  5.877853e-001  0.000000e+000 -8.090171e-001
    outer loop
      vertex  9.116001e-001  0.000000e+000 -2.805617e+000
      vertex  2.386600e+000 -2.000000e+000 -1.733966e+000
      vertex  9.116001e-001 -2.000000e+000 -2.805617e+000
    endloop
  endfacet
  facet normal  0.000000e+000  0.000000e+000 -1.000000e+000
    outer loop
      vertex  9.116001e-001  0.000000e+000 -2.805617e+000
      vertex  9.116001e-001 -2.000000e+000 -2.805617e+000
      vertex -9.116001e-001  0.000000e+000 -2.805617e+000
    endloop
  endfacet
  facet normal  0.000000e+000  0.000000e+000 -1.000000e+000
    outer loop
      vertex -9.116001e-001  0.000000e+000 -2.805617e+000
      vertex  9.116001e-001 -2.000000e+000 -2.805617e+000
      vertex -9.116001e-001 -2.000000e+000 -2.805617e+000
    endloop
  endfacet
  facet normal -5.877853e-001  0.000000e+000 -8.090171e-001
    outer loop
      vertex -9.116001e-001  0.000000e+000 -2.805617e+000
      vertex -9.116001e-001 -2.000000e+000 -2.805617e+000
      vertex -2.386600e+000  0.000000e+000 -1.733966e+000
    endloop
  endfacet
  facet normal -5.877853e-001  -0.000000e+000 -8.090171e-001
    outer loop
      vertex -2.386600e+000  0.000000e+000 -1.733966e+000
      vertex -9.116001e-001 -2.000000e+000 -2.805617e+000
      vertex -2.386600e+000 -2.000000e+000 -1.733966e+000
    endloop
  endfacet
  facet normal -9.510565e-001  0.000000e+000 -3.090171e-001
    outer loop
      vertex -2.386600e+000  0.000000e+000 -1.733966e+000
      vertex -2.386600e+000 -2.000000e+000 -1.733966e+000
      vertex -2.950000e+000  0.000000e+000  1.671334e-015
    endloop
  endfacet
  facet normal -9.510565e-001  2.024160e-016 -3.090171e-001
    outer loop
      vertex -2.950000e+000  0.000000e+000  1.671334e-015
      vertex -2.386600e+000 -2.000000e+000 -1.733966e+000
      vertex -2.950000e+000 -2.000000e+000  3.612708e-016
    endloop
  endfacet
  facet normal  3.826835e-001  0.000000e+000 -9.238796e-001
    outer loop
      vertex  1.224647e-016  6.000000e+000  2.000000e+000
      vertex -1.414214e+000 -2.000000e+000  1.414214e+000
      vertex -1.414214e+000  6.000000e+000  1.414214e+000
    endloop
  endfacet
  facet normal  9.238796e-001  0.000000e+000 -3.826835e-001
    outer loop
      vertex -1.414214e+000  6.000000e+000  1.414214e+000
      vertex -1.414214e+000 -2.000000e+000  1.414214e+000
      vertex -2.000000e+000 -2.000000e+000  2.449294e-016
    endloop
  endfacet
  facet normal  9.238796e-001  0.000000e+000 -3.826835e-001
    outer loop
      vertex -1.414214e+000  6.000000e+000  1.414214e+000
      vertex -2.000000e+000 -2.000000e+000  2.449294e-016
      vertex -2.000000e+000  6.000000e+000  2.449294e-016
    endloop
  endfacet
  facet normal  3.826835e-001  0.000000e+000 -9.238796e-001
    outer loop
      vertex -1.414214e+000 -2.000000e+000  1.414214e+000
      vertex  1.224647e-016  6.000000e+000  2.000000e+000
      vertex  1.224647e-016 -2.000000e+000  2.000000e+000
    endloop
  endfacet
  facet normal -3.826835e-001  0.000000e+000 -9.238796e-001
    outer loop
      vertex  1.224647e-016 -2.000000e+000  2.000000e+000
      vertex  1.224647e-016  6.000000e+000  2.000000e+000
      vertex  1.414214e+000  6.000000e+000  1.414214e+000
    endloop
  endfacet
  facet normal -3.826835e-001  -0.000000e+000 -9.238796e-001
    outer loop
      vertex  1.224647e-016 -2.000000e+000  2.000000e+000
      vertex  1.414214e+000  6.000000e+000  1.414214e+000
      vertex  1.414214e+000 -2.000000e+000  1.414214e+000
    endloop
  endfacet
  facet normal -9.238796e-001  0.000000e+000 -3.826835e-001
    outer loop
      vertex  1.414214e+000 -2.000000e+000  1.414214e+000
      vertex  1.414214e+000  6.000000e+000  1.414214e+000
      vertex  2.000000e+000  6.000000e+000  0.000000e+000
    endloop
  endfacet
  facet normal -9.238796e-001  -0.000000e+000 -3.826835e-001
    outer loop
      vertex  1.414214e+000 -2.000000e+000  1.414214e+000
      vertex  2.000000e+000  6.000000e+000  0.000000e+000
      vertex  2.000000e+000 -2.000000e+000  0.000000e+000
    endloop
  endfacet
  facet normal -3.826835e-001  0.000000e+000  9.238796e-001
    outer loop
      vertex -3.673940e-016  6.000000e+000 -2.000000e+000
      vertex  1.414214e+000 -2.000000e+000 -1.414214e+000
      vertex  1.414214e+000  6.000000e+000 -1.414214e+000
    endloop
  endfacet
  facet normal -9.238796e-001  0.000000e+000  3.826835e-001
    outer loop
      vertex  1.414214e+000  6.000000e+000 -1.414214e+000
      vertex  1.414214e+000 -2.000000e+000 -1.414214e+000
      vertex  2.000000e+000 -2.000000e+000  0.000000e+000
    endloop
  endfacet
  facet normal -9.238796e-001  0.000000e+000  3.826835e-001
    outer loop
      vertex  1.414214e+000  6.000000e+000 -1.414214e+000
      vertex  2.000000e+000 -2.000000e+000  0.000000e+000
      vertex  2.000000e+000  6.000000e+000  0.000000e+000
    endloop
  endfacet
  facet normal -3.826835e-001  0.000000e+000  9.238796e-001
    outer loop
      vertex  1.414214e+000 -2.000000e+000 -1.414214e+000
      vertex -3.673940e-016  6.000000e+000 -2.000000e+000
      vertex -3.673940e-016 -2.000000e+000 -2.000000e+000
    endloop
  endfacet
  facet normal  3.826835e-001  -0.000000e+000  9.238796e-001
    outer loop
      vertex -3.673940e-016 -2.000000e+000 -2.000000e+000
      vertex -3.673940e-016  6.000000e+000 -2.000000e+000
      vertex -1.414214e+000  6.000000e+000 -1.414214e+000
    endloop
  endfacet
  facet normal  3.826835e-001  0.000000e+000  9.238796e-001
    outer loop
      vertex -3.673940e-016 -2.000000e+000 -2.000000e+000
      vertex -1.414214e+000  6.000000e+000 -1.414214e+000
      vertex -1.414214e+000 -2.000000e+000 -1.414214e+000
    endloop
  endfacet
  facet normal  9.238796e-001  -0.000000e+000  3.826835e-001
    outer loop
      vertex -1.414214e+000 -2.000000e+000 -1.414214e+000
      vertex -1.414214e+000  6.000000e+000 -1.414214e+000
      vertex -2.000000e+000  6.000000e+000  2.449294e-016
    endloop
  endfacet
  facet normal  9.238796e-001  0.000000e+000  3.826835e-001
    outer loop
      vertex -1.414214e+000 -2.000000e+000 -1.414214e+000
      vertex -2.000000e+000  6.000000e+000  2.449294e-016
      vertex -2.000000e+000 -2.000000e+000  2.449294e-016
    endloop
  endfacet
  facet normal  0.000000e+000 -1.000000e+000  0.000000e+000
    outer loop
      vertex -3.673940e-016 -2.000000e+000 -2.000000e+000
      vertex  9.116001e-001 -2.000000e+000 -2.805617e+000
      vertex  2.386600e+000 -2.000000e+000 -1.733966e+000
    endloop
  endfacet
  facet normal  0.000000e+000 -1.000000e+000  0.000000e+000
    outer loop
      vertex  9.116001e-001 -2.000000e+000  2.805617e+000
      vertex -9.116001e-001 -2.000000e+000  2.805617e+000
      vertex  1.224647e-016 -2.000000e+000  2.000000e+000
    endloop
  endfacet
  facet normal  -0.000000e+000 -1.000000e+000  0.000000e+000
    outer loop
      vertex  1.224647e-016 -2.000000e+000  2.000000e+000
      vertex -9.116001e-001 -2.000000e+000  2.805617e+000
      vertex -2.386600e+000 -2.000000e+000  1.733966e+000
    endloop
  endfacet
  facet normal  0.000000e+000 -1.000000e+000  0.000000e+000
    outer loop
      vertex  1.224647e-016 -2.000000e+000  2.000000e+000
      vertex -2.386600e+000 -2.000000e+000  1.733966e+000
      vertex -1.414214e+000 -2.000000e+000  1.414214e+000
    endloop
  endfacet
  facet normal  0.000000e+000 -9.999999e-001  0.000000e+000
    outer loop
      vertex -1.414214e+000 -2.000000e+000  1.414214e+000
      vertex -2.386600e+000 -2.000000e+000  1.733966e+000
      vertex -2.000000e+000 -2.000000e+000  2.449294e-016
    endloop
  endfacet
  facet normal  0.000000e+000 -1.000000e+000  0.000000e+000
    outer loop
      vertex -2.000000e+000 -2.000000e+000  2.449294e-016
      vertex -2.386600e+000 -2.000000e+000  1.733966e+000
      vertex -2.950000e+000 -2.000000e+000  3.612708e-016
    endloop
  endfacet
  facet normal  0.000000e+000 -1.000000e+000  0.000000e+000
    outer loop
      vertex -2.000000e+000 -2.000000e+000  2.449294e-016
      vertex -2.950000e+000 -2.000000e+000  3.612708e-016
      vertex -1.414214e+000 -2.000000e+000 -1.414214e+000
    endloop
  endfacet
  facet normal  -0.000000e+000 -1.000000e+000  0.000000e+000
    outer loop
      vertex -1.414214e+000 -2.000000e+000 -1.414214e+000
      vertex -2.950000e+000 -2.000000e+000  3.612708e-016
      vertex -2.386600e+000 -2.000000e+000 -1.733966e+000
    endloop
  endfacet
  facet normal  0.000000e+000 -1.000000e+000  0.000000e+000
    outer loop
      vertex -1.414214e+000 -2.000000e+000 -1.414214e+000
      vertex -2.386600e+000 -2.000000e+000 -1.733966e+000
      vertex -3.673940e-016 -2.000000e+000 -2.000000e+000
    endloop
  endfacet
  facet normal  -0.000000e+000 -1.000000e+000  0.000000e+000
    outer loop
      vertex -3.673940e-016 -2.000000e+000 -2.000000e+000
      vertex -2.386600e+000 -2.000000e+000 -1.733966e+000
      vertex -9.116001e-001 -2.000000e+000 -2.805617e+000
    endloop
  endfacet
  facet normal  0.000000e+000 -1.000000e+000  0.000000e+000
    outer loop
      vertex -3.673940e-016 -2.000000e+000 -2.000000e+000
      vertex -9.116001e-001 -2.000000e+000 -2.805617e+000
      vertex  9.116001e-001 -2.000000e+000 -2.805617e+000
    endloop
  endfacet
  facet normal  0.000000e+000 -1.000000e+000  0.000000e+000
    outer loop
      vertex  9.116001e-001 -2.000000e+000  2.805617e+000
      vertex  1.224647e-016 -2.000000e+000  2.000000e+000
      vertex  2.386600e+000 -2.000000e+000  1.733966e+000
    endloop
  endfacet
  facet normal  -0.000000e+000 -1.000000e+000  0.000000e+000
    outer loop
      vertex  2.386600e+000 -2.000000e+000  1.733966e+000
      vertex  1.224647e-016 -2.000000e+000  2.000000e+000
      vertex  1.414214e+000 -2.000000e+000  1.414214e+000
    endloop
  endfacet
  facet normal  0.000000e+000 -1.000000e+000  0.000000e+000
    outer loop
      vertex  2.386600e+000 -2.000000e+000  1.733966e+000
      vertex  1.414214e+000 -2.000000e+000  1.414214e+000
      vertex  2.950000e+000 -2.000000e+000  0.000000e+000
    endloop
  endfacet
  facet normal  0.000000e+000 -1.000000e+000  0.000000e+000
    outer loop
      vertex  2.950000e+000 -2.000000e+000  0.000000e+000
      vertex  1.414214e+000 -2.000000e+000  1.414214e+000
      vertex  2.000000e+000 -2.000000e+000  0.000000e+000
    endloop
  endfacet
  facet normal  0.000000e+000 -1.000000e+000  0.000000e+000
    outer loop
      vertex  2.950000e+000 -2.000000e+000  0.000000e+000
      vertex  2.000000e+000 -2.000000e+000  0.000000e+000
      vertex  2.386600e+000 -2.000000e+000 -1.733966e+000
    endloop
  endfacet
  facet normal  0.000000e+000 -9.999999e-001  0.000000e+000
    outer loop
      vertex  2.386600e+000 -2.000000e+000 -1.733966e+000
      vertex  2.000000e+000 -2.000000e+000  0.000000e+000
      vertex  1.414214e+000 -2.000000e+000 -1.414214e+000
    endloop
  endfacet
  facet normal  0.000000e+000 -1.000000e+000  -0.000000e+000
    outer loop
      vertex  2.386600e+000 -2.000000e+000 -1.733966e+000
      vertex  1.414214e+000 -2.000000e+000 -1.414214e+000
      vertex -3.673940e-016 -2.000000e+000 -2.000000e+000
    endloop
  endfacet
  facet normal  0.000000e+000 -9.999999e-001  0.000000e+000
    outer loop
      vertex -1.414214e+000  6.000000e+000  1.414214e+000
      vertex  1.414214e+000  6.000000e+000  1.414214e+000
      vertex  1.224647e-016  6.000000e+000  2.000000e+000
    endloop
  endfacet
  facet normal  0.000000e+000 -1.000000e+000  0.000000e+000
    outer loop
      vertex  1.414214e+000  6.000000e+000  1.414214e+000
      vertex -1.414214e+000  6.000000e+000  1.414214e+000
      vertex  2.000000e+000  6.000000e+000  0.000000e+000
    endloop
  endfacet
  facet normal  0.000000e+000 -9.999999e-001  0.000000e+000
    outer loop
      vertex  2.000000e+000  6.000000e+000  0.000000e+000
      vertex -1.414214e+000  6.000000e+000  1.414214e+000
      vertex -2.000000e+000  6.000000e+000  2.449294e-016
    endloop
  endfacet
  facet normal  0.000000e+000 -9.999999e-001  0.000000e+000
    outer loop
      vertex  2.000000e+000  6.000000e+000  0.000000e+000
      vertex -2.000000e+000  6.000000e+000  2.449294e-016
      vertex  1.414214e+000  6.000000e+000 -1.414214e+000
    endloop
  endfacet
  facet normal  0.000000e+000 -1.000000e+000  0.000000e+000
    outer loop
      vertex  1.414214e+000  6.000000e+000 -1.414214e+000
      vertex -2.000000e+000  6.000000e+000  2.449294e-016
      vertex -1.414214e+000  6.000000e+000 -1.414214e+000
    endloop
  endfacet
  facet normal  0.000000e+000 -9.999999e-001  0.000000e+000
    outer loop
      vertex  1.414214e+000  6.000000e+000 -1.414214e+000
      vertex -1.414214e+000  6.000000e+000 -1.414214e+000
      vertex -3.673940e-016  6.000000e+000 -2.000000e+000
    endloop
  endfacet
  facet normal  0.000000e+000 -1.000000e+000  0.000000e+000
    outer loop
      vertex  6.762148e+001  0.000000e+000  3.274429e+001
      vertex  6.868214e+001  0.000000e+000  3.230495e+001
      vertex  6.988725e+001  0.000000e+000  3.230084e+001
    endloop
  endfacet
  facet normal  0.000000e+000 -1.000000e+000  0.000000e+000
    outer loop
      vertex  9.116001e-001  0.000000e+000  2.805617e+000
      vertex  2.386600e+000  0.000000e+000  1.733966e+000
      vertex  9.682458e+000  0.000000e+000  2.500000e+000
    endloop
  endfacet
  facet normal  0.000000e+000 -1.000000e+000  0.000000e+000
    outer loop
      vertex -5.541527e-016  0.000000e+000  9.050000e+000
      vertex -4.683781e+000  0.000000e+000  8.835281e+000
      vertex -2.342312e+000  0.000000e+000  8.741629e+000
    endloop
  endfacet
  facet normal  -0.000000e+000 -1.000000e+000  -0.000000e+000
    outer loop
      vertex  5.800000e+001  0.000000e+000 -2.500000e+000
      vertex  5.449896e+001  0.000000e+000  2.500000e+000
      vertex  9.682458e+000  0.000000e+000  2.500000e+000
    endloop
  endfacet
  facet normal  0.000000e+000 -1.000000e+000  -0.000000e+000
    outer loop
      vertex  5.800000e+001  0.000000e+000 -2.500000e+000
      vertex  9.682458e+000  0.000000e+000  2.500000e+000
      vertex  2.386600e+000  0.000000e+000  1.733966e+000
    endloop
  endfacet
  facet normal  0.000000e+000 -1.000000e+000  0.000000e+000
    outer loop
      vertex  5.800000e+001  0.000000e+000 -2.500000e+000
      vertex  2.386600e+000  0.000000e+000  1.733966e+000
      vertex  2.950000e+000  0.000000e+000  0.000000e+000
    endloop
  endfacet
  facet normal  0.000000e+000 -1.000000e+000  -0.000000e+000
    outer loop
      vertex  5.800000e+001  0.000000e+000 -2.500000e+000
      vertex  2.950000e+000  0.000000e+000  0.000000e+000
      vertex  2.386600e+000  0.000000e+000 -1.733966e+000
    endloop
  endfacet
  facet normal  0.000000e+000 -9.999999e-001  0.000000e+000
    outer loop
      vertex  5.800000e+001  0.000000e+000 -2.500000e+000
      vertex  2.386600e+000  0.000000e+000 -1.733966e+000
      vertex  9.682458e+000  0.000000e+000 -2.500000e+000
    endloop
  endfacet
  facet normal  0.000000e+000 -1.000000e+000  -0.000000e+000
    outer loop
      vertex -9.116001e-001  0.000000e+000 -2.805617e+000
      vertex -2.386600e+000  0.000000e+000 -1.733966e+000
      vertex -9.355038e+000  0.000000e+000 -3.533166e+000
    endloop
  endfacet
  facet normal  0.000000e+000 -1.000000e+000  0.000000e+000
    outer loop
      vertex -9.116001e-001  0.000000e+000 -2.805617e+000
      vertex -9.355038e+000  0.000000e+000 -3.533166e+000
      vertex -7.503347e+000  0.000000e+000 -6.610581e+000
    endloop
  endfacet
  facet normal  0.000000e+000 -9.999999e-001  0.000000e+000
    outer loop
      vertex -9.116001e-001  0.000000e+000 -2.805617e+000
      vertex -7.503347e+000  0.000000e+000 -6.610581e+000
      vertex -4.683781e+000  0.000000e+000 -8.835281e+000
    endloop
  endfacet
  facet normal  0.000000e+000 -1.000000e+000  0.000000e+000
    outer loop
      vertex -9.116001e-001  0.000000e+000 -2.805617e+000
      vertex -4.683781e+000  0.000000e+000 -8.835281e+000
      vertex -1.260043e+000  0.000000e+000 -9.920297e+000
    endloop
  endfacet
  facet normal  0.000000e+000 -1.000000e+000  -0.000000e+000
    outer loop
      vertex  8.174685e+000  0.000000e+000  5.759733e+000
      vertex  5.612439e+000  0.000000e+000  8.276505e+000
      vertex  3.283482e+000  0.000000e+000  8.019444e+000
    endloop
  endfacet
  facet normal  0.000000e+000 -1.000000e+000  0.000000e+000
    outer loop
      vertex  8.174685e+000  0.000000e+000  5.759733e+000
      vertex  3.283482e+000  0.000000e+000  8.019444e+000
      vertex  3.438328e+000  0.000000e+000  6.843274e+000
    endloop
  endfacet
  facet normal  0.000000e+000 -1.000000e+000  -0.000000e+000
    outer loop
      vertex  8.174685e+000  0.000000e+000  5.759733e+000
      vertex  3.438328e+000  0.000000e+000  6.843274e+000
      vertex  2.716143e+000  0.000000e+000  5.902104e+000
    endloop
  endfacet
  facet normal  0.000000e+000 -1.000000e+000  -0.000000e+000
    outer loop
      vertex  8.174685e+000  0.000000e+000  5.759733e+000
      vertex  2.716143e+000  0.000000e+000  5.902104e+000
      vertex  1.539973e+000  0.000000e+000  5.747259e+000
    endloop
  endfacet
  facet normal  0.000000e+000 -1.000000e+000  -0.000000e+000
    outer loop
      vertex  8.174685e+000  0.000000e+000  5.759733e+000
      vertex  1.539973e+000  0.000000e+000  5.747259e+000
      vertex  9.116001e-001  0.000000e+000  2.805617e+000
    endloop
  endfacet
  facet normal  0.000000e+000 -1.000000e+000  0.000000e+000
    outer loop
      vertex  8.174685e+000  0.000000e+000  5.759733e+000
      vertex  9.116001e-001  0.000000e+000  2.805617e+000
      vertex  9.682458e+000  0.000000e+000  2.500000e+000
    endloop
  endfacet
  facet normal  0.000000e+000 -1.000000e+000  0.000000e+000
    outer loop
      vertex  2.386600e+000  0.000000e+000 -1.733966e+000
      vertex  9.116001e-001  0.000000e+000 -2.805617e+000
      vertex  9.682458e+000  0.000000e+000 -2.500000e+000
    endloop
  endfacet
  facet normal  0.000000e+000 -1.000000e+000  0.000000e+000
    outer loop
      vertex  9.682458e+000  0.000000e+000 -2.500000e+000
      vertex  9.116001e-001  0.000000e+000 -2.805617e+000
      vertex  8.174685e+000  0.000000e+000 -5.759733e+000
    endloop
  endfacet
  facet normal  0.000000e+000 -1.000000e+000  0.000000e+000
    outer loop
      vertex  5.800000e+001  0.000000e+000 -2.500000e+000
      vertex  6.997070e+001  0.000000e+000  3.038924e+001
      vertex  5.449896e+001  0.000000e+000  2.500000e+000
    endloop
  endfacet
  facet normal  0.000000e+000 -1.000000e+000  0.000000e+000
    outer loop
      vertex  5.449896e+001  0.000000e+000  2.500000e+000
      vertex  6.997070e+001  0.000000e+000  3.038924e+001
      vertex  6.116800e+001  0.000000e+000  2.082303e+001
    endloop
  endfacet
  facet normal  0.000000e+000 -1.000000e+000  -0.000000e+000
    outer loop
      vertex  6.997070e+001  0.000000e+000  3.038924e+001
      vertex  6.868214e+001  0.000000e+000  3.018363e+001
      vertex  6.116800e+001  0.000000e+000  2.082303e+001
    endloop
  endfacet
  facet normal  0.000000e+000 -1.000000e+000  0.000000e+000
    outer loop
      vertex  6.116800e+001  0.000000e+000  2.082303e+001
      vertex  6.868214e+001  0.000000e+000  3.018363e+001
      vertex  6.762148e+001  0.000000e+000  2.974429e+001
    endloop
  endfacet
  facet normal  0.000000e+000 -1.000000e+000  -0.000000e+000
    outer loop
      vertex  6.656081e+001  0.000000e+000  3.018363e+001
      vertex  6.612148e+001  0.000000e+000  3.124429e+001
      vertex  6.458820e+001  0.000000e+000  3.021996e+001
    endloop
  endfacet
  facet normal  0.000000e+000 -1.000000e+000  0.000000e+000
    outer loop
      vertex  6.458820e+001  0.000000e+000  3.021996e+001
      vertex  6.612148e+001  0.000000e+000  3.124429e+001
      vertex  6.656081e+001  0.000000e+000  3.230495e+001
    endloop
  endfacet
  facet normal  0.000000e+000 -1.000000e+000  0.000000e+000
    outer loop
      vertex  6.458820e+001  0.000000e+000  3.021996e+001
      vertex  6.656081e+001  0.000000e+000  3.230495e+001
      vertex  6.527224e+001  0.000000e+000  3.209934e+001
    endloop
  endfacet
  facet normal  0.000000e+000 -1.000000e+000  0.000000e+000
    outer loop
      vertex  6.527224e+001  0.000000e+000  3.209934e+001
      vertex  6.656081e+001  0.000000e+000  3.230495e+001
      vertex  6.762148e+001  0.000000e+000  3.274429e+001
    endloop
  endfacet
  facet normal  -0.000000e+000 -1.000000e+000  0.000000e+000
    outer loop
      vertex  6.527224e+001  0.000000e+000  3.209934e+001
      vertex  6.762148e+001  0.000000e+000  3.274429e+001
      vertex  6.656493e+001  0.000000e+000  3.351006e+001
    endloop
  endfacet
  facet normal  0.000000e+000 -1.000000e+000  0.000000e+000
    outer loop
      vertex  6.656493e+001  0.000000e+000  3.351006e+001
      vertex  6.762148e+001  0.000000e+000  3.274429e+001
      vertex  6.988725e+001  0.000000e+000  3.230084e+001
    endloop
  endfacet
  facet normal  0.000000e+000 -9.999999e-001  0.000000e+000
    outer loop
      vertex  6.656493e+001  0.000000e+000  3.351006e+001
      vertex  6.988725e+001  0.000000e+000  3.230084e+001
      vertex  6.847652e+001  0.000000e+000  3.359352e+001
    endloop
  endfacet
  facet normal  -0.000000e+000 -1.000000e+000  0.000000e+000
    outer loop
      vertex -1.260043e+000  0.000000e+000 -9.920297e+000
      vertex  2.326231e+000  0.000000e+000 -9.725670e+000
      vertex -9.116001e-001  0.000000e+000 -2.805617e+000
    endloop
  endfacet
  facet normal  0.000000e+000 -1.000000e+000  0.000000e+000
    outer loop
      vertex -9.116001e-001  0.000000e+000 -2.805617e+000
      vertex  2.326231e+000  0.000000e+000 -9.725670e+000
      vertex  9.116001e-001  0.000000e+000 -2.805617e+000
    endloop
  endfacet
  facet normal  -0.000000e+000 -1.000000e+000  0.000000e+000
    outer loop
      vertex  2.326231e+000  0.000000e+000 -9.725670e+000
      vertex  5.612439e+000  0.000000e+000 -8.276505e+000
      vertex  9.116001e-001  0.000000e+000 -2.805617e+000
    endloop
  endfacet
  facet normal  0.000000e+000 -1.000000e+000  0.000000e+000
    outer loop
      vertex  9.116001e-001  0.000000e+000 -2.805617e+000
      vertex  5.612439e+000  0.000000e+000 -8.276505e+000
      vertex  8.174685e+000  0.000000e+000 -5.759733e+000
    endloop
  endfacet
  facet normal  0.000000e+000 -1.000000e+000  0.000000e+000
    outer loop
      vertex  1.539973e+000  0.000000e+000  5.747259e+000
      vertex -1.685498e-015  0.000000e+000  5.950000e+000
      vertex  9.116001e-001  0.000000e+000  2.805617e+000
    endloop
  endfacet
  facet normal  0.000000e+000 -1.000000e+000  0.000000e+000
    outer loop
      vertex  9.116001e-001  0.000000e+000  2.805617e+000
      vertex -1.685498e-015  0.000000e+000  5.950000e+000
      vertex -1.539973e+000  0.000000e+000  5.747259e+000
    endloop
  endfacet
  facet normal  0.000000e+000 -1.000000e+000  0.000000e+000
    outer loop
      vertex  9.116001e-001  0.000000e+000  2.805617e+000
      vertex -1.539973e+000  0.000000e+000  5.747259e+000
      vertex -9.116001e-001  0.000000e+000  2.805617e+000
    endloop
  endfacet
  facet normal  0.000000e+000 -9.999999e-001  0.000000e+000
    outer loop
      vertex -9.116001e-001  0.000000e+000  2.805617e+000
      vertex -1.539973e+000  0.000000e+000  5.747259e+000
      vertex -2.716143e+000  0.000000e+000  5.902104e+000
    endloop
  endfacet
  facet normal  0.000000e+000 -1.000000e+000  -0.000000e+000
    outer loop
      vertex -9.116001e-001  0.000000e+000  2.805617e+000
      vertex -2.716143e+000  0.000000e+000  5.902104e+000
      vertex -9.355038e+000  0.000000e+000  3.533166e+000
    endloop
  endfacet
  facet normal  0.000000e+000 -1.000000e+000  0.000000e+000
    outer loop
      vertex -9.355038e+000  0.000000e+000  3.533166e+000
      vertex -2.716143e+000  0.000000e+000  5.902104e+000
      vertex -3.438328e+000  0.000000e+000  6.843274e+000
    endloop
  endfacet
  facet normal  0.000000e+000 -1.000000e+000  0.000000e+000
    outer loop
      vertex -9.355038e+000  0.000000e+000  3.533166e+000
      vertex -3.438328e+000  0.000000e+000  6.843274e+000
      vertex -7.503347e+000  0.000000e+000  6.610581e+000
    endloop
  endfacet
  facet normal  0.000000e+000 -1.000000e+000  -0.000000e+000
    outer loop
      vertex  2.342312e+000  0.000000e+000  8.741629e+000
      vertex  2.326231e+000  0.000000e+000  9.725670e+000
      vertex -5.541527e-016  0.000000e+000  9.050000e+000
    endloop
  endfacet
  facet normal  0.000000e+000 -1.000000e+000  0.000000e+000
    outer loop
      vertex -5.541527e-016  0.000000e+000  9.050000e+000
      vertex  2.326231e+000  0.000000e+000  9.725670e+000
      vertex -1.260043e+000  0.000000e+000  9.920297e+000
    endloop
  endfacet
  facet normal  0.000000e+000 -1.000000e+000  -0.000000e+000
    outer loop
      vertex -5.541527e-016  0.000000e+000  9.050000e+000
      vertex -1.260043e+000  0.000000e+000  9.920297e+000
      vertex -4.683781e+000  0.000000e+000  8.835281e+000
    endloop
  endfacet
  facet normal  -0.000000e+000 -1.000000e+000  0.000000e+000
    outer loop
      vertex  6.868214e+001  0.000000e+000  3.018363e+001
      vertex  6.997070e+001  0.000000e+000  3.038924e+001
      vertex  6.912148e+001  0.000000e+000  3.124429e+001
    endloop
  endfacet
  facet normal  0.000000e+000 -9.999999e-001  0.000000e+000
    outer loop
      vertex  6.912148e+001  0.000000e+000  3.124429e+001
      vertex  6.997070e+001  0.000000e+000  3.038924e+001
      vertex  6.988725e+001  0.000000e+000  3.230084e+001
    endloop
  endfacet
  facet normal  -0.000000e+000 -1.000000e+000  0.000000e+000
    outer loop
      vertex  6.912148e+001  0.000000e+000  3.124429e+001
      vertex  6.988725e+001  0.000000e+000  3.230084e+001
      vertex  6.868214e+001  0.000000e+000  3.230495e+001
    endloop
  endfacet
  facet normal  -0.000000e+000 -1.000000e+000  0.000000e+000
    outer loop
      vertex  3.283482e+000  0.000000e+000  8.019444e+000
      vertex  5.612439e+000  0.000000e+000  8.276505e+000
      vertex  2.342312e+000  0.000000e+000  8.741629e+000
    endloop
  endfacet
  facet normal  0.000000e+000 -1.000000e+000  0.000000e+000
    outer loop
      vertex  2.342312e+000  0.000000e+000  8.741629e+000
      vertex  5.612439e+000  0.000000e+000  8.276505e+000
      vertex  2.326231e+000  0.000000e+000  9.725670e+000
    endloop
  endfacet
  facet normal  0.000000e+000 -1.000000e+000  0.000000e+000
    outer loop
      vertex  6.656081e+001  0.000000e+000  3.018363e+001
      vertex  6.458820e+001  0.000000e+000  3.021996e+001
      vertex  6.762148e+001  0.000000e+000  2.974429e+001
    endloop
  endfacet
  facet normal  -0.000000e+000 -1.000000e+000  0.000000e+000
    outer loop
      vertex  6.762148e+001  0.000000e+000  2.974429e+001
      vertex  6.458820e+001  0.000000e+000  3.021996e+001
      vertex  6.116800e+001  0.000000e+000  2.082303e+001
    endloop
  endfacet
  facet normal  0.000000e+000 -1.000000e+000  0.000000e+000
    outer loop
      vertex -3.438328e+000  0.000000e+000  6.843274e+000
      vertex -3.283482e+000  0.000000e+000  8.019444e+000
      vertex -7.503347e+000  0.000000e+000  6.610581e+000
    endloop
  endfacet
  facet normal  0.000000e+000 -1.000000e+000  0.000000e+000
    outer loop
      vertex -7.503347e+000  0.000000e+000  6.610581e+000
      vertex -3.283482e+000  0.000000e+000  8.019444e+000
      vertex -2.342312e+000  0.000000e+000  8.741629e+000
    endloop
  endfacet
  facet normal  -0.000000e+000 -1.000000e+000  0.000000e+000
    outer loop
      vertex -7.503347e+000  0.000000e+000  6.610581e+000
      vertex -2.342312e+000  0.000000e+000  8.741629e+000
      vertex -4.683781e+000  0.000000e+000  8.835281e+000
    endloop
  endfacet
  facet normal  0.000000e+000 -1.000000e+000  0.000000e+000
    outer loop
      vertex -2.950000e+000  0.000000e+000  1.671334e-015
      vertex -2.386600e+000  0.000000e+000  1.733966e+000
      vertex -1.000000e+001  0.000000e+000  0.000000e+000
    endloop
  endfacet
  facet normal  0.000000e+000 -1.000000e+000  0.000000e+000
    outer loop
      vertex -1.000000e+001  0.000000e+000  0.000000e+000
      vertex -2.386600e+000  0.000000e+000  1.733966e+000
      vertex -9.116001e-001  0.000000e+000  2.805617e+000
    endloop
  endfacet
  facet normal  -0.000000e+000 -1.000000e+000  0.000000e+000
    outer loop
      vertex -1.000000e+001  0.000000e+000  0.000000e+000
      vertex -9.116001e-001  0.000000e+000  2.805617e+000
      vertex -9.355038e+000  0.000000e+000  3.533166e+000
    endloop
  endfacet
  facet normal  0.000000e+000 -1.000000e+000  -0.000000e+000
    outer loop
      vertex -2.386600e+000  0.000000e+000 -1.733966e+000
      vertex -2.950000e+000  0.000000e+000  1.671334e-015
      vertex -9.355038e+000  0.000000e+000 -3.533166e+000
    endloop
  endfacet
  facet normal  0.000000e+000 -1.000000e+000  0.000000e+000
    outer loop
      vertex -9.355038e+000  0.000000e+000 -3.533166e+000
      vertex -2.950000e+000  0.000000e+000  1.671334e-015
      vertex -1.000000e+001  0.000000e+000  0.000000e+000
    endloop
  endfacet
  facet normal  -0.000000e+000  1.000000e+000  -0.000000e+000
    outer loop
      vertex  6.988725e+001  3.000000e+000  3.230084e+001
      vertex  6.868214e+001  3.000000e+000  3.230495e+001
      vertex  6.762148e+001  3.000000e+000  3.274429e+001
    endloop
  endfacet
  facet normal  0.000000e+000  1.000000e+000  -0.000000e+000
    outer loop
      vertex  9.682458e+000  3.000000e+000  2.500000e+000
      vertex  2.386600e+000  3.000000e+000  1.733966e+000
      vertex  9.116001e-001  3.000000e+000  2.805617e+000
    endloop
  endfacet
  facet normal  -0.000000e+000  1.000000e+000  0.000000e+000
    outer loop
      vertex -2.342312e+000  3.000000e+000  8.741629e+000
      vertex -4.683781e+000  3.000000e+000  8.835281e+000
      vertex -5.541527e-016  3.000000e+000  9.050000e+000
    endloop
  endfacet
  facet normal  0.000000e+000  9.999999e-001  -0.000000e+000
    outer loop
      vertex  5.800000e+001  3.000000e+000 -2.500000e+000
      vertex  9.682458e+000  3.000000e+000 -2.500000e+000
      vertex  2.386600e+000  3.000000e+000 -1.733966e+000
    endloop
  endfacet
  facet normal  -0.000000e+000  1.000000e+000  0.000000e+000
    outer loop
      vertex  5.800000e+001  3.000000e+000 -2.500000e+000
      vertex  2.386600e+000  3.000000e+000 -1.733966e+000
      vertex  2.950000e+000  3.000000e+000  3.612708e-016
    endloop
  endfacet
  facet normal  -0.000000e+000  1.000000e+000  -0.000000e+000
    outer loop
      vertex  5.800000e+001  3.000000e+000 -2.500000e+000
      vertex  2.950000e+000  3.000000e+000  3.612708e-016
      vertex  2.386600e+000  3.000000e+000  1.733966e+000
    endloop
  endfacet
  facet normal  -0.000000e+000  1.000000e+000  0.000000e+000
    outer loop
      vertex  5.800000e+001  3.000000e+000 -2.500000e+000
      vertex  2.386600e+000  3.000000e+000  1.733966e+000
      vertex  9.682458e+000  3.000000e+000  2.500000e+000
    endloop
  endfacet
  facet normal  -0.000000e+000  1.000000e+000  0.000000e+000
    outer loop
      vertex  5.800000e+001  3.000000e+000 -2.500000e+000
      vertex  9.682458e+000  3.000000e+000  2.500000e+000
      vertex  5.449896e+001  3.000000e+000  2.500000e+000
    endloop
  endfacet
  facet normal  0.000000e+000  1.000000e+000  -0.000000e+000
    outer loop
      vertex -9.116001e-001  3.000000e+000 -2.805617e+000
      vertex -1.260043e+000  3.000000e+000 -9.920297e+000
      vertex -4.683781e+000  3.000000e+000 -8.835281e+000
    endloop
  endfacet
  facet normal  0.000000e+000  1.000000e+000  -0.000000e+000
    outer loop
      vertex -9.116001e-001  3.000000e+000 -2.805617e+000
      vertex -4.683781e+000  3.000000e+000 -8.835281e+000
      vertex -7.503347e+000  3.000000e+000 -6.610581e+000
    endloop
  endfacet
  facet normal  0.000000e+000  1.000000e+000  -0.000000e+000
    outer loop
      vertex -9.116001e-001  3.000000e+000 -2.805617e+000
      vertex -7.503347e+000  3.000000e+000 -6.610581e+000
      vertex -9.355038e+000  3.000000e+000 -3.533166e+000
    endloop
  endfacet
  facet normal  0.000000e+000  1.000000e+000  0.000000e+000
    outer loop
      vertex -9.116001e-001  3.000000e+000 -2.805617e+000
      vertex -9.355038e+000  3.000000e+000 -3.533166e+000
      vertex -2.386600e+000  3.000000e+000 -1.733966e+000
    endloop
  endfacet
  facet normal  0.000000e+000  1.000000e+000  0.000000e+000
    outer loop
      vertex  8.174685e+000  3.000000e+000  5.759733e+000
      vertex  9.682458e+000  3.000000e+000  2.500000e+000
      vertex  9.116001e-001  3.000000e+000  2.805617e+000
    endloop
  endfacet
  facet normal  0.000000e+000  1.000000e+000  0.000000e+000
    outer loop
      vertex  8.174685e+000  3.000000e+000  5.759733e+000
      vertex  9.116001e-001  3.000000e+000  2.805617e+000
      vertex  1.539973e+000  3.000000e+000  5.747259e+000
    endloop
  endfacet
  facet normal  0.000000e+000  1.000000e+000  0.000000e+000
    outer loop
      vertex  8.174685e+000  3.000000e+000  5.759733e+000
      vertex  1.539973e+000  3.000000e+000  5.747259e+000
      vertex  2.716143e+000  3.000000e+000  5.902104e+000
    endloop
  endfacet
  facet normal  -0.000000e+000  1.000000e+000  0.000000e+000
    outer loop
      vertex  8.174685e+000  3.000000e+000  5.759733e+000
      vertex  2.716143e+000  3.000000e+000  5.902104e+000
      vertex  3.438328e+000  3.000000e+000  6.843274e+000
    endloop
  endfacet
  facet normal  -0.000000e+000  1.000000e+000  -0.000000e+000
    outer loop
      vertex  8.174685e+000  3.000000e+000  5.759733e+000
      vertex  3.438328e+000  3.000000e+000  6.843274e+000
      vertex  3.283482e+000  3.000000e+000  8.019444e+000
    endloop
  endfacet
  facet normal  -0.000000e+000  1.000000e+000  0.000000e+000
    outer loop
      vertex  8.174685e+000  3.000000e+000  5.759733e+000
      vertex  3.283482e+000  3.000000e+000  8.019444e+000
      vertex  5.612439e+000  3.000000e+000  8.276505e+000
    endloop
  endfacet
  facet normal  0.000000e+000  1.000000e+000  0.000000e+000
    outer loop
      vertex  2.386600e+000  3.000000e+000 -1.733966e+000
      vertex  9.682458e+000  3.000000e+000 -2.500000e+000
      vertex  9.116001e-001  3.000000e+000 -2.805617e+000
    endloop
  endfacet
  facet normal  -0.000000e+000  1.000000e+000  0.000000e+000
    outer loop
      vertex  9.116001e-001  3.000000e+000 -2.805617e+000
      vertex  9.682458e+000  3.000000e+000 -2.500000e+000
      vertex  8.174685e+000  3.000000e+000 -5.759733e+000
    endloop
  endfacet
  facet normal  -0.000000e+000  1.000000e+000  0.000000e+000
    outer loop
      vertex  5.800000e+001  3.000000e+000 -2.500000e+000
      vertex  5.449896e+001  3.000000e+000  2.500000e+000
      vertex  6.997070e+001  3.000000e+000  3.038924e+001
    endloop
  endfacet
  facet normal  0.000000e+000  1.000000e+000  0.000000e+000
    outer loop
      vertex  6.997070e+001  3.000000e+000  3.038924e+001
      vertex  5.449896e+001  3.000000e+000  2.500000e+000
      vertex  6.116800e+001  3.000000e+000  2.082303e+001
    endloop
  endfacet
  facet normal  0.000000e+000  1.000000e+000  0.000000e+000
    outer loop
      vertex  6.997070e+001  3.000000e+000  3.038924e+001
      vertex  6.116800e+001  3.000000e+000  2.082303e+001
      vertex  6.868214e+001  3.000000e+000  3.018363e+001
    endloop
  endfacet
  facet normal  0.000000e+000  1.000000e+000  0.000000e+000
    outer loop
      vertex  6.868214e+001  3.000000e+000  3.018363e+001
      vertex  6.116800e+001  3.000000e+000  2.082303e+001
      vertex  6.762148e+001  3.000000e+000  2.974429e+001
    endloop
  endfacet
  facet normal  0.000000e+000  9.999999e-001  0.000000e+000
    outer loop
      vertex  6.847652e+001  3.000000e+000  3.359352e+001
      vertex  6.988725e+001  3.000000e+000  3.230084e+001
      vertex  6.656493e+001  3.000000e+000  3.351006e+001
    endloop
  endfacet
  facet normal  0.000000e+000  1.000000e+000  0.000000e+000
    outer loop
      vertex  6.656493e+001  3.000000e+000  3.351006e+001
      vertex  6.988725e+001  3.000000e+000  3.230084e+001
      vertex  6.762148e+001  3.000000e+000  3.274429e+001
    endloop
  endfacet
  facet normal  0.000000e+000  1.000000e+000  0.000000e+000
    outer loop
      vertex  6.656493e+001  3.000000e+000  3.351006e+001
      vertex  6.762148e+001  3.000000e+000  3.274429e+001
      vertex  6.527224e+001  3.000000e+000  3.209934e+001
    endloop
  endfacet
  facet normal  0.000000e+000  1.000000e+000  0.000000e+000
    outer loop
      vertex  6.527224e+001  3.000000e+000  3.209934e+001
      vertex  6.762148e+001  3.000000e+000  3.274429e+001
      vertex  6.656081e+001  3.000000e+000  3.230495e+001
    endloop
  endfacet
  facet normal  0.000000e+000  1.000000e+000  0.000000e+000
    outer loop
      vertex  6.527224e+001  3.000000e+000  3.209934e+001
      vertex  6.656081e+001  3.000000e+000  3.230495e+001
      vertex  6.458820e+001  3.000000e+000  3.021996e+001
    endloop
  endfacet
  facet normal  0.000000e+000  1.000000e+000  0.000000e+000
    outer loop
      vertex  6.458820e+001  3.000000e+000  3.021996e+001
      vertex  6.656081e+001  3.000000e+000  3.230495e+001
      vertex  6.612148e+001  3.000000e+000  3.124429e+001
    endloop
  endfacet
  facet normal  0.000000e+000  1.000000e+000  0.000000e+000
    outer loop
      vertex  6.458820e+001  3.000000e+000  3.021996e+001
      vertex  6.612148e+001  3.000000e+000  3.124429e+001
      vertex  6.656081e+001  3.000000e+000  3.018363e+001
    endloop
  endfacet
  facet normal  0.000000e+000  1.000000e+000  0.000000e+000
    outer loop
      vertex -1.260043e+000  3.000000e+000 -9.920297e+000
      vertex -9.116001e-001  3.000000e+000 -2.805617e+000
      vertex  2.326231e+000  3.000000e+000 -9.725670e+000
    endloop
  endfacet
  facet normal  0.000000e+000  1.000000e+000  0.000000e+000
    outer loop
      vertex  2.326231e+000  3.000000e+000 -9.725670e+000
      vertex -9.116001e-001  3.000000e+000 -2.805617e+000
      vertex  9.116001e-001  3.000000e+000 -2.805617e+000
    endloop
  endfacet
  facet normal  0.000000e+000  1.000000e+000  0.000000e+000
    outer loop
      vertex  2.326231e+000  3.000000e+000 -9.725670e+000
      vertex  9.116001e-001  3.000000e+000 -2.805617e+000
      vertex  5.612439e+000  3.000000e+000 -8.276505e+000
    endloop
  endfacet
  facet normal  0.000000e+000  1.000000e+000  -0.000000e+000
    outer loop
      vertex  5.612439e+000  3.000000e+000 -8.276505e+000
      vertex  9.116001e-001  3.000000e+000 -2.805617e+000
      vertex  8.174685e+000  3.000000e+000 -5.759733e+000
    endloop
  endfacet
  facet normal  0.000000e+000  1.000000e+000  0.000000e+000
    outer loop
      vertex -7.503347e+000  3.000000e+000  6.610581e+000
      vertex -3.438328e+000  3.000000e+000  6.843274e+000
      vertex -9.355038e+000  3.000000e+000  3.533166e+000
    endloop
  endfacet
  facet normal  0.000000e+000  1.000000e+000  0.000000e+000
    outer loop
      vertex -9.355038e+000  3.000000e+000  3.533166e+000
      vertex -3.438328e+000  3.000000e+000  6.843274e+000
      vertex -2.716143e+000  3.000000e+000  5.902104e+000
    endloop
  endfacet
  facet normal  0.000000e+000  1.000000e+000  0.000000e+000
    outer loop
      vertex -9.355038e+000  3.000000e+000  3.533166e+000
      vertex -2.716143e+000  3.000000e+000  5.902104e+000
      vertex -9.116001e-001  3.000000e+000  2.805617e+000
    endloop
  endfacet
  facet normal  0.000000e+000  9.999999e-001  0.000000e+000
    outer loop
      vertex -9.116001e-001  3.000000e+000  2.805617e+000
      vertex -2.716143e+000  3.000000e+000  5.902104e+000
      vertex -1.539973e+000  3.000000e+000  5.747259e+000
    endloop
  endfacet
  facet normal  0.000000e+000  1.000000e+000  0.000000e+000
    outer loop
      vertex -9.116001e-001  3.000000e+000  2.805617e+000
      vertex -1.539973e+000  3.000000e+000  5.747259e+000
      vertex  9.116001e-001  3.000000e+000  2.805617e+000
    endloop
  endfacet
  facet normal  0.000000e+000  1.000000e+000  0.000000e+000
    outer loop
      vertex  9.116001e-001  3.000000e+000  2.805617e+000
      vertex -1.539973e+000  3.000000e+000  5.747259e+000
      vertex -1.685498e-015  3.000000e+000  5.950000e+000
    endloop
  endfacet
  facet normal  0.000000e+000  1.000000e+000  0.000000e+000
    outer loop
      vertex  9.116001e-001  3.000000e+000  2.805617e+000
      vertex -1.685498e-015  3.000000e+000  5.950000e+000
      vertex  1.539973e+000  3.000000e+000  5.747259e+000
    endloop
  endfacet
  facet normal  0.000000e+000  1.000000e+000  0.000000e+000
    outer loop
      vertex -4.683781e+000  3.000000e+000  8.835281e+000
      vertex -1.260043e+000  3.000000e+000  9.920297e+000
      vertex -5.541527e-016  3.000000e+000  9.050000e+000
    endloop
  endfacet
  facet normal  0.000000e+000  1.000000e+000  -0.000000e+000
    outer loop
      vertex -5.541527e-016  3.000000e+000  9.050000e+000
      vertex -1.260043e+000  3.000000e+000  9.920297e+000
      vertex  2.326231e+000  3.000000e+000  9.725670e+000
    endloop
  endfacet
  facet normal  0.000000e+000  1.000000e+000  0.000000e+000
    outer loop
      vertex -5.541527e-016  3.000000e+000  9.050000e+000
      vertex  2.326231e+000  3.000000e+000  9.725670e+000
      vertex  2.342312e+000  3.000000e+000  8.741629e+000
    endloop
  endfacet
  facet normal  0.000000e+000  1.000000e+000  0.000000e+000
    outer loop
      vertex  6.868214e+001  3.000000e+000  3.230495e+001
      vertex  6.988725e+001  3.000000e+000  3.230084e+001
      vertex  6.912148e+001  3.000000e+000  3.124429e+001
    endloop
  endfacet
  facet normal  -0.000000e+000  9.999999e-001  0.000000e+000
    outer loop
      vertex  6.912148e+001  3.000000e+000  3.124429e+001
      vertex  6.988725e+001  3.000000e+000  3.230084e+001
      vertex  6.997070e+001  3.000000e+000  3.038924e+001
    endloop
  endfacet
  facet normal  0.000000e+000  1.000000e+000  0.000000e+000
    outer loop
      vertex  6.912148e+001  3.000000e+000  3.124429e+001
      vertex  6.997070e+001  3.000000e+000  3.038924e+001
      vertex  6.868214e+001  3.000000e+000  3.018363e+001
    endloop
  endfacet
  facet normal  0.000000e+000  1.000000e+000  0.000000e+000
    outer loop
      vertex  3.283482e+000  3.000000e+000  8.019444e+000
      vertex  2.342312e+000  3.000000e+000  8.741629e+000
      vertex  5.612439e+000  3.000000e+000  8.276505e+000
    endloop
  endfacet
  facet normal  0.000000e+000  1.000000e+000  0.000000e+000
    outer loop
      vertex  5.612439e+000  3.000000e+000  8.276505e+000
      vertex  2.342312e+000  3.000000e+000  8.741629e+000
      vertex  2.326231e+000  3.000000e+000  9.725670e+000
    endloop
  endfacet
  facet normal  0.000000e+000  1.000000e+000  0.000000e+000
    outer loop
      vertex  6.656081e+001  3.000000e+000  3.018363e+001
      vertex  6.762148e+001  3.000000e+000  2.974429e+001
      vertex  6.458820e+001  3.000000e+000  3.021996e+001
    endloop
  endfacet
  facet normal  0.000000e+000  1.000000e+000  0.000000e+000
    outer loop
      vertex  6.458820e+001  3.000000e+000  3.021996e+001
      vertex  6.762148e+001  3.000000e+000  2.974429e+001
      vertex  6.116800e+001  3.000000e+000  2.082303e+001
    endloop
  endfacet
  facet normal  0.000000e+000  1.000000e+000  0.000000e+000
    outer loop
      vertex -4.683781e+000  3.000000e+000  8.835281e+000
      vertex -2.342312e+000  3.000000e+000  8.741629e+000
      vertex -7.503347e+000  3.000000e+000  6.610581e+000
    endloop
  endfacet
  facet normal  0.000000e+000  1.000000e+000  0.000000e+000
    outer loop
      vertex -7.503347e+000  3.000000e+000  6.610581e+000
      vertex -2.342312e+000  3.000000e+000  8.741629e+000
      vertex -3.283482e+000  3.000000e+000  8.019444e+000
    endloop
  endfacet
  facet normal  0.000000e+000  1.000000e+000  0.000000e+000
    outer loop
      vertex -7.503347e+000  3.000000e+000  6.610581e+000
      vertex -3.283482e+000  3.000000e+000  8.019444e+000
      vertex -3.438328e+000  3.000000e+000  6.843274e+000
    endloop
  endfacet
  facet normal  0.000000e+000  1.000000e+000  0.000000e+000
    outer loop
      vertex -9.355038e+000  3.000000e+000  3.533166e+000
      vertex -9.116001e-001  3.000000e+000  2.805617e+000
      vertex -1.000000e+001  3.000000e+000  0.000000e+000
    endloop
  endfacet
  facet normal  0.000000e+000  1.000000e+000  0.000000e+000
    outer loop
      vertex -1.000000e+001  3.000000e+000  0.000000e+000
      vertex -9.116001e-001  3.000000e+000  2.805617e+000
      vertex -2.386600e+000  3.000000e+000  1.733966e+000
    endloop
  endfacet
  facet normal  0.000000e+000  1.000000e+000  0.000000e+000
    outer loop
      vertex -1.000000e+001  3.000000e+000  0.000000e+000
      vertex -2.386600e+000  3.000000e+000  1.733966e+000
      vertex -2.950000e+000  3.000000e+000  0.000000e+000
    endloop
  endfacet
  facet normal  0.000000e+000  9.999999e-001  0.000000e+000
    outer loop
      vertex -2.386600e+000  3.000000e+000 -1.733966e+000
      vertex -9.355038e+000  3.000000e+000 -3.533166e+000
      vertex -2.950000e+000  3.000000e+000  0.000000e+000
    endloop
  endfacet
  facet normal  0.000000e+000  1.000000e+000  0.000000e+000
    outer loop
      vertex -2.950000e+000  3.000000e+000  0.000000e+000
      vertex -9.355038e+000  3.000000e+000 -3.533166e+000
      vertex -1.000000e+001  3.000000e+000  0.000000e+000
    endloop
  endfacet
  facet normal -9.510565e-001  -0.000000e+000 -3.090171e-001
    outer loop
      vertex -2.950000e+000  3.000000e+000  0.000000e+000
      vertex -2.950000e+000  9.000000e+000  0.000000e+000
      vertex -2.386600e+000  3.000000e+000 -1.733966e+000
    endloop
  endfacet
  facet normal -9.510565e-001  0.000000e+000 -3.090171e-001
    outer loop
      vertex -2.386600e+000  3.000000e+000 -1.733966e+000
      vertex -2.950000e+000  9.000000e+000  0.000000e+000
      vertex -2.386600e+000  9.000000e+000 -1.733966e+000
    endloop
  endfacet
  facet normal -5.877853e-001  -0.000000e+000 -8.090171e-001
    outer loop
      vertex -2.386600e+000  3.000000e+000 -1.733966e+000
      vertex -2.386600e+000  9.000000e+000 -1.733966e+000
      vertex -9.116001e-001  3.000000e+000 -2.805617e+000
    endloop
  endfacet
  facet normal -5.877853e-001  0.000000e+000 -8.090171e-001
    outer loop
      vertex -9.116001e-001  3.000000e+000 -2.805617e+000
      vertex -2.386600e+000  9.000000e+000 -1.733966e+000
      vertex -9.116001e-001  9.000000e+000 -2.805617e+000
    endloop
  endfacet
  facet normal  0.000000e+000  0.000000e+000 -1.000000e+000
    outer loop
      vertex -9.116001e-001  3.000000e+000 -2.805617e+000
      vertex -9.116001e-001  9.000000e+000 -2.805617e+000
      vertex  9.116001e-001  3.000000e+000 -2.805617e+000
    endloop
  endfacet
  facet normal  0.000000e+000  0.000000e+000 -1.000000e+000
    outer loop
      vertex  9.116001e-001  3.000000e+000 -2.805617e+000
      vertex -9.116001e-001  9.000000e+000 -2.805617e+000
      vertex  9.116001e-001  9.000000e+000 -2.805617e+000
    endloop
  endfacet
  facet normal  5.877853e-001  0.000000e+000 -8.090171e-001
    outer loop
      vertex  9.116001e-001  3.000000e+000 -2.805617e+000
      vertex  9.116001e-001  9.000000e+000 -2.805617e+000
      vertex  2.386600e+000  3.000000e+000 -1.733966e+000
    endloop
  endfacet
  facet normal  5.877853e-001  0.000000e+000 -8.090171e-001
    outer loop
      vertex  2.386600e+000  3.000000e+000 -1.733966e+000
      vertex  9.116001e-001  9.000000e+000 -2.805617e+000
      vertex  2.386600e+000  9.000000e+000 -1.733966e+000
    endloop
  endfacet
  facet normal  9.510565e-001  0.000000e+000 -3.090171e-001
    outer loop
      vertex  2.386600e+000  3.000000e+000 -1.733966e+000
      vertex  2.386600e+000  9.000000e+000 -1.733966e+000
      vertex  2.950000e+000  3.000000e+000  3.612708e-016
    endloop
  endfacet
  facet normal  9.510565e-001  0.000000e+000 -3.090171e-001
    outer loop
      vertex  2.950000e+000  3.000000e+000  3.612708e-016
      vertex  2.386600e+000  9.000000e+000 -1.733966e+000
      vertex  2.950000e+000  9.000000e+000  3.612708e-016
    endloop
  endfacet
  facet normal  9.510565e-001  0.000000e+000  3.090171e-001
    outer loop
      vertex  2.950000e+000  3.000000e+000  3.612708e-016
      vertex  2.950000e+000  9.000000e+000  3.612708e-016
      vertex  2.386600e+000  3.000000e+000  1.733966e+000
    endloop
  endfacet
  facet normal  9.510565e-001  -0.000000e+000  3.090171e-001
    outer loop
      vertex  2.386600e+000  3.000000e+000  1.733966e+000
      vertex  2.950000e+000  9.000000e+000  3.612708e-016
      vertex  2.386600e+000  9.000000e+000  1.733966e+000
    endloop
  endfacet
  facet normal  5.877853e-001  0.000000e+000  8.090171e-001
    outer loop
      vertex  2.386600e+000  3.000000e+000  1.733966e+000
      vertex  2.386600e+000  9.000000e+000  1.733966e+000
      vertex  9.116001e-001  3.000000e+000  2.805617e+000
    endloop
  endfacet
  facet normal  5.877853e-001  -0.000000e+000  8.090171e-001
    outer loop
      vertex  9.116001e-001  3.000000e+000  2.805617e+000
      vertex  2.386600e+000  9.000000e+000  1.733966e+000
      vertex  9.116001e-001  9.000000e+000  2.805617e+000
    endloop
  endfacet
  facet normal  0.000000e+000  0.000000e+000  1.000000e+000
    outer loop
      vertex  9.116001e-001  3.000000e+000  2.805617e+000
      vertex  9.116001e-001  9.000000e+000  2.805617e+000
      vertex -9.116001e-001  3.000000e+000  2.805617e+000
    endloop
  endfacet
  facet normal  0.000000e+000  0.000000e+000  1.000000e+000
    outer loop
      vertex -9.116001e-001  3.000000e+000  2.805617e+000
      vertex  9.116001e-001  9.000000e+000  2.805617e+000
      vertex -9.116001e-001  9.000000e+000  2.805617e+000
    endloop
  endfacet
  facet normal -5.877853e-001  0.000000e+000  8.090171e-001
    outer loop
      vertex -9.116001e-001  3.000000e+000  2.805617e+000
      vertex -9.116001e-001  9.000000e+000  2.805617e+000
      vertex -2.386600e+000  3.000000e+000  1.733966e+000
    endloop
  endfacet
  facet normal -5.877853e-001  0.000000e+000  8.090171e-001
    outer loop
      vertex -2.386600e+000  3.000000e+000  1.733966e+000
      vertex -9.116001e-001  9.000000e+000  2.805617e+000
      vertex -2.386600e+000  9.000000e+000  1.733966e+000
    endloop
  endfacet
  facet normal -9.510565e-001  0.000000e+000  3.090171e-001
    outer loop
      vertex -2.386600e+000  3.000000e+000  1.733966e+000
      vertex -2.386600e+000  9.000000e+000  1.733966e+000
      vertex -2.950000e+000  3.000000e+000  0.000000e+000
    endloop
  endfacet
  facet normal -9.510565e-001  0.000000e+000  3.090171e-001
    outer loop
      vertex -2.950000e+000  3.000000e+000  0.000000e+000
      vertex -2.386600e+000  9.000000e+000  1.733966e+000
      vertex -2.950000e+000  9.000000e+000  0.000000e+000
    endloop
  endfacet
  facet normal  0.000000e+000  1.000000e+000  0.000000e+000
    outer loop
      vertex -9.116001e-001  9.000000e+000  2.805617e+000
      vertex  9.116001e-001  9.000000e+000  2.805617e+000
      vertex -2.386600e+000  9.000000e+000  1.733966e+000
    endloop
  endfacet
  facet normal  0.000000e+000  1.000000e+000  0.000000e+000
    outer loop
      vertex -2.386600e+000  9.000000e+000  1.733966e+000
      vertex  9.116001e-001  9.000000e+000  2.805617e+000
      vertex  2.386600e+000  9.000000e+000  1.733966e+000
    endloop
  endfacet
  facet normal  0.000000e+000  1.000000e+000  0.000000e+000
    outer loop
      vertex -2.386600e+000  9.000000e+000  1.733966e+000
      vertex  2.386600e+000  9.000000e+000  1.733966e+000
      vertex -2.950000e+000  9.000000e+000  0.000000e+000
    endloop
  endfacet
  facet normal  0.000000e+000  1.000000e+000  0.000000e+000
    outer loop
      vertex -2.950000e+000  9.000000e+000  0.000000e+000
      vertex  2.386600e+000  9.000000e+000  1.733966e+000
      vertex  2.950000e+000  9.000000e+000  3.612708e-016
    endloop
  endfacet
  facet normal  0.000000e+000  1.000000e+000  0.000000e+000
    outer loop
      vertex -2.950000e+000  9.000000e+000  0.000000e+000
      vertex  2.950000e+000  9.000000e+000  3.612708e-016
      vertex -2.386600e+000  9.000000e+000 -1.733966e+000
    endloop
  endfacet
  facet normal  0.000000e+000  1.000000e+000  0.000000e+000
    outer loop
      vertex -2.386600e+000  9.000000e+000 -1.733966e+000
      vertex  2.950000e+000  9.000000e+000  3.612708e-016
      vertex  2.386600e+000  9.000000e+000 -1.733966e+000
    endloop
  endfacet
  facet normal  0.000000e+000  1.000000e+000  0.000000e+000
    outer loop
      vertex -2.386600e+000  9.000000e+000 -1.733966e+000
      vertex  2.386600e+000  9.000000e+000 -1.733966e+000
      vertex -9.116001e-001  9.000000e+000 -2.805617e+000
    endloop
  endfacet
  facet normal  0.000000e+000  1.000000e+000  0.000000e+000
    outer loop
      vertex -9.116001e-001  9.000000e+000 -2.805617e+000
      vertex  2.386600e+000  9.000000e+000 -1.733966e+000
      vertex  9.116001e-001  9.000000e+000 -2.805617e+000
    endloop
  endfacet
  facet normal  0.000000e+000  0.000000e+000 -1.000000e+000
    outer loop
      vertex  5.800000e+001  0.000000e+000 -2.500000e+000
      vertex  9.682458e+000  0.000000e+000 -2.500000e+000
      vertex  5.800000e+001  3.000000e+000 -2.500000e+000
    endloop
  endfacet
  facet normal  -0.000000e+000  0.000000e+000 -1.000000e+000
    outer loop
      vertex  5.800000e+001  3.000000e+000 -2.500000e+000
      vertex  9.682458e+000  0.000000e+000 -2.500000e+000
      vertex  9.682458e+000  3.000000e+000 -2.500000e+000
    endloop
  endfacet
  facet normal  0.000000e+000  0.000000e+000  1.000000e+000
    outer loop
      vertex  9.682458e+000  0.000000e+000  2.500000e+000
      vertex  5.449896e+001  0.000000e+000  2.500000e+000
      vertex  9.682458e+000  3.000000e+000  2.500000e+000
    endloop
  endfacet
  facet normal  -0.000000e+000  0.000000e+000  1.000000e+000
    outer loop
      vertex  9.682458e+000  3.000000e+000  2.500000e+000
      vertex  5.449896e+001  0.000000e+000  2.500000e+000
      vertex  5.449896e+001  3.000000e+000  2.500000e+000
    endloop
  endfacet
  facet normal  9.076114e-001  0.000000e+000  4.198112e-001
    outer loop
      vertex  9.682458e+000  0.000000e+000  2.500000e+000
      vertex  9.682458e+000  3.000000e+000  2.500000e+000
      vertex  8.174685e+000  0.000000e+000  5.759733e+000
    endloop
  endfacet
  facet normal  9.076114e-001  -0.000000e+000  4.198112e-001
    outer loop
      vertex  8.174685e+000  0.000000e+000  5.759733e+000
      vertex  9.682458e+000  3.000000e+000  2.500000e+000
      vertex  8.174685e+000  3.000000e+000  5.759733e+000
    endloop
  endfacet
  facet normal  7.007477e-001  0.000000e+000  7.134091e-001
    outer loop
      vertex  8.174685e+000  0.000000e+000  5.759733e+000
      vertex  8.174685e+000  3.000000e+000  5.759733e+000
      vertex  5.612439e+000  0.000000e+000  8.276505e+000
    endloop
  endfacet
  facet normal  7.007477e-001  -0.000000e+000  7.134091e-001
    outer loop
      vertex  5.612439e+000  0.000000e+000  8.276505e+000
      vertex  8.174685e+000  3.000000e+000  5.759733e+000
      vertex  5.612439e+000  3.000000e+000  8.276505e+000
    endloop
  endfacet
  facet normal  4.034928e-001  0.000000e+000  9.149828e-001
    outer loop
      vertex  5.612439e+000  0.000000e+000  8.276505e+000
      vertex  5.612439e+000  3.000000e+000  8.276505e+000
      vertex  2.326231e+000  0.000000e+000  9.725670e+000
    endloop
  endfacet
  facet normal  4.034928e-001  -0.000000e+000  9.149828e-001
    outer loop
      vertex  2.326231e+000  0.000000e+000  9.725670e+000
      vertex  5.612439e+000  3.000000e+000  8.276505e+000
      vertex  2.326231e+000  3.000000e+000  9.725670e+000
    endloop
  endfacet
  facet normal  5.419018e-002  0.000000e+000  9.985306e-001
    outer loop
      vertex  2.326231e+000  0.000000e+000  9.725670e+000
      vertex  2.326231e+000  3.000000e+000  9.725670e+000
      vertex -1.260043e+000  0.000000e+000  9.920297e+000
    endloop
  endfacet
  facet normal  5.419018e-002  -0.000000e+000  9.985306e-001
    outer loop
      vertex -1.260043e+000  0.000000e+000  9.920297e+000
      vertex  2.326231e+000  3.000000e+000  9.725670e+000
      vertex -1.260043e+000  3.000000e+000  9.920297e+000
    endloop
  endfacet
  facet normal -3.021021e-001  0.000000e+000  9.532755e-001
    outer loop
      vertex -1.260043e+000  0.000000e+000  9.920297e+000
      vertex -1.260043e+000  3.000000e+000  9.920297e+000
      vertex -4.683781e+000  0.000000e+000  8.835281e+000
    endloop
  endfacet
  facet normal -3.021021e-001  0.000000e+000  9.532755e-001
    outer loop
      vertex -4.683781e+000  0.000000e+000  8.835281e+000
      vertex -1.260043e+000  3.000000e+000  9.920297e+000
      vertex -4.683781e+000  3.000000e+000  8.835281e+000
    endloop
  endfacet
  facet normal -6.194259e-001  0.000000e+000  7.850551e-001
    outer loop
      vertex -4.683781e+000  0.000000e+000  8.835281e+000
      vertex -4.683781e+000  3.000000e+000  8.835281e+000
      vertex -7.503347e+000  0.000000e+000  6.610581e+000
    endloop
  endfacet
  facet normal -6.194259e-001  0.000000e+000  7.850551e-001
    outer loop
      vertex -7.503347e+000  0.000000e+000  6.610581e+000
      vertex -4.683781e+000  3.000000e+000  8.835281e+000
      vertex -7.503347e+000  3.000000e+000  6.610581e+000
    endloop
  endfacet
  facet normal -8.568484e-001  0.000000e+000  5.155685e-001
    outer loop
      vertex -7.503347e+000  0.000000e+000  6.610581e+000
      vertex -7.503347e+000  3.000000e+000  6.610581e+000
      vertex -9.355038e+000  0.000000e+000  3.533166e+000
    endloop
  endfacet
  facet normal -8.568484e-001  0.000000e+000  5.155685e-001
    outer loop
      vertex -9.355038e+000  0.000000e+000  3.533166e+000
      vertex -7.503347e+000  3.000000e+000  6.610581e+000
      vertex -9.355038e+000  3.000000e+000  3.533166e+000
    endloop
  endfacet
  facet normal -9.837438e-001  0.000000e+000  1.795776e-001
    outer loop
      vertex -9.355038e+000  0.000000e+000  3.533166e+000
      vertex -9.355038e+000  3.000000e+000  3.533166e+000
      vertex -1.000000e+001  0.000000e+000  0.000000e+000
    endloop
  endfacet
  facet normal -9.837438e-001  0.000000e+000  1.795776e-001
    outer loop
      vertex -1.000000e+001  0.000000e+000  0.000000e+000
      vertex -9.355038e+000  3.000000e+000  3.533166e+000
      vertex -1.000000e+001  3.000000e+000  0.000000e+000
    endloop
  endfacet
  facet normal -9.837438e-001  -0.000000e+000 -1.795776e-001
    outer loop
      vertex -1.000000e+001  0.000000e+000  0.000000e+000
      vertex -1.000000e+001  3.000000e+000  0.000000e+000
      vertex -9.355038e+000  0.000000e+000 -3.533166e+000
    endloop
  endfacet
  facet normal -9.837438e-001  0.000000e+000 -1.795776e-001
    outer loop
      vertex -9.355038e+000  0.000000e+000 -3.533166e+000
      vertex -1.000000e+001  3.000000e+000  0.000000e+000
      vertex -9.355038e+000  3.000000e+000 -3.533166e+000
    endloop
  endfacet
  facet normal -8.568484e-001  -0.000000e+000 -5.155685e-001
    outer loop
      vertex -9.355038e+000  0.000000e+000 -3.533166e+000
      vertex -9.355038e+000  3.000000e+000 -3.533166e+000
      vertex -7.503347e+000  0.000000e+000 -6.610581e+000
    endloop
  endfacet
  facet normal -8.568484e-001  0.000000e+000 -5.155685e-001
    outer loop
      vertex -7.503347e+000  0.000000e+000 -6.610581e+000
      vertex -9.355038e+000  3.000000e+000 -3.533166e+000
      vertex -7.503347e+000  3.000000e+000 -6.610581e+000
    endloop
  endfacet
  facet normal -6.194259e-001  -0.000000e+000 -7.850551e-001
    outer loop
      vertex -7.503347e+000  0.000000e+000 -6.610581e+000
      vertex -7.503347e+000  3.000000e+000 -6.610581e+000
      vertex -4.683781e+000  0.000000e+000 -8.835281e+000
    endloop
  endfacet
  facet normal -6.194259e-001  0.000000e+000 -7.850551e-001
    outer loop
      vertex -4.683781e+000  0.000000e+000 -8.835281e+000
      vertex -7.503347e+000  3.000000e+000 -6.610581e+000
      vertex -4.683781e+000  3.000000e+000 -8.835281e+000
    endloop
  endfacet
  facet normal -3.021021e-001  -0.000000e+000 -9.532755e-001
    outer loop
      vertex -4.683781e+000  0.000000e+000 -8.835281e+000
      vertex -4.683781e+000  3.000000e+000 -8.835281e+000
      vertex -1.260043e+000  0.000000e+000 -9.920297e+000
    endloop
  endfacet
  facet normal -3.021021e-001  0.000000e+000 -9.532755e-001
    outer loop
      vertex -1.260043e+000  0.000000e+000 -9.920297e+000
      vertex -4.683781e+000  3.000000e+000 -8.835281e+000
      vertex -1.260043e+000  3.000000e+000 -9.920297e+000
    endloop
  endfacet
  facet normal  5.419018e-002  0.000000e+000 -9.985306e-001
    outer loop
      vertex -1.260043e+000  0.000000e+000 -9.920297e+000
      vertex -1.260043e+000  3.000000e+000 -9.920297e+000
      vertex  2.326231e+000  0.000000e+000 -9.725670e+000
    endloop
  endfacet
  facet normal  5.419018e-002  0.000000e+000 -9.985306e-001
    outer loop
      vertex  2.326231e+000  0.000000e+000 -9.725670e+000
      vertex -1.260043e+000  3.000000e+000 -9.920297e+000
      vertex  2.326231e+000  3.000000e+000 -9.725670e+000
    endloop
  endfacet
  facet normal  4.034928e-001  0.000000e+000 -9.149828e-001
    outer loop
      vertex  2.326231e+000  0.000000e+000 -9.725670e+000
      vertex  2.326231e+000  3.000000e+000 -9.725670e+000
      vertex  5.612439e+000  0.000000e+000 -8.276505e+000
    endloop
  endfacet
  facet normal  4.034928e-001  0.000000e+000 -9.149828e-001
    outer loop
      vertex  5.612439e+000  0.000000e+000 -8.276505e+000
      vertex  2.326231e+000  3.000000e+000 -9.725670e+000
      vertex  5.612439e+000  3.000000e+000 -8.276505e+000
    endloop
  endfacet
  facet normal  7.007477e-001  0.000000e+000 -7.134091e-001
    outer loop
      vertex  5.612439e+000  0.000000e+000 -8.276505e+000
      vertex  5.612439e+000  3.000000e+000 -8.276505e+000
      vertex  8.174685e+000  0.000000e+000 -5.759733e+000
    endloop
  endfacet
  facet normal  7.007477e-001  0.000000e+000 -7.134091e-001
    outer loop
      vertex  8.174685e+000  0.000000e+000 -5.759733e+000
      vertex  5.612439e+000  3.000000e+000 -8.276505e+000
      vertex  8.174685e+000  3.000000e+000 -5.759733e+000
    endloop
  endfacet
  facet normal  9.076114e-001  0.000000e+000 -4.198112e-001
    outer loop
      vertex  8.174685e+000  0.000000e+000 -5.759733e+000
      vertex  8.174685e+000  3.000000e+000 -5.759733e+000
      vertex  9.682458e+000  0.000000e+000 -2.500000e+000
    endloop
  endfacet
  facet normal  9.076114e-001  0.000000e+000 -4.198112e-001
    outer loop
      vertex  9.682458e+000  0.000000e+000 -2.500000e+000
      vertex  8.174685e+000  3.000000e+000 -5.759733e+000
      vertex  9.682458e+000  3.000000e+000 -2.500000e+000
    endloop
  endfacet
  facet normal -3.826851e-001  -0.000000e+000 -9.238788e-001
    outer loop
      vertex  6.762148e+001  0.000000e+000  3.274429e+001
      vertex  6.868214e+001  3.000000e+000  3.230495e+001
      vertex  6.868214e+001  0.000000e+000  3.230495e+001
    endloop
  endfacet
  facet normal -9.238797e-001  0.000000e+000 -3.826828e-001
    outer loop
      vertex  6.868214e+001  0.000000e+000  3.230495e+001
      vertex  6.868214e+001  3.000000e+000  3.230495e+001
      vertex  6.912148e+001  3.000000e+000  3.124429e+001
    endloop
  endfacet
  facet normal -9.238797e-001  -0.000000e+000 -3.826828e-001
    outer loop
      vertex  6.868214e+001  0.000000e+000  3.230495e+001
      vertex  6.912148e+001  3.000000e+000  3.124429e+001
      vertex  6.912148e+001  0.000000e+000  3.124429e+001
    endloop
  endfacet
  facet normal -3.826851e-001  0.000000e+000 -9.238788e-001
    outer loop
      vertex  6.868214e+001  3.000000e+000  3.230495e+001
      vertex  6.762148e+001  0.000000e+000  3.274429e+001
      vertex  6.762148e+001  3.000000e+000  3.274429e+001
    endloop
  endfacet
  facet normal  3.826851e-001  0.000000e+000 -9.238788e-001
    outer loop
      vertex  6.762148e+001  3.000000e+000  3.274429e+001
      vertex  6.762148e+001  0.000000e+000  3.274429e+001
      vertex  6.656081e+001  0.000000e+000  3.230495e+001
    endloop
  endfacet
  facet normal  3.826851e-001  0.000000e+000 -9.238788e-001
    outer loop
      vertex  6.762148e+001  3.000000e+000  3.274429e+001
      vertex  6.656081e+001  0.000000e+000  3.230495e+001
      vertex  6.656081e+001  3.000000e+000  3.230495e+001
    endloop
  endfacet
  facet normal  9.238797e-001  0.000000e+000 -3.826828e-001
    outer loop
      vertex  6.656081e+001  3.000000e+000  3.230495e+001
      vertex  6.656081e+001  0.000000e+000  3.230495e+001
      vertex  6.612148e+001  0.000000e+000  3.124429e+001
    endloop
  endfacet
  facet normal  9.238797e-001  0.000000e+000 -3.826828e-001
    outer loop
      vertex  6.656081e+001  3.000000e+000  3.230495e+001
      vertex  6.612148e+001  0.000000e+000  3.124429e+001
      vertex  6.612148e+001  3.000000e+000  3.124429e+001
    endloop
  endfacet
  facet normal  3.826836e-001  0.000000e+000  9.238794e-001
    outer loop
      vertex  6.762148e+001  0.000000e+000  2.974429e+001
      vertex  6.656081e+001  3.000000e+000  3.018363e+001
      vertex  6.656081e+001  0.000000e+000  3.018363e+001
    endloop
  endfacet
  facet normal  9.238797e-001  -0.000000e+000  3.826828e-001
    outer loop
      vertex  6.656081e+001  0.000000e+000  3.018363e+001
      vertex  6.656081e+001  3.000000e+000  3.018363e+001
      vertex  6.612148e+001  3.000000e+000  3.124429e+001
    endloop
  endfacet
  facet normal  9.238797e-001  0.000000e+000  3.826828e-001
    outer loop
      vertex  6.656081e+001  0.000000e+000  3.018363e+001
      vertex  6.612148e+001  3.000000e+000  3.124429e+001
      vertex  6.612148e+001  0.000000e+000  3.124429e+001
    endloop
  endfacet
  facet normal  3.826836e-001  -0.000000e+000  9.238794e-001
    outer loop
      vertex  6.656081e+001  3.000000e+000  3.018363e+001
      vertex  6.762148e+001  0.000000e+000  2.974429e+001
      vertex  6.762148e+001  3.000000e+000  2.974429e+001
    endloop
  endfacet
  facet normal -3.826836e-001  0.000000e+000  9.238794e-001
    outer loop
      vertex  6.762148e+001  3.000000e+000  2.974429e+001
      vertex  6.762148e+001  0.000000e+000  2.974429e+001
      vertex  6.868214e+001  0.000000e+000  3.018363e+001
    endloop
  endfacet
  facet normal -3.826836e-001  0.000000e+000  9.238794e-001
    outer loop
      vertex  6.762148e+001  3.000000e+000  2.974429e+001
      vertex  6.868214e+001  0.000000e+000  3.018363e+001
      vertex  6.868214e+001  3.000000e+000  3.018363e+001
    endloop
  endfacet
  facet normal -9.238797e-001  0.000000e+000  3.826828e-001
    outer loop
      vertex  6.868214e+001  3.000000e+000  3.018363e+001
      vertex  6.868214e+001  0.000000e+000  3.018363e+001
      vertex  6.912148e+001  0.000000e+000  3.124429e+001
    endloop
  endfacet
  facet normal -9.238797e-001  0.000000e+000  3.826828e-001
    outer loop
      vertex  6.868214e+001  3.000000e+000  3.018363e+001
      vertex  6.912148e+001  0.000000e+000  3.124429e+001
      vertex  6.912148e+001  3.000000e+000  3.124429e+001
    endloop
  endfacet
  facet normal  9.396926e-001  0.000000e+000 -3.420201e-001
    outer loop
      vertex  5.800000e+001  0.000000e+000 -2.500000e+000
      vertex  5.800000e+001  3.000000e+000 -2.500000e+000
      vertex  6.997070e+001  0.000000e+000  3.038924e+001
    endloop
  endfacet
  facet normal  9.396926e-001  0.000000e+000 -3.420201e-001
    outer loop
      vertex  6.997070e+001  0.000000e+000  3.038924e+001
      vertex  5.800000e+001  3.000000e+000 -2.500000e+000
      vertex  6.997070e+001  3.000000e+000  3.038924e+001
    endloop
  endfacet
  facet normal  9.990484e-001  0.000000e+000  4.361722e-002
    outer loop
      vertex  6.997070e+001  0.000000e+000  3.038924e+001
      vertex  6.997070e+001  3.000000e+000  3.038924e+001
      vertex  6.988725e+001  0.000000e+000  3.230084e+001
    endloop
  endfacet
  facet normal  9.990484e-001  -0.000000e+000  4.361722e-002
    outer loop
      vertex  6.988725e+001  0.000000e+000  3.230084e+001
      vertex  6.997070e+001  3.000000e+000  3.038924e+001
      vertex  6.988725e+001  3.000000e+000  3.230084e+001
    endloop
  endfacet
  facet normal  6.755899e-001  0.000000e+000  7.372776e-001
    outer loop
      vertex  6.988725e+001  0.000000e+000  3.230084e+001
      vertex  6.988725e+001  3.000000e+000  3.230084e+001
      vertex  6.847652e+001  0.000000e+000  3.359352e+001
    endloop
  endfacet
  facet normal  6.755899e-001  -0.000000e+000  7.372776e-001
    outer loop
      vertex  6.847652e+001  0.000000e+000  3.359352e+001
      vertex  6.988725e+001  3.000000e+000  3.230084e+001
      vertex  6.847652e+001  3.000000e+000  3.359352e+001
    endloop
  endfacet
  facet normal -4.361917e-002  0.000000e+000  9.990482e-001
    outer loop
      vertex  6.847652e+001  0.000000e+000  3.359352e+001
      vertex  6.847652e+001  3.000000e+000  3.359352e+001
      vertex  6.656493e+001  0.000000e+000  3.351006e+001
    endloop
  endfacet
  facet normal -4.361917e-002  0.000000e+000  9.990482e-001
    outer loop
      vertex  6.656493e+001  0.000000e+000  3.351006e+001
      vertex  6.847652e+001  3.000000e+000  3.359352e+001
      vertex  6.656493e+001  3.000000e+000  3.351006e+001
    endloop
  endfacet
  facet normal -7.372776e-001  0.000000e+000  6.755899e-001
    outer loop
      vertex  6.656493e+001  0.000000e+000  3.351006e+001
      vertex  6.656493e+001  3.000000e+000  3.351006e+001
      vertex  6.527224e+001  0.000000e+000  3.209934e+001
    endloop
  endfacet
  facet normal -7.372776e-001  0.000000e+000  6.755899e-001
    outer loop
      vertex  6.527224e+001  0.000000e+000  3.209934e+001
      vertex  6.656493e+001  3.000000e+000  3.351006e+001
      vertex  6.527224e+001  3.000000e+000  3.209934e+001
    endloop
  endfacet
  facet normal -9.396933e-001  0.000000e+000  3.420184e-001
    outer loop
      vertex  6.527224e+001  0.000000e+000  3.209934e+001
      vertex  6.527224e+001  3.000000e+000  3.209934e+001
      vertex  6.458820e+001  0.000000e+000  3.021996e+001
    endloop
  endfacet
  facet normal -9.396933e-001  0.000000e+000  3.420184e-001
    outer loop
      vertex  6.458820e+001  0.000000e+000  3.021996e+001
      vertex  6.527224e+001  3.000000e+000  3.209934e+001
      vertex  6.458820e+001  3.000000e+000  3.021996e+001
    endloop
  endfacet
  facet normal -9.396925e-001  0.000000e+000  3.420204e-001
    outer loop
      vertex  6.458820e+001  0.000000e+000  3.021996e+001
      vertex  6.458820e+001  3.000000e+000  3.021996e+001
      vertex  6.116800e+001  0.000000e+000  2.082303e+001
    endloop
  endfacet
  facet normal -9.396925e-001  0.000000e+000  3.420204e-001
    outer loop
      vertex  6.116800e+001  0.000000e+000  2.082303e+001
      vertex  6.458820e+001  3.000000e+000  3.021996e+001
      vertex  6.116800e+001  3.000000e+000  2.082303e+001
    endloop
  endfacet
  facet normal -9.396926e-001  0.000000e+000  3.420201e-001
    outer loop
      vertex  6.116800e+001  0.000000e+000  2.082303e+001
      vertex  6.116800e+001  3.000000e+000  2.082303e+001
      vertex  5.449896e+001  0.000000e+000  2.500000e+000
    endloop
  endfacet
  facet normal -9.396926e-001  0.000000e+000  3.420201e-001
    outer loop
      vertex  5.449896e+001  0.000000e+000  2.500000e+000
      vertex  6.116800e+001  3.000000e+000  2.082303e+001
      vertex  5.449896e+001  3.000000e+000  2.500000e+000
    endloop
  endfacet
  facet normal -7.933534e-001  0.000000e+000  6.087614e-001
    outer loop
      vertex  3.438328e+000  0.000000e+000  6.843274e+000
      vertex  2.716143e+000  3.000000e+000  5.902104e+000
      vertex  2.716143e+000  0.000000e+000  5.902104e+000
    endloop
  endfacet
  facet normal -1.305262e-001  0.000000e+000  9.914449e-001
    outer loop
      vertex  2.716143e+000  0.000000e+000  5.902104e+000
      vertex  2.716143e+000  3.000000e+000  5.902104e+000
      vertex  1.539973e+000  3.000000e+000  5.747259e+000
    endloop
  endfacet
  facet normal -1.305262e-001  0.000000e+000  9.914449e-001
    outer loop
      vertex  2.716143e+000  0.000000e+000  5.902104e+000
      vertex  1.539973e+000  3.000000e+000  5.747259e+000
      vertex  1.539973e+000  0.000000e+000  5.747259e+000
    endloop
  endfacet
  facet normal -7.933534e-001  0.000000e+000  6.087614e-001
    outer loop
      vertex  2.716143e+000  3.000000e+000  5.902104e+000
      vertex  3.438328e+000  0.000000e+000  6.843274e+000
      vertex  3.438328e+000  3.000000e+000  6.843274e+000
    endloop
  endfacet
  facet normal -9.914449e-001  -0.000000e+000 -1.305261e-001
    outer loop
      vertex  3.438328e+000  3.000000e+000  6.843274e+000
      vertex  3.438328e+000  0.000000e+000  6.843274e+000
      vertex  3.283482e+000  0.000000e+000  8.019444e+000
    endloop
  endfacet
  facet normal -9.914449e-001  0.000000e+000 -1.305261e-001
    outer loop
      vertex  3.438328e+000  3.000000e+000  6.843274e+000
      vertex  3.283482e+000  0.000000e+000  8.019444e+000
      vertex  3.283482e+000  3.000000e+000  8.019444e+000
    endloop
  endfacet
  facet normal -6.087614e-001  -0.000000e+000 -7.933533e-001
    outer loop
      vertex  3.283482e+000  3.000000e+000  8.019444e+000
      vertex  3.283482e+000  0.000000e+000  8.019444e+000
      vertex  2.342312e+000  0.000000e+000  8.741629e+000
    endloop
  endfacet
  facet normal -6.087614e-001  0.000000e+000 -7.933533e-001
    outer loop
      vertex  3.283482e+000  3.000000e+000  8.019444e+000
      vertex  2.342312e+000  0.000000e+000  8.741629e+000
      vertex  2.342312e+000  3.000000e+000  8.741629e+000
    endloop
  endfacet
  facet normal  1.305261e-001  0.000000e+000  9.914449e-001
    outer loop
      vertex  1.539973e+000  0.000000e+000  5.747259e+000
      vertex  1.539973e+000  3.000000e+000  5.747259e+000
      vertex -1.685498e-015  0.000000e+000  5.950000e+000
    endloop
  endfacet
  facet normal  1.305261e-001  -0.000000e+000  9.914449e-001
    outer loop
      vertex -1.685498e-015  0.000000e+000  5.950000e+000
      vertex  1.539973e+000  3.000000e+000  5.747259e+000
      vertex -1.685498e-015  3.000000e+000  5.950000e+000
    endloop
  endfacet
  facet normal -1.305261e-001  0.000000e+000  9.914449e-001
    outer loop
      vertex -1.685498e-015  0.000000e+000  5.950000e+000
      vertex -1.685498e-015  3.000000e+000  5.950000e+000
      vertex -1.539973e+000  0.000000e+000  5.747259e+000
    endloop
  endfacet
  facet normal -1.305261e-001  0.000000e+000  9.914449e-001
    outer loop
      vertex -1.539973e+000  0.000000e+000  5.747259e+000
      vertex -1.685498e-015  3.000000e+000  5.950000e+000
      vertex -1.539973e+000  3.000000e+000  5.747259e+000
    endloop
  endfacet
  facet normal  9.914449e-001  0.000000e+000 -1.305261e-001
    outer loop
      vertex -3.438328e+000  0.000000e+000  6.843274e+000
      vertex -3.283482e+000  3.000000e+000  8.019444e+000
      vertex -3.283482e+000  0.000000e+000  8.019444e+000
    endloop
  endfacet
  facet normal  6.087614e-001  0.000000e+000 -7.933533e-001
    outer loop
      vertex -3.283482e+000  0.000000e+000  8.019444e+000
      vertex -3.283482e+000  3.000000e+000  8.019444e+000
      vertex -2.342312e+000  3.000000e+000  8.741629e+000
    endloop
  endfacet
  facet normal  6.087614e-001  0.000000e+000 -7.933533e-001
    outer loop
      vertex -3.283482e+000  0.000000e+000  8.019444e+000
      vertex -2.342312e+000  3.000000e+000  8.741629e+000
      vertex -2.342312e+000  0.000000e+000  8.741629e+000
    endloop
  endfacet
  facet normal  9.914449e-001  0.000000e+000 -1.305261e-001
    outer loop
      vertex -3.283482e+000  3.000000e+000  8.019444e+000
      vertex -3.438328e+000  0.000000e+000  6.843274e+000
      vertex -3.438328e+000  3.000000e+000  6.843274e+000
    endloop
  endfacet
  facet normal  7.933534e-001  0.000000e+000  6.087614e-001
    outer loop
      vertex -3.438328e+000  3.000000e+000  6.843274e+000
      vertex -3.438328e+000  0.000000e+000  6.843274e+000
      vertex -2.716143e+000  0.000000e+000  5.902104e+000
    endloop
  endfacet
  facet normal  7.933534e-001  -0.000000e+000  6.087614e-001
    outer loop
      vertex -3.438328e+000  3.000000e+000  6.843274e+000
      vertex -2.716143e+000  0.000000e+000  5.902104e+000
      vertex -2.716143e+000  3.000000e+000  5.902104e+000
    endloop
  endfacet
  facet normal  1.305262e-001  0.000000e+000  9.914449e-001
    outer loop
      vertex -2.716143e+000  3.000000e+000  5.902104e+000
      vertex -2.716143e+000  0.000000e+000  5.902104e+000
      vertex -1.539973e+000  0.000000e+000  5.747259e+000
    endloop
  endfacet
  facet normal  1.305262e-001  -0.000000e+000  9.914449e-001
    outer loop
      vertex -2.716143e+000  3.000000e+000  5.902104e+000
      vertex -1.539973e+000  0.000000e+000  5.747259e+000
      vertex -1.539973e+000  3.000000e+000  5.747259e+000
    endloop
  endfacet
  facet normal -1.305263e-001  0.000000e+000 -9.914448e-001
    outer loop
      vertex  2.342312e+000  0.000000e+000  8.741629e+000
      vertex -5.541527e-016  0.000000e+000  9.050000e+000
      vertex  2.342312e+000  3.000000e+000  8.741629e+000
    endloop
  endfacet
  facet normal -1.305263e-001  0.000000e+000 -9.914448e-001
    outer loop
      vertex  2.342312e+000  3.000000e+000  8.741629e+000
      vertex -5.541527e-016  0.000000e+000  9.050000e+000
      vertex -5.541527e-016  3.000000e+000  9.050000e+000
    endloop
  endfacet
  facet normal  1.305263e-001  0.000000e+000 -9.914448e-001
    outer loop
      vertex -5.541527e-016  0.000000e+000  9.050000e+000
      vertex -2.342312e+000  0.000000e+000  8.741629e+000
      vertex -5.541527e-016  3.000000e+000  9.050000e+000
    endloop
  endfacet
  facet normal  1.305263e-001  0.000000e+000 -9.914448e-001
    outer loop
      vertex -5.541527e-016  3.000000e+000  9.050000e+000
      vertex -2.342312e+000  0.000000e+000  8.741629e+000
      vertex -2.342312e+000  3.000000e+000  8.741629e+000
    endloop
  endfacet
endsolid CATIA STL
