solid CATIA STL
  facet normal  0.000000e+000  1.000000e+000  0.000000e+000
    outer loop
      vertex  9.192388e-001  7.000000e+000  9.192388e-001
      vertex -9.192388e-001  7.000000e+000  9.192388e-001
      vertex -7.960204e-017  7.000000e+000  1.300000e+000
    endloop
  endfacet
  facet normal  0.000000e+000  1.000000e+000  0.000000e+000
    outer loop
      vertex -9.192388e-001  7.000000e+000  9.192388e-001
      vertex  9.192388e-001  7.000000e+000  9.192388e-001
      vertex -1.300000e+000  7.000000e+000  0.000000e+000
    endloop
  endfacet
  facet normal  0.000000e+000  1.000000e+000  0.000000e+000
    outer loop
      vertex -1.300000e+000  7.000000e+000  0.000000e+000
      vertex  9.192388e-001  7.000000e+000  9.192388e-001
      vertex  1.300000e+000  7.000000e+000  1.592041e-016
    endloop
  endfacet
  facet normal  0.000000e+000  1.000000e+000  0.000000e+000
    outer loop
      vertex -1.300000e+000  7.000000e+000  0.000000e+000
      vertex  1.300000e+000  7.000000e+000  1.592041e-016
      vertex -9.192388e-001  7.000000e+000 -9.192388e-001
    endloop
  endfacet
  facet normal  0.000000e+000  1.000000e+000  0.000000e+000
    outer loop
      vertex -9.192388e-001  7.000000e+000 -9.192388e-001
      vertex  1.300000e+000  7.000000e+000  1.592041e-016
      vertex  9.192388e-001  7.000000e+000 -9.192388e-001
    endloop
  endfacet
  facet normal  0.000000e+000  1.000000e+000  0.000000e+000
    outer loop
      vertex -9.192388e-001  7.000000e+000 -9.192388e-001
      vertex  9.192388e-001  7.000000e+000 -9.192388e-001
      vertex  2.388061e-016  7.000000e+000 -1.300000e+000
    endloop
  endfacet
  facet normal  0.000000e+000 -1.000000e+000  0.000000e+000
    outer loop
      vertex -7.960204e-017  0.000000e+000  1.300000e+000
      vertex -9.192388e-001  0.000000e+000  9.192388e-001
      vertex  9.192388e-001  0.000000e+000  9.192388e-001
    endloop
  endfacet
  facet normal  -0.000000e+000 -1.000000e+000  0.000000e+000
    outer loop
      vertex  2.388061e-016  0.000000e+000 -1.300000e+000
      vertex  9.192388e-001  0.000000e+000 -9.192388e-001
      vertex -9.192388e-001  0.000000e+000 -9.192388e-001
    endloop
  endfacet
  facet normal  0.000000e+000 -1.000000e+000  0.000000e+000
    outer loop
      vertex -9.192388e-001  0.000000e+000 -9.192388e-001
      vertex  9.192388e-001  0.000000e+000 -9.192388e-001
      vertex  1.300000e+000  0.000000e+000  1.592041e-016
    endloop
  endfacet
  facet normal  0.000000e+000 -1.000000e+000  0.000000e+000
    outer loop
      vertex -9.192388e-001  0.000000e+000 -9.192388e-001
      vertex  1.300000e+000  0.000000e+000  1.592041e-016
      vertex -1.300000e+000  0.000000e+000  0.000000e+000
    endloop
  endfacet
  facet normal  0.000000e+000 -1.000000e+000  0.000000e+000
    outer loop
      vertex -1.300000e+000  0.000000e+000  0.000000e+000
      vertex  1.300000e+000  0.000000e+000  1.592041e-016
      vertex  9.192388e-001  0.000000e+000  9.192388e-001
    endloop
  endfacet
  facet normal  -0.000000e+000 -1.000000e+000  0.000000e+000
    outer loop
      vertex -1.300000e+000  0.000000e+000  0.000000e+000
      vertex  9.192388e-001  0.000000e+000  9.192388e-001
      vertex -9.192388e-001  0.000000e+000  9.192388e-001
    endloop
  endfacet
  facet normal -9.238795e-001  -0.000000e+000 -3.826834e-001
    outer loop
      vertex -1.300000e+000  0.000000e+000  0.000000e+000
      vertex -1.300000e+000  7.000000e+000  0.000000e+000
      vertex -9.192388e-001  0.000000e+000 -9.192388e-001
    endloop
  endfacet
  facet normal -9.238795e-001  0.000000e+000 -3.826834e-001
    outer loop
      vertex -9.192388e-001  0.000000e+000 -9.192388e-001
      vertex -1.300000e+000  7.000000e+000  0.000000e+000
      vertex -9.192388e-001  7.000000e+000 -9.192388e-001
    endloop
  endfacet
  facet normal -3.826834e-001  -0.000000e+000 -9.238795e-001
    outer loop
      vertex -9.192388e-001  0.000000e+000 -9.192388e-001
      vertex -9.192388e-001  7.000000e+000 -9.192388e-001
      vertex  2.388061e-016  0.000000e+000 -1.300000e+000
    endloop
  endfacet
  facet normal -3.826834e-001  0.000000e+000 -9.238795e-001
    outer loop
      vertex  2.388061e-016  0.000000e+000 -1.300000e+000
      vertex -9.192388e-001  7.000000e+000 -9.192388e-001
      vertex  2.388061e-016  7.000000e+000 -1.300000e+000
    endloop
  endfacet
  facet normal  3.826834e-001  0.000000e+000 -9.238795e-001
    outer loop
      vertex  2.388061e-016  0.000000e+000 -1.300000e+000
      vertex  2.388061e-016  7.000000e+000 -1.300000e+000
      vertex  9.192388e-001  0.000000e+000 -9.192388e-001
    endloop
  endfacet
  facet normal  3.826834e-001  0.000000e+000 -9.238795e-001
    outer loop
      vertex  9.192388e-001  0.000000e+000 -9.192388e-001
      vertex  2.388061e-016  7.000000e+000 -1.300000e+000
      vertex  9.192388e-001  7.000000e+000 -9.192388e-001
    endloop
  endfacet
  facet normal  9.238795e-001  0.000000e+000 -3.826834e-001
    outer loop
      vertex  9.192388e-001  0.000000e+000 -9.192388e-001
      vertex  9.192388e-001  7.000000e+000 -9.192388e-001
      vertex  1.300000e+000  0.000000e+000  1.592041e-016
    endloop
  endfacet
  facet normal  9.238795e-001  0.000000e+000 -3.826834e-001
    outer loop
      vertex  1.300000e+000  0.000000e+000  1.592041e-016
      vertex  9.192388e-001  7.000000e+000 -9.192388e-001
      vertex  1.300000e+000  7.000000e+000  1.592041e-016
    endloop
  endfacet
  facet normal  9.238795e-001  0.000000e+000  3.826834e-001
    outer loop
      vertex  1.300000e+000  0.000000e+000  1.592041e-016
      vertex  1.300000e+000  7.000000e+000  1.592041e-016
      vertex  9.192388e-001  0.000000e+000  9.192388e-001
    endloop
  endfacet
  facet normal  9.238795e-001  -0.000000e+000  3.826834e-001
    outer loop
      vertex  9.192388e-001  0.000000e+000  9.192388e-001
      vertex  1.300000e+000  7.000000e+000  1.592041e-016
      vertex  9.192388e-001  7.000000e+000  9.192388e-001
    endloop
  endfacet
  facet normal  3.826834e-001  0.000000e+000  9.238795e-001
    outer loop
      vertex  9.192388e-001  0.000000e+000  9.192388e-001
      vertex  9.192388e-001  7.000000e+000  9.192388e-001
      vertex -7.960204e-017  0.000000e+000  1.300000e+000
    endloop
  endfacet
  facet normal  3.826834e-001  -0.000000e+000  9.238795e-001
    outer loop
      vertex -7.960204e-017  0.000000e+000  1.300000e+000
      vertex  9.192388e-001  7.000000e+000  9.192388e-001
      vertex -7.960204e-017  7.000000e+000  1.300000e+000
    endloop
  endfacet
  facet normal -3.826834e-001  0.000000e+000  9.238795e-001
    outer loop
      vertex -7.960204e-017  0.000000e+000  1.300000e+000
      vertex -7.960204e-017  7.000000e+000  1.300000e+000
      vertex -9.192388e-001  0.000000e+000  9.192388e-001
    endloop
  endfacet
  facet normal -3.826834e-001  0.000000e+000  9.238795e-001
    outer loop
      vertex -9.192388e-001  0.000000e+000  9.192388e-001
      vertex -7.960204e-017  7.000000e+000  1.300000e+000
      vertex -9.192388e-001  7.000000e+000  9.192388e-001
    endloop
  endfacet
  facet normal -9.238795e-001  0.000000e+000  3.826834e-001
    outer loop
      vertex -9.192388e-001  0.000000e+000  9.192388e-001
      vertex -9.192388e-001  7.000000e+000  9.192388e-001
      vertex -1.300000e+000  0.000000e+000  0.000000e+000
    endloop
  endfacet
  facet normal -9.238795e-001  0.000000e+000  3.826834e-001
    outer loop
      vertex -1.300000e+000  0.000000e+000  0.000000e+000
      vertex -9.192388e-001  7.000000e+000  9.192388e-001
      vertex -1.300000e+000  7.000000e+000  0.000000e+000
    endloop
  endfacet
endsolid CATIA STL
