solid CATIA STL
  facet normal  0.000000e+000  -0.000000e+000  1.000000e+000
    outer loop
      vertex -7.000000e+000  0.000000e+000  3.500000e+000
      vertex -2.500000e+000  0.000000e+000  3.500000e+000
      vertex -2.500000e+000  1.800000e+000  3.500000e+000
    endloop
  endfacet
  facet normal  0.000000e+000  -0.000000e+000  1.000000e+000
    outer loop
      vertex -7.000000e+000  0.000000e+000  3.500000e+000
      vertex -2.500000e+000  1.800000e+000  3.500000e+000
      vertex -2.500000e+000  5.200000e+000  3.500000e+000
    endloop
  endfacet
  facet normal  0.000000e+000  -0.000000e+000  1.000000e+000
    outer loop
      vertex -7.000000e+000  0.000000e+000  3.500000e+000
      vertex -2.500000e+000  5.200000e+000  3.500000e+000
      vertex -2.500000e+000  7.000000e+000  3.500000e+000
    endloop
  endfacet
  facet normal  0.000000e+000  0.000000e+000  1.000000e+000
    outer loop
      vertex -7.000000e+000  0.000000e+000  3.500000e+000
      vertex -2.500000e+000  7.000000e+000  3.500000e+000
      vertex -7.000000e+000  7.000000e+000  3.500000e+000
    endloop
  endfacet
  facet normal  -0.000000e+000  0.000000e+000  1.000000e+000
    outer loop
      vertex  7.000000e+000  7.000000e+000  3.500000e+000
      vertex  2.500000e+000  7.000000e+000  3.500000e+000
      vertex  2.500000e+000  5.200000e+000  3.500000e+000
    endloop
  endfacet
  facet normal  -0.000000e+000  0.000000e+000  1.000000e+000
    outer loop
      vertex  7.000000e+000  7.000000e+000  3.500000e+000
      vertex  2.500000e+000  5.200000e+000  3.500000e+000
      vertex  2.500000e+000  1.800000e+000  3.500000e+000
    endloop
  endfacet
  facet normal  -0.000000e+000  0.000000e+000  1.000000e+000
    outer loop
      vertex  7.000000e+000  7.000000e+000  3.500000e+000
      vertex  2.500000e+000  1.800000e+000  3.500000e+000
      vertex  2.500000e+000  0.000000e+000  3.500000e+000
    endloop
  endfacet
  facet normal  0.000000e+000  0.000000e+000  1.000000e+000
    outer loop
      vertex  7.000000e+000  7.000000e+000  3.500000e+000
      vertex  2.500000e+000  0.000000e+000  3.500000e+000
      vertex  7.000000e+000  0.000000e+000  3.500000e+000
    endloop
  endfacet
  facet normal  -0.000000e+000  0.000000e+000  1.000000e+000
    outer loop
      vertex  2.500000e+000  5.200000e+000  3.500000e+000
      vertex -2.500000e+000  5.200000e+000  3.500000e+000
      vertex  2.500000e+000  1.800000e+000  3.500000e+000
    endloop
  endfacet
  facet normal  0.000000e+000  0.000000e+000  1.000000e+000
    outer loop
      vertex  2.500000e+000  1.800000e+000  3.500000e+000
      vertex -2.500000e+000  5.200000e+000  3.500000e+000
      vertex -2.500000e+000  1.800000e+000  3.500000e+000
    endloop
  endfacet
  facet normal  0.000000e+000  1.000000e+000  0.000000e+000
    outer loop
      vertex -2.500000e+000  1.800000e+000  3.500000e+000
      vertex -1.060660e+000  1.800000e+000  4.939340e+000
      vertex  2.664535e-015  1.800000e+000  4.500000e+000
    endloop
  endfacet
  facet normal  0.000000e+000  1.000000e+000  0.000000e+000
    outer loop
      vertex -2.500000e+000  1.800000e+000  3.500000e+000
      vertex -2.500000e+000  1.800000e+000  6.000000e+000
      vertex -1.060660e+000  1.800000e+000  4.939340e+000
    endloop
  endfacet
  facet normal  0.000000e+000  1.000000e+000  0.000000e+000
    outer loop
      vertex  1.767767e+000  1.800000e+000  7.767767e+000
      vertex -8.881784e-016  1.800000e+000  7.500000e+000
      vertex -8.881784e-016  1.800000e+000  8.500000e+000
    endloop
  endfacet
  facet normal  0.000000e+000  1.000000e+000  0.000000e+000
    outer loop
      vertex -1.500000e+000  1.800000e+000  6.000000e+000
      vertex -1.060660e+000  1.800000e+000  4.939340e+000
      vertex -2.500000e+000  1.800000e+000  6.000000e+000
    endloop
  endfacet
  facet normal  0.000000e+000  1.000000e+000  0.000000e+000
    outer loop
      vertex  2.500000e+000  1.800000e+000  3.500000e+000
      vertex -2.500000e+000  1.800000e+000  3.500000e+000
      vertex  2.664535e-015  1.800000e+000  4.500000e+000
    endloop
  endfacet
  facet normal  -0.000000e+000  1.000000e+000  0.000000e+000
    outer loop
      vertex  2.500000e+000  1.800000e+000  3.500000e+000
      vertex  2.664535e-015  1.800000e+000  4.500000e+000
      vertex  1.060660e+000  1.800000e+000  4.939340e+000
    endloop
  endfacet
  facet normal  -0.000000e+000  1.000000e+000  0.000000e+000
    outer loop
      vertex  2.500000e+000  1.800000e+000  3.500000e+000
      vertex  1.060660e+000  1.800000e+000  4.939340e+000
      vertex  1.500000e+000  1.800000e+000  6.000000e+000
    endloop
  endfacet
  facet normal  -0.000000e+000  1.000000e+000  0.000000e+000
    outer loop
      vertex  2.500000e+000  1.800000e+000  3.500000e+000
      vertex  1.500000e+000  1.800000e+000  6.000000e+000
      vertex  2.500000e+000  1.800000e+000  6.000000e+000
    endloop
  endfacet
  facet normal  0.000000e+000  1.000000e+000  0.000000e+000
    outer loop
      vertex -1.767767e+000  1.800000e+000  7.767767e+000
      vertex -8.881784e-016  1.800000e+000  8.500000e+000
      vertex -8.881784e-016  1.800000e+000  7.500000e+000
    endloop
  endfacet
  facet normal  0.000000e+000  1.000000e+000  0.000000e+000
    outer loop
      vertex -1.767767e+000  1.800000e+000  7.767767e+000
      vertex -8.881784e-016  1.800000e+000  7.500000e+000
      vertex -1.060660e+000  1.800000e+000  7.060660e+000
    endloop
  endfacet
  facet normal  0.000000e+000  1.000000e+000  0.000000e+000
    outer loop
      vertex -1.767767e+000  1.800000e+000  7.767767e+000
      vertex -1.060660e+000  1.800000e+000  7.060660e+000
      vertex -1.500000e+000  1.800000e+000  6.000000e+000
    endloop
  endfacet
  facet normal  0.000000e+000  1.000000e+000  0.000000e+000
    outer loop
      vertex -1.767767e+000  1.800000e+000  7.767767e+000
      vertex -1.500000e+000  1.800000e+000  6.000000e+000
      vertex -2.500000e+000  1.800000e+000  6.000000e+000
    endloop
  endfacet
  facet normal  0.000000e+000  1.000000e+000  0.000000e+000
    outer loop
      vertex  2.500000e+000  1.800000e+000  6.000000e+000
      vertex  1.500000e+000  1.800000e+000  6.000000e+000
      vertex  1.767767e+000  1.800000e+000  7.767767e+000
    endloop
  endfacet
  facet normal  0.000000e+000  1.000000e+000  0.000000e+000
    outer loop
      vertex  1.767767e+000  1.800000e+000  7.767767e+000
      vertex  1.500000e+000  1.800000e+000  6.000000e+000
      vertex  1.060660e+000  1.800000e+000  7.060660e+000
    endloop
  endfacet
  facet normal  0.000000e+000  1.000000e+000  -0.000000e+000
    outer loop
      vertex  1.767767e+000  1.800000e+000  7.767767e+000
      vertex  1.060660e+000  1.800000e+000  7.060660e+000
      vertex -8.881784e-016  1.800000e+000  7.500000e+000
    endloop
  endfacet
  facet normal  -0.000000e+000 -1.000000e+000  0.000000e+000
    outer loop
      vertex -2.500000e+000  5.200000e+000  3.500000e+000
      vertex -4.440892e-016  5.200000e+000  4.500000e+000
      vertex -1.060660e+000  5.200000e+000  4.939340e+000
    endloop
  endfacet
  facet normal  -0.000000e+000 -1.000000e+000  -0.000000e+000
    outer loop
      vertex  2.500000e+000  5.200000e+000  3.500000e+000
      vertex  2.500000e+000  5.200000e+000  6.000000e+000
      vertex  1.500000e+000  5.200000e+000  6.000000e+000
    endloop
  endfacet
  facet normal  0.000000e+000 -1.000000e+000  -0.000000e+000
    outer loop
      vertex  2.500000e+000  5.200000e+000  3.500000e+000
      vertex  1.500000e+000  5.200000e+000  6.000000e+000
      vertex  1.060660e+000  5.200000e+000  4.939340e+000
    endloop
  endfacet
  facet normal  0.000000e+000 -1.000000e+000  -0.000000e+000
    outer loop
      vertex  2.500000e+000  5.200000e+000  3.500000e+000
      vertex  1.060660e+000  5.200000e+000  4.939340e+000
      vertex -4.440892e-016  5.200000e+000  4.500000e+000
    endloop
  endfacet
  facet normal  0.000000e+000 -1.000000e+000  -0.000000e+000
    outer loop
      vertex  2.500000e+000  5.200000e+000  3.500000e+000
      vertex -4.440892e-016  5.200000e+000  4.500000e+000
      vertex -2.500000e+000  5.200000e+000  3.500000e+000
    endloop
  endfacet
  facet normal  0.000000e+000 -1.000000e+000  0.000000e+000
    outer loop
      vertex  1.500000e+000  5.200000e+000  6.000000e+000
      vertex  2.500000e+000  5.200000e+000  6.000000e+000
      vertex  1.060660e+000  5.200000e+000  7.060660e+000
    endloop
  endfacet
  facet normal  0.000000e+000 -1.000000e+000  0.000000e+000
    outer loop
      vertex  1.060660e+000  5.200000e+000  7.060660e+000
      vertex  2.500000e+000  5.200000e+000  6.000000e+000
      vertex  1.767767e+000  5.200000e+000  7.767767e+000
    endloop
  endfacet
  facet normal  0.000000e+000 -1.000000e+000  0.000000e+000
    outer loop
      vertex  1.060660e+000  5.200000e+000  7.060660e+000
      vertex  1.767767e+000  5.200000e+000  7.767767e+000
      vertex  3.552714e-015  5.200000e+000  7.500000e+000
    endloop
  endfacet
  facet normal  0.000000e+000 -1.000000e+000  0.000000e+000
    outer loop
      vertex  3.552714e-015  5.200000e+000  7.500000e+000
      vertex  1.767767e+000  5.200000e+000  7.767767e+000
      vertex  0.000000e+000  5.200000e+000  8.500000e+000
    endloop
  endfacet
  facet normal  0.000000e+000 -1.000000e+000  -0.000000e+000
    outer loop
      vertex  3.552714e-015  5.200000e+000  7.500000e+000
      vertex  0.000000e+000  5.200000e+000  8.500000e+000
      vertex -1.767767e+000  5.200000e+000  7.767767e+000
    endloop
  endfacet
  facet normal  -0.000000e+000 -1.000000e+000  0.000000e+000
    outer loop
      vertex -2.500000e+000  5.200000e+000  3.500000e+000
      vertex -1.060660e+000  5.200000e+000  4.939340e+000
      vertex -2.500000e+000  5.200000e+000  6.000000e+000
    endloop
  endfacet
  facet normal  0.000000e+000 -1.000000e+000  0.000000e+000
    outer loop
      vertex -2.500000e+000  5.200000e+000  6.000000e+000
      vertex -1.060660e+000  5.200000e+000  4.939340e+000
      vertex -1.500000e+000  5.200000e+000  6.000000e+000
    endloop
  endfacet
  facet normal  0.000000e+000 -1.000000e+000  0.000000e+000
    outer loop
      vertex -2.500000e+000  5.200000e+000  6.000000e+000
      vertex -1.500000e+000  5.200000e+000  6.000000e+000
      vertex -1.767767e+000  5.200000e+000  7.767767e+000
    endloop
  endfacet
  facet normal  0.000000e+000 -1.000000e+000  0.000000e+000
    outer loop
      vertex -1.767767e+000  5.200000e+000  7.767767e+000
      vertex -1.500000e+000  5.200000e+000  6.000000e+000
      vertex -1.060660e+000  5.200000e+000  7.060660e+000
    endloop
  endfacet
  facet normal  0.000000e+000 -1.000000e+000  0.000000e+000
    outer loop
      vertex -1.767767e+000  5.200000e+000  7.767767e+000
      vertex -1.060660e+000  5.200000e+000  7.060660e+000
      vertex  3.552714e-015  5.200000e+000  7.500000e+000
    endloop
  endfacet
  facet normal -1.000000e+000  -0.000000e+000  0.000000e+000
    outer loop
      vertex -2.500000e+000  5.200000e+000  6.000000e+000
      vertex -2.500000e+000  7.000000e+000  6.000000e+000
      vertex -2.500000e+000  5.200000e+000  3.500000e+000
    endloop
  endfacet
  facet normal -1.000000e+000  0.000000e+000  0.000000e+000
    outer loop
      vertex -2.500000e+000  5.200000e+000  3.500000e+000
      vertex -2.500000e+000  7.000000e+000  6.000000e+000
      vertex -2.500000e+000  7.000000e+000  3.500000e+000
    endloop
  endfacet
  facet normal -1.000000e+000  -0.000000e+000  0.000000e+000
    outer loop
      vertex -2.500000e+000  0.000000e+000  6.000000e+000
      vertex -2.500000e+000  1.800000e+000  6.000000e+000
      vertex -2.500000e+000  0.000000e+000  3.500000e+000
    endloop
  endfacet
  facet normal -1.000000e+000  0.000000e+000  0.000000e+000
    outer loop
      vertex -2.500000e+000  0.000000e+000  3.500000e+000
      vertex -2.500000e+000  1.800000e+000  6.000000e+000
      vertex -2.500000e+000  1.800000e+000  3.500000e+000
    endloop
  endfacet
  facet normal  9.238796e-001  0.000000e+000  3.826835e-001
    outer loop
      vertex  2.500000e+000  5.200000e+000  6.000000e+000
      vertex  2.500000e+000  7.000000e+000  6.000000e+000
      vertex  1.767767e+000  5.200000e+000  7.767767e+000
    endloop
  endfacet
  facet normal  9.238796e-001  -0.000000e+000  3.826835e-001
    outer loop
      vertex  1.767767e+000  5.200000e+000  7.767767e+000
      vertex  2.500000e+000  7.000000e+000  6.000000e+000
      vertex  1.767767e+000  7.000000e+000  7.767767e+000
    endloop
  endfacet
  facet normal  3.826835e-001  0.000000e+000  9.238796e-001
    outer loop
      vertex  1.767767e+000  5.200000e+000  7.767767e+000
      vertex  1.767767e+000  7.000000e+000  7.767767e+000
      vertex  0.000000e+000  5.200000e+000  8.500000e+000
    endloop
  endfacet
  facet normal  3.826835e-001  3.254528e-017  9.238796e-001
    outer loop
      vertex  0.000000e+000  5.200000e+000  8.500000e+000
      vertex  1.767767e+000  7.000000e+000  7.767767e+000
      vertex -1.530808e-016  7.000000e+000  8.500000e+000
    endloop
  endfacet
  facet normal -3.826835e-001 -3.254528e-017  9.238796e-001
    outer loop
      vertex  0.000000e+000  5.200000e+000  8.500000e+000
      vertex -1.530808e-016  7.000000e+000  8.500000e+000
      vertex -1.767767e+000  5.200000e+000  7.767767e+000
    endloop
  endfacet
  facet normal -3.826835e-001  0.000000e+000  9.238796e-001
    outer loop
      vertex -1.767767e+000  5.200000e+000  7.767767e+000
      vertex -1.530808e-016  7.000000e+000  8.500000e+000
      vertex -1.767767e+000  7.000000e+000  7.767767e+000
    endloop
  endfacet
  facet normal -9.238796e-001  0.000000e+000  3.826835e-001
    outer loop
      vertex -1.767767e+000  5.200000e+000  7.767767e+000
      vertex -1.767767e+000  7.000000e+000  7.767767e+000
      vertex -2.500000e+000  5.200000e+000  6.000000e+000
    endloop
  endfacet
  facet normal -9.238796e-001  0.000000e+000  3.826835e-001
    outer loop
      vertex -2.500000e+000  5.200000e+000  6.000000e+000
      vertex -1.767767e+000  7.000000e+000  7.767767e+000
      vertex -2.500000e+000  7.000000e+000  6.000000e+000
    endloop
  endfacet
  facet normal  9.238794e-001  0.000000e+000  3.826834e-001
    outer loop
      vertex  2.500000e+000  0.000000e+000  6.000000e+000
      vertex  2.500000e+000  1.800000e+000  6.000000e+000
      vertex  1.767767e+000  0.000000e+000  7.767767e+000
    endloop
  endfacet
  facet normal  9.238794e-001  -0.000000e+000  3.826834e-001
    outer loop
      vertex  1.767767e+000  0.000000e+000  7.767767e+000
      vertex  2.500000e+000  1.800000e+000  6.000000e+000
      vertex  1.767767e+000  1.800000e+000  7.767767e+000
    endloop
  endfacet
  facet normal  3.826834e-001  0.000000e+000  9.238794e-001
    outer loop
      vertex  1.767767e+000  0.000000e+000  7.767767e+000
      vertex  1.767767e+000  1.800000e+000  7.767767e+000
      vertex -1.530808e-016  0.000000e+000  8.500000e+000
    endloop
  endfacet
  facet normal  3.826834e-001  1.562831e-016  9.238794e-001
    outer loop
      vertex -1.530808e-016  0.000000e+000  8.500000e+000
      vertex  1.767767e+000  1.800000e+000  7.767767e+000
      vertex -8.881784e-016  1.800000e+000  8.500000e+000
    endloop
  endfacet
  facet normal -3.826834e-001 -1.562831e-016  9.238794e-001
    outer loop
      vertex -1.530808e-016  0.000000e+000  8.500000e+000
      vertex -8.881784e-016  1.800000e+000  8.500000e+000
      vertex -1.767767e+000  0.000000e+000  7.767767e+000
    endloop
  endfacet
  facet normal -3.826834e-001  0.000000e+000  9.238794e-001
    outer loop
      vertex -1.767767e+000  0.000000e+000  7.767767e+000
      vertex -8.881784e-016  1.800000e+000  8.500000e+000
      vertex -1.767767e+000  1.800000e+000  7.767767e+000
    endloop
  endfacet
  facet normal -9.238794e-001  0.000000e+000  3.826834e-001
    outer loop
      vertex -1.767767e+000  0.000000e+000  7.767767e+000
      vertex -1.767767e+000  1.800000e+000  7.767767e+000
      vertex -2.500000e+000  0.000000e+000  6.000000e+000
    endloop
  endfacet
  facet normal -9.238794e-001  0.000000e+000  3.826834e-001
    outer loop
      vertex -2.500000e+000  0.000000e+000  6.000000e+000
      vertex -1.767767e+000  1.800000e+000  7.767767e+000
      vertex -2.500000e+000  1.800000e+000  6.000000e+000
    endloop
  endfacet
  facet normal  1.000000e+000  0.000000e+000  0.000000e+000
    outer loop
      vertex  2.500000e+000  5.200000e+000  6.000000e+000
      vertex  2.500000e+000  5.200000e+000  3.500000e+000
      vertex  2.500000e+000  7.000000e+000  6.000000e+000
    endloop
  endfacet
  facet normal  1.000000e+000  0.000000e+000  0.000000e+000
    outer loop
      vertex  2.500000e+000  7.000000e+000  6.000000e+000
      vertex  2.500000e+000  5.200000e+000  3.500000e+000
      vertex  2.500000e+000  7.000000e+000  3.500000e+000
    endloop
  endfacet
  facet normal  1.000000e+000  0.000000e+000  0.000000e+000
    outer loop
      vertex  2.500000e+000  0.000000e+000  6.000000e+000
      vertex  2.500000e+000  0.000000e+000  3.500000e+000
      vertex  2.500000e+000  1.800000e+000  6.000000e+000
    endloop
  endfacet
  facet normal  1.000000e+000  0.000000e+000  0.000000e+000
    outer loop
      vertex  2.500000e+000  1.800000e+000  6.000000e+000
      vertex  2.500000e+000  0.000000e+000  3.500000e+000
      vertex  2.500000e+000  1.800000e+000  3.500000e+000
    endloop
  endfacet
  facet normal  3.826833e-001  0.000000e+000  9.238796e-001
    outer loop
      vertex -4.440892e-016  5.200000e+000  4.500000e+000
      vertex -1.060660e+000  7.000000e+000  4.939340e+000
      vertex -1.060660e+000  5.200000e+000  4.939340e+000
    endloop
  endfacet
  facet normal  9.238796e-001  -0.000000e+000  3.826834e-001
    outer loop
      vertex -1.060660e+000  5.200000e+000  4.939340e+000
      vertex -1.060660e+000  7.000000e+000  4.939340e+000
      vertex -1.500000e+000  7.000000e+000  6.000000e+000
    endloop
  endfacet
  facet normal  9.238796e-001  0.000000e+000  3.826834e-001
    outer loop
      vertex -1.060660e+000  5.200000e+000  4.939340e+000
      vertex -1.500000e+000  7.000000e+000  6.000000e+000
      vertex -1.500000e+000  5.200000e+000  6.000000e+000
    endloop
  endfacet
  facet normal  3.826833e-001 -1.529957e-016  9.238796e-001
    outer loop
      vertex -1.060660e+000  7.000000e+000  4.939340e+000
      vertex -4.440892e-016  5.200000e+000  4.500000e+000
      vertex  2.755455e-016  7.000000e+000  4.500000e+000
    endloop
  endfacet
  facet normal -3.826833e-001  1.529957e-016  9.238796e-001
    outer loop
      vertex  2.755455e-016  7.000000e+000  4.500000e+000
      vertex -4.440892e-016  5.200000e+000  4.500000e+000
      vertex  1.060660e+000  5.200000e+000  4.939340e+000
    endloop
  endfacet
  facet normal -3.826833e-001  0.000000e+000  9.238796e-001
    outer loop
      vertex  2.755455e-016  7.000000e+000  4.500000e+000
      vertex  1.060660e+000  5.200000e+000  4.939340e+000
      vertex  1.060660e+000  7.000000e+000  4.939340e+000
    endloop
  endfacet
  facet normal -9.238796e-001  0.000000e+000  3.826834e-001
    outer loop
      vertex  1.060660e+000  7.000000e+000  4.939340e+000
      vertex  1.060660e+000  5.200000e+000  4.939340e+000
      vertex  1.500000e+000  5.200000e+000  6.000000e+000
    endloop
  endfacet
  facet normal -9.238796e-001  0.000000e+000  3.826834e-001
    outer loop
      vertex  1.060660e+000  7.000000e+000  4.939340e+000
      vertex  1.500000e+000  5.200000e+000  6.000000e+000
      vertex  1.500000e+000  7.000000e+000  6.000000e+000
    endloop
  endfacet
  facet normal  3.826833e-001  0.000000e+000  9.238796e-001
    outer loop
      vertex  2.755455e-016  0.000000e+000  4.500000e+000
      vertex -1.060660e+000  1.800000e+000  4.939340e+000
      vertex -1.060660e+000  0.000000e+000  4.939340e+000
    endloop
  endfacet
  facet normal  9.238796e-001  -0.000000e+000  3.826834e-001
    outer loop
      vertex -1.060660e+000  0.000000e+000  4.939340e+000
      vertex -1.060660e+000  1.800000e+000  4.939340e+000
      vertex -1.500000e+000  1.800000e+000  6.000000e+000
    endloop
  endfacet
  facet normal  9.238796e-001  0.000000e+000  3.826834e-001
    outer loop
      vertex -1.060660e+000  0.000000e+000  4.939340e+000
      vertex -1.500000e+000  1.800000e+000  6.000000e+000
      vertex -1.500000e+000  0.000000e+000  6.000000e+000
    endloop
  endfacet
  facet normal  3.826833e-001 -5.079037e-016  9.238796e-001
    outer loop
      vertex -1.060660e+000  1.800000e+000  4.939340e+000
      vertex  2.755455e-016  0.000000e+000  4.500000e+000
      vertex  2.664535e-015  1.800000e+000  4.500000e+000
    endloop
  endfacet
  facet normal -3.826833e-001  5.079037e-016  9.238796e-001
    outer loop
      vertex  2.664535e-015  1.800000e+000  4.500000e+000
      vertex  2.755455e-016  0.000000e+000  4.500000e+000
      vertex  1.060660e+000  0.000000e+000  4.939340e+000
    endloop
  endfacet
  facet normal -3.826833e-001  0.000000e+000  9.238796e-001
    outer loop
      vertex  2.664535e-015  1.800000e+000  4.500000e+000
      vertex  1.060660e+000  0.000000e+000  4.939340e+000
      vertex  1.060660e+000  1.800000e+000  4.939340e+000
    endloop
  endfacet
  facet normal -9.238796e-001  0.000000e+000  3.826834e-001
    outer loop
      vertex  1.060660e+000  1.800000e+000  4.939340e+000
      vertex  1.060660e+000  0.000000e+000  4.939340e+000
      vertex  1.500000e+000  0.000000e+000  6.000000e+000
    endloop
  endfacet
  facet normal -9.238796e-001  0.000000e+000  3.826834e-001
    outer loop
      vertex  1.060660e+000  1.800000e+000  4.939340e+000
      vertex  1.500000e+000  0.000000e+000  6.000000e+000
      vertex  1.500000e+000  1.800000e+000  6.000000e+000
    endloop
  endfacet
  facet normal -3.826833e-001  -0.000000e+000 -9.238796e-001
    outer loop
      vertex  3.552714e-015  5.200000e+000  7.500000e+000
      vertex  1.060660e+000  7.000000e+000  7.060660e+000
      vertex  1.060660e+000  5.200000e+000  7.060660e+000
    endloop
  endfacet
  facet normal -9.238796e-001  0.000000e+000 -3.826834e-001
    outer loop
      vertex  1.060660e+000  5.200000e+000  7.060660e+000
      vertex  1.060660e+000  7.000000e+000  7.060660e+000
      vertex  1.500000e+000  7.000000e+000  6.000000e+000
    endloop
  endfacet
  facet normal -9.238796e-001  -0.000000e+000 -3.826834e-001
    outer loop
      vertex  1.060660e+000  5.200000e+000  7.060660e+000
      vertex  1.500000e+000  7.000000e+000  6.000000e+000
      vertex  1.500000e+000  5.200000e+000  6.000000e+000
    endloop
  endfacet
  facet normal -3.826833e-001 -7.748405e-016 -9.238796e-001
    outer loop
      vertex  1.060660e+000  7.000000e+000  7.060660e+000
      vertex  3.552714e-015  5.200000e+000  7.500000e+000
      vertex -9.184851e-017  7.000000e+000  7.500000e+000
    endloop
  endfacet
  facet normal  3.826833e-001  7.748405e-016 -9.238796e-001
    outer loop
      vertex -9.184851e-017  7.000000e+000  7.500000e+000
      vertex  3.552714e-015  5.200000e+000  7.500000e+000
      vertex -1.060660e+000  5.200000e+000  7.060660e+000
    endloop
  endfacet
  facet normal  3.826833e-001  0.000000e+000 -9.238796e-001
    outer loop
      vertex -9.184851e-017  7.000000e+000  7.500000e+000
      vertex -1.060660e+000  5.200000e+000  7.060660e+000
      vertex -1.060660e+000  7.000000e+000  7.060660e+000
    endloop
  endfacet
  facet normal  9.238796e-001  0.000000e+000 -3.826834e-001
    outer loop
      vertex -1.060660e+000  7.000000e+000  7.060660e+000
      vertex -1.060660e+000  5.200000e+000  7.060660e+000
      vertex -1.500000e+000  5.200000e+000  6.000000e+000
    endloop
  endfacet
  facet normal  9.238796e-001  0.000000e+000 -3.826834e-001
    outer loop
      vertex -1.060660e+000  7.000000e+000  7.060660e+000
      vertex -1.500000e+000  5.200000e+000  6.000000e+000
      vertex -1.500000e+000  7.000000e+000  6.000000e+000
    endloop
  endfacet
  facet normal -3.826833e-001  -0.000000e+000 -9.238796e-001
    outer loop
      vertex -9.184851e-017  0.000000e+000  7.500000e+000
      vertex  1.060660e+000  1.800000e+000  7.060660e+000
      vertex  1.060660e+000  0.000000e+000  7.060660e+000
    endloop
  endfacet
  facet normal -9.238796e-001  0.000000e+000 -3.826834e-001
    outer loop
      vertex  1.060660e+000  0.000000e+000  7.060660e+000
      vertex  1.060660e+000  1.800000e+000  7.060660e+000
      vertex  1.500000e+000  1.800000e+000  6.000000e+000
    endloop
  endfacet
  facet normal -9.238796e-001  -0.000000e+000 -3.826834e-001
    outer loop
      vertex  1.060660e+000  0.000000e+000  7.060660e+000
      vertex  1.500000e+000  1.800000e+000  6.000000e+000
      vertex  1.500000e+000  0.000000e+000  6.000000e+000
    endloop
  endfacet
  facet normal -3.826833e-001 -1.693012e-016 -9.238796e-001
    outer loop
      vertex  1.060660e+000  1.800000e+000  7.060660e+000
      vertex -9.184851e-017  0.000000e+000  7.500000e+000
      vertex -8.881784e-016  1.800000e+000  7.500000e+000
    endloop
  endfacet
  facet normal  3.826833e-001  1.693012e-016 -9.238796e-001
    outer loop
      vertex -8.881784e-016  1.800000e+000  7.500000e+000
      vertex -9.184851e-017  0.000000e+000  7.500000e+000
      vertex -1.060660e+000  0.000000e+000  7.060660e+000
    endloop
  endfacet
  facet normal  3.826833e-001  0.000000e+000 -9.238796e-001
    outer loop
      vertex -8.881784e-016  1.800000e+000  7.500000e+000
      vertex -1.060660e+000  0.000000e+000  7.060660e+000
      vertex -1.060660e+000  1.800000e+000  7.060660e+000
    endloop
  endfacet
  facet normal  9.238796e-001  0.000000e+000 -3.826834e-001
    outer loop
      vertex -1.060660e+000  1.800000e+000  7.060660e+000
      vertex -1.060660e+000  0.000000e+000  7.060660e+000
      vertex -1.500000e+000  0.000000e+000  6.000000e+000
    endloop
  endfacet
  facet normal  9.238796e-001  0.000000e+000 -3.826834e-001
    outer loop
      vertex -1.060660e+000  1.800000e+000  7.060660e+000
      vertex -1.500000e+000  0.000000e+000  6.000000e+000
      vertex -1.500000e+000  1.800000e+000  6.000000e+000
    endloop
  endfacet
  facet normal  0.000000e+000  1.000000e+000  -0.000000e+000
    outer loop
      vertex  1.767767e+000  7.000000e+000  7.767767e+000
      vertex -9.184851e-017  7.000000e+000  7.500000e+000
      vertex -1.530808e-016  7.000000e+000  8.500000e+000
    endloop
  endfacet
  facet normal  -0.000000e+000  1.000000e+000  0.000000e+000
    outer loop
      vertex  2.500000e+000  7.000000e+000  3.500000e+000
      vertex  2.755455e-016  7.000000e+000  4.500000e+000
      vertex  1.060660e+000  7.000000e+000  4.939340e+000
    endloop
  endfacet
  facet normal  -0.000000e+000  1.000000e+000  0.000000e+000
    outer loop
      vertex  2.500000e+000  7.000000e+000  3.500000e+000
      vertex  1.060660e+000  7.000000e+000  4.939340e+000
      vertex  1.500000e+000  7.000000e+000  6.000000e+000
    endloop
  endfacet
  facet normal  -0.000000e+000  1.000000e+000  0.000000e+000
    outer loop
      vertex  2.500000e+000  7.000000e+000  3.500000e+000
      vertex  1.500000e+000  7.000000e+000  6.000000e+000
      vertex  2.500000e+000  7.000000e+000  6.000000e+000
    endloop
  endfacet
  facet normal  0.000000e+000  1.000000e+000  0.000000e+000
    outer loop
      vertex  2.755455e-016  7.000000e+000  4.500000e+000
      vertex  2.500000e+000  7.000000e+000  3.500000e+000
      vertex -2.500000e+000  7.000000e+000  3.500000e+000
    endloop
  endfacet
  facet normal  -0.000000e+000  1.000000e+000  0.000000e+000
    outer loop
      vertex -2.500000e+000  7.000000e+000  3.500000e+000
      vertex  2.500000e+000  7.000000e+000  3.500000e+000
      vertex  5.000000e+000  7.000000e+000  1.500000e+000
    endloop
  endfacet
  facet normal  0.000000e+000  1.000000e+000  0.000000e+000
    outer loop
      vertex -2.500000e+000  7.000000e+000  3.500000e+000
      vertex  5.000000e+000  7.000000e+000  1.500000e+000
      vertex -7.000000e+000  7.000000e+000  3.500000e+000
    endloop
  endfacet
  facet normal  0.000000e+000  1.000000e+000  0.000000e+000
    outer loop
      vertex -7.000000e+000  7.000000e+000  3.500000e+000
      vertex  5.000000e+000  7.000000e+000  1.500000e+000
      vertex -5.000000e+000  7.000000e+000  1.500000e+000
    endloop
  endfacet
  facet normal  0.000000e+000  1.000000e+000  0.000000e+000
    outer loop
      vertex -7.000000e+000  7.000000e+000  3.500000e+000
      vertex -5.000000e+000  7.000000e+000  1.500000e+000
      vertex -7.000000e+000  7.000000e+000 -3.500000e+000
    endloop
  endfacet
  facet normal  0.000000e+000  1.000000e+000  0.000000e+000
    outer loop
      vertex -7.000000e+000  7.000000e+000 -3.500000e+000
      vertex -5.000000e+000  7.000000e+000  1.500000e+000
      vertex -5.000000e+000  7.000000e+000 -1.500000e+000
    endloop
  endfacet
  facet normal  0.000000e+000  1.000000e+000  0.000000e+000
    outer loop
      vertex -7.000000e+000  7.000000e+000 -3.500000e+000
      vertex -5.000000e+000  7.000000e+000 -1.500000e+000
      vertex  7.000000e+000  7.000000e+000 -3.500000e+000
    endloop
  endfacet
  facet normal  0.000000e+000  1.000000e+000  0.000000e+000
    outer loop
      vertex  7.000000e+000  7.000000e+000 -3.500000e+000
      vertex -5.000000e+000  7.000000e+000 -1.500000e+000
      vertex  5.000000e+000  7.000000e+000 -1.500000e+000
    endloop
  endfacet
  facet normal  -0.000000e+000  1.000000e+000  0.000000e+000
    outer loop
      vertex  7.000000e+000  7.000000e+000 -3.500000e+000
      vertex  5.000000e+000  7.000000e+000 -1.500000e+000
      vertex  7.000000e+000  7.000000e+000  3.500000e+000
    endloop
  endfacet
  facet normal  0.000000e+000  1.000000e+000  0.000000e+000
    outer loop
      vertex  7.000000e+000  7.000000e+000  3.500000e+000
      vertex  5.000000e+000  7.000000e+000 -1.500000e+000
      vertex  5.000000e+000  7.000000e+000  1.500000e+000
    endloop
  endfacet
  facet normal  0.000000e+000  1.000000e+000  -0.000000e+000
    outer loop
      vertex  7.000000e+000  7.000000e+000  3.500000e+000
      vertex  5.000000e+000  7.000000e+000  1.500000e+000
      vertex  2.500000e+000  7.000000e+000  3.500000e+000
    endloop
  endfacet
  facet normal  0.000000e+000  1.000000e+000  0.000000e+000
    outer loop
      vertex  2.500000e+000  7.000000e+000  6.000000e+000
      vertex  1.500000e+000  7.000000e+000  6.000000e+000
      vertex  1.767767e+000  7.000000e+000  7.767767e+000
    endloop
  endfacet
  facet normal  0.000000e+000  1.000000e+000  0.000000e+000
    outer loop
      vertex  1.767767e+000  7.000000e+000  7.767767e+000
      vertex  1.500000e+000  7.000000e+000  6.000000e+000
      vertex  1.060660e+000  7.000000e+000  7.060660e+000
    endloop
  endfacet
  facet normal  0.000000e+000  1.000000e+000  -0.000000e+000
    outer loop
      vertex  1.767767e+000  7.000000e+000  7.767767e+000
      vertex  1.060660e+000  7.000000e+000  7.060660e+000
      vertex -9.184851e-017  7.000000e+000  7.500000e+000
    endloop
  endfacet
  facet normal  0.000000e+000  1.000000e+000  0.000000e+000
    outer loop
      vertex -1.530808e-016  7.000000e+000  8.500000e+000
      vertex -9.184851e-017  7.000000e+000  7.500000e+000
      vertex -1.767767e+000  7.000000e+000  7.767767e+000
    endloop
  endfacet
  facet normal  0.000000e+000  1.000000e+000  0.000000e+000
    outer loop
      vertex -1.767767e+000  7.000000e+000  7.767767e+000
      vertex -9.184851e-017  7.000000e+000  7.500000e+000
      vertex -1.060660e+000  7.000000e+000  7.060660e+000
    endloop
  endfacet
  facet normal  0.000000e+000  1.000000e+000  0.000000e+000
    outer loop
      vertex -1.767767e+000  7.000000e+000  7.767767e+000
      vertex -1.060660e+000  7.000000e+000  7.060660e+000
      vertex -2.500000e+000  7.000000e+000  6.000000e+000
    endloop
  endfacet
  facet normal  0.000000e+000  1.000000e+000  0.000000e+000
    outer loop
      vertex -2.500000e+000  7.000000e+000  6.000000e+000
      vertex -1.060660e+000  7.000000e+000  7.060660e+000
      vertex -1.500000e+000  7.000000e+000  6.000000e+000
    endloop
  endfacet
  facet normal  0.000000e+000  1.000000e+000  0.000000e+000
    outer loop
      vertex -2.500000e+000  7.000000e+000  6.000000e+000
      vertex -1.500000e+000  7.000000e+000  6.000000e+000
      vertex -2.500000e+000  7.000000e+000  3.500000e+000
    endloop
  endfacet
  facet normal  0.000000e+000  1.000000e+000  0.000000e+000
    outer loop
      vertex -2.500000e+000  7.000000e+000  3.500000e+000
      vertex -1.500000e+000  7.000000e+000  6.000000e+000
      vertex -1.060660e+000  7.000000e+000  4.939340e+000
    endloop
  endfacet
  facet normal  0.000000e+000  1.000000e+000  0.000000e+000
    outer loop
      vertex -2.500000e+000  7.000000e+000  3.500000e+000
      vertex -1.060660e+000  7.000000e+000  4.939340e+000
      vertex  2.755455e-016  7.000000e+000  4.500000e+000
    endloop
  endfacet
  facet normal  0.000000e+000 -1.000000e+000  0.000000e+000
    outer loop
      vertex -1.530808e-016  0.000000e+000  8.500000e+000
      vertex -9.184851e-017  0.000000e+000  7.500000e+000
      vertex  1.767767e+000  0.000000e+000  7.767767e+000
    endloop
  endfacet
  facet normal  -0.000000e+000 -1.000000e+000  -0.000000e+000
    outer loop
      vertex  2.500000e+000  0.000000e+000  3.500000e+000
      vertex  2.500000e+000  0.000000e+000  6.000000e+000
      vertex  1.500000e+000  0.000000e+000  6.000000e+000
    endloop
  endfacet
  facet normal  0.000000e+000 -1.000000e+000  -0.000000e+000
    outer loop
      vertex  2.500000e+000  0.000000e+000  3.500000e+000
      vertex  1.500000e+000  0.000000e+000  6.000000e+000
      vertex  1.060660e+000  0.000000e+000  4.939340e+000
    endloop
  endfacet
  facet normal  0.000000e+000 -1.000000e+000  -0.000000e+000
    outer loop
      vertex  2.500000e+000  0.000000e+000  3.500000e+000
      vertex  1.060660e+000  0.000000e+000  4.939340e+000
      vertex  2.755455e-016  0.000000e+000  4.500000e+000
    endloop
  endfacet
  facet normal  0.000000e+000 -1.000000e+000  0.000000e+000
    outer loop
      vertex  2.500000e+000  0.000000e+000  3.500000e+000
      vertex  5.000000e+000  0.000000e+000  1.500000e+000
      vertex  7.000000e+000  0.000000e+000  3.500000e+000
    endloop
  endfacet
  facet normal  0.000000e+000 -1.000000e+000  0.000000e+000
    outer loop
      vertex  7.000000e+000  0.000000e+000  3.500000e+000
      vertex  5.000000e+000  0.000000e+000  1.500000e+000
      vertex  5.000000e+000  0.000000e+000 -1.500000e+000
    endloop
  endfacet
  facet normal  0.000000e+000 -1.000000e+000  0.000000e+000
    outer loop
      vertex  7.000000e+000  0.000000e+000  3.500000e+000
      vertex  5.000000e+000  0.000000e+000 -1.500000e+000
      vertex  7.000000e+000  0.000000e+000 -3.500000e+000
    endloop
  endfacet
  facet normal  0.000000e+000 -1.000000e+000  0.000000e+000
    outer loop
      vertex  7.000000e+000  0.000000e+000 -3.500000e+000
      vertex  5.000000e+000  0.000000e+000 -1.500000e+000
      vertex -5.000000e+000  0.000000e+000 -1.500000e+000
    endloop
  endfacet
  facet normal  0.000000e+000 -1.000000e+000  -0.000000e+000
    outer loop
      vertex  7.000000e+000  0.000000e+000 -3.500000e+000
      vertex -5.000000e+000  0.000000e+000 -1.500000e+000
      vertex -7.000000e+000  0.000000e+000 -3.500000e+000
    endloop
  endfacet
  facet normal  0.000000e+000 -1.000000e+000  0.000000e+000
    outer loop
      vertex -7.000000e+000  0.000000e+000 -3.500000e+000
      vertex -5.000000e+000  0.000000e+000 -1.500000e+000
      vertex -5.000000e+000  0.000000e+000  1.500000e+000
    endloop
  endfacet
  facet normal  -0.000000e+000 -1.000000e+000  0.000000e+000
    outer loop
      vertex -7.000000e+000  0.000000e+000 -3.500000e+000
      vertex -5.000000e+000  0.000000e+000  1.500000e+000
      vertex -7.000000e+000  0.000000e+000  3.500000e+000
    endloop
  endfacet
  facet normal  0.000000e+000 -1.000000e+000  0.000000e+000
    outer loop
      vertex -7.000000e+000  0.000000e+000  3.500000e+000
      vertex -5.000000e+000  0.000000e+000  1.500000e+000
      vertex  5.000000e+000  0.000000e+000  1.500000e+000
    endloop
  endfacet
  facet normal  0.000000e+000 -1.000000e+000  0.000000e+000
    outer loop
      vertex -7.000000e+000  0.000000e+000  3.500000e+000
      vertex  5.000000e+000  0.000000e+000  1.500000e+000
      vertex -2.500000e+000  0.000000e+000  3.500000e+000
    endloop
  endfacet
  facet normal  0.000000e+000 -1.000000e+000  0.000000e+000
    outer loop
      vertex -2.500000e+000  0.000000e+000  3.500000e+000
      vertex  5.000000e+000  0.000000e+000  1.500000e+000
      vertex  2.500000e+000  0.000000e+000  3.500000e+000
    endloop
  endfacet
  facet normal  0.000000e+000 -1.000000e+000  0.000000e+000
    outer loop
      vertex -2.500000e+000  0.000000e+000  3.500000e+000
      vertex  2.500000e+000  0.000000e+000  3.500000e+000
      vertex  2.755455e-016  0.000000e+000  4.500000e+000
    endloop
  endfacet
  facet normal  0.000000e+000 -1.000000e+000  0.000000e+000
    outer loop
      vertex -9.184851e-017  0.000000e+000  7.500000e+000
      vertex  1.060660e+000  0.000000e+000  7.060660e+000
      vertex  1.767767e+000  0.000000e+000  7.767767e+000
    endloop
  endfacet
  facet normal  0.000000e+000 -1.000000e+000  0.000000e+000
    outer loop
      vertex  1.767767e+000  0.000000e+000  7.767767e+000
      vertex  1.060660e+000  0.000000e+000  7.060660e+000
      vertex  1.500000e+000  0.000000e+000  6.000000e+000
    endloop
  endfacet
  facet normal  0.000000e+000 -1.000000e+000  0.000000e+000
    outer loop
      vertex  1.767767e+000  0.000000e+000  7.767767e+000
      vertex  1.500000e+000  0.000000e+000  6.000000e+000
      vertex  2.500000e+000  0.000000e+000  6.000000e+000
    endloop
  endfacet
  facet normal  0.000000e+000 -1.000000e+000  -0.000000e+000
    outer loop
      vertex  2.755455e-016  0.000000e+000  4.500000e+000
      vertex -1.060660e+000  0.000000e+000  4.939340e+000
      vertex -2.500000e+000  0.000000e+000  3.500000e+000
    endloop
  endfacet
  facet normal  0.000000e+000 -1.000000e+000  0.000000e+000
    outer loop
      vertex -2.500000e+000  0.000000e+000  3.500000e+000
      vertex -1.060660e+000  0.000000e+000  4.939340e+000
      vertex -1.500000e+000  0.000000e+000  6.000000e+000
    endloop
  endfacet
  facet normal  -0.000000e+000 -1.000000e+000  0.000000e+000
    outer loop
      vertex -2.500000e+000  0.000000e+000  3.500000e+000
      vertex -1.500000e+000  0.000000e+000  6.000000e+000
      vertex -2.500000e+000  0.000000e+000  6.000000e+000
    endloop
  endfacet
  facet normal  0.000000e+000 -1.000000e+000  0.000000e+000
    outer loop
      vertex -2.500000e+000  0.000000e+000  6.000000e+000
      vertex -1.500000e+000  0.000000e+000  6.000000e+000
      vertex -1.060660e+000  0.000000e+000  7.060660e+000
    endloop
  endfacet
  facet normal  -0.000000e+000 -1.000000e+000  0.000000e+000
    outer loop
      vertex -2.500000e+000  0.000000e+000  6.000000e+000
      vertex -1.060660e+000  0.000000e+000  7.060660e+000
      vertex -1.767767e+000  0.000000e+000  7.767767e+000
    endloop
  endfacet
  facet normal  0.000000e+000 -1.000000e+000  0.000000e+000
    outer loop
      vertex -1.767767e+000  0.000000e+000  7.767767e+000
      vertex -1.060660e+000  0.000000e+000  7.060660e+000
      vertex -9.184851e-017  0.000000e+000  7.500000e+000
    endloop
  endfacet
  facet normal  0.000000e+000 -1.000000e+000  0.000000e+000
    outer loop
      vertex -1.767767e+000  0.000000e+000  7.767767e+000
      vertex -9.184851e-017  0.000000e+000  7.500000e+000
      vertex -1.530808e-016  0.000000e+000  8.500000e+000
    endloop
  endfacet
  facet normal  0.000000e+000  0.000000e+000 -1.000000e+000
    outer loop
      vertex  5.000000e+000  7.000000e+000  1.500000e+000
      vertex  5.000000e+000  0.000000e+000  1.500000e+000
      vertex -5.000000e+000  7.000000e+000  1.500000e+000
    endloop
  endfacet
  facet normal  0.000000e+000  0.000000e+000 -1.000000e+000
    outer loop
      vertex -5.000000e+000  7.000000e+000  1.500000e+000
      vertex  5.000000e+000  0.000000e+000  1.500000e+000
      vertex -5.000000e+000  0.000000e+000  1.500000e+000
    endloop
  endfacet
  facet normal -1.000000e+000  -0.000000e+000  0.000000e+000
    outer loop
      vertex  5.000000e+000  0.000000e+000  1.500000e+000
      vertex  5.000000e+000  7.000000e+000  1.500000e+000
      vertex  5.000000e+000  0.000000e+000 -1.500000e+000
    endloop
  endfacet
  facet normal -1.000000e+000  0.000000e+000  0.000000e+000
    outer loop
      vertex  5.000000e+000  0.000000e+000 -1.500000e+000
      vertex  5.000000e+000  7.000000e+000  1.500000e+000
      vertex  5.000000e+000  7.000000e+000 -1.500000e+000
    endloop
  endfacet
  facet normal  -0.000000e+000  0.000000e+000  1.000000e+000
    outer loop
      vertex  5.000000e+000  7.000000e+000 -1.500000e+000
      vertex -5.000000e+000  7.000000e+000 -1.500000e+000
      vertex  5.000000e+000  0.000000e+000 -1.500000e+000
    endloop
  endfacet
  facet normal  0.000000e+000  0.000000e+000  1.000000e+000
    outer loop
      vertex  5.000000e+000  0.000000e+000 -1.500000e+000
      vertex -5.000000e+000  7.000000e+000 -1.500000e+000
      vertex -5.000000e+000  0.000000e+000 -1.500000e+000
    endloop
  endfacet
  facet normal  1.000000e+000  0.000000e+000  0.000000e+000
    outer loop
      vertex -5.000000e+000  0.000000e+000  1.500000e+000
      vertex -5.000000e+000  0.000000e+000 -1.500000e+000
      vertex -5.000000e+000  7.000000e+000  1.500000e+000
    endloop
  endfacet
  facet normal  1.000000e+000  0.000000e+000  0.000000e+000
    outer loop
      vertex -5.000000e+000  7.000000e+000  1.500000e+000
      vertex -5.000000e+000  0.000000e+000 -1.500000e+000
      vertex -5.000000e+000  7.000000e+000 -1.500000e+000
    endloop
  endfacet
  facet normal -1.000000e+000  0.000000e+000  0.000000e+000
    outer loop
      vertex -7.000000e+000  0.000000e+000 -3.500000e+000
      vertex -7.000000e+000  0.000000e+000  3.500000e+000
      vertex -7.000000e+000  7.000000e+000 -3.500000e+000
    endloop
  endfacet
  facet normal -1.000000e+000  0.000000e+000  0.000000e+000
    outer loop
      vertex -7.000000e+000  7.000000e+000 -3.500000e+000
      vertex -7.000000e+000  0.000000e+000  3.500000e+000
      vertex -7.000000e+000  7.000000e+000  3.500000e+000
    endloop
  endfacet
  facet normal  -0.000000e+000  0.000000e+000 -1.000000e+000
    outer loop
      vertex -7.000000e+000  7.000000e+000 -3.500000e+000
      vertex  7.000000e+000  7.000000e+000 -3.500000e+000
      vertex -7.000000e+000  0.000000e+000 -3.500000e+000
    endloop
  endfacet
  facet normal  0.000000e+000  0.000000e+000 -1.000000e+000
    outer loop
      vertex -7.000000e+000  0.000000e+000 -3.500000e+000
      vertex  7.000000e+000  7.000000e+000 -3.500000e+000
      vertex  7.000000e+000  0.000000e+000 -3.500000e+000
    endloop
  endfacet
  facet normal  1.000000e+000  0.000000e+000  0.000000e+000
    outer loop
      vertex  7.000000e+000  0.000000e+000  3.500000e+000
      vertex  7.000000e+000  0.000000e+000 -3.500000e+000
      vertex  7.000000e+000  7.000000e+000  3.500000e+000
    endloop
  endfacet
  facet normal  1.000000e+000  0.000000e+000  0.000000e+000
    outer loop
      vertex  7.000000e+000  7.000000e+000  3.500000e+000
      vertex  7.000000e+000  0.000000e+000 -3.500000e+000
      vertex  7.000000e+000  7.000000e+000 -3.500000e+000
    endloop
  endfacet
endsolid CATIA STL
