solid CATIA STL
  facet normal  0.000000e+000  0.000000e+000  1.000000e+000
    outer loop
      vertex  0.000000e+000 -2.575000e+001  9.750000e+000
      vertex  2.928932e-001  1.079289e+001  9.750000e+000
      vertex  0.000000e+000  1.150000e+001  9.750000e+000
    endloop
  endfacet
  facet normal  0.000000e+000  0.000000e+000  1.000000e+000
    outer loop
      vertex  2.000000e+000 -2.575000e+001  9.750000e+000
      vertex  2.000000e+000  1.150000e+001  9.750000e+000
      vertex  1.707107e+000  1.079289e+001  9.750000e+000
    endloop
  endfacet
  facet normal  0.000000e+000  0.000000e+000  1.000000e+000
    outer loop
      vertex  2.000000e+000 -2.575000e+001  9.750000e+000
      vertex  1.707107e+000  1.079289e+001  9.750000e+000
      vertex  1.000000e+000  1.050000e+001  9.750000e+000
    endloop
  endfacet
  facet normal  0.000000e+000  0.000000e+000  9.999999e-001
    outer loop
      vertex  2.000000e+000 -2.575000e+001  9.750000e+000
      vertex  1.000000e+000  1.050000e+001  9.750000e+000
      vertex  2.928932e-001  1.079289e+001  9.750000e+000
    endloop
  endfacet
  facet normal  0.000000e+000  0.000000e+000  1.000000e+000
    outer loop
      vertex  2.000000e+000 -2.575000e+001  9.750000e+000
      vertex  2.928932e-001  1.079289e+001  9.750000e+000
      vertex  0.000000e+000 -2.575000e+001  9.750000e+000
    endloop
  endfacet
  facet normal  0.000000e+000  0.000000e+000  1.000000e+000
    outer loop
      vertex  0.000000e+000  2.575000e+001  9.750000e+000
      vertex  0.000000e+000  1.150000e+001  9.750000e+000
      vertex  2.928932e-001  1.220711e+001  9.750000e+000
    endloop
  endfacet
  facet normal  0.000000e+000  -0.000000e+000  1.000000e+000
    outer loop
      vertex  0.000000e+000  2.575000e+001  9.750000e+000
      vertex  2.928932e-001  1.220711e+001  9.750000e+000
      vertex  1.000000e+000  1.250000e+001  9.750000e+000
    endloop
  endfacet
  facet normal  -0.000000e+000  -0.000000e+000  1.000000e+000
    outer loop
      vertex  0.000000e+000  2.575000e+001  9.750000e+000
      vertex  1.000000e+000  1.250000e+001  9.750000e+000
      vertex  1.707107e+000  1.220711e+001  9.750000e+000
    endloop
  endfacet
  facet normal  -0.000000e+000  -0.000000e+000  1.000000e+000
    outer loop
      vertex  0.000000e+000  2.575000e+001  9.750000e+000
      vertex  1.707107e+000  1.220711e+001  9.750000e+000
      vertex  2.000000e+000  1.150000e+001  9.750000e+000
    endloop
  endfacet
  facet normal  0.000000e+000  -0.000000e+000  1.000000e+000
    outer loop
      vertex  0.000000e+000  2.575000e+001  9.750000e+000
      vertex  2.000000e+000  1.150000e+001  9.750000e+000
      vertex  2.000000e+000  2.575000e+001  9.750000e+000
    endloop
  endfacet
  facet normal  1.000000e+000  0.000000e+000  0.000000e+000
    outer loop
      vertex  2.000000e+000 -2.575000e+001 -9.750000e+000
      vertex  2.000000e+000 -3.264429e+001 -6.894291e+000
      vertex  2.000000e+000 -2.948116e+001 -9.007826e+000
    endloop
  endfacet
  facet normal  1.000000e+000  0.000000e+000  0.000000e+000
    outer loop
      vertex  2.000000e+000 -2.575000e+001  9.750000e+000
      vertex  2.000000e+000 -2.575000e+001  2.000000e+000
      vertex  2.000000e+000  1.150000e+001  9.750000e+000
    endloop
  endfacet
  facet normal  1.000000e+000  0.000000e+000  0.000000e+000
    outer loop
      vertex  2.000000e+000  3.475782e+001 -3.731164e+000
      vertex  2.000000e+000  2.716421e+001 -1.414214e+000
      vertex  2.000000e+000  2.575000e+001 -2.000000e+000
    endloop
  endfacet
  facet normal  1.000000e+000  -0.000000e+000  -0.000000e+000
    outer loop
      vertex  2.000000e+000 -3.475782e+001 -3.731164e+000
      vertex  2.000000e+000 -3.264429e+001 -6.894291e+000
      vertex  2.000000e+000 -2.575000e+001 -9.750000e+000
    endloop
  endfacet
  facet normal  1.000000e+000  0.000000e+000  -0.000000e+000
    outer loop
      vertex  2.000000e+000 -3.475782e+001 -3.731164e+000
      vertex  2.000000e+000 -2.575000e+001 -9.750000e+000
      vertex  2.000000e+000 -2.575000e+001 -2.000000e+000
    endloop
  endfacet
  facet normal  1.000000e+000  0.000000e+000  0.000000e+000
    outer loop
      vertex  2.000000e+000 -3.475782e+001 -3.731164e+000
      vertex  2.000000e+000 -2.575000e+001 -2.000000e+000
      vertex  2.000000e+000 -2.716421e+001 -1.414214e+000
    endloop
  endfacet
  facet normal  1.000000e+000  0.000000e+000  0.000000e+000
    outer loop
      vertex  2.000000e+000 -3.475782e+001 -3.731164e+000
      vertex  2.000000e+000 -2.716421e+001 -1.414214e+000
      vertex  2.000000e+000 -2.775000e+001  2.449294e-016
    endloop
  endfacet
  facet normal  9.999999e-001  0.000000e+000  0.000000e+000
    outer loop
      vertex  2.000000e+000 -3.475782e+001 -3.731164e+000
      vertex  2.000000e+000 -2.775000e+001  2.449294e-016
      vertex  2.000000e+000 -3.550000e+001  5.523900e-015
    endloop
  endfacet
  facet normal  1.000000e+000  -0.000000e+000  -0.000000e+000
    outer loop
      vertex  2.000000e+000  2.575000e+001  2.000000e+000
      vertex  2.000000e+000  2.716421e+001  1.414214e+000
      vertex  2.000000e+000  3.550000e+001 -2.388061e-015
    endloop
  endfacet
  facet normal  1.000000e+000  0.000000e+000  0.000000e+000
    outer loop
      vertex  2.000000e+000  2.575000e+001  2.000000e+000
      vertex  2.000000e+000  3.550000e+001 -2.388061e-015
      vertex  2.000000e+000  3.475782e+001  3.731164e+000
    endloop
  endfacet
  facet normal  1.000000e+000  0.000000e+000  0.000000e+000
    outer loop
      vertex  2.000000e+000  2.575000e+001  2.000000e+000
      vertex  2.000000e+000  3.475782e+001  3.731164e+000
      vertex  2.000000e+000  3.264429e+001  6.894291e+000
    endloop
  endfacet
  facet normal  9.999999e-001  0.000000e+000  0.000000e+000
    outer loop
      vertex  2.000000e+000  2.575000e+001  2.000000e+000
      vertex  2.000000e+000  3.264429e+001  6.894291e+000
      vertex  2.000000e+000  2.948116e+001  9.007826e+000
    endloop
  endfacet
  facet normal  1.000000e+000  0.000000e+000  0.000000e+000
    outer loop
      vertex  2.000000e+000  2.575000e+001  2.000000e+000
      vertex  2.000000e+000  2.948116e+001  9.007826e+000
      vertex  2.000000e+000  2.575000e+001  9.750000e+000
    endloop
  endfacet
  facet normal  1.000000e+000  0.000000e+000  0.000000e+000
    outer loop
      vertex  2.000000e+000  2.575000e+001  2.000000e+000
      vertex  2.000000e+000  2.575000e+001  9.750000e+000
      vertex  2.000000e+000  1.150000e+001  9.750000e+000
    endloop
  endfacet
  facet normal  1.000000e+000  0.000000e+000  0.000000e+000
    outer loop
      vertex  2.000000e+000  2.575000e+001  2.000000e+000
      vertex  2.000000e+000  1.150000e+001  9.750000e+000
      vertex  2.000000e+000 -2.575000e+001  2.000000e+000
    endloop
  endfacet
  facet normal  1.000000e+000  -0.000000e+000  0.000000e+000
    outer loop
      vertex  2.000000e+000  2.575000e+001  2.000000e+000
      vertex  2.000000e+000 -2.575000e+001  2.000000e+000
      vertex  2.000000e+000 -2.433579e+001  1.414214e+000
    endloop
  endfacet
  facet normal  1.000000e+000  0.000000e+000  0.000000e+000
    outer loop
      vertex  2.000000e+000  2.575000e+001  2.000000e+000
      vertex  2.000000e+000 -2.433579e+001  1.414214e+000
      vertex  2.000000e+000  2.433579e+001  1.414214e+000
    endloop
  endfacet
  facet normal  1.000000e+000  0.000000e+000  -0.000000e+000
    outer loop
      vertex  2.000000e+000  2.575000e+001 -9.750000e+000
      vertex  2.000000e+000  2.948116e+001 -9.007826e+000
      vertex  2.000000e+000  3.264429e+001 -6.894291e+000
    endloop
  endfacet
  facet normal  1.000000e+000  0.000000e+000  -0.000000e+000
    outer loop
      vertex  2.000000e+000  2.575000e+001 -9.750000e+000
      vertex  2.000000e+000  3.264429e+001 -6.894291e+000
      vertex  2.000000e+000  3.475782e+001 -3.731164e+000
    endloop
  endfacet
  facet normal  1.000000e+000  0.000000e+000  0.000000e+000
    outer loop
      vertex  2.000000e+000  2.575000e+001 -9.750000e+000
      vertex  2.000000e+000  3.475782e+001 -3.731164e+000
      vertex  2.000000e+000  2.575000e+001 -2.000000e+000
    endloop
  endfacet
  facet normal  1.000000e+000  0.000000e+000  0.000000e+000
    outer loop
      vertex  2.000000e+000  2.575000e+001 -9.750000e+000
      vertex  2.000000e+000  2.575000e+001 -2.000000e+000
      vertex  2.000000e+000 -2.575000e+001 -2.000000e+000
    endloop
  endfacet
  facet normal  1.000000e+000  0.000000e+000  0.000000e+000
    outer loop
      vertex  2.000000e+000  2.575000e+001 -9.750000e+000
      vertex  2.000000e+000 -2.575000e+001 -2.000000e+000
      vertex  2.000000e+000 -2.575000e+001 -9.750000e+000
    endloop
  endfacet
  facet normal  1.000000e+000  -0.000000e+000  0.000000e+000
    outer loop
      vertex  2.000000e+000 -2.575000e+001  9.750000e+000
      vertex  2.000000e+000 -2.948116e+001  9.007826e+000
      vertex  2.000000e+000 -2.575000e+001  2.000000e+000
    endloop
  endfacet
  facet normal  1.000000e+000  0.000000e+000  0.000000e+000
    outer loop
      vertex  2.000000e+000 -2.575000e+001  2.000000e+000
      vertex  2.000000e+000 -2.948116e+001  9.007826e+000
      vertex  2.000000e+000 -3.264429e+001  6.894291e+000
    endloop
  endfacet
  facet normal  1.000000e+000  0.000000e+000  0.000000e+000
    outer loop
      vertex  2.000000e+000 -2.575000e+001  2.000000e+000
      vertex  2.000000e+000 -3.264429e+001  6.894291e+000
      vertex  2.000000e+000 -3.475782e+001  3.731164e+000
    endloop
  endfacet
  facet normal  1.000000e+000  0.000000e+000  0.000000e+000
    outer loop
      vertex  2.000000e+000 -2.575000e+001  2.000000e+000
      vertex  2.000000e+000 -3.475782e+001  3.731164e+000
      vertex  2.000000e+000 -2.716421e+001  1.414214e+000
    endloop
  endfacet
  facet normal  1.000000e+000  0.000000e+000  0.000000e+000
    outer loop
      vertex  2.000000e+000 -2.716421e+001  1.414214e+000
      vertex  2.000000e+000 -3.475782e+001  3.731164e+000
      vertex  2.000000e+000 -3.550000e+001  5.523900e-015
    endloop
  endfacet
  facet normal  9.999999e-001  -0.000000e+000  0.000000e+000
    outer loop
      vertex  2.000000e+000 -2.716421e+001  1.414214e+000
      vertex  2.000000e+000 -3.550000e+001  5.523900e-015
      vertex  2.000000e+000 -2.775000e+001  2.449294e-016
    endloop
  endfacet
  facet normal  1.000000e+000  -0.000000e+000  0.000000e+000
    outer loop
      vertex  2.000000e+000  2.433579e+001  1.414214e+000
      vertex  2.000000e+000 -2.433579e+001  1.414214e+000
      vertex  2.000000e+000  2.375000e+001  2.449294e-016
    endloop
  endfacet
  facet normal  1.000000e+000  0.000000e+000  0.000000e+000
    outer loop
      vertex  2.000000e+000  2.375000e+001  2.449294e-016
      vertex  2.000000e+000 -2.433579e+001  1.414214e+000
      vertex  2.000000e+000 -2.375000e+001  0.000000e+000
    endloop
  endfacet
  facet normal  1.000000e+000  -0.000000e+000  0.000000e+000
    outer loop
      vertex  2.000000e+000  2.375000e+001  2.449294e-016
      vertex  2.000000e+000 -2.375000e+001  0.000000e+000
      vertex  2.000000e+000  2.433579e+001 -1.414214e+000
    endloop
  endfacet
  facet normal  1.000000e+000  0.000000e+000  0.000000e+000
    outer loop
      vertex  2.000000e+000  2.433579e+001 -1.414214e+000
      vertex  2.000000e+000 -2.375000e+001  0.000000e+000
      vertex  2.000000e+000 -2.433579e+001 -1.414214e+000
    endloop
  endfacet
  facet normal  1.000000e+000  -0.000000e+000  0.000000e+000
    outer loop
      vertex  2.000000e+000  2.433579e+001 -1.414214e+000
      vertex  2.000000e+000 -2.433579e+001 -1.414214e+000
      vertex  2.000000e+000  2.575000e+001 -2.000000e+000
    endloop
  endfacet
  facet normal  1.000000e+000  0.000000e+000  0.000000e+000
    outer loop
      vertex  2.000000e+000  2.575000e+001 -2.000000e+000
      vertex  2.000000e+000 -2.433579e+001 -1.414214e+000
      vertex  2.000000e+000 -2.575000e+001 -2.000000e+000
    endloop
  endfacet
  facet normal  1.000000e+000  0.000000e+000  0.000000e+000
    outer loop
      vertex  2.000000e+000  2.716421e+001 -1.414214e+000
      vertex  2.000000e+000  3.475782e+001 -3.731164e+000
      vertex  2.000000e+000  2.775000e+001  0.000000e+000
    endloop
  endfacet
  facet normal  9.999999e-001  0.000000e+000  0.000000e+000
    outer loop
      vertex  2.000000e+000  2.775000e+001  0.000000e+000
      vertex  2.000000e+000  3.475782e+001 -3.731164e+000
      vertex  2.000000e+000  3.550000e+001 -2.388061e-015
    endloop
  endfacet
  facet normal  9.999999e-001  0.000000e+000  0.000000e+000
    outer loop
      vertex  2.000000e+000  2.775000e+001  0.000000e+000
      vertex  2.000000e+000  3.550000e+001 -2.388061e-015
      vertex  2.000000e+000  2.716421e+001  1.414214e+000
    endloop
  endfacet
  facet normal -1.000000e+000  0.000000e+000  0.000000e+000
    outer loop
      vertex  0.000000e+000 -2.948116e+001 -9.007826e+000
      vertex  0.000000e+000 -3.264429e+001 -6.894291e+000
      vertex  0.000000e+000 -2.575000e+001 -9.750000e+000
    endloop
  endfacet
  facet normal -1.000000e+000  0.000000e+000  0.000000e+000
    outer loop
      vertex  0.000000e+000  1.150000e+001  9.750000e+000
      vertex  0.000000e+000 -2.575000e+001  2.000000e+000
      vertex  0.000000e+000 -2.575000e+001  9.750000e+000
    endloop
  endfacet
  facet normal -1.000000e+000  0.000000e+000  -0.000000e+000
    outer loop
      vertex  0.000000e+000  2.575000e+001 -2.000000e+000
      vertex  0.000000e+000  2.716421e+001 -1.414214e+000
      vertex  0.000000e+000  3.475782e+001 -3.731164e+000
    endloop
  endfacet
  facet normal -9.999999e-001  0.000000e+000  0.000000e+000
    outer loop
      vertex  0.000000e+000 -3.475782e+001 -3.731164e+000
      vertex  0.000000e+000 -3.550000e+001  5.523900e-015
      vertex  0.000000e+000 -2.775000e+001  2.449294e-016
    endloop
  endfacet
  facet normal -1.000000e+000  0.000000e+000  -0.000000e+000
    outer loop
      vertex  0.000000e+000 -3.475782e+001 -3.731164e+000
      vertex  0.000000e+000 -2.775000e+001  2.449294e-016
      vertex  0.000000e+000 -2.716421e+001 -1.414214e+000
    endloop
  endfacet
  facet normal -1.000000e+000  0.000000e+000  -0.000000e+000
    outer loop
      vertex  0.000000e+000 -3.475782e+001 -3.731164e+000
      vertex  0.000000e+000 -2.716421e+001 -1.414214e+000
      vertex  0.000000e+000 -2.575000e+001 -2.000000e+000
    endloop
  endfacet
  facet normal -1.000000e+000  0.000000e+000  -0.000000e+000
    outer loop
      vertex  0.000000e+000 -3.475782e+001 -3.731164e+000
      vertex  0.000000e+000 -2.575000e+001 -2.000000e+000
      vertex  0.000000e+000 -2.575000e+001 -9.750000e+000
    endloop
  endfacet
  facet normal -1.000000e+000  0.000000e+000  0.000000e+000
    outer loop
      vertex  0.000000e+000 -3.475782e+001 -3.731164e+000
      vertex  0.000000e+000 -2.575000e+001 -9.750000e+000
      vertex  0.000000e+000 -3.264429e+001 -6.894291e+000
    endloop
  endfacet
  facet normal -1.000000e+000  0.000000e+000  0.000000e+000
    outer loop
      vertex  0.000000e+000  2.575000e+001  2.000000e+000
      vertex  0.000000e+000  2.433579e+001  1.414214e+000
      vertex  0.000000e+000 -2.433579e+001  1.414214e+000
    endloop
  endfacet
  facet normal -9.999999e-001  0.000000e+000  0.000000e+000
    outer loop
      vertex  0.000000e+000  2.575000e+001  2.000000e+000
      vertex  0.000000e+000 -2.433579e+001  1.414214e+000
      vertex  0.000000e+000 -2.575000e+001  2.000000e+000
    endloop
  endfacet
  facet normal -1.000000e+000  0.000000e+000  0.000000e+000
    outer loop
      vertex  0.000000e+000  2.575000e+001  2.000000e+000
      vertex  0.000000e+000 -2.575000e+001  2.000000e+000
      vertex  0.000000e+000  1.150000e+001  9.750000e+000
    endloop
  endfacet
  facet normal -1.000000e+000  0.000000e+000  0.000000e+000
    outer loop
      vertex  0.000000e+000  2.575000e+001  2.000000e+000
      vertex  0.000000e+000  1.150000e+001  9.750000e+000
      vertex  0.000000e+000  2.575000e+001  9.750000e+000
    endloop
  endfacet
  facet normal -1.000000e+000  0.000000e+000  0.000000e+000
    outer loop
      vertex  0.000000e+000  2.575000e+001  2.000000e+000
      vertex  0.000000e+000  2.575000e+001  9.750000e+000
      vertex  0.000000e+000  2.948116e+001  9.007826e+000
    endloop
  endfacet
  facet normal -9.999999e-001  0.000000e+000  -0.000000e+000
    outer loop
      vertex  0.000000e+000  2.575000e+001  2.000000e+000
      vertex  0.000000e+000  2.948116e+001  9.007826e+000
      vertex  0.000000e+000  3.264429e+001  6.894291e+000
    endloop
  endfacet
  facet normal -1.000000e+000  0.000000e+000  -0.000000e+000
    outer loop
      vertex  0.000000e+000  2.575000e+001  2.000000e+000
      vertex  0.000000e+000  3.264429e+001  6.894291e+000
      vertex  0.000000e+000  3.475782e+001  3.731164e+000
    endloop
  endfacet
  facet normal -1.000000e+000  0.000000e+000  -0.000000e+000
    outer loop
      vertex  0.000000e+000  2.575000e+001  2.000000e+000
      vertex  0.000000e+000  3.475782e+001  3.731164e+000
      vertex  0.000000e+000  3.550000e+001 -2.388061e-015
    endloop
  endfacet
  facet normal -1.000000e+000  0.000000e+000  0.000000e+000
    outer loop
      vertex  0.000000e+000  2.575000e+001  2.000000e+000
      vertex  0.000000e+000  3.550000e+001 -2.388061e-015
      vertex  0.000000e+000  2.716421e+001  1.414214e+000
    endloop
  endfacet
  facet normal -1.000000e+000  0.000000e+000  0.000000e+000
    outer loop
      vertex  0.000000e+000  2.575000e+001 -9.750000e+000
      vertex  0.000000e+000 -2.575000e+001 -9.750000e+000
      vertex  0.000000e+000 -2.575000e+001 -2.000000e+000
    endloop
  endfacet
  facet normal -1.000000e+000  0.000000e+000  0.000000e+000
    outer loop
      vertex  0.000000e+000  2.575000e+001 -9.750000e+000
      vertex  0.000000e+000 -2.575000e+001 -2.000000e+000
      vertex  0.000000e+000  2.575000e+001 -2.000000e+000
    endloop
  endfacet
  facet normal -1.000000e+000  0.000000e+000  0.000000e+000
    outer loop
      vertex  0.000000e+000  2.575000e+001 -9.750000e+000
      vertex  0.000000e+000  2.575000e+001 -2.000000e+000
      vertex  0.000000e+000  3.475782e+001 -3.731164e+000
    endloop
  endfacet
  facet normal -9.999999e-001  0.000000e+000  0.000000e+000
    outer loop
      vertex  0.000000e+000  2.575000e+001 -9.750000e+000
      vertex  0.000000e+000  3.475782e+001 -3.731164e+000
      vertex  0.000000e+000  3.264429e+001 -6.894291e+000
    endloop
  endfacet
  facet normal -1.000000e+000  0.000000e+000  0.000000e+000
    outer loop
      vertex  0.000000e+000  2.575000e+001 -9.750000e+000
      vertex  0.000000e+000  3.264429e+001 -6.894291e+000
      vertex  0.000000e+000  2.948116e+001 -9.007826e+000
    endloop
  endfacet
  facet normal -1.000000e+000  0.000000e+000  -0.000000e+000
    outer loop
      vertex  0.000000e+000 -3.475782e+001  3.731164e+000
      vertex  0.000000e+000 -3.264429e+001  6.894291e+000
      vertex  0.000000e+000 -2.575000e+001  2.000000e+000
    endloop
  endfacet
  facet normal -1.000000e+000  0.000000e+000  0.000000e+000
    outer loop
      vertex  0.000000e+000 -2.575000e+001  2.000000e+000
      vertex  0.000000e+000 -3.264429e+001  6.894291e+000
      vertex  0.000000e+000 -2.948116e+001  9.007826e+000
    endloop
  endfacet
  facet normal -1.000000e+000  0.000000e+000  0.000000e+000
    outer loop
      vertex  0.000000e+000 -2.575000e+001  2.000000e+000
      vertex  0.000000e+000 -2.948116e+001  9.007826e+000
      vertex  0.000000e+000 -2.575000e+001  9.750000e+000
    endloop
  endfacet
  facet normal -9.999999e-001  0.000000e+000  0.000000e+000
    outer loop
      vertex  0.000000e+000 -2.775000e+001  2.449294e-016
      vertex  0.000000e+000 -3.550000e+001  5.523900e-015
      vertex  0.000000e+000 -2.716421e+001  1.414214e+000
    endloop
  endfacet
  facet normal -1.000000e+000  -0.000000e+000  0.000000e+000
    outer loop
      vertex  0.000000e+000 -2.716421e+001  1.414214e+000
      vertex  0.000000e+000 -3.550000e+001  5.523900e-015
      vertex  0.000000e+000 -3.475782e+001  3.731164e+000
    endloop
  endfacet
  facet normal -1.000000e+000  0.000000e+000  0.000000e+000
    outer loop
      vertex  0.000000e+000 -2.716421e+001  1.414214e+000
      vertex  0.000000e+000 -3.475782e+001  3.731164e+000
      vertex  0.000000e+000 -2.575000e+001  2.000000e+000
    endloop
  endfacet
  facet normal -1.000000e+000  0.000000e+000  0.000000e+000
    outer loop
      vertex  0.000000e+000  2.375000e+001  2.449294e-016
      vertex  0.000000e+000 -2.433579e+001  1.414214e+000
      vertex  0.000000e+000  2.433579e+001  1.414214e+000
    endloop
  endfacet
  facet normal -1.000000e+000  -0.000000e+000  0.000000e+000
    outer loop
      vertex  0.000000e+000 -2.433579e+001  1.414214e+000
      vertex  0.000000e+000  2.375000e+001  2.449294e-016
      vertex  0.000000e+000 -2.375000e+001  0.000000e+000
    endloop
  endfacet
  facet normal -1.000000e+000  0.000000e+000  0.000000e+000
    outer loop
      vertex  0.000000e+000 -2.375000e+001  0.000000e+000
      vertex  0.000000e+000  2.375000e+001  2.449294e-016
      vertex  0.000000e+000  2.433579e+001 -1.414214e+000
    endloop
  endfacet
  facet normal -1.000000e+000  0.000000e+000  0.000000e+000
    outer loop
      vertex  0.000000e+000 -2.375000e+001  0.000000e+000
      vertex  0.000000e+000  2.433579e+001 -1.414214e+000
      vertex  0.000000e+000 -2.433579e+001 -1.414214e+000
    endloop
  endfacet
  facet normal -1.000000e+000  0.000000e+000  0.000000e+000
    outer loop
      vertex  0.000000e+000 -2.433579e+001 -1.414214e+000
      vertex  0.000000e+000  2.433579e+001 -1.414214e+000
      vertex  0.000000e+000  2.575000e+001 -2.000000e+000
    endloop
  endfacet
  facet normal -1.000000e+000  0.000000e+000  0.000000e+000
    outer loop
      vertex  0.000000e+000 -2.433579e+001 -1.414214e+000
      vertex  0.000000e+000  2.575000e+001 -2.000000e+000
      vertex  0.000000e+000 -2.575000e+001 -2.000000e+000
    endloop
  endfacet
  facet normal -9.999999e-001  0.000000e+000  0.000000e+000
    outer loop
      vertex  0.000000e+000  2.716421e+001  1.414214e+000
      vertex  0.000000e+000  3.550000e+001 -2.388061e-015
      vertex  0.000000e+000  2.775000e+001  0.000000e+000
    endloop
  endfacet
  facet normal -9.999999e-001  0.000000e+000  0.000000e+000
    outer loop
      vertex  0.000000e+000  2.775000e+001  0.000000e+000
      vertex  0.000000e+000  3.550000e+001 -2.388061e-015
      vertex  0.000000e+000  3.475782e+001 -3.731164e+000
    endloop
  endfacet
  facet normal -1.000000e+000  0.000000e+000  0.000000e+000
    outer loop
      vertex  0.000000e+000  2.775000e+001  0.000000e+000
      vertex  0.000000e+000  3.475782e+001 -3.731164e+000
      vertex  0.000000e+000  2.716421e+001 -1.414214e+000
    endloop
  endfacet
  facet normal  9.238794e-001 -3.826834e-001  0.000000e+000
    outer loop
      vertex  2.000000e+000  1.150000e+001  9.750000e+000
      vertex  2.000000e+000  1.150000e+001  2.225000e+001
      vertex  1.707107e+000  1.079289e+001  9.750000e+000
    endloop
  endfacet
  facet normal  9.238794e-001 -3.826834e-001  0.000000e+000
    outer loop
      vertex  1.707107e+000  1.079289e+001  9.750000e+000
      vertex  2.000000e+000  1.150000e+001  2.225000e+001
      vertex  1.707107e+000  1.079289e+001  2.225000e+001
    endloop
  endfacet
  facet normal  3.826836e-001 -9.238795e-001  0.000000e+000
    outer loop
      vertex  1.707107e+000  1.079289e+001  9.750000e+000
      vertex  1.707107e+000  1.079289e+001  2.225000e+001
      vertex  1.000000e+000  1.050000e+001  9.750000e+000
    endloop
  endfacet
  facet normal  3.826836e-001 -9.238795e-001  0.000000e+000
    outer loop
      vertex  1.000000e+000  1.050000e+001  9.750000e+000
      vertex  1.707107e+000  1.079289e+001  2.225000e+001
      vertex  1.000000e+000  1.050000e+001  2.225000e+001
    endloop
  endfacet
  facet normal -3.826837e-001 -9.238794e-001  -0.000000e+000
    outer loop
      vertex  1.000000e+000  1.050000e+001  9.750000e+000
      vertex  1.000000e+000  1.050000e+001  2.225000e+001
      vertex  2.928932e-001  1.079289e+001  9.750000e+000
    endloop
  endfacet
  facet normal -3.826837e-001 -9.238794e-001  0.000000e+000
    outer loop
      vertex  2.928932e-001  1.079289e+001  9.750000e+000
      vertex  1.000000e+000  1.050000e+001  2.225000e+001
      vertex  2.928932e-001  1.079289e+001  2.225000e+001
    endloop
  endfacet
  facet normal -9.238794e-001 -3.826835e-001  -0.000000e+000
    outer loop
      vertex  2.928932e-001  1.079289e+001  9.750000e+000
      vertex  2.928932e-001  1.079289e+001  2.225000e+001
      vertex  0.000000e+000  1.150000e+001  9.750000e+000
    endloop
  endfacet
  facet normal -9.238794e-001 -3.826835e-001  0.000000e+000
    outer loop
      vertex  0.000000e+000  1.150000e+001  9.750000e+000
      vertex  2.928932e-001  1.079289e+001  2.225000e+001
      vertex  0.000000e+000  1.150000e+001  2.225000e+001
    endloop
  endfacet
  facet normal -9.238794e-001  3.826835e-001  0.000000e+000
    outer loop
      vertex  0.000000e+000  1.150000e+001  9.750000e+000
      vertex  0.000000e+000  1.150000e+001  2.225000e+001
      vertex  2.928932e-001  1.220711e+001  9.750000e+000
    endloop
  endfacet
  facet normal -9.238794e-001  3.826835e-001  0.000000e+000
    outer loop
      vertex  2.928932e-001  1.220711e+001  9.750000e+000
      vertex  0.000000e+000  1.150000e+001  2.225000e+001
      vertex  2.928932e-001  1.220711e+001  2.225000e+001
    endloop
  endfacet
  facet normal -3.826837e-001  9.238794e-001  0.000000e+000
    outer loop
      vertex  2.928932e-001  1.220711e+001  9.750000e+000
      vertex  2.928932e-001  1.220711e+001  2.225000e+001
      vertex  1.000000e+000  1.250000e+001  9.750000e+000
    endloop
  endfacet
  facet normal -3.826837e-001  9.238794e-001  0.000000e+000
    outer loop
      vertex  1.000000e+000  1.250000e+001  9.750000e+000
      vertex  2.928932e-001  1.220711e+001  2.225000e+001
      vertex  1.000000e+000  1.250000e+001  2.225000e+001
    endloop
  endfacet
  facet normal  3.826836e-001  9.238795e-001  0.000000e+000
    outer loop
      vertex  1.000000e+000  1.250000e+001  9.750000e+000
      vertex  1.000000e+000  1.250000e+001  2.225000e+001
      vertex  1.707107e+000  1.220711e+001  9.750000e+000
    endloop
  endfacet
  facet normal  3.826836e-001  9.238795e-001  -0.000000e+000
    outer loop
      vertex  1.707107e+000  1.220711e+001  9.750000e+000
      vertex  1.000000e+000  1.250000e+001  2.225000e+001
      vertex  1.707107e+000  1.220711e+001  2.225000e+001
    endloop
  endfacet
  facet normal  9.238794e-001  3.826834e-001  0.000000e+000
    outer loop
      vertex  1.707107e+000  1.220711e+001  9.750000e+000
      vertex  1.707107e+000  1.220711e+001  2.225000e+001
      vertex  2.000000e+000  1.150000e+001  9.750000e+000
    endloop
  endfacet
  facet normal  9.238794e-001  3.826834e-001  -0.000000e+000
    outer loop
      vertex  2.000000e+000  1.150000e+001  9.750000e+000
      vertex  1.707107e+000  1.220711e+001  2.225000e+001
      vertex  2.000000e+000  1.150000e+001  2.225000e+001
    endloop
  endfacet
  facet normal  0.000000e+000  0.000000e+000  1.000000e+000
    outer loop
      vertex  2.928932e-001  1.220711e+001  2.225000e+001
      vertex  1.707107e+000  1.220711e+001  2.225000e+001
      vertex  1.000000e+000  1.250000e+001  2.225000e+001
    endloop
  endfacet
  facet normal  -0.000000e+000  0.000000e+000  1.000000e+000
    outer loop
      vertex  1.707107e+000  1.220711e+001  2.225000e+001
      vertex  2.928932e-001  1.220711e+001  2.225000e+001
      vertex  2.000000e+000  1.150000e+001  2.225000e+001
    endloop
  endfacet
  facet normal  0.000000e+000  0.000000e+000  9.999999e-001
    outer loop
      vertex  2.000000e+000  1.150000e+001  2.225000e+001
      vertex  2.928932e-001  1.220711e+001  2.225000e+001
      vertex  0.000000e+000  1.150000e+001  2.225000e+001
    endloop
  endfacet
  facet normal  -0.000000e+000  0.000000e+000  9.999999e-001
    outer loop
      vertex  2.000000e+000  1.150000e+001  2.225000e+001
      vertex  0.000000e+000  1.150000e+001  2.225000e+001
      vertex  1.707107e+000  1.079289e+001  2.225000e+001
    endloop
  endfacet
  facet normal  0.000000e+000  0.000000e+000  1.000000e+000
    outer loop
      vertex  1.707107e+000  1.079289e+001  2.225000e+001
      vertex  0.000000e+000  1.150000e+001  2.225000e+001
      vertex  2.928932e-001  1.079289e+001  2.225000e+001
    endloop
  endfacet
  facet normal  -0.000000e+000  0.000000e+000  1.000000e+000
    outer loop
      vertex  1.707107e+000  1.079289e+001  2.225000e+001
      vertex  2.928932e-001  1.079289e+001  2.225000e+001
      vertex  1.000000e+000  1.050000e+001  2.225000e+001
    endloop
  endfacet
  facet normal  0.000000e+000 -3.826835e-001  9.238795e-001
    outer loop
      vertex  0.000000e+000  2.575000e+001 -2.000000e+000
      vertex  2.000000e+000  2.716421e+001 -1.414214e+000
      vertex  0.000000e+000  2.716421e+001 -1.414214e+000
    endloop
  endfacet
  facet normal  0.000000e+000 -9.238794e-001  3.826837e-001
    outer loop
      vertex  0.000000e+000  2.716421e+001 -1.414214e+000
      vertex  2.000000e+000  2.716421e+001 -1.414214e+000
      vertex  2.000000e+000  2.775000e+001  0.000000e+000
    endloop
  endfacet
  facet normal  0.000000e+000 -9.238794e-001  3.826837e-001
    outer loop
      vertex  0.000000e+000  2.716421e+001 -1.414214e+000
      vertex  2.000000e+000  2.775000e+001  0.000000e+000
      vertex  0.000000e+000  2.775000e+001  0.000000e+000
    endloop
  endfacet
  facet normal  0.000000e+000 -3.826835e-001  9.238795e-001
    outer loop
      vertex  2.000000e+000  2.716421e+001 -1.414214e+000
      vertex  0.000000e+000  2.575000e+001 -2.000000e+000
      vertex  2.000000e+000  2.575000e+001 -2.000000e+000
    endloop
  endfacet
  facet normal  0.000000e+000  3.826835e-001  9.238795e-001
    outer loop
      vertex  2.000000e+000  2.575000e+001 -2.000000e+000
      vertex  0.000000e+000  2.575000e+001 -2.000000e+000
      vertex  0.000000e+000  2.433579e+001 -1.414214e+000
    endloop
  endfacet
  facet normal  -0.000000e+000  3.826835e-001  9.238795e-001
    outer loop
      vertex  2.000000e+000  2.575000e+001 -2.000000e+000
      vertex  0.000000e+000  2.433579e+001 -1.414214e+000
      vertex  2.000000e+000  2.433579e+001 -1.414214e+000
    endloop
  endfacet
  facet normal  0.000000e+000  9.238794e-001  3.826837e-001
    outer loop
      vertex  2.000000e+000  2.433579e+001 -1.414214e+000
      vertex  0.000000e+000  2.433579e+001 -1.414214e+000
      vertex  0.000000e+000  2.375000e+001  2.449294e-016
    endloop
  endfacet
  facet normal  -0.000000e+000  9.238794e-001  3.826837e-001
    outer loop
      vertex  2.000000e+000  2.433579e+001 -1.414214e+000
      vertex  0.000000e+000  2.375000e+001  2.449294e-016
      vertex  2.000000e+000  2.375000e+001  2.449294e-016
    endloop
  endfacet
  facet normal  0.000000e+000  3.826835e-001 -9.238795e-001
    outer loop
      vertex  0.000000e+000  2.575000e+001  2.000000e+000
      vertex  2.000000e+000  2.433579e+001  1.414214e+000
      vertex  0.000000e+000  2.433579e+001  1.414214e+000
    endloop
  endfacet
  facet normal  0.000000e+000  9.238794e-001 -3.826837e-001
    outer loop
      vertex  0.000000e+000  2.433579e+001  1.414214e+000
      vertex  2.000000e+000  2.433579e+001  1.414214e+000
      vertex  2.000000e+000  2.375000e+001  2.449294e-016
    endloop
  endfacet
  facet normal  0.000000e+000  9.238794e-001 -3.826837e-001
    outer loop
      vertex  0.000000e+000  2.433579e+001  1.414214e+000
      vertex  2.000000e+000  2.375000e+001  2.449294e-016
      vertex  0.000000e+000  2.375000e+001  2.449294e-016
    endloop
  endfacet
  facet normal  0.000000e+000  3.826835e-001 -9.238795e-001
    outer loop
      vertex  2.000000e+000  2.433579e+001  1.414214e+000
      vertex  0.000000e+000  2.575000e+001  2.000000e+000
      vertex  2.000000e+000  2.575000e+001  2.000000e+000
    endloop
  endfacet
  facet normal  -0.000000e+000 -3.826835e-001 -9.238795e-001
    outer loop
      vertex  2.000000e+000  2.575000e+001  2.000000e+000
      vertex  0.000000e+000  2.575000e+001  2.000000e+000
      vertex  0.000000e+000  2.716421e+001  1.414214e+000
    endloop
  endfacet
  facet normal  0.000000e+000 -3.826835e-001 -9.238795e-001
    outer loop
      vertex  2.000000e+000  2.575000e+001  2.000000e+000
      vertex  0.000000e+000  2.716421e+001  1.414214e+000
      vertex  2.000000e+000  2.716421e+001  1.414214e+000
    endloop
  endfacet
  facet normal  -0.000000e+000 -9.238794e-001 -3.826837e-001
    outer loop
      vertex  2.000000e+000  2.716421e+001  1.414214e+000
      vertex  0.000000e+000  2.716421e+001  1.414214e+000
      vertex  0.000000e+000  2.775000e+001  0.000000e+000
    endloop
  endfacet
  facet normal  0.000000e+000 -9.238794e-001 -3.826837e-001
    outer loop
      vertex  2.000000e+000  2.716421e+001  1.414214e+000
      vertex  0.000000e+000  2.775000e+001  0.000000e+000
      vertex  2.000000e+000  2.775000e+001  0.000000e+000
    endloop
  endfacet
  facet normal  0.000000e+000 -3.826835e-001  9.238795e-001
    outer loop
      vertex  0.000000e+000 -2.575000e+001 -2.000000e+000
      vertex  2.000000e+000 -2.433579e+001 -1.414214e+000
      vertex  0.000000e+000 -2.433579e+001 -1.414214e+000
    endloop
  endfacet
  facet normal  0.000000e+000 -9.238794e-001  3.826837e-001
    outer loop
      vertex  0.000000e+000 -2.433579e+001 -1.414214e+000
      vertex  2.000000e+000 -2.433579e+001 -1.414214e+000
      vertex  2.000000e+000 -2.375000e+001  0.000000e+000
    endloop
  endfacet
  facet normal  0.000000e+000 -9.238794e-001  3.826837e-001
    outer loop
      vertex  0.000000e+000 -2.433579e+001 -1.414214e+000
      vertex  2.000000e+000 -2.375000e+001  0.000000e+000
      vertex  0.000000e+000 -2.375000e+001  0.000000e+000
    endloop
  endfacet
  facet normal  0.000000e+000 -3.826835e-001  9.238795e-001
    outer loop
      vertex  2.000000e+000 -2.433579e+001 -1.414214e+000
      vertex  0.000000e+000 -2.575000e+001 -2.000000e+000
      vertex  2.000000e+000 -2.575000e+001 -2.000000e+000
    endloop
  endfacet
  facet normal  0.000000e+000  3.826835e-001  9.238795e-001
    outer loop
      vertex  2.000000e+000 -2.575000e+001 -2.000000e+000
      vertex  0.000000e+000 -2.575000e+001 -2.000000e+000
      vertex  0.000000e+000 -2.716421e+001 -1.414214e+000
    endloop
  endfacet
  facet normal  -0.000000e+000  3.826835e-001  9.238795e-001
    outer loop
      vertex  2.000000e+000 -2.575000e+001 -2.000000e+000
      vertex  0.000000e+000 -2.716421e+001 -1.414214e+000
      vertex  2.000000e+000 -2.716421e+001 -1.414214e+000
    endloop
  endfacet
  facet normal  0.000000e+000  9.238794e-001  3.826837e-001
    outer loop
      vertex  2.000000e+000 -2.716421e+001 -1.414214e+000
      vertex  0.000000e+000 -2.716421e+001 -1.414214e+000
      vertex  0.000000e+000 -2.775000e+001  2.449294e-016
    endloop
  endfacet
  facet normal  -0.000000e+000  9.238794e-001  3.826837e-001
    outer loop
      vertex  2.000000e+000 -2.716421e+001 -1.414214e+000
      vertex  0.000000e+000 -2.775000e+001  2.449294e-016
      vertex  2.000000e+000 -2.775000e+001  2.449294e-016
    endloop
  endfacet
  facet normal  0.000000e+000  3.826835e-001 -9.238795e-001
    outer loop
      vertex  0.000000e+000 -2.575000e+001  2.000000e+000
      vertex  2.000000e+000 -2.716421e+001  1.414214e+000
      vertex  0.000000e+000 -2.716421e+001  1.414214e+000
    endloop
  endfacet
  facet normal  0.000000e+000  9.238794e-001 -3.826837e-001
    outer loop
      vertex  0.000000e+000 -2.716421e+001  1.414214e+000
      vertex  2.000000e+000 -2.716421e+001  1.414214e+000
      vertex  2.000000e+000 -2.775000e+001  2.449294e-016
    endloop
  endfacet
  facet normal  0.000000e+000  9.238794e-001 -3.826837e-001
    outer loop
      vertex  0.000000e+000 -2.716421e+001  1.414214e+000
      vertex  2.000000e+000 -2.775000e+001  2.449294e-016
      vertex  0.000000e+000 -2.775000e+001  2.449294e-016
    endloop
  endfacet
  facet normal  0.000000e+000  3.826835e-001 -9.238795e-001
    outer loop
      vertex  2.000000e+000 -2.716421e+001  1.414214e+000
      vertex  0.000000e+000 -2.575000e+001  2.000000e+000
      vertex  2.000000e+000 -2.575000e+001  2.000000e+000
    endloop
  endfacet
  facet normal  -0.000000e+000 -3.826835e-001 -9.238795e-001
    outer loop
      vertex  2.000000e+000 -2.575000e+001  2.000000e+000
      vertex  0.000000e+000 -2.575000e+001  2.000000e+000
      vertex  0.000000e+000 -2.433579e+001  1.414214e+000
    endloop
  endfacet
  facet normal  0.000000e+000 -3.826835e-001 -9.238795e-001
    outer loop
      vertex  2.000000e+000 -2.575000e+001  2.000000e+000
      vertex  0.000000e+000 -2.433579e+001  1.414214e+000
      vertex  2.000000e+000 -2.433579e+001  1.414214e+000
    endloop
  endfacet
  facet normal  -0.000000e+000 -9.238794e-001 -3.826837e-001
    outer loop
      vertex  2.000000e+000 -2.433579e+001  1.414214e+000
      vertex  0.000000e+000 -2.433579e+001  1.414214e+000
      vertex  0.000000e+000 -2.375000e+001  0.000000e+000
    endloop
  endfacet
  facet normal  0.000000e+000 -9.238794e-001 -3.826837e-001
    outer loop
      vertex  2.000000e+000 -2.433579e+001  1.414214e+000
      vertex  0.000000e+000 -2.375000e+001  0.000000e+000
      vertex  2.000000e+000 -2.375000e+001  0.000000e+000
    endloop
  endfacet
  facet normal  0.000000e+000  1.950902e-001  9.807853e-001
    outer loop
      vertex  0.000000e+000  2.575000e+001  9.750000e+000
      vertex  2.000000e+000  2.575000e+001  9.750000e+000
      vertex  0.000000e+000  2.948116e+001  9.007826e+000
    endloop
  endfacet
  facet normal  -0.000000e+000  1.950902e-001  9.807853e-001
    outer loop
      vertex  0.000000e+000  2.948116e+001  9.007826e+000
      vertex  2.000000e+000  2.575000e+001  9.750000e+000
      vertex  2.000000e+000  2.948116e+001  9.007826e+000
    endloop
  endfacet
  facet normal  0.000000e+000  5.555703e-001  8.314695e-001
    outer loop
      vertex  0.000000e+000  2.948116e+001  9.007826e+000
      vertex  2.000000e+000  2.948116e+001  9.007826e+000
      vertex  0.000000e+000  3.264429e+001  6.894291e+000
    endloop
  endfacet
  facet normal  -0.000000e+000  5.555703e-001  8.314695e-001
    outer loop
      vertex  0.000000e+000  3.264429e+001  6.894291e+000
      vertex  2.000000e+000  2.948116e+001  9.007826e+000
      vertex  2.000000e+000  3.264429e+001  6.894291e+000
    endloop
  endfacet
  facet normal  0.000000e+000  8.314698e-001  5.555700e-001
    outer loop
      vertex  0.000000e+000  3.264429e+001  6.894291e+000
      vertex  2.000000e+000  3.264429e+001  6.894291e+000
      vertex  0.000000e+000  3.475782e+001  3.731164e+000
    endloop
  endfacet
  facet normal  -0.000000e+000  8.314698e-001  5.555700e-001
    outer loop
      vertex  0.000000e+000  3.475782e+001  3.731164e+000
      vertex  2.000000e+000  3.264429e+001  6.894291e+000
      vertex  2.000000e+000  3.475782e+001  3.731164e+000
    endloop
  endfacet
  facet normal  0.000000e+000  9.807852e-001  1.950907e-001
    outer loop
      vertex  0.000000e+000  3.475782e+001  3.731164e+000
      vertex  2.000000e+000  3.475782e+001  3.731164e+000
      vertex  0.000000e+000  3.550000e+001 -2.388061e-015
    endloop
  endfacet
  facet normal  -0.000000e+000  9.807852e-001  1.950907e-001
    outer loop
      vertex  0.000000e+000  3.550000e+001 -2.388061e-015
      vertex  2.000000e+000  3.475782e+001  3.731164e+000
      vertex  2.000000e+000  3.550000e+001 -2.388061e-015
    endloop
  endfacet
  facet normal  0.000000e+000  9.807852e-001 -1.950907e-001
    outer loop
      vertex  0.000000e+000  3.550000e+001 -2.388061e-015
      vertex  2.000000e+000  3.550000e+001 -2.388061e-015
      vertex  0.000000e+000  3.475782e+001 -3.731164e+000
    endloop
  endfacet
  facet normal  0.000000e+000  9.807852e-001 -1.950907e-001
    outer loop
      vertex  0.000000e+000  3.475782e+001 -3.731164e+000
      vertex  2.000000e+000  3.550000e+001 -2.388061e-015
      vertex  2.000000e+000  3.475782e+001 -3.731164e+000
    endloop
  endfacet
  facet normal  0.000000e+000  8.314698e-001 -5.555700e-001
    outer loop
      vertex  0.000000e+000  3.475782e+001 -3.731164e+000
      vertex  2.000000e+000  3.475782e+001 -3.731164e+000
      vertex  0.000000e+000  3.264429e+001 -6.894291e+000
    endloop
  endfacet
  facet normal  0.000000e+000  8.314698e-001 -5.555700e-001
    outer loop
      vertex  0.000000e+000  3.264429e+001 -6.894291e+000
      vertex  2.000000e+000  3.475782e+001 -3.731164e+000
      vertex  2.000000e+000  3.264429e+001 -6.894291e+000
    endloop
  endfacet
  facet normal  0.000000e+000  5.555703e-001 -8.314695e-001
    outer loop
      vertex  0.000000e+000  3.264429e+001 -6.894291e+000
      vertex  2.000000e+000  3.264429e+001 -6.894291e+000
      vertex  0.000000e+000  2.948116e+001 -9.007826e+000
    endloop
  endfacet
  facet normal  0.000000e+000  5.555703e-001 -8.314695e-001
    outer loop
      vertex  0.000000e+000  2.948116e+001 -9.007826e+000
      vertex  2.000000e+000  3.264429e+001 -6.894291e+000
      vertex  2.000000e+000  2.948116e+001 -9.007826e+000
    endloop
  endfacet
  facet normal  0.000000e+000  1.950902e-001 -9.807853e-001
    outer loop
      vertex  0.000000e+000  2.948116e+001 -9.007826e+000
      vertex  2.000000e+000  2.948116e+001 -9.007826e+000
      vertex  0.000000e+000  2.575000e+001 -9.750000e+000
    endloop
  endfacet
  facet normal  0.000000e+000  1.950902e-001 -9.807853e-001
    outer loop
      vertex  0.000000e+000  2.575000e+001 -9.750000e+000
      vertex  2.000000e+000  2.948116e+001 -9.007826e+000
      vertex  2.000000e+000  2.575000e+001 -9.750000e+000
    endloop
  endfacet
  facet normal  0.000000e+000  0.000000e+000 -1.000000e+000
    outer loop
      vertex  2.000000e+000 -2.575000e+001 -9.750000e+000
      vertex  0.000000e+000 -2.575000e+001 -9.750000e+000
      vertex  2.000000e+000  2.575000e+001 -9.750000e+000
    endloop
  endfacet
  facet normal  -0.000000e+000  0.000000e+000 -1.000000e+000
    outer loop
      vertex  2.000000e+000  2.575000e+001 -9.750000e+000
      vertex  0.000000e+000 -2.575000e+001 -9.750000e+000
      vertex  0.000000e+000  2.575000e+001 -9.750000e+000
    endloop
  endfacet
  facet normal  -0.000000e+000 -1.950902e-001 -9.807853e-001
    outer loop
      vertex  0.000000e+000 -2.575000e+001 -9.750000e+000
      vertex  2.000000e+000 -2.575000e+001 -9.750000e+000
      vertex  0.000000e+000 -2.948116e+001 -9.007826e+000
    endloop
  endfacet
  facet normal  0.000000e+000 -1.950902e-001 -9.807853e-001
    outer loop
      vertex  0.000000e+000 -2.948116e+001 -9.007826e+000
      vertex  2.000000e+000 -2.575000e+001 -9.750000e+000
      vertex  2.000000e+000 -2.948116e+001 -9.007826e+000
    endloop
  endfacet
  facet normal  -0.000000e+000 -5.555703e-001 -8.314695e-001
    outer loop
      vertex  0.000000e+000 -2.948116e+001 -9.007826e+000
      vertex  2.000000e+000 -2.948116e+001 -9.007826e+000
      vertex  0.000000e+000 -3.264429e+001 -6.894291e+000
    endloop
  endfacet
  facet normal  0.000000e+000 -5.555703e-001 -8.314695e-001
    outer loop
      vertex  0.000000e+000 -3.264429e+001 -6.894291e+000
      vertex  2.000000e+000 -2.948116e+001 -9.007826e+000
      vertex  2.000000e+000 -3.264429e+001 -6.894291e+000
    endloop
  endfacet
  facet normal  -0.000000e+000 -8.314698e-001 -5.555700e-001
    outer loop
      vertex  0.000000e+000 -3.264429e+001 -6.894291e+000
      vertex  2.000000e+000 -3.264429e+001 -6.894291e+000
      vertex  0.000000e+000 -3.475782e+001 -3.731164e+000
    endloop
  endfacet
  facet normal  0.000000e+000 -8.314698e-001 -5.555700e-001
    outer loop
      vertex  0.000000e+000 -3.475782e+001 -3.731164e+000
      vertex  2.000000e+000 -3.264429e+001 -6.894291e+000
      vertex  2.000000e+000 -3.475782e+001 -3.731164e+000
    endloop
  endfacet
  facet normal  -0.000000e+000 -9.807852e-001 -1.950907e-001
    outer loop
      vertex  0.000000e+000 -3.475782e+001 -3.731164e+000
      vertex  2.000000e+000 -3.475782e+001 -3.731164e+000
      vertex  0.000000e+000 -3.550000e+001  5.523900e-015
    endloop
  endfacet
  facet normal  0.000000e+000 -9.807852e-001 -1.950907e-001
    outer loop
      vertex  0.000000e+000 -3.550000e+001  5.523900e-015
      vertex  2.000000e+000 -3.475782e+001 -3.731164e+000
      vertex  2.000000e+000 -3.550000e+001  5.523900e-015
    endloop
  endfacet
  facet normal  0.000000e+000 -9.807852e-001  1.950907e-001
    outer loop
      vertex  0.000000e+000 -3.550000e+001  5.523900e-015
      vertex  2.000000e+000 -3.550000e+001  5.523900e-015
      vertex  0.000000e+000 -3.475782e+001  3.731164e+000
    endloop
  endfacet
  facet normal  0.000000e+000 -9.807852e-001  1.950907e-001
    outer loop
      vertex  0.000000e+000 -3.475782e+001  3.731164e+000
      vertex  2.000000e+000 -3.550000e+001  5.523900e-015
      vertex  2.000000e+000 -3.475782e+001  3.731164e+000
    endloop
  endfacet
  facet normal  0.000000e+000 -8.314698e-001  5.555700e-001
    outer loop
      vertex  0.000000e+000 -3.475782e+001  3.731164e+000
      vertex  2.000000e+000 -3.475782e+001  3.731164e+000
      vertex  0.000000e+000 -3.264429e+001  6.894291e+000
    endloop
  endfacet
  facet normal  0.000000e+000 -8.314698e-001  5.555700e-001
    outer loop
      vertex  0.000000e+000 -3.264429e+001  6.894291e+000
      vertex  2.000000e+000 -3.475782e+001  3.731164e+000
      vertex  2.000000e+000 -3.264429e+001  6.894291e+000
    endloop
  endfacet
  facet normal  0.000000e+000 -5.555703e-001  8.314695e-001
    outer loop
      vertex  0.000000e+000 -3.264429e+001  6.894291e+000
      vertex  2.000000e+000 -3.264429e+001  6.894291e+000
      vertex  0.000000e+000 -2.948116e+001  9.007826e+000
    endloop
  endfacet
  facet normal  0.000000e+000 -5.555703e-001  8.314695e-001
    outer loop
      vertex  0.000000e+000 -2.948116e+001  9.007826e+000
      vertex  2.000000e+000 -3.264429e+001  6.894291e+000
      vertex  2.000000e+000 -2.948116e+001  9.007826e+000
    endloop
  endfacet
  facet normal  0.000000e+000 -1.950902e-001  9.807853e-001
    outer loop
      vertex  0.000000e+000 -2.948116e+001  9.007826e+000
      vertex  2.000000e+000 -2.948116e+001  9.007826e+000
      vertex  0.000000e+000 -2.575000e+001  9.750000e+000
    endloop
  endfacet
  facet normal  0.000000e+000 -1.950902e-001  9.807853e-001
    outer loop
      vertex  0.000000e+000 -2.575000e+001  9.750000e+000
      vertex  2.000000e+000 -2.948116e+001  9.007826e+000
      vertex  2.000000e+000 -2.575000e+001  9.750000e+000
    endloop
  endfacet
endsolid CATIA STL
