solid CATIA STL
  facet normal -1.000000e+000  0.000000e+000  -0.000000e+000
    outer loop
      vertex  0.000000e+000 -1.460000e+001 -4.175000e+001
      vertex  0.000000e+000 -1.353934e+001 -4.131066e+001
      vertex  0.000000e+000 -1.160000e+001 -4.400000e+001
    endloop
  endfacet
  facet normal -1.000000e+000  0.000000e+000  -0.000000e+000
    outer loop
      vertex  0.000000e+000 -1.353934e+001 -4.131066e+001
      vertex  0.000000e+000 -1.310000e+001 -4.025000e+001
      vertex  0.000000e+000 -1.160000e+001 -4.400000e+001
    endloop
  endfacet
  facet normal -1.000000e+000  0.000000e+000  0.000000e+000
    outer loop
      vertex  0.000000e+000  1.160000e+001 -4.400000e+001
      vertex  0.000000e+000  1.160000e+001 -3.050000e+001
      vertex  0.000000e+000  1.310000e+001 -4.025000e+001
    endloop
  endfacet
  facet normal -1.000000e+000  0.000000e+000  -0.000000e+000
    outer loop
      vertex  0.000000e+000  1.160000e+001 -4.400000e+001
      vertex  0.000000e+000  1.310000e+001 -4.025000e+001
      vertex  0.000000e+000  1.353934e+001 -4.131066e+001
    endloop
  endfacet
  facet normal -1.000000e+000  0.000000e+000  -0.000000e+000
    outer loop
      vertex  0.000000e+000  1.160000e+001 -4.400000e+001
      vertex  0.000000e+000  1.353934e+001 -4.131066e+001
      vertex  0.000000e+000  1.460000e+001 -4.175000e+001
    endloop
  endfacet
  facet normal -1.000000e+000  0.000000e+000  0.000000e+000
    outer loop
      vertex  0.000000e+000  1.760000e+001 -5.000000e+001
      vertex  0.000000e+000 -1.760000e+001 -5.000000e+001
      vertex  0.000000e+000 -1.160000e+001 -4.400000e+001
    endloop
  endfacet
  facet normal -1.000000e+000  0.000000e+000  0.000000e+000
    outer loop
      vertex  0.000000e+000  1.760000e+001 -5.000000e+001
      vertex  0.000000e+000 -1.160000e+001 -4.400000e+001
      vertex  0.000000e+000  1.160000e+001 -4.400000e+001
    endloop
  endfacet
  facet normal -1.000000e+000  0.000000e+000  0.000000e+000
    outer loop
      vertex  0.000000e+000  1.760000e+001 -5.000000e+001
      vertex  0.000000e+000  1.160000e+001 -4.400000e+001
      vertex  0.000000e+000  1.460000e+001 -4.175000e+001
    endloop
  endfacet
  facet normal -1.000000e+000  0.000000e+000  0.000000e+000
    outer loop
      vertex  0.000000e+000  1.760000e+001 -5.000000e+001
      vertex  0.000000e+000  1.460000e+001 -4.175000e+001
      vertex  0.000000e+000  1.566066e+001 -4.131066e+001
    endloop
  endfacet
  facet normal -1.000000e+000  0.000000e+000  0.000000e+000
    outer loop
      vertex  0.000000e+000  1.760000e+001 -5.000000e+001
      vertex  0.000000e+000  1.566066e+001 -4.131066e+001
      vertex  0.000000e+000  1.610000e+001 -4.025000e+001
    endloop
  endfacet
  facet normal -1.000000e+000  0.000000e+000  0.000000e+000
    outer loop
      vertex  0.000000e+000 -1.760000e+001 -5.000000e+001
      vertex  0.000000e+000 -1.760000e+001 -3.050000e+001
      vertex  0.000000e+000 -1.610000e+001 -4.025000e+001
    endloop
  endfacet
  facet normal -1.000000e+000  0.000000e+000  -0.000000e+000
    outer loop
      vertex  0.000000e+000 -1.760000e+001 -5.000000e+001
      vertex  0.000000e+000 -1.610000e+001 -4.025000e+001
      vertex  0.000000e+000 -1.566066e+001 -4.131066e+001
    endloop
  endfacet
  facet normal -1.000000e+000  0.000000e+000  -0.000000e+000
    outer loop
      vertex  0.000000e+000 -1.760000e+001 -5.000000e+001
      vertex  0.000000e+000 -1.566066e+001 -4.131066e+001
      vertex  0.000000e+000 -1.460000e+001 -4.175000e+001
    endloop
  endfacet
  facet normal -1.000000e+000  0.000000e+000  -0.000000e+000
    outer loop
      vertex  0.000000e+000 -1.760000e+001 -5.000000e+001
      vertex  0.000000e+000 -1.460000e+001 -4.175000e+001
      vertex  0.000000e+000 -1.160000e+001 -4.400000e+001
    endloop
  endfacet
  facet normal -1.000000e+000  -0.000000e+000  0.000000e+000
    outer loop
      vertex  0.000000e+000  1.160000e+001 -3.050000e+001
      vertex  0.000000e+000  1.760000e+001 -3.050000e+001
      vertex  0.000000e+000  1.460000e+001 -3.875000e+001
    endloop
  endfacet
  facet normal -9.999999e-001  -0.000000e+000  0.000000e+000
    outer loop
      vertex  0.000000e+000  1.160000e+001 -3.050000e+001
      vertex  0.000000e+000  1.460000e+001 -3.875000e+001
      vertex  0.000000e+000  1.353934e+001 -3.918934e+001
    endloop
  endfacet
  facet normal -1.000000e+000  -0.000000e+000  0.000000e+000
    outer loop
      vertex  0.000000e+000  1.160000e+001 -3.050000e+001
      vertex  0.000000e+000  1.353934e+001 -3.918934e+001
      vertex  0.000000e+000  1.310000e+001 -4.025000e+001
    endloop
  endfacet
  facet normal -1.000000e+000  -0.000000e+000  0.000000e+000
    outer loop
      vertex  0.000000e+000 -1.760000e+001 -3.050000e+001
      vertex  0.000000e+000 -1.160000e+001 -3.050000e+001
      vertex  0.000000e+000 -1.460000e+001 -3.875000e+001
    endloop
  endfacet
  facet normal -1.000000e+000  -0.000000e+000  0.000000e+000
    outer loop
      vertex  0.000000e+000 -1.760000e+001 -3.050000e+001
      vertex  0.000000e+000 -1.460000e+001 -3.875000e+001
      vertex  0.000000e+000 -1.566066e+001 -3.918934e+001
    endloop
  endfacet
  facet normal -1.000000e+000  -0.000000e+000  0.000000e+000
    outer loop
      vertex  0.000000e+000 -1.760000e+001 -3.050000e+001
      vertex  0.000000e+000 -1.566066e+001 -3.918934e+001
      vertex  0.000000e+000 -1.610000e+001 -4.025000e+001
    endloop
  endfacet
  facet normal -1.000000e+000  0.000000e+000  0.000000e+000
    outer loop
      vertex  0.000000e+000 -1.160000e+001 -3.050000e+001
      vertex  0.000000e+000 -1.160000e+001 -4.400000e+001
      vertex  0.000000e+000 -1.310000e+001 -4.025000e+001
    endloop
  endfacet
  facet normal -1.000000e+000  0.000000e+000  0.000000e+000
    outer loop
      vertex  0.000000e+000 -1.160000e+001 -3.050000e+001
      vertex  0.000000e+000 -1.310000e+001 -4.025000e+001
      vertex  0.000000e+000 -1.353934e+001 -3.918934e+001
    endloop
  endfacet
  facet normal -9.999999e-001  0.000000e+000  0.000000e+000
    outer loop
      vertex  0.000000e+000 -1.160000e+001 -3.050000e+001
      vertex  0.000000e+000 -1.353934e+001 -3.918934e+001
      vertex  0.000000e+000 -1.460000e+001 -3.875000e+001
    endloop
  endfacet
  facet normal -1.000000e+000  0.000000e+000  0.000000e+000
    outer loop
      vertex  0.000000e+000  1.760000e+001 -3.050000e+001
      vertex  0.000000e+000  1.760000e+001 -5.000000e+001
      vertex  0.000000e+000  1.610000e+001 -4.025000e+001
    endloop
  endfacet
  facet normal -1.000000e+000  0.000000e+000  0.000000e+000
    outer loop
      vertex  0.000000e+000  1.760000e+001 -3.050000e+001
      vertex  0.000000e+000  1.610000e+001 -4.025000e+001
      vertex  0.000000e+000  1.566066e+001 -3.918934e+001
    endloop
  endfacet
  facet normal -1.000000e+000  0.000000e+000  0.000000e+000
    outer loop
      vertex  0.000000e+000  1.760000e+001 -3.050000e+001
      vertex  0.000000e+000  1.566066e+001 -3.918934e+001
      vertex  0.000000e+000  1.460000e+001 -3.875000e+001
    endloop
  endfacet
  facet normal  1.000000e+000  0.000000e+000  0.000000e+000
    outer loop
      vertex  1.200000e+001  1.160000e+001 -3.650000e+001
      vertex  1.200000e+001  1.760000e+001 -3.650000e+001
      vertex  1.200000e+001  1.160000e+001 -3.050000e+001
    endloop
  endfacet
  facet normal  1.000000e+000  -0.000000e+000  0.000000e+000
    outer loop
      vertex  1.200000e+001  1.160000e+001 -3.050000e+001
      vertex  1.200000e+001  1.760000e+001 -3.650000e+001
      vertex  1.200000e+001  1.760000e+001 -3.050000e+001
    endloop
  endfacet
  facet normal  1.000000e+000  0.000000e+000  0.000000e+000
    outer loop
      vertex  1.200000e+001 -1.760000e+001 -3.650000e+001
      vertex  1.200000e+001 -1.160000e+001 -3.650000e+001
      vertex  1.200000e+001 -1.760000e+001 -3.050000e+001
    endloop
  endfacet
  facet normal  1.000000e+000  -0.000000e+000  0.000000e+000
    outer loop
      vertex  1.200000e+001 -1.760000e+001 -3.050000e+001
      vertex  1.200000e+001 -1.160000e+001 -3.650000e+001
      vertex  1.200000e+001 -1.160000e+001 -3.050000e+001
    endloop
  endfacet
  facet normal  0.000000e+000 -1.000000e+000  -0.000000e+000
    outer loop
      vertex  1.200000e+001 -1.760000e+001 -3.650000e+001
      vertex  1.200000e+001 -1.760000e+001 -3.050000e+001
      vertex  6.000000e+000 -1.760000e+001 -3.650000e+001
    endloop
  endfacet
  facet normal  0.000000e+000 -1.000000e+000  0.000000e+000
    outer loop
      vertex  6.000000e+000 -1.760000e+001 -3.650000e+001
      vertex  1.200000e+001 -1.760000e+001 -3.050000e+001
      vertex  0.000000e+000 -1.760000e+001 -3.050000e+001
    endloop
  endfacet
  facet normal  0.000000e+000 -1.000000e+000  0.000000e+000
    outer loop
      vertex  6.000000e+000 -1.760000e+001 -3.650000e+001
      vertex  0.000000e+000 -1.760000e+001 -3.050000e+001
      vertex  6.000000e+000 -1.760000e+001 -5.000000e+001
    endloop
  endfacet
  facet normal  0.000000e+000 -1.000000e+000  0.000000e+000
    outer loop
      vertex  6.000000e+000 -1.760000e+001 -5.000000e+001
      vertex  0.000000e+000 -1.760000e+001 -3.050000e+001
      vertex  0.000000e+000 -1.760000e+001 -5.000000e+001
    endloop
  endfacet
  facet normal  0.000000e+000  0.000000e+000  1.000000e+000
    outer loop
      vertex  1.200000e+001 -1.760000e+001 -3.050000e+001
      vertex  1.200000e+001 -1.160000e+001 -3.050000e+001
      vertex  0.000000e+000 -1.760000e+001 -3.050000e+001
    endloop
  endfacet
  facet normal  0.000000e+000  0.000000e+000  1.000000e+000
    outer loop
      vertex  0.000000e+000 -1.760000e+001 -3.050000e+001
      vertex  1.200000e+001 -1.160000e+001 -3.050000e+001
      vertex  0.000000e+000 -1.160000e+001 -3.050000e+001
    endloop
  endfacet
  facet normal  0.000000e+000  1.000000e+000  0.000000e+000
    outer loop
      vertex  1.200000e+001 -1.160000e+001 -3.650000e+001
      vertex  6.000000e+000 -1.160000e+001 -3.650000e+001
      vertex  1.200000e+001 -1.160000e+001 -3.050000e+001
    endloop
  endfacet
  facet normal  0.000000e+000  1.000000e+000  0.000000e+000
    outer loop
      vertex  1.200000e+001 -1.160000e+001 -3.050000e+001
      vertex  6.000000e+000 -1.160000e+001 -3.650000e+001
      vertex  0.000000e+000 -1.160000e+001 -3.050000e+001
    endloop
  endfacet
  facet normal  0.000000e+000  1.000000e+000  -0.000000e+000
    outer loop
      vertex  6.000000e+000 -1.160000e+001 -3.650000e+001
      vertex  6.000000e+000 -1.160000e+001 -4.400000e+001
      vertex  0.000000e+000 -1.160000e+001 -3.050000e+001
    endloop
  endfacet
  facet normal  0.000000e+000  1.000000e+000  0.000000e+000
    outer loop
      vertex  0.000000e+000 -1.160000e+001 -3.050000e+001
      vertex  6.000000e+000 -1.160000e+001 -4.400000e+001
      vertex  0.000000e+000 -1.160000e+001 -4.400000e+001
    endloop
  endfacet
  facet normal  0.000000e+000 -1.000000e+000  0.000000e+000
    outer loop
      vertex  1.200000e+001  1.160000e+001 -3.050000e+001
      vertex  0.000000e+000  1.160000e+001 -3.050000e+001
      vertex  1.200000e+001  1.160000e+001 -3.650000e+001
    endloop
  endfacet
  facet normal  0.000000e+000 -1.000000e+000  0.000000e+000
    outer loop
      vertex  1.200000e+001  1.160000e+001 -3.650000e+001
      vertex  0.000000e+000  1.160000e+001 -3.050000e+001
      vertex  6.000000e+000  1.160000e+001 -3.650000e+001
    endloop
  endfacet
  facet normal  0.000000e+000 -1.000000e+000  0.000000e+000
    outer loop
      vertex  0.000000e+000  1.160000e+001 -3.050000e+001
      vertex  0.000000e+000  1.160000e+001 -4.400000e+001
      vertex  6.000000e+000  1.160000e+001 -3.650000e+001
    endloop
  endfacet
  facet normal  0.000000e+000 -1.000000e+000  -0.000000e+000
    outer loop
      vertex  6.000000e+000  1.160000e+001 -3.650000e+001
      vertex  0.000000e+000  1.160000e+001 -4.400000e+001
      vertex  6.000000e+000  1.160000e+001 -4.400000e+001
    endloop
  endfacet
  facet normal  0.000000e+000  0.000000e+000  1.000000e+000
    outer loop
      vertex  1.200000e+001  1.160000e+001 -3.050000e+001
      vertex  1.200000e+001  1.760000e+001 -3.050000e+001
      vertex  0.000000e+000  1.160000e+001 -3.050000e+001
    endloop
  endfacet
  facet normal  0.000000e+000  0.000000e+000  1.000000e+000
    outer loop
      vertex  0.000000e+000  1.160000e+001 -3.050000e+001
      vertex  1.200000e+001  1.760000e+001 -3.050000e+001
      vertex  0.000000e+000  1.760000e+001 -3.050000e+001
    endloop
  endfacet
  facet normal  0.000000e+000  1.000000e+000  -0.000000e+000
    outer loop
      vertex  1.200000e+001  1.760000e+001 -3.050000e+001
      vertex  1.200000e+001  1.760000e+001 -3.650000e+001
      vertex  0.000000e+000  1.760000e+001 -3.050000e+001
    endloop
  endfacet
  facet normal  0.000000e+000  1.000000e+000  0.000000e+000
    outer loop
      vertex  0.000000e+000  1.760000e+001 -3.050000e+001
      vertex  1.200000e+001  1.760000e+001 -3.650000e+001
      vertex  6.000000e+000  1.760000e+001 -3.650000e+001
    endloop
  endfacet
  facet normal  0.000000e+000  1.000000e+000  0.000000e+000
    outer loop
      vertex  0.000000e+000  1.760000e+001 -3.050000e+001
      vertex  6.000000e+000  1.760000e+001 -3.650000e+001
      vertex  0.000000e+000  1.760000e+001 -5.000000e+001
    endloop
  endfacet
  facet normal  0.000000e+000  1.000000e+000  0.000000e+000
    outer loop
      vertex  0.000000e+000  1.760000e+001 -5.000000e+001
      vertex  6.000000e+000  1.760000e+001 -3.650000e+001
      vertex  6.000000e+000  1.760000e+001 -5.000000e+001
    endloop
  endfacet
  facet normal  0.000000e+000  0.000000e+000 -1.000000e+000
    outer loop
      vertex  1.200000e+001  1.760000e+001 -3.650000e+001
      vertex  1.200000e+001  1.160000e+001 -3.650000e+001
      vertex  6.000000e+000  1.760000e+001 -3.650000e+001
    endloop
  endfacet
  facet normal  0.000000e+000  0.000000e+000 -1.000000e+000
    outer loop
      vertex  6.000000e+000  1.760000e+001 -3.650000e+001
      vertex  1.200000e+001  1.160000e+001 -3.650000e+001
      vertex  6.000000e+000  1.160000e+001 -3.650000e+001
    endloop
  endfacet
  facet normal  0.000000e+000  0.000000e+000 -1.000000e+000
    outer loop
      vertex  1.200000e+001 -1.160000e+001 -3.650000e+001
      vertex  1.200000e+001 -1.760000e+001 -3.650000e+001
      vertex  6.000000e+000 -1.160000e+001 -3.650000e+001
    endloop
  endfacet
  facet normal  0.000000e+000  0.000000e+000 -1.000000e+000
    outer loop
      vertex  6.000000e+000 -1.160000e+001 -3.650000e+001
      vertex  1.200000e+001 -1.760000e+001 -3.650000e+001
      vertex  6.000000e+000 -1.760000e+001 -3.650000e+001
    endloop
  endfacet
  facet normal  1.000000e+000  0.000000e+000  0.000000e+000
    outer loop
      vertex  6.000000e+000  1.760000e+001 -5.000000e+001
      vertex  6.000000e+000  1.566066e+001 -4.131066e+001
      vertex  6.000000e+000  1.460000e+001 -4.175000e+001
    endloop
  endfacet
  facet normal  1.000000e+000  0.000000e+000  0.000000e+000
    outer loop
      vertex  6.000000e+000  1.760000e+001 -5.000000e+001
      vertex  6.000000e+000  1.610000e+001 -4.025000e+001
      vertex  6.000000e+000  1.566066e+001 -4.131066e+001
    endloop
  endfacet
  facet normal  1.000000e+000  0.000000e+000  0.000000e+000
    outer loop
      vertex  6.000000e+000 -1.760000e+001 -5.000000e+001
      vertex  6.000000e+000 -1.460000e+001 -4.175000e+001
      vertex  6.000000e+000 -1.566066e+001 -4.131066e+001
    endloop
  endfacet
  facet normal  1.000000e+000  0.000000e+000  0.000000e+000
    outer loop
      vertex  6.000000e+000 -1.760000e+001 -5.000000e+001
      vertex  6.000000e+000 -1.566066e+001 -4.131066e+001
      vertex  6.000000e+000 -1.610000e+001 -4.025000e+001
    endloop
  endfacet
  facet normal  1.000000e+000  0.000000e+000  0.000000e+000
    outer loop
      vertex  6.000000e+000 -1.760000e+001 -5.000000e+001
      vertex  6.000000e+000 -1.610000e+001 -4.025000e+001
      vertex  6.000000e+000 -1.760000e+001 -3.650000e+001
    endloop
  endfacet
  facet normal  1.000000e+000  0.000000e+000  0.000000e+000
    outer loop
      vertex  6.000000e+000 -1.160000e+001 -4.400000e+001
      vertex  6.000000e+000 -1.310000e+001 -4.025000e+001
      vertex  6.000000e+000 -1.353934e+001 -4.131066e+001
    endloop
  endfacet
  facet normal  1.000000e+000  0.000000e+000  0.000000e+000
    outer loop
      vertex  6.000000e+000 -1.160000e+001 -4.400000e+001
      vertex  6.000000e+000 -1.353934e+001 -4.131066e+001
      vertex  6.000000e+000 -1.460000e+001 -4.175000e+001
    endloop
  endfacet
  facet normal  1.000000e+000  0.000000e+000  0.000000e+000
    outer loop
      vertex  6.000000e+000 -1.160000e+001 -4.400000e+001
      vertex  6.000000e+000 -1.460000e+001 -4.175000e+001
      vertex  6.000000e+000 -1.760000e+001 -5.000000e+001
    endloop
  endfacet
  facet normal  1.000000e+000  0.000000e+000  0.000000e+000
    outer loop
      vertex  6.000000e+000 -1.160000e+001 -4.400000e+001
      vertex  6.000000e+000 -1.760000e+001 -5.000000e+001
      vertex  6.000000e+000  1.760000e+001 -5.000000e+001
    endloop
  endfacet
  facet normal  1.000000e+000  0.000000e+000  0.000000e+000
    outer loop
      vertex  6.000000e+000 -1.160000e+001 -4.400000e+001
      vertex  6.000000e+000  1.760000e+001 -5.000000e+001
      vertex  6.000000e+000  1.160000e+001 -4.400000e+001
    endloop
  endfacet
  facet normal  1.000000e+000  0.000000e+000  0.000000e+000
    outer loop
      vertex  6.000000e+000  1.160000e+001 -4.400000e+001
      vertex  6.000000e+000  1.760000e+001 -5.000000e+001
      vertex  6.000000e+000  1.460000e+001 -4.175000e+001
    endloop
  endfacet
  facet normal  1.000000e+000  0.000000e+000  0.000000e+000
    outer loop
      vertex  6.000000e+000  1.160000e+001 -4.400000e+001
      vertex  6.000000e+000  1.460000e+001 -4.175000e+001
      vertex  6.000000e+000  1.353934e+001 -4.131066e+001
    endloop
  endfacet
  facet normal  1.000000e+000  0.000000e+000  0.000000e+000
    outer loop
      vertex  6.000000e+000  1.160000e+001 -4.400000e+001
      vertex  6.000000e+000  1.353934e+001 -4.131066e+001
      vertex  6.000000e+000  1.310000e+001 -4.025000e+001
    endloop
  endfacet
  facet normal  1.000000e+000  0.000000e+000  0.000000e+000
    outer loop
      vertex  6.000000e+000  1.160000e+001 -4.400000e+001
      vertex  6.000000e+000  1.310000e+001 -4.025000e+001
      vertex  6.000000e+000  1.160000e+001 -3.650000e+001
    endloop
  endfacet
  facet normal  1.000000e+000  0.000000e+000  -0.000000e+000
    outer loop
      vertex  6.000000e+000  1.160000e+001 -3.650000e+001
      vertex  6.000000e+000  1.310000e+001 -4.025000e+001
      vertex  6.000000e+000  1.353934e+001 -3.918934e+001
    endloop
  endfacet
  facet normal  1.000000e+000  0.000000e+000  -0.000000e+000
    outer loop
      vertex  6.000000e+000  1.160000e+001 -3.650000e+001
      vertex  6.000000e+000  1.353934e+001 -3.918934e+001
      vertex  6.000000e+000  1.460000e+001 -3.875000e+001
    endloop
  endfacet
  facet normal  1.000000e+000  0.000000e+000  -0.000000e+000
    outer loop
      vertex  6.000000e+000  1.160000e+001 -3.650000e+001
      vertex  6.000000e+000  1.460000e+001 -3.875000e+001
      vertex  6.000000e+000  1.760000e+001 -3.650000e+001
    endloop
  endfacet
  facet normal  1.000000e+000  0.000000e+000  -0.000000e+000
    outer loop
      vertex  6.000000e+000 -1.760000e+001 -3.650000e+001
      vertex  6.000000e+000 -1.610000e+001 -4.025000e+001
      vertex  6.000000e+000 -1.566066e+001 -3.918934e+001
    endloop
  endfacet
  facet normal  1.000000e+000  0.000000e+000  -0.000000e+000
    outer loop
      vertex  6.000000e+000 -1.760000e+001 -3.650000e+001
      vertex  6.000000e+000 -1.566066e+001 -3.918934e+001
      vertex  6.000000e+000 -1.460000e+001 -3.875000e+001
    endloop
  endfacet
  facet normal  1.000000e+000  0.000000e+000  -0.000000e+000
    outer loop
      vertex  6.000000e+000 -1.760000e+001 -3.650000e+001
      vertex  6.000000e+000 -1.460000e+001 -3.875000e+001
      vertex  6.000000e+000 -1.160000e+001 -3.650000e+001
    endloop
  endfacet
  facet normal  1.000000e+000  -0.000000e+000  0.000000e+000
    outer loop
      vertex  6.000000e+000 -1.160000e+001 -3.650000e+001
      vertex  6.000000e+000 -1.460000e+001 -3.875000e+001
      vertex  6.000000e+000 -1.353934e+001 -3.918934e+001
    endloop
  endfacet
  facet normal  1.000000e+000  -0.000000e+000  0.000000e+000
    outer loop
      vertex  6.000000e+000 -1.160000e+001 -3.650000e+001
      vertex  6.000000e+000 -1.353934e+001 -3.918934e+001
      vertex  6.000000e+000 -1.310000e+001 -4.025000e+001
    endloop
  endfacet
  facet normal  1.000000e+000  -0.000000e+000  0.000000e+000
    outer loop
      vertex  6.000000e+000 -1.160000e+001 -3.650000e+001
      vertex  6.000000e+000 -1.310000e+001 -4.025000e+001
      vertex  6.000000e+000 -1.160000e+001 -4.400000e+001
    endloop
  endfacet
  facet normal  1.000000e+000  -0.000000e+000  0.000000e+000
    outer loop
      vertex  6.000000e+000  1.760000e+001 -3.650000e+001
      vertex  6.000000e+000  1.460000e+001 -3.875000e+001
      vertex  6.000000e+000  1.566066e+001 -3.918934e+001
    endloop
  endfacet
  facet normal  1.000000e+000  -0.000000e+000  0.000000e+000
    outer loop
      vertex  6.000000e+000  1.760000e+001 -3.650000e+001
      vertex  6.000000e+000  1.566066e+001 -3.918934e+001
      vertex  6.000000e+000  1.610000e+001 -4.025000e+001
    endloop
  endfacet
  facet normal  1.000000e+000  -0.000000e+000  0.000000e+000
    outer loop
      vertex  6.000000e+000  1.760000e+001 -3.650000e+001
      vertex  6.000000e+000  1.610000e+001 -4.025000e+001
      vertex  6.000000e+000  1.760000e+001 -5.000000e+001
    endloop
  endfacet
  facet normal  0.000000e+000 -3.826828e-001  9.238797e-001
    outer loop
      vertex  0.000000e+000  1.460000e+001 -4.175000e+001
      vertex  6.000000e+000  1.566066e+001 -4.131066e+001
      vertex  0.000000e+000  1.566066e+001 -4.131066e+001
    endloop
  endfacet
  facet normal  0.000000e+000 -9.238794e-001  3.826836e-001
    outer loop
      vertex  0.000000e+000  1.566066e+001 -4.131066e+001
      vertex  6.000000e+000  1.566066e+001 -4.131066e+001
      vertex  6.000000e+000  1.610000e+001 -4.025000e+001
    endloop
  endfacet
  facet normal  0.000000e+000 -9.238794e-001  3.826836e-001
    outer loop
      vertex  0.000000e+000  1.566066e+001 -4.131066e+001
      vertex  6.000000e+000  1.610000e+001 -4.025000e+001
      vertex  0.000000e+000  1.610000e+001 -4.025000e+001
    endloop
  endfacet
  facet normal  0.000000e+000 -3.826828e-001  9.238797e-001
    outer loop
      vertex  6.000000e+000  1.566066e+001 -4.131066e+001
      vertex  0.000000e+000  1.460000e+001 -4.175000e+001
      vertex  6.000000e+000  1.460000e+001 -4.175000e+001
    endloop
  endfacet
  facet normal  0.000000e+000  3.826825e-001  9.238799e-001
    outer loop
      vertex  6.000000e+000  1.460000e+001 -4.175000e+001
      vertex  0.000000e+000  1.460000e+001 -4.175000e+001
      vertex  0.000000e+000  1.353934e+001 -4.131066e+001
    endloop
  endfacet
  facet normal  -0.000000e+000  3.826825e-001  9.238799e-001
    outer loop
      vertex  6.000000e+000  1.460000e+001 -4.175000e+001
      vertex  0.000000e+000  1.353934e+001 -4.131066e+001
      vertex  6.000000e+000  1.353934e+001 -4.131066e+001
    endloop
  endfacet
  facet normal  0.000000e+000  9.238797e-001  3.826829e-001
    outer loop
      vertex  6.000000e+000  1.353934e+001 -4.131066e+001
      vertex  0.000000e+000  1.353934e+001 -4.131066e+001
      vertex  0.000000e+000  1.310000e+001 -4.025000e+001
    endloop
  endfacet
  facet normal  -0.000000e+000  9.238797e-001  3.826829e-001
    outer loop
      vertex  6.000000e+000  1.353934e+001 -4.131066e+001
      vertex  0.000000e+000  1.310000e+001 -4.025000e+001
      vertex  6.000000e+000  1.310000e+001 -4.025000e+001
    endloop
  endfacet
  facet normal  0.000000e+000  3.826825e-001 -9.238799e-001
    outer loop
      vertex  0.000000e+000  1.460000e+001 -3.875000e+001
      vertex  6.000000e+000  1.353934e+001 -3.918934e+001
      vertex  0.000000e+000  1.353934e+001 -3.918934e+001
    endloop
  endfacet
  facet normal  0.000000e+000  9.238797e-001 -3.826829e-001
    outer loop
      vertex  0.000000e+000  1.353934e+001 -3.918934e+001
      vertex  6.000000e+000  1.353934e+001 -3.918934e+001
      vertex  6.000000e+000  1.310000e+001 -4.025000e+001
    endloop
  endfacet
  facet normal  0.000000e+000  9.238797e-001 -3.826829e-001
    outer loop
      vertex  0.000000e+000  1.353934e+001 -3.918934e+001
      vertex  6.000000e+000  1.310000e+001 -4.025000e+001
      vertex  0.000000e+000  1.310000e+001 -4.025000e+001
    endloop
  endfacet
  facet normal  0.000000e+000  3.826825e-001 -9.238799e-001
    outer loop
      vertex  6.000000e+000  1.353934e+001 -3.918934e+001
      vertex  0.000000e+000  1.460000e+001 -3.875000e+001
      vertex  6.000000e+000  1.460000e+001 -3.875000e+001
    endloop
  endfacet
  facet normal  -0.000000e+000 -3.826828e-001 -9.238797e-001
    outer loop
      vertex  6.000000e+000  1.460000e+001 -3.875000e+001
      vertex  0.000000e+000  1.460000e+001 -3.875000e+001
      vertex  0.000000e+000  1.566066e+001 -3.918934e+001
    endloop
  endfacet
  facet normal  0.000000e+000 -3.826828e-001 -9.238797e-001
    outer loop
      vertex  6.000000e+000  1.460000e+001 -3.875000e+001
      vertex  0.000000e+000  1.566066e+001 -3.918934e+001
      vertex  6.000000e+000  1.566066e+001 -3.918934e+001
    endloop
  endfacet
  facet normal  -0.000000e+000 -9.238794e-001 -3.826836e-001
    outer loop
      vertex  6.000000e+000  1.566066e+001 -3.918934e+001
      vertex  0.000000e+000  1.566066e+001 -3.918934e+001
      vertex  0.000000e+000  1.610000e+001 -4.025000e+001
    endloop
  endfacet
  facet normal  0.000000e+000 -9.238794e-001 -3.826836e-001
    outer loop
      vertex  6.000000e+000  1.566066e+001 -3.918934e+001
      vertex  0.000000e+000  1.610000e+001 -4.025000e+001
      vertex  6.000000e+000  1.610000e+001 -4.025000e+001
    endloop
  endfacet
  facet normal  0.000000e+000 -3.826825e-001  9.238799e-001
    outer loop
      vertex  0.000000e+000 -1.460000e+001 -4.175000e+001
      vertex  6.000000e+000 -1.353934e+001 -4.131066e+001
      vertex  0.000000e+000 -1.353934e+001 -4.131066e+001
    endloop
  endfacet
  facet normal  0.000000e+000 -9.238797e-001  3.826829e-001
    outer loop
      vertex  0.000000e+000 -1.353934e+001 -4.131066e+001
      vertex  6.000000e+000 -1.353934e+001 -4.131066e+001
      vertex  6.000000e+000 -1.310000e+001 -4.025000e+001
    endloop
  endfacet
  facet normal  0.000000e+000 -9.238797e-001  3.826829e-001
    outer loop
      vertex  0.000000e+000 -1.353934e+001 -4.131066e+001
      vertex  6.000000e+000 -1.310000e+001 -4.025000e+001
      vertex  0.000000e+000 -1.310000e+001 -4.025000e+001
    endloop
  endfacet
  facet normal  0.000000e+000 -3.826825e-001  9.238799e-001
    outer loop
      vertex  6.000000e+000 -1.353934e+001 -4.131066e+001
      vertex  0.000000e+000 -1.460000e+001 -4.175000e+001
      vertex  6.000000e+000 -1.460000e+001 -4.175000e+001
    endloop
  endfacet
  facet normal  0.000000e+000  3.826828e-001  9.238797e-001
    outer loop
      vertex  6.000000e+000 -1.460000e+001 -4.175000e+001
      vertex  0.000000e+000 -1.460000e+001 -4.175000e+001
      vertex  0.000000e+000 -1.566066e+001 -4.131066e+001
    endloop
  endfacet
  facet normal  -0.000000e+000  3.826828e-001  9.238797e-001
    outer loop
      vertex  6.000000e+000 -1.460000e+001 -4.175000e+001
      vertex  0.000000e+000 -1.566066e+001 -4.131066e+001
      vertex  6.000000e+000 -1.566066e+001 -4.131066e+001
    endloop
  endfacet
  facet normal  0.000000e+000  9.238794e-001  3.826836e-001
    outer loop
      vertex  6.000000e+000 -1.566066e+001 -4.131066e+001
      vertex  0.000000e+000 -1.566066e+001 -4.131066e+001
      vertex  0.000000e+000 -1.610000e+001 -4.025000e+001
    endloop
  endfacet
  facet normal  -0.000000e+000  9.238794e-001  3.826836e-001
    outer loop
      vertex  6.000000e+000 -1.566066e+001 -4.131066e+001
      vertex  0.000000e+000 -1.610000e+001 -4.025000e+001
      vertex  6.000000e+000 -1.610000e+001 -4.025000e+001
    endloop
  endfacet
  facet normal  0.000000e+000  3.826828e-001 -9.238797e-001
    outer loop
      vertex  0.000000e+000 -1.460000e+001 -3.875000e+001
      vertex  6.000000e+000 -1.566066e+001 -3.918934e+001
      vertex  0.000000e+000 -1.566066e+001 -3.918934e+001
    endloop
  endfacet
  facet normal  0.000000e+000  9.238794e-001 -3.826836e-001
    outer loop
      vertex  0.000000e+000 -1.566066e+001 -3.918934e+001
      vertex  6.000000e+000 -1.566066e+001 -3.918934e+001
      vertex  6.000000e+000 -1.610000e+001 -4.025000e+001
    endloop
  endfacet
  facet normal  0.000000e+000  9.238794e-001 -3.826836e-001
    outer loop
      vertex  0.000000e+000 -1.566066e+001 -3.918934e+001
      vertex  6.000000e+000 -1.610000e+001 -4.025000e+001
      vertex  0.000000e+000 -1.610000e+001 -4.025000e+001
    endloop
  endfacet
  facet normal  0.000000e+000  3.826828e-001 -9.238797e-001
    outer loop
      vertex  6.000000e+000 -1.566066e+001 -3.918934e+001
      vertex  0.000000e+000 -1.460000e+001 -3.875000e+001
      vertex  6.000000e+000 -1.460000e+001 -3.875000e+001
    endloop
  endfacet
  facet normal  -0.000000e+000 -3.826825e-001 -9.238799e-001
    outer loop
      vertex  6.000000e+000 -1.460000e+001 -3.875000e+001
      vertex  0.000000e+000 -1.460000e+001 -3.875000e+001
      vertex  0.000000e+000 -1.353934e+001 -3.918934e+001
    endloop
  endfacet
  facet normal  0.000000e+000 -3.826825e-001 -9.238799e-001
    outer loop
      vertex  6.000000e+000 -1.460000e+001 -3.875000e+001
      vertex  0.000000e+000 -1.353934e+001 -3.918934e+001
      vertex  6.000000e+000 -1.353934e+001 -3.918934e+001
    endloop
  endfacet
  facet normal  -0.000000e+000 -9.238797e-001 -3.826829e-001
    outer loop
      vertex  6.000000e+000 -1.353934e+001 -3.918934e+001
      vertex  0.000000e+000 -1.353934e+001 -3.918934e+001
      vertex  0.000000e+000 -1.310000e+001 -4.025000e+001
    endloop
  endfacet
  facet normal  0.000000e+000 -9.238797e-001 -3.826829e-001
    outer loop
      vertex  6.000000e+000 -1.353934e+001 -3.918934e+001
      vertex  0.000000e+000 -1.310000e+001 -4.025000e+001
      vertex  6.000000e+000 -1.310000e+001 -4.025000e+001
    endloop
  endfacet
  facet normal  -0.000000e+000  0.000000e+000  1.000000e+000
    outer loop
      vertex  6.000000e+000  1.160000e+001 -4.400000e+001
      vertex  0.000000e+000  1.160000e+001 -4.400000e+001
      vertex  6.000000e+000 -1.160000e+001 -4.400000e+001
    endloop
  endfacet
  facet normal  0.000000e+000  0.000000e+000  1.000000e+000
    outer loop
      vertex  6.000000e+000 -1.160000e+001 -4.400000e+001
      vertex  0.000000e+000  1.160000e+001 -4.400000e+001
      vertex  0.000000e+000 -1.160000e+001 -4.400000e+001
    endloop
  endfacet
  facet normal  0.000000e+000  0.000000e+000 -1.000000e+000
    outer loop
      vertex  6.000000e+000  1.760000e+001 -5.000000e+001
      vertex  6.000000e+000 -1.760000e+001 -5.000000e+001
      vertex  0.000000e+000  1.760000e+001 -5.000000e+001
    endloop
  endfacet
  facet normal  0.000000e+000  0.000000e+000 -1.000000e+000
    outer loop
      vertex  0.000000e+000  1.760000e+001 -5.000000e+001
      vertex  6.000000e+000 -1.760000e+001 -5.000000e+001
      vertex  0.000000e+000 -1.760000e+001 -5.000000e+001
    endloop
  endfacet
endsolid CATIA STL
