solid CATIA STL
  facet normal  0.000000e+000  0.000000e+000 -9.999999e-001
    outer loop
      vertex -4.025607e+000 -7.931135e+000  0.000000e+000
      vertex -6.842587e+000 -5.682201e+000  0.000000e+000
      vertex -4.875000e+000 -4.875000e+000  0.000000e+000
    endloop
  endfacet
  facet normal  0.000000e+000  0.000000e+000 -1.000000e+000
    outer loop
      vertex -2.250000e+001  1.500000e+000  0.000000e+000
      vertex -2.426777e+001  1.767767e+000  0.000000e+000
      vertex -2.250000e+001  2.500000e+000  0.000000e+000
    endloop
  endfacet
  facet normal  0.000000e+000  0.000000e+000 -1.000000e+000
    outer loop
      vertex -8.535714e+000 -2.500000e+000  0.000000e+000
      vertex -2.000000e+001 -2.500000e+000  0.000000e+000
      vertex -2.250000e+001 -1.500000e+000  0.000000e+000
    endloop
  endfacet
  facet normal  0.000000e+000  0.000000e+000 -1.000000e+000
    outer loop
      vertex -8.535714e+000 -2.500000e+000  0.000000e+000
      vertex -2.250000e+001 -1.500000e+000  0.000000e+000
      vertex -2.143934e+001 -1.060660e+000  0.000000e+000
    endloop
  endfacet
  facet normal  0.000000e+000  0.000000e+000 -9.999999e-001
    outer loop
      vertex -8.535714e+000 -2.500000e+000  0.000000e+000
      vertex -2.143934e+001 -1.060660e+000  0.000000e+000
      vertex -2.100000e+001  0.000000e+000  0.000000e+000
    endloop
  endfacet
  facet normal  0.000000e+000  0.000000e+000 -1.000000e+000
    outer loop
      vertex -8.535714e+000 -2.500000e+000  0.000000e+000
      vertex -2.100000e+001  0.000000e+000  0.000000e+000
      vertex -2.143934e+001  1.060660e+000  0.000000e+000
    endloop
  endfacet
  facet normal  0.000000e+000  0.000000e+000 -1.000000e+000
    outer loop
      vertex -8.535714e+000 -2.500000e+000  0.000000e+000
      vertex -2.143934e+001  1.060660e+000  0.000000e+000
      vertex -2.250000e+001  1.500000e+000  0.000000e+000
    endloop
  endfacet
  facet normal  0.000000e+000  0.000000e+000 -1.000000e+000
    outer loop
      vertex -8.535714e+000 -2.500000e+000  0.000000e+000
      vertex -2.250000e+001  1.500000e+000  0.000000e+000
      vertex -2.250000e+001  2.500000e+000  0.000000e+000
    endloop
  endfacet
  facet normal  0.000000e+000  0.000000e+000 -1.000000e+000
    outer loop
      vertex -8.535714e+000 -2.500000e+000  0.000000e+000
      vertex -2.250000e+001  2.500000e+000  0.000000e+000
      vertex -2.000000e+001  2.500000e+000  0.000000e+000
    endloop
  endfacet
  facet normal  3.873675e-017  8.881784e-017 -1.000000e+000
    outer loop
      vertex -8.535714e+000 -2.500000e+000  0.000000e+000
      vertex -2.000000e+001  2.500000e+000  0.000000e+000
      vertex -8.535714e+000  2.500000e+000  4.440892e-016
    endloop
  endfacet
  facet normal  5.762329e-017  8.881784e-017 -1.000000e+000
    outer loop
      vertex -8.535714e+000 -2.500000e+000  0.000000e+000
      vertex -8.535714e+000  2.500000e+000  4.440892e-016
      vertex -4.875000e+000 -4.875000e+000  0.000000e+000
    endloop
  endfacet
  facet normal  -0.000000e+000  0.000000e+000 -1.000000e+000
    outer loop
      vertex -8.535714e+000 -2.500000e+000  0.000000e+000
      vertex -4.875000e+000 -4.875000e+000  0.000000e+000
      vertex -6.842587e+000 -5.682201e+000  0.000000e+000
    endloop
  endfacet
  facet normal  0.000000e+000  0.000000e+000 -1.000000e+000
    outer loop
      vertex -2.426777e+001 -1.767767e+000  0.000000e+000
      vertex -2.500000e+001  3.061617e-016  0.000000e+000
      vertex -2.400000e+001  1.836970e-016  0.000000e+000
    endloop
  endfacet
  facet normal  0.000000e+000  -0.000000e+000 -1.000000e+000
    outer loop
      vertex -2.426777e+001 -1.767767e+000  0.000000e+000
      vertex -2.400000e+001  1.836970e-016  0.000000e+000
      vertex -2.356066e+001 -1.060660e+000  0.000000e+000
    endloop
  endfacet
  facet normal  0.000000e+000  -0.000000e+000 -1.000000e+000
    outer loop
      vertex -2.426777e+001 -1.767767e+000  0.000000e+000
      vertex -2.356066e+001 -1.060660e+000  0.000000e+000
      vertex -2.250000e+001 -1.500000e+000  0.000000e+000
    endloop
  endfacet
  facet normal  0.000000e+000  -0.000000e+000 -1.000000e+000
    outer loop
      vertex -2.426777e+001 -1.767767e+000  0.000000e+000
      vertex -2.250000e+001 -1.500000e+000  0.000000e+000
      vertex -2.000000e+001 -2.500000e+000  0.000000e+000
    endloop
  endfacet
  facet normal  0.000000e+000  0.000000e+000 -1.000000e+000
    outer loop
      vertex -2.426777e+001 -1.767767e+000  0.000000e+000
      vertex -2.000000e+001 -2.500000e+000  0.000000e+000
      vertex -2.250000e+001 -2.500000e+000  0.000000e+000
    endloop
  endfacet
  facet normal  0.000000e+000  0.000000e+000 -1.000000e+000
    outer loop
      vertex  4.875000e+000 -4.875000e+000  0.000000e+000
      vertex  4.875000e+000  4.875000e+000  0.000000e+000
      vertex  8.163874e+000  3.529812e+000  0.000000e+000
    endloop
  endfacet
  facet normal  0.000000e+000  -0.000000e+000 -1.000000e+000
    outer loop
      vertex  4.875000e+000 -4.875000e+000  0.000000e+000
      vertex  8.163874e+000  3.529812e+000  0.000000e+000
      vertex  8.894291e+000  0.000000e+000  0.000000e+000
    endloop
  endfacet
  facet normal  0.000000e+000  0.000000e+000 -1.000000e+000
    outer loop
      vertex  4.875000e+000 -4.875000e+000  0.000000e+000
      vertex  8.894291e+000  0.000000e+000  0.000000e+000
      vertex  8.163874e+000 -3.529812e+000  0.000000e+000
    endloop
  endfacet
  facet normal  0.000000e+000  0.000000e+000 -1.000000e+000
    outer loop
      vertex  4.875000e+000 -4.875000e+000  0.000000e+000
      vertex  8.163874e+000 -3.529812e+000  0.000000e+000
      vertex  6.092589e+000 -6.479874e+000  0.000000e+000
    endloop
  endfacet
  facet normal  0.000000e+000  0.000000e+000 -1.000000e+000
    outer loop
      vertex  6.092589e+000 -6.479874e+000  0.000000e+000
      vertex  3.020633e+000 -8.365655e+000  0.000000e+000
      vertex  4.875000e+000 -4.875000e+000  0.000000e+000
    endloop
  endfacet
  facet normal  -0.000000e+000  0.000000e+000 -1.000000e+000
    outer loop
      vertex  4.875000e+000 -4.875000e+000  0.000000e+000
      vertex  3.020633e+000 -8.365655e+000  0.000000e+000
      vertex -4.875000e+000 -4.875000e+000  0.000000e+000
    endloop
  endfacet
  facet normal  0.000000e+000  0.000000e+000 -1.000000e+000
    outer loop
      vertex  3.020633e+000 -8.365655e+000  0.000000e+000
      vertex -5.474437e-001 -8.877427e+000  0.000000e+000
      vertex -4.875000e+000 -4.875000e+000  0.000000e+000
    endloop
  endfacet
  facet normal  0.000000e+000  0.000000e+000 -1.000000e+000
    outer loop
      vertex -4.875000e+000 -4.875000e+000  0.000000e+000
      vertex -5.474437e-001 -8.877427e+000  0.000000e+000
      vertex -4.025607e+000 -7.931135e+000  0.000000e+000
    endloop
  endfacet
  facet normal  0.000000e+000  0.000000e+000 -1.000000e+000
    outer loop
      vertex  8.163874e+000  3.529812e+000  0.000000e+000
      vertex  4.875000e+000  4.875000e+000  0.000000e+000
      vertex  6.092589e+000  6.479874e+000  0.000000e+000
    endloop
  endfacet
  facet normal  0.000000e+000  0.000000e+000 -9.999999e-001
    outer loop
      vertex  6.092589e+000  6.479874e+000  0.000000e+000
      vertex  4.875000e+000  4.875000e+000  0.000000e+000
      vertex -4.875000e+000  4.875000e+000  0.000000e+000
    endloop
  endfacet
  facet normal  0.000000e+000  0.000000e+000 -1.000000e+000
    outer loop
      vertex  6.092589e+000  6.479874e+000  0.000000e+000
      vertex -4.875000e+000  4.875000e+000  0.000000e+000
      vertex  3.020633e+000  8.365655e+000  0.000000e+000
    endloop
  endfacet
  facet normal  0.000000e+000  0.000000e+000 -1.000000e+000
    outer loop
      vertex  3.020633e+000  8.365655e+000  0.000000e+000
      vertex -4.875000e+000  4.875000e+000  0.000000e+000
      vertex -4.025607e+000  7.931135e+000  0.000000e+000
    endloop
  endfacet
  facet normal  0.000000e+000  0.000000e+000 -1.000000e+000
    outer loop
      vertex  3.020633e+000  8.365655e+000  0.000000e+000
      vertex -4.025607e+000  7.931135e+000  0.000000e+000
      vertex -5.474437e-001  8.877427e+000  0.000000e+000
    endloop
  endfacet
  facet normal  0.000000e+000  0.000000e+000 -1.000000e+000
    outer loop
      vertex -2.250000e+001  1.500000e+000  0.000000e+000
      vertex -2.356066e+001  1.060660e+000  0.000000e+000
      vertex -2.426777e+001  1.767767e+000  0.000000e+000
    endloop
  endfacet
  facet normal  0.000000e+000  0.000000e+000 -1.000000e+000
    outer loop
      vertex -2.426777e+001  1.767767e+000  0.000000e+000
      vertex -2.356066e+001  1.060660e+000  0.000000e+000
      vertex -2.400000e+001  1.836970e-016  0.000000e+000
    endloop
  endfacet
  facet normal  0.000000e+000  0.000000e+000 -1.000000e+000
    outer loop
      vertex -2.426777e+001  1.767767e+000  0.000000e+000
      vertex -2.400000e+001  1.836970e-016  0.000000e+000
      vertex -2.500000e+001  3.061617e-016  0.000000e+000
    endloop
  endfacet
  facet normal  0.000000e+000  0.000000e+000 -9.999999e-001
    outer loop
      vertex -4.025607e+000  7.931135e+000  0.000000e+000
      vertex -4.875000e+000  4.875000e+000  0.000000e+000
      vertex -6.842587e+000  5.682201e+000  0.000000e+000
    endloop
  endfacet
  facet normal  0.000000e+000  0.000000e+000 -1.000000e+000
    outer loop
      vertex -6.842587e+000  5.682201e+000  0.000000e+000
      vertex -4.875000e+000  4.875000e+000  0.000000e+000
      vertex -4.875000e+000 -4.875000e+000  0.000000e+000
    endloop
  endfacet
  facet normal -1.942472e-016 -3.620262e-017 -9.999999e-001
    outer loop
      vertex -6.842587e+000  5.682201e+000  0.000000e+000
      vertex -4.875000e+000 -4.875000e+000  0.000000e+000
      vertex -8.535714e+000  2.500000e+000  4.440892e-016
    endloop
  endfacet
  facet normal  0.000000e+000 -1.000000e+000  0.000000e+000
    outer loop
      vertex -8.535714e+000 -2.500000e+000  3.000000e+000
      vertex -2.000000e+001 -2.500000e+000  3.000000e+000
      vertex -8.535714e+000 -2.500000e+000  0.000000e+000
    endloop
  endfacet
  facet normal  0.000000e+000 -1.000000e+000  0.000000e+000
    outer loop
      vertex -8.535714e+000 -2.500000e+000  0.000000e+000
      vertex -2.000000e+001 -2.500000e+000  3.000000e+000
      vertex -2.000000e+001 -2.500000e+000  0.000000e+000
    endloop
  endfacet
  facet normal  0.000000e+000  1.000000e+000  -0.000000e+000
    outer loop
      vertex -8.535714e+000  2.500000e+000  3.000000e+000
      vertex -8.535714e+000  2.500000e+000  4.440892e-016
      vertex -2.000000e+001  2.500000e+000  3.000000e+000
    endloop
  endfacet
  facet normal  0.000000e+000  1.000000e+000  0.000000e+000
    outer loop
      vertex -2.000000e+001  2.500000e+000  3.000000e+000
      vertex -8.535714e+000  2.500000e+000  4.440892e-016
      vertex -2.000000e+001  2.500000e+000  0.000000e+000
    endloop
  endfacet
  facet normal -8.312462e-001  5.554210e-001  2.317784e-002
    outer loop
      vertex -8.217254e+000  3.403698e+000  5.300000e+000
      vertex -6.289214e+000  6.289214e+000  5.300000e+000
      vertex -6.842587e+000  5.682201e+000  0.000000e+000
    endloop
  endfacet
  facet normal -6.237229e-001  7.812660e-001 -2.435587e-002
    outer loop
      vertex -4.025607e+000  7.931135e+000  0.000000e+000
      vertex -6.842587e+000  5.682201e+000  0.000000e+000
      vertex -6.289214e+000  6.289214e+000  5.300000e+000
    endloop
  endfacet
  facet normal -5.554558e-001  8.312983e-001  2.030056e-002
    outer loop
      vertex -6.289214e+000  6.289214e+000  5.300000e+000
      vertex -3.403698e+000  8.217254e+000  5.300000e+000
      vertex -4.025607e+000  7.931135e+000  0.000000e+000
    endloop
  endfacet
  facet normal -2.624646e-001  9.647069e-001 -2.128142e-002
    outer loop
      vertex -5.474437e-001  8.877427e+000  0.000000e+000
      vertex -4.025607e+000  7.931135e+000  0.000000e+000
      vertex -3.403698e+000  8.217254e+000  5.300000e+000
    endloop
  endfacet
  facet normal -1.950619e-001  9.806432e-001  1.702793e-002
    outer loop
      vertex -3.403698e+000  8.217254e+000  5.300000e+000
      vertex  5.446183e-016  8.894291e+000  5.300000e+000
      vertex -5.474437e-001  8.877427e+000  0.000000e+000
    endloop
  endfacet
  facet normal  1.419553e-001  9.897128e-001 -1.781186e-002
    outer loop
      vertex  3.020633e+000  8.365655e+000  0.000000e+000
      vertex -5.474437e-001  8.877427e+000  0.000000e+000
      vertex  5.446183e-016  8.894291e+000  5.300000e+000
    endloop
  endfacet
  facet normal  1.950728e-001  9.806977e-001  1.336061e-002
    outer loop
      vertex  5.446183e-016  8.894291e+000  5.300000e+000
      vertex  3.403698e+000  8.217254e+000  5.300000e+000
      vertex  3.020633e+000  8.365655e+000  0.000000e+000
    endloop
  endfacet
  facet normal  5.231098e-001  8.521512e-001 -1.394804e-002
    outer loop
      vertex  6.092589e+000  6.479874e+000  0.000000e+000
      vertex  3.020633e+000  8.365655e+000  0.000000e+000
      vertex  3.403698e+000  8.217254e+000  5.300000e+000
    endloop
  endfacet
  facet normal -9.898699e-001  1.419777e-001  2.438226e-016
    outer loop
      vertex -8.894291e+000  5.039095e-015  3.000000e+000
      vertex -8.894291e+000  1.089237e-015  5.300000e+000
      vertex -8.535714e+000  2.500000e+000  3.000000e+000
    endloop
  endfacet
  facet normal -9.790742e-001  1.947498e-001  5.904407e-002
    outer loop
      vertex -8.535714e+000  2.500000e+000  3.000000e+000
      vertex -8.894291e+000  1.089237e-015  5.300000e+000
      vertex -8.217254e+000  3.403698e+000  5.300000e+000
    endloop
  endfacet
  facet normal -9.431514e-001  3.323638e-001  0.000000e+000
    outer loop
      vertex -8.535714e+000  2.500000e+000  3.000000e+000
      vertex -8.217254e+000  3.403698e+000  5.300000e+000
      vertex -8.535714e+000  2.500000e+000  4.440892e-016
    endloop
  endfacet
  facet normal -8.824961e-001  4.695422e-001 -2.703475e-002
    outer loop
      vertex -8.535714e+000  2.500000e+000  4.440892e-016
      vertex -8.217254e+000  3.403698e+000  5.300000e+000
      vertex -6.842587e+000  5.682201e+000  0.000000e+000
    endloop
  endfacet
  facet normal  9.807853e-001  1.950902e-001  -0.000000e+000
    outer loop
      vertex  8.894291e+000  0.000000e+000  5.300000e+000
      vertex  8.894291e+000  0.000000e+000  0.000000e+000
      vertex  8.217254e+000  3.403698e+000  5.300000e+000
    endloop
  endfacet
  facet normal  9.792418e-001  2.026326e-001 -5.040954e-003
    outer loop
      vertex  8.217254e+000  3.403698e+000  5.300000e+000
      vertex  8.894291e+000  0.000000e+000  0.000000e+000
      vertex  8.163874e+000  3.529812e+000  0.000000e+000
    endloop
  endfacet
  facet normal  8.314598e-001  5.555637e-001  4.845515e-003
    outer loop
      vertex  8.217254e+000  3.403698e+000  5.300000e+000
      vertex  8.163874e+000  3.529812e+000  0.000000e+000
      vertex  6.289214e+000  6.289214e+000  5.300000e+000
    endloop
  endfacet
  facet normal  8.183792e-001  5.745968e-001 -9.690627e-003
    outer loop
      vertex  6.289214e+000  6.289214e+000  5.300000e+000
      vertex  8.163874e+000  3.529812e+000  0.000000e+000
      vertex  6.092589e+000  6.479874e+000  0.000000e+000
    endloop
  endfacet
  facet normal  5.555462e-001  8.314336e-001  9.299559e-003
    outer loop
      vertex  6.289214e+000  6.289214e+000  5.300000e+000
      vertex  6.092589e+000  6.479874e+000  0.000000e+000
      vertex  3.403698e+000  8.217254e+000  5.300000e+000
    endloop
  endfacet
  facet normal  5.231098e-001 -8.521512e-001 -1.394804e-002
    outer loop
      vertex  6.092589e+000 -6.479874e+000  0.000000e+000
      vertex  3.403698e+000 -8.217254e+000  5.300000e+000
      vertex  3.020633e+000 -8.365655e+000  0.000000e+000
    endloop
  endfacet
  facet normal  1.950728e-001 -9.806977e-001  1.336061e-002
    outer loop
      vertex  3.020633e+000 -8.365655e+000  0.000000e+000
      vertex  3.403698e+000 -8.217254e+000  5.300000e+000
      vertex -1.633855e-015 -8.894291e+000  5.300000e+000
    endloop
  endfacet
  facet normal  1.419553e-001 -9.897128e-001 -1.781186e-002
    outer loop
      vertex  3.020633e+000 -8.365655e+000  0.000000e+000
      vertex -1.633855e-015 -8.894291e+000  5.300000e+000
      vertex -5.474437e-001 -8.877427e+000  0.000000e+000
    endloop
  endfacet
  facet normal -1.950619e-001 -9.806432e-001  1.702793e-002
    outer loop
      vertex -5.474437e-001 -8.877427e+000  0.000000e+000
      vertex -1.633855e-015 -8.894291e+000  5.300000e+000
      vertex -3.403698e+000 -8.217254e+000  5.300000e+000
    endloop
  endfacet
  facet normal -2.624646e-001 -9.647069e-001 -2.128142e-002
    outer loop
      vertex -5.474437e-001 -8.877427e+000  0.000000e+000
      vertex -3.403698e+000 -8.217254e+000  5.300000e+000
      vertex -4.025607e+000 -7.931135e+000  0.000000e+000
    endloop
  endfacet
  facet normal -5.554558e-001 -8.312983e-001  2.030056e-002
    outer loop
      vertex -4.025607e+000 -7.931135e+000  0.000000e+000
      vertex -3.403698e+000 -8.217254e+000  5.300000e+000
      vertex -6.289214e+000 -6.289214e+000  5.300000e+000
    endloop
  endfacet
  facet normal -6.237229e-001 -7.812660e-001 -2.435587e-002
    outer loop
      vertex -4.025607e+000 -7.931135e+000  0.000000e+000
      vertex -6.289214e+000 -6.289214e+000  5.300000e+000
      vertex -6.842587e+000 -5.682201e+000  0.000000e+000
    endloop
  endfacet
  facet normal -8.312462e-001 -5.554210e-001  2.317784e-002
    outer loop
      vertex -6.842587e+000 -5.682201e+000  0.000000e+000
      vertex -6.289214e+000 -6.289214e+000  5.300000e+000
      vertex -8.217254e+000 -3.403698e+000  5.300000e+000
    endloop
  endfacet
  facet normal -9.807853e-001 -1.950902e-001 -3.350342e-016
    outer loop
      vertex -8.894291e+000  1.089237e-015  5.300000e+000
      vertex -8.894291e+000  5.039095e-015  3.000000e+000
      vertex -8.217254e+000 -3.403698e+000  5.300000e+000
    endloop
  endfacet
  facet normal -9.866167e-001 -1.415111e-001  8.100656e-002
    outer loop
      vertex -8.217254e+000 -3.403698e+000  5.300000e+000
      vertex -8.894291e+000  5.039095e-015  3.000000e+000
      vertex -8.535714e+000 -2.500000e+000  3.000000e+000
    endloop
  endfacet
  facet normal -8.993239e-001 -4.348224e-001 -4.632565e-002
    outer loop
      vertex -8.217254e+000 -3.403698e+000  5.300000e+000
      vertex -8.535714e+000 -2.500000e+000  3.000000e+000
      vertex -6.842587e+000 -5.682201e+000  0.000000e+000
    endloop
  endfacet
  facet normal -8.828188e-001 -4.697138e-001  0.000000e+000
    outer loop
      vertex -6.842587e+000 -5.682201e+000  0.000000e+000
      vertex -8.535714e+000 -2.500000e+000  3.000000e+000
      vertex -8.535714e+000 -2.500000e+000  0.000000e+000
    endloop
  endfacet
  facet normal  9.792543e-001 -2.026352e-001  0.000000e+000
    outer loop
      vertex  8.894291e+000  0.000000e+000  0.000000e+000
      vertex  8.894291e+000  0.000000e+000  5.300000e+000
      vertex  8.163874e+000 -3.529812e+000  0.000000e+000
    endloop
  endfacet
  facet normal  9.807719e-001 -1.950875e-001 -5.235900e-003
    outer loop
      vertex  8.163874e+000 -3.529812e+000  0.000000e+000
      vertex  8.894291e+000  0.000000e+000  5.300000e+000
      vertex  8.217254e+000 -3.403698e+000  5.300000e+000
    endloop
  endfacet
  facet normal  8.184056e-001 -5.746153e-001  5.430328e-003
    outer loop
      vertex  8.163874e+000 -3.529812e+000  0.000000e+000
      vertex  8.217254e+000 -3.403698e+000  5.300000e+000
      vertex  6.092589e+000 -6.479874e+000  0.000000e+000
    endloop
  endfacet
  facet normal  8.314205e-001 -5.555375e-001 -1.086008e-002
    outer loop
      vertex  6.092589e+000 -6.479874e+000  0.000000e+000
      vertex  8.217254e+000 -3.403698e+000  5.300000e+000
      vertex  6.289214e+000 -6.289214e+000  5.300000e+000
    endloop
  endfacet
  facet normal  5.555462e-001 -8.314336e-001  9.299557e-003
    outer loop
      vertex  6.092589e+000 -6.479874e+000  0.000000e+000
      vertex  6.289214e+000 -6.289214e+000  5.300000e+000
      vertex  3.403698e+000 -8.217254e+000  5.300000e+000
    endloop
  endfacet
  facet normal  0.000000e+000  0.000000e+000  1.000000e+000
    outer loop
      vertex -8.894291e+000  5.039095e-015  3.000000e+000
      vertex -8.535714e+000  2.500000e+000  3.000000e+000
      vertex -2.000000e+001  2.500000e+000  3.000000e+000
    endloop
  endfacet
  facet normal  0.000000e+000  0.000000e+000  1.000000e+000
    outer loop
      vertex -8.894291e+000  5.039095e-015  3.000000e+000
      vertex -2.000000e+001  2.500000e+000  3.000000e+000
      vertex -2.250000e+001  1.500000e+000  3.000000e+000
    endloop
  endfacet
  facet normal  0.000000e+000  0.000000e+000  1.000000e+000
    outer loop
      vertex -8.894291e+000  5.039095e-015  3.000000e+000
      vertex -2.250000e+001  1.500000e+000  3.000000e+000
      vertex -2.143934e+001  1.060660e+000  3.000000e+000
    endloop
  endfacet
  facet normal  0.000000e+000  0.000000e+000  1.000000e+000
    outer loop
      vertex -8.894291e+000  5.039095e-015  3.000000e+000
      vertex -2.143934e+001  1.060660e+000  3.000000e+000
      vertex -2.100000e+001  0.000000e+000  3.000000e+000
    endloop
  endfacet
  facet normal  0.000000e+000  -0.000000e+000  1.000000e+000
    outer loop
      vertex -2.426777e+001 -1.767767e+000  3.000000e+000
      vertex -2.250000e+001 -2.500000e+000  3.000000e+000
      vertex -2.000000e+001 -2.500000e+000  3.000000e+000
    endloop
  endfacet
  facet normal  0.000000e+000  0.000000e+000  1.000000e+000
    outer loop
      vertex -2.426777e+001 -1.767767e+000  3.000000e+000
      vertex -2.000000e+001 -2.500000e+000  3.000000e+000
      vertex -2.250000e+001 -1.500000e+000  3.000000e+000
    endloop
  endfacet
  facet normal  0.000000e+000  0.000000e+000  1.000000e+000
    outer loop
      vertex -2.426777e+001 -1.767767e+000  3.000000e+000
      vertex -2.250000e+001 -1.500000e+000  3.000000e+000
      vertex -2.356066e+001 -1.060660e+000  3.000000e+000
    endloop
  endfacet
  facet normal  0.000000e+000  0.000000e+000  1.000000e+000
    outer loop
      vertex -2.426777e+001 -1.767767e+000  3.000000e+000
      vertex -2.356066e+001 -1.060660e+000  3.000000e+000
      vertex -2.400000e+001  1.836970e-016  3.000000e+000
    endloop
  endfacet
  facet normal  0.000000e+000  0.000000e+000  1.000000e+000
    outer loop
      vertex -2.426777e+001 -1.767767e+000  3.000000e+000
      vertex -2.400000e+001  1.836970e-016  3.000000e+000
      vertex -2.500000e+001  3.061617e-016  3.000000e+000
    endloop
  endfacet
  facet normal  -0.000000e+000  0.000000e+000  1.000000e+000
    outer loop
      vertex -2.000000e+001  2.500000e+000  3.000000e+000
      vertex -2.250000e+001  2.500000e+000  3.000000e+000
      vertex -2.250000e+001  1.500000e+000  3.000000e+000
    endloop
  endfacet
  facet normal  0.000000e+000  -0.000000e+000  1.000000e+000
    outer loop
      vertex -2.250000e+001  1.500000e+000  3.000000e+000
      vertex -2.250000e+001  2.500000e+000  3.000000e+000
      vertex -2.426777e+001  1.767767e+000  3.000000e+000
    endloop
  endfacet
  facet normal  0.000000e+000  0.000000e+000  1.000000e+000
    outer loop
      vertex -2.250000e+001  1.500000e+000  3.000000e+000
      vertex -2.426777e+001  1.767767e+000  3.000000e+000
      vertex -2.356066e+001  1.060660e+000  3.000000e+000
    endloop
  endfacet
  facet normal  0.000000e+000  0.000000e+000  1.000000e+000
    outer loop
      vertex -2.400000e+001  1.836970e-016  3.000000e+000
      vertex -2.356066e+001  1.060660e+000  3.000000e+000
      vertex -2.500000e+001  3.061617e-016  3.000000e+000
    endloop
  endfacet
  facet normal  0.000000e+000  0.000000e+000  1.000000e+000
    outer loop
      vertex -2.500000e+001  3.061617e-016  3.000000e+000
      vertex -2.356066e+001  1.060660e+000  3.000000e+000
      vertex -2.426777e+001  1.767767e+000  3.000000e+000
    endloop
  endfacet
  facet normal  -0.000000e+000  0.000000e+000  9.999999e-001
    outer loop
      vertex -8.894291e+000  5.039095e-015  3.000000e+000
      vertex -2.100000e+001  0.000000e+000  3.000000e+000
      vertex -8.535714e+000 -2.500000e+000  3.000000e+000
    endloop
  endfacet
  facet normal  0.000000e+000  0.000000e+000  1.000000e+000
    outer loop
      vertex -8.535714e+000 -2.500000e+000  3.000000e+000
      vertex -2.100000e+001  0.000000e+000  3.000000e+000
      vertex -2.143934e+001 -1.060660e+000  3.000000e+000
    endloop
  endfacet
  facet normal  0.000000e+000  0.000000e+000  1.000000e+000
    outer loop
      vertex -8.535714e+000 -2.500000e+000  3.000000e+000
      vertex -2.143934e+001 -1.060660e+000  3.000000e+000
      vertex -2.000000e+001 -2.500000e+000  3.000000e+000
    endloop
  endfacet
  facet normal  0.000000e+000  0.000000e+000  1.000000e+000
    outer loop
      vertex -2.000000e+001 -2.500000e+000  3.000000e+000
      vertex -2.143934e+001 -1.060660e+000  3.000000e+000
      vertex -2.250000e+001 -1.500000e+000  3.000000e+000
    endloop
  endfacet
  facet normal  3.826837e-001 -9.238794e-001  0.000000e+000
    outer loop
      vertex -2.250000e+001  1.500000e+000  0.000000e+000
      vertex -2.356066e+001  1.060660e+000  3.000000e+000
      vertex -2.356066e+001  1.060660e+000  0.000000e+000
    endloop
  endfacet
  facet normal  9.238793e-001 -3.826840e-001  0.000000e+000
    outer loop
      vertex -2.356066e+001  1.060660e+000  0.000000e+000
      vertex -2.356066e+001  1.060660e+000  3.000000e+000
      vertex -2.400000e+001  1.836970e-016  3.000000e+000
    endloop
  endfacet
  facet normal  9.238793e-001 -3.826840e-001  0.000000e+000
    outer loop
      vertex -2.356066e+001  1.060660e+000  0.000000e+000
      vertex -2.400000e+001  1.836970e-016  3.000000e+000
      vertex -2.400000e+001  1.836970e-016  0.000000e+000
    endloop
  endfacet
  facet normal  3.826837e-001 -9.238794e-001  0.000000e+000
    outer loop
      vertex -2.356066e+001  1.060660e+000  3.000000e+000
      vertex -2.250000e+001  1.500000e+000  0.000000e+000
      vertex -2.250000e+001  1.500000e+000  3.000000e+000
    endloop
  endfacet
  facet normal -3.826837e-001 -9.238794e-001  -0.000000e+000
    outer loop
      vertex -2.250000e+001  1.500000e+000  3.000000e+000
      vertex -2.250000e+001  1.500000e+000  0.000000e+000
      vertex -2.143934e+001  1.060660e+000  0.000000e+000
    endloop
  endfacet
  facet normal -3.826837e-001 -9.238794e-001  0.000000e+000
    outer loop
      vertex -2.250000e+001  1.500000e+000  3.000000e+000
      vertex -2.143934e+001  1.060660e+000  0.000000e+000
      vertex -2.143934e+001  1.060660e+000  3.000000e+000
    endloop
  endfacet
  facet normal -9.238793e-001 -3.826840e-001  -0.000000e+000
    outer loop
      vertex -2.143934e+001  1.060660e+000  3.000000e+000
      vertex -2.143934e+001  1.060660e+000  0.000000e+000
      vertex -2.100000e+001  0.000000e+000  0.000000e+000
    endloop
  endfacet
  facet normal -9.238793e-001 -3.826840e-001  0.000000e+000
    outer loop
      vertex -2.143934e+001  1.060660e+000  3.000000e+000
      vertex -2.100000e+001  0.000000e+000  0.000000e+000
      vertex -2.100000e+001  0.000000e+000  3.000000e+000
    endloop
  endfacet
  facet normal -3.826837e-001  9.238794e-001  0.000000e+000
    outer loop
      vertex -2.250000e+001 -1.500000e+000  0.000000e+000
      vertex -2.143934e+001 -1.060660e+000  3.000000e+000
      vertex -2.143934e+001 -1.060660e+000  0.000000e+000
    endloop
  endfacet
  facet normal -9.238793e-001  3.826840e-001  0.000000e+000
    outer loop
      vertex -2.143934e+001 -1.060660e+000  0.000000e+000
      vertex -2.143934e+001 -1.060660e+000  3.000000e+000
      vertex -2.100000e+001  0.000000e+000  3.000000e+000
    endloop
  endfacet
  facet normal -9.238793e-001  3.826840e-001  0.000000e+000
    outer loop
      vertex -2.143934e+001 -1.060660e+000  0.000000e+000
      vertex -2.100000e+001  0.000000e+000  3.000000e+000
      vertex -2.100000e+001  0.000000e+000  0.000000e+000
    endloop
  endfacet
  facet normal -3.826837e-001  9.238794e-001  0.000000e+000
    outer loop
      vertex -2.143934e+001 -1.060660e+000  3.000000e+000
      vertex -2.250000e+001 -1.500000e+000  0.000000e+000
      vertex -2.250000e+001 -1.500000e+000  3.000000e+000
    endloop
  endfacet
  facet normal  3.826837e-001  9.238794e-001  0.000000e+000
    outer loop
      vertex -2.250000e+001 -1.500000e+000  3.000000e+000
      vertex -2.250000e+001 -1.500000e+000  0.000000e+000
      vertex -2.356066e+001 -1.060660e+000  0.000000e+000
    endloop
  endfacet
  facet normal  3.826837e-001  9.238794e-001  -0.000000e+000
    outer loop
      vertex -2.250000e+001 -1.500000e+000  3.000000e+000
      vertex -2.356066e+001 -1.060660e+000  0.000000e+000
      vertex -2.356066e+001 -1.060660e+000  3.000000e+000
    endloop
  endfacet
  facet normal  9.238793e-001  3.826840e-001  0.000000e+000
    outer loop
      vertex -2.356066e+001 -1.060660e+000  3.000000e+000
      vertex -2.356066e+001 -1.060660e+000  0.000000e+000
      vertex -2.400000e+001  1.836970e-016  0.000000e+000
    endloop
  endfacet
  facet normal  9.238793e-001  3.826840e-001  -0.000000e+000
    outer loop
      vertex -2.356066e+001 -1.060660e+000  3.000000e+000
      vertex -2.400000e+001  1.836970e-016  0.000000e+000
      vertex -2.400000e+001  1.836970e-016  3.000000e+000
    endloop
  endfacet
  facet normal  0.000000e+000 -1.000000e+000  0.000000e+000
    outer loop
      vertex -2.000000e+001 -2.500000e+000  3.000000e+000
      vertex -2.250000e+001 -2.500000e+000  3.000000e+000
      vertex -2.000000e+001 -2.500000e+000  0.000000e+000
    endloop
  endfacet
  facet normal  0.000000e+000 -1.000000e+000  0.000000e+000
    outer loop
      vertex -2.000000e+001 -2.500000e+000  0.000000e+000
      vertex -2.250000e+001 -2.500000e+000  3.000000e+000
      vertex -2.250000e+001 -2.500000e+000  0.000000e+000
    endloop
  endfacet
  facet normal -3.826834e-001 -9.238795e-001  -0.000000e+000
    outer loop
      vertex -2.250000e+001 -2.500000e+000  0.000000e+000
      vertex -2.250000e+001 -2.500000e+000  3.000000e+000
      vertex -2.426777e+001 -1.767767e+000  0.000000e+000
    endloop
  endfacet
  facet normal -3.826834e-001 -9.238795e-001  0.000000e+000
    outer loop
      vertex -2.426777e+001 -1.767767e+000  0.000000e+000
      vertex -2.250000e+001 -2.500000e+000  3.000000e+000
      vertex -2.426777e+001 -1.767767e+000  3.000000e+000
    endloop
  endfacet
  facet normal -9.238795e-001 -3.826834e-001  -0.000000e+000
    outer loop
      vertex -2.426777e+001 -1.767767e+000  0.000000e+000
      vertex -2.426777e+001 -1.767767e+000  3.000000e+000
      vertex -2.500000e+001  3.061617e-016  0.000000e+000
    endloop
  endfacet
  facet normal -9.238795e-001 -3.826834e-001  0.000000e+000
    outer loop
      vertex -2.500000e+001  3.061617e-016  0.000000e+000
      vertex -2.426777e+001 -1.767767e+000  3.000000e+000
      vertex -2.500000e+001  3.061617e-016  3.000000e+000
    endloop
  endfacet
  facet normal -9.238795e-001  3.826834e-001  0.000000e+000
    outer loop
      vertex -2.500000e+001  3.061617e-016  0.000000e+000
      vertex -2.500000e+001  3.061617e-016  3.000000e+000
      vertex -2.426777e+001  1.767767e+000  0.000000e+000
    endloop
  endfacet
  facet normal -9.238795e-001  3.826834e-001  0.000000e+000
    outer loop
      vertex -2.426777e+001  1.767767e+000  0.000000e+000
      vertex -2.500000e+001  3.061617e-016  3.000000e+000
      vertex -2.426777e+001  1.767767e+000  3.000000e+000
    endloop
  endfacet
  facet normal -3.826834e-001  9.238795e-001  0.000000e+000
    outer loop
      vertex -2.426777e+001  1.767767e+000  0.000000e+000
      vertex -2.426777e+001  1.767767e+000  3.000000e+000
      vertex -2.250000e+001  2.500000e+000  0.000000e+000
    endloop
  endfacet
  facet normal -3.826834e-001  9.238795e-001  0.000000e+000
    outer loop
      vertex -2.250000e+001  2.500000e+000  0.000000e+000
      vertex -2.426777e+001  1.767767e+000  3.000000e+000
      vertex -2.250000e+001  2.500000e+000  3.000000e+000
    endloop
  endfacet
  facet normal  0.000000e+000  1.000000e+000  -0.000000e+000
    outer loop
      vertex -2.000000e+001  2.500000e+000  3.000000e+000
      vertex -2.000000e+001  2.500000e+000  0.000000e+000
      vertex -2.250000e+001  2.500000e+000  3.000000e+000
    endloop
  endfacet
  facet normal  0.000000e+000  1.000000e+000  0.000000e+000
    outer loop
      vertex -2.250000e+001  2.500000e+000  3.000000e+000
      vertex -2.000000e+001  2.500000e+000  0.000000e+000
      vertex -2.250000e+001  2.500000e+000  0.000000e+000
    endloop
  endfacet
  facet normal  0.000000e+000  0.000000e+000  1.000000e+000
    outer loop
      vertex -1.633855e-015 -8.894291e+000  5.300000e+000
      vertex -6.289214e+000 -6.289214e+000  5.300000e+000
      vertex -3.403698e+000 -8.217254e+000  5.300000e+000
    endloop
  endfacet
  facet normal  0.000000e+000  -0.000000e+000  9.999999e-001
    outer loop
      vertex  4.875000e+000 -4.875000e+000  5.300000e+000
      vertex  6.289214e+000 -6.289214e+000  5.300000e+000
      vertex  8.217254e+000 -3.403698e+000  5.300000e+000
    endloop
  endfacet
  facet normal  0.000000e+000  -0.000000e+000  1.000000e+000
    outer loop
      vertex -1.633855e-015 -8.894291e+000  5.300000e+000
      vertex  3.403698e+000 -8.217254e+000  5.300000e+000
      vertex  6.289214e+000 -6.289214e+000  5.300000e+000
    endloop
  endfacet
  facet normal  0.000000e+000  0.000000e+000  9.999999e-001
    outer loop
      vertex -4.875000e+000 -4.875000e+000  5.300000e+000
      vertex -8.217254e+000 -3.403698e+000  5.300000e+000
      vertex -6.289214e+000 -6.289214e+000  5.300000e+000
    endloop
  endfacet
  facet normal  -0.000000e+000  0.000000e+000  1.000000e+000
    outer loop
      vertex -4.875000e+000 -4.875000e+000  5.300000e+000
      vertex -6.289214e+000 -6.289214e+000  5.300000e+000
      vertex -1.633855e-015 -8.894291e+000  5.300000e+000
    endloop
  endfacet
  facet normal  0.000000e+000  -0.000000e+000  9.999999e-001
    outer loop
      vertex -4.875000e+000 -4.875000e+000  5.300000e+000
      vertex -1.633855e-015 -8.894291e+000  5.300000e+000
      vertex  6.289214e+000 -6.289214e+000  5.300000e+000
    endloop
  endfacet
  facet normal  0.000000e+000  0.000000e+000  1.000000e+000
    outer loop
      vertex -4.875000e+000 -4.875000e+000  5.300000e+000
      vertex  6.289214e+000 -6.289214e+000  5.300000e+000
      vertex  4.875000e+000 -4.875000e+000  5.300000e+000
    endloop
  endfacet
  facet normal  0.000000e+000  -0.000000e+000  9.999999e-001
    outer loop
      vertex -8.894291e+000  1.089237e-015  5.300000e+000
      vertex -8.217254e+000 -3.403698e+000  5.300000e+000
      vertex -8.217254e+000  3.403698e+000  5.300000e+000
    endloop
  endfacet
  facet normal  0.000000e+000  0.000000e+000  1.000000e+000
    outer loop
      vertex -8.217254e+000  3.403698e+000  5.300000e+000
      vertex -8.217254e+000 -3.403698e+000  5.300000e+000
      vertex -4.875000e+000 -4.875000e+000  5.300000e+000
    endloop
  endfacet
  facet normal  0.000000e+000  0.000000e+000  1.000000e+000
    outer loop
      vertex -8.217254e+000  3.403698e+000  5.300000e+000
      vertex -4.875000e+000 -4.875000e+000  5.300000e+000
      vertex -6.289214e+000  6.289214e+000  5.300000e+000
    endloop
  endfacet
  facet normal  0.000000e+000  0.000000e+000  1.000000e+000
    outer loop
      vertex -6.289214e+000  6.289214e+000  5.300000e+000
      vertex -4.875000e+000 -4.875000e+000  5.300000e+000
      vertex -4.875000e+000  4.875000e+000  5.300000e+000
    endloop
  endfacet
  facet normal  0.000000e+000  -0.000000e+000  9.999999e-001
    outer loop
      vertex -6.289214e+000  6.289214e+000  5.300000e+000
      vertex -4.875000e+000  4.875000e+000  5.300000e+000
      vertex -3.403698e+000  8.217254e+000  5.300000e+000
    endloop
  endfacet
  facet normal  0.000000e+000  0.000000e+000  1.000000e+000
    outer loop
      vertex  8.217254e+000 -3.403698e+000  5.300000e+000
      vertex  8.894291e+000  0.000000e+000  5.300000e+000
      vertex  4.875000e+000 -4.875000e+000  5.300000e+000
    endloop
  endfacet
  facet normal  0.000000e+000  0.000000e+000  1.000000e+000
    outer loop
      vertex  4.875000e+000 -4.875000e+000  5.300000e+000
      vertex  8.894291e+000  0.000000e+000  5.300000e+000
      vertex  8.217254e+000  3.403698e+000  5.300000e+000
    endloop
  endfacet
  facet normal  0.000000e+000  0.000000e+000  1.000000e+000
    outer loop
      vertex  4.875000e+000 -4.875000e+000  5.300000e+000
      vertex  8.217254e+000  3.403698e+000  5.300000e+000
      vertex  4.875000e+000  4.875000e+000  5.300000e+000
    endloop
  endfacet
  facet normal  -0.000000e+000  0.000000e+000  9.999999e-001
    outer loop
      vertex  4.875000e+000  4.875000e+000  5.300000e+000
      vertex  8.217254e+000  3.403698e+000  5.300000e+000
      vertex  6.289214e+000  6.289214e+000  5.300000e+000
    endloop
  endfacet
  facet normal  0.000000e+000  0.000000e+000  1.000000e+000
    outer loop
      vertex  4.875000e+000  4.875000e+000  5.300000e+000
      vertex  6.289214e+000  6.289214e+000  5.300000e+000
      vertex -4.875000e+000  4.875000e+000  5.300000e+000
    endloop
  endfacet
  facet normal  0.000000e+000  0.000000e+000  1.000000e+000
    outer loop
      vertex -4.875000e+000  4.875000e+000  5.300000e+000
      vertex  6.289214e+000  6.289214e+000  5.300000e+000
      vertex  3.403698e+000  8.217254e+000  5.300000e+000
    endloop
  endfacet
  facet normal  0.000000e+000  0.000000e+000  1.000000e+000
    outer loop
      vertex -4.875000e+000  4.875000e+000  5.300000e+000
      vertex  3.403698e+000  8.217254e+000  5.300000e+000
      vertex -3.403698e+000  8.217254e+000  5.300000e+000
    endloop
  endfacet
  facet normal  0.000000e+000  0.000000e+000  9.999999e-001
    outer loop
      vertex -3.403698e+000  8.217254e+000  5.300000e+000
      vertex  3.403698e+000  8.217254e+000  5.300000e+000
      vertex  5.446183e-016  8.894291e+000  5.300000e+000
    endloop
  endfacet
  facet normal  1.000000e+000  -0.000000e+000  0.000000e+000
    outer loop
      vertex -4.875000e+000  4.875000e+000  5.300000e+000
      vertex -4.875000e+000 -4.875000e+000  5.300000e+000
      vertex -4.875000e+000  4.875000e+000  0.000000e+000
    endloop
  endfacet
  facet normal  1.000000e+000  0.000000e+000  0.000000e+000
    outer loop
      vertex -4.875000e+000  4.875000e+000  0.000000e+000
      vertex -4.875000e+000 -4.875000e+000  5.300000e+000
      vertex -4.875000e+000 -4.875000e+000  0.000000e+000
    endloop
  endfacet
  facet normal  0.000000e+000  1.000000e+000  -0.000000e+000
    outer loop
      vertex  4.875000e+000 -4.875000e+000  5.300000e+000
      vertex  4.875000e+000 -4.875000e+000  0.000000e+000
      vertex -4.875000e+000 -4.875000e+000  5.300000e+000
    endloop
  endfacet
  facet normal  0.000000e+000  1.000000e+000  0.000000e+000
    outer loop
      vertex -4.875000e+000 -4.875000e+000  5.300000e+000
      vertex  4.875000e+000 -4.875000e+000  0.000000e+000
      vertex -4.875000e+000 -4.875000e+000  0.000000e+000
    endloop
  endfacet
  facet normal -1.000000e+000  -0.000000e+000  0.000000e+000
    outer loop
      vertex  4.875000e+000 -4.875000e+000  5.300000e+000
      vertex  4.875000e+000  4.875000e+000  5.300000e+000
      vertex  4.875000e+000 -4.875000e+000  0.000000e+000
    endloop
  endfacet
  facet normal -1.000000e+000  0.000000e+000  0.000000e+000
    outer loop
      vertex  4.875000e+000 -4.875000e+000  0.000000e+000
      vertex  4.875000e+000  4.875000e+000  5.300000e+000
      vertex  4.875000e+000  4.875000e+000  0.000000e+000
    endloop
  endfacet
  facet normal  0.000000e+000 -1.000000e+000  0.000000e+000
    outer loop
      vertex -4.875000e+000  4.875000e+000  5.300000e+000
      vertex -4.875000e+000  4.875000e+000  0.000000e+000
      vertex  4.875000e+000  4.875000e+000  5.300000e+000
    endloop
  endfacet
  facet normal  0.000000e+000 -1.000000e+000  -0.000000e+000
    outer loop
      vertex  4.875000e+000  4.875000e+000  5.300000e+000
      vertex -4.875000e+000  4.875000e+000  0.000000e+000
      vertex  4.875000e+000  4.875000e+000  0.000000e+000
    endloop
  endfacet
endsolid CATIA STL
