solid CATIA STL
  facet normal  0.000000e+000  0.000000e+000  1.000000e+000
    outer loop
      vertex  7.000000e+000 -1.500000e+001  2.500000e+000
      vertex  7.000000e+000 -1.250000e+001  2.500000e+000
      vertex  5.200000e+000 -1.500000e+001  2.500000e+000
    endloop
  endfacet
  facet normal  0.000000e+000  0.000000e+000  1.000000e+000
    outer loop
      vertex  5.200000e+000 -1.500000e+001  2.500000e+000
      vertex  7.000000e+000 -1.250000e+001  2.500000e+000
      vertex  5.200000e+000 -1.250000e+001  2.500000e+000
    endloop
  endfacet
  facet normal  0.000000e+000  0.000000e+000  1.000000e+000
    outer loop
      vertex  1.800000e+000 -1.500000e+001  2.500000e+000
      vertex  1.800000e+000 -1.250000e+001  2.500000e+000
      vertex  0.000000e+000 -1.500000e+001  2.500000e+000
    endloop
  endfacet
  facet normal  0.000000e+000  0.000000e+000  1.000000e+000
    outer loop
      vertex  0.000000e+000 -1.500000e+001  2.500000e+000
      vertex  1.800000e+000 -1.250000e+001  2.500000e+000
      vertex  0.000000e+000 -1.250000e+001  2.500000e+000
    endloop
  endfacet
  facet normal  -0.000000e+000 -3.826835e-001 -9.238796e-001
    outer loop
      vertex  5.200000e+000 -1.500000e+001 -2.500000e+000
      vertex  7.000000e+000 -1.500000e+001 -2.500000e+000
      vertex  5.200000e+000 -1.676777e+001 -1.767767e+000
    endloop
  endfacet
  facet normal  0.000000e+000 -3.826835e-001 -9.238796e-001
    outer loop
      vertex  5.200000e+000 -1.676777e+001 -1.767767e+000
      vertex  7.000000e+000 -1.500000e+001 -2.500000e+000
      vertex  7.000000e+000 -1.676777e+001 -1.767767e+000
    endloop
  endfacet
  facet normal  -0.000000e+000 -9.238796e-001 -3.826835e-001
    outer loop
      vertex  5.200000e+000 -1.676777e+001 -1.767767e+000
      vertex  7.000000e+000 -1.676777e+001 -1.767767e+000
      vertex  5.200000e+000 -1.750000e+001 -4.440892e-016
    endloop
  endfacet
  facet normal  1.595048e-016 -9.238796e-001 -3.826835e-001
    outer loop
      vertex  5.200000e+000 -1.750000e+001 -4.440892e-016
      vertex  7.000000e+000 -1.676777e+001 -1.767767e+000
      vertex  7.000000e+000 -1.750000e+001  3.061617e-016
    endloop
  endfacet
  facet normal -1.595048e-016 -9.238796e-001  3.826835e-001
    outer loop
      vertex  5.200000e+000 -1.750000e+001 -4.440892e-016
      vertex  7.000000e+000 -1.750000e+001  3.061617e-016
      vertex  5.200000e+000 -1.676777e+001  1.767767e+000
    endloop
  endfacet
  facet normal  0.000000e+000 -9.238796e-001  3.826835e-001
    outer loop
      vertex  5.200000e+000 -1.676777e+001  1.767767e+000
      vertex  7.000000e+000 -1.750000e+001  3.061617e-016
      vertex  7.000000e+000 -1.676777e+001  1.767767e+000
    endloop
  endfacet
  facet normal  0.000000e+000 -3.826835e-001  9.238796e-001
    outer loop
      vertex  5.200000e+000 -1.676777e+001  1.767767e+000
      vertex  7.000000e+000 -1.676777e+001  1.767767e+000
      vertex  5.200000e+000 -1.500000e+001  2.500000e+000
    endloop
  endfacet
  facet normal  0.000000e+000 -3.826835e-001  9.238796e-001
    outer loop
      vertex  5.200000e+000 -1.500000e+001  2.500000e+000
      vertex  7.000000e+000 -1.676777e+001  1.767767e+000
      vertex  7.000000e+000 -1.500000e+001  2.500000e+000
    endloop
  endfacet
  facet normal  -0.000000e+000 -3.826834e-001 -9.238794e-001
    outer loop
      vertex  0.000000e+000 -1.500000e+001 -2.500000e+000
      vertex  1.800000e+000 -1.500000e+001 -2.500000e+000
      vertex  0.000000e+000 -1.676777e+001 -1.767767e+000
    endloop
  endfacet
  facet normal  0.000000e+000 -3.826834e-001 -9.238794e-001
    outer loop
      vertex  0.000000e+000 -1.676777e+001 -1.767767e+000
      vertex  1.800000e+000 -1.500000e+001 -2.500000e+000
      vertex  1.800000e+000 -1.676777e+001 -1.767767e+000
    endloop
  endfacet
  facet normal  -0.000000e+000 -9.238794e-001 -3.826834e-001
    outer loop
      vertex  0.000000e+000 -1.676777e+001 -1.767767e+000
      vertex  1.800000e+000 -1.676777e+001 -1.767767e+000
      vertex  0.000000e+000 -1.750000e+001  3.061617e-016
    endloop
  endfacet
  facet normal  2.932365e-017 -9.238794e-001 -3.826834e-001
    outer loop
      vertex  0.000000e+000 -1.750000e+001  3.061617e-016
      vertex  1.800000e+000 -1.676777e+001 -1.767767e+000
      vertex  1.800000e+000 -1.750000e+001  4.440892e-016
    endloop
  endfacet
  facet normal -2.932365e-017 -9.238794e-001  3.826834e-001
    outer loop
      vertex  0.000000e+000 -1.750000e+001  3.061617e-016
      vertex  1.800000e+000 -1.750000e+001  4.440892e-016
      vertex  0.000000e+000 -1.676777e+001  1.767767e+000
    endloop
  endfacet
  facet normal  0.000000e+000 -9.238794e-001  3.826834e-001
    outer loop
      vertex  0.000000e+000 -1.676777e+001  1.767767e+000
      vertex  1.800000e+000 -1.750000e+001  4.440892e-016
      vertex  1.800000e+000 -1.676777e+001  1.767767e+000
    endloop
  endfacet
  facet normal  0.000000e+000 -3.826834e-001  9.238794e-001
    outer loop
      vertex  0.000000e+000 -1.676777e+001  1.767767e+000
      vertex  1.800000e+000 -1.676777e+001  1.767767e+000
      vertex  0.000000e+000 -1.500000e+001  2.500000e+000
    endloop
  endfacet
  facet normal  0.000000e+000 -3.826834e-001  9.238794e-001
    outer loop
      vertex  0.000000e+000 -1.500000e+001  2.500000e+000
      vertex  1.800000e+000 -1.676777e+001  1.767767e+000
      vertex  1.800000e+000 -1.500000e+001  2.500000e+000
    endloop
  endfacet
  facet normal  0.000000e+000  0.000000e+000 -1.000000e+000
    outer loop
      vertex  7.000000e+000 -1.500000e+001 -2.500000e+000
      vertex  5.200000e+000 -1.500000e+001 -2.500000e+000
      vertex  7.000000e+000 -1.250000e+001 -2.500000e+000
    endloop
  endfacet
  facet normal  -0.000000e+000  0.000000e+000 -1.000000e+000
    outer loop
      vertex  7.000000e+000 -1.250000e+001 -2.500000e+000
      vertex  5.200000e+000 -1.500000e+001 -2.500000e+000
      vertex  5.200000e+000 -1.250000e+001 -2.500000e+000
    endloop
  endfacet
  facet normal  0.000000e+000  0.000000e+000 -1.000000e+000
    outer loop
      vertex  1.800000e+000 -1.500000e+001 -2.500000e+000
      vertex  0.000000e+000 -1.500000e+001 -2.500000e+000
      vertex  1.800000e+000 -1.250000e+001 -2.500000e+000
    endloop
  endfacet
  facet normal  -0.000000e+000  0.000000e+000 -1.000000e+000
    outer loop
      vertex  1.800000e+000 -1.250000e+001 -2.500000e+000
      vertex  0.000000e+000 -1.500000e+001 -2.500000e+000
      vertex  0.000000e+000 -1.250000e+001 -2.500000e+000
    endloop
  endfacet
  facet normal  0.000000e+000  0.000000e+000 -1.000000e+000
    outer loop
      vertex  5.200000e+000  1.050000e+001 -2.500000e+000
      vertex  5.200000e+000  1.250000e+001 -2.500000e+000
      vertex  7.000000e+000  1.250000e+001 -2.500000e+000
    endloop
  endfacet
  facet normal  0.000000e+000  0.000000e+000 -1.000000e+000
    outer loop
      vertex  5.200000e+000  1.050000e+001 -2.500000e+000
      vertex  7.000000e+000  1.250000e+001 -2.500000e+000
      vertex  5.200000e+000 -1.050000e+001 -2.500000e+000
    endloop
  endfacet
  facet normal  0.000000e+000  0.000000e+000 -1.000000e+000
    outer loop
      vertex  5.200000e+000  1.050000e+001 -2.500000e+000
      vertex  5.200000e+000 -1.050000e+001 -2.500000e+000
      vertex  1.800000e+000 -1.050000e+001 -2.500000e+000
    endloop
  endfacet
  facet normal  0.000000e+000  0.000000e+000 -1.000000e+000
    outer loop
      vertex  5.200000e+000  1.050000e+001 -2.500000e+000
      vertex  1.800000e+000 -1.050000e+001 -2.500000e+000
      vertex  1.800000e+000  1.050000e+001 -2.500000e+000
    endloop
  endfacet
  facet normal  -0.000000e+000  -0.000000e+000 -1.000000e+000
    outer loop
      vertex  0.000000e+000  1.250000e+001 -2.500000e+000
      vertex  1.800000e+000  1.250000e+001 -2.500000e+000
      vertex  1.800000e+000  1.050000e+001 -2.500000e+000
    endloop
  endfacet
  facet normal  -0.000000e+000  -0.000000e+000 -9.999999e-001
    outer loop
      vertex  0.000000e+000  1.250000e+001 -2.500000e+000
      vertex  1.800000e+000  1.050000e+001 -2.500000e+000
      vertex  1.800000e+000 -1.050000e+001 -2.500000e+000
    endloop
  endfacet
  facet normal  -0.000000e+000  -0.000000e+000 -1.000000e+000
    outer loop
      vertex  0.000000e+000  1.250000e+001 -2.500000e+000
      vertex  1.800000e+000 -1.050000e+001 -2.500000e+000
      vertex  1.800000e+000 -1.250000e+001 -2.500000e+000
    endloop
  endfacet
  facet normal  0.000000e+000  0.000000e+000 -1.000000e+000
    outer loop
      vertex  0.000000e+000  1.250000e+001 -2.500000e+000
      vertex  1.800000e+000 -1.250000e+001 -2.500000e+000
      vertex  0.000000e+000 -1.250000e+001 -2.500000e+000
    endloop
  endfacet
  facet normal  0.000000e+000  0.000000e+000 -1.000000e+000
    outer loop
      vertex  7.000000e+000 -1.250000e+001 -2.500000e+000
      vertex  5.200000e+000 -1.250000e+001 -2.500000e+000
      vertex  7.000000e+000  1.250000e+001 -2.500000e+000
    endloop
  endfacet
  facet normal  0.000000e+000  0.000000e+000 -1.000000e+000
    outer loop
      vertex  7.000000e+000  1.250000e+001 -2.500000e+000
      vertex  5.200000e+000 -1.250000e+001 -2.500000e+000
      vertex  5.200000e+000 -1.050000e+001 -2.500000e+000
    endloop
  endfacet
  facet normal  0.000000e+000  0.000000e+000 -1.000000e+000
    outer loop
      vertex  7.000000e+000  1.250000e+001 -2.500000e+000
      vertex  5.200000e+000  1.250000e+001 -2.500000e+000
      vertex  7.000000e+000  1.500000e+001 -2.500000e+000
    endloop
  endfacet
  facet normal  -0.000000e+000  0.000000e+000 -1.000000e+000
    outer loop
      vertex  7.000000e+000  1.500000e+001 -2.500000e+000
      vertex  5.200000e+000  1.250000e+001 -2.500000e+000
      vertex  5.200000e+000  1.500000e+001 -2.500000e+000
    endloop
  endfacet
  facet normal  0.000000e+000  0.000000e+000 -1.000000e+000
    outer loop
      vertex  1.800000e+000  1.250000e+001 -2.500000e+000
      vertex  0.000000e+000  1.250000e+001 -2.500000e+000
      vertex  1.800000e+000  1.500000e+001 -2.500000e+000
    endloop
  endfacet
  facet normal  -0.000000e+000  0.000000e+000 -1.000000e+000
    outer loop
      vertex  1.800000e+000  1.500000e+001 -2.500000e+000
      vertex  0.000000e+000  1.250000e+001 -2.500000e+000
      vertex  0.000000e+000  1.500000e+001 -2.500000e+000
    endloop
  endfacet
  facet normal  0.000000e+000  3.826835e-001  9.238796e-001
    outer loop
      vertex  5.200000e+000  1.500000e+001  2.500000e+000
      vertex  7.000000e+000  1.500000e+001  2.500000e+000
      vertex  5.200000e+000  1.676777e+001  1.767767e+000
    endloop
  endfacet
  facet normal  -0.000000e+000  3.826835e-001  9.238796e-001
    outer loop
      vertex  5.200000e+000  1.676777e+001  1.767767e+000
      vertex  7.000000e+000  1.500000e+001  2.500000e+000
      vertex  7.000000e+000  1.676777e+001  1.767767e+000
    endloop
  endfacet
  facet normal  0.000000e+000  9.238796e-001  3.826835e-001
    outer loop
      vertex  5.200000e+000  1.676777e+001  1.767767e+000
      vertex  7.000000e+000  1.676777e+001  1.767767e+000
      vertex  5.200000e+000  1.750000e+001  4.440892e-016
    endloop
  endfacet
  facet normal  2.245953e-016  9.238796e-001  3.826835e-001
    outer loop
      vertex  5.200000e+000  1.750000e+001  4.440892e-016
      vertex  7.000000e+000  1.676777e+001  1.767767e+000
      vertex  7.000000e+000  1.750000e+001 -6.123234e-016
    endloop
  endfacet
  facet normal -2.245953e-016  9.238796e-001 -3.826835e-001
    outer loop
      vertex  5.200000e+000  1.750000e+001  4.440892e-016
      vertex  7.000000e+000  1.750000e+001 -6.123234e-016
      vertex  5.200000e+000  1.676777e+001 -1.767767e+000
    endloop
  endfacet
  facet normal  0.000000e+000  9.238796e-001 -3.826835e-001
    outer loop
      vertex  5.200000e+000  1.676777e+001 -1.767767e+000
      vertex  7.000000e+000  1.750000e+001 -6.123234e-016
      vertex  7.000000e+000  1.676777e+001 -1.767767e+000
    endloop
  endfacet
  facet normal  0.000000e+000  3.826835e-001 -9.238796e-001
    outer loop
      vertex  5.200000e+000  1.676777e+001 -1.767767e+000
      vertex  7.000000e+000  1.676777e+001 -1.767767e+000
      vertex  5.200000e+000  1.500000e+001 -2.500000e+000
    endloop
  endfacet
  facet normal  0.000000e+000  3.826835e-001 -9.238796e-001
    outer loop
      vertex  5.200000e+000  1.500000e+001 -2.500000e+000
      vertex  7.000000e+000  1.676777e+001 -1.767767e+000
      vertex  7.000000e+000  1.500000e+001 -2.500000e+000
    endloop
  endfacet
  facet normal  0.000000e+000  3.826834e-001  9.238794e-001
    outer loop
      vertex  0.000000e+000  1.500000e+001  2.500000e+000
      vertex  1.800000e+000  1.500000e+001  2.500000e+000
      vertex  0.000000e+000  1.676777e+001  1.767767e+000
    endloop
  endfacet
  facet normal  -0.000000e+000  3.826834e-001  9.238794e-001
    outer loop
      vertex  0.000000e+000  1.676777e+001  1.767767e+000
      vertex  1.800000e+000  1.500000e+001  2.500000e+000
      vertex  1.800000e+000  1.676777e+001  1.767767e+000
    endloop
  endfacet
  facet normal  0.000000e+000  9.238794e-001  3.826834e-001
    outer loop
      vertex  0.000000e+000  1.676777e+001  1.767767e+000
      vertex  1.800000e+000  1.676777e+001  1.767767e+000
      vertex  0.000000e+000  1.750000e+001 -6.123234e-016
    endloop
  endfacet
  facet normal -3.576691e-017  9.238794e-001  3.826834e-001
    outer loop
      vertex  0.000000e+000  1.750000e+001 -6.123234e-016
      vertex  1.800000e+000  1.676777e+001  1.767767e+000
      vertex  1.800000e+000  1.750000e+001 -4.440892e-016
    endloop
  endfacet
  facet normal  3.576691e-017  9.238794e-001 -3.826834e-001
    outer loop
      vertex  0.000000e+000  1.750000e+001 -6.123234e-016
      vertex  1.800000e+000  1.750000e+001 -4.440892e-016
      vertex  0.000000e+000  1.676777e+001 -1.767767e+000
    endloop
  endfacet
  facet normal  0.000000e+000  9.238794e-001 -3.826834e-001
    outer loop
      vertex  0.000000e+000  1.676777e+001 -1.767767e+000
      vertex  1.800000e+000  1.750000e+001 -4.440892e-016
      vertex  1.800000e+000  1.676777e+001 -1.767767e+000
    endloop
  endfacet
  facet normal  0.000000e+000  3.826834e-001 -9.238794e-001
    outer loop
      vertex  0.000000e+000  1.676777e+001 -1.767767e+000
      vertex  1.800000e+000  1.676777e+001 -1.767767e+000
      vertex  0.000000e+000  1.500000e+001 -2.500000e+000
    endloop
  endfacet
  facet normal  0.000000e+000  3.826834e-001 -9.238794e-001
    outer loop
      vertex  0.000000e+000  1.500000e+001 -2.500000e+000
      vertex  1.800000e+000  1.676777e+001 -1.767767e+000
      vertex  1.800000e+000  1.500000e+001 -2.500000e+000
    endloop
  endfacet
  facet normal  0.000000e+000  0.000000e+000  1.000000e+000
    outer loop
      vertex  7.000000e+000  1.250000e+001  2.500000e+000
      vertex  7.000000e+000  1.500000e+001  2.500000e+000
      vertex  5.200000e+000  1.250000e+001  2.500000e+000
    endloop
  endfacet
  facet normal  0.000000e+000  0.000000e+000  1.000000e+000
    outer loop
      vertex  5.200000e+000  1.250000e+001  2.500000e+000
      vertex  7.000000e+000  1.500000e+001  2.500000e+000
      vertex  5.200000e+000  1.500000e+001  2.500000e+000
    endloop
  endfacet
  facet normal  0.000000e+000  0.000000e+000  1.000000e+000
    outer loop
      vertex  1.800000e+000  1.250000e+001  2.500000e+000
      vertex  1.800000e+000  1.500000e+001  2.500000e+000
      vertex  0.000000e+000  1.250000e+001  2.500000e+000
    endloop
  endfacet
  facet normal  0.000000e+000  0.000000e+000  1.000000e+000
    outer loop
      vertex  0.000000e+000  1.250000e+001  2.500000e+000
      vertex  1.800000e+000  1.500000e+001  2.500000e+000
      vertex  0.000000e+000  1.500000e+001  2.500000e+000
    endloop
  endfacet
  facet normal  -0.000000e+000  0.000000e+000  1.000000e+000
    outer loop
      vertex  5.200000e+000  1.050000e+001  2.500000e+000
      vertex  1.800000e+000  1.050000e+001  2.500000e+000
      vertex  1.800000e+000 -1.050000e+001  2.500000e+000
    endloop
  endfacet
  facet normal  0.000000e+000  0.000000e+000  1.000000e+000
    outer loop
      vertex  5.200000e+000  1.050000e+001  2.500000e+000
      vertex  1.800000e+000 -1.050000e+001  2.500000e+000
      vertex  5.200000e+000 -1.050000e+001  2.500000e+000
    endloop
  endfacet
  facet normal  0.000000e+000  0.000000e+000  1.000000e+000
    outer loop
      vertex  5.200000e+000  1.050000e+001  2.500000e+000
      vertex  5.200000e+000 -1.050000e+001  2.500000e+000
      vertex  7.000000e+000  1.250000e+001  2.500000e+000
    endloop
  endfacet
  facet normal  0.000000e+000  0.000000e+000  1.000000e+000
    outer loop
      vertex  5.200000e+000  1.050000e+001  2.500000e+000
      vertex  7.000000e+000  1.250000e+001  2.500000e+000
      vertex  5.200000e+000  1.250000e+001  2.500000e+000
    endloop
  endfacet
  facet normal  0.000000e+000  0.000000e+000  1.000000e+000
    outer loop
      vertex  0.000000e+000  1.250000e+001  2.500000e+000
      vertex  0.000000e+000 -1.250000e+001  2.500000e+000
      vertex  1.800000e+000 -1.250000e+001  2.500000e+000
    endloop
  endfacet
  facet normal  0.000000e+000  -0.000000e+000  1.000000e+000
    outer loop
      vertex  0.000000e+000  1.250000e+001  2.500000e+000
      vertex  1.800000e+000 -1.250000e+001  2.500000e+000
      vertex  1.800000e+000 -1.050000e+001  2.500000e+000
    endloop
  endfacet
  facet normal  0.000000e+000  -0.000000e+000  9.999999e-001
    outer loop
      vertex  0.000000e+000  1.250000e+001  2.500000e+000
      vertex  1.800000e+000 -1.050000e+001  2.500000e+000
      vertex  1.800000e+000  1.050000e+001  2.500000e+000
    endloop
  endfacet
  facet normal  0.000000e+000  -0.000000e+000  1.000000e+000
    outer loop
      vertex  0.000000e+000  1.250000e+001  2.500000e+000
      vertex  1.800000e+000  1.050000e+001  2.500000e+000
      vertex  1.800000e+000  1.250000e+001  2.500000e+000
    endloop
  endfacet
  facet normal  0.000000e+000  0.000000e+000  1.000000e+000
    outer loop
      vertex  7.000000e+000 -1.250000e+001  2.500000e+000
      vertex  7.000000e+000  1.250000e+001  2.500000e+000
      vertex  5.200000e+000 -1.250000e+001  2.500000e+000
    endloop
  endfacet
  facet normal  0.000000e+000  0.000000e+000  1.000000e+000
    outer loop
      vertex  5.200000e+000 -1.250000e+001  2.500000e+000
      vertex  7.000000e+000  1.250000e+001  2.500000e+000
      vertex  5.200000e+000 -1.050000e+001  2.500000e+000
    endloop
  endfacet
  facet normal  0.000000e+000 -3.826834e-001  9.238796e-001
    outer loop
      vertex  5.200000e+000 -1.500000e+001 -1.500000e+000
      vertex  7.000000e+000 -1.393934e+001 -1.060660e+000
      vertex  5.200000e+000 -1.393934e+001 -1.060660e+000
    endloop
  endfacet
  facet normal  0.000000e+000 -9.238796e-001  3.826833e-001
    outer loop
      vertex  5.200000e+000 -1.393934e+001 -1.060660e+000
      vertex  7.000000e+000 -1.393934e+001 -1.060660e+000
      vertex  7.000000e+000 -1.350000e+001  0.000000e+000
    endloop
  endfacet
  facet normal  0.000000e+000 -9.238796e-001  3.826833e-001
    outer loop
      vertex  5.200000e+000 -1.393934e+001 -1.060660e+000
      vertex  7.000000e+000 -1.350000e+001  0.000000e+000
      vertex  5.200000e+000 -1.350000e+001  0.000000e+000
    endloop
  endfacet
  facet normal  0.000000e+000 -3.826834e-001  9.238796e-001
    outer loop
      vertex  7.000000e+000 -1.393934e+001 -1.060660e+000
      vertex  5.200000e+000 -1.500000e+001 -1.500000e+000
      vertex  7.000000e+000 -1.500000e+001 -1.500000e+000
    endloop
  endfacet
  facet normal  0.000000e+000  3.826837e-001  9.238794e-001
    outer loop
      vertex  7.000000e+000 -1.500000e+001 -1.500000e+000
      vertex  5.200000e+000 -1.500000e+001 -1.500000e+000
      vertex  5.200000e+000 -1.606066e+001 -1.060660e+000
    endloop
  endfacet
  facet normal  -0.000000e+000  3.826837e-001  9.238794e-001
    outer loop
      vertex  7.000000e+000 -1.500000e+001 -1.500000e+000
      vertex  5.200000e+000 -1.606066e+001 -1.060660e+000
      vertex  7.000000e+000 -1.606066e+001 -1.060660e+000
    endloop
  endfacet
  facet normal  0.000000e+000  9.238793e-001  3.826840e-001
    outer loop
      vertex  7.000000e+000 -1.606066e+001 -1.060660e+000
      vertex  5.200000e+000 -1.606066e+001 -1.060660e+000
      vertex  5.200000e+000 -1.650000e+001  1.836970e-016
    endloop
  endfacet
  facet normal  -0.000000e+000  9.238793e-001  3.826840e-001
    outer loop
      vertex  7.000000e+000 -1.606066e+001 -1.060660e+000
      vertex  5.200000e+000 -1.650000e+001  1.836970e-016
      vertex  7.000000e+000 -1.650000e+001  1.836970e-016
    endloop
  endfacet
  facet normal  0.000000e+000 -3.826834e-001  9.238796e-001
    outer loop
      vertex  0.000000e+000 -1.500000e+001 -1.500000e+000
      vertex  1.800000e+000 -1.393934e+001 -1.060660e+000
      vertex  0.000000e+000 -1.393934e+001 -1.060660e+000
    endloop
  endfacet
  facet normal  0.000000e+000 -9.238796e-001  3.826833e-001
    outer loop
      vertex  0.000000e+000 -1.393934e+001 -1.060660e+000
      vertex  1.800000e+000 -1.393934e+001 -1.060660e+000
      vertex  1.800000e+000 -1.350000e+001  0.000000e+000
    endloop
  endfacet
  facet normal  0.000000e+000 -9.238796e-001  3.826833e-001
    outer loop
      vertex  0.000000e+000 -1.393934e+001 -1.060660e+000
      vertex  1.800000e+000 -1.350000e+001  0.000000e+000
      vertex  0.000000e+000 -1.350000e+001  0.000000e+000
    endloop
  endfacet
  facet normal  0.000000e+000 -3.826834e-001  9.238796e-001
    outer loop
      vertex  1.800000e+000 -1.393934e+001 -1.060660e+000
      vertex  0.000000e+000 -1.500000e+001 -1.500000e+000
      vertex  1.800000e+000 -1.500000e+001 -1.500000e+000
    endloop
  endfacet
  facet normal  0.000000e+000  3.826837e-001  9.238794e-001
    outer loop
      vertex  1.800000e+000 -1.500000e+001 -1.500000e+000
      vertex  0.000000e+000 -1.500000e+001 -1.500000e+000
      vertex  0.000000e+000 -1.606066e+001 -1.060660e+000
    endloop
  endfacet
  facet normal  -0.000000e+000  3.826837e-001  9.238794e-001
    outer loop
      vertex  1.800000e+000 -1.500000e+001 -1.500000e+000
      vertex  0.000000e+000 -1.606066e+001 -1.060660e+000
      vertex  1.800000e+000 -1.606066e+001 -1.060660e+000
    endloop
  endfacet
  facet normal  0.000000e+000  9.238793e-001  3.826840e-001
    outer loop
      vertex  1.800000e+000 -1.606066e+001 -1.060660e+000
      vertex  0.000000e+000 -1.606066e+001 -1.060660e+000
      vertex  0.000000e+000 -1.650000e+001  1.836970e-016
    endloop
  endfacet
  facet normal  -0.000000e+000  9.238793e-001  3.826840e-001
    outer loop
      vertex  1.800000e+000 -1.606066e+001 -1.060660e+000
      vertex  0.000000e+000 -1.650000e+001  1.836970e-016
      vertex  1.800000e+000 -1.650000e+001  1.836970e-016
    endloop
  endfacet
  facet normal  0.000000e+000  3.826837e-001 -9.238794e-001
    outer loop
      vertex  5.200000e+000 -1.500000e+001  1.500000e+000
      vertex  7.000000e+000 -1.606066e+001  1.060660e+000
      vertex  5.200000e+000 -1.606066e+001  1.060660e+000
    endloop
  endfacet
  facet normal  0.000000e+000  9.238793e-001 -3.826840e-001
    outer loop
      vertex  5.200000e+000 -1.606066e+001  1.060660e+000
      vertex  7.000000e+000 -1.606066e+001  1.060660e+000
      vertex  7.000000e+000 -1.650000e+001  1.836970e-016
    endloop
  endfacet
  facet normal  0.000000e+000  9.238793e-001 -3.826840e-001
    outer loop
      vertex  5.200000e+000 -1.606066e+001  1.060660e+000
      vertex  7.000000e+000 -1.650000e+001  1.836970e-016
      vertex  5.200000e+000 -1.650000e+001  1.836970e-016
    endloop
  endfacet
  facet normal  0.000000e+000  3.826837e-001 -9.238794e-001
    outer loop
      vertex  7.000000e+000 -1.606066e+001  1.060660e+000
      vertex  5.200000e+000 -1.500000e+001  1.500000e+000
      vertex  7.000000e+000 -1.500000e+001  1.500000e+000
    endloop
  endfacet
  facet normal  -0.000000e+000 -3.826834e-001 -9.238796e-001
    outer loop
      vertex  7.000000e+000 -1.500000e+001  1.500000e+000
      vertex  5.200000e+000 -1.500000e+001  1.500000e+000
      vertex  5.200000e+000 -1.393934e+001  1.060660e+000
    endloop
  endfacet
  facet normal  0.000000e+000 -3.826834e-001 -9.238796e-001
    outer loop
      vertex  7.000000e+000 -1.500000e+001  1.500000e+000
      vertex  5.200000e+000 -1.393934e+001  1.060660e+000
      vertex  7.000000e+000 -1.393934e+001  1.060660e+000
    endloop
  endfacet
  facet normal  -0.000000e+000 -9.238796e-001 -3.826833e-001
    outer loop
      vertex  7.000000e+000 -1.393934e+001  1.060660e+000
      vertex  5.200000e+000 -1.393934e+001  1.060660e+000
      vertex  5.200000e+000 -1.350000e+001  0.000000e+000
    endloop
  endfacet
  facet normal  0.000000e+000 -9.238796e-001 -3.826833e-001
    outer loop
      vertex  7.000000e+000 -1.393934e+001  1.060660e+000
      vertex  5.200000e+000 -1.350000e+001  0.000000e+000
      vertex  7.000000e+000 -1.350000e+001  0.000000e+000
    endloop
  endfacet
  facet normal  0.000000e+000  3.826837e-001 -9.238794e-001
    outer loop
      vertex  0.000000e+000 -1.500000e+001  1.500000e+000
      vertex  1.800000e+000 -1.606066e+001  1.060660e+000
      vertex  0.000000e+000 -1.606066e+001  1.060660e+000
    endloop
  endfacet
  facet normal  0.000000e+000  9.238793e-001 -3.826840e-001
    outer loop
      vertex  0.000000e+000 -1.606066e+001  1.060660e+000
      vertex  1.800000e+000 -1.606066e+001  1.060660e+000
      vertex  1.800000e+000 -1.650000e+001  1.836970e-016
    endloop
  endfacet
  facet normal  0.000000e+000  9.238793e-001 -3.826840e-001
    outer loop
      vertex  0.000000e+000 -1.606066e+001  1.060660e+000
      vertex  1.800000e+000 -1.650000e+001  1.836970e-016
      vertex  0.000000e+000 -1.650000e+001  1.836970e-016
    endloop
  endfacet
  facet normal  0.000000e+000  3.826837e-001 -9.238794e-001
    outer loop
      vertex  1.800000e+000 -1.606066e+001  1.060660e+000
      vertex  0.000000e+000 -1.500000e+001  1.500000e+000
      vertex  1.800000e+000 -1.500000e+001  1.500000e+000
    endloop
  endfacet
  facet normal  -0.000000e+000 -3.826834e-001 -9.238796e-001
    outer loop
      vertex  1.800000e+000 -1.500000e+001  1.500000e+000
      vertex  0.000000e+000 -1.500000e+001  1.500000e+000
      vertex  0.000000e+000 -1.393934e+001  1.060660e+000
    endloop
  endfacet
  facet normal  0.000000e+000 -3.826834e-001 -9.238796e-001
    outer loop
      vertex  1.800000e+000 -1.500000e+001  1.500000e+000
      vertex  0.000000e+000 -1.393934e+001  1.060660e+000
      vertex  1.800000e+000 -1.393934e+001  1.060660e+000
    endloop
  endfacet
  facet normal  -0.000000e+000 -9.238796e-001 -3.826833e-001
    outer loop
      vertex  1.800000e+000 -1.393934e+001  1.060660e+000
      vertex  0.000000e+000 -1.393934e+001  1.060660e+000
      vertex  0.000000e+000 -1.350000e+001  0.000000e+000
    endloop
  endfacet
  facet normal  0.000000e+000 -9.238796e-001 -3.826833e-001
    outer loop
      vertex  1.800000e+000 -1.393934e+001  1.060660e+000
      vertex  0.000000e+000 -1.350000e+001  0.000000e+000
      vertex  1.800000e+000 -1.350000e+001  0.000000e+000
    endloop
  endfacet
  facet normal  0.000000e+000 -3.826837e-001  9.238794e-001
    outer loop
      vertex  5.200000e+000  1.500000e+001 -1.500000e+000
      vertex  7.000000e+000  1.606066e+001 -1.060660e+000
      vertex  5.200000e+000  1.606066e+001 -1.060660e+000
    endloop
  endfacet
  facet normal  0.000000e+000 -9.238793e-001  3.826840e-001
    outer loop
      vertex  5.200000e+000  1.606066e+001 -1.060660e+000
      vertex  7.000000e+000  1.606066e+001 -1.060660e+000
      vertex  7.000000e+000  1.650000e+001  0.000000e+000
    endloop
  endfacet
  facet normal  0.000000e+000 -9.238793e-001  3.826840e-001
    outer loop
      vertex  5.200000e+000  1.606066e+001 -1.060660e+000
      vertex  7.000000e+000  1.650000e+001  0.000000e+000
      vertex  5.200000e+000  1.650000e+001  0.000000e+000
    endloop
  endfacet
  facet normal  0.000000e+000 -3.826837e-001  9.238794e-001
    outer loop
      vertex  7.000000e+000  1.606066e+001 -1.060660e+000
      vertex  5.200000e+000  1.500000e+001 -1.500000e+000
      vertex  7.000000e+000  1.500000e+001 -1.500000e+000
    endloop
  endfacet
  facet normal  0.000000e+000  3.826834e-001  9.238796e-001
    outer loop
      vertex  7.000000e+000  1.500000e+001 -1.500000e+000
      vertex  5.200000e+000  1.500000e+001 -1.500000e+000
      vertex  5.200000e+000  1.393934e+001 -1.060660e+000
    endloop
  endfacet
  facet normal  -0.000000e+000  3.826834e-001  9.238796e-001
    outer loop
      vertex  7.000000e+000  1.500000e+001 -1.500000e+000
      vertex  5.200000e+000  1.393934e+001 -1.060660e+000
      vertex  7.000000e+000  1.393934e+001 -1.060660e+000
    endloop
  endfacet
  facet normal  0.000000e+000  9.238796e-001  3.826833e-001
    outer loop
      vertex  7.000000e+000  1.393934e+001 -1.060660e+000
      vertex  5.200000e+000  1.393934e+001 -1.060660e+000
      vertex  5.200000e+000  1.350000e+001  1.836970e-016
    endloop
  endfacet
  facet normal  -0.000000e+000  9.238796e-001  3.826833e-001
    outer loop
      vertex  7.000000e+000  1.393934e+001 -1.060660e+000
      vertex  5.200000e+000  1.350000e+001  1.836970e-016
      vertex  7.000000e+000  1.350000e+001  1.836970e-016
    endloop
  endfacet
  facet normal  0.000000e+000 -3.826837e-001  9.238794e-001
    outer loop
      vertex  0.000000e+000  1.500000e+001 -1.500000e+000
      vertex  1.800000e+000  1.606066e+001 -1.060660e+000
      vertex  0.000000e+000  1.606066e+001 -1.060660e+000
    endloop
  endfacet
  facet normal  0.000000e+000 -9.238793e-001  3.826840e-001
    outer loop
      vertex  0.000000e+000  1.606066e+001 -1.060660e+000
      vertex  1.800000e+000  1.606066e+001 -1.060660e+000
      vertex  1.800000e+000  1.650000e+001  0.000000e+000
    endloop
  endfacet
  facet normal  0.000000e+000 -9.238793e-001  3.826840e-001
    outer loop
      vertex  0.000000e+000  1.606066e+001 -1.060660e+000
      vertex  1.800000e+000  1.650000e+001  0.000000e+000
      vertex  0.000000e+000  1.650000e+001  0.000000e+000
    endloop
  endfacet
  facet normal  0.000000e+000 -3.826837e-001  9.238794e-001
    outer loop
      vertex  1.800000e+000  1.606066e+001 -1.060660e+000
      vertex  0.000000e+000  1.500000e+001 -1.500000e+000
      vertex  1.800000e+000  1.500000e+001 -1.500000e+000
    endloop
  endfacet
  facet normal  0.000000e+000  3.826834e-001  9.238796e-001
    outer loop
      vertex  1.800000e+000  1.500000e+001 -1.500000e+000
      vertex  0.000000e+000  1.500000e+001 -1.500000e+000
      vertex  0.000000e+000  1.393934e+001 -1.060660e+000
    endloop
  endfacet
  facet normal  -0.000000e+000  3.826834e-001  9.238796e-001
    outer loop
      vertex  1.800000e+000  1.500000e+001 -1.500000e+000
      vertex  0.000000e+000  1.393934e+001 -1.060660e+000
      vertex  1.800000e+000  1.393934e+001 -1.060660e+000
    endloop
  endfacet
  facet normal  0.000000e+000  9.238796e-001  3.826833e-001
    outer loop
      vertex  1.800000e+000  1.393934e+001 -1.060660e+000
      vertex  0.000000e+000  1.393934e+001 -1.060660e+000
      vertex  0.000000e+000  1.350000e+001  1.836970e-016
    endloop
  endfacet
  facet normal  -0.000000e+000  9.238796e-001  3.826833e-001
    outer loop
      vertex  1.800000e+000  1.393934e+001 -1.060660e+000
      vertex  0.000000e+000  1.350000e+001  1.836970e-016
      vertex  1.800000e+000  1.350000e+001  1.836970e-016
    endloop
  endfacet
  facet normal  0.000000e+000  3.826834e-001 -9.238796e-001
    outer loop
      vertex  5.200000e+000  1.500000e+001  1.500000e+000
      vertex  7.000000e+000  1.393934e+001  1.060660e+000
      vertex  5.200000e+000  1.393934e+001  1.060660e+000
    endloop
  endfacet
  facet normal  0.000000e+000  9.238796e-001 -3.826833e-001
    outer loop
      vertex  5.200000e+000  1.393934e+001  1.060660e+000
      vertex  7.000000e+000  1.393934e+001  1.060660e+000
      vertex  7.000000e+000  1.350000e+001  1.836970e-016
    endloop
  endfacet
  facet normal  0.000000e+000  9.238796e-001 -3.826833e-001
    outer loop
      vertex  5.200000e+000  1.393934e+001  1.060660e+000
      vertex  7.000000e+000  1.350000e+001  1.836970e-016
      vertex  5.200000e+000  1.350000e+001  1.836970e-016
    endloop
  endfacet
  facet normal  0.000000e+000  3.826834e-001 -9.238796e-001
    outer loop
      vertex  7.000000e+000  1.393934e+001  1.060660e+000
      vertex  5.200000e+000  1.500000e+001  1.500000e+000
      vertex  7.000000e+000  1.500000e+001  1.500000e+000
    endloop
  endfacet
  facet normal  -0.000000e+000 -3.826837e-001 -9.238794e-001
    outer loop
      vertex  7.000000e+000  1.500000e+001  1.500000e+000
      vertex  5.200000e+000  1.500000e+001  1.500000e+000
      vertex  5.200000e+000  1.606066e+001  1.060660e+000
    endloop
  endfacet
  facet normal  0.000000e+000 -3.826837e-001 -9.238794e-001
    outer loop
      vertex  7.000000e+000  1.500000e+001  1.500000e+000
      vertex  5.200000e+000  1.606066e+001  1.060660e+000
      vertex  7.000000e+000  1.606066e+001  1.060660e+000
    endloop
  endfacet
  facet normal  -0.000000e+000 -9.238793e-001 -3.826840e-001
    outer loop
      vertex  7.000000e+000  1.606066e+001  1.060660e+000
      vertex  5.200000e+000  1.606066e+001  1.060660e+000
      vertex  5.200000e+000  1.650000e+001  0.000000e+000
    endloop
  endfacet
  facet normal  0.000000e+000 -9.238793e-001 -3.826840e-001
    outer loop
      vertex  7.000000e+000  1.606066e+001  1.060660e+000
      vertex  5.200000e+000  1.650000e+001  0.000000e+000
      vertex  7.000000e+000  1.650000e+001  0.000000e+000
    endloop
  endfacet
  facet normal  0.000000e+000  3.826834e-001 -9.238796e-001
    outer loop
      vertex  0.000000e+000  1.500000e+001  1.500000e+000
      vertex  1.800000e+000  1.393934e+001  1.060660e+000
      vertex  0.000000e+000  1.393934e+001  1.060660e+000
    endloop
  endfacet
  facet normal  0.000000e+000  9.238796e-001 -3.826833e-001
    outer loop
      vertex  0.000000e+000  1.393934e+001  1.060660e+000
      vertex  1.800000e+000  1.393934e+001  1.060660e+000
      vertex  1.800000e+000  1.350000e+001  1.836970e-016
    endloop
  endfacet
  facet normal  0.000000e+000  9.238796e-001 -3.826833e-001
    outer loop
      vertex  0.000000e+000  1.393934e+001  1.060660e+000
      vertex  1.800000e+000  1.350000e+001  1.836970e-016
      vertex  0.000000e+000  1.350000e+001  1.836970e-016
    endloop
  endfacet
  facet normal  0.000000e+000  3.826834e-001 -9.238796e-001
    outer loop
      vertex  1.800000e+000  1.393934e+001  1.060660e+000
      vertex  0.000000e+000  1.500000e+001  1.500000e+000
      vertex  1.800000e+000  1.500000e+001  1.500000e+000
    endloop
  endfacet
  facet normal  -0.000000e+000 -3.826837e-001 -9.238794e-001
    outer loop
      vertex  1.800000e+000  1.500000e+001  1.500000e+000
      vertex  0.000000e+000  1.500000e+001  1.500000e+000
      vertex  0.000000e+000  1.606066e+001  1.060660e+000
    endloop
  endfacet
  facet normal  0.000000e+000 -3.826837e-001 -9.238794e-001
    outer loop
      vertex  1.800000e+000  1.500000e+001  1.500000e+000
      vertex  0.000000e+000  1.606066e+001  1.060660e+000
      vertex  1.800000e+000  1.606066e+001  1.060660e+000
    endloop
  endfacet
  facet normal  -0.000000e+000 -9.238793e-001 -3.826840e-001
    outer loop
      vertex  1.800000e+000  1.606066e+001  1.060660e+000
      vertex  0.000000e+000  1.606066e+001  1.060660e+000
      vertex  0.000000e+000  1.650000e+001  0.000000e+000
    endloop
  endfacet
  facet normal  0.000000e+000 -9.238793e-001 -3.826840e-001
    outer loop
      vertex  1.800000e+000  1.606066e+001  1.060660e+000
      vertex  0.000000e+000  1.650000e+001  0.000000e+000
      vertex  1.800000e+000  1.650000e+001  0.000000e+000
    endloop
  endfacet
  facet normal  1.000000e+000  0.000000e+000  0.000000e+000
    outer loop
      vertex  1.800000e+000 -1.650000e+001  1.836970e-016
      vertex  1.800000e+000 -1.606066e+001  1.060660e+000
      vertex  1.800000e+000 -1.676777e+001  1.767767e+000
    endloop
  endfacet
  facet normal  1.000000e+000  0.000000e+000  0.000000e+000
    outer loop
      vertex  1.800000e+000 -1.650000e+001  1.836970e-016
      vertex  1.800000e+000 -1.676777e+001  1.767767e+000
      vertex  1.800000e+000 -1.750000e+001  4.440892e-016
    endloop
  endfacet
  facet normal  1.000000e+000  0.000000e+000  0.000000e+000
    outer loop
      vertex  1.800000e+000 -1.650000e+001  1.836970e-016
      vertex  1.800000e+000 -1.750000e+001  4.440892e-016
      vertex  1.800000e+000 -1.676777e+001 -1.767767e+000
    endloop
  endfacet
  facet normal  1.000000e+000  0.000000e+000  0.000000e+000
    outer loop
      vertex  1.800000e+000 -1.650000e+001  1.836970e-016
      vertex  1.800000e+000 -1.676777e+001 -1.767767e+000
      vertex  1.800000e+000 -1.606066e+001 -1.060660e+000
    endloop
  endfacet
  facet normal  1.000000e+000  -0.000000e+000  0.000000e+000
    outer loop
      vertex  1.800000e+000 -1.250000e+001  2.500000e+000
      vertex  1.800000e+000 -1.500000e+001  2.500000e+000
      vertex  1.800000e+000 -1.500000e+001  1.500000e+000
    endloop
  endfacet
  facet normal  1.000000e+000  -0.000000e+000  0.000000e+000
    outer loop
      vertex  1.800000e+000 -1.250000e+001  2.500000e+000
      vertex  1.800000e+000 -1.500000e+001  1.500000e+000
      vertex  1.800000e+000 -1.393934e+001  1.060660e+000
    endloop
  endfacet
  facet normal  1.000000e+000  -0.000000e+000  0.000000e+000
    outer loop
      vertex  1.800000e+000 -1.250000e+001  2.500000e+000
      vertex  1.800000e+000 -1.393934e+001  1.060660e+000
      vertex  1.800000e+000 -1.350000e+001  0.000000e+000
    endloop
  endfacet
  facet normal  1.000000e+000  0.000000e+000  0.000000e+000
    outer loop
      vertex  1.800000e+000 -1.250000e+001  2.500000e+000
      vertex  1.800000e+000 -1.350000e+001  0.000000e+000
      vertex  1.800000e+000 -1.050000e+001  2.500000e+000
    endloop
  endfacet
  facet normal  1.000000e+000  0.000000e+000  -0.000000e+000
    outer loop
      vertex  1.800000e+000 -1.250000e+001 -2.500000e+000
      vertex  1.800000e+000 -1.050000e+001 -2.500000e+000
      vertex  1.800000e+000 -1.050000e+001  2.500000e+000
    endloop
  endfacet
  facet normal  1.000000e+000  0.000000e+000  0.000000e+000
    outer loop
      vertex  1.800000e+000 -1.250000e+001 -2.500000e+000
      vertex  1.800000e+000 -1.050000e+001  2.500000e+000
      vertex  1.800000e+000 -1.350000e+001  0.000000e+000
    endloop
  endfacet
  facet normal  1.000000e+000  0.000000e+000  0.000000e+000
    outer loop
      vertex  1.800000e+000 -1.250000e+001 -2.500000e+000
      vertex  1.800000e+000 -1.350000e+001  0.000000e+000
      vertex  1.800000e+000 -1.393934e+001 -1.060660e+000
    endloop
  endfacet
  facet normal  1.000000e+000  0.000000e+000  0.000000e+000
    outer loop
      vertex  1.800000e+000 -1.250000e+001 -2.500000e+000
      vertex  1.800000e+000 -1.393934e+001 -1.060660e+000
      vertex  1.800000e+000 -1.500000e+001 -1.500000e+000
    endloop
  endfacet
  facet normal  1.000000e+000  0.000000e+000  0.000000e+000
    outer loop
      vertex  1.800000e+000 -1.250000e+001 -2.500000e+000
      vertex  1.800000e+000 -1.500000e+001 -1.500000e+000
      vertex  1.800000e+000 -1.500000e+001 -2.500000e+000
    endloop
  endfacet
  facet normal  1.000000e+000  0.000000e+000  0.000000e+000
    outer loop
      vertex  1.800000e+000 -1.500000e+001  1.500000e+000
      vertex  1.800000e+000 -1.500000e+001  2.500000e+000
      vertex  1.800000e+000 -1.606066e+001  1.060660e+000
    endloop
  endfacet
  facet normal  9.999999e-001  0.000000e+000  -0.000000e+000
    outer loop
      vertex  1.800000e+000 -1.606066e+001  1.060660e+000
      vertex  1.800000e+000 -1.500000e+001  2.500000e+000
      vertex  1.800000e+000 -1.676777e+001  1.767767e+000
    endloop
  endfacet
  facet normal  1.000000e+000  0.000000e+000  0.000000e+000
    outer loop
      vertex  1.800000e+000 -1.500000e+001 -1.500000e+000
      vertex  1.800000e+000 -1.606066e+001 -1.060660e+000
      vertex  1.800000e+000 -1.500000e+001 -2.500000e+000
    endloop
  endfacet
  facet normal  1.000000e+000  0.000000e+000  0.000000e+000
    outer loop
      vertex  1.800000e+000 -1.500000e+001 -2.500000e+000
      vertex  1.800000e+000 -1.606066e+001 -1.060660e+000
      vertex  1.800000e+000 -1.676777e+001 -1.767767e+000
    endloop
  endfacet
  facet normal -1.000000e+000  -0.000000e+000  0.000000e+000
    outer loop
      vertex  5.200000e+000 -1.650000e+001  1.836970e-016
      vertex  5.200000e+000 -1.606066e+001 -1.060660e+000
      vertex  5.200000e+000 -1.676777e+001 -1.767767e+000
    endloop
  endfacet
  facet normal -1.000000e+000  0.000000e+000  0.000000e+000
    outer loop
      vertex  5.200000e+000 -1.650000e+001  1.836970e-016
      vertex  5.200000e+000 -1.676777e+001 -1.767767e+000
      vertex  5.200000e+000 -1.750000e+001 -4.440892e-016
    endloop
  endfacet
  facet normal -1.000000e+000  0.000000e+000  0.000000e+000
    outer loop
      vertex  5.200000e+000 -1.650000e+001  1.836970e-016
      vertex  5.200000e+000 -1.750000e+001 -4.440892e-016
      vertex  5.200000e+000 -1.676777e+001  1.767767e+000
    endloop
  endfacet
  facet normal -1.000000e+000  0.000000e+000  0.000000e+000
    outer loop
      vertex  5.200000e+000 -1.650000e+001  1.836970e-016
      vertex  5.200000e+000 -1.676777e+001  1.767767e+000
      vertex  5.200000e+000 -1.606066e+001  1.060660e+000
    endloop
  endfacet
  facet normal -1.000000e+000  -0.000000e+000  0.000000e+000
    outer loop
      vertex  5.200000e+000 -1.250000e+001  2.500000e+000
      vertex  5.200000e+000 -1.050000e+001  2.500000e+000
      vertex  5.200000e+000 -1.350000e+001  0.000000e+000
    endloop
  endfacet
  facet normal -1.000000e+000  0.000000e+000  0.000000e+000
    outer loop
      vertex  5.200000e+000 -1.250000e+001  2.500000e+000
      vertex  5.200000e+000 -1.350000e+001  0.000000e+000
      vertex  5.200000e+000 -1.393934e+001  1.060660e+000
    endloop
  endfacet
  facet normal -1.000000e+000  0.000000e+000  0.000000e+000
    outer loop
      vertex  5.200000e+000 -1.250000e+001  2.500000e+000
      vertex  5.200000e+000 -1.393934e+001  1.060660e+000
      vertex  5.200000e+000 -1.500000e+001  1.500000e+000
    endloop
  endfacet
  facet normal -1.000000e+000  0.000000e+000  0.000000e+000
    outer loop
      vertex  5.200000e+000 -1.250000e+001  2.500000e+000
      vertex  5.200000e+000 -1.500000e+001  1.500000e+000
      vertex  5.200000e+000 -1.500000e+001  2.500000e+000
    endloop
  endfacet
  facet normal -1.000000e+000  0.000000e+000  0.000000e+000
    outer loop
      vertex  5.200000e+000 -1.050000e+001  2.500000e+000
      vertex  5.200000e+000 -1.050000e+001 -2.500000e+000
      vertex  5.200000e+000 -1.350000e+001  0.000000e+000
    endloop
  endfacet
  facet normal -1.000000e+000  0.000000e+000  0.000000e+000
    outer loop
      vertex  5.200000e+000 -1.350000e+001  0.000000e+000
      vertex  5.200000e+000 -1.050000e+001 -2.500000e+000
      vertex  5.200000e+000 -1.250000e+001 -2.500000e+000
    endloop
  endfacet
  facet normal -1.000000e+000  0.000000e+000  0.000000e+000
    outer loop
      vertex  5.200000e+000 -1.350000e+001  0.000000e+000
      vertex  5.200000e+000 -1.250000e+001 -2.500000e+000
      vertex  5.200000e+000 -1.393934e+001 -1.060660e+000
    endloop
  endfacet
  facet normal -1.000000e+000  0.000000e+000  0.000000e+000
    outer loop
      vertex  5.200000e+000 -1.606066e+001  1.060660e+000
      vertex  5.200000e+000 -1.676777e+001  1.767767e+000
      vertex  5.200000e+000 -1.500000e+001  1.500000e+000
    endloop
  endfacet
  facet normal -1.000000e+000  0.000000e+000  0.000000e+000
    outer loop
      vertex  5.200000e+000 -1.500000e+001  1.500000e+000
      vertex  5.200000e+000 -1.676777e+001  1.767767e+000
      vertex  5.200000e+000 -1.500000e+001  2.500000e+000
    endloop
  endfacet
  facet normal -9.999999e-001  0.000000e+000  -0.000000e+000
    outer loop
      vertex  5.200000e+000 -1.676777e+001 -1.767767e+000
      vertex  5.200000e+000 -1.606066e+001 -1.060660e+000
      vertex  5.200000e+000 -1.500000e+001 -2.500000e+000
    endloop
  endfacet
  facet normal -1.000000e+000  0.000000e+000  0.000000e+000
    outer loop
      vertex  5.200000e+000 -1.500000e+001 -2.500000e+000
      vertex  5.200000e+000 -1.606066e+001 -1.060660e+000
      vertex  5.200000e+000 -1.500000e+001 -1.500000e+000
    endloop
  endfacet
  facet normal -1.000000e+000  0.000000e+000  0.000000e+000
    outer loop
      vertex  5.200000e+000 -1.500000e+001 -2.500000e+000
      vertex  5.200000e+000 -1.500000e+001 -1.500000e+000
      vertex  5.200000e+000 -1.250000e+001 -2.500000e+000
    endloop
  endfacet
  facet normal -1.000000e+000  0.000000e+000  0.000000e+000
    outer loop
      vertex  5.200000e+000 -1.250000e+001 -2.500000e+000
      vertex  5.200000e+000 -1.500000e+001 -1.500000e+000
      vertex  5.200000e+000 -1.393934e+001 -1.060660e+000
    endloop
  endfacet
  facet normal  0.000000e+000 -1.000000e+000  0.000000e+000
    outer loop
      vertex  1.800000e+000 -1.050000e+001  2.500000e+000
      vertex  1.800000e+000 -1.050000e+001 -2.500000e+000
      vertex  5.200000e+000 -1.050000e+001  2.500000e+000
    endloop
  endfacet
  facet normal  0.000000e+000 -1.000000e+000  -0.000000e+000
    outer loop
      vertex  5.200000e+000 -1.050000e+001  2.500000e+000
      vertex  1.800000e+000 -1.050000e+001 -2.500000e+000
      vertex  5.200000e+000 -1.050000e+001 -2.500000e+000
    endloop
  endfacet
  facet normal  1.000000e+000  0.000000e+000  -0.000000e+000
    outer loop
      vertex  1.800000e+000  1.650000e+001  0.000000e+000
      vertex  1.800000e+000  1.676777e+001 -1.767767e+000
      vertex  1.800000e+000  1.750000e+001 -4.440892e-016
    endloop
  endfacet
  facet normal  1.000000e+000  0.000000e+000  0.000000e+000
    outer loop
      vertex  1.800000e+000  1.650000e+001  0.000000e+000
      vertex  1.800000e+000  1.750000e+001 -4.440892e-016
      vertex  1.800000e+000  1.676777e+001  1.767767e+000
    endloop
  endfacet
  facet normal  1.000000e+000  0.000000e+000  0.000000e+000
    outer loop
      vertex  1.800000e+000  1.650000e+001  0.000000e+000
      vertex  1.800000e+000  1.676777e+001  1.767767e+000
      vertex  1.800000e+000  1.606066e+001  1.060660e+000
    endloop
  endfacet
  facet normal  1.000000e+000  -0.000000e+000  0.000000e+000
    outer loop
      vertex  1.800000e+000  1.250000e+001  2.500000e+000
      vertex  1.800000e+000  1.050000e+001  2.500000e+000
      vertex  1.800000e+000  1.350000e+001  1.836970e-016
    endloop
  endfacet
  facet normal  1.000000e+000  0.000000e+000  -0.000000e+000
    outer loop
      vertex  1.800000e+000  1.250000e+001  2.500000e+000
      vertex  1.800000e+000  1.350000e+001  1.836970e-016
      vertex  1.800000e+000  1.393934e+001  1.060660e+000
    endloop
  endfacet
  facet normal  1.000000e+000  0.000000e+000  -0.000000e+000
    outer loop
      vertex  1.800000e+000  1.250000e+001  2.500000e+000
      vertex  1.800000e+000  1.393934e+001  1.060660e+000
      vertex  1.800000e+000  1.500000e+001  1.500000e+000
    endloop
  endfacet
  facet normal  1.000000e+000  0.000000e+000  -0.000000e+000
    outer loop
      vertex  1.800000e+000  1.250000e+001  2.500000e+000
      vertex  1.800000e+000  1.500000e+001  1.500000e+000
      vertex  1.800000e+000  1.500000e+001  2.500000e+000
    endloop
  endfacet
  facet normal  1.000000e+000  0.000000e+000  0.000000e+000
    outer loop
      vertex  1.800000e+000  1.676777e+001 -1.767767e+000
      vertex  1.800000e+000  1.650000e+001  0.000000e+000
      vertex  1.800000e+000  1.606066e+001 -1.060660e+000
    endloop
  endfacet
  facet normal  1.000000e+000  0.000000e+000  0.000000e+000
    outer loop
      vertex  1.800000e+000  1.676777e+001 -1.767767e+000
      vertex  1.800000e+000  1.606066e+001 -1.060660e+000
      vertex  1.800000e+000  1.500000e+001 -1.500000e+000
    endloop
  endfacet
  facet normal  1.000000e+000  0.000000e+000  0.000000e+000
    outer loop
      vertex  1.800000e+000  1.676777e+001 -1.767767e+000
      vertex  1.800000e+000  1.500000e+001 -1.500000e+000
      vertex  1.800000e+000  1.500000e+001 -2.500000e+000
    endloop
  endfacet
  facet normal  1.000000e+000  0.000000e+000  0.000000e+000
    outer loop
      vertex  1.800000e+000  1.050000e+001  2.500000e+000
      vertex  1.800000e+000  1.050000e+001 -2.500000e+000
      vertex  1.800000e+000  1.350000e+001  1.836970e-016
    endloop
  endfacet
  facet normal  1.000000e+000  0.000000e+000  0.000000e+000
    outer loop
      vertex  1.800000e+000  1.350000e+001  1.836970e-016
      vertex  1.800000e+000  1.050000e+001 -2.500000e+000
      vertex  1.800000e+000  1.250000e+001 -2.500000e+000
    endloop
  endfacet
  facet normal  1.000000e+000  0.000000e+000  0.000000e+000
    outer loop
      vertex  1.800000e+000  1.350000e+001  1.836970e-016
      vertex  1.800000e+000  1.250000e+001 -2.500000e+000
      vertex  1.800000e+000  1.393934e+001 -1.060660e+000
    endloop
  endfacet
  facet normal  1.000000e+000  0.000000e+000  0.000000e+000
    outer loop
      vertex  1.800000e+000  1.606066e+001  1.060660e+000
      vertex  1.800000e+000  1.676777e+001  1.767767e+000
      vertex  1.800000e+000  1.500000e+001  1.500000e+000
    endloop
  endfacet
  facet normal  1.000000e+000  0.000000e+000  0.000000e+000
    outer loop
      vertex  1.800000e+000  1.500000e+001  1.500000e+000
      vertex  1.800000e+000  1.676777e+001  1.767767e+000
      vertex  1.800000e+000  1.500000e+001  2.500000e+000
    endloop
  endfacet
  facet normal  1.000000e+000  0.000000e+000  0.000000e+000
    outer loop
      vertex  1.800000e+000  1.500000e+001 -1.500000e+000
      vertex  1.800000e+000  1.393934e+001 -1.060660e+000
      vertex  1.800000e+000  1.500000e+001 -2.500000e+000
    endloop
  endfacet
  facet normal  1.000000e+000  0.000000e+000  0.000000e+000
    outer loop
      vertex  1.800000e+000  1.500000e+001 -2.500000e+000
      vertex  1.800000e+000  1.393934e+001 -1.060660e+000
      vertex  1.800000e+000  1.250000e+001 -2.500000e+000
    endloop
  endfacet
  facet normal  0.000000e+000  1.000000e+000  -0.000000e+000
    outer loop
      vertex  5.200000e+000  1.050000e+001  2.500000e+000
      vertex  5.200000e+000  1.050000e+001 -2.500000e+000
      vertex  1.800000e+000  1.050000e+001  2.500000e+000
    endloop
  endfacet
  facet normal  0.000000e+000  1.000000e+000  0.000000e+000
    outer loop
      vertex  1.800000e+000  1.050000e+001  2.500000e+000
      vertex  5.200000e+000  1.050000e+001 -2.500000e+000
      vertex  1.800000e+000  1.050000e+001 -2.500000e+000
    endloop
  endfacet
  facet normal -1.000000e+000  0.000000e+000  0.000000e+000
    outer loop
      vertex  5.200000e+000  1.650000e+001  0.000000e+000
      vertex  5.200000e+000  1.606066e+001  1.060660e+000
      vertex  5.200000e+000  1.676777e+001  1.767767e+000
    endloop
  endfacet
  facet normal -1.000000e+000  0.000000e+000  -0.000000e+000
    outer loop
      vertex  5.200000e+000  1.650000e+001  0.000000e+000
      vertex  5.200000e+000  1.676777e+001  1.767767e+000
      vertex  5.200000e+000  1.750000e+001  4.440892e-016
    endloop
  endfacet
  facet normal -1.000000e+000  0.000000e+000  0.000000e+000
    outer loop
      vertex  5.200000e+000  1.650000e+001  0.000000e+000
      vertex  5.200000e+000  1.750000e+001  4.440892e-016
      vertex  5.200000e+000  1.676777e+001 -1.767767e+000
    endloop
  endfacet
  facet normal -1.000000e+000  0.000000e+000  0.000000e+000
    outer loop
      vertex  5.200000e+000  1.650000e+001  0.000000e+000
      vertex  5.200000e+000  1.676777e+001 -1.767767e+000
      vertex  5.200000e+000  1.606066e+001 -1.060660e+000
    endloop
  endfacet
  facet normal -1.000000e+000  -0.000000e+000  -0.000000e+000
    outer loop
      vertex  5.200000e+000  1.250000e+001  2.500000e+000
      vertex  5.200000e+000  1.500000e+001  2.500000e+000
      vertex  5.200000e+000  1.500000e+001  1.500000e+000
    endloop
  endfacet
  facet normal -1.000000e+000  -0.000000e+000  0.000000e+000
    outer loop
      vertex  5.200000e+000  1.250000e+001  2.500000e+000
      vertex  5.200000e+000  1.500000e+001  1.500000e+000
      vertex  5.200000e+000  1.393934e+001  1.060660e+000
    endloop
  endfacet
  facet normal -1.000000e+000  -0.000000e+000  0.000000e+000
    outer loop
      vertex  5.200000e+000  1.250000e+001  2.500000e+000
      vertex  5.200000e+000  1.393934e+001  1.060660e+000
      vertex  5.200000e+000  1.350000e+001  1.836970e-016
    endloop
  endfacet
  facet normal -1.000000e+000  0.000000e+000  0.000000e+000
    outer loop
      vertex  5.200000e+000  1.250000e+001  2.500000e+000
      vertex  5.200000e+000  1.350000e+001  1.836970e-016
      vertex  5.200000e+000  1.050000e+001  2.500000e+000
    endloop
  endfacet
  facet normal -1.000000e+000  0.000000e+000  0.000000e+000
    outer loop
      vertex  5.200000e+000  1.050000e+001 -2.500000e+000
      vertex  5.200000e+000  1.050000e+001  2.500000e+000
      vertex  5.200000e+000  1.250000e+001 -2.500000e+000
    endloop
  endfacet
  facet normal -1.000000e+000  0.000000e+000  0.000000e+000
    outer loop
      vertex  5.200000e+000  1.250000e+001 -2.500000e+000
      vertex  5.200000e+000  1.050000e+001  2.500000e+000
      vertex  5.200000e+000  1.350000e+001  1.836970e-016
    endloop
  endfacet
  facet normal -1.000000e+000  0.000000e+000  -0.000000e+000
    outer loop
      vertex  5.200000e+000  1.250000e+001 -2.500000e+000
      vertex  5.200000e+000  1.350000e+001  1.836970e-016
      vertex  5.200000e+000  1.393934e+001 -1.060660e+000
    endloop
  endfacet
  facet normal -1.000000e+000  0.000000e+000  0.000000e+000
    outer loop
      vertex  5.200000e+000  1.500000e+001  1.500000e+000
      vertex  5.200000e+000  1.500000e+001  2.500000e+000
      vertex  5.200000e+000  1.606066e+001  1.060660e+000
    endloop
  endfacet
  facet normal -9.999999e-001  0.000000e+000  0.000000e+000
    outer loop
      vertex  5.200000e+000  1.606066e+001  1.060660e+000
      vertex  5.200000e+000  1.500000e+001  2.500000e+000
      vertex  5.200000e+000  1.676777e+001  1.767767e+000
    endloop
  endfacet
  facet normal -1.000000e+000  0.000000e+000  -0.000000e+000
    outer loop
      vertex  5.200000e+000  1.250000e+001 -2.500000e+000
      vertex  5.200000e+000  1.393934e+001 -1.060660e+000
      vertex  5.200000e+000  1.500000e+001 -2.500000e+000
    endloop
  endfacet
  facet normal -1.000000e+000  0.000000e+000  0.000000e+000
    outer loop
      vertex  5.200000e+000  1.500000e+001 -2.500000e+000
      vertex  5.200000e+000  1.393934e+001 -1.060660e+000
      vertex  5.200000e+000  1.500000e+001 -1.500000e+000
    endloop
  endfacet
  facet normal -1.000000e+000  0.000000e+000  0.000000e+000
    outer loop
      vertex  5.200000e+000  1.500000e+001 -2.500000e+000
      vertex  5.200000e+000  1.500000e+001 -1.500000e+000
      vertex  5.200000e+000  1.676777e+001 -1.767767e+000
    endloop
  endfacet
  facet normal -1.000000e+000  0.000000e+000  0.000000e+000
    outer loop
      vertex  5.200000e+000  1.676777e+001 -1.767767e+000
      vertex  5.200000e+000  1.500000e+001 -1.500000e+000
      vertex  5.200000e+000  1.606066e+001 -1.060660e+000
    endloop
  endfacet
  facet normal  1.000000e+000  0.000000e+000  -0.000000e+000
    outer loop
      vertex  7.000000e+000 -1.676777e+001 -1.767767e+000
      vertex  7.000000e+000 -1.500000e+001 -2.500000e+000
      vertex  7.000000e+000  1.500000e+001 -1.500000e+000
    endloop
  endfacet
  facet normal  1.000000e+000  0.000000e+000  0.000000e+000
    outer loop
      vertex  7.000000e+000 -1.676777e+001 -1.767767e+000
      vertex  7.000000e+000  1.500000e+001 -1.500000e+000
      vertex  7.000000e+000 -1.500000e+001 -1.500000e+000
    endloop
  endfacet
  facet normal  1.000000e+000  0.000000e+000  0.000000e+000
    outer loop
      vertex  7.000000e+000 -1.676777e+001 -1.767767e+000
      vertex  7.000000e+000 -1.500000e+001 -1.500000e+000
      vertex  7.000000e+000 -1.606066e+001 -1.060660e+000
    endloop
  endfacet
  facet normal  1.000000e+000  0.000000e+000  0.000000e+000
    outer loop
      vertex  7.000000e+000 -1.676777e+001 -1.767767e+000
      vertex  7.000000e+000 -1.606066e+001 -1.060660e+000
      vertex  7.000000e+000 -1.650000e+001  1.836970e-016
    endloop
  endfacet
  facet normal  1.000000e+000  0.000000e+000  0.000000e+000
    outer loop
      vertex  7.000000e+000 -1.676777e+001 -1.767767e+000
      vertex  7.000000e+000 -1.650000e+001  1.836970e-016
      vertex  7.000000e+000 -1.750000e+001  3.061617e-016
    endloop
  endfacet
  facet normal  9.999999e-001  0.000000e+000  -0.000000e+000
    outer loop
      vertex  7.000000e+000 -1.500000e+001  1.500000e+000
      vertex  7.000000e+000 -1.393934e+001  1.060660e+000
      vertex  7.000000e+000  1.393934e+001  1.060660e+000
    endloop
  endfacet
  facet normal  1.000000e+000  0.000000e+000  -0.000000e+000
    outer loop
      vertex  7.000000e+000 -1.500000e+001  1.500000e+000
      vertex  7.000000e+000  1.393934e+001  1.060660e+000
      vertex  7.000000e+000  1.500000e+001  1.500000e+000
    endloop
  endfacet
  facet normal  1.000000e+000  0.000000e+000  -0.000000e+000
    outer loop
      vertex  7.000000e+000 -1.500000e+001  1.500000e+000
      vertex  7.000000e+000  1.500000e+001  1.500000e+000
      vertex  7.000000e+000  1.676777e+001  1.767767e+000
    endloop
  endfacet
  facet normal  1.000000e+000  0.000000e+000  0.000000e+000
    outer loop
      vertex  7.000000e+000 -1.500000e+001  1.500000e+000
      vertex  7.000000e+000  1.676777e+001  1.767767e+000
      vertex  7.000000e+000  1.500000e+001  2.500000e+000
    endloop
  endfacet
  facet normal  1.000000e+000  0.000000e+000  0.000000e+000
    outer loop
      vertex  7.000000e+000 -1.500000e+001  1.500000e+000
      vertex  7.000000e+000  1.500000e+001  2.500000e+000
      vertex  7.000000e+000  1.250000e+001  2.500000e+000
    endloop
  endfacet
  facet normal  1.000000e+000  0.000000e+000  0.000000e+000
    outer loop
      vertex  7.000000e+000 -1.500000e+001  1.500000e+000
      vertex  7.000000e+000  1.250000e+001  2.500000e+000
      vertex  7.000000e+000 -1.250000e+001  2.500000e+000
    endloop
  endfacet
  facet normal  1.000000e+000  0.000000e+000  0.000000e+000
    outer loop
      vertex  7.000000e+000 -1.500000e+001  1.500000e+000
      vertex  7.000000e+000 -1.250000e+001  2.500000e+000
      vertex  7.000000e+000 -1.500000e+001  2.500000e+000
    endloop
  endfacet
  facet normal  1.000000e+000  0.000000e+000  0.000000e+000
    outer loop
      vertex  7.000000e+000 -1.500000e+001  1.500000e+000
      vertex  7.000000e+000 -1.500000e+001  2.500000e+000
      vertex  7.000000e+000 -1.676777e+001  1.767767e+000
    endloop
  endfacet
  facet normal  1.000000e+000  0.000000e+000  0.000000e+000
    outer loop
      vertex  7.000000e+000 -1.500000e+001  1.500000e+000
      vertex  7.000000e+000 -1.676777e+001  1.767767e+000
      vertex  7.000000e+000 -1.606066e+001  1.060660e+000
    endloop
  endfacet
  facet normal  1.000000e+000  0.000000e+000  0.000000e+000
    outer loop
      vertex  7.000000e+000  1.500000e+001 -1.500000e+000
      vertex  7.000000e+000 -1.500000e+001 -2.500000e+000
      vertex  7.000000e+000 -1.250000e+001 -2.500000e+000
    endloop
  endfacet
  facet normal  1.000000e+000  0.000000e+000  0.000000e+000
    outer loop
      vertex  7.000000e+000  1.500000e+001 -1.500000e+000
      vertex  7.000000e+000 -1.250000e+001 -2.500000e+000
      vertex  7.000000e+000  1.250000e+001 -2.500000e+000
    endloop
  endfacet
  facet normal  1.000000e+000  0.000000e+000  0.000000e+000
    outer loop
      vertex  7.000000e+000  1.500000e+001 -1.500000e+000
      vertex  7.000000e+000  1.250000e+001 -2.500000e+000
      vertex  7.000000e+000  1.500000e+001 -2.500000e+000
    endloop
  endfacet
  facet normal  1.000000e+000  0.000000e+000  0.000000e+000
    outer loop
      vertex  7.000000e+000  1.500000e+001 -1.500000e+000
      vertex  7.000000e+000  1.500000e+001 -2.500000e+000
      vertex  7.000000e+000  1.676777e+001 -1.767767e+000
    endloop
  endfacet
  facet normal  1.000000e+000  0.000000e+000  0.000000e+000
    outer loop
      vertex  7.000000e+000  1.500000e+001 -1.500000e+000
      vertex  7.000000e+000  1.676777e+001 -1.767767e+000
      vertex  7.000000e+000  1.606066e+001 -1.060660e+000
    endloop
  endfacet
  facet normal  1.000000e+000  0.000000e+000  0.000000e+000
    outer loop
      vertex  7.000000e+000 -1.650000e+001  1.836970e-016
      vertex  7.000000e+000 -1.606066e+001  1.060660e+000
      vertex  7.000000e+000 -1.750000e+001  3.061617e-016
    endloop
  endfacet
  facet normal  1.000000e+000  0.000000e+000  0.000000e+000
    outer loop
      vertex  7.000000e+000 -1.750000e+001  3.061617e-016
      vertex  7.000000e+000 -1.606066e+001  1.060660e+000
      vertex  7.000000e+000 -1.676777e+001  1.767767e+000
    endloop
  endfacet
  facet normal  9.999999e-001  -0.000000e+000  0.000000e+000
    outer loop
      vertex  7.000000e+000  1.393934e+001  1.060660e+000
      vertex  7.000000e+000 -1.393934e+001  1.060660e+000
      vertex  7.000000e+000  1.350000e+001  1.836970e-016
    endloop
  endfacet
  facet normal  1.000000e+000  0.000000e+000  0.000000e+000
    outer loop
      vertex  7.000000e+000  1.350000e+001  1.836970e-016
      vertex  7.000000e+000 -1.393934e+001  1.060660e+000
      vertex  7.000000e+000 -1.350000e+001  0.000000e+000
    endloop
  endfacet
  facet normal  1.000000e+000  -0.000000e+000  0.000000e+000
    outer loop
      vertex  7.000000e+000  1.350000e+001  1.836970e-016
      vertex  7.000000e+000 -1.350000e+001  0.000000e+000
      vertex  7.000000e+000  1.393934e+001 -1.060660e+000
    endloop
  endfacet
  facet normal  9.999999e-001  0.000000e+000  0.000000e+000
    outer loop
      vertex  7.000000e+000  1.393934e+001 -1.060660e+000
      vertex  7.000000e+000 -1.350000e+001  0.000000e+000
      vertex  7.000000e+000 -1.393934e+001 -1.060660e+000
    endloop
  endfacet
  facet normal  9.999999e-001  -0.000000e+000  0.000000e+000
    outer loop
      vertex  7.000000e+000  1.393934e+001 -1.060660e+000
      vertex  7.000000e+000 -1.393934e+001 -1.060660e+000
      vertex  7.000000e+000  1.500000e+001 -1.500000e+000
    endloop
  endfacet
  facet normal  1.000000e+000  0.000000e+000  0.000000e+000
    outer loop
      vertex  7.000000e+000  1.500000e+001 -1.500000e+000
      vertex  7.000000e+000 -1.393934e+001 -1.060660e+000
      vertex  7.000000e+000 -1.500000e+001 -1.500000e+000
    endloop
  endfacet
  facet normal  1.000000e+000  0.000000e+000  0.000000e+000
    outer loop
      vertex  7.000000e+000  1.606066e+001 -1.060660e+000
      vertex  7.000000e+000  1.676777e+001 -1.767767e+000
      vertex  7.000000e+000  1.650000e+001  0.000000e+000
    endloop
  endfacet
  facet normal  1.000000e+000  0.000000e+000  0.000000e+000
    outer loop
      vertex  7.000000e+000  1.650000e+001  0.000000e+000
      vertex  7.000000e+000  1.676777e+001 -1.767767e+000
      vertex  7.000000e+000  1.750000e+001 -6.123234e-016
    endloop
  endfacet
  facet normal  1.000000e+000  0.000000e+000  0.000000e+000
    outer loop
      vertex  7.000000e+000  1.650000e+001  0.000000e+000
      vertex  7.000000e+000  1.750000e+001 -6.123234e-016
      vertex  7.000000e+000  1.606066e+001  1.060660e+000
    endloop
  endfacet
  facet normal  1.000000e+000  -0.000000e+000  0.000000e+000
    outer loop
      vertex  7.000000e+000  1.606066e+001  1.060660e+000
      vertex  7.000000e+000  1.750000e+001 -6.123234e-016
      vertex  7.000000e+000  1.676777e+001  1.767767e+000
    endloop
  endfacet
  facet normal  1.000000e+000  0.000000e+000  0.000000e+000
    outer loop
      vertex  7.000000e+000  1.606066e+001  1.060660e+000
      vertex  7.000000e+000  1.676777e+001  1.767767e+000
      vertex  7.000000e+000  1.500000e+001  1.500000e+000
    endloop
  endfacet
  facet normal -1.000000e+000  0.000000e+000  0.000000e+000
    outer loop
      vertex  0.000000e+000 -1.676777e+001 -1.767767e+000
      vertex  0.000000e+000 -1.750000e+001  3.061617e-016
      vertex  0.000000e+000 -1.650000e+001  1.836970e-016
    endloop
  endfacet
  facet normal -1.000000e+000  0.000000e+000  -0.000000e+000
    outer loop
      vertex  0.000000e+000 -1.676777e+001 -1.767767e+000
      vertex  0.000000e+000 -1.650000e+001  1.836970e-016
      vertex  0.000000e+000 -1.606066e+001 -1.060660e+000
    endloop
  endfacet
  facet normal -1.000000e+000  0.000000e+000  -0.000000e+000
    outer loop
      vertex  0.000000e+000 -1.676777e+001 -1.767767e+000
      vertex  0.000000e+000 -1.606066e+001 -1.060660e+000
      vertex  0.000000e+000 -1.500000e+001 -1.500000e+000
    endloop
  endfacet
  facet normal -1.000000e+000  0.000000e+000  -0.000000e+000
    outer loop
      vertex  0.000000e+000 -1.676777e+001 -1.767767e+000
      vertex  0.000000e+000 -1.500000e+001 -1.500000e+000
      vertex  0.000000e+000  1.500000e+001 -1.500000e+000
    endloop
  endfacet
  facet normal -1.000000e+000  0.000000e+000  0.000000e+000
    outer loop
      vertex  0.000000e+000 -1.676777e+001 -1.767767e+000
      vertex  0.000000e+000  1.500000e+001 -1.500000e+000
      vertex  0.000000e+000 -1.500000e+001 -2.500000e+000
    endloop
  endfacet
  facet normal -1.000000e+000  0.000000e+000  0.000000e+000
    outer loop
      vertex  0.000000e+000 -1.500000e+001  1.500000e+000
      vertex  0.000000e+000 -1.606066e+001  1.060660e+000
      vertex  0.000000e+000 -1.676777e+001  1.767767e+000
    endloop
  endfacet
  facet normal -1.000000e+000  0.000000e+000  0.000000e+000
    outer loop
      vertex  0.000000e+000 -1.500000e+001  1.500000e+000
      vertex  0.000000e+000 -1.676777e+001  1.767767e+000
      vertex  0.000000e+000 -1.500000e+001  2.500000e+000
    endloop
  endfacet
  facet normal -1.000000e+000  0.000000e+000  0.000000e+000
    outer loop
      vertex  0.000000e+000 -1.500000e+001  1.500000e+000
      vertex  0.000000e+000 -1.500000e+001  2.500000e+000
      vertex  0.000000e+000 -1.250000e+001  2.500000e+000
    endloop
  endfacet
  facet normal -1.000000e+000  0.000000e+000  -0.000000e+000
    outer loop
      vertex  0.000000e+000 -1.500000e+001  1.500000e+000
      vertex  0.000000e+000 -1.250000e+001  2.500000e+000
      vertex  0.000000e+000  1.250000e+001  2.500000e+000
    endloop
  endfacet
  facet normal -1.000000e+000  0.000000e+000  -0.000000e+000
    outer loop
      vertex  0.000000e+000 -1.500000e+001  1.500000e+000
      vertex  0.000000e+000  1.250000e+001  2.500000e+000
      vertex  0.000000e+000  1.500000e+001  2.500000e+000
    endloop
  endfacet
  facet normal -1.000000e+000  0.000000e+000  -0.000000e+000
    outer loop
      vertex  0.000000e+000 -1.500000e+001  1.500000e+000
      vertex  0.000000e+000  1.500000e+001  2.500000e+000
      vertex  0.000000e+000  1.676777e+001  1.767767e+000
    endloop
  endfacet
  facet normal -1.000000e+000  0.000000e+000  0.000000e+000
    outer loop
      vertex  0.000000e+000 -1.500000e+001  1.500000e+000
      vertex  0.000000e+000  1.676777e+001  1.767767e+000
      vertex  0.000000e+000  1.500000e+001  1.500000e+000
    endloop
  endfacet
  facet normal -1.000000e+000  -0.000000e+000  0.000000e+000
    outer loop
      vertex  0.000000e+000 -1.500000e+001  1.500000e+000
      vertex  0.000000e+000  1.500000e+001  1.500000e+000
      vertex  0.000000e+000  1.393934e+001  1.060660e+000
    endloop
  endfacet
  facet normal -9.999999e-001  0.000000e+000  0.000000e+000
    outer loop
      vertex  0.000000e+000 -1.500000e+001  1.500000e+000
      vertex  0.000000e+000  1.393934e+001  1.060660e+000
      vertex  0.000000e+000 -1.393934e+001  1.060660e+000
    endloop
  endfacet
  facet normal -1.000000e+000  0.000000e+000  -0.000000e+000
    outer loop
      vertex  0.000000e+000  1.500000e+001 -1.500000e+000
      vertex  0.000000e+000  1.606066e+001 -1.060660e+000
      vertex  0.000000e+000  1.676777e+001 -1.767767e+000
    endloop
  endfacet
  facet normal -1.000000e+000  -0.000000e+000  0.000000e+000
    outer loop
      vertex  0.000000e+000  1.500000e+001 -1.500000e+000
      vertex  0.000000e+000  1.676777e+001 -1.767767e+000
      vertex  0.000000e+000  1.500000e+001 -2.500000e+000
    endloop
  endfacet
  facet normal -1.000000e+000  0.000000e+000  0.000000e+000
    outer loop
      vertex  0.000000e+000  1.500000e+001 -1.500000e+000
      vertex  0.000000e+000  1.500000e+001 -2.500000e+000
      vertex  0.000000e+000  1.250000e+001 -2.500000e+000
    endloop
  endfacet
  facet normal -1.000000e+000  0.000000e+000  0.000000e+000
    outer loop
      vertex  0.000000e+000  1.500000e+001 -1.500000e+000
      vertex  0.000000e+000  1.250000e+001 -2.500000e+000
      vertex  0.000000e+000 -1.250000e+001 -2.500000e+000
    endloop
  endfacet
  facet normal -1.000000e+000  0.000000e+000  0.000000e+000
    outer loop
      vertex  0.000000e+000  1.500000e+001 -1.500000e+000
      vertex  0.000000e+000 -1.250000e+001 -2.500000e+000
      vertex  0.000000e+000 -1.500000e+001 -2.500000e+000
    endloop
  endfacet
  facet normal -1.000000e+000  0.000000e+000  0.000000e+000
    outer loop
      vertex  0.000000e+000 -1.650000e+001  1.836970e-016
      vertex  0.000000e+000 -1.750000e+001  3.061617e-016
      vertex  0.000000e+000 -1.606066e+001  1.060660e+000
    endloop
  endfacet
  facet normal -1.000000e+000  -0.000000e+000  0.000000e+000
    outer loop
      vertex  0.000000e+000 -1.606066e+001  1.060660e+000
      vertex  0.000000e+000 -1.750000e+001  3.061617e-016
      vertex  0.000000e+000 -1.676777e+001  1.767767e+000
    endloop
  endfacet
  facet normal -9.999999e-001  0.000000e+000  0.000000e+000
    outer loop
      vertex  0.000000e+000  1.350000e+001  1.836970e-016
      vertex  0.000000e+000 -1.393934e+001  1.060660e+000
      vertex  0.000000e+000  1.393934e+001  1.060660e+000
    endloop
  endfacet
  facet normal -1.000000e+000  -0.000000e+000  0.000000e+000
    outer loop
      vertex  0.000000e+000 -1.393934e+001  1.060660e+000
      vertex  0.000000e+000  1.350000e+001  1.836970e-016
      vertex  0.000000e+000 -1.350000e+001  0.000000e+000
    endloop
  endfacet
  facet normal -1.000000e+000  0.000000e+000  0.000000e+000
    outer loop
      vertex  0.000000e+000 -1.350000e+001  0.000000e+000
      vertex  0.000000e+000  1.350000e+001  1.836970e-016
      vertex  0.000000e+000  1.393934e+001 -1.060660e+000
    endloop
  endfacet
  facet normal -9.999999e-001  0.000000e+000  0.000000e+000
    outer loop
      vertex  0.000000e+000 -1.350000e+001  0.000000e+000
      vertex  0.000000e+000  1.393934e+001 -1.060660e+000
      vertex  0.000000e+000 -1.393934e+001 -1.060660e+000
    endloop
  endfacet
  facet normal -9.999999e-001  0.000000e+000  0.000000e+000
    outer loop
      vertex  0.000000e+000 -1.393934e+001 -1.060660e+000
      vertex  0.000000e+000  1.393934e+001 -1.060660e+000
      vertex  0.000000e+000  1.500000e+001 -1.500000e+000
    endloop
  endfacet
  facet normal -1.000000e+000  0.000000e+000  0.000000e+000
    outer loop
      vertex  0.000000e+000 -1.393934e+001 -1.060660e+000
      vertex  0.000000e+000  1.500000e+001 -1.500000e+000
      vertex  0.000000e+000 -1.500000e+001 -1.500000e+000
    endloop
  endfacet
  facet normal -1.000000e+000  0.000000e+000  0.000000e+000
    outer loop
      vertex  0.000000e+000  1.500000e+001  1.500000e+000
      vertex  0.000000e+000  1.676777e+001  1.767767e+000
      vertex  0.000000e+000  1.606066e+001  1.060660e+000
    endloop
  endfacet
  facet normal -1.000000e+000  0.000000e+000  0.000000e+000
    outer loop
      vertex  0.000000e+000  1.606066e+001  1.060660e+000
      vertex  0.000000e+000  1.676777e+001  1.767767e+000
      vertex  0.000000e+000  1.750000e+001 -6.123234e-016
    endloop
  endfacet
  facet normal -1.000000e+000  0.000000e+000  0.000000e+000
    outer loop
      vertex  0.000000e+000  1.606066e+001  1.060660e+000
      vertex  0.000000e+000  1.750000e+001 -6.123234e-016
      vertex  0.000000e+000  1.650000e+001  0.000000e+000
    endloop
  endfacet
  facet normal -1.000000e+000  0.000000e+000  0.000000e+000
    outer loop
      vertex  0.000000e+000  1.650000e+001  0.000000e+000
      vertex  0.000000e+000  1.750000e+001 -6.123234e-016
      vertex  0.000000e+000  1.676777e+001 -1.767767e+000
    endloop
  endfacet
  facet normal -1.000000e+000  0.000000e+000  0.000000e+000
    outer loop
      vertex  0.000000e+000  1.650000e+001  0.000000e+000
      vertex  0.000000e+000  1.676777e+001 -1.767767e+000
      vertex  0.000000e+000  1.606066e+001 -1.060660e+000
    endloop
  endfacet
endsolid CATIA STL
