solid CATIA STL
  facet normal  0.000000e+000  0.000000e+000  9.999999e-001
    outer loop
      vertex  5.500000e+000 -3.110000e+001  5.300000e+000
      vertex  4.875000e+000 -3.047500e+001  5.300000e+000
      vertex -5.500000e+000 -3.110000e+001  5.300000e+000
    endloop
  endfacet
  facet normal  0.000000e+000  0.000000e+000  1.000000e+000
    outer loop
      vertex -5.500000e+000 -3.110000e+001  5.300000e+000
      vertex  4.875000e+000 -3.047500e+001  5.300000e+000
      vertex -4.875000e+000 -3.047500e+001  5.300000e+000
    endloop
  endfacet
  facet normal  0.000000e+000  0.000000e+000  1.000000e+000
    outer loop
      vertex -5.500000e+000 -3.110000e+001  5.300000e+000
      vertex -4.875000e+000 -3.047500e+001  5.300000e+000
      vertex -5.500000e+000 -2.000000e+001  5.300000e+000
    endloop
  endfacet
  facet normal  0.000000e+000  0.000000e+000  1.000000e+000
    outer loop
      vertex -5.500000e+000 -2.000000e+001  5.300000e+000
      vertex -4.875000e+000 -3.047500e+001  5.300000e+000
      vertex -4.875000e+000 -2.062500e+001  5.300000e+000
    endloop
  endfacet
  facet normal  0.000000e+000  -0.000000e+000  9.999999e-001
    outer loop
      vertex -5.500000e+000 -2.000000e+001  5.300000e+000
      vertex -4.875000e+000 -2.062500e+001  5.300000e+000
      vertex  5.500000e+000 -2.000000e+001  5.300000e+000
    endloop
  endfacet
  facet normal  0.000000e+000  0.000000e+000  1.000000e+000
    outer loop
      vertex  5.500000e+000 -2.000000e+001  5.300000e+000
      vertex -4.875000e+000 -2.062500e+001  5.300000e+000
      vertex  4.875000e+000 -2.062500e+001  5.300000e+000
    endloop
  endfacet
  facet normal  -0.000000e+000  0.000000e+000  1.000000e+000
    outer loop
      vertex  5.500000e+000 -2.000000e+001  5.300000e+000
      vertex  4.875000e+000 -2.062500e+001  5.300000e+000
      vertex  5.500000e+000 -3.110000e+001  5.300000e+000
    endloop
  endfacet
  facet normal  0.000000e+000  0.000000e+000  1.000000e+000
    outer loop
      vertex  5.500000e+000 -3.110000e+001  5.300000e+000
      vertex  4.875000e+000 -2.062500e+001  5.300000e+000
      vertex  4.875000e+000 -3.047500e+001  5.300000e+000
    endloop
  endfacet
  facet normal  1.000000e+000  -0.000000e+000  0.000000e+000
    outer loop
      vertex -4.875000e+000 -2.062500e+001  5.300000e+000
      vertex -4.875000e+000 -3.047500e+001  5.300000e+000
      vertex -4.875000e+000 -2.062500e+001  0.000000e+000
    endloop
  endfacet
  facet normal  1.000000e+000  0.000000e+000  0.000000e+000
    outer loop
      vertex -4.875000e+000 -2.062500e+001  0.000000e+000
      vertex -4.875000e+000 -3.047500e+001  5.300000e+000
      vertex -4.875000e+000 -3.047500e+001  0.000000e+000
    endloop
  endfacet
  facet normal -1.000000e+000  -0.000000e+000  0.000000e+000
    outer loop
      vertex  4.875000e+000 -3.047500e+001  5.300000e+000
      vertex  4.875000e+000 -2.062500e+001  5.300000e+000
      vertex  4.875000e+000 -3.047500e+001  0.000000e+000
    endloop
  endfacet
  facet normal -1.000000e+000  0.000000e+000  0.000000e+000
    outer loop
      vertex  4.875000e+000 -3.047500e+001  0.000000e+000
      vertex  4.875000e+000 -2.062500e+001  5.300000e+000
      vertex  4.875000e+000 -2.062500e+001  0.000000e+000
    endloop
  endfacet
  facet normal  0.000000e+000  1.000000e+000  -0.000000e+000
    outer loop
      vertex  4.875000e+000 -3.047500e+001  5.300000e+000
      vertex  4.875000e+000 -3.047500e+001  0.000000e+000
      vertex -4.875000e+000 -3.047500e+001  5.300000e+000
    endloop
  endfacet
  facet normal  0.000000e+000  1.000000e+000  0.000000e+000
    outer loop
      vertex -4.875000e+000 -3.047500e+001  5.300000e+000
      vertex  4.875000e+000 -3.047500e+001  0.000000e+000
      vertex -4.875000e+000 -3.047500e+001  0.000000e+000
    endloop
  endfacet
  facet normal  0.000000e+000 -1.000000e+000  0.000000e+000
    outer loop
      vertex -4.875000e+000 -2.062500e+001  5.300000e+000
      vertex -4.875000e+000 -2.062500e+001  0.000000e+000
      vertex  4.875000e+000 -2.062500e+001  5.300000e+000
    endloop
  endfacet
  facet normal  0.000000e+000 -1.000000e+000  -0.000000e+000
    outer loop
      vertex  4.875000e+000 -2.062500e+001  5.300000e+000
      vertex -4.875000e+000 -2.062500e+001  0.000000e+000
      vertex  4.875000e+000 -2.062500e+001  0.000000e+000
    endloop
  endfacet
  facet normal  0.000000e+000  -0.000000e+000 -9.999999e-001
    outer loop
      vertex -4.875000e+000  4.750000e-001  0.000000e+000
      vertex  2.797762e-014  5.000000e+000  0.000000e+000
      vertex  4.875000e+000  4.750000e-001  0.000000e+000
    endloop
  endfacet
  facet normal  -0.000000e+000  0.000000e+000 -1.000000e+000
    outer loop
      vertex  7.051282e+000  0.000000e+000  0.000000e+000
      vertex  7.051282e+000 -3.000000e+001  0.000000e+000
      vertex  4.875000e+000 -3.047500e+001  0.000000e+000
    endloop
  endfacet
  facet normal  0.000000e+000  0.000000e+000 -1.000000e+000
    outer loop
      vertex  7.051282e+000  0.000000e+000  0.000000e+000
      vertex  4.875000e+000 -3.047500e+001  0.000000e+000
      vertex  4.875000e+000 -2.062500e+001  0.000000e+000
    endloop
  endfacet
  facet normal  0.000000e+000  0.000000e+000 -1.000000e+000
    outer loop
      vertex  7.051282e+000  0.000000e+000  0.000000e+000
      vertex  4.875000e+000 -2.062500e+001  0.000000e+000
      vertex  4.875000e+000 -9.275000e+000  0.000000e+000
    endloop
  endfacet
  facet normal  0.000000e+000  0.000000e+000 -1.000000e+000
    outer loop
      vertex  7.051282e+000  0.000000e+000  0.000000e+000
      vertex  4.875000e+000 -9.275000e+000  0.000000e+000
      vertex  4.875000e+000  4.750000e-001  0.000000e+000
    endloop
  endfacet
  facet normal  0.000000e+000  0.000000e+000 -1.000000e+000
    outer loop
      vertex  7.051282e+000  0.000000e+000  0.000000e+000
      vertex  4.875000e+000  4.750000e-001  0.000000e+000
      vertex  2.797762e-014  5.000000e+000  0.000000e+000
    endloop
  endfacet
  facet normal  0.000000e+000  0.000000e+000 -1.000000e+000
    outer loop
      vertex  0.000000e+000 -3.500000e+001  0.000000e+000
      vertex -7.051282e+000 -3.000000e+001  0.000000e+000
      vertex -4.875000e+000 -3.047500e+001  0.000000e+000
    endloop
  endfacet
  facet normal  0.000000e+000  0.000000e+000 -9.999999e-001
    outer loop
      vertex  0.000000e+000 -3.500000e+001  0.000000e+000
      vertex -4.875000e+000 -3.047500e+001  0.000000e+000
      vertex  4.875000e+000 -3.047500e+001  0.000000e+000
    endloop
  endfacet
  facet normal  0.000000e+000  -0.000000e+000 -1.000000e+000
    outer loop
      vertex  0.000000e+000 -3.500000e+001  0.000000e+000
      vertex  4.875000e+000 -3.047500e+001  0.000000e+000
      vertex  7.051282e+000 -3.000000e+001  0.000000e+000
    endloop
  endfacet
  facet normal  0.000000e+000  0.000000e+000 -1.000000e+000
    outer loop
      vertex -7.051282e+000 -1.065814e-014  0.000000e+000
      vertex  2.797762e-014  5.000000e+000  0.000000e+000
      vertex -4.875000e+000  4.750000e-001  0.000000e+000
    endloop
  endfacet
  facet normal  0.000000e+000  -0.000000e+000 -1.000000e+000
    outer loop
      vertex -7.051282e+000 -1.065814e-014  0.000000e+000
      vertex -4.875000e+000  4.750000e-001  0.000000e+000
      vertex -4.875000e+000 -9.275000e+000  0.000000e+000
    endloop
  endfacet
  facet normal  -0.000000e+000  -0.000000e+000 -1.000000e+000
    outer loop
      vertex -7.051282e+000 -1.065814e-014  0.000000e+000
      vertex -4.875000e+000 -9.275000e+000  0.000000e+000
      vertex -4.875000e+000 -2.062500e+001  0.000000e+000
    endloop
  endfacet
  facet normal  -0.000000e+000  -0.000000e+000 -1.000000e+000
    outer loop
      vertex -7.051282e+000 -1.065814e-014  0.000000e+000
      vertex -4.875000e+000 -2.062500e+001  0.000000e+000
      vertex -4.875000e+000 -3.047500e+001  0.000000e+000
    endloop
  endfacet
  facet normal  0.000000e+000  0.000000e+000 -1.000000e+000
    outer loop
      vertex -7.051282e+000 -1.065814e-014  0.000000e+000
      vertex -4.875000e+000 -3.047500e+001  0.000000e+000
      vertex -7.051282e+000 -3.000000e+001  0.000000e+000
    endloop
  endfacet
  facet normal  -0.000000e+000  0.000000e+000 -1.000000e+000
    outer loop
      vertex -4.875000e+000 -9.275000e+000  0.000000e+000
      vertex  4.875000e+000 -9.275000e+000  0.000000e+000
      vertex -4.875000e+000 -2.062500e+001  0.000000e+000
    endloop
  endfacet
  facet normal  0.000000e+000  0.000000e+000 -1.000000e+000
    outer loop
      vertex -4.875000e+000 -2.062500e+001  0.000000e+000
      vertex  4.875000e+000 -9.275000e+000  0.000000e+000
      vertex  4.875000e+000 -2.062500e+001  0.000000e+000
    endloop
  endfacet
  facet normal  0.000000e+000  0.000000e+000  9.999999e-001
    outer loop
      vertex  5.500000e+000 -9.900000e+000  5.300000e+000
      vertex  4.875000e+000 -9.275000e+000  5.300000e+000
      vertex -5.500000e+000 -9.900000e+000  5.300000e+000
    endloop
  endfacet
  facet normal  0.000000e+000  0.000000e+000  1.000000e+000
    outer loop
      vertex -5.500000e+000 -9.900000e+000  5.300000e+000
      vertex  4.875000e+000 -9.275000e+000  5.300000e+000
      vertex -4.875000e+000 -9.275000e+000  5.300000e+000
    endloop
  endfacet
  facet normal  0.000000e+000  0.000000e+000  9.999999e-001
    outer loop
      vertex -5.500000e+000 -9.900000e+000  5.300000e+000
      vertex -4.875000e+000 -9.275000e+000  5.300000e+000
      vertex -5.500000e+000  1.100000e+000  5.300000e+000
    endloop
  endfacet
  facet normal  0.000000e+000  0.000000e+000  1.000000e+000
    outer loop
      vertex -5.500000e+000  1.100000e+000  5.300000e+000
      vertex -4.875000e+000 -9.275000e+000  5.300000e+000
      vertex -4.875000e+000  4.750000e-001  5.300000e+000
    endloop
  endfacet
  facet normal  0.000000e+000  -0.000000e+000  9.999999e-001
    outer loop
      vertex -5.500000e+000  1.100000e+000  5.300000e+000
      vertex -4.875000e+000  4.750000e-001  5.300000e+000
      vertex  5.500000e+000  1.100000e+000  5.300000e+000
    endloop
  endfacet
  facet normal  0.000000e+000  0.000000e+000  1.000000e+000
    outer loop
      vertex  5.500000e+000  1.100000e+000  5.300000e+000
      vertex -4.875000e+000  4.750000e-001  5.300000e+000
      vertex  4.875000e+000  4.750000e-001  5.300000e+000
    endloop
  endfacet
  facet normal  -0.000000e+000  0.000000e+000  9.999999e-001
    outer loop
      vertex  5.500000e+000  1.100000e+000  5.300000e+000
      vertex  4.875000e+000  4.750000e-001  5.300000e+000
      vertex  5.500000e+000 -9.900000e+000  5.300000e+000
    endloop
  endfacet
  facet normal  0.000000e+000  0.000000e+000  1.000000e+000
    outer loop
      vertex  5.500000e+000 -9.900000e+000  5.300000e+000
      vertex  4.875000e+000  4.750000e-001  5.300000e+000
      vertex  4.875000e+000 -9.275000e+000  5.300000e+000
    endloop
  endfacet
  facet normal  0.000000e+000 -1.000000e+000  0.000000e+000
    outer loop
      vertex -4.875000e+000  4.750000e-001  5.300000e+000
      vertex -4.875000e+000  4.750000e-001  0.000000e+000
      vertex  4.875000e+000  4.750000e-001  5.300000e+000
    endloop
  endfacet
  facet normal  0.000000e+000 -1.000000e+000  -0.000000e+000
    outer loop
      vertex  4.875000e+000  4.750000e-001  5.300000e+000
      vertex -4.875000e+000  4.750000e-001  0.000000e+000
      vertex  4.875000e+000  4.750000e-001  0.000000e+000
    endloop
  endfacet
  facet normal -1.000000e+000  -0.000000e+000  0.000000e+000
    outer loop
      vertex  4.875000e+000 -9.275000e+000  5.300000e+000
      vertex  4.875000e+000  4.750000e-001  5.300000e+000
      vertex  4.875000e+000 -9.275000e+000  0.000000e+000
    endloop
  endfacet
  facet normal -1.000000e+000  0.000000e+000  0.000000e+000
    outer loop
      vertex  4.875000e+000 -9.275000e+000  0.000000e+000
      vertex  4.875000e+000  4.750000e-001  5.300000e+000
      vertex  4.875000e+000  4.750000e-001  0.000000e+000
    endloop
  endfacet
  facet normal  0.000000e+000  1.000000e+000  -0.000000e+000
    outer loop
      vertex  4.875000e+000 -9.275000e+000  5.300000e+000
      vertex  4.875000e+000 -9.275000e+000  0.000000e+000
      vertex -4.875000e+000 -9.275000e+000  5.300000e+000
    endloop
  endfacet
  facet normal  0.000000e+000  1.000000e+000  0.000000e+000
    outer loop
      vertex -4.875000e+000 -9.275000e+000  5.300000e+000
      vertex  4.875000e+000 -9.275000e+000  0.000000e+000
      vertex -4.875000e+000 -9.275000e+000  0.000000e+000
    endloop
  endfacet
  facet normal  1.000000e+000  -0.000000e+000  0.000000e+000
    outer loop
      vertex -4.875000e+000  4.750000e-001  5.300000e+000
      vertex -4.875000e+000 -9.275000e+000  5.300000e+000
      vertex -4.875000e+000  4.750000e-001  0.000000e+000
    endloop
  endfacet
  facet normal  1.000000e+000  0.000000e+000  0.000000e+000
    outer loop
      vertex -4.875000e+000  4.750000e-001  0.000000e+000
      vertex -4.875000e+000 -9.275000e+000  5.300000e+000
      vertex -4.875000e+000 -9.275000e+000  0.000000e+000
    endloop
  endfacet
  facet normal -5.784289e-001  8.157329e-001  0.000000e+000
    outer loop
      vertex -7.051282e+000 -1.065814e-014  2.000000e+000
      vertex -5.500000e+000  1.100000e+000  2.000000e+000
      vertex -7.051282e+000 -1.065814e-014  0.000000e+000
    endloop
  endfacet
  facet normal -5.784288e-001  8.157329e-001 -3.536107e-008
    outer loop
      vertex -7.051282e+000 -1.065814e-014  0.000000e+000
      vertex -5.500000e+000  1.100000e+000  2.000000e+000
      vertex  2.797762e-014  5.000000e+000  2.000000e+000
    endloop
  endfacet
  facet normal -5.784287e-001  8.157328e-001  0.000000e+000
    outer loop
      vertex -7.051282e+000 -1.065814e-014  0.000000e+000
      vertex  2.797762e-014  5.000000e+000  2.000000e+000
      vertex  2.797762e-014  5.000000e+000  0.000000e+000
    endloop
  endfacet
  facet normal -5.784287e-001 -8.157328e-001  -0.000000e+000
    outer loop
      vertex  0.000000e+000 -3.500000e+001  0.000000e+000
      vertex  0.000000e+000 -3.500000e+001  2.000000e+000
      vertex -7.051282e+000 -3.000000e+001  0.000000e+000
    endloop
  endfacet
  facet normal -5.784287e-001 -8.157329e-001 -2.475275e-007
    outer loop
      vertex -7.051282e+000 -3.000000e+001  0.000000e+000
      vertex  0.000000e+000 -3.500000e+001  2.000000e+000
      vertex -5.500000e+000 -3.110000e+001  2.000000e+000
    endloop
  endfacet
  facet normal -5.784289e-001 -8.157327e-001  0.000000e+000
    outer loop
      vertex -7.051282e+000 -3.000000e+001  0.000000e+000
      vertex -5.500000e+000 -3.110000e+001  2.000000e+000
      vertex -7.051282e+000 -3.000000e+001  2.000000e+000
    endloop
  endfacet
  facet normal  5.784287e-001 -8.157328e-001  0.000000e+000
    outer loop
      vertex  7.051282e+000 -3.000000e+001  0.000000e+000
      vertex  7.051282e+000 -3.000000e+001  2.000000e+000
      vertex  0.000000e+000 -3.500000e+001  0.000000e+000
    endloop
  endfacet
  facet normal  5.784289e-001 -8.157327e-001 -1.002968e-006
    outer loop
      vertex  0.000000e+000 -3.500000e+001  0.000000e+000
      vertex  7.051282e+000 -3.000000e+001  2.000000e+000
      vertex  5.500000e+000 -3.110000e+001  2.000000e+000
    endloop
  endfacet
  facet normal  5.784287e-001 -8.157329e-001  0.000000e+000
    outer loop
      vertex  0.000000e+000 -3.500000e+001  0.000000e+000
      vertex  5.500000e+000 -3.110000e+001  2.000000e+000
      vertex  0.000000e+000 -3.500000e+001  2.000000e+000
    endloop
  endfacet
  facet normal  5.784288e-001  8.157329e-001  0.000000e+000
    outer loop
      vertex  2.797762e-014  5.000000e+000  2.000000e+000
      vertex  5.500000e+000  1.100000e+000  2.000000e+000
      vertex  2.797762e-014  5.000000e+000  0.000000e+000
    endloop
  endfacet
  facet normal  5.784288e-001  8.157329e-001  0.000000e+000
    outer loop
      vertex  2.797762e-014  5.000000e+000  0.000000e+000
      vertex  5.500000e+000  1.100000e+000  2.000000e+000
      vertex  7.051282e+000  0.000000e+000  2.000000e+000
    endloop
  endfacet
  facet normal  5.784287e-001  8.157328e-001  0.000000e+000
    outer loop
      vertex  2.797762e-014  5.000000e+000  0.000000e+000
      vertex  7.051282e+000  0.000000e+000  2.000000e+000
      vertex  7.051282e+000  0.000000e+000  0.000000e+000
    endloop
  endfacet
  facet normal  0.000000e+000  0.000000e+000  1.000000e+000
    outer loop
      vertex  5.500000e+000  1.100000e+000  2.000000e+000
      vertex  2.797762e-014  5.000000e+000  2.000000e+000
      vertex -5.500000e+000  1.100000e+000  2.000000e+000
    endloop
  endfacet
  facet normal  0.000000e+000  -0.000000e+000  1.000000e+000
    outer loop
      vertex -7.051282e+000 -1.065814e-014  2.000000e+000
      vertex -5.500000e+000 -9.900000e+000  2.000000e+000
      vertex -5.500000e+000  1.100000e+000  2.000000e+000
    endloop
  endfacet
  facet normal  0.000000e+000  0.000000e+000  1.000000e+000
    outer loop
      vertex  7.051282e+000  0.000000e+000  2.000000e+000
      vertex  5.500000e+000  1.100000e+000  2.000000e+000
      vertex  5.500000e+000 -9.900000e+000  2.000000e+000
    endloop
  endfacet
  facet normal  -0.000000e+000  0.000000e+000  1.000000e+000
    outer loop
      vertex  7.051282e+000  0.000000e+000  2.000000e+000
      vertex  5.500000e+000 -9.900000e+000  2.000000e+000
      vertex  5.500000e+000 -2.000000e+001  2.000000e+000
    endloop
  endfacet
  facet normal  -0.000000e+000  0.000000e+000  1.000000e+000
    outer loop
      vertex  7.051282e+000  0.000000e+000  2.000000e+000
      vertex  5.500000e+000 -2.000000e+001  2.000000e+000
      vertex  5.500000e+000 -3.110000e+001  2.000000e+000
    endloop
  endfacet
  facet normal  0.000000e+000  0.000000e+000  1.000000e+000
    outer loop
      vertex  7.051282e+000  0.000000e+000  2.000000e+000
      vertex  5.500000e+000 -3.110000e+001  2.000000e+000
      vertex  7.051282e+000 -3.000000e+001  2.000000e+000
    endloop
  endfacet
  facet normal  0.000000e+000  -0.000000e+000  9.999999e-001
    outer loop
      vertex -5.500000e+000 -2.000000e+001  2.000000e+000
      vertex  5.500000e+000 -2.000000e+001  2.000000e+000
      vertex  5.500000e+000 -9.900000e+000  2.000000e+000
    endloop
  endfacet
  facet normal  0.000000e+000  0.000000e+000  9.999999e-001
    outer loop
      vertex -5.500000e+000 -2.000000e+001  2.000000e+000
      vertex  5.500000e+000 -9.900000e+000  2.000000e+000
      vertex -5.500000e+000 -9.900000e+000  2.000000e+000
    endloop
  endfacet
  facet normal  0.000000e+000  0.000000e+000  1.000000e+000
    outer loop
      vertex -5.500000e+000 -2.000000e+001  2.000000e+000
      vertex -5.500000e+000 -9.900000e+000  2.000000e+000
      vertex -7.051282e+000 -1.065814e-014  2.000000e+000
    endloop
  endfacet
  facet normal  0.000000e+000  0.000000e+000  1.000000e+000
    outer loop
      vertex -5.500000e+000 -2.000000e+001  2.000000e+000
      vertex -7.051282e+000 -1.065814e-014  2.000000e+000
      vertex -7.051282e+000 -3.000000e+001  2.000000e+000
    endloop
  endfacet
  facet normal  -0.000000e+000  0.000000e+000  1.000000e+000
    outer loop
      vertex -5.500000e+000 -2.000000e+001  2.000000e+000
      vertex -7.051282e+000 -3.000000e+001  2.000000e+000
      vertex -5.500000e+000 -3.110000e+001  2.000000e+000
    endloop
  endfacet
  facet normal  0.000000e+000  -0.000000e+000  1.000000e+000
    outer loop
      vertex -5.500000e+000 -3.110000e+001  2.000000e+000
      vertex  0.000000e+000 -3.500000e+001  2.000000e+000
      vertex  5.500000e+000 -3.110000e+001  2.000000e+000
    endloop
  endfacet
  facet normal  0.000000e+000  1.000000e+000  0.000000e+000
    outer loop
      vertex -5.500000e+000 -2.000000e+001  5.300000e+000
      vertex  5.500000e+000 -2.000000e+001  5.300000e+000
      vertex -5.500000e+000 -2.000000e+001  2.000000e+000
    endloop
  endfacet
  facet normal  0.000000e+000  1.000000e+000  0.000000e+000
    outer loop
      vertex -5.500000e+000 -2.000000e+001  2.000000e+000
      vertex  5.500000e+000 -2.000000e+001  5.300000e+000
      vertex  5.500000e+000 -2.000000e+001  2.000000e+000
    endloop
  endfacet
  facet normal  1.000000e+000  0.000000e+000  0.000000e+000
    outer loop
      vertex  5.500000e+000 -3.110000e+001  5.300000e+000
      vertex  5.500000e+000 -3.110000e+001  2.000000e+000
      vertex  5.500000e+000 -2.000000e+001  5.300000e+000
    endloop
  endfacet
  facet normal  1.000000e+000  0.000000e+000  0.000000e+000
    outer loop
      vertex  5.500000e+000 -2.000000e+001  5.300000e+000
      vertex  5.500000e+000 -3.110000e+001  2.000000e+000
      vertex  5.500000e+000 -2.000000e+001  2.000000e+000
    endloop
  endfacet
  facet normal  0.000000e+000 -1.000000e+000  0.000000e+000
    outer loop
      vertex  5.500000e+000 -3.110000e+001  5.300000e+000
      vertex -5.500000e+000 -3.110000e+001  5.300000e+000
      vertex  5.500000e+000 -3.110000e+001  2.000000e+000
    endloop
  endfacet
  facet normal  0.000000e+000 -1.000000e+000  0.000000e+000
    outer loop
      vertex  5.500000e+000 -3.110000e+001  2.000000e+000
      vertex -5.500000e+000 -3.110000e+001  5.300000e+000
      vertex -5.500000e+000 -3.110000e+001  2.000000e+000
    endloop
  endfacet
  facet normal -1.000000e+000  0.000000e+000  0.000000e+000
    outer loop
      vertex -5.500000e+000 -2.000000e+001  5.300000e+000
      vertex -5.500000e+000 -2.000000e+001  2.000000e+000
      vertex -5.500000e+000 -3.110000e+001  5.300000e+000
    endloop
  endfacet
  facet normal -1.000000e+000  0.000000e+000  0.000000e+000
    outer loop
      vertex -5.500000e+000 -3.110000e+001  5.300000e+000
      vertex -5.500000e+000 -2.000000e+001  2.000000e+000
      vertex -5.500000e+000 -3.110000e+001  2.000000e+000
    endloop
  endfacet
  facet normal  0.000000e+000  1.000000e+000  0.000000e+000
    outer loop
      vertex -5.500000e+000  1.100000e+000  5.300000e+000
      vertex  5.500000e+000  1.100000e+000  5.300000e+000
      vertex -5.500000e+000  1.100000e+000  2.000000e+000
    endloop
  endfacet
  facet normal  0.000000e+000  1.000000e+000  0.000000e+000
    outer loop
      vertex -5.500000e+000  1.100000e+000  2.000000e+000
      vertex  5.500000e+000  1.100000e+000  5.300000e+000
      vertex  5.500000e+000  1.100000e+000  2.000000e+000
    endloop
  endfacet
  facet normal  1.000000e+000  0.000000e+000  0.000000e+000
    outer loop
      vertex  5.500000e+000 -9.900000e+000  5.300000e+000
      vertex  5.500000e+000 -9.900000e+000  2.000000e+000
      vertex  5.500000e+000  1.100000e+000  5.300000e+000
    endloop
  endfacet
  facet normal  1.000000e+000  0.000000e+000  0.000000e+000
    outer loop
      vertex  5.500000e+000  1.100000e+000  5.300000e+000
      vertex  5.500000e+000 -9.900000e+000  2.000000e+000
      vertex  5.500000e+000  1.100000e+000  2.000000e+000
    endloop
  endfacet
  facet normal  0.000000e+000 -1.000000e+000  0.000000e+000
    outer loop
      vertex  5.500000e+000 -9.900000e+000  5.300000e+000
      vertex -5.500000e+000 -9.900000e+000  5.300000e+000
      vertex  5.500000e+000 -9.900000e+000  2.000000e+000
    endloop
  endfacet
  facet normal  0.000000e+000 -1.000000e+000  0.000000e+000
    outer loop
      vertex  5.500000e+000 -9.900000e+000  2.000000e+000
      vertex -5.500000e+000 -9.900000e+000  5.300000e+000
      vertex -5.500000e+000 -9.900000e+000  2.000000e+000
    endloop
  endfacet
  facet normal -1.000000e+000  0.000000e+000  0.000000e+000
    outer loop
      vertex -5.500000e+000  1.100000e+000  5.300000e+000
      vertex -5.500000e+000  1.100000e+000  2.000000e+000
      vertex -5.500000e+000 -9.900000e+000  5.300000e+000
    endloop
  endfacet
  facet normal -1.000000e+000  0.000000e+000  0.000000e+000
    outer loop
      vertex -5.500000e+000 -9.900000e+000  5.300000e+000
      vertex -5.500000e+000  1.100000e+000  2.000000e+000
      vertex -5.500000e+000 -9.900000e+000  2.000000e+000
    endloop
  endfacet
  facet normal  1.000000e+000  -0.000000e+000  0.000000e+000
    outer loop
      vertex  7.051282e+000  0.000000e+000  2.000000e+000
      vertex  7.051282e+000 -3.000000e+001  2.000000e+000
      vertex  7.051282e+000  0.000000e+000  0.000000e+000
    endloop
  endfacet
  facet normal  1.000000e+000  0.000000e+000  0.000000e+000
    outer loop
      vertex  7.051282e+000  0.000000e+000  0.000000e+000
      vertex  7.051282e+000 -3.000000e+001  2.000000e+000
      vertex  7.051282e+000 -3.000000e+001  0.000000e+000
    endloop
  endfacet
  facet normal -1.000000e+000  0.000000e+000  0.000000e+000
    outer loop
      vertex -7.051282e+000 -1.065814e-014  2.000000e+000
      vertex -7.051282e+000 -1.065814e-014  0.000000e+000
      vertex -7.051282e+000 -3.000000e+001  2.000000e+000
    endloop
  endfacet
  facet normal -1.000000e+000  0.000000e+000  0.000000e+000
    outer loop
      vertex -7.051282e+000 -3.000000e+001  2.000000e+000
      vertex -7.051282e+000 -1.065814e-014  0.000000e+000
      vertex -7.051282e+000 -3.000000e+001  0.000000e+000
    endloop
  endfacet
endsolid CATIA STL
