solid CATIA STL
  facet normal  0.000000e+000  0.000000e+000 -1.000000e+000
    outer loop
      vertex -5.000000e+000 -5.000000e+000  0.000000e+000
      vertex -5.000000e+000  5.000000e+000  0.000000e+000
      vertex  5.000000e+000 -5.000000e+000  0.000000e+000
    endloop
  endfacet
  facet normal  0.000000e+000  0.000000e+000 -1.000000e+000
    outer loop
      vertex  5.000000e+000 -5.000000e+000  0.000000e+000
      vertex -5.000000e+000  5.000000e+000  0.000000e+000
      vertex  5.000000e+000  5.000000e+000  0.000000e+000
    endloop
  endfacet
  facet normal  0.000000e+000  0.000000e+000  1.000000e+000
    outer loop
      vertex  5.000000e+000 -5.000000e+000  2.000000e+000
      vertex  1.500000e+000 -2.500000e+000  2.000000e+000
      vertex -5.000000e+000 -5.000000e+000  2.000000e+000
    endloop
  endfacet
  facet normal  0.000000e+000  0.000000e+000  1.000000e+000
    outer loop
      vertex -5.000000e+000 -5.000000e+000  2.000000e+000
      vertex  1.500000e+000 -2.500000e+000  2.000000e+000
      vertex -1.500000e+000 -2.500000e+000  2.000000e+000
    endloop
  endfacet
  facet normal  0.000000e+000  0.000000e+000  1.000000e+000
    outer loop
      vertex -5.000000e+000 -5.000000e+000  2.000000e+000
      vertex -1.500000e+000 -2.500000e+000  2.000000e+000
      vertex -5.000000e+000  5.000000e+000  2.000000e+000
    endloop
  endfacet
  facet normal  0.000000e+000  0.000000e+000  1.000000e+000
    outer loop
      vertex -5.000000e+000  5.000000e+000  2.000000e+000
      vertex -1.500000e+000 -2.500000e+000  2.000000e+000
      vertex -1.500000e+000  2.500000e+000  2.000000e+000
    endloop
  endfacet
  facet normal  0.000000e+000  -0.000000e+000  1.000000e+000
    outer loop
      vertex -5.000000e+000  5.000000e+000  2.000000e+000
      vertex -1.500000e+000  2.500000e+000  2.000000e+000
      vertex  5.000000e+000  5.000000e+000  2.000000e+000
    endloop
  endfacet
  facet normal  0.000000e+000  0.000000e+000  1.000000e+000
    outer loop
      vertex  5.000000e+000  5.000000e+000  2.000000e+000
      vertex -1.500000e+000  2.500000e+000  2.000000e+000
      vertex  1.500000e+000  2.500000e+000  2.000000e+000
    endloop
  endfacet
  facet normal  -0.000000e+000  0.000000e+000  1.000000e+000
    outer loop
      vertex  5.000000e+000  5.000000e+000  2.000000e+000
      vertex  1.500000e+000  2.500000e+000  2.000000e+000
      vertex  5.000000e+000 -5.000000e+000  2.000000e+000
    endloop
  endfacet
  facet normal  0.000000e+000  0.000000e+000  1.000000e+000
    outer loop
      vertex  5.000000e+000 -5.000000e+000  2.000000e+000
      vertex  1.500000e+000  2.500000e+000  2.000000e+000
      vertex  1.500000e+000 -2.500000e+000  2.000000e+000
    endloop
  endfacet
  facet normal  0.000000e+000 -1.000000e+000  0.000000e+000
    outer loop
      vertex  1.500000e+000 -2.500000e+000  6.500000e+000
      vertex -1.500000e+000 -2.500000e+000  6.500000e+000
      vertex  1.500000e+000 -2.500000e+000  2.000000e+000
    endloop
  endfacet
  facet normal  0.000000e+000 -1.000000e+000  0.000000e+000
    outer loop
      vertex  1.500000e+000 -2.500000e+000  2.000000e+000
      vertex -1.500000e+000 -2.500000e+000  6.500000e+000
      vertex -1.500000e+000 -2.500000e+000  2.000000e+000
    endloop
  endfacet
  facet normal  0.000000e+000  1.000000e+000  0.000000e+000
    outer loop
      vertex  1.500000e+000  2.500000e+000  2.000000e+000
      vertex -1.500000e+000  2.500000e+000  2.000000e+000
      vertex  1.500000e+000  2.500000e+000  6.500000e+000
    endloop
  endfacet
  facet normal  0.000000e+000  1.000000e+000  0.000000e+000
    outer loop
      vertex  1.500000e+000  2.500000e+000  6.500000e+000
      vertex -1.500000e+000  2.500000e+000  2.000000e+000
      vertex -1.500000e+000  2.500000e+000  6.500000e+000
    endloop
  endfacet
  facet normal -1.000000e+000  0.000000e+000  0.000000e+000
    outer loop
      vertex -1.500000e+000  2.500000e+000  2.000000e+000
      vertex -1.500000e+000 -2.500000e+000  2.000000e+000
      vertex -1.500000e+000 -2.755455e-016  5.000000e+000
    endloop
  endfacet
  facet normal -1.000000e+000  0.000000e+000  0.000000e+000
    outer loop
      vertex -1.500000e+000  2.500000e+000  2.000000e+000
      vertex -1.500000e+000 -2.755455e-016  5.000000e+000
      vertex -1.500000e+000  1.060660e+000  5.439340e+000
    endloop
  endfacet
  facet normal -1.000000e+000  0.000000e+000  0.000000e+000
    outer loop
      vertex -1.500000e+000  2.500000e+000  2.000000e+000
      vertex -1.500000e+000  1.060660e+000  5.439340e+000
      vertex -1.500000e+000  1.500000e+000  6.500000e+000
    endloop
  endfacet
  facet normal -1.000000e+000  0.000000e+000  0.000000e+000
    outer loop
      vertex -1.500000e+000  2.500000e+000  2.000000e+000
      vertex -1.500000e+000  1.500000e+000  6.500000e+000
      vertex -1.500000e+000  2.500000e+000  6.500000e+000
    endloop
  endfacet
  facet normal -1.000000e+000  0.000000e+000  0.000000e+000
    outer loop
      vertex -1.500000e+000 -2.500000e+000  2.000000e+000
      vertex -1.500000e+000 -2.500000e+000  6.500000e+000
      vertex -1.500000e+000 -1.500000e+000  6.500000e+000
    endloop
  endfacet
  facet normal -1.000000e+000  0.000000e+000  -0.000000e+000
    outer loop
      vertex -1.500000e+000 -2.500000e+000  2.000000e+000
      vertex -1.500000e+000 -1.500000e+000  6.500000e+000
      vertex -1.500000e+000 -1.060660e+000  5.439340e+000
    endloop
  endfacet
  facet normal -1.000000e+000  0.000000e+000  -0.000000e+000
    outer loop
      vertex -1.500000e+000 -2.500000e+000  2.000000e+000
      vertex -1.500000e+000 -1.060660e+000  5.439340e+000
      vertex -1.500000e+000 -2.755455e-016  5.000000e+000
    endloop
  endfacet
  facet normal -1.000000e+000  0.000000e+000  0.000000e+000
    outer loop
      vertex -1.500000e+000  9.184851e-017  8.000000e+000
      vertex -1.500000e+000 -1.060660e+000  7.560660e+000
      vertex -1.500000e+000 -1.767767e+000  8.267767e+000
    endloop
  endfacet
  facet normal -1.000000e+000  0.000000e+000  0.000000e+000
    outer loop
      vertex -1.500000e+000 -1.767767e+000  8.267767e+000
      vertex -1.500000e+000 -1.060660e+000  7.560660e+000
      vertex -1.500000e+000 -1.500000e+000  6.500000e+000
    endloop
  endfacet
  facet normal -1.000000e+000  0.000000e+000  0.000000e+000
    outer loop
      vertex -1.500000e+000 -1.767767e+000  8.267767e+000
      vertex -1.500000e+000 -1.500000e+000  6.500000e+000
      vertex -1.500000e+000 -2.500000e+000  6.500000e+000
    endloop
  endfacet
  facet normal -1.000000e+000  0.000000e+000  0.000000e+000
    outer loop
      vertex -1.500000e+000 -1.767767e+000  8.267767e+000
      vertex -1.500000e+000  1.530808e-016  9.000000e+000
      vertex -1.500000e+000  9.184851e-017  8.000000e+000
    endloop
  endfacet
  facet normal -1.000000e+000  0.000000e+000  0.000000e+000
    outer loop
      vertex -1.500000e+000  9.184851e-017  8.000000e+000
      vertex -1.500000e+000  1.530808e-016  9.000000e+000
      vertex -1.500000e+000  1.767767e+000  8.267767e+000
    endloop
  endfacet
  facet normal -1.000000e+000  0.000000e+000  0.000000e+000
    outer loop
      vertex -1.500000e+000  9.184851e-017  8.000000e+000
      vertex -1.500000e+000  1.767767e+000  8.267767e+000
      vertex -1.500000e+000  1.060660e+000  7.560660e+000
    endloop
  endfacet
  facet normal -1.000000e+000  0.000000e+000  0.000000e+000
    outer loop
      vertex -1.500000e+000  1.060660e+000  7.560660e+000
      vertex -1.500000e+000  1.767767e+000  8.267767e+000
      vertex -1.500000e+000  2.500000e+000  6.500000e+000
    endloop
  endfacet
  facet normal -1.000000e+000  0.000000e+000  0.000000e+000
    outer loop
      vertex -1.500000e+000  1.060660e+000  7.560660e+000
      vertex -1.500000e+000  2.500000e+000  6.500000e+000
      vertex -1.500000e+000  1.500000e+000  6.500000e+000
    endloop
  endfacet
  facet normal  1.000000e+000  0.000000e+000  0.000000e+000
    outer loop
      vertex  1.500000e+000  2.500000e+000  2.000000e+000
      vertex  1.500000e+000  2.500000e+000  6.500000e+000
      vertex  1.500000e+000  1.500000e+000  6.500000e+000
    endloop
  endfacet
  facet normal  1.000000e+000  0.000000e+000  0.000000e+000
    outer loop
      vertex  1.500000e+000  2.500000e+000  2.000000e+000
      vertex  1.500000e+000  1.500000e+000  6.500000e+000
      vertex  1.500000e+000  1.060660e+000  5.439340e+000
    endloop
  endfacet
  facet normal  1.000000e+000  0.000000e+000  0.000000e+000
    outer loop
      vertex  1.500000e+000  2.500000e+000  2.000000e+000
      vertex  1.500000e+000  1.060660e+000  5.439340e+000
      vertex  1.500000e+000 -2.755455e-016  5.000000e+000
    endloop
  endfacet
  facet normal  1.000000e+000  0.000000e+000  0.000000e+000
    outer loop
      vertex  1.500000e+000  2.500000e+000  2.000000e+000
      vertex  1.500000e+000 -2.755455e-016  5.000000e+000
      vertex  1.500000e+000 -2.500000e+000  2.000000e+000
    endloop
  endfacet
  facet normal  1.000000e+000  0.000000e+000  0.000000e+000
    outer loop
      vertex  1.500000e+000 -2.500000e+000  2.000000e+000
      vertex  1.500000e+000 -2.755455e-016  5.000000e+000
      vertex  1.500000e+000 -1.060660e+000  5.439340e+000
    endloop
  endfacet
  facet normal  1.000000e+000  0.000000e+000  0.000000e+000
    outer loop
      vertex  1.500000e+000 -2.500000e+000  2.000000e+000
      vertex  1.500000e+000 -1.060660e+000  5.439340e+000
      vertex  1.500000e+000 -1.500000e+000  6.500000e+000
    endloop
  endfacet
  facet normal  1.000000e+000  0.000000e+000  0.000000e+000
    outer loop
      vertex  1.500000e+000 -2.500000e+000  2.000000e+000
      vertex  1.500000e+000 -1.500000e+000  6.500000e+000
      vertex  1.500000e+000 -2.500000e+000  6.500000e+000
    endloop
  endfacet
  facet normal  1.000000e+000  0.000000e+000  0.000000e+000
    outer loop
      vertex  1.500000e+000 -2.500000e+000  6.500000e+000
      vertex  1.500000e+000 -1.500000e+000  6.500000e+000
      vertex  1.500000e+000 -1.767767e+000  8.267767e+000
    endloop
  endfacet
  facet normal  1.000000e+000  0.000000e+000  0.000000e+000
    outer loop
      vertex  1.500000e+000 -1.767767e+000  8.267767e+000
      vertex  1.500000e+000 -1.500000e+000  6.500000e+000
      vertex  1.500000e+000 -1.060660e+000  7.560660e+000
    endloop
  endfacet
  facet normal  1.000000e+000  0.000000e+000  -0.000000e+000
    outer loop
      vertex  1.500000e+000 -1.767767e+000  8.267767e+000
      vertex  1.500000e+000 -1.060660e+000  7.560660e+000
      vertex  1.500000e+000  9.184851e-017  8.000000e+000
    endloop
  endfacet
  facet normal  1.000000e+000  0.000000e+000  0.000000e+000
    outer loop
      vertex  1.500000e+000  1.500000e+000  6.500000e+000
      vertex  1.500000e+000  2.500000e+000  6.500000e+000
      vertex  1.500000e+000  1.060660e+000  7.560660e+000
    endloop
  endfacet
  facet normal  1.000000e+000  -0.000000e+000  0.000000e+000
    outer loop
      vertex  1.500000e+000  1.060660e+000  7.560660e+000
      vertex  1.500000e+000  2.500000e+000  6.500000e+000
      vertex  1.500000e+000  1.767767e+000  8.267767e+000
    endloop
  endfacet
  facet normal  1.000000e+000  0.000000e+000  0.000000e+000
    outer loop
      vertex  1.500000e+000  1.060660e+000  7.560660e+000
      vertex  1.500000e+000  1.767767e+000  8.267767e+000
      vertex  1.500000e+000  9.184851e-017  8.000000e+000
    endloop
  endfacet
  facet normal  1.000000e+000  0.000000e+000  0.000000e+000
    outer loop
      vertex  1.500000e+000  9.184851e-017  8.000000e+000
      vertex  1.500000e+000  1.767767e+000  8.267767e+000
      vertex  1.500000e+000  1.530808e-016  9.000000e+000
    endloop
  endfacet
  facet normal  1.000000e+000  0.000000e+000  0.000000e+000
    outer loop
      vertex  1.500000e+000  9.184851e-017  8.000000e+000
      vertex  1.500000e+000  1.530808e-016  9.000000e+000
      vertex  1.500000e+000 -1.767767e+000  8.267767e+000
    endloop
  endfacet
  facet normal  0.000000e+000  3.826833e-001 -9.238796e-001
    outer loop
      vertex -1.500000e+000  9.184851e-017  8.000000e+000
      vertex  1.500000e+000 -1.060660e+000  7.560660e+000
      vertex -1.500000e+000 -1.060660e+000  7.560660e+000
    endloop
  endfacet
  facet normal  0.000000e+000  9.238794e-001 -3.826834e-001
    outer loop
      vertex -1.500000e+000 -1.060660e+000  7.560660e+000
      vertex  1.500000e+000 -1.060660e+000  7.560660e+000
      vertex  1.500000e+000 -1.500000e+000  6.500000e+000
    endloop
  endfacet
  facet normal  0.000000e+000  9.238794e-001 -3.826834e-001
    outer loop
      vertex -1.500000e+000 -1.060660e+000  7.560660e+000
      vertex  1.500000e+000 -1.500000e+000  6.500000e+000
      vertex -1.500000e+000 -1.500000e+000  6.500000e+000
    endloop
  endfacet
  facet normal  0.000000e+000  3.826833e-001 -9.238796e-001
    outer loop
      vertex  1.500000e+000 -1.060660e+000  7.560660e+000
      vertex -1.500000e+000  9.184851e-017  8.000000e+000
      vertex  1.500000e+000  9.184851e-017  8.000000e+000
    endloop
  endfacet
  facet normal  -0.000000e+000 -3.826833e-001 -9.238796e-001
    outer loop
      vertex  1.500000e+000  9.184851e-017  8.000000e+000
      vertex -1.500000e+000  9.184851e-017  8.000000e+000
      vertex -1.500000e+000  1.060660e+000  7.560660e+000
    endloop
  endfacet
  facet normal  0.000000e+000 -3.826833e-001 -9.238796e-001
    outer loop
      vertex  1.500000e+000  9.184851e-017  8.000000e+000
      vertex -1.500000e+000  1.060660e+000  7.560660e+000
      vertex  1.500000e+000  1.060660e+000  7.560660e+000
    endloop
  endfacet
  facet normal  -0.000000e+000 -9.238794e-001 -3.826834e-001
    outer loop
      vertex  1.500000e+000  1.060660e+000  7.560660e+000
      vertex -1.500000e+000  1.060660e+000  7.560660e+000
      vertex -1.500000e+000  1.500000e+000  6.500000e+000
    endloop
  endfacet
  facet normal  0.000000e+000 -9.238794e-001 -3.826834e-001
    outer loop
      vertex  1.500000e+000  1.060660e+000  7.560660e+000
      vertex -1.500000e+000  1.500000e+000  6.500000e+000
      vertex  1.500000e+000  1.500000e+000  6.500000e+000
    endloop
  endfacet
  facet normal  0.000000e+000 -3.826833e-001  9.238796e-001
    outer loop
      vertex -1.500000e+000 -2.755455e-016  5.000000e+000
      vertex  1.500000e+000  1.060660e+000  5.439340e+000
      vertex -1.500000e+000  1.060660e+000  5.439340e+000
    endloop
  endfacet
  facet normal  0.000000e+000 -9.238794e-001  3.826834e-001
    outer loop
      vertex -1.500000e+000  1.060660e+000  5.439340e+000
      vertex  1.500000e+000  1.060660e+000  5.439340e+000
      vertex  1.500000e+000  1.500000e+000  6.500000e+000
    endloop
  endfacet
  facet normal  0.000000e+000 -9.238794e-001  3.826834e-001
    outer loop
      vertex -1.500000e+000  1.060660e+000  5.439340e+000
      vertex  1.500000e+000  1.500000e+000  6.500000e+000
      vertex -1.500000e+000  1.500000e+000  6.500000e+000
    endloop
  endfacet
  facet normal  0.000000e+000 -3.826833e-001  9.238796e-001
    outer loop
      vertex  1.500000e+000  1.060660e+000  5.439340e+000
      vertex -1.500000e+000 -2.755455e-016  5.000000e+000
      vertex  1.500000e+000 -2.755455e-016  5.000000e+000
    endloop
  endfacet
  facet normal  0.000000e+000  3.826833e-001  9.238796e-001
    outer loop
      vertex  1.500000e+000 -2.755455e-016  5.000000e+000
      vertex -1.500000e+000 -2.755455e-016  5.000000e+000
      vertex -1.500000e+000 -1.060660e+000  5.439340e+000
    endloop
  endfacet
  facet normal  -0.000000e+000  3.826833e-001  9.238796e-001
    outer loop
      vertex  1.500000e+000 -2.755455e-016  5.000000e+000
      vertex -1.500000e+000 -1.060660e+000  5.439340e+000
      vertex  1.500000e+000 -1.060660e+000  5.439340e+000
    endloop
  endfacet
  facet normal  0.000000e+000  9.238794e-001  3.826834e-001
    outer loop
      vertex  1.500000e+000 -1.060660e+000  5.439340e+000
      vertex -1.500000e+000 -1.060660e+000  5.439340e+000
      vertex -1.500000e+000 -1.500000e+000  6.500000e+000
    endloop
  endfacet
  facet normal  -0.000000e+000  9.238794e-001  3.826834e-001
    outer loop
      vertex  1.500000e+000 -1.060660e+000  5.439340e+000
      vertex -1.500000e+000 -1.500000e+000  6.500000e+000
      vertex  1.500000e+000 -1.500000e+000  6.500000e+000
    endloop
  endfacet
  facet normal  0.000000e+000 -9.238795e-001  3.826834e-001
    outer loop
      vertex -1.500000e+000 -2.500000e+000  6.500000e+000
      vertex  1.500000e+000 -2.500000e+000  6.500000e+000
      vertex -1.500000e+000 -1.767767e+000  8.267767e+000
    endloop
  endfacet
  facet normal  0.000000e+000 -9.238795e-001  3.826834e-001
    outer loop
      vertex -1.500000e+000 -1.767767e+000  8.267767e+000
      vertex  1.500000e+000 -2.500000e+000  6.500000e+000
      vertex  1.500000e+000 -1.767767e+000  8.267767e+000
    endloop
  endfacet
  facet normal  0.000000e+000 -3.826834e-001  9.238795e-001
    outer loop
      vertex -1.500000e+000 -1.767767e+000  8.267767e+000
      vertex  1.500000e+000 -1.767767e+000  8.267767e+000
      vertex -1.500000e+000  1.530808e-016  9.000000e+000
    endloop
  endfacet
  facet normal  0.000000e+000 -3.826834e-001  9.238795e-001
    outer loop
      vertex -1.500000e+000  1.530808e-016  9.000000e+000
      vertex  1.500000e+000 -1.767767e+000  8.267767e+000
      vertex  1.500000e+000  1.530808e-016  9.000000e+000
    endloop
  endfacet
  facet normal  0.000000e+000  3.826834e-001  9.238795e-001
    outer loop
      vertex -1.500000e+000  1.530808e-016  9.000000e+000
      vertex  1.500000e+000  1.530808e-016  9.000000e+000
      vertex -1.500000e+000  1.767767e+000  8.267767e+000
    endloop
  endfacet
  facet normal  -0.000000e+000  3.826834e-001  9.238795e-001
    outer loop
      vertex -1.500000e+000  1.767767e+000  8.267767e+000
      vertex  1.500000e+000  1.530808e-016  9.000000e+000
      vertex  1.500000e+000  1.767767e+000  8.267767e+000
    endloop
  endfacet
  facet normal  0.000000e+000  9.238795e-001  3.826834e-001
    outer loop
      vertex -1.500000e+000  1.767767e+000  8.267767e+000
      vertex  1.500000e+000  1.767767e+000  8.267767e+000
      vertex -1.500000e+000  2.500000e+000  6.500000e+000
    endloop
  endfacet
  facet normal  -0.000000e+000  9.238795e-001  3.826834e-001
    outer loop
      vertex -1.500000e+000  2.500000e+000  6.500000e+000
      vertex  1.500000e+000  1.767767e+000  8.267767e+000
      vertex  1.500000e+000  2.500000e+000  6.500000e+000
    endloop
  endfacet
  facet normal  0.000000e+000  1.000000e+000  0.000000e+000
    outer loop
      vertex -5.000000e+000  5.000000e+000  2.000000e+000
      vertex  5.000000e+000  5.000000e+000  2.000000e+000
      vertex -5.000000e+000  5.000000e+000  0.000000e+000
    endloop
  endfacet
  facet normal  0.000000e+000  1.000000e+000  0.000000e+000
    outer loop
      vertex -5.000000e+000  5.000000e+000  0.000000e+000
      vertex  5.000000e+000  5.000000e+000  2.000000e+000
      vertex  5.000000e+000  5.000000e+000  0.000000e+000
    endloop
  endfacet
  facet normal  1.000000e+000  0.000000e+000  0.000000e+000
    outer loop
      vertex  5.000000e+000 -5.000000e+000  2.000000e+000
      vertex  5.000000e+000 -5.000000e+000  0.000000e+000
      vertex  5.000000e+000  5.000000e+000  2.000000e+000
    endloop
  endfacet
  facet normal  1.000000e+000  0.000000e+000  0.000000e+000
    outer loop
      vertex  5.000000e+000  5.000000e+000  2.000000e+000
      vertex  5.000000e+000 -5.000000e+000  0.000000e+000
      vertex  5.000000e+000  5.000000e+000  0.000000e+000
    endloop
  endfacet
  facet normal  0.000000e+000 -1.000000e+000  0.000000e+000
    outer loop
      vertex  5.000000e+000 -5.000000e+000  2.000000e+000
      vertex -5.000000e+000 -5.000000e+000  2.000000e+000
      vertex  5.000000e+000 -5.000000e+000  0.000000e+000
    endloop
  endfacet
  facet normal  0.000000e+000 -1.000000e+000  0.000000e+000
    outer loop
      vertex  5.000000e+000 -5.000000e+000  0.000000e+000
      vertex -5.000000e+000 -5.000000e+000  2.000000e+000
      vertex -5.000000e+000 -5.000000e+000  0.000000e+000
    endloop
  endfacet
  facet normal -1.000000e+000  0.000000e+000  0.000000e+000
    outer loop
      vertex -5.000000e+000  5.000000e+000  2.000000e+000
      vertex -5.000000e+000  5.000000e+000  0.000000e+000
      vertex -5.000000e+000 -5.000000e+000  2.000000e+000
    endloop
  endfacet
  facet normal -1.000000e+000  0.000000e+000  0.000000e+000
    outer loop
      vertex -5.000000e+000 -5.000000e+000  2.000000e+000
      vertex -5.000000e+000  5.000000e+000  0.000000e+000
      vertex -5.000000e+000 -5.000000e+000  0.000000e+000
    endloop
  endfacet
endsolid CATIA STL
