solid CATIA STL
  facet normal  0.000000e+000 -1.000000e+000  -0.000000e+000
    outer loop
      vertex  3.000000e+000 -4.000000e+000  0.000000e+000
      vertex  1.414214e+000 -4.000000e+000  9.085787e+000
      vertex -3.673940e-016 -4.000000e+000  8.500000e+000
    endloop
  endfacet
  facet normal  0.000000e+000 -1.000000e+000  -0.000000e+000
    outer loop
      vertex  3.000000e+000 -4.000000e+000  0.000000e+000
      vertex  2.000000e+000 -4.000000e+000  1.050000e+001
      vertex  1.414214e+000 -4.000000e+000  9.085787e+000
    endloop
  endfacet
  facet normal  -0.000000e+000 -1.000000e+000  0.000000e+000
    outer loop
      vertex -2.000000e+000 -4.000000e+000  1.050000e+001
      vertex -1.414214e+000 -4.000000e+000  1.191421e+001
      vertex -3.000000e+000 -4.000000e+000  1.500000e+001
    endloop
  endfacet
  facet normal  0.000000e+000 -1.000000e+000  0.000000e+000
    outer loop
      vertex -3.000000e+000 -4.000000e+000  0.000000e+000
      vertex  3.000000e+000 -4.000000e+000  0.000000e+000
      vertex -3.673940e-016 -4.000000e+000  8.500000e+000
    endloop
  endfacet
  facet normal  -0.000000e+000 -1.000000e+000  0.000000e+000
    outer loop
      vertex -3.000000e+000 -4.000000e+000  0.000000e+000
      vertex -3.673940e-016 -4.000000e+000  8.500000e+000
      vertex -1.414214e+000 -4.000000e+000  9.085787e+000
    endloop
  endfacet
  facet normal  -0.000000e+000 -1.000000e+000  0.000000e+000
    outer loop
      vertex -3.000000e+000 -4.000000e+000  0.000000e+000
      vertex -1.414214e+000 -4.000000e+000  9.085787e+000
      vertex -2.000000e+000 -4.000000e+000  1.050000e+001
    endloop
  endfacet
  facet normal  -0.000000e+000 -1.000000e+000  0.000000e+000
    outer loop
      vertex -3.000000e+000 -4.000000e+000  0.000000e+000
      vertex -2.000000e+000 -4.000000e+000  1.050000e+001
      vertex -3.000000e+000 -4.000000e+000  1.500000e+001
    endloop
  endfacet
  facet normal  0.000000e+000 -1.000000e+000  0.000000e+000
    outer loop
      vertex  3.000000e+000 -4.000000e+000  1.500000e+001
      vertex -3.000000e+000 -4.000000e+000  1.500000e+001
      vertex -1.414214e+000 -4.000000e+000  1.191421e+001
    endloop
  endfacet
  facet normal  0.000000e+000 -1.000000e+000  0.000000e+000
    outer loop
      vertex  3.000000e+000 -4.000000e+000  1.500000e+001
      vertex -1.414214e+000 -4.000000e+000  1.191421e+001
      vertex  1.224647e-016 -4.000000e+000  1.250000e+001
    endloop
  endfacet
  facet normal  0.000000e+000 -9.999999e-001  0.000000e+000
    outer loop
      vertex  3.000000e+000 -4.000000e+000  1.500000e+001
      vertex  1.224647e-016 -4.000000e+000  1.250000e+001
      vertex  1.414214e+000 -4.000000e+000  1.191421e+001
    endloop
  endfacet
  facet normal  0.000000e+000 -1.000000e+000  0.000000e+000
    outer loop
      vertex  3.000000e+000 -4.000000e+000  1.500000e+001
      vertex  1.414214e+000 -4.000000e+000  1.191421e+001
      vertex  2.000000e+000 -4.000000e+000  1.050000e+001
    endloop
  endfacet
  facet normal  0.000000e+000 -1.000000e+000  0.000000e+000
    outer loop
      vertex  3.000000e+000 -4.000000e+000  1.500000e+001
      vertex  2.000000e+000 -4.000000e+000  1.050000e+001
      vertex  3.000000e+000 -4.000000e+000  0.000000e+000
    endloop
  endfacet
  facet normal -3.826837e-001  0.000000e+000  9.238794e-001
    outer loop
      vertex -3.673940e-016  3.700000e+000  8.500000e+000
      vertex  1.414214e+000 -4.000000e+000  9.085787e+000
      vertex  1.414214e+000  3.700000e+000  9.085787e+000
    endloop
  endfacet
  facet normal -9.238795e-001  0.000000e+000  3.826835e-001
    outer loop
      vertex  1.414214e+000  3.700000e+000  9.085787e+000
      vertex  1.414214e+000 -4.000000e+000  9.085787e+000
      vertex  2.000000e+000 -4.000000e+000  1.050000e+001
    endloop
  endfacet
  facet normal -9.238795e-001  0.000000e+000  3.826835e-001
    outer loop
      vertex  1.414214e+000  3.700000e+000  9.085787e+000
      vertex  2.000000e+000 -4.000000e+000  1.050000e+001
      vertex  2.000000e+000  3.700000e+000  1.050000e+001
    endloop
  endfacet
  facet normal -3.826837e-001  0.000000e+000  9.238794e-001
    outer loop
      vertex  1.414214e+000 -4.000000e+000  9.085787e+000
      vertex -3.673940e-016  3.700000e+000  8.500000e+000
      vertex -3.673940e-016 -4.000000e+000  8.500000e+000
    endloop
  endfacet
  facet normal  3.826837e-001  -0.000000e+000  9.238794e-001
    outer loop
      vertex -3.673940e-016 -4.000000e+000  8.500000e+000
      vertex -3.673940e-016  3.700000e+000  8.500000e+000
      vertex -1.414214e+000  3.700000e+000  9.085787e+000
    endloop
  endfacet
  facet normal  3.826837e-001  0.000000e+000  9.238794e-001
    outer loop
      vertex -3.673940e-016 -4.000000e+000  8.500000e+000
      vertex -1.414214e+000  3.700000e+000  9.085787e+000
      vertex -1.414214e+000 -4.000000e+000  9.085787e+000
    endloop
  endfacet
  facet normal  9.238795e-001  -0.000000e+000  3.826835e-001
    outer loop
      vertex -1.414214e+000 -4.000000e+000  9.085787e+000
      vertex -1.414214e+000  3.700000e+000  9.085787e+000
      vertex -2.000000e+000  3.700000e+000  1.050000e+001
    endloop
  endfacet
  facet normal  9.238795e-001  0.000000e+000  3.826835e-001
    outer loop
      vertex -1.414214e+000 -4.000000e+000  9.085787e+000
      vertex -2.000000e+000  3.700000e+000  1.050000e+001
      vertex -2.000000e+000 -4.000000e+000  1.050000e+001
    endloop
  endfacet
  facet normal  3.826837e-001  0.000000e+000 -9.238794e-001
    outer loop
      vertex  1.224647e-016  3.700000e+000  1.250000e+001
      vertex -1.414214e+000 -4.000000e+000  1.191421e+001
      vertex -1.414214e+000  3.700000e+000  1.191421e+001
    endloop
  endfacet
  facet normal  9.238795e-001  0.000000e+000 -3.826835e-001
    outer loop
      vertex -1.414214e+000  3.700000e+000  1.191421e+001
      vertex -1.414214e+000 -4.000000e+000  1.191421e+001
      vertex -2.000000e+000 -4.000000e+000  1.050000e+001
    endloop
  endfacet
  facet normal  9.238795e-001  0.000000e+000 -3.826835e-001
    outer loop
      vertex -1.414214e+000  3.700000e+000  1.191421e+001
      vertex -2.000000e+000 -4.000000e+000  1.050000e+001
      vertex -2.000000e+000  3.700000e+000  1.050000e+001
    endloop
  endfacet
  facet normal  3.826837e-001  0.000000e+000 -9.238794e-001
    outer loop
      vertex -1.414214e+000 -4.000000e+000  1.191421e+001
      vertex  1.224647e-016  3.700000e+000  1.250000e+001
      vertex  1.224647e-016 -4.000000e+000  1.250000e+001
    endloop
  endfacet
  facet normal -3.826837e-001  0.000000e+000 -9.238794e-001
    outer loop
      vertex  1.224647e-016 -4.000000e+000  1.250000e+001
      vertex  1.224647e-016  3.700000e+000  1.250000e+001
      vertex  1.414214e+000  3.700000e+000  1.191421e+001
    endloop
  endfacet
  facet normal -3.826837e-001  -0.000000e+000 -9.238794e-001
    outer loop
      vertex  1.224647e-016 -4.000000e+000  1.250000e+001
      vertex  1.414214e+000  3.700000e+000  1.191421e+001
      vertex  1.414214e+000 -4.000000e+000  1.191421e+001
    endloop
  endfacet
  facet normal -9.238795e-001  0.000000e+000 -3.826835e-001
    outer loop
      vertex  1.414214e+000 -4.000000e+000  1.191421e+001
      vertex  1.414214e+000  3.700000e+000  1.191421e+001
      vertex  2.000000e+000  3.700000e+000  1.050000e+001
    endloop
  endfacet
  facet normal -9.238795e-001  -0.000000e+000 -3.826835e-001
    outer loop
      vertex  1.414214e+000 -4.000000e+000  1.191421e+001
      vertex  2.000000e+000  3.700000e+000  1.050000e+001
      vertex  2.000000e+000 -4.000000e+000  1.050000e+001
    endloop
  endfacet
  facet normal  0.000000e+000 -1.000000e+000  0.000000e+000
    outer loop
      vertex -1.414214e+000  3.700000e+000  1.191421e+001
      vertex  1.414214e+000  3.700000e+000  1.191421e+001
      vertex  1.224647e-016  3.700000e+000  1.250000e+001
    endloop
  endfacet
  facet normal  0.000000e+000 -1.000000e+000  0.000000e+000
    outer loop
      vertex  1.414214e+000  3.700000e+000  1.191421e+001
      vertex -1.414214e+000  3.700000e+000  1.191421e+001
      vertex  2.000000e+000  3.700000e+000  1.050000e+001
    endloop
  endfacet
  facet normal  0.000000e+000 -9.999999e-001  0.000000e+000
    outer loop
      vertex  2.000000e+000  3.700000e+000  1.050000e+001
      vertex -1.414214e+000  3.700000e+000  1.191421e+001
      vertex -2.000000e+000  3.700000e+000  1.050000e+001
    endloop
  endfacet
  facet normal  0.000000e+000 -9.999999e-001  0.000000e+000
    outer loop
      vertex  2.000000e+000  3.700000e+000  1.050000e+001
      vertex -2.000000e+000  3.700000e+000  1.050000e+001
      vertex  1.414214e+000  3.700000e+000  9.085787e+000
    endloop
  endfacet
  facet normal  0.000000e+000 -1.000000e+000  0.000000e+000
    outer loop
      vertex  1.414214e+000  3.700000e+000  9.085787e+000
      vertex -2.000000e+000  3.700000e+000  1.050000e+001
      vertex -1.414214e+000  3.700000e+000  9.085787e+000
    endloop
  endfacet
  facet normal  0.000000e+000 -1.000000e+000  0.000000e+000
    outer loop
      vertex  1.414214e+000  3.700000e+000  9.085787e+000
      vertex -1.414214e+000  3.700000e+000  9.085787e+000
      vertex -3.673940e-016  3.700000e+000  8.500000e+000
    endloop
  endfacet
  facet normal  0.000000e+000  -0.000000e+000 -9.999999e-001
    outer loop
      vertex -3.698745e+000  3.364415e+000  0.000000e+000
      vertex -1.370077e+000  4.808627e+000  0.000000e+000
      vertex -3.673940e-016  2.000000e+000  0.000000e+000
    endloop
  endfacet
  facet normal  0.000000e+000  0.000000e+000 -1.000000e+000
    outer loop
      vertex  1.224647e-016 -2.000000e+000  0.000000e+000
      vertex -4.657713e+000 -1.818160e+000  0.000000e+000
      vertex -1.414214e+000 -1.414214e+000  0.000000e+000
    endloop
  endfacet
  facet normal  0.000000e+000  0.000000e+000 -1.000000e+000
    outer loop
      vertex  4.657713e+000 -1.818160e+000  0.000000e+000
      vertex  1.224647e-016 -2.000000e+000  0.000000e+000
      vertex  1.414214e+000 -1.414214e+000  0.000000e+000
    endloop
  endfacet
  facet normal  0.000000e+000  -0.000000e+000 -9.999999e-001
    outer loop
      vertex  1.414214e+000 -1.414214e+000  0.000000e+000
      vertex  2.000000e+000  0.000000e+000  0.000000e+000
      vertex  4.657713e+000 -1.818160e+000  0.000000e+000
    endloop
  endfacet
  facet normal  0.000000e+000  0.000000e+000 -1.000000e+000
    outer loop
      vertex  4.657713e+000 -1.818160e+000  0.000000e+000
      vertex  2.000000e+000  0.000000e+000  0.000000e+000
      vertex  1.414214e+000  1.414214e+000  0.000000e+000
    endloop
  endfacet
  facet normal  0.000000e+000  0.000000e+000 -1.000000e+000
    outer loop
      vertex  4.657713e+000 -1.818160e+000  0.000000e+000
      vertex  1.414214e+000  1.414214e+000  0.000000e+000
      vertex  4.916540e+000  9.097426e-001  0.000000e+000
    endloop
  endfacet
  facet normal  0.000000e+000  0.000000e+000 -1.000000e+000
    outer loop
      vertex  4.916540e+000  9.097426e-001  0.000000e+000
      vertex  1.414214e+000  1.414214e+000  0.000000e+000
      vertex -3.673940e-016  2.000000e+000  0.000000e+000
    endloop
  endfacet
  facet normal  0.000000e+000  0.000000e+000 -1.000000e+000
    outer loop
      vertex  4.916540e+000  9.097426e-001  0.000000e+000
      vertex -3.673940e-016  2.000000e+000  0.000000e+000
      vertex  3.698745e+000  3.364415e+000  0.000000e+000
    endloop
  endfacet
  facet normal  -0.000000e+000  0.000000e+000 -1.000000e+000
    outer loop
      vertex  3.698745e+000  3.364415e+000  0.000000e+000
      vertex -3.673940e-016  2.000000e+000  0.000000e+000
      vertex -1.370077e+000  4.808627e+000  0.000000e+000
    endloop
  endfacet
  facet normal  0.000000e+000  0.000000e+000 -1.000000e+000
    outer loop
      vertex  3.698745e+000  3.364415e+000  0.000000e+000
      vertex -1.370077e+000  4.808627e+000  0.000000e+000
      vertex  1.370077e+000  4.808627e+000  0.000000e+000
    endloop
  endfacet
  facet normal  0.000000e+000  0.000000e+000 -9.999999e-001
    outer loop
      vertex -1.414214e+000 -1.414214e+000  0.000000e+000
      vertex -4.657713e+000 -1.818160e+000  0.000000e+000
      vertex -2.000000e+000 -2.449294e-016  0.000000e+000
    endloop
  endfacet
  facet normal  -0.000000e+000  0.000000e+000 -1.000000e+000
    outer loop
      vertex -2.000000e+000 -2.449294e-016  0.000000e+000
      vertex -4.657713e+000 -1.818160e+000  0.000000e+000
      vertex -4.916540e+000  9.097426e-001  0.000000e+000
    endloop
  endfacet
  facet normal  0.000000e+000  0.000000e+000 -1.000000e+000
    outer loop
      vertex -2.000000e+000 -2.449294e-016  0.000000e+000
      vertex -4.916540e+000  9.097426e-001  0.000000e+000
      vertex -1.414214e+000  1.414214e+000  0.000000e+000
    endloop
  endfacet
  facet normal  -0.000000e+000  0.000000e+000 -1.000000e+000
    outer loop
      vertex -1.414214e+000  1.414214e+000  0.000000e+000
      vertex -4.916540e+000  9.097426e-001  0.000000e+000
      vertex -3.698745e+000  3.364415e+000  0.000000e+000
    endloop
  endfacet
  facet normal  0.000000e+000  0.000000e+000 -1.000000e+000
    outer loop
      vertex -1.414214e+000  1.414214e+000  0.000000e+000
      vertex -3.698745e+000  3.364415e+000  0.000000e+000
      vertex -3.673940e-016  2.000000e+000  0.000000e+000
    endloop
  endfacet
  facet normal  -0.000000e+000  0.000000e+000 -1.000000e+000
    outer loop
      vertex -4.657713e+000 -1.818160e+000  0.000000e+000
      vertex  1.224647e-016 -2.000000e+000  0.000000e+000
      vertex -3.000000e+000 -4.000000e+000  0.000000e+000
    endloop
  endfacet
  facet normal  0.000000e+000  0.000000e+000 -1.000000e+000
    outer loop
      vertex -3.000000e+000 -4.000000e+000  0.000000e+000
      vertex  1.224647e-016 -2.000000e+000  0.000000e+000
      vertex  4.440892e-016 -4.000000e+000  0.000000e+000
    endloop
  endfacet
  facet normal  0.000000e+000  0.000000e+000 -1.000000e+000
    outer loop
      vertex  1.224647e-016 -2.000000e+000  0.000000e+000
      vertex  4.657713e+000 -1.818160e+000  0.000000e+000
      vertex  4.440892e-016 -4.000000e+000  0.000000e+000
    endloop
  endfacet
  facet normal  0.000000e+000  0.000000e+000 -1.000000e+000
    outer loop
      vertex  4.440892e-016 -4.000000e+000  0.000000e+000
      vertex  4.657713e+000 -1.818160e+000  0.000000e+000
      vertex  3.000000e+000 -4.000000e+000  0.000000e+000
    endloop
  endfacet
  facet normal -3.826835e-001 -9.238795e-001  0.000000e+000
    outer loop
      vertex -3.673940e-016  2.000000e+000  7.700000e+000
      vertex  1.414214e+000  1.414214e+000  0.000000e+000
      vertex  1.414214e+000  1.414214e+000  7.700000e+000
    endloop
  endfacet
  facet normal -9.238795e-001 -3.826835e-001  -0.000000e+000
    outer loop
      vertex  1.414214e+000  1.414214e+000  7.700000e+000
      vertex  1.414214e+000  1.414214e+000  0.000000e+000
      vertex  2.000000e+000  0.000000e+000  0.000000e+000
    endloop
  endfacet
  facet normal -9.238795e-001 -3.826835e-001  0.000000e+000
    outer loop
      vertex  1.414214e+000  1.414214e+000  7.700000e+000
      vertex  2.000000e+000  0.000000e+000  0.000000e+000
      vertex  2.000000e+000  0.000000e+000  7.700000e+000
    endloop
  endfacet
  facet normal -3.826835e-001 -9.238795e-001  -0.000000e+000
    outer loop
      vertex  1.414214e+000  1.414214e+000  0.000000e+000
      vertex -3.673940e-016  2.000000e+000  7.700000e+000
      vertex -3.673940e-016  2.000000e+000  0.000000e+000
    endloop
  endfacet
  facet normal  3.826835e-001 -9.238795e-001  0.000000e+000
    outer loop
      vertex -3.673940e-016  2.000000e+000  0.000000e+000
      vertex -3.673940e-016  2.000000e+000  7.700000e+000
      vertex -1.414214e+000  1.414214e+000  7.700000e+000
    endloop
  endfacet
  facet normal  3.826835e-001 -9.238795e-001  0.000000e+000
    outer loop
      vertex -3.673940e-016  2.000000e+000  0.000000e+000
      vertex -1.414214e+000  1.414214e+000  7.700000e+000
      vertex -1.414214e+000  1.414214e+000  0.000000e+000
    endloop
  endfacet
  facet normal  9.238795e-001 -3.826835e-001  0.000000e+000
    outer loop
      vertex -1.414214e+000  1.414214e+000  0.000000e+000
      vertex -1.414214e+000  1.414214e+000  7.700000e+000
      vertex -2.000000e+000 -2.449294e-016  7.700000e+000
    endloop
  endfacet
  facet normal  9.238795e-001 -3.826835e-001  0.000000e+000
    outer loop
      vertex -1.414214e+000  1.414214e+000  0.000000e+000
      vertex -2.000000e+000 -2.449294e-016  7.700000e+000
      vertex -2.000000e+000 -2.449294e-016  0.000000e+000
    endloop
  endfacet
  facet normal  3.826835e-001  9.238795e-001  -0.000000e+000
    outer loop
      vertex  1.224647e-016 -2.000000e+000  7.700000e+000
      vertex -1.414214e+000 -1.414214e+000  0.000000e+000
      vertex -1.414214e+000 -1.414214e+000  7.700000e+000
    endloop
  endfacet
  facet normal  9.238795e-001  3.826835e-001  0.000000e+000
    outer loop
      vertex -1.414214e+000 -1.414214e+000  7.700000e+000
      vertex -1.414214e+000 -1.414214e+000  0.000000e+000
      vertex -2.000000e+000 -2.449294e-016  0.000000e+000
    endloop
  endfacet
  facet normal  9.238795e-001  3.826835e-001  -0.000000e+000
    outer loop
      vertex -1.414214e+000 -1.414214e+000  7.700000e+000
      vertex -2.000000e+000 -2.449294e-016  0.000000e+000
      vertex -2.000000e+000 -2.449294e-016  7.700000e+000
    endloop
  endfacet
  facet normal  3.826835e-001  9.238795e-001  0.000000e+000
    outer loop
      vertex -1.414214e+000 -1.414214e+000  0.000000e+000
      vertex  1.224647e-016 -2.000000e+000  7.700000e+000
      vertex  1.224647e-016 -2.000000e+000  0.000000e+000
    endloop
  endfacet
  facet normal -3.826835e-001  9.238795e-001  0.000000e+000
    outer loop
      vertex  1.224647e-016 -2.000000e+000  0.000000e+000
      vertex  1.224647e-016 -2.000000e+000  7.700000e+000
      vertex  1.414214e+000 -1.414214e+000  7.700000e+000
    endloop
  endfacet
  facet normal -3.826835e-001  9.238795e-001  0.000000e+000
    outer loop
      vertex  1.224647e-016 -2.000000e+000  0.000000e+000
      vertex  1.414214e+000 -1.414214e+000  7.700000e+000
      vertex  1.414214e+000 -1.414214e+000  0.000000e+000
    endloop
  endfacet
  facet normal -9.238795e-001  3.826835e-001  0.000000e+000
    outer loop
      vertex  1.414214e+000 -1.414214e+000  0.000000e+000
      vertex  1.414214e+000 -1.414214e+000  7.700000e+000
      vertex  2.000000e+000  0.000000e+000  7.700000e+000
    endloop
  endfacet
  facet normal -9.238795e-001  3.826835e-001  0.000000e+000
    outer loop
      vertex  1.414214e+000 -1.414214e+000  0.000000e+000
      vertex  2.000000e+000  0.000000e+000  7.700000e+000
      vertex  2.000000e+000  0.000000e+000  0.000000e+000
    endloop
  endfacet
  facet normal  -0.000000e+000  0.000000e+000 -9.999999e-001
    outer loop
      vertex -1.414214e+000 -1.414214e+000  7.700000e+000
      vertex  1.414214e+000 -1.414214e+000  7.700000e+000
      vertex  1.224647e-016 -2.000000e+000  7.700000e+000
    endloop
  endfacet
  facet normal  0.000000e+000  0.000000e+000 -1.000000e+000
    outer loop
      vertex  1.414214e+000 -1.414214e+000  7.700000e+000
      vertex -1.414214e+000 -1.414214e+000  7.700000e+000
      vertex  2.000000e+000  0.000000e+000  7.700000e+000
    endloop
  endfacet
  facet normal  0.000000e+000  0.000000e+000 -9.999999e-001
    outer loop
      vertex  2.000000e+000  0.000000e+000  7.700000e+000
      vertex -1.414214e+000 -1.414214e+000  7.700000e+000
      vertex -2.000000e+000 -2.449294e-016  7.700000e+000
    endloop
  endfacet
  facet normal  0.000000e+000  0.000000e+000 -9.999999e-001
    outer loop
      vertex  2.000000e+000  0.000000e+000  7.700000e+000
      vertex -2.000000e+000 -2.449294e-016  7.700000e+000
      vertex  1.414214e+000  1.414214e+000  7.700000e+000
    endloop
  endfacet
  facet normal  -0.000000e+000  0.000000e+000 -1.000000e+000
    outer loop
      vertex  1.414214e+000  1.414214e+000  7.700000e+000
      vertex -2.000000e+000 -2.449294e-016  7.700000e+000
      vertex -1.414214e+000  1.414214e+000  7.700000e+000
    endloop
  endfacet
  facet normal  0.000000e+000  0.000000e+000 -9.999999e-001
    outer loop
      vertex  1.414214e+000  1.414214e+000  7.700000e+000
      vertex -1.414214e+000  1.414214e+000  7.700000e+000
      vertex -3.673940e-016  2.000000e+000  7.700000e+000
    endloop
  endfacet
  facet normal  0.000000e+000  0.000000e+000  1.000000e+000
    outer loop
      vertex  3.000000e+000 -4.000000e+000  1.500000e+001
      vertex  4.657713e+000 -1.818160e+000  1.500000e+001
      vertex  4.440892e-016 -4.000000e+000  1.500000e+001
    endloop
  endfacet
  facet normal  -0.000000e+000  0.000000e+000  1.000000e+000
    outer loop
      vertex  1.370077e+000  4.808627e+000  1.500000e+001
      vertex -1.370077e+000  4.808627e+000  1.500000e+001
      vertex  3.698745e+000  3.364415e+000  1.500000e+001
    endloop
  endfacet
  facet normal  0.000000e+000  0.000000e+000  1.000000e+000
    outer loop
      vertex  3.698745e+000  3.364415e+000  1.500000e+001
      vertex -1.370077e+000  4.808627e+000  1.500000e+001
      vertex -3.698745e+000  3.364415e+000  1.500000e+001
    endloop
  endfacet
  facet normal  -0.000000e+000  0.000000e+000  1.000000e+000
    outer loop
      vertex  3.698745e+000  3.364415e+000  1.500000e+001
      vertex -3.698745e+000  3.364415e+000  1.500000e+001
      vertex  4.916540e+000  9.097426e-001  1.500000e+001
    endloop
  endfacet
  facet normal  0.000000e+000  0.000000e+000  1.000000e+000
    outer loop
      vertex  4.916540e+000  9.097426e-001  1.500000e+001
      vertex -3.698745e+000  3.364415e+000  1.500000e+001
      vertex -4.916540e+000  9.097426e-001  1.500000e+001
    endloop
  endfacet
  facet normal  -0.000000e+000  0.000000e+000  1.000000e+000
    outer loop
      vertex  4.916540e+000  9.097426e-001  1.500000e+001
      vertex -4.916540e+000  9.097426e-001  1.500000e+001
      vertex  4.657713e+000 -1.818160e+000  1.500000e+001
    endloop
  endfacet
  facet normal  0.000000e+000  0.000000e+000  1.000000e+000
    outer loop
      vertex  4.657713e+000 -1.818160e+000  1.500000e+001
      vertex -4.916540e+000  9.097426e-001  1.500000e+001
      vertex -4.657713e+000 -1.818160e+000  1.500000e+001
    endloop
  endfacet
  facet normal  -0.000000e+000  0.000000e+000  1.000000e+000
    outer loop
      vertex  4.657713e+000 -1.818160e+000  1.500000e+001
      vertex -4.657713e+000 -1.818160e+000  1.500000e+001
      vertex  4.440892e-016 -4.000000e+000  1.500000e+001
    endloop
  endfacet
  facet normal  0.000000e+000  0.000000e+000  1.000000e+000
    outer loop
      vertex  4.440892e-016 -4.000000e+000  1.500000e+001
      vertex -4.657713e+000 -1.818160e+000  1.500000e+001
      vertex -3.000000e+000 -4.000000e+000  1.500000e+001
    endloop
  endfacet
  facet normal -7.962475e-001 -6.049711e-001  -0.000000e+000
    outer loop
      vertex -3.000000e+000 -4.000000e+000  0.000000e+000
      vertex -3.000000e+000 -4.000000e+000  1.500000e+001
      vertex -4.657713e+000 -1.818160e+000  0.000000e+000
    endloop
  endfacet
  facet normal -7.962475e-001 -6.049711e-001  0.000000e+000
    outer loop
      vertex -4.657713e+000 -1.818160e+000  0.000000e+000
      vertex -3.000000e+000 -4.000000e+000  1.500000e+001
      vertex -4.657713e+000 -1.818160e+000  1.500000e+001
    endloop
  endfacet
  facet normal -9.955290e-001 -9.445702e-002  -0.000000e+000
    outer loop
      vertex -4.657713e+000 -1.818160e+000  0.000000e+000
      vertex -4.657713e+000 -1.818160e+000  1.500000e+001
      vertex -4.916540e+000  9.097426e-001  0.000000e+000
    endloop
  endfacet
  facet normal -9.955290e-001 -9.445702e-002  0.000000e+000
    outer loop
      vertex -4.916540e+000  9.097426e-001  0.000000e+000
      vertex -4.657713e+000 -1.818160e+000  1.500000e+001
      vertex -4.916540e+000  9.097426e-001  1.500000e+001
    endloop
  endfacet
  facet normal -8.958156e-001  4.444259e-001  0.000000e+000
    outer loop
      vertex -4.916540e+000  9.097426e-001  0.000000e+000
      vertex -4.916540e+000  9.097426e-001  1.500000e+001
      vertex -3.698745e+000  3.364415e+000  0.000000e+000
    endloop
  endfacet
  facet normal -8.958156e-001  4.444259e-001  0.000000e+000
    outer loop
      vertex -3.698745e+000  3.364415e+000  0.000000e+000
      vertex -4.916540e+000  9.097426e-001  1.500000e+001
      vertex -3.698745e+000  3.364415e+000  1.500000e+001
    endloop
  endfacet
  facet normal -5.270549e-001  8.498311e-001  0.000000e+000
    outer loop
      vertex -3.698745e+000  3.364415e+000  0.000000e+000
      vertex -3.698745e+000  3.364415e+000  1.500000e+001
      vertex -1.370077e+000  4.808627e+000  0.000000e+000
    endloop
  endfacet
  facet normal -5.270549e-001  8.498311e-001  0.000000e+000
    outer loop
      vertex -1.370077e+000  4.808627e+000  0.000000e+000
      vertex -3.698745e+000  3.364415e+000  1.500000e+001
      vertex -1.370077e+000  4.808627e+000  1.500000e+001
    endloop
  endfacet
  facet normal  0.000000e+000  1.000000e+000  0.000000e+000
    outer loop
      vertex -1.370077e+000  4.808627e+000  0.000000e+000
      vertex -1.370077e+000  4.808627e+000  1.500000e+001
      vertex  1.370077e+000  4.808627e+000  0.000000e+000
    endloop
  endfacet
  facet normal  0.000000e+000  1.000000e+000  -0.000000e+000
    outer loop
      vertex  1.370077e+000  4.808627e+000  0.000000e+000
      vertex -1.370077e+000  4.808627e+000  1.500000e+001
      vertex  1.370077e+000  4.808627e+000  1.500000e+001
    endloop
  endfacet
  facet normal  5.270549e-001  8.498311e-001  0.000000e+000
    outer loop
      vertex  1.370077e+000  4.808627e+000  0.000000e+000
      vertex  1.370077e+000  4.808627e+000  1.500000e+001
      vertex  3.698745e+000  3.364415e+000  0.000000e+000
    endloop
  endfacet
  facet normal  5.270549e-001  8.498311e-001  -0.000000e+000
    outer loop
      vertex  3.698745e+000  3.364415e+000  0.000000e+000
      vertex  1.370077e+000  4.808627e+000  1.500000e+001
      vertex  3.698745e+000  3.364415e+000  1.500000e+001
    endloop
  endfacet
  facet normal  8.958156e-001  4.444259e-001  0.000000e+000
    outer loop
      vertex  3.698745e+000  3.364415e+000  0.000000e+000
      vertex  3.698745e+000  3.364415e+000  1.500000e+001
      vertex  4.916540e+000  9.097426e-001  0.000000e+000
    endloop
  endfacet
  facet normal  8.958156e-001  4.444259e-001  -0.000000e+000
    outer loop
      vertex  4.916540e+000  9.097426e-001  0.000000e+000
      vertex  3.698745e+000  3.364415e+000  1.500000e+001
      vertex  4.916540e+000  9.097426e-001  1.500000e+001
    endloop
  endfacet
  facet normal  9.955290e-001 -9.445702e-002  0.000000e+000
    outer loop
      vertex  4.916540e+000  9.097426e-001  0.000000e+000
      vertex  4.916540e+000  9.097426e-001  1.500000e+001
      vertex  4.657713e+000 -1.818160e+000  0.000000e+000
    endloop
  endfacet
  facet normal  9.955290e-001 -9.445702e-002  0.000000e+000
    outer loop
      vertex  4.657713e+000 -1.818160e+000  0.000000e+000
      vertex  4.916540e+000  9.097426e-001  1.500000e+001
      vertex  4.657713e+000 -1.818160e+000  1.500000e+001
    endloop
  endfacet
  facet normal  7.962475e-001 -6.049711e-001  0.000000e+000
    outer loop
      vertex  4.657713e+000 -1.818160e+000  0.000000e+000
      vertex  4.657713e+000 -1.818160e+000  1.500000e+001
      vertex  3.000000e+000 -4.000000e+000  0.000000e+000
    endloop
  endfacet
  facet normal  7.962475e-001 -6.049711e-001  0.000000e+000
    outer loop
      vertex  3.000000e+000 -4.000000e+000  0.000000e+000
      vertex  4.657713e+000 -1.818160e+000  1.500000e+001
      vertex  3.000000e+000 -4.000000e+000  1.500000e+001
    endloop
  endfacet
endsolid CATIA STL
