solid CATIA STL
  facet normal  1.000000e+000  0.000000e+000  0.000000e+000
    outer loop
      vertex  3.000000e+000  1.450000e+001  2.921022e+000
      vertex  3.000000e+000  1.356066e+001  1.161036e+001
      vertex  3.000000e+000  1.250000e+001  1.117102e+001
    endloop
  endfacet
  facet normal  1.000000e+000  0.000000e+000  0.000000e+000
    outer loop
      vertex  3.000000e+000  1.450000e+001  2.921022e+000
      vertex  3.000000e+000  1.400000e+001  1.267102e+001
      vertex  3.000000e+000  1.356066e+001  1.161036e+001
    endloop
  endfacet
  facet normal  1.000000e+000  0.000000e+000  0.000000e+000
    outer loop
      vertex  3.000000e+000 -1.450000e+001  2.921022e+000
      vertex  3.000000e+000 -1.250000e+001  1.117102e+001
      vertex  3.000000e+000 -1.356066e+001  1.161036e+001
    endloop
  endfacet
  facet normal  1.000000e+000  0.000000e+000  0.000000e+000
    outer loop
      vertex  3.000000e+000 -1.450000e+001  2.921022e+000
      vertex  3.000000e+000 -1.356066e+001  1.161036e+001
      vertex  3.000000e+000 -1.400000e+001  1.267102e+001
    endloop
  endfacet
  facet normal  1.000000e+000  0.000000e+000  0.000000e+000
    outer loop
      vertex  3.000000e+000 -1.450000e+001  2.921022e+000
      vertex  3.000000e+000 -1.400000e+001  1.267102e+001
      vertex  3.000000e+000 -1.450000e+001  1.942102e+001
    endloop
  endfacet
  facet normal  9.999999e-001  0.000000e+000  0.000000e+000
    outer loop
      vertex  3.000000e+000 -1.050000e+001  6.921022e+000
      vertex  3.000000e+000 -1.100000e+001  1.267102e+001
      vertex  3.000000e+000 -1.143934e+001  1.161036e+001
    endloop
  endfacet
  facet normal  9.999999e-001  0.000000e+000  0.000000e+000
    outer loop
      vertex  3.000000e+000 -1.050000e+001  6.921022e+000
      vertex  3.000000e+000 -1.143934e+001  1.161036e+001
      vertex  3.000000e+000 -1.250000e+001  1.117102e+001
    endloop
  endfacet
  facet normal  1.000000e+000  0.000000e+000  0.000000e+000
    outer loop
      vertex  3.000000e+000 -1.050000e+001  6.921022e+000
      vertex  3.000000e+000 -1.250000e+001  1.117102e+001
      vertex  3.000000e+000 -1.450000e+001  2.921022e+000
    endloop
  endfacet
  facet normal  1.000000e+000  0.000000e+000  0.000000e+000
    outer loop
      vertex  3.000000e+000 -1.050000e+001  6.921022e+000
      vertex  3.000000e+000 -1.450000e+001  2.921022e+000
      vertex  3.000000e+000  1.450000e+001  2.921022e+000
    endloop
  endfacet
  facet normal  1.000000e+000  0.000000e+000  0.000000e+000
    outer loop
      vertex  3.000000e+000 -1.050000e+001  6.921022e+000
      vertex  3.000000e+000  1.450000e+001  2.921022e+000
      vertex  3.000000e+000  1.050000e+001  6.921022e+000
    endloop
  endfacet
  facet normal  1.000000e+000  0.000000e+000  0.000000e+000
    outer loop
      vertex  3.000000e+000  1.050000e+001  6.921022e+000
      vertex  3.000000e+000  1.450000e+001  2.921022e+000
      vertex  3.000000e+000  1.250000e+001  1.117102e+001
    endloop
  endfacet
  facet normal  9.999999e-001  0.000000e+000  0.000000e+000
    outer loop
      vertex  3.000000e+000  1.050000e+001  6.921022e+000
      vertex  3.000000e+000  1.250000e+001  1.117102e+001
      vertex  3.000000e+000  1.143934e+001  1.161036e+001
    endloop
  endfacet
  facet normal  9.999999e-001  0.000000e+000  0.000000e+000
    outer loop
      vertex  3.000000e+000  1.050000e+001  6.921022e+000
      vertex  3.000000e+000  1.143934e+001  1.161036e+001
      vertex  3.000000e+000  1.100000e+001  1.267102e+001
    endloop
  endfacet
  facet normal  1.000000e+000  0.000000e+000  0.000000e+000
    outer loop
      vertex  3.000000e+000  1.050000e+001  6.921022e+000
      vertex  3.000000e+000  1.100000e+001  1.267102e+001
      vertex  3.000000e+000  1.050000e+001  1.942102e+001
    endloop
  endfacet
  facet normal  1.000000e+000  0.000000e+000  -0.000000e+000
    outer loop
      vertex  3.000000e+000  1.050000e+001  1.942102e+001
      vertex  3.000000e+000  1.100000e+001  1.267102e+001
      vertex  3.000000e+000  1.143934e+001  1.373168e+001
    endloop
  endfacet
  facet normal  1.000000e+000  0.000000e+000  -0.000000e+000
    outer loop
      vertex  3.000000e+000  1.050000e+001  1.942102e+001
      vertex  3.000000e+000  1.143934e+001  1.373168e+001
      vertex  3.000000e+000  1.250000e+001  1.417102e+001
    endloop
  endfacet
  facet normal  1.000000e+000  0.000000e+000  -0.000000e+000
    outer loop
      vertex  3.000000e+000  1.050000e+001  1.942102e+001
      vertex  3.000000e+000  1.250000e+001  1.417102e+001
      vertex  3.000000e+000  1.450000e+001  1.942102e+001
    endloop
  endfacet
  facet normal  1.000000e+000  0.000000e+000  -0.000000e+000
    outer loop
      vertex  3.000000e+000 -1.450000e+001  1.942102e+001
      vertex  3.000000e+000 -1.400000e+001  1.267102e+001
      vertex  3.000000e+000 -1.356066e+001  1.373168e+001
    endloop
  endfacet
  facet normal  1.000000e+000  0.000000e+000  -0.000000e+000
    outer loop
      vertex  3.000000e+000 -1.450000e+001  1.942102e+001
      vertex  3.000000e+000 -1.356066e+001  1.373168e+001
      vertex  3.000000e+000 -1.250000e+001  1.417102e+001
    endloop
  endfacet
  facet normal  1.000000e+000  0.000000e+000  -0.000000e+000
    outer loop
      vertex  3.000000e+000 -1.450000e+001  1.942102e+001
      vertex  3.000000e+000 -1.250000e+001  1.417102e+001
      vertex  3.000000e+000 -1.050000e+001  1.942102e+001
    endloop
  endfacet
  facet normal  1.000000e+000  -0.000000e+000  0.000000e+000
    outer loop
      vertex  3.000000e+000 -1.050000e+001  1.942102e+001
      vertex  3.000000e+000 -1.250000e+001  1.417102e+001
      vertex  3.000000e+000 -1.143934e+001  1.373168e+001
    endloop
  endfacet
  facet normal  1.000000e+000  -0.000000e+000  0.000000e+000
    outer loop
      vertex  3.000000e+000 -1.050000e+001  1.942102e+001
      vertex  3.000000e+000 -1.143934e+001  1.373168e+001
      vertex  3.000000e+000 -1.100000e+001  1.267102e+001
    endloop
  endfacet
  facet normal  1.000000e+000  -0.000000e+000  0.000000e+000
    outer loop
      vertex  3.000000e+000 -1.050000e+001  1.942102e+001
      vertex  3.000000e+000 -1.100000e+001  1.267102e+001
      vertex  3.000000e+000 -1.050000e+001  6.921022e+000
    endloop
  endfacet
  facet normal  1.000000e+000  -0.000000e+000  0.000000e+000
    outer loop
      vertex  3.000000e+000  1.450000e+001  1.942102e+001
      vertex  3.000000e+000  1.250000e+001  1.417102e+001
      vertex  3.000000e+000  1.356066e+001  1.373168e+001
    endloop
  endfacet
  facet normal  1.000000e+000  -0.000000e+000  0.000000e+000
    outer loop
      vertex  3.000000e+000  1.450000e+001  1.942102e+001
      vertex  3.000000e+000  1.356066e+001  1.373168e+001
      vertex  3.000000e+000  1.400000e+001  1.267102e+001
    endloop
  endfacet
  facet normal  1.000000e+000  -0.000000e+000  0.000000e+000
    outer loop
      vertex  3.000000e+000  1.450000e+001  1.942102e+001
      vertex  3.000000e+000  1.400000e+001  1.267102e+001
      vertex  3.000000e+000  1.450000e+001  2.921022e+000
    endloop
  endfacet
  facet normal -9.999999e-001  -0.000000e+000  0.000000e+000
    outer loop
      vertex  0.000000e+000  1.100000e+001  1.267102e+001
      vertex  0.000000e+000  1.143934e+001  1.161036e+001
      vertex  0.000000e+000  1.050000e+001  6.921022e+000
    endloop
  endfacet
  facet normal -9.999999e-001  -0.000000e+000  0.000000e+000
    outer loop
      vertex  0.000000e+000  1.143934e+001  1.161036e+001
      vertex  0.000000e+000  1.250000e+001  1.117102e+001
      vertex  0.000000e+000  1.050000e+001  6.921022e+000
    endloop
  endfacet
  facet normal -9.999999e-001  0.000000e+000  -0.000000e+000
    outer loop
      vertex  0.000000e+000 -1.250000e+001  1.117102e+001
      vertex  0.000000e+000 -1.143934e+001  1.161036e+001
      vertex  0.000000e+000 -1.050000e+001  6.921022e+000
    endloop
  endfacet
  facet normal -9.999999e-001  0.000000e+000  -0.000000e+000
    outer loop
      vertex  0.000000e+000 -1.143934e+001  1.161036e+001
      vertex  0.000000e+000 -1.100000e+001  1.267102e+001
      vertex  0.000000e+000 -1.050000e+001  6.921022e+000
    endloop
  endfacet
  facet normal -1.000000e+000  0.000000e+000  0.000000e+000
    outer loop
      vertex  0.000000e+000  1.450000e+001  2.921022e+000
      vertex  0.000000e+000 -1.450000e+001  2.921022e+000
      vertex  0.000000e+000 -1.050000e+001  6.921022e+000
    endloop
  endfacet
  facet normal -1.000000e+000  0.000000e+000  0.000000e+000
    outer loop
      vertex  0.000000e+000  1.450000e+001  2.921022e+000
      vertex  0.000000e+000 -1.050000e+001  6.921022e+000
      vertex  0.000000e+000  1.050000e+001  6.921022e+000
    endloop
  endfacet
  facet normal -1.000000e+000  0.000000e+000  0.000000e+000
    outer loop
      vertex  0.000000e+000  1.450000e+001  2.921022e+000
      vertex  0.000000e+000  1.050000e+001  6.921022e+000
      vertex  0.000000e+000  1.250000e+001  1.117102e+001
    endloop
  endfacet
  facet normal -1.000000e+000  0.000000e+000  0.000000e+000
    outer loop
      vertex  0.000000e+000  1.450000e+001  2.921022e+000
      vertex  0.000000e+000  1.250000e+001  1.117102e+001
      vertex  0.000000e+000  1.356066e+001  1.161036e+001
    endloop
  endfacet
  facet normal -1.000000e+000  0.000000e+000  0.000000e+000
    outer loop
      vertex  0.000000e+000  1.450000e+001  2.921022e+000
      vertex  0.000000e+000  1.356066e+001  1.161036e+001
      vertex  0.000000e+000  1.400000e+001  1.267102e+001
    endloop
  endfacet
  facet normal -1.000000e+000  0.000000e+000  0.000000e+000
    outer loop
      vertex  0.000000e+000 -1.450000e+001  2.921022e+000
      vertex  0.000000e+000 -1.450000e+001  2.242102e+001
      vertex  0.000000e+000 -1.400000e+001  1.267102e+001
    endloop
  endfacet
  facet normal -1.000000e+000  0.000000e+000  -0.000000e+000
    outer loop
      vertex  0.000000e+000 -1.450000e+001  2.921022e+000
      vertex  0.000000e+000 -1.400000e+001  1.267102e+001
      vertex  0.000000e+000 -1.356066e+001  1.161036e+001
    endloop
  endfacet
  facet normal -1.000000e+000  0.000000e+000  -0.000000e+000
    outer loop
      vertex  0.000000e+000 -1.450000e+001  2.921022e+000
      vertex  0.000000e+000 -1.356066e+001  1.161036e+001
      vertex  0.000000e+000 -1.250000e+001  1.117102e+001
    endloop
  endfacet
  facet normal -1.000000e+000  0.000000e+000  -0.000000e+000
    outer loop
      vertex  0.000000e+000 -1.450000e+001  2.921022e+000
      vertex  0.000000e+000 -1.250000e+001  1.117102e+001
      vertex  0.000000e+000 -1.050000e+001  6.921022e+000
    endloop
  endfacet
  facet normal -1.000000e+000  -0.000000e+000  0.000000e+000
    outer loop
      vertex  0.000000e+000 -1.450000e+001  2.242102e+001
      vertex  0.000000e+000 -1.050000e+001  2.242102e+001
      vertex  0.000000e+000 -1.250000e+001  1.417102e+001
    endloop
  endfacet
  facet normal -1.000000e+000  -0.000000e+000  0.000000e+000
    outer loop
      vertex  0.000000e+000 -1.450000e+001  2.242102e+001
      vertex  0.000000e+000 -1.250000e+001  1.417102e+001
      vertex  0.000000e+000 -1.356066e+001  1.373168e+001
    endloop
  endfacet
  facet normal -1.000000e+000  -0.000000e+000  0.000000e+000
    outer loop
      vertex  0.000000e+000 -1.450000e+001  2.242102e+001
      vertex  0.000000e+000 -1.356066e+001  1.373168e+001
      vertex  0.000000e+000 -1.400000e+001  1.267102e+001
    endloop
  endfacet
  facet normal -1.000000e+000  -0.000000e+000  0.000000e+000
    outer loop
      vertex  0.000000e+000  1.050000e+001  2.242102e+001
      vertex  0.000000e+000  1.450000e+001  2.242102e+001
      vertex  0.000000e+000  1.250000e+001  1.417102e+001
    endloop
  endfacet
  facet normal -1.000000e+000  -0.000000e+000  0.000000e+000
    outer loop
      vertex  0.000000e+000  1.050000e+001  2.242102e+001
      vertex  0.000000e+000  1.250000e+001  1.417102e+001
      vertex  0.000000e+000  1.143934e+001  1.373168e+001
    endloop
  endfacet
  facet normal -1.000000e+000  -0.000000e+000  0.000000e+000
    outer loop
      vertex  0.000000e+000  1.050000e+001  2.242102e+001
      vertex  0.000000e+000  1.143934e+001  1.373168e+001
      vertex  0.000000e+000  1.100000e+001  1.267102e+001
    endloop
  endfacet
  facet normal -1.000000e+000  -0.000000e+000  0.000000e+000
    outer loop
      vertex  0.000000e+000  1.050000e+001  2.242102e+001
      vertex  0.000000e+000  1.100000e+001  1.267102e+001
      vertex  0.000000e+000  1.050000e+001  6.921022e+000
    endloop
  endfacet
  facet normal -1.000000e+000  0.000000e+000  0.000000e+000
    outer loop
      vertex  0.000000e+000 -1.050000e+001  2.242102e+001
      vertex  0.000000e+000 -1.050000e+001  6.921022e+000
      vertex  0.000000e+000 -1.100000e+001  1.267102e+001
    endloop
  endfacet
  facet normal -1.000000e+000  0.000000e+000  0.000000e+000
    outer loop
      vertex  0.000000e+000 -1.050000e+001  2.242102e+001
      vertex  0.000000e+000 -1.100000e+001  1.267102e+001
      vertex  0.000000e+000 -1.143934e+001  1.373168e+001
    endloop
  endfacet
  facet normal -1.000000e+000  0.000000e+000  0.000000e+000
    outer loop
      vertex  0.000000e+000 -1.050000e+001  2.242102e+001
      vertex  0.000000e+000 -1.143934e+001  1.373168e+001
      vertex  0.000000e+000 -1.250000e+001  1.417102e+001
    endloop
  endfacet
  facet normal -1.000000e+000  0.000000e+000  0.000000e+000
    outer loop
      vertex  0.000000e+000  1.450000e+001  2.242102e+001
      vertex  0.000000e+000  1.450000e+001  2.921022e+000
      vertex  0.000000e+000  1.400000e+001  1.267102e+001
    endloop
  endfacet
  facet normal -1.000000e+000  0.000000e+000  0.000000e+000
    outer loop
      vertex  0.000000e+000  1.450000e+001  2.242102e+001
      vertex  0.000000e+000  1.400000e+001  1.267102e+001
      vertex  0.000000e+000  1.356066e+001  1.373168e+001
    endloop
  endfacet
  facet normal -1.000000e+000  0.000000e+000  0.000000e+000
    outer loop
      vertex  0.000000e+000  1.450000e+001  2.242102e+001
      vertex  0.000000e+000  1.356066e+001  1.373168e+001
      vertex  0.000000e+000  1.250000e+001  1.417102e+001
    endloop
  endfacet
  facet normal  0.000000e+000  3.826832e-001 -9.238796e-001
    outer loop
      vertex  0.000000e+000  1.250000e+001  1.417102e+001
      vertex  3.000000e+000  1.143934e+001  1.373168e+001
      vertex  0.000000e+000  1.143934e+001  1.373168e+001
    endloop
  endfacet
  facet normal  0.000000e+000  9.238796e-001 -3.826832e-001
    outer loop
      vertex  0.000000e+000  1.143934e+001  1.373168e+001
      vertex  3.000000e+000  1.143934e+001  1.373168e+001
      vertex  3.000000e+000  1.100000e+001  1.267102e+001
    endloop
  endfacet
  facet normal  0.000000e+000  9.238796e-001 -3.826832e-001
    outer loop
      vertex  0.000000e+000  1.143934e+001  1.373168e+001
      vertex  3.000000e+000  1.100000e+001  1.267102e+001
      vertex  0.000000e+000  1.100000e+001  1.267102e+001
    endloop
  endfacet
  facet normal  0.000000e+000  3.826832e-001 -9.238796e-001
    outer loop
      vertex  3.000000e+000  1.143934e+001  1.373168e+001
      vertex  0.000000e+000  1.250000e+001  1.417102e+001
      vertex  3.000000e+000  1.250000e+001  1.417102e+001
    endloop
  endfacet
  facet normal  -0.000000e+000 -3.826832e-001 -9.238796e-001
    outer loop
      vertex  3.000000e+000  1.250000e+001  1.417102e+001
      vertex  0.000000e+000  1.250000e+001  1.417102e+001
      vertex  0.000000e+000  1.356066e+001  1.373168e+001
    endloop
  endfacet
  facet normal  0.000000e+000 -3.826832e-001 -9.238796e-001
    outer loop
      vertex  3.000000e+000  1.250000e+001  1.417102e+001
      vertex  0.000000e+000  1.356066e+001  1.373168e+001
      vertex  3.000000e+000  1.356066e+001  1.373168e+001
    endloop
  endfacet
  facet normal  -0.000000e+000 -9.238796e-001 -3.826832e-001
    outer loop
      vertex  3.000000e+000  1.356066e+001  1.373168e+001
      vertex  0.000000e+000  1.356066e+001  1.373168e+001
      vertex  0.000000e+000  1.400000e+001  1.267102e+001
    endloop
  endfacet
  facet normal  0.000000e+000 -9.238796e-001 -3.826832e-001
    outer loop
      vertex  3.000000e+000  1.356066e+001  1.373168e+001
      vertex  0.000000e+000  1.400000e+001  1.267102e+001
      vertex  3.000000e+000  1.400000e+001  1.267102e+001
    endloop
  endfacet
  facet normal  0.000000e+000 -3.826832e-001  9.238796e-001
    outer loop
      vertex  0.000000e+000  1.250000e+001  1.117102e+001
      vertex  3.000000e+000  1.356066e+001  1.161036e+001
      vertex  0.000000e+000  1.356066e+001  1.161036e+001
    endloop
  endfacet
  facet normal  0.000000e+000 -9.238796e-001  3.826832e-001
    outer loop
      vertex  0.000000e+000  1.356066e+001  1.161036e+001
      vertex  3.000000e+000  1.356066e+001  1.161036e+001
      vertex  3.000000e+000  1.400000e+001  1.267102e+001
    endloop
  endfacet
  facet normal  0.000000e+000 -9.238796e-001  3.826832e-001
    outer loop
      vertex  0.000000e+000  1.356066e+001  1.161036e+001
      vertex  3.000000e+000  1.400000e+001  1.267102e+001
      vertex  0.000000e+000  1.400000e+001  1.267102e+001
    endloop
  endfacet
  facet normal  0.000000e+000 -3.826832e-001  9.238796e-001
    outer loop
      vertex  3.000000e+000  1.356066e+001  1.161036e+001
      vertex  0.000000e+000  1.250000e+001  1.117102e+001
      vertex  3.000000e+000  1.250000e+001  1.117102e+001
    endloop
  endfacet
  facet normal  0.000000e+000  3.826832e-001  9.238796e-001
    outer loop
      vertex  3.000000e+000  1.250000e+001  1.117102e+001
      vertex  0.000000e+000  1.250000e+001  1.117102e+001
      vertex  0.000000e+000  1.143934e+001  1.161036e+001
    endloop
  endfacet
  facet normal  -0.000000e+000  3.826832e-001  9.238796e-001
    outer loop
      vertex  3.000000e+000  1.250000e+001  1.117102e+001
      vertex  0.000000e+000  1.143934e+001  1.161036e+001
      vertex  3.000000e+000  1.143934e+001  1.161036e+001
    endloop
  endfacet
  facet normal  0.000000e+000  9.238796e-001  3.826832e-001
    outer loop
      vertex  3.000000e+000  1.143934e+001  1.161036e+001
      vertex  0.000000e+000  1.143934e+001  1.161036e+001
      vertex  0.000000e+000  1.100000e+001  1.267102e+001
    endloop
  endfacet
  facet normal  -0.000000e+000  9.238796e-001  3.826832e-001
    outer loop
      vertex  3.000000e+000  1.143934e+001  1.161036e+001
      vertex  0.000000e+000  1.100000e+001  1.267102e+001
      vertex  3.000000e+000  1.100000e+001  1.267102e+001
    endloop
  endfacet
  facet normal  0.000000e+000  3.826832e-001 -9.238796e-001
    outer loop
      vertex  0.000000e+000 -1.250000e+001  1.417102e+001
      vertex  3.000000e+000 -1.356066e+001  1.373168e+001
      vertex  0.000000e+000 -1.356066e+001  1.373168e+001
    endloop
  endfacet
  facet normal  0.000000e+000  9.238796e-001 -3.826832e-001
    outer loop
      vertex  0.000000e+000 -1.356066e+001  1.373168e+001
      vertex  3.000000e+000 -1.356066e+001  1.373168e+001
      vertex  3.000000e+000 -1.400000e+001  1.267102e+001
    endloop
  endfacet
  facet normal  0.000000e+000  9.238796e-001 -3.826832e-001
    outer loop
      vertex  0.000000e+000 -1.356066e+001  1.373168e+001
      vertex  3.000000e+000 -1.400000e+001  1.267102e+001
      vertex  0.000000e+000 -1.400000e+001  1.267102e+001
    endloop
  endfacet
  facet normal  0.000000e+000  3.826832e-001 -9.238796e-001
    outer loop
      vertex  3.000000e+000 -1.356066e+001  1.373168e+001
      vertex  0.000000e+000 -1.250000e+001  1.417102e+001
      vertex  3.000000e+000 -1.250000e+001  1.417102e+001
    endloop
  endfacet
  facet normal  -0.000000e+000 -3.826832e-001 -9.238796e-001
    outer loop
      vertex  3.000000e+000 -1.250000e+001  1.417102e+001
      vertex  0.000000e+000 -1.250000e+001  1.417102e+001
      vertex  0.000000e+000 -1.143934e+001  1.373168e+001
    endloop
  endfacet
  facet normal  0.000000e+000 -3.826832e-001 -9.238796e-001
    outer loop
      vertex  3.000000e+000 -1.250000e+001  1.417102e+001
      vertex  0.000000e+000 -1.143934e+001  1.373168e+001
      vertex  3.000000e+000 -1.143934e+001  1.373168e+001
    endloop
  endfacet
  facet normal  -0.000000e+000 -9.238796e-001 -3.826832e-001
    outer loop
      vertex  3.000000e+000 -1.143934e+001  1.373168e+001
      vertex  0.000000e+000 -1.143934e+001  1.373168e+001
      vertex  0.000000e+000 -1.100000e+001  1.267102e+001
    endloop
  endfacet
  facet normal  0.000000e+000 -9.238796e-001 -3.826832e-001
    outer loop
      vertex  3.000000e+000 -1.143934e+001  1.373168e+001
      vertex  0.000000e+000 -1.100000e+001  1.267102e+001
      vertex  3.000000e+000 -1.100000e+001  1.267102e+001
    endloop
  endfacet
  facet normal  0.000000e+000 -3.826832e-001  9.238796e-001
    outer loop
      vertex  0.000000e+000 -1.250000e+001  1.117102e+001
      vertex  3.000000e+000 -1.143934e+001  1.161036e+001
      vertex  0.000000e+000 -1.143934e+001  1.161036e+001
    endloop
  endfacet
  facet normal  0.000000e+000 -9.238796e-001  3.826832e-001
    outer loop
      vertex  0.000000e+000 -1.143934e+001  1.161036e+001
      vertex  3.000000e+000 -1.143934e+001  1.161036e+001
      vertex  3.000000e+000 -1.100000e+001  1.267102e+001
    endloop
  endfacet
  facet normal  0.000000e+000 -9.238796e-001  3.826832e-001
    outer loop
      vertex  0.000000e+000 -1.143934e+001  1.161036e+001
      vertex  3.000000e+000 -1.100000e+001  1.267102e+001
      vertex  0.000000e+000 -1.100000e+001  1.267102e+001
    endloop
  endfacet
  facet normal  0.000000e+000 -3.826832e-001  9.238796e-001
    outer loop
      vertex  3.000000e+000 -1.143934e+001  1.161036e+001
      vertex  0.000000e+000 -1.250000e+001  1.117102e+001
      vertex  3.000000e+000 -1.250000e+001  1.117102e+001
    endloop
  endfacet
  facet normal  0.000000e+000  3.826832e-001  9.238796e-001
    outer loop
      vertex  3.000000e+000 -1.250000e+001  1.117102e+001
      vertex  0.000000e+000 -1.250000e+001  1.117102e+001
      vertex  0.000000e+000 -1.356066e+001  1.161036e+001
    endloop
  endfacet
  facet normal  -0.000000e+000  3.826832e-001  9.238796e-001
    outer loop
      vertex  3.000000e+000 -1.250000e+001  1.117102e+001
      vertex  0.000000e+000 -1.356066e+001  1.161036e+001
      vertex  3.000000e+000 -1.356066e+001  1.161036e+001
    endloop
  endfacet
  facet normal  0.000000e+000  9.238796e-001  3.826832e-001
    outer loop
      vertex  3.000000e+000 -1.356066e+001  1.161036e+001
      vertex  0.000000e+000 -1.356066e+001  1.161036e+001
      vertex  0.000000e+000 -1.400000e+001  1.267102e+001
    endloop
  endfacet
  facet normal  -0.000000e+000  9.238796e-001  3.826832e-001
    outer loop
      vertex  3.000000e+000 -1.356066e+001  1.161036e+001
      vertex  0.000000e+000 -1.400000e+001  1.267102e+001
      vertex  3.000000e+000 -1.400000e+001  1.267102e+001
    endloop
  endfacet
  facet normal  1.000000e+000  0.000000e+000  0.000000e+000
    outer loop
      vertex  1.200000e+001  1.050000e+001  1.942102e+001
      vertex  1.200000e+001  1.450000e+001  1.942102e+001
      vertex  1.200000e+001  1.050000e+001  2.242102e+001
    endloop
  endfacet
  facet normal  1.000000e+000  -0.000000e+000  0.000000e+000
    outer loop
      vertex  1.200000e+001  1.050000e+001  2.242102e+001
      vertex  1.200000e+001  1.450000e+001  1.942102e+001
      vertex  1.200000e+001  1.450000e+001  2.242102e+001
    endloop
  endfacet
  facet normal  1.000000e+000  0.000000e+000  0.000000e+000
    outer loop
      vertex  1.200000e+001 -1.450000e+001  1.942102e+001
      vertex  1.200000e+001 -1.050000e+001  1.942102e+001
      vertex  1.200000e+001 -1.450000e+001  2.242102e+001
    endloop
  endfacet
  facet normal  1.000000e+000  -0.000000e+000  0.000000e+000
    outer loop
      vertex  1.200000e+001 -1.450000e+001  2.242102e+001
      vertex  1.200000e+001 -1.050000e+001  1.942102e+001
      vertex  1.200000e+001 -1.050000e+001  2.242102e+001
    endloop
  endfacet
  facet normal  0.000000e+000 -1.000000e+000  0.000000e+000
    outer loop
      vertex  0.000000e+000 -1.450000e+001  2.921022e+000
      vertex  3.000000e+000 -1.450000e+001  2.921022e+000
      vertex  0.000000e+000 -1.450000e+001  2.242102e+001
    endloop
  endfacet
  facet normal  0.000000e+000 -1.000000e+000  0.000000e+000
    outer loop
      vertex  0.000000e+000 -1.450000e+001  2.242102e+001
      vertex  3.000000e+000 -1.450000e+001  2.921022e+000
      vertex  3.000000e+000 -1.450000e+001  1.942102e+001
    endloop
  endfacet
  facet normal  0.000000e+000 -1.000000e+000  0.000000e+000
    outer loop
      vertex  0.000000e+000 -1.450000e+001  2.242102e+001
      vertex  3.000000e+000 -1.450000e+001  1.942102e+001
      vertex  1.200000e+001 -1.450000e+001  2.242102e+001
    endloop
  endfacet
  facet normal  0.000000e+000 -1.000000e+000  -0.000000e+000
    outer loop
      vertex  1.200000e+001 -1.450000e+001  2.242102e+001
      vertex  3.000000e+000 -1.450000e+001  1.942102e+001
      vertex  1.200000e+001 -1.450000e+001  1.942102e+001
    endloop
  endfacet
  facet normal  0.000000e+000  0.000000e+000  1.000000e+000
    outer loop
      vertex  1.200000e+001 -1.450000e+001  2.242102e+001
      vertex  1.200000e+001 -1.050000e+001  2.242102e+001
      vertex  0.000000e+000 -1.450000e+001  2.242102e+001
    endloop
  endfacet
  facet normal  0.000000e+000  0.000000e+000  1.000000e+000
    outer loop
      vertex  0.000000e+000 -1.450000e+001  2.242102e+001
      vertex  1.200000e+001 -1.050000e+001  2.242102e+001
      vertex  0.000000e+000 -1.050000e+001  2.242102e+001
    endloop
  endfacet
  facet normal  0.000000e+000  1.000000e+000  0.000000e+000
    outer loop
      vertex  0.000000e+000 -1.050000e+001  6.921022e+000
      vertex  0.000000e+000 -1.050000e+001  2.242102e+001
      vertex  3.000000e+000 -1.050000e+001  6.921022e+000
    endloop
  endfacet
  facet normal  0.000000e+000  1.000000e+000  -0.000000e+000
    outer loop
      vertex  3.000000e+000 -1.050000e+001  6.921022e+000
      vertex  0.000000e+000 -1.050000e+001  2.242102e+001
      vertex  3.000000e+000 -1.050000e+001  1.942102e+001
    endloop
  endfacet
  facet normal  0.000000e+000  1.000000e+000  0.000000e+000
    outer loop
      vertex  0.000000e+000 -1.050000e+001  2.242102e+001
      vertex  1.200000e+001 -1.050000e+001  2.242102e+001
      vertex  3.000000e+000 -1.050000e+001  1.942102e+001
    endloop
  endfacet
  facet normal  0.000000e+000  1.000000e+000  0.000000e+000
    outer loop
      vertex  3.000000e+000 -1.050000e+001  1.942102e+001
      vertex  1.200000e+001 -1.050000e+001  2.242102e+001
      vertex  1.200000e+001 -1.050000e+001  1.942102e+001
    endloop
  endfacet
  facet normal  0.000000e+000 -1.000000e+000  0.000000e+000
    outer loop
      vertex  1.200000e+001  1.050000e+001  2.242102e+001
      vertex  0.000000e+000  1.050000e+001  2.242102e+001
      vertex  1.200000e+001  1.050000e+001  1.942102e+001
    endloop
  endfacet
  facet normal  0.000000e+000 -1.000000e+000  0.000000e+000
    outer loop
      vertex  1.200000e+001  1.050000e+001  1.942102e+001
      vertex  0.000000e+000  1.050000e+001  2.242102e+001
      vertex  3.000000e+000  1.050000e+001  1.942102e+001
    endloop
  endfacet
  facet normal  0.000000e+000 -1.000000e+000  0.000000e+000
    outer loop
      vertex  0.000000e+000  1.050000e+001  2.242102e+001
      vertex  0.000000e+000  1.050000e+001  6.921022e+000
      vertex  3.000000e+000  1.050000e+001  1.942102e+001
    endloop
  endfacet
  facet normal  0.000000e+000 -1.000000e+000  -0.000000e+000
    outer loop
      vertex  3.000000e+000  1.050000e+001  1.942102e+001
      vertex  0.000000e+000  1.050000e+001  6.921022e+000
      vertex  3.000000e+000  1.050000e+001  6.921022e+000
    endloop
  endfacet
  facet normal  0.000000e+000  0.000000e+000  1.000000e+000
    outer loop
      vertex  1.200000e+001  1.050000e+001  2.242102e+001
      vertex  1.200000e+001  1.450000e+001  2.242102e+001
      vertex  0.000000e+000  1.050000e+001  2.242102e+001
    endloop
  endfacet
  facet normal  0.000000e+000  0.000000e+000  1.000000e+000
    outer loop
      vertex  0.000000e+000  1.050000e+001  2.242102e+001
      vertex  1.200000e+001  1.450000e+001  2.242102e+001
      vertex  0.000000e+000  1.450000e+001  2.242102e+001
    endloop
  endfacet
  facet normal  0.000000e+000  1.000000e+000  -0.000000e+000
    outer loop
      vertex  1.200000e+001  1.450000e+001  2.242102e+001
      vertex  1.200000e+001  1.450000e+001  1.942102e+001
      vertex  0.000000e+000  1.450000e+001  2.242102e+001
    endloop
  endfacet
  facet normal  0.000000e+000  1.000000e+000  0.000000e+000
    outer loop
      vertex  0.000000e+000  1.450000e+001  2.242102e+001
      vertex  1.200000e+001  1.450000e+001  1.942102e+001
      vertex  3.000000e+000  1.450000e+001  1.942102e+001
    endloop
  endfacet
  facet normal  0.000000e+000  1.000000e+000  0.000000e+000
    outer loop
      vertex  0.000000e+000  1.450000e+001  2.242102e+001
      vertex  3.000000e+000  1.450000e+001  1.942102e+001
      vertex  0.000000e+000  1.450000e+001  2.921022e+000
    endloop
  endfacet
  facet normal  0.000000e+000  1.000000e+000  0.000000e+000
    outer loop
      vertex  0.000000e+000  1.450000e+001  2.921022e+000
      vertex  3.000000e+000  1.450000e+001  1.942102e+001
      vertex  3.000000e+000  1.450000e+001  2.921022e+000
    endloop
  endfacet
  facet normal  0.000000e+000  0.000000e+000 -1.000000e+000
    outer loop
      vertex  1.200000e+001  1.450000e+001  1.942102e+001
      vertex  1.200000e+001  1.050000e+001  1.942102e+001
      vertex  3.000000e+000  1.450000e+001  1.942102e+001
    endloop
  endfacet
  facet normal  0.000000e+000  0.000000e+000 -1.000000e+000
    outer loop
      vertex  3.000000e+000  1.450000e+001  1.942102e+001
      vertex  1.200000e+001  1.050000e+001  1.942102e+001
      vertex  3.000000e+000  1.050000e+001  1.942102e+001
    endloop
  endfacet
  facet normal  0.000000e+000  0.000000e+000 -1.000000e+000
    outer loop
      vertex  1.200000e+001 -1.050000e+001  1.942102e+001
      vertex  1.200000e+001 -1.450000e+001  1.942102e+001
      vertex  3.000000e+000 -1.050000e+001  1.942102e+001
    endloop
  endfacet
  facet normal  0.000000e+000  0.000000e+000 -1.000000e+000
    outer loop
      vertex  3.000000e+000 -1.050000e+001  1.942102e+001
      vertex  1.200000e+001 -1.450000e+001  1.942102e+001
      vertex  3.000000e+000 -1.450000e+001  1.942102e+001
    endloop
  endfacet
  facet normal  -0.000000e+000  0.000000e+000  1.000000e+000
    outer loop
      vertex  3.000000e+000  1.050000e+001  6.921022e+000
      vertex  0.000000e+000  1.050000e+001  6.921022e+000
      vertex  3.000000e+000 -1.050000e+001  6.921022e+000
    endloop
  endfacet
  facet normal  0.000000e+000  0.000000e+000  1.000000e+000
    outer loop
      vertex  3.000000e+000 -1.050000e+001  6.921022e+000
      vertex  0.000000e+000  1.050000e+001  6.921022e+000
      vertex  0.000000e+000 -1.050000e+001  6.921022e+000
    endloop
  endfacet
  facet normal  0.000000e+000  0.000000e+000 -1.000000e+000
    outer loop
      vertex  3.000000e+000  1.450000e+001  2.921022e+000
      vertex  3.000000e+000 -1.450000e+001  2.921022e+000
      vertex  0.000000e+000  1.450000e+001  2.921022e+000
    endloop
  endfacet
  facet normal  0.000000e+000  0.000000e+000 -1.000000e+000
    outer loop
      vertex  0.000000e+000  1.450000e+001  2.921022e+000
      vertex  3.000000e+000 -1.450000e+001  2.921022e+000
      vertex  0.000000e+000 -1.450000e+001  2.921022e+000
    endloop
  endfacet
endsolid CATIA STL
