solid CATIA STL
  facet normal -1.000000e+000  0.000000e+000  0.000000e+000
    outer loop
      vertex -3.000000e+000 -2.100000e+000 -2.100000e+000
      vertex -3.000000e+000 -2.100000e+000  2.100000e+000
      vertex -3.000000e+000  2.100000e+000 -2.100000e+000
    endloop
  endfacet
  facet normal -1.000000e+000  0.000000e+000  0.000000e+000
    outer loop
      vertex -3.000000e+000  2.100000e+000 -2.100000e+000
      vertex -3.000000e+000 -2.100000e+000  2.100000e+000
      vertex -3.000000e+000  2.100000e+000  2.100000e+000
    endloop
  endfacet
  facet normal -1.000000e+000  0.000000e+000  0.000000e+000
    outer loop
      vertex  0.000000e+000  2.400000e+001 -4.175000e+000
      vertex  0.000000e+000  2.000000e+000 -7.175000e+000
      vertex  0.000000e+000  4.000000e+000 -4.175000e+000
    endloop
  endfacet
  facet normal -1.000000e+000  -0.000000e+000  0.000000e+000
    outer loop
      vertex  0.000000e+000  4.000000e+000 -4.175000e+000
      vertex  0.000000e+000  2.000000e+000 -7.175000e+000
      vertex  0.000000e+000  2.000000e+000 -3.000000e+000
    endloop
  endfacet
  facet normal -1.000000e+000  0.000000e+000  0.000000e+000
    outer loop
      vertex  0.000000e+000  4.000000e+000 -4.175000e+000
      vertex  0.000000e+000  2.000000e+000 -3.000000e+000
      vertex  0.000000e+000  4.000000e+000 -3.000000e+000
    endloop
  endfacet
  facet normal -1.000000e+000  0.000000e+000  -0.000000e+000
    outer loop
      vertex  0.000000e+000  2.000000e+000 -7.175000e+000
      vertex  0.000000e+000  2.400000e+001 -4.175000e+000
      vertex  0.000000e+000  2.600000e+001 -7.175000e+000
    endloop
  endfacet
  facet normal -1.000000e+000  0.000000e+000  0.000000e+000
    outer loop
      vertex  0.000000e+000  2.600000e+001 -7.175000e+000
      vertex  0.000000e+000  2.400000e+001 -4.175000e+000
      vertex  0.000000e+000  2.400000e+001  4.175000e+000
    endloop
  endfacet
  facet normal -1.000000e+000  0.000000e+000  0.000000e+000
    outer loop
      vertex  0.000000e+000  2.600000e+001 -7.175000e+000
      vertex  0.000000e+000  2.400000e+001  4.175000e+000
      vertex  0.000000e+000  2.600000e+001  7.175000e+000
    endloop
  endfacet
  facet normal -1.000000e+000  0.000000e+000  0.000000e+000
    outer loop
      vertex  0.000000e+000  2.600000e+001  7.175000e+000
      vertex  0.000000e+000  2.400000e+001  4.175000e+000
      vertex  0.000000e+000  4.000000e+000  4.175000e+000
    endloop
  endfacet
  facet normal -1.000000e+000  0.000000e+000  0.000000e+000
    outer loop
      vertex  0.000000e+000  2.600000e+001  7.175000e+000
      vertex  0.000000e+000  4.000000e+000  4.175000e+000
      vertex  0.000000e+000  2.000000e+000  7.175000e+000
    endloop
  endfacet
  facet normal -1.000000e+000  0.000000e+000  0.000000e+000
    outer loop
      vertex  0.000000e+000  2.000000e+000  7.175000e+000
      vertex  0.000000e+000  4.000000e+000  4.175000e+000
      vertex  0.000000e+000  4.000000e+000  3.000000e+000
    endloop
  endfacet
  facet normal -1.000000e+000  0.000000e+000  0.000000e+000
    outer loop
      vertex  0.000000e+000  2.000000e+000  7.175000e+000
      vertex  0.000000e+000  4.000000e+000  3.000000e+000
      vertex  0.000000e+000  2.000000e+000  3.000000e+000
    endloop
  endfacet
  facet normal -1.000000e+000  0.000000e+000  -0.000000e+000
    outer loop
      vertex  0.000000e+000 -2.600000e+001 -7.175000e+000
      vertex  0.000000e+000 -4.000000e+000 -4.175000e+000
      vertex  0.000000e+000 -2.000000e+000 -7.175000e+000
    endloop
  endfacet
  facet normal -1.000000e+000  0.000000e+000  0.000000e+000
    outer loop
      vertex  0.000000e+000 -2.000000e+000 -7.175000e+000
      vertex  0.000000e+000 -4.000000e+000 -4.175000e+000
      vertex  0.000000e+000 -4.000000e+000 -3.000000e+000
    endloop
  endfacet
  facet normal -1.000000e+000  0.000000e+000  0.000000e+000
    outer loop
      vertex  0.000000e+000 -2.000000e+000 -7.175000e+000
      vertex  0.000000e+000 -4.000000e+000 -3.000000e+000
      vertex  0.000000e+000 -2.000000e+000 -3.000000e+000
    endloop
  endfacet
  facet normal -1.000000e+000  0.000000e+000  0.000000e+000
    outer loop
      vertex  0.000000e+000 -4.000000e+000 -4.175000e+000
      vertex  0.000000e+000 -2.600000e+001 -7.175000e+000
      vertex  0.000000e+000 -2.400000e+001 -4.175000e+000
    endloop
  endfacet
  facet normal -1.000000e+000  -0.000000e+000  0.000000e+000
    outer loop
      vertex  0.000000e+000 -2.400000e+001 -4.175000e+000
      vertex  0.000000e+000 -2.600000e+001 -7.175000e+000
      vertex  0.000000e+000 -2.600000e+001  7.175000e+000
    endloop
  endfacet
  facet normal -1.000000e+000  0.000000e+000  0.000000e+000
    outer loop
      vertex  0.000000e+000 -2.400000e+001 -4.175000e+000
      vertex  0.000000e+000 -2.600000e+001  7.175000e+000
      vertex  0.000000e+000 -2.400000e+001  4.175000e+000
    endloop
  endfacet
  facet normal -1.000000e+000  0.000000e+000  0.000000e+000
    outer loop
      vertex  0.000000e+000 -2.400000e+001  4.175000e+000
      vertex  0.000000e+000 -2.600000e+001  7.175000e+000
      vertex  0.000000e+000 -2.000000e+000  7.175000e+000
    endloop
  endfacet
  facet normal -1.000000e+000  0.000000e+000  0.000000e+000
    outer loop
      vertex  0.000000e+000 -2.400000e+001  4.175000e+000
      vertex  0.000000e+000 -2.000000e+000  7.175000e+000
      vertex  0.000000e+000 -4.000000e+000  4.175000e+000
    endloop
  endfacet
  facet normal -1.000000e+000  0.000000e+000  0.000000e+000
    outer loop
      vertex  0.000000e+000 -4.000000e+000  4.175000e+000
      vertex  0.000000e+000 -2.000000e+000  7.175000e+000
      vertex  0.000000e+000 -2.000000e+000  3.000000e+000
    endloop
  endfacet
  facet normal -1.000000e+000  0.000000e+000  0.000000e+000
    outer loop
      vertex  0.000000e+000 -4.000000e+000  4.175000e+000
      vertex  0.000000e+000 -2.000000e+000  3.000000e+000
      vertex  0.000000e+000 -4.000000e+000  3.000000e+000
    endloop
  endfacet
  facet normal -1.000000e+000  0.000000e+000  -0.000000e+000
    outer loop
      vertex -9.350000e+000 -4.000000e+000 -3.000000e+000
      vertex -9.350000e+000 -2.100000e+000 -2.100000e+000
      vertex -9.350000e+000  4.000000e+000 -3.000000e+000
    endloop
  endfacet
  facet normal -1.000000e+000  0.000000e+000  0.000000e+000
    outer loop
      vertex -9.350000e+000  4.000000e+000 -3.000000e+000
      vertex -9.350000e+000 -2.100000e+000 -2.100000e+000
      vertex -9.350000e+000  2.100000e+000 -2.100000e+000
    endloop
  endfacet
  facet normal -1.000000e+000  0.000000e+000  0.000000e+000
    outer loop
      vertex -9.350000e+000  4.000000e+000 -3.000000e+000
      vertex -9.350000e+000  2.100000e+000 -2.100000e+000
      vertex -9.350000e+000  4.000000e+000  3.000000e+000
    endloop
  endfacet
  facet normal -1.000000e+000  0.000000e+000  0.000000e+000
    outer loop
      vertex -9.350000e+000  4.000000e+000  3.000000e+000
      vertex -9.350000e+000  2.100000e+000 -2.100000e+000
      vertex -9.350000e+000  2.100000e+000  2.100000e+000
    endloop
  endfacet
  facet normal -1.000000e+000  0.000000e+000  0.000000e+000
    outer loop
      vertex -9.350000e+000  4.000000e+000  3.000000e+000
      vertex -9.350000e+000  2.100000e+000  2.100000e+000
      vertex -9.350000e+000 -4.000000e+000  3.000000e+000
    endloop
  endfacet
  facet normal -1.000000e+000  0.000000e+000  0.000000e+000
    outer loop
      vertex -9.350000e+000 -4.000000e+000  3.000000e+000
      vertex -9.350000e+000  2.100000e+000  2.100000e+000
      vertex -9.350000e+000 -2.100000e+000  2.100000e+000
    endloop
  endfacet
  facet normal -1.000000e+000  -0.000000e+000  0.000000e+000
    outer loop
      vertex -9.350000e+000 -4.000000e+000  3.000000e+000
      vertex -9.350000e+000 -2.100000e+000  2.100000e+000
      vertex -9.350000e+000 -4.000000e+000 -3.000000e+000
    endloop
  endfacet
  facet normal -1.000000e+000  0.000000e+000  0.000000e+000
    outer loop
      vertex -9.350000e+000 -4.000000e+000 -3.000000e+000
      vertex -9.350000e+000 -2.100000e+000  2.100000e+000
      vertex -9.350000e+000 -2.100000e+000 -2.100000e+000
    endloop
  endfacet
  facet normal  0.000000e+000  1.000000e+000  0.000000e+000
    outer loop
      vertex  3.000000e+000  4.000000e+000 -4.175000e+000
      vertex  0.000000e+000  4.000000e+000 -4.175000e+000
      vertex  0.000000e+000  4.000000e+000 -3.000000e+000
    endloop
  endfacet
  facet normal  -0.000000e+000  1.000000e+000  0.000000e+000
    outer loop
      vertex  3.000000e+000  4.000000e+000 -4.175000e+000
      vertex  0.000000e+000  4.000000e+000 -3.000000e+000
      vertex  0.000000e+000  4.000000e+000  3.000000e+000
    endloop
  endfacet
  facet normal  -0.000000e+000  1.000000e+000  0.000000e+000
    outer loop
      vertex  3.000000e+000  4.000000e+000 -4.175000e+000
      vertex  0.000000e+000  4.000000e+000  3.000000e+000
      vertex  0.000000e+000  4.000000e+000  4.175000e+000
    endloop
  endfacet
  facet normal  -0.000000e+000  1.000000e+000  0.000000e+000
    outer loop
      vertex  3.000000e+000  4.000000e+000 -4.175000e+000
      vertex  0.000000e+000  4.000000e+000  4.175000e+000
      vertex  3.000000e+000  4.000000e+000  4.175000e+000
    endloop
  endfacet
  facet normal  0.000000e+000  1.000000e+000  0.000000e+000
    outer loop
      vertex  0.000000e+000  4.000000e+000 -3.000000e+000
      vertex -9.350000e+000  4.000000e+000 -3.000000e+000
      vertex  0.000000e+000  4.000000e+000  3.000000e+000
    endloop
  endfacet
  facet normal  0.000000e+000  1.000000e+000  0.000000e+000
    outer loop
      vertex  0.000000e+000  4.000000e+000  3.000000e+000
      vertex -9.350000e+000  4.000000e+000 -3.000000e+000
      vertex -9.350000e+000  4.000000e+000  3.000000e+000
    endloop
  endfacet
  facet normal  0.000000e+000  0.000000e+000  1.000000e+000
    outer loop
      vertex -9.350000e+000  4.000000e+000  3.000000e+000
      vertex -9.350000e+000 -4.000000e+000  3.000000e+000
      vertex  0.000000e+000 -4.000000e+000  3.000000e+000
    endloop
  endfacet
  facet normal  0.000000e+000  -0.000000e+000  1.000000e+000
    outer loop
      vertex -9.350000e+000  4.000000e+000  3.000000e+000
      vertex  0.000000e+000 -4.000000e+000  3.000000e+000
      vertex  0.000000e+000 -2.000000e+000  3.000000e+000
    endloop
  endfacet
  facet normal  0.000000e+000  -0.000000e+000  1.000000e+000
    outer loop
      vertex -9.350000e+000  4.000000e+000  3.000000e+000
      vertex  0.000000e+000 -2.000000e+000  3.000000e+000
      vertex  0.000000e+000  2.000000e+000  3.000000e+000
    endloop
  endfacet
  facet normal  0.000000e+000  -0.000000e+000  1.000000e+000
    outer loop
      vertex -9.350000e+000  4.000000e+000  3.000000e+000
      vertex  0.000000e+000  2.000000e+000  3.000000e+000
      vertex  0.000000e+000  4.000000e+000  3.000000e+000
    endloop
  endfacet
  facet normal  0.000000e+000  0.000000e+000  1.000000e+000
    outer loop
      vertex  3.000000e+000 -2.000000e+000  3.000000e+000
      vertex  3.000000e+000  2.000000e+000  3.000000e+000
      vertex  0.000000e+000 -2.000000e+000  3.000000e+000
    endloop
  endfacet
  facet normal  0.000000e+000  0.000000e+000  1.000000e+000
    outer loop
      vertex  0.000000e+000 -2.000000e+000  3.000000e+000
      vertex  3.000000e+000  2.000000e+000  3.000000e+000
      vertex  0.000000e+000  2.000000e+000  3.000000e+000
    endloop
  endfacet
  facet normal  0.000000e+000  0.000000e+000 -1.000000e+000
    outer loop
      vertex -9.350000e+000 -4.000000e+000 -3.000000e+000
      vertex -9.350000e+000  4.000000e+000 -3.000000e+000
      vertex  0.000000e+000  4.000000e+000 -3.000000e+000
    endloop
  endfacet
  facet normal  0.000000e+000  -0.000000e+000 -1.000000e+000
    outer loop
      vertex -9.350000e+000 -4.000000e+000 -3.000000e+000
      vertex  0.000000e+000  4.000000e+000 -3.000000e+000
      vertex  0.000000e+000  2.000000e+000 -3.000000e+000
    endloop
  endfacet
  facet normal  0.000000e+000  -0.000000e+000 -1.000000e+000
    outer loop
      vertex -9.350000e+000 -4.000000e+000 -3.000000e+000
      vertex  0.000000e+000  2.000000e+000 -3.000000e+000
      vertex  0.000000e+000 -2.000000e+000 -3.000000e+000
    endloop
  endfacet
  facet normal  0.000000e+000  -0.000000e+000 -1.000000e+000
    outer loop
      vertex -9.350000e+000 -4.000000e+000 -3.000000e+000
      vertex  0.000000e+000 -2.000000e+000 -3.000000e+000
      vertex  0.000000e+000 -4.000000e+000 -3.000000e+000
    endloop
  endfacet
  facet normal  0.000000e+000  0.000000e+000 -1.000000e+000
    outer loop
      vertex  3.000000e+000  2.000000e+000 -3.000000e+000
      vertex  3.000000e+000 -2.000000e+000 -3.000000e+000
      vertex  0.000000e+000  2.000000e+000 -3.000000e+000
    endloop
  endfacet
  facet normal  0.000000e+000  0.000000e+000 -1.000000e+000
    outer loop
      vertex  0.000000e+000  2.000000e+000 -3.000000e+000
      vertex  3.000000e+000 -2.000000e+000 -3.000000e+000
      vertex  0.000000e+000 -2.000000e+000 -3.000000e+000
    endloop
  endfacet
  facet normal  0.000000e+000 -1.000000e+000  0.000000e+000
    outer loop
      vertex  3.000000e+000 -4.000000e+000  4.175000e+000
      vertex  0.000000e+000 -4.000000e+000  4.175000e+000
      vertex  0.000000e+000 -4.000000e+000  3.000000e+000
    endloop
  endfacet
  facet normal  0.000000e+000 -1.000000e+000  0.000000e+000
    outer loop
      vertex  3.000000e+000 -4.000000e+000  4.175000e+000
      vertex  0.000000e+000 -4.000000e+000  3.000000e+000
      vertex  0.000000e+000 -4.000000e+000 -3.000000e+000
    endloop
  endfacet
  facet normal  0.000000e+000 -1.000000e+000  0.000000e+000
    outer loop
      vertex  3.000000e+000 -4.000000e+000  4.175000e+000
      vertex  0.000000e+000 -4.000000e+000 -3.000000e+000
      vertex  0.000000e+000 -4.000000e+000 -4.175000e+000
    endloop
  endfacet
  facet normal  0.000000e+000 -1.000000e+000  0.000000e+000
    outer loop
      vertex  3.000000e+000 -4.000000e+000  4.175000e+000
      vertex  0.000000e+000 -4.000000e+000 -4.175000e+000
      vertex  3.000000e+000 -4.000000e+000 -4.175000e+000
    endloop
  endfacet
  facet normal  0.000000e+000 -1.000000e+000  0.000000e+000
    outer loop
      vertex  0.000000e+000 -4.000000e+000  3.000000e+000
      vertex -9.350000e+000 -4.000000e+000  3.000000e+000
      vertex  0.000000e+000 -4.000000e+000 -3.000000e+000
    endloop
  endfacet
  facet normal  0.000000e+000 -1.000000e+000  0.000000e+000
    outer loop
      vertex  0.000000e+000 -4.000000e+000 -3.000000e+000
      vertex -9.350000e+000 -4.000000e+000  3.000000e+000
      vertex -9.350000e+000 -4.000000e+000 -3.000000e+000
    endloop
  endfacet
  facet normal  0.000000e+000  0.000000e+000 -9.999999e-001
    outer loop
      vertex -3.000000e+000  2.100000e+000  2.100000e+000
      vertex -3.000000e+000 -2.100000e+000  2.100000e+000
      vertex -9.350000e+000  2.100000e+000  2.100000e+000
    endloop
  endfacet
  facet normal  0.000000e+000  0.000000e+000 -9.999999e-001
    outer loop
      vertex -9.350000e+000  2.100000e+000  2.100000e+000
      vertex -3.000000e+000 -2.100000e+000  2.100000e+000
      vertex -9.350000e+000 -2.100000e+000  2.100000e+000
    endloop
  endfacet
  facet normal  0.000000e+000  9.999999e-001  0.000000e+000
    outer loop
      vertex -3.000000e+000 -2.100000e+000 -2.100000e+000
      vertex -9.350000e+000 -2.100000e+000 -2.100000e+000
      vertex -3.000000e+000 -2.100000e+000  2.100000e+000
    endloop
  endfacet
  facet normal  0.000000e+000  9.999999e-001  0.000000e+000
    outer loop
      vertex -3.000000e+000 -2.100000e+000  2.100000e+000
      vertex -9.350000e+000 -2.100000e+000 -2.100000e+000
      vertex -9.350000e+000 -2.100000e+000  2.100000e+000
    endloop
  endfacet
  facet normal  0.000000e+000 -9.999999e-001  0.000000e+000
    outer loop
      vertex -3.000000e+000  2.100000e+000  2.100000e+000
      vertex -9.350000e+000  2.100000e+000  2.100000e+000
      vertex -3.000000e+000  2.100000e+000 -2.100000e+000
    endloop
  endfacet
  facet normal  0.000000e+000 -9.999999e-001  0.000000e+000
    outer loop
      vertex -3.000000e+000  2.100000e+000 -2.100000e+000
      vertex -9.350000e+000  2.100000e+000  2.100000e+000
      vertex -9.350000e+000  2.100000e+000 -2.100000e+000
    endloop
  endfacet
  facet normal  0.000000e+000  0.000000e+000  9.999999e-001
    outer loop
      vertex -3.000000e+000 -2.100000e+000 -2.100000e+000
      vertex -3.000000e+000  2.100000e+000 -2.100000e+000
      vertex -9.350000e+000 -2.100000e+000 -2.100000e+000
    endloop
  endfacet
  facet normal  0.000000e+000  0.000000e+000  9.999999e-001
    outer loop
      vertex -9.350000e+000 -2.100000e+000 -2.100000e+000
      vertex -3.000000e+000  2.100000e+000 -2.100000e+000
      vertex -9.350000e+000  2.100000e+000 -2.100000e+000
    endloop
  endfacet
  facet normal  1.000000e+000  -0.000000e+000  0.000000e+000
    outer loop
      vertex  3.000000e+000  4.000000e+000  4.175000e+000
      vertex  3.000000e+000  2.000000e+000  4.175000e+000
      vertex  3.000000e+000  2.000000e+000  3.000000e+000
    endloop
  endfacet
  facet normal  1.000000e+000  -0.000000e+000  0.000000e+000
    outer loop
      vertex  3.000000e+000  4.000000e+000  4.175000e+000
      vertex  3.000000e+000  2.000000e+000  3.000000e+000
      vertex  3.000000e+000  2.000000e+000 -3.000000e+000
    endloop
  endfacet
  facet normal  1.000000e+000  -0.000000e+000  0.000000e+000
    outer loop
      vertex  3.000000e+000  4.000000e+000  4.175000e+000
      vertex  3.000000e+000  2.000000e+000 -3.000000e+000
      vertex  3.000000e+000  2.000000e+000 -4.175000e+000
    endloop
  endfacet
  facet normal  1.000000e+000  0.000000e+000  0.000000e+000
    outer loop
      vertex  3.000000e+000  4.000000e+000  4.175000e+000
      vertex  3.000000e+000  2.000000e+000 -4.175000e+000
      vertex  3.000000e+000  4.000000e+000 -4.175000e+000
    endloop
  endfacet
  facet normal  1.000000e+000  0.000000e+000  -0.000000e+000
    outer loop
      vertex  3.000000e+000 -4.000000e+000 -4.175000e+000
      vertex  3.000000e+000 -2.000000e+000 -4.175000e+000
      vertex  3.000000e+000 -2.000000e+000 -3.000000e+000
    endloop
  endfacet
  facet normal  1.000000e+000  0.000000e+000  -0.000000e+000
    outer loop
      vertex  3.000000e+000 -4.000000e+000 -4.175000e+000
      vertex  3.000000e+000 -2.000000e+000 -3.000000e+000
      vertex  3.000000e+000 -2.000000e+000  3.000000e+000
    endloop
  endfacet
  facet normal  1.000000e+000  0.000000e+000  -0.000000e+000
    outer loop
      vertex  3.000000e+000 -4.000000e+000 -4.175000e+000
      vertex  3.000000e+000 -2.000000e+000  3.000000e+000
      vertex  3.000000e+000 -2.000000e+000  4.175000e+000
    endloop
  endfacet
  facet normal  1.000000e+000  0.000000e+000  0.000000e+000
    outer loop
      vertex  3.000000e+000 -4.000000e+000 -4.175000e+000
      vertex  3.000000e+000 -2.000000e+000  4.175000e+000
      vertex  3.000000e+000 -4.000000e+000  4.175000e+000
    endloop
  endfacet
  facet normal  1.000000e+000  0.000000e+000  0.000000e+000
    outer loop
      vertex  3.000000e+000 -2.000000e+000  3.000000e+000
      vertex  3.000000e+000 -2.000000e+000 -3.000000e+000
      vertex  3.000000e+000  2.000000e+000  3.000000e+000
    endloop
  endfacet
  facet normal  1.000000e+000  0.000000e+000  0.000000e+000
    outer loop
      vertex  3.000000e+000  2.000000e+000  3.000000e+000
      vertex  3.000000e+000 -2.000000e+000 -3.000000e+000
      vertex  3.000000e+000  2.000000e+000 -3.000000e+000
    endloop
  endfacet
  facet normal  0.000000e+000  1.000000e+000  0.000000e+000
    outer loop
      vertex  0.000000e+000 -2.000000e+000 -3.000000e+000
      vertex  3.000000e+000 -2.000000e+000 -3.000000e+000
      vertex  0.000000e+000 -2.000000e+000 -7.175000e+000
    endloop
  endfacet
  facet normal  0.000000e+000  1.000000e+000  0.000000e+000
    outer loop
      vertex  0.000000e+000 -2.000000e+000 -7.175000e+000
      vertex  3.000000e+000 -2.000000e+000 -3.000000e+000
      vertex  3.000000e+000 -2.000000e+000 -4.175000e+000
    endloop
  endfacet
  facet normal  0.000000e+000  1.000000e+000  0.000000e+000
    outer loop
      vertex  0.000000e+000 -2.000000e+000 -7.175000e+000
      vertex  3.000000e+000 -2.000000e+000 -4.175000e+000
      vertex  7.000000e+000 -2.000000e+000 -7.175000e+000
    endloop
  endfacet
  facet normal  0.000000e+000  1.000000e+000  -0.000000e+000
    outer loop
      vertex  7.000000e+000 -2.000000e+000 -7.175000e+000
      vertex  3.000000e+000 -2.000000e+000 -4.175000e+000
      vertex  7.000000e+000 -2.000000e+000 -4.175000e+000
    endloop
  endfacet
  facet normal  0.000000e+000  1.000000e+000  -0.000000e+000
    outer loop
      vertex  7.000000e+000 -2.000000e+000  7.175000e+000
      vertex  7.000000e+000 -2.000000e+000  4.175000e+000
      vertex  0.000000e+000 -2.000000e+000  7.175000e+000
    endloop
  endfacet
  facet normal  0.000000e+000  1.000000e+000  0.000000e+000
    outer loop
      vertex  0.000000e+000 -2.000000e+000  7.175000e+000
      vertex  7.000000e+000 -2.000000e+000  4.175000e+000
      vertex  3.000000e+000 -2.000000e+000  4.175000e+000
    endloop
  endfacet
  facet normal  0.000000e+000  1.000000e+000  0.000000e+000
    outer loop
      vertex  0.000000e+000 -2.000000e+000  7.175000e+000
      vertex  3.000000e+000 -2.000000e+000  4.175000e+000
      vertex  0.000000e+000 -2.000000e+000  3.000000e+000
    endloop
  endfacet
  facet normal  0.000000e+000  1.000000e+000  0.000000e+000
    outer loop
      vertex  0.000000e+000 -2.000000e+000  3.000000e+000
      vertex  3.000000e+000 -2.000000e+000  4.175000e+000
      vertex  3.000000e+000 -2.000000e+000  3.000000e+000
    endloop
  endfacet
  facet normal  0.000000e+000 -1.000000e+000  -0.000000e+000
    outer loop
      vertex  7.000000e+000  2.000000e+000 -7.175000e+000
      vertex  7.000000e+000  2.000000e+000 -4.175000e+000
      vertex  0.000000e+000  2.000000e+000 -7.175000e+000
    endloop
  endfacet
  facet normal  0.000000e+000 -1.000000e+000  0.000000e+000
    outer loop
      vertex  0.000000e+000  2.000000e+000 -7.175000e+000
      vertex  7.000000e+000  2.000000e+000 -4.175000e+000
      vertex  3.000000e+000  2.000000e+000 -4.175000e+000
    endloop
  endfacet
  facet normal  -0.000000e+000 -1.000000e+000  0.000000e+000
    outer loop
      vertex  0.000000e+000  2.000000e+000 -7.175000e+000
      vertex  3.000000e+000  2.000000e+000 -4.175000e+000
      vertex  0.000000e+000  2.000000e+000 -3.000000e+000
    endloop
  endfacet
  facet normal  0.000000e+000 -1.000000e+000  0.000000e+000
    outer loop
      vertex  0.000000e+000  2.000000e+000 -3.000000e+000
      vertex  3.000000e+000  2.000000e+000 -4.175000e+000
      vertex  3.000000e+000  2.000000e+000 -3.000000e+000
    endloop
  endfacet
  facet normal  0.000000e+000 -1.000000e+000  0.000000e+000
    outer loop
      vertex  0.000000e+000  2.000000e+000  3.000000e+000
      vertex  3.000000e+000  2.000000e+000  3.000000e+000
      vertex  0.000000e+000  2.000000e+000  7.175000e+000
    endloop
  endfacet
  facet normal  0.000000e+000 -1.000000e+000  0.000000e+000
    outer loop
      vertex  0.000000e+000  2.000000e+000  7.175000e+000
      vertex  3.000000e+000  2.000000e+000  3.000000e+000
      vertex  3.000000e+000  2.000000e+000  4.175000e+000
    endloop
  endfacet
  facet normal  0.000000e+000 -1.000000e+000  0.000000e+000
    outer loop
      vertex  0.000000e+000  2.000000e+000  7.175000e+000
      vertex  3.000000e+000  2.000000e+000  4.175000e+000
      vertex  7.000000e+000  2.000000e+000  7.175000e+000
    endloop
  endfacet
  facet normal  0.000000e+000 -1.000000e+000  -0.000000e+000
    outer loop
      vertex  7.000000e+000  2.000000e+000  7.175000e+000
      vertex  3.000000e+000  2.000000e+000  4.175000e+000
      vertex  7.000000e+000  2.000000e+000  4.175000e+000
    endloop
  endfacet
  facet normal  1.000000e+000  0.000000e+000  0.000000e+000
    outer loop
      vertex  7.000000e+000 -2.600000e+001 -7.175000e+000
      vertex  7.000000e+000 -2.000000e+000 -7.175000e+000
      vertex  7.000000e+000 -2.600000e+001 -4.175000e+000
    endloop
  endfacet
  facet normal  1.000000e+000  -0.000000e+000  0.000000e+000
    outer loop
      vertex  7.000000e+000 -2.600000e+001 -4.175000e+000
      vertex  7.000000e+000 -2.000000e+000 -7.175000e+000
      vertex  7.000000e+000 -2.000000e+000 -4.175000e+000
    endloop
  endfacet
  facet normal  1.000000e+000  0.000000e+000  0.000000e+000
    outer loop
      vertex  7.000000e+000  2.000000e+000 -7.175000e+000
      vertex  7.000000e+000  2.600000e+001 -7.175000e+000
      vertex  7.000000e+000  2.000000e+000 -4.175000e+000
    endloop
  endfacet
  facet normal  1.000000e+000  -0.000000e+000  0.000000e+000
    outer loop
      vertex  7.000000e+000  2.000000e+000 -4.175000e+000
      vertex  7.000000e+000  2.600000e+001 -7.175000e+000
      vertex  7.000000e+000  2.600000e+001 -4.175000e+000
    endloop
  endfacet
  facet normal  1.000000e+000  0.000000e+000  0.000000e+000
    outer loop
      vertex  7.000000e+000  2.000000e+000  4.175000e+000
      vertex  7.000000e+000  2.600000e+001  4.175000e+000
      vertex  7.000000e+000  2.000000e+000  7.175000e+000
    endloop
  endfacet
  facet normal  1.000000e+000  -0.000000e+000  0.000000e+000
    outer loop
      vertex  7.000000e+000  2.000000e+000  7.175000e+000
      vertex  7.000000e+000  2.600000e+001  4.175000e+000
      vertex  7.000000e+000  2.600000e+001  7.175000e+000
    endloop
  endfacet
  facet normal  1.000000e+000  0.000000e+000  0.000000e+000
    outer loop
      vertex  7.000000e+000 -2.600000e+001  4.175000e+000
      vertex  7.000000e+000 -2.000000e+000  4.175000e+000
      vertex  7.000000e+000 -2.600000e+001  7.175000e+000
    endloop
  endfacet
  facet normal  1.000000e+000  -0.000000e+000  0.000000e+000
    outer loop
      vertex  7.000000e+000 -2.600000e+001  7.175000e+000
      vertex  7.000000e+000 -2.000000e+000  4.175000e+000
      vertex  7.000000e+000 -2.000000e+000  7.175000e+000
    endloop
  endfacet
  facet normal  0.000000e+000  0.000000e+000  1.000000e+000
    outer loop
      vertex  7.000000e+000 -2.600000e+001  7.175000e+000
      vertex  7.000000e+000 -2.000000e+000  7.175000e+000
      vertex  0.000000e+000 -2.600000e+001  7.175000e+000
    endloop
  endfacet
  facet normal  0.000000e+000  0.000000e+000  1.000000e+000
    outer loop
      vertex  0.000000e+000 -2.600000e+001  7.175000e+000
      vertex  7.000000e+000 -2.000000e+000  7.175000e+000
      vertex  0.000000e+000 -2.000000e+000  7.175000e+000
    endloop
  endfacet
  facet normal  0.000000e+000  0.000000e+000 -1.000000e+000
    outer loop
      vertex  3.000000e+000 -4.000000e+000  4.175000e+000
      vertex  3.000000e+000 -2.000000e+000  4.175000e+000
      vertex  7.000000e+000 -2.000000e+000  4.175000e+000
    endloop
  endfacet
  facet normal  0.000000e+000  0.000000e+000 -1.000000e+000
    outer loop
      vertex  3.000000e+000 -4.000000e+000  4.175000e+000
      vertex  7.000000e+000 -2.000000e+000  4.175000e+000
      vertex  3.000000e+000 -2.400000e+001  4.175000e+000
    endloop
  endfacet
  facet normal  0.000000e+000  0.000000e+000 -1.000000e+000
    outer loop
      vertex  3.000000e+000 -4.000000e+000  4.175000e+000
      vertex  3.000000e+000 -2.400000e+001  4.175000e+000
      vertex  0.000000e+000 -2.400000e+001  4.175000e+000
    endloop
  endfacet
  facet normal  0.000000e+000  0.000000e+000 -1.000000e+000
    outer loop
      vertex  3.000000e+000 -4.000000e+000  4.175000e+000
      vertex  0.000000e+000 -2.400000e+001  4.175000e+000
      vertex  0.000000e+000 -4.000000e+000  4.175000e+000
    endloop
  endfacet
  facet normal  0.000000e+000  0.000000e+000 -1.000000e+000
    outer loop
      vertex  7.000000e+000 -2.600000e+001  4.175000e+000
      vertex  3.000000e+000 -2.600000e+001  4.175000e+000
      vertex  7.000000e+000 -2.000000e+000  4.175000e+000
    endloop
  endfacet
  facet normal  0.000000e+000  0.000000e+000 -1.000000e+000
    outer loop
      vertex  7.000000e+000 -2.000000e+000  4.175000e+000
      vertex  3.000000e+000 -2.600000e+001  4.175000e+000
      vertex  3.000000e+000 -2.400000e+001  4.175000e+000
    endloop
  endfacet
  facet normal  0.000000e+000  0.000000e+000  1.000000e+000
    outer loop
      vertex  7.000000e+000  2.000000e+000  7.175000e+000
      vertex  7.000000e+000  2.600000e+001  7.175000e+000
      vertex  0.000000e+000  2.000000e+000  7.175000e+000
    endloop
  endfacet
  facet normal  0.000000e+000  0.000000e+000  1.000000e+000
    outer loop
      vertex  0.000000e+000  2.000000e+000  7.175000e+000
      vertex  7.000000e+000  2.600000e+001  7.175000e+000
      vertex  0.000000e+000  2.600000e+001  7.175000e+000
    endloop
  endfacet
  facet normal  0.000000e+000  0.000000e+000 -1.000000e+000
    outer loop
      vertex  3.000000e+000  2.400000e+001  4.175000e+000
      vertex  3.000000e+000  2.600000e+001  4.175000e+000
      vertex  7.000000e+000  2.600000e+001  4.175000e+000
    endloop
  endfacet
  facet normal  0.000000e+000  0.000000e+000 -1.000000e+000
    outer loop
      vertex  3.000000e+000  2.400000e+001  4.175000e+000
      vertex  7.000000e+000  2.600000e+001  4.175000e+000
      vertex  3.000000e+000  4.000000e+000  4.175000e+000
    endloop
  endfacet
  facet normal  0.000000e+000  0.000000e+000 -1.000000e+000
    outer loop
      vertex  3.000000e+000  2.400000e+001  4.175000e+000
      vertex  3.000000e+000  4.000000e+000  4.175000e+000
      vertex  0.000000e+000  4.000000e+000  4.175000e+000
    endloop
  endfacet
  facet normal  0.000000e+000  0.000000e+000 -1.000000e+000
    outer loop
      vertex  3.000000e+000  2.400000e+001  4.175000e+000
      vertex  0.000000e+000  4.000000e+000  4.175000e+000
      vertex  0.000000e+000  2.400000e+001  4.175000e+000
    endloop
  endfacet
  facet normal  0.000000e+000  0.000000e+000 -1.000000e+000
    outer loop
      vertex  7.000000e+000  2.000000e+000  4.175000e+000
      vertex  3.000000e+000  2.000000e+000  4.175000e+000
      vertex  7.000000e+000  2.600000e+001  4.175000e+000
    endloop
  endfacet
  facet normal  0.000000e+000  0.000000e+000 -1.000000e+000
    outer loop
      vertex  7.000000e+000  2.600000e+001  4.175000e+000
      vertex  3.000000e+000  2.000000e+000  4.175000e+000
      vertex  3.000000e+000  4.000000e+000  4.175000e+000
    endloop
  endfacet
  facet normal  -0.000000e+000  0.000000e+000  1.000000e+000
    outer loop
      vertex  3.000000e+000  2.400000e+001 -4.175000e+000
      vertex  0.000000e+000  2.400000e+001 -4.175000e+000
      vertex  0.000000e+000  4.000000e+000 -4.175000e+000
    endloop
  endfacet
  facet normal  0.000000e+000  0.000000e+000  1.000000e+000
    outer loop
      vertex  3.000000e+000  2.400000e+001 -4.175000e+000
      vertex  0.000000e+000  4.000000e+000 -4.175000e+000
      vertex  3.000000e+000  4.000000e+000 -4.175000e+000
    endloop
  endfacet
  facet normal  0.000000e+000  0.000000e+000  1.000000e+000
    outer loop
      vertex  3.000000e+000  2.400000e+001 -4.175000e+000
      vertex  3.000000e+000  4.000000e+000 -4.175000e+000
      vertex  7.000000e+000  2.600000e+001 -4.175000e+000
    endloop
  endfacet
  facet normal  0.000000e+000  0.000000e+000  1.000000e+000
    outer loop
      vertex  3.000000e+000  2.400000e+001 -4.175000e+000
      vertex  7.000000e+000  2.600000e+001 -4.175000e+000
      vertex  3.000000e+000  2.600000e+001 -4.175000e+000
    endloop
  endfacet
  facet normal  0.000000e+000  0.000000e+000  1.000000e+000
    outer loop
      vertex  7.000000e+000  2.000000e+000 -4.175000e+000
      vertex  7.000000e+000  2.600000e+001 -4.175000e+000
      vertex  3.000000e+000  2.000000e+000 -4.175000e+000
    endloop
  endfacet
  facet normal  0.000000e+000  0.000000e+000  1.000000e+000
    outer loop
      vertex  3.000000e+000  2.000000e+000 -4.175000e+000
      vertex  7.000000e+000  2.600000e+001 -4.175000e+000
      vertex  3.000000e+000  4.000000e+000 -4.175000e+000
    endloop
  endfacet
  facet normal  0.000000e+000  0.000000e+000 -1.000000e+000
    outer loop
      vertex  7.000000e+000  2.600000e+001 -7.175000e+000
      vertex  7.000000e+000  2.000000e+000 -7.175000e+000
      vertex  0.000000e+000  2.600000e+001 -7.175000e+000
    endloop
  endfacet
  facet normal  0.000000e+000  0.000000e+000 -1.000000e+000
    outer loop
      vertex  0.000000e+000  2.600000e+001 -7.175000e+000
      vertex  7.000000e+000  2.000000e+000 -7.175000e+000
      vertex  0.000000e+000  2.000000e+000 -7.175000e+000
    endloop
  endfacet
  facet normal  0.000000e+000  1.000000e+000  -0.000000e+000
    outer loop
      vertex  7.000000e+000  2.600000e+001  7.175000e+000
      vertex  7.000000e+000  2.600000e+001  4.175000e+000
      vertex  0.000000e+000  2.600000e+001  7.175000e+000
    endloop
  endfacet
  facet normal  0.000000e+000  1.000000e+000  0.000000e+000
    outer loop
      vertex  0.000000e+000  2.600000e+001  7.175000e+000
      vertex  7.000000e+000  2.600000e+001  4.175000e+000
      vertex  3.000000e+000  2.600000e+001  4.175000e+000
    endloop
  endfacet
  facet normal  0.000000e+000  1.000000e+000  0.000000e+000
    outer loop
      vertex  0.000000e+000  2.600000e+001  7.175000e+000
      vertex  3.000000e+000  2.600000e+001  4.175000e+000
      vertex  0.000000e+000  2.600000e+001 -7.175000e+000
    endloop
  endfacet
  facet normal  0.000000e+000  1.000000e+000  0.000000e+000
    outer loop
      vertex  0.000000e+000  2.600000e+001 -7.175000e+000
      vertex  3.000000e+000  2.600000e+001  4.175000e+000
      vertex  3.000000e+000  2.600000e+001 -4.175000e+000
    endloop
  endfacet
  facet normal  0.000000e+000  1.000000e+000  0.000000e+000
    outer loop
      vertex  0.000000e+000  2.600000e+001 -7.175000e+000
      vertex  3.000000e+000  2.600000e+001 -4.175000e+000
      vertex  7.000000e+000  2.600000e+001 -7.175000e+000
    endloop
  endfacet
  facet normal  0.000000e+000  1.000000e+000  -0.000000e+000
    outer loop
      vertex  7.000000e+000  2.600000e+001 -7.175000e+000
      vertex  3.000000e+000  2.600000e+001 -4.175000e+000
      vertex  7.000000e+000  2.600000e+001 -4.175000e+000
    endloop
  endfacet
  facet normal  0.000000e+000  0.000000e+000 -1.000000e+000
    outer loop
      vertex  7.000000e+000 -2.000000e+000 -7.175000e+000
      vertex  7.000000e+000 -2.600000e+001 -7.175000e+000
      vertex  0.000000e+000 -2.000000e+000 -7.175000e+000
    endloop
  endfacet
  facet normal  0.000000e+000  0.000000e+000 -1.000000e+000
    outer loop
      vertex  0.000000e+000 -2.000000e+000 -7.175000e+000
      vertex  7.000000e+000 -2.600000e+001 -7.175000e+000
      vertex  0.000000e+000 -2.600000e+001 -7.175000e+000
    endloop
  endfacet
  facet normal  0.000000e+000 -1.000000e+000  -0.000000e+000
    outer loop
      vertex  7.000000e+000 -2.600000e+001 -7.175000e+000
      vertex  7.000000e+000 -2.600000e+001 -4.175000e+000
      vertex  0.000000e+000 -2.600000e+001 -7.175000e+000
    endloop
  endfacet
  facet normal  0.000000e+000 -1.000000e+000  0.000000e+000
    outer loop
      vertex  0.000000e+000 -2.600000e+001 -7.175000e+000
      vertex  7.000000e+000 -2.600000e+001 -4.175000e+000
      vertex  3.000000e+000 -2.600000e+001 -4.175000e+000
    endloop
  endfacet
  facet normal  -0.000000e+000 -1.000000e+000  0.000000e+000
    outer loop
      vertex  0.000000e+000 -2.600000e+001 -7.175000e+000
      vertex  3.000000e+000 -2.600000e+001 -4.175000e+000
      vertex  0.000000e+000 -2.600000e+001  7.175000e+000
    endloop
  endfacet
  facet normal  0.000000e+000 -1.000000e+000  0.000000e+000
    outer loop
      vertex  0.000000e+000 -2.600000e+001  7.175000e+000
      vertex  3.000000e+000 -2.600000e+001 -4.175000e+000
      vertex  3.000000e+000 -2.600000e+001  4.175000e+000
    endloop
  endfacet
  facet normal  0.000000e+000 -1.000000e+000  0.000000e+000
    outer loop
      vertex  0.000000e+000 -2.600000e+001  7.175000e+000
      vertex  3.000000e+000 -2.600000e+001  4.175000e+000
      vertex  7.000000e+000 -2.600000e+001  7.175000e+000
    endloop
  endfacet
  facet normal  0.000000e+000 -1.000000e+000  -0.000000e+000
    outer loop
      vertex  7.000000e+000 -2.600000e+001  7.175000e+000
      vertex  3.000000e+000 -2.600000e+001  4.175000e+000
      vertex  7.000000e+000 -2.600000e+001  4.175000e+000
    endloop
  endfacet
  facet normal  -0.000000e+000  0.000000e+000  1.000000e+000
    outer loop
      vertex  3.000000e+000 -4.000000e+000 -4.175000e+000
      vertex  0.000000e+000 -4.000000e+000 -4.175000e+000
      vertex  0.000000e+000 -2.400000e+001 -4.175000e+000
    endloop
  endfacet
  facet normal  0.000000e+000  0.000000e+000  1.000000e+000
    outer loop
      vertex  3.000000e+000 -4.000000e+000 -4.175000e+000
      vertex  0.000000e+000 -2.400000e+001 -4.175000e+000
      vertex  3.000000e+000 -2.400000e+001 -4.175000e+000
    endloop
  endfacet
  facet normal  0.000000e+000  0.000000e+000  1.000000e+000
    outer loop
      vertex  3.000000e+000 -4.000000e+000 -4.175000e+000
      vertex  3.000000e+000 -2.400000e+001 -4.175000e+000
      vertex  7.000000e+000 -2.000000e+000 -4.175000e+000
    endloop
  endfacet
  facet normal  0.000000e+000  0.000000e+000  1.000000e+000
    outer loop
      vertex  3.000000e+000 -4.000000e+000 -4.175000e+000
      vertex  7.000000e+000 -2.000000e+000 -4.175000e+000
      vertex  3.000000e+000 -2.000000e+000 -4.175000e+000
    endloop
  endfacet
  facet normal  0.000000e+000  0.000000e+000  1.000000e+000
    outer loop
      vertex  7.000000e+000 -2.600000e+001 -4.175000e+000
      vertex  7.000000e+000 -2.000000e+000 -4.175000e+000
      vertex  3.000000e+000 -2.600000e+001 -4.175000e+000
    endloop
  endfacet
  facet normal  0.000000e+000  0.000000e+000  1.000000e+000
    outer loop
      vertex  3.000000e+000 -2.600000e+001 -4.175000e+000
      vertex  7.000000e+000 -2.000000e+000 -4.175000e+000
      vertex  3.000000e+000 -2.400000e+001 -4.175000e+000
    endloop
  endfacet
  facet normal  1.000000e+000  0.000000e+000  0.000000e+000
    outer loop
      vertex  3.000000e+000 -2.600000e+001 -4.175000e+000
      vertex  3.000000e+000 -2.400000e+001 -4.175000e+000
      vertex  3.000000e+000 -2.600000e+001  4.175000e+000
    endloop
  endfacet
  facet normal  1.000000e+000  -0.000000e+000  0.000000e+000
    outer loop
      vertex  3.000000e+000 -2.600000e+001  4.175000e+000
      vertex  3.000000e+000 -2.400000e+001 -4.175000e+000
      vertex  3.000000e+000 -2.400000e+001  4.175000e+000
    endloop
  endfacet
  facet normal  1.000000e+000  0.000000e+000  0.000000e+000
    outer loop
      vertex  3.000000e+000  2.400000e+001 -4.175000e+000
      vertex  3.000000e+000  2.600000e+001 -4.175000e+000
      vertex  3.000000e+000  2.400000e+001  4.175000e+000
    endloop
  endfacet
  facet normal  1.000000e+000  -0.000000e+000  0.000000e+000
    outer loop
      vertex  3.000000e+000  2.400000e+001  4.175000e+000
      vertex  3.000000e+000  2.600000e+001 -4.175000e+000
      vertex  3.000000e+000  2.600000e+001  4.175000e+000
    endloop
  endfacet
  facet normal  0.000000e+000 -1.000000e+000  0.000000e+000
    outer loop
      vertex  3.000000e+000  2.400000e+001  4.175000e+000
      vertex  0.000000e+000  2.400000e+001  4.175000e+000
      vertex  3.000000e+000  2.400000e+001 -4.175000e+000
    endloop
  endfacet
  facet normal  0.000000e+000 -1.000000e+000  0.000000e+000
    outer loop
      vertex  3.000000e+000  2.400000e+001 -4.175000e+000
      vertex  0.000000e+000  2.400000e+001  4.175000e+000
      vertex  0.000000e+000  2.400000e+001 -4.175000e+000
    endloop
  endfacet
  facet normal  0.000000e+000  1.000000e+000  -0.000000e+000
    outer loop
      vertex  3.000000e+000 -2.400000e+001  4.175000e+000
      vertex  3.000000e+000 -2.400000e+001 -4.175000e+000
      vertex  0.000000e+000 -2.400000e+001  4.175000e+000
    endloop
  endfacet
  facet normal  0.000000e+000  1.000000e+000  0.000000e+000
    outer loop
      vertex  0.000000e+000 -2.400000e+001  4.175000e+000
      vertex  3.000000e+000 -2.400000e+001 -4.175000e+000
      vertex  0.000000e+000 -2.400000e+001 -4.175000e+000
    endloop
  endfacet
endsolid CATIA STL
