solid CATIA STL
  facet normal  0.000000e+000  1.000000e+000  0.000000e+000
    outer loop
      vertex  1.836970e-015  3.000000e+000 -1.000000e+001
      vertex  9.425018e-001  3.000000e+000 -2.900722e+000
      vertex  7.071068e+000  3.000000e+000 -7.071068e+000
    endloop
  endfacet
  facet normal  0.000000e+000  1.000000e+000  -0.000000e+000
    outer loop
      vertex  3.826834e+000  3.000000e+000  9.238795e+000
      vertex  2.090560e-016  3.000000e+000  8.800000e+000
      vertex -6.123234e-016  3.000000e+000  1.000000e+001
    endloop
  endfacet
  facet normal  0.000000e+000  1.000000e+000  0.000000e+000
    outer loop
      vertex  1.836970e-015  3.000000e+000 -1.000000e+001
      vertex  7.071068e+000  3.000000e+000 -7.071068e+000
      vertex  3.826834e+000  3.000000e+000 -9.238795e+000
    endloop
  endfacet
  facet normal  -0.000000e+000  1.000000e+000  0.000000e+000
    outer loop
      vertex  2.090560e-016  3.000000e+000  8.800000e+000
      vertex -3.826834e+000  3.000000e+000  9.238795e+000
      vertex -6.123234e-016  3.000000e+000  1.000000e+001
    endloop
  endfacet
  facet normal  0.000000e+000  1.000000e+000  0.000000e+000
    outer loop
      vertex -9.238795e+000  3.000000e+000 -3.826834e+000
      vertex -2.467502e+000  3.000000e+000 -1.792745e+000
      vertex -9.425018e-001  3.000000e+000 -2.900722e+000
    endloop
  endfacet
  facet normal  0.000000e+000  1.000000e+000  0.000000e+000
    outer loop
      vertex  7.071068e+000  3.000000e+000  7.071068e+000
      vertex  9.238795e+000  3.000000e+000  3.826834e+000
      vertex  9.192388e-001  3.000000e+000  6.580761e+000
    endloop
  endfacet
  facet normal  0.000000e+000  1.000000e+000  0.000000e+000
    outer loop
      vertex  7.071068e+000  3.000000e+000  7.071068e+000
      vertex  9.192388e-001  3.000000e+000  6.580761e+000
      vertex  1.300000e+000  3.000000e+000  7.500000e+000
    endloop
  endfacet
  facet normal  -0.000000e+000  1.000000e+000  -0.000000e+000
    outer loop
      vertex  7.071068e+000  3.000000e+000  7.071068e+000
      vertex  1.300000e+000  3.000000e+000  7.500000e+000
      vertex  9.192388e-001  3.000000e+000  8.419239e+000
    endloop
  endfacet
  facet normal  -0.000000e+000  1.000000e+000  -0.000000e+000
    outer loop
      vertex  7.071068e+000  3.000000e+000  7.071068e+000
      vertex  9.192388e-001  3.000000e+000  8.419239e+000
      vertex  2.090560e-016  3.000000e+000  8.800000e+000
    endloop
  endfacet
  facet normal  -0.000000e+000  1.000000e+000  0.000000e+000
    outer loop
      vertex  7.071068e+000  3.000000e+000  7.071068e+000
      vertex  2.090560e-016  3.000000e+000  8.800000e+000
      vertex  3.826834e+000  3.000000e+000  9.238795e+000
    endloop
  endfacet
  facet normal  0.000000e+000  1.000000e+000  -0.000000e+000
    outer loop
      vertex  9.238795e+000  3.000000e+000 -3.826834e+000
      vertex  7.071068e+000  3.000000e+000 -7.071068e+000
      vertex  9.425018e-001  3.000000e+000 -2.900722e+000
    endloop
  endfacet
  facet normal  -0.000000e+000  1.000000e+000  0.000000e+000
    outer loop
      vertex  9.238795e+000  3.000000e+000 -3.826834e+000
      vertex  9.425018e-001  3.000000e+000 -2.900722e+000
      vertex  2.467502e+000  3.000000e+000 -1.792745e+000
    endloop
  endfacet
  facet normal  -0.000000e+000  1.000000e+000  0.000000e+000
    outer loop
      vertex  9.238795e+000  3.000000e+000 -3.826834e+000
      vertex  2.467502e+000  3.000000e+000 -1.792745e+000
      vertex  3.050000e+000  3.000000e+000  3.735173e-016
    endloop
  endfacet
  facet normal  -0.000000e+000  1.000000e+000  0.000000e+000
    outer loop
      vertex  9.238795e+000  3.000000e+000 -3.826834e+000
      vertex  3.050000e+000  3.000000e+000  3.735173e-016
      vertex  1.000000e+001  3.000000e+000  1.224647e-015
    endloop
  endfacet
  facet normal  0.000000e+000  1.000000e+000  0.000000e+000
    outer loop
      vertex -3.826834e+000  3.000000e+000 -9.238795e+000
      vertex -7.071068e+000  3.000000e+000 -7.071068e+000
      vertex  1.836970e-015  3.000000e+000 -1.000000e+001
    endloop
  endfacet
  facet normal  0.000000e+000  1.000000e+000  0.000000e+000
    outer loop
      vertex  1.836970e-015  3.000000e+000 -1.000000e+001
      vertex -7.071068e+000  3.000000e+000 -7.071068e+000
      vertex -9.238795e+000  3.000000e+000 -3.826834e+000
    endloop
  endfacet
  facet normal  -0.000000e+000  1.000000e+000  0.000000e+000
    outer loop
      vertex  1.836970e-015  3.000000e+000 -1.000000e+001
      vertex -9.238795e+000  3.000000e+000 -3.826834e+000
      vertex  9.425018e-001  3.000000e+000 -2.900722e+000
    endloop
  endfacet
  facet normal  0.000000e+000  1.000000e+000  0.000000e+000
    outer loop
      vertex  9.425018e-001  3.000000e+000 -2.900722e+000
      vertex -9.238795e+000  3.000000e+000 -3.826834e+000
      vertex -9.425018e-001  3.000000e+000 -2.900722e+000
    endloop
  endfacet
  facet normal  0.000000e+000  1.000000e+000  0.000000e+000
    outer loop
      vertex -9.158258e-016  3.000000e+000  6.200000e+000
      vertex  9.192388e-001  3.000000e+000  6.580761e+000
      vertex  9.425018e-001  3.000000e+000  2.900722e+000
    endloop
  endfacet
  facet normal  0.000000e+000  1.000000e+000  -0.000000e+000
    outer loop
      vertex  9.425018e-001  3.000000e+000  2.900722e+000
      vertex  9.192388e-001  3.000000e+000  6.580761e+000
      vertex  9.238795e+000  3.000000e+000  3.826834e+000
    endloop
  endfacet
  facet normal  0.000000e+000  9.999999e-001  0.000000e+000
    outer loop
      vertex  9.425018e-001  3.000000e+000  2.900722e+000
      vertex  9.238795e+000  3.000000e+000  3.826834e+000
      vertex  2.467502e+000  3.000000e+000  1.792745e+000
    endloop
  endfacet
  facet normal  -0.000000e+000  1.000000e+000  0.000000e+000
    outer loop
      vertex  2.467502e+000  3.000000e+000  1.792745e+000
      vertex  9.238795e+000  3.000000e+000  3.826834e+000
      vertex  1.000000e+001  3.000000e+000  1.224647e-015
    endloop
  endfacet
  facet normal  0.000000e+000  1.000000e+000  0.000000e+000
    outer loop
      vertex  2.467502e+000  3.000000e+000  1.792745e+000
      vertex  1.000000e+001  3.000000e+000  1.224647e-015
      vertex  3.050000e+000  3.000000e+000  3.735173e-016
    endloop
  endfacet
  facet normal  0.000000e+000  1.000000e+000  0.000000e+000
    outer loop
      vertex -2.467502e+000  3.000000e+000  1.792745e+000
      vertex -1.000000e+001  3.000000e+000  0.000000e+000
      vertex -9.425018e-001  3.000000e+000  2.900722e+000
    endloop
  endfacet
  facet normal  0.000000e+000  1.000000e+000  0.000000e+000
    outer loop
      vertex -9.425018e-001  3.000000e+000  2.900722e+000
      vertex -1.000000e+001  3.000000e+000  0.000000e+000
      vertex -9.238795e+000  3.000000e+000  3.826834e+000
    endloop
  endfacet
  facet normal  0.000000e+000  1.000000e+000  0.000000e+000
    outer loop
      vertex -9.425018e-001  3.000000e+000  2.900722e+000
      vertex -9.238795e+000  3.000000e+000  3.826834e+000
      vertex  9.425018e-001  3.000000e+000  2.900722e+000
    endloop
  endfacet
  facet normal  0.000000e+000  1.000000e+000  0.000000e+000
    outer loop
      vertex  9.425018e-001  3.000000e+000  2.900722e+000
      vertex -9.238795e+000  3.000000e+000  3.826834e+000
      vertex -9.192388e-001  3.000000e+000  6.580761e+000
    endloop
  endfacet
  facet normal  0.000000e+000  1.000000e+000  0.000000e+000
    outer loop
      vertex  9.425018e-001  3.000000e+000  2.900722e+000
      vertex -9.192388e-001  3.000000e+000  6.580761e+000
      vertex -9.158258e-016  3.000000e+000  6.200000e+000
    endloop
  endfacet
  facet normal  0.000000e+000  1.000000e+000  0.000000e+000
    outer loop
      vertex -3.826834e+000  3.000000e+000  9.238795e+000
      vertex  2.090560e-016  3.000000e+000  8.800000e+000
      vertex -7.071068e+000  3.000000e+000  7.071068e+000
    endloop
  endfacet
  facet normal  0.000000e+000  1.000000e+000  0.000000e+000
    outer loop
      vertex -7.071068e+000  3.000000e+000  7.071068e+000
      vertex  2.090560e-016  3.000000e+000  8.800000e+000
      vertex -9.192388e-001  3.000000e+000  8.419239e+000
    endloop
  endfacet
  facet normal  0.000000e+000  1.000000e+000  0.000000e+000
    outer loop
      vertex -7.071068e+000  3.000000e+000  7.071068e+000
      vertex -9.192388e-001  3.000000e+000  8.419239e+000
      vertex -1.300000e+000  3.000000e+000  7.500000e+000
    endloop
  endfacet
  facet normal  0.000000e+000  1.000000e+000  0.000000e+000
    outer loop
      vertex -9.192388e-001  3.000000e+000  6.580761e+000
      vertex -9.238795e+000  3.000000e+000  3.826834e+000
      vertex -1.300000e+000  3.000000e+000  7.500000e+000
    endloop
  endfacet
  facet normal  0.000000e+000  1.000000e+000  0.000000e+000
    outer loop
      vertex -1.300000e+000  3.000000e+000  7.500000e+000
      vertex -9.238795e+000  3.000000e+000  3.826834e+000
      vertex -7.071068e+000  3.000000e+000  7.071068e+000
    endloop
  endfacet
  facet normal  0.000000e+000  1.000000e+000  0.000000e+000
    outer loop
      vertex -2.467502e+000  3.000000e+000 -1.792745e+000
      vertex -9.238795e+000  3.000000e+000 -3.826834e+000
      vertex -3.050000e+000  3.000000e+000  0.000000e+000
    endloop
  endfacet
  facet normal  0.000000e+000  1.000000e+000  0.000000e+000
    outer loop
      vertex -3.050000e+000  3.000000e+000  0.000000e+000
      vertex -9.238795e+000  3.000000e+000 -3.826834e+000
      vertex -1.000000e+001  3.000000e+000  0.000000e+000
    endloop
  endfacet
  facet normal  0.000000e+000  1.000000e+000  0.000000e+000
    outer loop
      vertex -3.050000e+000  3.000000e+000  0.000000e+000
      vertex -1.000000e+001  3.000000e+000  0.000000e+000
      vertex -2.467502e+000  3.000000e+000  1.792745e+000
    endloop
  endfacet
  facet normal -7.071070e-001  0.000000e+000 -7.071065e-001
    outer loop
      vertex  1.800000e+000  2.000000e+000  2.513351e+000
      vertex  2.156676e+000  2.000000e+000  2.156676e+000
      vertex  1.800000e+000  0.000000e+000  2.513351e+000
    endloop
  endfacet
  facet normal -7.071066e-001 -1.554562e-007 -7.071070e-001
    outer loop
      vertex  1.800000e+000  0.000000e+000  2.513351e+000
      vertex  2.156676e+000  2.000000e+000  2.156676e+000
      vertex  2.563351e+000  2.000000e+000  1.750000e+000
    endloop
  endfacet
  facet normal -7.071068e-001  -0.000000e+000 -7.071068e-001
    outer loop
      vertex  1.800000e+000  0.000000e+000  2.513351e+000
      vertex  2.563351e+000  2.000000e+000  1.750000e+000
      vertex  2.563351e+000  0.000000e+000  1.750000e+000
    endloop
  endfacet
  facet normal -7.071066e-001  0.000000e+000  7.071070e-001
    outer loop
      vertex  2.563351e+000  2.000000e+000 -1.750000e+000
      vertex  2.156676e+000  2.000000e+000 -2.156676e+000
      vertex  2.563351e+000  0.000000e+000 -1.750000e+000
    endloop
  endfacet
  facet normal -7.071070e-001 -1.772486e-007  7.071065e-001
    outer loop
      vertex  2.563351e+000  0.000000e+000 -1.750000e+000
      vertex  2.156676e+000  2.000000e+000 -2.156676e+000
      vertex  1.800000e+000  2.000000e+000 -2.513351e+000
    endloop
  endfacet
  facet normal -7.071068e-001  0.000000e+000  7.071068e-001
    outer loop
      vertex  2.563351e+000  0.000000e+000 -1.750000e+000
      vertex  1.800000e+000  2.000000e+000 -2.513351e+000
      vertex  1.800000e+000  0.000000e+000 -2.513351e+000
    endloop
  endfacet
  facet normal  7.071068e-001  0.000000e+000  7.071068e-001
    outer loop
      vertex -1.800000e+000  0.000000e+000 -2.513351e+000
      vertex -1.800000e+000  2.000000e+000 -2.513351e+000
      vertex -2.563351e+000  0.000000e+000 -1.750000e+000
    endloop
  endfacet
  facet normal  7.071070e-001 -1.772486e-007  7.071065e-001
    outer loop
      vertex -2.563351e+000  0.000000e+000 -1.750000e+000
      vertex -1.800000e+000  2.000000e+000 -2.513351e+000
      vertex -2.156676e+000  2.000000e+000 -2.156676e+000
    endloop
  endfacet
  facet normal  7.071066e-001  0.000000e+000  7.071070e-001
    outer loop
      vertex -2.563351e+000  0.000000e+000 -1.750000e+000
      vertex -2.156676e+000  2.000000e+000 -2.156676e+000
      vertex -2.563351e+000  2.000000e+000 -1.750000e+000
    endloop
  endfacet
  facet normal  7.071068e-001  0.000000e+000 -7.071068e-001
    outer loop
      vertex -2.563351e+000  0.000000e+000  1.750000e+000
      vertex -2.563351e+000  2.000000e+000  1.750000e+000
      vertex -1.800000e+000  0.000000e+000  2.513351e+000
    endloop
  endfacet
  facet normal  7.071066e-001 -1.554562e-007 -7.071070e-001
    outer loop
      vertex -1.800000e+000  0.000000e+000  2.513351e+000
      vertex -2.563351e+000  2.000000e+000  1.750000e+000
      vertex -2.156676e+000  2.000000e+000  2.156676e+000
    endloop
  endfacet
  facet normal  7.071070e-001  0.000000e+000 -7.071065e-001
    outer loop
      vertex -1.800000e+000  0.000000e+000  2.513351e+000
      vertex -2.156676e+000  2.000000e+000  2.156676e+000
      vertex -1.800000e+000  2.000000e+000  2.513351e+000
    endloop
  endfacet
  facet normal  0.000000e+000 -1.000000e+000  0.000000e+000
    outer loop
      vertex  1.800000e+000  2.000000e+000  2.513351e+000
      vertex  7.893981e-001  2.000000e+000  2.946074e+000
      vertex  2.156676e+000  2.000000e+000  2.156676e+000
    endloop
  endfacet
  facet normal  0.000000e+000 -1.000000e+000  -0.000000e+000
    outer loop
      vertex  1.800000e+000  2.000000e+000  2.513351e+000
      vertex  1.800000e+000  2.000000e+000  8.600000e+000
      vertex  7.893981e-001  2.000000e+000  2.946074e+000
    endloop
  endfacet
  facet normal  0.000000e+000 -1.000000e+000  0.000000e+000
    outer loop
      vertex  1.800000e+000  2.000000e+000  8.600000e+000
      vertex -7.893981e-001  2.000000e+000  2.946074e+000
      vertex  7.893981e-001  2.000000e+000  2.946074e+000
    endloop
  endfacet
  facet normal  0.000000e+000 -1.000000e+000  0.000000e+000
    outer loop
      vertex  1.800000e+000  2.000000e+000  8.600000e+000
      vertex -1.800000e+000  2.000000e+000  8.600000e+000
      vertex -7.893981e-001  2.000000e+000  2.946074e+000
    endloop
  endfacet
  facet normal  -0.000000e+000 -9.999999e-001  0.000000e+000
    outer loop
      vertex -7.893981e-001  2.000000e+000  2.946074e+000
      vertex -1.800000e+000  2.000000e+000  8.600000e+000
      vertex -1.800000e+000  2.000000e+000  2.513351e+000
    endloop
  endfacet
  facet normal  0.000000e+000 -1.000000e+000  -0.000000e+000
    outer loop
      vertex -7.893981e-001  2.000000e+000  2.946074e+000
      vertex -1.800000e+000  2.000000e+000  2.513351e+000
      vertex -2.156676e+000  2.000000e+000  2.156676e+000
    endloop
  endfacet
  facet normal  0.000000e+000 -1.000000e+000  -0.000000e+000
    outer loop
      vertex -2.156676e+000  2.000000e+000  2.156676e+000
      vertex -2.563351e+000  2.000000e+000  1.750000e+000
      vertex -2.817832e+000  2.000000e+000  1.167184e+000
    endloop
  endfacet
  facet normal  0.000000e+000 -1.000000e+000  0.000000e+000
    outer loop
      vertex -2.156676e+000  2.000000e+000 -2.156676e+000
      vertex -2.817832e+000  2.000000e+000 -1.167184e+000
      vertex -2.563351e+000  2.000000e+000 -1.750000e+000
    endloop
  endfacet
  facet normal  0.000000e+000 -1.000000e+000  0.000000e+000
    outer loop
      vertex -8.100000e+000  2.000000e+000 -1.750000e+000
      vertex -2.563351e+000  2.000000e+000 -1.750000e+000
      vertex -2.817832e+000  2.000000e+000 -1.167184e+000
    endloop
  endfacet
  facet normal  -0.000000e+000 -1.000000e+000  0.000000e+000
    outer loop
      vertex -8.100000e+000  2.000000e+000 -1.750000e+000
      vertex -2.817832e+000  2.000000e+000 -1.167184e+000
      vertex -3.050000e+000  2.000000e+000  0.000000e+000
    endloop
  endfacet
  facet normal  -0.000000e+000 -1.000000e+000  0.000000e+000
    outer loop
      vertex -8.100000e+000  2.000000e+000 -1.750000e+000
      vertex -3.050000e+000  2.000000e+000  0.000000e+000
      vertex -2.817832e+000  2.000000e+000  1.167184e+000
    endloop
  endfacet
  facet normal  -0.000000e+000 -1.000000e+000  0.000000e+000
    outer loop
      vertex -8.100000e+000  2.000000e+000 -1.750000e+000
      vertex -2.817832e+000  2.000000e+000  1.167184e+000
      vertex -2.563351e+000  2.000000e+000  1.750000e+000
    endloop
  endfacet
  facet normal  -0.000000e+000 -9.999999e-001  0.000000e+000
    outer loop
      vertex -8.100000e+000  2.000000e+000 -1.750000e+000
      vertex -2.563351e+000  2.000000e+000  1.750000e+000
      vertex -8.100000e+000  2.000000e+000  1.750000e+000
    endloop
  endfacet
  facet normal  0.000000e+000 -1.000000e+000  0.000000e+000
    outer loop
      vertex -1.800000e+000  2.000000e+000 -2.513351e+000
      vertex -7.893981e-001  2.000000e+000 -2.946074e+000
      vertex -2.156676e+000  2.000000e+000 -2.156676e+000
    endloop
  endfacet
  facet normal  0.000000e+000 -1.000000e+000  0.000000e+000
    outer loop
      vertex -1.800000e+000  2.000000e+000 -2.513351e+000
      vertex -1.800000e+000  2.000000e+000 -8.600000e+000
      vertex -7.893981e-001  2.000000e+000 -2.946074e+000
    endloop
  endfacet
  facet normal  0.000000e+000 -9.999999e-001  0.000000e+000
    outer loop
      vertex  1.800000e+000  2.000000e+000 -2.513351e+000
      vertex  2.156676e+000  2.000000e+000 -2.156676e+000
      vertex  7.893981e-001  2.000000e+000 -2.946074e+000
    endloop
  endfacet
  facet normal  0.000000e+000 -1.000000e+000  0.000000e+000
    outer loop
      vertex -7.893981e-001  2.000000e+000 -2.946074e+000
      vertex -1.800000e+000  2.000000e+000 -8.600000e+000
      vertex  7.893981e-001  2.000000e+000 -2.946074e+000
    endloop
  endfacet
  facet normal  0.000000e+000 -1.000000e+000  -0.000000e+000
    outer loop
      vertex  7.893981e-001  2.000000e+000 -2.946074e+000
      vertex -1.800000e+000  2.000000e+000 -8.600000e+000
      vertex  1.800000e+000  2.000000e+000 -8.600000e+000
    endloop
  endfacet
  facet normal  0.000000e+000 -1.000000e+000  0.000000e+000
    outer loop
      vertex  7.893981e-001  2.000000e+000 -2.946074e+000
      vertex  1.800000e+000  2.000000e+000 -8.600000e+000
      vertex  1.800000e+000  2.000000e+000 -2.513351e+000
    endloop
  endfacet
  facet normal  0.000000e+000 -1.000000e+000  0.000000e+000
    outer loop
      vertex  2.563351e+000  2.000000e+000 -1.750000e+000
      vertex  2.817832e+000  2.000000e+000 -1.167184e+000
      vertex  2.156676e+000  2.000000e+000 -2.156676e+000
    endloop
  endfacet
  facet normal  0.000000e+000 -1.000000e+000  0.000000e+000
    outer loop
      vertex  2.563351e+000  2.000000e+000 -1.750000e+000
      vertex  8.100000e+000  2.000000e+000 -1.750000e+000
      vertex  2.817832e+000  2.000000e+000 -1.167184e+000
    endloop
  endfacet
  facet normal  0.000000e+000 -1.000000e+000  0.000000e+000
    outer loop
      vertex  2.156676e+000  2.000000e+000  2.156676e+000
      vertex  2.817832e+000  2.000000e+000  1.167184e+000
      vertex  2.563351e+000  2.000000e+000  1.750000e+000
    endloop
  endfacet
  facet normal  -0.000000e+000 -9.999999e-001  -0.000000e+000
    outer loop
      vertex  8.100000e+000  2.000000e+000 -1.750000e+000
      vertex  8.100000e+000  2.000000e+000  1.750000e+000
      vertex  2.563351e+000  2.000000e+000  1.750000e+000
    endloop
  endfacet
  facet normal  0.000000e+000 -1.000000e+000  0.000000e+000
    outer loop
      vertex  8.100000e+000  2.000000e+000 -1.750000e+000
      vertex  2.563351e+000  2.000000e+000  1.750000e+000
      vertex  2.817832e+000  2.000000e+000  1.167184e+000
    endloop
  endfacet
  facet normal  0.000000e+000 -1.000000e+000  0.000000e+000
    outer loop
      vertex  8.100000e+000  2.000000e+000 -1.750000e+000
      vertex  2.817832e+000  2.000000e+000  1.167184e+000
      vertex  3.050000e+000  2.000000e+000  1.727989e-015
    endloop
  endfacet
  facet normal  0.000000e+000 -1.000000e+000  -0.000000e+000
    outer loop
      vertex  8.100000e+000  2.000000e+000 -1.750000e+000
      vertex  3.050000e+000  2.000000e+000  1.727989e-015
      vertex  2.817832e+000  2.000000e+000 -1.167184e+000
    endloop
  endfacet
  facet normal  8.301572e-001  5.616480e-002  5.546933e-001
    outer loop
      vertex -2.156676e+000  2.000000e+000 -2.156676e+000
      vertex -2.467502e+000  3.000000e+000 -1.792745e+000
      vertex -2.817832e+000  2.000000e+000 -1.167184e+000
    endloop
  endfacet
  facet normal  9.418871e-001 -1.385268e-001  3.060376e-001
    outer loop
      vertex -2.817832e+000  2.000000e+000 -1.167184e+000
      vertex -2.467502e+000  3.000000e+000 -1.792745e+000
      vertex -3.050000e+000  3.000000e+000  0.000000e+000
    endloop
  endfacet
  facet normal  9.807853e-001  0.000000e+000  1.950904e-001
    outer loop
      vertex -2.817832e+000  2.000000e+000 -1.167184e+000
      vertex -3.050000e+000  3.000000e+000  0.000000e+000
      vertex -3.050000e+000  2.000000e+000  0.000000e+000
    endloop
  endfacet
  facet normal -8.301572e-001  5.616480e-002  5.546933e-001
    outer loop
      vertex  2.817832e+000  2.000000e+000 -1.167184e+000
      vertex  2.467502e+000  3.000000e+000 -1.792745e+000
      vertex  2.156676e+000  2.000000e+000 -2.156676e+000
    endloop
  endfacet
  facet normal -5.841506e-001 -1.110361e-001  8.040144e-001
    outer loop
      vertex  2.156676e+000  2.000000e+000 -2.156676e+000
      vertex  2.467502e+000  3.000000e+000 -1.792745e+000
      vertex  9.425018e-001  3.000000e+000 -2.900722e+000
    endloop
  endfacet
  facet normal -4.996530e-001  3.725047e-002  8.654243e-001
    outer loop
      vertex  2.156676e+000  2.000000e+000 -2.156676e+000
      vertex  9.425018e-001  3.000000e+000 -2.900722e+000
      vertex  7.893981e-001  2.000000e+000 -2.946074e+000
    endloop
  endfacet
  facet normal  0.000000e+000 -4.530494e-002  9.989732e-001
    outer loop
      vertex  7.893981e-001  2.000000e+000 -2.946074e+000
      vertex  9.425018e-001  3.000000e+000 -2.900722e+000
      vertex -9.425018e-001  3.000000e+000 -2.900722e+000
    endloop
  endfacet
  facet normal  0.000000e+000 -4.530494e-002  9.989731e-001
    outer loop
      vertex  7.893981e-001  2.000000e+000 -2.946074e+000
      vertex -9.425018e-001  3.000000e+000 -2.900722e+000
      vertex -7.893981e-001  2.000000e+000 -2.946074e+000
    endloop
  endfacet
  facet normal  5.869520e-001  5.322643e-002  8.078702e-001
    outer loop
      vertex -7.893981e-001  2.000000e+000 -2.946074e+000
      vertex -9.425018e-001  3.000000e+000 -2.900722e+000
      vertex -2.467502e+000  3.000000e+000 -1.792745e+000
    endloop
  endfacet
  facet normal  4.937389e-001 -1.577594e-001  8.551806e-001
    outer loop
      vertex -7.893981e-001  2.000000e+000 -2.946074e+000
      vertex -2.467502e+000  3.000000e+000 -1.792745e+000
      vertex -2.156676e+000  2.000000e+000 -2.156676e+000
    endloop
  endfacet
  facet normal -9.807853e-001  2.642444e-016  1.950904e-001
    outer loop
      vertex  3.050000e+000  2.000000e+000  1.727989e-015
      vertex  3.050000e+000  3.000000e+000  3.735173e-016
      vertex  2.817832e+000  2.000000e+000 -1.167184e+000
    endloop
  endfacet
  facet normal -9.418871e-001 -1.385268e-001  3.060376e-001
    outer loop
      vertex  2.817832e+000  2.000000e+000 -1.167184e+000
      vertex  3.050000e+000  3.000000e+000  3.735173e-016
      vertex  2.467502e+000  3.000000e+000 -1.792745e+000
    endloop
  endfacet
  facet normal -8.301572e-001  5.616480e-002 -5.546933e-001
    outer loop
      vertex  2.156676e+000  2.000000e+000  2.156676e+000
      vertex  2.467502e+000  3.000000e+000  1.792745e+000
      vertex  2.817832e+000  2.000000e+000  1.167184e+000
    endloop
  endfacet
  facet normal -9.418871e-001 -1.385268e-001 -3.060376e-001
    outer loop
      vertex  2.817832e+000  2.000000e+000  1.167184e+000
      vertex  2.467502e+000  3.000000e+000  1.792745e+000
      vertex  3.050000e+000  3.000000e+000  3.735173e-016
    endloop
  endfacet
  facet normal -9.807853e-001 -2.642444e-016 -1.950904e-001
    outer loop
      vertex  2.817832e+000  2.000000e+000  1.167184e+000
      vertex  3.050000e+000  3.000000e+000  3.735173e-016
      vertex  3.050000e+000  2.000000e+000  1.727989e-015
    endloop
  endfacet
  facet normal  8.301572e-001  5.616480e-002 -5.546933e-001
    outer loop
      vertex -2.817832e+000  2.000000e+000  1.167184e+000
      vertex -2.467502e+000  3.000000e+000  1.792745e+000
      vertex -2.156676e+000  2.000000e+000  2.156676e+000
    endloop
  endfacet
  facet normal  5.841506e-001 -1.110361e-001 -8.040144e-001
    outer loop
      vertex -2.156676e+000  2.000000e+000  2.156676e+000
      vertex -2.467502e+000  3.000000e+000  1.792745e+000
      vertex -9.425018e-001  3.000000e+000  2.900722e+000
    endloop
  endfacet
  facet normal  4.996530e-001  3.725047e-002 -8.654243e-001
    outer loop
      vertex -2.156676e+000  2.000000e+000  2.156676e+000
      vertex -9.425018e-001  3.000000e+000  2.900722e+000
      vertex -7.893981e-001  2.000000e+000  2.946074e+000
    endloop
  endfacet
  facet normal  0.000000e+000 -4.530494e-002 -9.989732e-001
    outer loop
      vertex -7.893981e-001  2.000000e+000  2.946074e+000
      vertex -9.425018e-001  3.000000e+000  2.900722e+000
      vertex  9.425018e-001  3.000000e+000  2.900722e+000
    endloop
  endfacet
  facet normal  0.000000e+000 -4.530494e-002 -9.989731e-001
    outer loop
      vertex -7.893981e-001  2.000000e+000  2.946074e+000
      vertex  9.425018e-001  3.000000e+000  2.900722e+000
      vertex  7.893981e-001  2.000000e+000  2.946074e+000
    endloop
  endfacet
  facet normal -5.869520e-001  5.322643e-002 -8.078702e-001
    outer loop
      vertex  7.893981e-001  2.000000e+000  2.946074e+000
      vertex  9.425018e-001  3.000000e+000  2.900722e+000
      vertex  2.467502e+000  3.000000e+000  1.792745e+000
    endloop
  endfacet
  facet normal -4.937389e-001 -1.577594e-001 -8.551806e-001
    outer loop
      vertex  7.893981e-001  2.000000e+000  2.946074e+000
      vertex  2.467502e+000  3.000000e+000  1.792745e+000
      vertex  2.156676e+000  2.000000e+000  2.156676e+000
    endloop
  endfacet
  facet normal  9.807853e-001  0.000000e+000 -1.950904e-001
    outer loop
      vertex -3.050000e+000  2.000000e+000  0.000000e+000
      vertex -3.050000e+000  3.000000e+000  0.000000e+000
      vertex -2.817832e+000  2.000000e+000  1.167184e+000
    endloop
  endfacet
  facet normal  9.418871e-001 -1.385268e-001 -3.060376e-001
    outer loop
      vertex -2.817832e+000  2.000000e+000  1.167184e+000
      vertex -3.050000e+000  3.000000e+000  0.000000e+000
      vertex -2.467502e+000  3.000000e+000  1.792745e+000
    endloop
  endfacet
  facet normal -9.238796e-001  -0.000000e+000 -3.826833e-001
    outer loop
      vertex -1.300000e+000  3.000000e+000  7.500000e+000
      vertex -1.300000e+000  9.000000e+000  7.500000e+000
      vertex -9.192388e-001  3.000000e+000  6.580761e+000
    endloop
  endfacet
  facet normal -9.238796e-001  0.000000e+000 -3.826833e-001
    outer loop
      vertex -9.192388e-001  3.000000e+000  6.580761e+000
      vertex -1.300000e+000  9.000000e+000  7.500000e+000
      vertex -9.192388e-001  9.000000e+000  6.580761e+000
    endloop
  endfacet
  facet normal -3.826834e-001  -0.000000e+000 -9.238796e-001
    outer loop
      vertex -9.192388e-001  3.000000e+000  6.580761e+000
      vertex -9.192388e-001  9.000000e+000  6.580761e+000
      vertex -9.158258e-016  3.000000e+000  6.200000e+000
    endloop
  endfacet
  facet normal -3.826834e-001  0.000000e+000 -9.238796e-001
    outer loop
      vertex -9.158258e-016  3.000000e+000  6.200000e+000
      vertex -9.192388e-001  9.000000e+000  6.580761e+000
      vertex -9.158258e-016  9.000000e+000  6.200000e+000
    endloop
  endfacet
  facet normal  3.826834e-001  0.000000e+000 -9.238796e-001
    outer loop
      vertex -9.158258e-016  3.000000e+000  6.200000e+000
      vertex -9.158258e-016  9.000000e+000  6.200000e+000
      vertex  9.192388e-001  3.000000e+000  6.580761e+000
    endloop
  endfacet
  facet normal  3.826834e-001  0.000000e+000 -9.238796e-001
    outer loop
      vertex  9.192388e-001  3.000000e+000  6.580761e+000
      vertex -9.158258e-016  9.000000e+000  6.200000e+000
      vertex  9.192388e-001  9.000000e+000  6.580761e+000
    endloop
  endfacet
  facet normal  9.238796e-001  0.000000e+000 -3.826833e-001
    outer loop
      vertex  9.192388e-001  3.000000e+000  6.580761e+000
      vertex  9.192388e-001  9.000000e+000  6.580761e+000
      vertex  1.300000e+000  3.000000e+000  7.500000e+000
    endloop
  endfacet
  facet normal  9.238796e-001  0.000000e+000 -3.826833e-001
    outer loop
      vertex  1.300000e+000  3.000000e+000  7.500000e+000
      vertex  9.192388e-001  9.000000e+000  6.580761e+000
      vertex  1.300000e+000  9.000000e+000  7.500000e+000
    endloop
  endfacet
  facet normal  9.238796e-001  0.000000e+000  3.826833e-001
    outer loop
      vertex  1.300000e+000  3.000000e+000  7.500000e+000
      vertex  1.300000e+000  9.000000e+000  7.500000e+000
      vertex  9.192388e-001  3.000000e+000  8.419239e+000
    endloop
  endfacet
  facet normal  9.238796e-001  -0.000000e+000  3.826833e-001
    outer loop
      vertex  9.192388e-001  3.000000e+000  8.419239e+000
      vertex  1.300000e+000  9.000000e+000  7.500000e+000
      vertex  9.192388e-001  9.000000e+000  8.419239e+000
    endloop
  endfacet
  facet normal  3.826834e-001  0.000000e+000  9.238796e-001
    outer loop
      vertex  9.192388e-001  3.000000e+000  8.419239e+000
      vertex  9.192388e-001  9.000000e+000  8.419239e+000
      vertex  2.090560e-016  3.000000e+000  8.800000e+000
    endloop
  endfacet
  facet normal  3.826834e-001  -0.000000e+000  9.238796e-001
    outer loop
      vertex  2.090560e-016  3.000000e+000  8.800000e+000
      vertex  9.192388e-001  9.000000e+000  8.419239e+000
      vertex  2.090560e-016  9.000000e+000  8.800000e+000
    endloop
  endfacet
  facet normal -3.826834e-001  0.000000e+000  9.238796e-001
    outer loop
      vertex  2.090560e-016  3.000000e+000  8.800000e+000
      vertex  2.090560e-016  9.000000e+000  8.800000e+000
      vertex -9.192388e-001  3.000000e+000  8.419239e+000
    endloop
  endfacet
  facet normal -3.826834e-001  0.000000e+000  9.238796e-001
    outer loop
      vertex -9.192388e-001  3.000000e+000  8.419239e+000
      vertex  2.090560e-016  9.000000e+000  8.800000e+000
      vertex -9.192388e-001  9.000000e+000  8.419239e+000
    endloop
  endfacet
  facet normal -9.238796e-001  0.000000e+000  3.826833e-001
    outer loop
      vertex -9.192388e-001  3.000000e+000  8.419239e+000
      vertex -9.192388e-001  9.000000e+000  8.419239e+000
      vertex -1.300000e+000  3.000000e+000  7.500000e+000
    endloop
  endfacet
  facet normal -9.238796e-001  0.000000e+000  3.826833e-001
    outer loop
      vertex -1.300000e+000  3.000000e+000  7.500000e+000
      vertex -9.192388e-001  9.000000e+000  8.419239e+000
      vertex -1.300000e+000  9.000000e+000  7.500000e+000
    endloop
  endfacet
  facet normal  0.000000e+000  1.000000e+000  0.000000e+000
    outer loop
      vertex  9.192388e-001  9.000000e+000  8.419239e+000
      vertex -9.192388e-001  9.000000e+000  8.419239e+000
      vertex  2.090560e-016  9.000000e+000  8.800000e+000
    endloop
  endfacet
  facet normal  0.000000e+000  9.999999e-001  0.000000e+000
    outer loop
      vertex -9.192388e-001  9.000000e+000  8.419239e+000
      vertex  9.192388e-001  9.000000e+000  8.419239e+000
      vertex -1.300000e+000  9.000000e+000  7.500000e+000
    endloop
  endfacet
  facet normal  0.000000e+000  1.000000e+000  0.000000e+000
    outer loop
      vertex -1.300000e+000  9.000000e+000  7.500000e+000
      vertex  9.192388e-001  9.000000e+000  8.419239e+000
      vertex  1.300000e+000  9.000000e+000  7.500000e+000
    endloop
  endfacet
  facet normal  0.000000e+000  1.000000e+000  0.000000e+000
    outer loop
      vertex -1.300000e+000  9.000000e+000  7.500000e+000
      vertex  1.300000e+000  9.000000e+000  7.500000e+000
      vertex -9.192388e-001  9.000000e+000  6.580761e+000
    endloop
  endfacet
  facet normal  0.000000e+000  9.999999e-001  0.000000e+000
    outer loop
      vertex -9.192388e-001  9.000000e+000  6.580761e+000
      vertex  1.300000e+000  9.000000e+000  7.500000e+000
      vertex  9.192388e-001  9.000000e+000  6.580761e+000
    endloop
  endfacet
  facet normal  0.000000e+000  1.000000e+000  0.000000e+000
    outer loop
      vertex -9.192388e-001  9.000000e+000  6.580761e+000
      vertex  9.192388e-001  9.000000e+000  6.580761e+000
      vertex -9.158258e-016  9.000000e+000  6.200000e+000
    endloop
  endfacet
  facet normal  0.000000e+000 -9.999999e-001  0.000000e+000
    outer loop
      vertex  8.100000e+000  0.000000e+000  1.750000e+000
      vertex  1.000000e+001  0.000000e+000  1.224647e-015
      vertex  9.238795e+000  0.000000e+000  3.826834e+000
    endloop
  endfacet
  facet normal  0.000000e+000 -1.000000e+000  0.000000e+000
    outer loop
      vertex  8.100000e+000  0.000000e+000  1.750000e+000
      vertex  9.238795e+000  0.000000e+000  3.826834e+000
      vertex  1.800000e+000  0.000000e+000  2.513351e+000
    endloop
  endfacet
  facet normal  0.000000e+000 -1.000000e+000  0.000000e+000
    outer loop
      vertex  8.100000e+000  0.000000e+000  1.750000e+000
      vertex  1.800000e+000  0.000000e+000  2.513351e+000
      vertex  2.563351e+000  0.000000e+000  1.750000e+000
    endloop
  endfacet
  facet normal  0.000000e+000 -1.000000e+000  -0.000000e+000
    outer loop
      vertex  1.800000e+000  0.000000e+000 -8.600000e+000
      vertex -1.800000e+000  0.000000e+000 -8.600000e+000
      vertex -3.826834e+000  0.000000e+000 -9.238795e+000
    endloop
  endfacet
  facet normal  0.000000e+000 -1.000000e+000  0.000000e+000
    outer loop
      vertex  1.800000e+000  0.000000e+000 -8.600000e+000
      vertex -3.826834e+000  0.000000e+000 -9.238795e+000
      vertex  1.836970e-015  0.000000e+000 -1.000000e+001
    endloop
  endfacet
  facet normal  0.000000e+000 -1.000000e+000  0.000000e+000
    outer loop
      vertex  1.800000e+000  0.000000e+000 -8.600000e+000
      vertex  1.836970e-015  0.000000e+000 -1.000000e+001
      vertex  3.826834e+000  0.000000e+000 -9.238795e+000
    endloop
  endfacet
  facet normal  0.000000e+000 -1.000000e+000  0.000000e+000
    outer loop
      vertex  1.800000e+000  0.000000e+000 -8.600000e+000
      vertex  3.826834e+000  0.000000e+000 -9.238795e+000
      vertex  7.071068e+000  0.000000e+000 -7.071068e+000
    endloop
  endfacet
  facet normal  -0.000000e+000 -1.000000e+000  0.000000e+000
    outer loop
      vertex  1.800000e+000  0.000000e+000 -8.600000e+000
      vertex  7.071068e+000  0.000000e+000 -7.071068e+000
      vertex  9.238795e+000  0.000000e+000 -3.826834e+000
    endloop
  endfacet
  facet normal  -0.000000e+000 -1.000000e+000  0.000000e+000
    outer loop
      vertex  1.800000e+000  0.000000e+000 -8.600000e+000
      vertex  9.238795e+000  0.000000e+000 -3.826834e+000
      vertex  1.800000e+000  0.000000e+000 -2.513351e+000
    endloop
  endfacet
  facet normal  0.000000e+000 -9.999999e-001  0.000000e+000
    outer loop
      vertex -1.000000e+001  0.000000e+000  0.000000e+000
      vertex -9.238795e+000  0.000000e+000 -3.826834e+000
      vertex -8.100000e+000  0.000000e+000 -1.750000e+000
    endloop
  endfacet
  facet normal  0.000000e+000 -1.000000e+000  0.000000e+000
    outer loop
      vertex -1.000000e+001  0.000000e+000  0.000000e+000
      vertex -8.100000e+000  0.000000e+000 -1.750000e+000
      vertex -8.100000e+000  0.000000e+000  1.750000e+000
    endloop
  endfacet
  facet normal  -0.000000e+000 -9.999999e-001  0.000000e+000
    outer loop
      vertex -1.000000e+001  0.000000e+000  0.000000e+000
      vertex -8.100000e+000  0.000000e+000  1.750000e+000
      vertex -9.238795e+000  0.000000e+000  3.826834e+000
    endloop
  endfacet
  facet normal  0.000000e+000 -1.000000e+000  0.000000e+000
    outer loop
      vertex -7.071068e+000  0.000000e+000  7.071068e+000
      vertex -9.238795e+000  0.000000e+000  3.826834e+000
      vertex -1.800000e+000  0.000000e+000  2.513351e+000
    endloop
  endfacet
  facet normal  -0.000000e+000 -1.000000e+000  0.000000e+000
    outer loop
      vertex -1.800000e+000  0.000000e+000  2.513351e+000
      vertex -9.238795e+000  0.000000e+000  3.826834e+000
      vertex -8.100000e+000  0.000000e+000  1.750000e+000
    endloop
  endfacet
  facet normal  0.000000e+000 -1.000000e+000  0.000000e+000
    outer loop
      vertex -1.800000e+000  0.000000e+000  2.513351e+000
      vertex -8.100000e+000  0.000000e+000  1.750000e+000
      vertex -2.563351e+000  0.000000e+000  1.750000e+000
    endloop
  endfacet
  facet normal  0.000000e+000 -1.000000e+000  0.000000e+000
    outer loop
      vertex  3.826834e+000  0.000000e+000  9.238795e+000
      vertex -6.123234e-016  0.000000e+000  1.000000e+001
      vertex  1.800000e+000  0.000000e+000  8.600000e+000
    endloop
  endfacet
  facet normal  0.000000e+000 -9.999999e-001  0.000000e+000
    outer loop
      vertex  1.800000e+000  0.000000e+000  8.600000e+000
      vertex -6.123234e-016  0.000000e+000  1.000000e+001
      vertex -3.826834e+000  0.000000e+000  9.238795e+000
    endloop
  endfacet
  facet normal  0.000000e+000 -1.000000e+000  0.000000e+000
    outer loop
      vertex  1.800000e+000  0.000000e+000  8.600000e+000
      vertex -3.826834e+000  0.000000e+000  9.238795e+000
      vertex -1.800000e+000  0.000000e+000  8.600000e+000
    endloop
  endfacet
  facet normal  -0.000000e+000 -1.000000e+000  0.000000e+000
    outer loop
      vertex -1.800000e+000  0.000000e+000  8.600000e+000
      vertex -3.826834e+000  0.000000e+000  9.238795e+000
      vertex -7.071068e+000  0.000000e+000  7.071068e+000
    endloop
  endfacet
  facet normal  0.000000e+000 -1.000000e+000  0.000000e+000
    outer loop
      vertex -1.800000e+000  0.000000e+000  8.600000e+000
      vertex -7.071068e+000  0.000000e+000  7.071068e+000
      vertex -1.800000e+000  0.000000e+000  2.513351e+000
    endloop
  endfacet
  facet normal  0.000000e+000 -1.000000e+000  -0.000000e+000
    outer loop
      vertex  9.238795e+000  0.000000e+000  3.826834e+000
      vertex  7.071068e+000  0.000000e+000  7.071068e+000
      vertex  1.800000e+000  0.000000e+000  2.513351e+000
    endloop
  endfacet
  facet normal  0.000000e+000 -1.000000e+000  0.000000e+000
    outer loop
      vertex  1.800000e+000  0.000000e+000  2.513351e+000
      vertex  7.071068e+000  0.000000e+000  7.071068e+000
      vertex  3.826834e+000  0.000000e+000  9.238795e+000
    endloop
  endfacet
  facet normal  0.000000e+000 -1.000000e+000  0.000000e+000
    outer loop
      vertex  1.800000e+000  0.000000e+000  2.513351e+000
      vertex  3.826834e+000  0.000000e+000  9.238795e+000
      vertex  1.800000e+000  0.000000e+000  8.600000e+000
    endloop
  endfacet
  facet normal  0.000000e+000 -1.000000e+000  0.000000e+000
    outer loop
      vertex  8.100000e+000  0.000000e+000  1.750000e+000
      vertex  8.100000e+000  0.000000e+000 -1.750000e+000
      vertex  1.000000e+001  0.000000e+000  1.224647e-015
    endloop
  endfacet
  facet normal  0.000000e+000 -9.999999e-001  0.000000e+000
    outer loop
      vertex  1.000000e+001  0.000000e+000  1.224647e-015
      vertex  8.100000e+000  0.000000e+000 -1.750000e+000
      vertex  9.238795e+000  0.000000e+000 -3.826834e+000
    endloop
  endfacet
  facet normal  0.000000e+000 -1.000000e+000  0.000000e+000
    outer loop
      vertex  8.100000e+000  0.000000e+000 -1.750000e+000
      vertex  2.563351e+000  0.000000e+000 -1.750000e+000
      vertex  9.238795e+000  0.000000e+000 -3.826834e+000
    endloop
  endfacet
  facet normal  0.000000e+000 -1.000000e+000  0.000000e+000
    outer loop
      vertex  9.238795e+000  0.000000e+000 -3.826834e+000
      vertex  2.563351e+000  0.000000e+000 -1.750000e+000
      vertex  1.800000e+000  0.000000e+000 -2.513351e+000
    endloop
  endfacet
  facet normal  -0.000000e+000 -1.000000e+000  0.000000e+000
    outer loop
      vertex -3.826834e+000  0.000000e+000 -9.238795e+000
      vertex -1.800000e+000  0.000000e+000 -8.600000e+000
      vertex -7.071068e+000  0.000000e+000 -7.071068e+000
    endloop
  endfacet
  facet normal  0.000000e+000 -1.000000e+000  0.000000e+000
    outer loop
      vertex -7.071068e+000  0.000000e+000 -7.071068e+000
      vertex -1.800000e+000  0.000000e+000 -8.600000e+000
      vertex -1.800000e+000  0.000000e+000 -2.513351e+000
    endloop
  endfacet
  facet normal  0.000000e+000 -1.000000e+000  0.000000e+000
    outer loop
      vertex -7.071068e+000  0.000000e+000 -7.071068e+000
      vertex -1.800000e+000  0.000000e+000 -2.513351e+000
      vertex -9.238795e+000  0.000000e+000 -3.826834e+000
    endloop
  endfacet
  facet normal  0.000000e+000 -1.000000e+000  0.000000e+000
    outer loop
      vertex -9.238795e+000  0.000000e+000 -3.826834e+000
      vertex -1.800000e+000  0.000000e+000 -2.513351e+000
      vertex -2.563351e+000  0.000000e+000 -1.750000e+000
    endloop
  endfacet
  facet normal  -0.000000e+000 -1.000000e+000  0.000000e+000
    outer loop
      vertex -9.238795e+000  0.000000e+000 -3.826834e+000
      vertex -2.563351e+000  0.000000e+000 -1.750000e+000
      vertex -8.100000e+000  0.000000e+000 -1.750000e+000
    endloop
  endfacet
  facet normal  -0.000000e+000  0.000000e+000 -9.999999e-001
    outer loop
      vertex -8.100000e+000  2.000000e+000  1.750000e+000
      vertex -2.563351e+000  2.000000e+000  1.750000e+000
      vertex -8.100000e+000  0.000000e+000  1.750000e+000
    endloop
  endfacet
  facet normal  0.000000e+000  0.000000e+000 -9.999999e-001
    outer loop
      vertex -8.100000e+000  0.000000e+000  1.750000e+000
      vertex -2.563351e+000  2.000000e+000  1.750000e+000
      vertex -2.563351e+000  0.000000e+000  1.750000e+000
    endloop
  endfacet
  facet normal  1.000000e+000  -0.000000e+000  0.000000e+000
    outer loop
      vertex -1.800000e+000  2.000000e+000  8.600000e+000
      vertex -1.800000e+000  0.000000e+000  8.600000e+000
      vertex -1.800000e+000  2.000000e+000  2.513351e+000
    endloop
  endfacet
  facet normal  1.000000e+000  0.000000e+000  0.000000e+000
    outer loop
      vertex -1.800000e+000  2.000000e+000  2.513351e+000
      vertex -1.800000e+000  0.000000e+000  8.600000e+000
      vertex -1.800000e+000  0.000000e+000  2.513351e+000
    endloop
  endfacet
  facet normal  -0.000000e+000  0.000000e+000 -1.000000e+000
    outer loop
      vertex -1.800000e+000  2.000000e+000  8.600000e+000
      vertex  1.800000e+000  2.000000e+000  8.600000e+000
      vertex -1.800000e+000  0.000000e+000  8.600000e+000
    endloop
  endfacet
  facet normal  0.000000e+000  0.000000e+000 -1.000000e+000
    outer loop
      vertex -1.800000e+000  0.000000e+000  8.600000e+000
      vertex  1.800000e+000  2.000000e+000  8.600000e+000
      vertex  1.800000e+000  0.000000e+000  8.600000e+000
    endloop
  endfacet
  facet normal -1.000000e+000  0.000000e+000  0.000000e+000
    outer loop
      vertex  1.800000e+000  2.000000e+000  8.600000e+000
      vertex  1.800000e+000  2.000000e+000  2.513351e+000
      vertex  1.800000e+000  0.000000e+000  8.600000e+000
    endloop
  endfacet
  facet normal -1.000000e+000  0.000000e+000  0.000000e+000
    outer loop
      vertex  1.800000e+000  0.000000e+000  8.600000e+000
      vertex  1.800000e+000  2.000000e+000  2.513351e+000
      vertex  1.800000e+000  0.000000e+000  2.513351e+000
    endloop
  endfacet
  facet normal  -0.000000e+000  0.000000e+000 -9.999999e-001
    outer loop
      vertex  2.563351e+000  2.000000e+000  1.750000e+000
      vertex  8.100000e+000  2.000000e+000  1.750000e+000
      vertex  2.563351e+000  0.000000e+000  1.750000e+000
    endloop
  endfacet
  facet normal  0.000000e+000  0.000000e+000 -9.999999e-001
    outer loop
      vertex  2.563351e+000  0.000000e+000  1.750000e+000
      vertex  8.100000e+000  2.000000e+000  1.750000e+000
      vertex  8.100000e+000  0.000000e+000  1.750000e+000
    endloop
  endfacet
  facet normal -1.000000e+000  0.000000e+000  0.000000e+000
    outer loop
      vertex  8.100000e+000  2.000000e+000  1.750000e+000
      vertex  8.100000e+000  2.000000e+000 -1.750000e+000
      vertex  8.100000e+000  0.000000e+000  1.750000e+000
    endloop
  endfacet
  facet normal -1.000000e+000  0.000000e+000  0.000000e+000
    outer loop
      vertex  8.100000e+000  0.000000e+000  1.750000e+000
      vertex  8.100000e+000  2.000000e+000 -1.750000e+000
      vertex  8.100000e+000  0.000000e+000 -1.750000e+000
    endloop
  endfacet
  facet normal  0.000000e+000  0.000000e+000  9.999999e-001
    outer loop
      vertex  2.563351e+000  2.000000e+000 -1.750000e+000
      vertex  2.563351e+000  0.000000e+000 -1.750000e+000
      vertex  8.100000e+000  2.000000e+000 -1.750000e+000
    endloop
  endfacet
  facet normal  0.000000e+000  0.000000e+000  9.999999e-001
    outer loop
      vertex  8.100000e+000  2.000000e+000 -1.750000e+000
      vertex  2.563351e+000  0.000000e+000 -1.750000e+000
      vertex  8.100000e+000  0.000000e+000 -1.750000e+000
    endloop
  endfacet
  facet normal -1.000000e+000  0.000000e+000  0.000000e+000
    outer loop
      vertex  1.800000e+000  2.000000e+000 -2.513351e+000
      vertex  1.800000e+000  2.000000e+000 -8.600000e+000
      vertex  1.800000e+000  0.000000e+000 -2.513351e+000
    endloop
  endfacet
  facet normal -1.000000e+000  0.000000e+000  0.000000e+000
    outer loop
      vertex  1.800000e+000  0.000000e+000 -2.513351e+000
      vertex  1.800000e+000  2.000000e+000 -8.600000e+000
      vertex  1.800000e+000  0.000000e+000 -8.600000e+000
    endloop
  endfacet
  facet normal  0.000000e+000  0.000000e+000  1.000000e+000
    outer loop
      vertex -1.800000e+000  2.000000e+000 -8.600000e+000
      vertex -1.800000e+000  0.000000e+000 -8.600000e+000
      vertex  1.800000e+000  2.000000e+000 -8.600000e+000
    endloop
  endfacet
  facet normal  0.000000e+000  0.000000e+000  1.000000e+000
    outer loop
      vertex  1.800000e+000  2.000000e+000 -8.600000e+000
      vertex -1.800000e+000  0.000000e+000 -8.600000e+000
      vertex  1.800000e+000  0.000000e+000 -8.600000e+000
    endloop
  endfacet
  facet normal  1.000000e+000  -0.000000e+000  0.000000e+000
    outer loop
      vertex -1.800000e+000  2.000000e+000 -2.513351e+000
      vertex -1.800000e+000  0.000000e+000 -2.513351e+000
      vertex -1.800000e+000  2.000000e+000 -8.600000e+000
    endloop
  endfacet
  facet normal  1.000000e+000  0.000000e+000  0.000000e+000
    outer loop
      vertex -1.800000e+000  2.000000e+000 -8.600000e+000
      vertex -1.800000e+000  0.000000e+000 -2.513351e+000
      vertex -1.800000e+000  0.000000e+000 -8.600000e+000
    endloop
  endfacet
  facet normal  0.000000e+000  0.000000e+000  9.999999e-001
    outer loop
      vertex -8.100000e+000  2.000000e+000 -1.750000e+000
      vertex -8.100000e+000  0.000000e+000 -1.750000e+000
      vertex -2.563351e+000  2.000000e+000 -1.750000e+000
    endloop
  endfacet
  facet normal  0.000000e+000  0.000000e+000  9.999999e-001
    outer loop
      vertex -2.563351e+000  2.000000e+000 -1.750000e+000
      vertex -8.100000e+000  0.000000e+000 -1.750000e+000
      vertex -2.563351e+000  0.000000e+000 -1.750000e+000
    endloop
  endfacet
  facet normal  1.000000e+000  -0.000000e+000  0.000000e+000
    outer loop
      vertex -8.100000e+000  2.000000e+000  1.750000e+000
      vertex -8.100000e+000  0.000000e+000  1.750000e+000
      vertex -8.100000e+000  2.000000e+000 -1.750000e+000
    endloop
  endfacet
  facet normal  1.000000e+000  0.000000e+000  0.000000e+000
    outer loop
      vertex -8.100000e+000  2.000000e+000 -1.750000e+000
      vertex -8.100000e+000  0.000000e+000  1.750000e+000
      vertex -8.100000e+000  0.000000e+000 -1.750000e+000
    endloop
  endfacet
  facet normal -9.807853e-001  -0.000000e+000 -1.950903e-001
    outer loop
      vertex -1.000000e+001  0.000000e+000  0.000000e+000
      vertex -1.000000e+001  3.000000e+000  0.000000e+000
      vertex -9.238795e+000  0.000000e+000 -3.826834e+000
    endloop
  endfacet
  facet normal -9.807853e-001  0.000000e+000 -1.950903e-001
    outer loop
      vertex -9.238795e+000  0.000000e+000 -3.826834e+000
      vertex -1.000000e+001  3.000000e+000  0.000000e+000
      vertex -9.238795e+000  3.000000e+000 -3.826834e+000
    endloop
  endfacet
  facet normal -8.314695e-001  -0.000000e+000 -5.555702e-001
    outer loop
      vertex -9.238795e+000  0.000000e+000 -3.826834e+000
      vertex -9.238795e+000  3.000000e+000 -3.826834e+000
      vertex -7.071068e+000  0.000000e+000 -7.071068e+000
    endloop
  endfacet
  facet normal -8.314695e-001  0.000000e+000 -5.555702e-001
    outer loop
      vertex -7.071068e+000  0.000000e+000 -7.071068e+000
      vertex -9.238795e+000  3.000000e+000 -3.826834e+000
      vertex -7.071068e+000  3.000000e+000 -7.071068e+000
    endloop
  endfacet
  facet normal -5.555702e-001  -0.000000e+000 -8.314695e-001
    outer loop
      vertex -7.071068e+000  0.000000e+000 -7.071068e+000
      vertex -7.071068e+000  3.000000e+000 -7.071068e+000
      vertex -3.826834e+000  0.000000e+000 -9.238795e+000
    endloop
  endfacet
  facet normal -5.555702e-001  0.000000e+000 -8.314695e-001
    outer loop
      vertex -3.826834e+000  0.000000e+000 -9.238795e+000
      vertex -7.071068e+000  3.000000e+000 -7.071068e+000
      vertex -3.826834e+000  3.000000e+000 -9.238795e+000
    endloop
  endfacet
  facet normal -1.950903e-001  -0.000000e+000 -9.807853e-001
    outer loop
      vertex -3.826834e+000  0.000000e+000 -9.238795e+000
      vertex -3.826834e+000  3.000000e+000 -9.238795e+000
      vertex  1.836970e-015  0.000000e+000 -1.000000e+001
    endloop
  endfacet
  facet normal -1.950903e-001  0.000000e+000 -9.807853e-001
    outer loop
      vertex  1.836970e-015  0.000000e+000 -1.000000e+001
      vertex -3.826834e+000  3.000000e+000 -9.238795e+000
      vertex  1.836970e-015  3.000000e+000 -1.000000e+001
    endloop
  endfacet
  facet normal  1.950903e-001  0.000000e+000 -9.807853e-001
    outer loop
      vertex  1.836970e-015  0.000000e+000 -1.000000e+001
      vertex  1.836970e-015  3.000000e+000 -1.000000e+001
      vertex  3.826834e+000  0.000000e+000 -9.238795e+000
    endloop
  endfacet
  facet normal  1.950903e-001  0.000000e+000 -9.807853e-001
    outer loop
      vertex  3.826834e+000  0.000000e+000 -9.238795e+000
      vertex  1.836970e-015  3.000000e+000 -1.000000e+001
      vertex  3.826834e+000  3.000000e+000 -9.238795e+000
    endloop
  endfacet
  facet normal  5.555702e-001  0.000000e+000 -8.314695e-001
    outer loop
      vertex  3.826834e+000  0.000000e+000 -9.238795e+000
      vertex  3.826834e+000  3.000000e+000 -9.238795e+000
      vertex  7.071068e+000  0.000000e+000 -7.071068e+000
    endloop
  endfacet
  facet normal  5.555702e-001  0.000000e+000 -8.314695e-001
    outer loop
      vertex  7.071068e+000  0.000000e+000 -7.071068e+000
      vertex  3.826834e+000  3.000000e+000 -9.238795e+000
      vertex  7.071068e+000  3.000000e+000 -7.071068e+000
    endloop
  endfacet
  facet normal  8.314695e-001  0.000000e+000 -5.555702e-001
    outer loop
      vertex  7.071068e+000  0.000000e+000 -7.071068e+000
      vertex  7.071068e+000  3.000000e+000 -7.071068e+000
      vertex  9.238795e+000  0.000000e+000 -3.826834e+000
    endloop
  endfacet
  facet normal  8.314695e-001  0.000000e+000 -5.555702e-001
    outer loop
      vertex  9.238795e+000  0.000000e+000 -3.826834e+000
      vertex  7.071068e+000  3.000000e+000 -7.071068e+000
      vertex  9.238795e+000  3.000000e+000 -3.826834e+000
    endloop
  endfacet
  facet normal  9.807853e-001  0.000000e+000 -1.950903e-001
    outer loop
      vertex  9.238795e+000  0.000000e+000 -3.826834e+000
      vertex  9.238795e+000  3.000000e+000 -3.826834e+000
      vertex  1.000000e+001  0.000000e+000  1.224647e-015
    endloop
  endfacet
  facet normal  9.807853e-001  0.000000e+000 -1.950903e-001
    outer loop
      vertex  1.000000e+001  0.000000e+000  1.224647e-015
      vertex  9.238795e+000  3.000000e+000 -3.826834e+000
      vertex  1.000000e+001  3.000000e+000  1.224647e-015
    endloop
  endfacet
  facet normal  9.807853e-001  0.000000e+000  1.950903e-001
    outer loop
      vertex  1.000000e+001  0.000000e+000  1.224647e-015
      vertex  1.000000e+001  3.000000e+000  1.224647e-015
      vertex  9.238795e+000  0.000000e+000  3.826834e+000
    endloop
  endfacet
  facet normal  9.807853e-001  -0.000000e+000  1.950903e-001
    outer loop
      vertex  9.238795e+000  0.000000e+000  3.826834e+000
      vertex  1.000000e+001  3.000000e+000  1.224647e-015
      vertex  9.238795e+000  3.000000e+000  3.826834e+000
    endloop
  endfacet
  facet normal  8.314695e-001  0.000000e+000  5.555702e-001
    outer loop
      vertex  9.238795e+000  0.000000e+000  3.826834e+000
      vertex  9.238795e+000  3.000000e+000  3.826834e+000
      vertex  7.071068e+000  0.000000e+000  7.071068e+000
    endloop
  endfacet
  facet normal  8.314695e-001  -0.000000e+000  5.555702e-001
    outer loop
      vertex  7.071068e+000  0.000000e+000  7.071068e+000
      vertex  9.238795e+000  3.000000e+000  3.826834e+000
      vertex  7.071068e+000  3.000000e+000  7.071068e+000
    endloop
  endfacet
  facet normal  5.555702e-001  0.000000e+000  8.314695e-001
    outer loop
      vertex  7.071068e+000  0.000000e+000  7.071068e+000
      vertex  7.071068e+000  3.000000e+000  7.071068e+000
      vertex  3.826834e+000  0.000000e+000  9.238795e+000
    endloop
  endfacet
  facet normal  5.555702e-001  -0.000000e+000  8.314695e-001
    outer loop
      vertex  3.826834e+000  0.000000e+000  9.238795e+000
      vertex  7.071068e+000  3.000000e+000  7.071068e+000
      vertex  3.826834e+000  3.000000e+000  9.238795e+000
    endloop
  endfacet
  facet normal  1.950903e-001  0.000000e+000  9.807853e-001
    outer loop
      vertex  3.826834e+000  0.000000e+000  9.238795e+000
      vertex  3.826834e+000  3.000000e+000  9.238795e+000
      vertex -6.123234e-016  0.000000e+000  1.000000e+001
    endloop
  endfacet
  facet normal  1.950903e-001  -0.000000e+000  9.807853e-001
    outer loop
      vertex -6.123234e-016  0.000000e+000  1.000000e+001
      vertex  3.826834e+000  3.000000e+000  9.238795e+000
      vertex -6.123234e-016  3.000000e+000  1.000000e+001
    endloop
  endfacet
  facet normal -1.950903e-001  0.000000e+000  9.807853e-001
    outer loop
      vertex -6.123234e-016  0.000000e+000  1.000000e+001
      vertex -6.123234e-016  3.000000e+000  1.000000e+001
      vertex -3.826834e+000  0.000000e+000  9.238795e+000
    endloop
  endfacet
  facet normal -1.950903e-001  0.000000e+000  9.807853e-001
    outer loop
      vertex -3.826834e+000  0.000000e+000  9.238795e+000
      vertex -6.123234e-016  3.000000e+000  1.000000e+001
      vertex -3.826834e+000  3.000000e+000  9.238795e+000
    endloop
  endfacet
  facet normal -5.555702e-001  0.000000e+000  8.314695e-001
    outer loop
      vertex -3.826834e+000  0.000000e+000  9.238795e+000
      vertex -3.826834e+000  3.000000e+000  9.238795e+000
      vertex -7.071068e+000  0.000000e+000  7.071068e+000
    endloop
  endfacet
  facet normal -5.555702e-001  0.000000e+000  8.314695e-001
    outer loop
      vertex -7.071068e+000  0.000000e+000  7.071068e+000
      vertex -3.826834e+000  3.000000e+000  9.238795e+000
      vertex -7.071068e+000  3.000000e+000  7.071068e+000
    endloop
  endfacet
  facet normal -8.314695e-001  0.000000e+000  5.555702e-001
    outer loop
      vertex -7.071068e+000  0.000000e+000  7.071068e+000
      vertex -7.071068e+000  3.000000e+000  7.071068e+000
      vertex -9.238795e+000  0.000000e+000  3.826834e+000
    endloop
  endfacet
  facet normal -8.314695e-001  0.000000e+000  5.555702e-001
    outer loop
      vertex -9.238795e+000  0.000000e+000  3.826834e+000
      vertex -7.071068e+000  3.000000e+000  7.071068e+000
      vertex -9.238795e+000  3.000000e+000  3.826834e+000
    endloop
  endfacet
  facet normal -9.807853e-001  0.000000e+000  1.950903e-001
    outer loop
      vertex -9.238795e+000  0.000000e+000  3.826834e+000
      vertex -9.238795e+000  3.000000e+000  3.826834e+000
      vertex -1.000000e+001  0.000000e+000  0.000000e+000
    endloop
  endfacet
  facet normal -9.807853e-001  0.000000e+000  1.950903e-001
    outer loop
      vertex -1.000000e+001  0.000000e+000  0.000000e+000
      vertex -9.238795e+000  3.000000e+000  3.826834e+000
      vertex -1.000000e+001  3.000000e+000  0.000000e+000
    endloop
  endfacet
endsolid CATIA STL
