solid CATIA STL
  facet normal -9.999999e-001  0.000000e+000  0.000000e+000
    outer loop
      vertex  0.000000e+000 -1.000000e+001 -1.300000e+001
      vertex  0.000000e+000 -1.000000e+001  1.224647e-015
      vertex  0.000000e+000 -3.050000e+000  3.735173e-016
    endloop
  endfacet
  facet normal -1.000000e+000  0.000000e+000  -0.000000e+000
    outer loop
      vertex  0.000000e+000 -1.000000e+001 -1.300000e+001
      vertex  0.000000e+000 -3.050000e+000  3.735173e-016
      vertex  0.000000e+000 -2.467502e+000 -1.792745e+000
    endloop
  endfacet
  facet normal -1.000000e+000  0.000000e+000  -0.000000e+000
    outer loop
      vertex  0.000000e+000 -1.000000e+001 -1.300000e+001
      vertex  0.000000e+000 -2.467502e+000 -1.792745e+000
      vertex  0.000000e+000 -9.425018e-001 -2.900722e+000
    endloop
  endfacet
  facet normal -1.000000e+000  0.000000e+000  -0.000000e+000
    outer loop
      vertex  0.000000e+000 -1.000000e+001 -1.300000e+001
      vertex  0.000000e+000 -9.425018e-001 -2.900722e+000
      vertex  0.000000e+000  9.425018e-001 -2.900722e+000
    endloop
  endfacet
  facet normal -1.000000e+000  0.000000e+000  -0.000000e+000
    outer loop
      vertex  0.000000e+000 -1.000000e+001 -1.300000e+001
      vertex  0.000000e+000  9.425018e-001 -2.900722e+000
      vertex  0.000000e+000  3.905750e+001 -2.900722e+000
    endloop
  endfacet
  facet normal -1.000000e+000  0.000000e+000  -0.000000e+000
    outer loop
      vertex  0.000000e+000 -1.000000e+001 -1.300000e+001
      vertex  0.000000e+000  3.905750e+001 -2.900722e+000
      vertex  0.000000e+000  4.094250e+001 -2.900722e+000
    endloop
  endfacet
  facet normal -1.000000e+000  0.000000e+000  -0.000000e+000
    outer loop
      vertex  0.000000e+000 -1.000000e+001 -1.300000e+001
      vertex  0.000000e+000  4.094250e+001 -2.900722e+000
      vertex  0.000000e+000  5.000000e+001 -1.300000e+001
    endloop
  endfacet
  facet normal -1.000000e+000  0.000000e+000  0.000000e+000
    outer loop
      vertex  0.000000e+000 -7.071068e+000  7.071068e+000
      vertex  0.000000e+000 -3.826834e+000  9.238795e+000
      vertex  0.000000e+000 -9.238795e+000  3.826834e+000
    endloop
  endfacet
  facet normal -1.000000e+000  0.000000e+000  0.000000e+000
    outer loop
      vertex  0.000000e+000 -9.238795e+000  3.826834e+000
      vertex  0.000000e+000 -3.826834e+000  9.238795e+000
      vertex  0.000000e+000 -1.608123e-015  1.000000e+001
    endloop
  endfacet
  facet normal -1.000000e+000  0.000000e+000  0.000000e+000
    outer loop
      vertex  0.000000e+000 -9.238795e+000  3.826834e+000
      vertex  0.000000e+000 -1.608123e-015  1.000000e+001
      vertex  0.000000e+000 -9.425018e-001  2.900722e+000
    endloop
  endfacet
  facet normal -1.000000e+000  0.000000e+000  0.000000e+000
    outer loop
      vertex  0.000000e+000 -9.425018e-001  2.900722e+000
      vertex  0.000000e+000 -1.608123e-015  1.000000e+001
      vertex  0.000000e+000  4.000000e+001  1.000000e+001
    endloop
  endfacet
  facet normal -9.999999e-001  0.000000e+000  0.000000e+000
    outer loop
      vertex  0.000000e+000 -9.425018e-001  2.900722e+000
      vertex  0.000000e+000  4.000000e+001  1.000000e+001
      vertex  0.000000e+000  9.425018e-001  2.900722e+000
    endloop
  endfacet
  facet normal -1.000000e+000  0.000000e+000  0.000000e+000
    outer loop
      vertex  0.000000e+000  9.425018e-001  2.900722e+000
      vertex  0.000000e+000  4.000000e+001  1.000000e+001
      vertex  0.000000e+000  3.905750e+001  2.900722e+000
    endloop
  endfacet
  facet normal -1.000000e+000  0.000000e+000  0.000000e+000
    outer loop
      vertex  0.000000e+000  3.905750e+001  2.900722e+000
      vertex  0.000000e+000  4.000000e+001  1.000000e+001
      vertex  0.000000e+000  4.382684e+001  9.238795e+000
    endloop
  endfacet
  facet normal -1.000000e+000  0.000000e+000  0.000000e+000
    outer loop
      vertex  0.000000e+000  3.905750e+001  2.900722e+000
      vertex  0.000000e+000  4.382684e+001  9.238795e+000
      vertex  0.000000e+000  4.094250e+001  2.900722e+000
    endloop
  endfacet
  facet normal -1.000000e+000  0.000000e+000  0.000000e+000
    outer loop
      vertex  0.000000e+000  4.094250e+001  2.900722e+000
      vertex  0.000000e+000  4.382684e+001  9.238795e+000
      vertex  0.000000e+000  4.707107e+001  7.071068e+000
    endloop
  endfacet
  facet normal -1.000000e+000  0.000000e+000  -0.000000e+000
    outer loop
      vertex  0.000000e+000  4.094250e+001  2.900722e+000
      vertex  0.000000e+000  4.707107e+001  7.071068e+000
      vertex  0.000000e+000  4.923880e+001  3.826834e+000
    endloop
  endfacet
  facet normal -1.000000e+000  0.000000e+000  0.000000e+000
    outer loop
      vertex  0.000000e+000 -3.050000e+000  3.735173e-016
      vertex  0.000000e+000 -1.000000e+001  1.224647e-015
      vertex  0.000000e+000 -2.467502e+000  1.792745e+000
    endloop
  endfacet
  facet normal -1.000000e+000  -0.000000e+000  0.000000e+000
    outer loop
      vertex  0.000000e+000 -2.467502e+000  1.792745e+000
      vertex  0.000000e+000 -1.000000e+001  1.224647e-015
      vertex  0.000000e+000 -9.238795e+000  3.826834e+000
    endloop
  endfacet
  facet normal -9.999999e-001  0.000000e+000  0.000000e+000
    outer loop
      vertex  0.000000e+000 -2.467502e+000  1.792745e+000
      vertex  0.000000e+000 -9.238795e+000  3.826834e+000
      vertex  0.000000e+000 -9.425018e-001  2.900722e+000
    endloop
  endfacet
  facet normal -9.999999e-001  0.000000e+000  0.000000e+000
    outer loop
      vertex  0.000000e+000  3.695000e+001  3.735173e-016
      vertex  0.000000e+000  2.467502e+000  1.792745e+000
      vertex  0.000000e+000  3.753250e+001  1.792745e+000
    endloop
  endfacet
  facet normal -1.000000e+000  0.000000e+000  0.000000e+000
    outer loop
      vertex  0.000000e+000  3.753250e+001  1.792745e+000
      vertex  0.000000e+000  2.467502e+000  1.792745e+000
      vertex  0.000000e+000  9.425018e-001  2.900722e+000
    endloop
  endfacet
  facet normal -9.999999e-001  0.000000e+000  0.000000e+000
    outer loop
      vertex  0.000000e+000  3.753250e+001  1.792745e+000
      vertex  0.000000e+000  9.425018e-001  2.900722e+000
      vertex  0.000000e+000  3.905750e+001  2.900722e+000
    endloop
  endfacet
  facet normal -1.000000e+000  -0.000000e+000  0.000000e+000
    outer loop
      vertex  0.000000e+000  2.467502e+000  1.792745e+000
      vertex  0.000000e+000  3.695000e+001  3.735173e-016
      vertex  0.000000e+000  3.050000e+000  0.000000e+000
    endloop
  endfacet
  facet normal -1.000000e+000  0.000000e+000  0.000000e+000
    outer loop
      vertex  0.000000e+000  3.050000e+000  0.000000e+000
      vertex  0.000000e+000  3.695000e+001  3.735173e-016
      vertex  0.000000e+000  3.753250e+001 -1.792745e+000
    endloop
  endfacet
  facet normal -9.999999e-001  0.000000e+000  0.000000e+000
    outer loop
      vertex  0.000000e+000  3.050000e+000  0.000000e+000
      vertex  0.000000e+000  3.753250e+001 -1.792745e+000
      vertex  0.000000e+000  2.467502e+000 -1.792745e+000
    endloop
  endfacet
  facet normal -1.000000e+000  0.000000e+000  0.000000e+000
    outer loop
      vertex  0.000000e+000  2.467502e+000 -1.792745e+000
      vertex  0.000000e+000  3.753250e+001 -1.792745e+000
      vertex  0.000000e+000  3.905750e+001 -2.900722e+000
    endloop
  endfacet
  facet normal -9.999999e-001  0.000000e+000  0.000000e+000
    outer loop
      vertex  0.000000e+000  2.467502e+000 -1.792745e+000
      vertex  0.000000e+000  3.905750e+001 -2.900722e+000
      vertex  0.000000e+000  9.425018e-001 -2.900722e+000
    endloop
  endfacet
  facet normal -1.000000e+000  0.000000e+000  0.000000e+000
    outer loop
      vertex  0.000000e+000  4.305000e+001  0.000000e+000
      vertex  0.000000e+000  4.246750e+001  1.792745e+000
      vertex  0.000000e+000  5.000000e+001  3.907985e-014
    endloop
  endfacet
  facet normal -1.000000e+000  0.000000e+000  0.000000e+000
    outer loop
      vertex  0.000000e+000  5.000000e+001  3.907985e-014
      vertex  0.000000e+000  4.246750e+001  1.792745e+000
      vertex  0.000000e+000  4.094250e+001  2.900722e+000
    endloop
  endfacet
  facet normal -1.000000e+000  0.000000e+000  0.000000e+000
    outer loop
      vertex  0.000000e+000  5.000000e+001  3.907985e-014
      vertex  0.000000e+000  4.094250e+001  2.900722e+000
      vertex  0.000000e+000  4.923880e+001  3.826834e+000
    endloop
  endfacet
  facet normal -9.999999e-001  0.000000e+000  -0.000000e+000
    outer loop
      vertex  0.000000e+000  4.094250e+001 -2.900722e+000
      vertex  0.000000e+000  4.246750e+001 -1.792745e+000
      vertex  0.000000e+000  5.000000e+001 -1.300000e+001
    endloop
  endfacet
  facet normal -1.000000e+000  0.000000e+000  0.000000e+000
    outer loop
      vertex  0.000000e+000  5.000000e+001 -1.300000e+001
      vertex  0.000000e+000  4.246750e+001 -1.792745e+000
      vertex  0.000000e+000  4.305000e+001  0.000000e+000
    endloop
  endfacet
  facet normal -9.999999e-001  0.000000e+000  0.000000e+000
    outer loop
      vertex  0.000000e+000  5.000000e+001 -1.300000e+001
      vertex  0.000000e+000  4.305000e+001  0.000000e+000
      vertex  0.000000e+000  5.000000e+001  3.907985e-014
    endloop
  endfacet
  facet normal  1.000000e+000  0.000000e+000  0.000000e+000
    outer loop
      vertex  6.000000e+000 -1.000000e+001 -1.300000e+001
      vertex  6.000000e+000  5.000000e+001 -1.300000e+001
      vertex  6.000000e+000 -1.000000e+001 -1.200000e+001
    endloop
  endfacet
  facet normal  1.000000e+000  -0.000000e+000  0.000000e+000
    outer loop
      vertex  6.000000e+000 -1.000000e+001 -1.200000e+001
      vertex  6.000000e+000  5.000000e+001 -1.300000e+001
      vertex  6.000000e+000  5.000000e+001 -1.200000e+001
    endloop
  endfacet
  facet normal  0.000000e+000 -1.000000e+000  -0.000000e+000
    outer loop
      vertex  6.000000e+000 -1.000000e+001 -1.300000e+001
      vertex  6.000000e+000 -1.000000e+001 -1.200000e+001
      vertex  0.000000e+000 -1.000000e+001 -1.300000e+001
    endloop
  endfacet
  facet normal  0.000000e+000 -1.000000e+000  0.000000e+000
    outer loop
      vertex  0.000000e+000 -1.000000e+001 -1.300000e+001
      vertex  6.000000e+000 -1.000000e+001 -1.200000e+001
      vertex  3.000000e+000 -1.000000e+001 -1.200000e+001
    endloop
  endfacet
  facet normal  -0.000000e+000 -1.000000e+000  0.000000e+000
    outer loop
      vertex  0.000000e+000 -1.000000e+001 -1.300000e+001
      vertex  3.000000e+000 -1.000000e+001 -1.200000e+001
      vertex  0.000000e+000 -1.000000e+001  1.224647e-015
    endloop
  endfacet
  facet normal  0.000000e+000 -1.000000e+000  0.000000e+000
    outer loop
      vertex  0.000000e+000 -1.000000e+001  1.224647e-015
      vertex  3.000000e+000 -1.000000e+001 -1.200000e+001
      vertex  3.000000e+000 -1.000000e+001  0.000000e+000
    endloop
  endfacet
  facet normal  0.000000e+000  1.000000e+000  -0.000000e+000
    outer loop
      vertex  6.000000e+000  5.000000e+001 -1.200000e+001
      vertex  6.000000e+000  5.000000e+001 -1.300000e+001
      vertex  3.000000e+000  5.000000e+001 -1.200000e+001
    endloop
  endfacet
  facet normal  0.000000e+000  1.000000e+000  0.000000e+000
    outer loop
      vertex  3.000000e+000  5.000000e+001 -1.200000e+001
      vertex  6.000000e+000  5.000000e+001 -1.300000e+001
      vertex  0.000000e+000  5.000000e+001 -1.300000e+001
    endloop
  endfacet
  facet normal  0.000000e+000  1.000000e+000  0.000000e+000
    outer loop
      vertex  3.000000e+000  5.000000e+001 -1.200000e+001
      vertex  0.000000e+000  5.000000e+001 -1.300000e+001
      vertex  3.000000e+000  5.000000e+001  3.907985e-014
    endloop
  endfacet
  facet normal  0.000000e+000  1.000000e+000  0.000000e+000
    outer loop
      vertex  3.000000e+000  5.000000e+001  3.907985e-014
      vertex  0.000000e+000  5.000000e+001 -1.300000e+001
      vertex  0.000000e+000  5.000000e+001  3.907985e-014
    endloop
  endfacet
  facet normal  -0.000000e+000  0.000000e+000 -1.000000e+000
    outer loop
      vertex  0.000000e+000  5.000000e+001 -1.300000e+001
      vertex  6.000000e+000  5.000000e+001 -1.300000e+001
      vertex  0.000000e+000 -1.000000e+001 -1.300000e+001
    endloop
  endfacet
  facet normal  0.000000e+000  0.000000e+000 -1.000000e+000
    outer loop
      vertex  0.000000e+000 -1.000000e+001 -1.300000e+001
      vertex  6.000000e+000  5.000000e+001 -1.300000e+001
      vertex  6.000000e+000 -1.000000e+001 -1.300000e+001
    endloop
  endfacet
  facet normal  0.000000e+000  0.000000e+000  1.000000e+000
    outer loop
      vertex  6.000000e+000 -1.000000e+001 -1.200000e+001
      vertex  6.000000e+000  5.000000e+001 -1.200000e+001
      vertex  3.000000e+000 -1.000000e+001 -1.200000e+001
    endloop
  endfacet
  facet normal  0.000000e+000  0.000000e+000  1.000000e+000
    outer loop
      vertex  3.000000e+000 -1.000000e+001 -1.200000e+001
      vertex  6.000000e+000  5.000000e+001 -1.200000e+001
      vertex  3.000000e+000  5.000000e+001 -1.200000e+001
    endloop
  endfacet
  facet normal  1.000000e+000  0.000000e+000  0.000000e+000
    outer loop
      vertex  3.000000e+000 -1.000000e+001 -1.200000e+001
      vertex  3.000000e+000  5.000000e+001 -1.200000e+001
      vertex  3.000000e+000  4.094250e+001 -2.900722e+000
    endloop
  endfacet
  facet normal  1.000000e+000  0.000000e+000  0.000000e+000
    outer loop
      vertex  3.000000e+000 -1.000000e+001 -1.200000e+001
      vertex  3.000000e+000  4.094250e+001 -2.900722e+000
      vertex  3.000000e+000  3.905750e+001 -2.900722e+000
    endloop
  endfacet
  facet normal  1.000000e+000  0.000000e+000  0.000000e+000
    outer loop
      vertex  3.000000e+000 -1.000000e+001 -1.200000e+001
      vertex  3.000000e+000  3.905750e+001 -2.900722e+000
      vertex  3.000000e+000  9.425018e-001 -2.900722e+000
    endloop
  endfacet
  facet normal  1.000000e+000  0.000000e+000  0.000000e+000
    outer loop
      vertex  3.000000e+000 -1.000000e+001 -1.200000e+001
      vertex  3.000000e+000  9.425018e-001 -2.900722e+000
      vertex  3.000000e+000 -9.425018e-001 -2.900722e+000
    endloop
  endfacet
  facet normal  1.000000e+000  0.000000e+000  0.000000e+000
    outer loop
      vertex  3.000000e+000 -1.000000e+001 -1.200000e+001
      vertex  3.000000e+000 -9.425018e-001 -2.900722e+000
      vertex  3.000000e+000 -2.467502e+000 -1.792745e+000
    endloop
  endfacet
  facet normal  1.000000e+000  0.000000e+000  0.000000e+000
    outer loop
      vertex  3.000000e+000 -1.000000e+001 -1.200000e+001
      vertex  3.000000e+000 -2.467502e+000 -1.792745e+000
      vertex  3.000000e+000 -3.050000e+000  3.735173e-016
    endloop
  endfacet
  facet normal  1.000000e+000  0.000000e+000  0.000000e+000
    outer loop
      vertex  3.000000e+000 -1.000000e+001 -1.200000e+001
      vertex  3.000000e+000 -3.050000e+000  3.735173e-016
      vertex  3.000000e+000 -1.000000e+001  0.000000e+000
    endloop
  endfacet
  facet normal  9.999999e-001  0.000000e+000  0.000000e+000
    outer loop
      vertex  3.000000e+000  9.425018e-001  2.900722e+000
      vertex  3.000000e+000  4.000000e+001  1.000000e+001
      vertex  3.000000e+000 -9.425018e-001  2.900722e+000
    endloop
  endfacet
  facet normal  1.000000e+000  0.000000e+000  0.000000e+000
    outer loop
      vertex  3.000000e+000 -9.425018e-001  2.900722e+000
      vertex  3.000000e+000  4.000000e+001  1.000000e+001
      vertex  3.000000e+000 -1.776357e-015  1.000000e+001
    endloop
  endfacet
  facet normal  1.000000e+000  0.000000e+000  0.000000e+000
    outer loop
      vertex  3.000000e+000 -9.425018e-001  2.900722e+000
      vertex  3.000000e+000 -1.776357e-015  1.000000e+001
      vertex  3.000000e+000 -9.238795e+000  3.826834e+000
    endloop
  endfacet
  facet normal  1.000000e+000  0.000000e+000  0.000000e+000
    outer loop
      vertex  3.000000e+000 -9.238795e+000  3.826834e+000
      vertex  3.000000e+000 -1.776357e-015  1.000000e+001
      vertex  3.000000e+000 -3.826834e+000  9.238795e+000
    endloop
  endfacet
  facet normal  1.000000e+000  0.000000e+000  0.000000e+000
    outer loop
      vertex  3.000000e+000 -9.238795e+000  3.826834e+000
      vertex  3.000000e+000 -3.826834e+000  9.238795e+000
      vertex  3.000000e+000 -7.071068e+000  7.071068e+000
    endloop
  endfacet
  facet normal  1.000000e+000  0.000000e+000  0.000000e+000
    outer loop
      vertex  3.000000e+000  4.923880e+001  3.826834e+000
      vertex  3.000000e+000  4.707107e+001  7.071068e+000
      vertex  3.000000e+000  4.094250e+001  2.900722e+000
    endloop
  endfacet
  facet normal  1.000000e+000  0.000000e+000  0.000000e+000
    outer loop
      vertex  3.000000e+000  4.094250e+001  2.900722e+000
      vertex  3.000000e+000  4.707107e+001  7.071068e+000
      vertex  3.000000e+000  4.382684e+001  9.238795e+000
    endloop
  endfacet
  facet normal  1.000000e+000  0.000000e+000  0.000000e+000
    outer loop
      vertex  3.000000e+000  4.094250e+001  2.900722e+000
      vertex  3.000000e+000  4.382684e+001  9.238795e+000
      vertex  3.000000e+000  3.905750e+001  2.900722e+000
    endloop
  endfacet
  facet normal  1.000000e+000  0.000000e+000  0.000000e+000
    outer loop
      vertex  3.000000e+000  3.905750e+001  2.900722e+000
      vertex  3.000000e+000  4.382684e+001  9.238795e+000
      vertex  3.000000e+000  4.000000e+001  1.000000e+001
    endloop
  endfacet
  facet normal  1.000000e+000  0.000000e+000  0.000000e+000
    outer loop
      vertex  3.000000e+000  3.905750e+001  2.900722e+000
      vertex  3.000000e+000  4.000000e+001  1.000000e+001
      vertex  3.000000e+000  9.425018e-001  2.900722e+000
    endloop
  endfacet
  facet normal  9.999999e-001  0.000000e+000  0.000000e+000
    outer loop
      vertex  3.000000e+000 -9.425018e-001  2.900722e+000
      vertex  3.000000e+000 -9.238795e+000  3.826834e+000
      vertex  3.000000e+000 -2.467502e+000  1.792745e+000
    endloop
  endfacet
  facet normal  1.000000e+000  0.000000e+000  0.000000e+000
    outer loop
      vertex  3.000000e+000 -2.467502e+000  1.792745e+000
      vertex  3.000000e+000 -9.238795e+000  3.826834e+000
      vertex  3.000000e+000 -1.000000e+001  0.000000e+000
    endloop
  endfacet
  facet normal  1.000000e+000  0.000000e+000  0.000000e+000
    outer loop
      vertex  3.000000e+000 -2.467502e+000  1.792745e+000
      vertex  3.000000e+000 -1.000000e+001  0.000000e+000
      vertex  3.000000e+000 -3.050000e+000  3.735173e-016
    endloop
  endfacet
  facet normal  9.999999e-001  -0.000000e+000  0.000000e+000
    outer loop
      vertex  3.000000e+000  3.905750e+001  2.900722e+000
      vertex  3.000000e+000  9.425018e-001  2.900722e+000
      vertex  3.000000e+000  3.753250e+001  1.792745e+000
    endloop
  endfacet
  facet normal  1.000000e+000  0.000000e+000  0.000000e+000
    outer loop
      vertex  3.000000e+000  3.753250e+001  1.792745e+000
      vertex  3.000000e+000  9.425018e-001  2.900722e+000
      vertex  3.000000e+000  2.467502e+000  1.792745e+000
    endloop
  endfacet
  facet normal  9.999999e-001  -0.000000e+000  0.000000e+000
    outer loop
      vertex  3.000000e+000  3.753250e+001  1.792745e+000
      vertex  3.000000e+000  2.467502e+000  1.792745e+000
      vertex  3.000000e+000  3.695000e+001  3.735173e-016
    endloop
  endfacet
  facet normal  1.000000e+000  0.000000e+000  0.000000e+000
    outer loop
      vertex  3.000000e+000  3.695000e+001  3.735173e-016
      vertex  3.000000e+000  2.467502e+000  1.792745e+000
      vertex  3.000000e+000  3.050000e+000 -7.470346e-016
    endloop
  endfacet
  facet normal  1.000000e+000  -0.000000e+000  0.000000e+000
    outer loop
      vertex  3.000000e+000  3.695000e+001  3.735173e-016
      vertex  3.000000e+000  3.050000e+000 -7.470346e-016
      vertex  3.000000e+000  3.753250e+001 -1.792745e+000
    endloop
  endfacet
  facet normal  9.999999e-001  0.000000e+000  0.000000e+000
    outer loop
      vertex  3.000000e+000  3.753250e+001 -1.792745e+000
      vertex  3.000000e+000  3.050000e+000 -7.470346e-016
      vertex  3.000000e+000  2.467502e+000 -1.792745e+000
    endloop
  endfacet
  facet normal  1.000000e+000  -0.000000e+000  0.000000e+000
    outer loop
      vertex  3.000000e+000  3.753250e+001 -1.792745e+000
      vertex  3.000000e+000  2.467502e+000 -1.792745e+000
      vertex  3.000000e+000  3.905750e+001 -2.900722e+000
    endloop
  endfacet
  facet normal  9.999999e-001  0.000000e+000  0.000000e+000
    outer loop
      vertex  3.000000e+000  3.905750e+001 -2.900722e+000
      vertex  3.000000e+000  2.467502e+000 -1.792745e+000
      vertex  3.000000e+000  9.425018e-001 -2.900722e+000
    endloop
  endfacet
  facet normal  1.000000e+000  -0.000000e+000  0.000000e+000
    outer loop
      vertex  3.000000e+000  4.923880e+001  3.826834e+000
      vertex  3.000000e+000  4.094250e+001  2.900722e+000
      vertex  3.000000e+000  5.000000e+001  3.907985e-014
    endloop
  endfacet
  facet normal  1.000000e+000  0.000000e+000  0.000000e+000
    outer loop
      vertex  3.000000e+000  5.000000e+001  3.907985e-014
      vertex  3.000000e+000  4.094250e+001  2.900722e+000
      vertex  3.000000e+000  4.246750e+001  1.792745e+000
    endloop
  endfacet
  facet normal  1.000000e+000  0.000000e+000  0.000000e+000
    outer loop
      vertex  3.000000e+000  5.000000e+001  3.907985e-014
      vertex  3.000000e+000  4.246750e+001  1.792745e+000
      vertex  3.000000e+000  4.305000e+001  0.000000e+000
    endloop
  endfacet
  facet normal  1.000000e+000  -0.000000e+000  0.000000e+000
    outer loop
      vertex  3.000000e+000  5.000000e+001  3.907985e-014
      vertex  3.000000e+000  4.305000e+001  0.000000e+000
      vertex  3.000000e+000  5.000000e+001 -1.200000e+001
    endloop
  endfacet
  facet normal  1.000000e+000  0.000000e+000  0.000000e+000
    outer loop
      vertex  3.000000e+000  5.000000e+001 -1.200000e+001
      vertex  3.000000e+000  4.305000e+001  0.000000e+000
      vertex  3.000000e+000  4.246750e+001 -1.792745e+000
    endloop
  endfacet
  facet normal  1.000000e+000  0.000000e+000  0.000000e+000
    outer loop
      vertex  3.000000e+000  5.000000e+001 -1.200000e+001
      vertex  3.000000e+000  4.246750e+001 -1.792745e+000
      vertex  3.000000e+000  4.094250e+001 -2.900722e+000
    endloop
  endfacet
  facet normal  7.963891e-017 -9.807853e-001  1.950903e-001
    outer loop
      vertex  0.000000e+000 -1.000000e+001  1.224647e-015
      vertex  3.000000e+000 -1.000000e+001  0.000000e+000
      vertex  0.000000e+000 -9.238795e+000  3.826834e+000
    endloop
  endfacet
  facet normal  0.000000e+000 -9.807853e-001  1.950903e-001
    outer loop
      vertex  0.000000e+000 -9.238795e+000  3.826834e+000
      vertex  3.000000e+000 -1.000000e+001  0.000000e+000
      vertex  3.000000e+000 -9.238795e+000  3.826834e+000
    endloop
  endfacet
  facet normal  0.000000e+000 -8.314695e-001  5.555702e-001
    outer loop
      vertex  0.000000e+000 -9.238795e+000  3.826834e+000
      vertex  3.000000e+000 -9.238795e+000  3.826834e+000
      vertex  0.000000e+000 -7.071068e+000  7.071068e+000
    endloop
  endfacet
  facet normal  0.000000e+000 -8.314695e-001  5.555702e-001
    outer loop
      vertex  0.000000e+000 -7.071068e+000  7.071068e+000
      vertex  3.000000e+000 -9.238795e+000  3.826834e+000
      vertex  3.000000e+000 -7.071068e+000  7.071068e+000
    endloop
  endfacet
  facet normal  0.000000e+000 -5.555702e-001  8.314695e-001
    outer loop
      vertex  0.000000e+000 -7.071068e+000  7.071068e+000
      vertex  3.000000e+000 -7.071068e+000  7.071068e+000
      vertex  0.000000e+000 -3.826834e+000  9.238795e+000
    endloop
  endfacet
  facet normal  0.000000e+000 -5.555702e-001  8.314695e-001
    outer loop
      vertex  0.000000e+000 -3.826834e+000  9.238795e+000
      vertex  3.000000e+000 -7.071068e+000  7.071068e+000
      vertex  3.000000e+000 -3.826834e+000  9.238795e+000
    endloop
  endfacet
  facet normal  0.000000e+000 -1.950903e-001  9.807853e-001
    outer loop
      vertex  0.000000e+000 -3.826834e+000  9.238795e+000
      vertex  3.000000e+000 -3.826834e+000  9.238795e+000
      vertex  0.000000e+000 -1.608123e-015  1.000000e+001
    endloop
  endfacet
  facet normal -1.094029e-017 -1.950903e-001  9.807853e-001
    outer loop
      vertex  0.000000e+000 -1.608123e-015  1.000000e+001
      vertex  3.000000e+000 -3.826834e+000  9.238795e+000
      vertex  3.000000e+000 -1.776357e-015  1.000000e+001
    endloop
  endfacet
  facet normal  0.000000e+000  1.950903e-001  9.807854e-001
    outer loop
      vertex  0.000000e+000  4.000000e+001  1.000000e+001
      vertex  3.000000e+000  4.000000e+001  1.000000e+001
      vertex  0.000000e+000  4.382684e+001  9.238795e+000
    endloop
  endfacet
  facet normal  -0.000000e+000  1.950903e-001  9.807854e-001
    outer loop
      vertex  0.000000e+000  4.382684e+001  9.238795e+000
      vertex  3.000000e+000  4.000000e+001  1.000000e+001
      vertex  3.000000e+000  4.382684e+001  9.238795e+000
    endloop
  endfacet
  facet normal  0.000000e+000  5.555704e-001  8.314695e-001
    outer loop
      vertex  0.000000e+000  4.382684e+001  9.238795e+000
      vertex  3.000000e+000  4.382684e+001  9.238795e+000
      vertex  0.000000e+000  4.707107e+001  7.071068e+000
    endloop
  endfacet
  facet normal  -0.000000e+000  5.555704e-001  8.314695e-001
    outer loop
      vertex  0.000000e+000  4.707107e+001  7.071068e+000
      vertex  3.000000e+000  4.382684e+001  9.238795e+000
      vertex  3.000000e+000  4.707107e+001  7.071068e+000
    endloop
  endfacet
  facet normal  0.000000e+000  8.314695e-001  5.555704e-001
    outer loop
      vertex  0.000000e+000  4.707107e+001  7.071068e+000
      vertex  3.000000e+000  4.707107e+001  7.071068e+000
      vertex  0.000000e+000  4.923880e+001  3.826834e+000
    endloop
  endfacet
  facet normal  -0.000000e+000  8.314695e-001  5.555704e-001
    outer loop
      vertex  0.000000e+000  4.923880e+001  3.826834e+000
      vertex  3.000000e+000  4.707107e+001  7.071068e+000
      vertex  3.000000e+000  4.923880e+001  3.826834e+000
    endloop
  endfacet
  facet normal  0.000000e+000  9.807853e-001  1.950901e-001
    outer loop
      vertex  0.000000e+000  4.923880e+001  3.826834e+000
      vertex  3.000000e+000  4.923880e+001  3.826834e+000
      vertex  0.000000e+000  5.000000e+001  3.907985e-014
    endloop
  endfacet
  facet normal  -0.000000e+000  9.807853e-001  1.950901e-001
    outer loop
      vertex  0.000000e+000  5.000000e+001  3.907985e-014
      vertex  3.000000e+000  4.923880e+001  3.826834e+000
      vertex  3.000000e+000  5.000000e+001  3.907985e-014
    endloop
  endfacet
  facet normal  0.000000e+000 -5.877852e-001  8.090171e-001
    outer loop
      vertex  0.000000e+000  9.425018e-001 -2.900722e+000
      vertex  3.000000e+000  2.467502e+000 -1.792745e+000
      vertex  0.000000e+000  2.467502e+000 -1.792745e+000
    endloop
  endfacet
  facet normal  0.000000e+000 -9.510565e-001  3.090170e-001
    outer loop
      vertex  0.000000e+000  2.467502e+000 -1.792745e+000
      vertex  3.000000e+000  2.467502e+000 -1.792745e+000
      vertex  3.000000e+000  3.050000e+000 -7.470346e-016
    endloop
  endfacet
  facet normal  7.694878e-017 -9.510565e-001  3.090170e-001
    outer loop
      vertex  0.000000e+000  2.467502e+000 -1.792745e+000
      vertex  3.000000e+000  3.050000e+000 -7.470346e-016
      vertex  0.000000e+000  3.050000e+000  0.000000e+000
    endloop
  endfacet
  facet normal  0.000000e+000 -5.877852e-001  8.090171e-001
    outer loop
      vertex  3.000000e+000  2.467502e+000 -1.792745e+000
      vertex  0.000000e+000  9.425018e-001 -2.900722e+000
      vertex  3.000000e+000  9.425018e-001 -2.900722e+000
    endloop
  endfacet
  facet normal  0.000000e+000  0.000000e+000  1.000000e+000
    outer loop
      vertex  3.000000e+000  9.425018e-001 -2.900722e+000
      vertex  0.000000e+000  9.425018e-001 -2.900722e+000
      vertex  0.000000e+000 -9.425018e-001 -2.900722e+000
    endloop
  endfacet
  facet normal  0.000000e+000  0.000000e+000  1.000000e+000
    outer loop
      vertex  3.000000e+000  9.425018e-001 -2.900722e+000
      vertex  0.000000e+000 -9.425018e-001 -2.900722e+000
      vertex  3.000000e+000 -9.425018e-001 -2.900722e+000
    endloop
  endfacet
  facet normal  0.000000e+000  5.877852e-001  8.090171e-001
    outer loop
      vertex  3.000000e+000 -9.425018e-001 -2.900722e+000
      vertex  0.000000e+000 -9.425018e-001 -2.900722e+000
      vertex  0.000000e+000 -2.467502e+000 -1.792745e+000
    endloop
  endfacet
  facet normal  -0.000000e+000  5.877852e-001  8.090171e-001
    outer loop
      vertex  3.000000e+000 -9.425018e-001 -2.900722e+000
      vertex  0.000000e+000 -2.467502e+000 -1.792745e+000
      vertex  3.000000e+000 -2.467502e+000 -1.792745e+000
    endloop
  endfacet
  facet normal  0.000000e+000  9.510565e-001  3.090170e-001
    outer loop
      vertex  3.000000e+000 -2.467502e+000 -1.792745e+000
      vertex  0.000000e+000 -2.467502e+000 -1.792745e+000
      vertex  0.000000e+000 -3.050000e+000  3.735173e-016
    endloop
  endfacet
  facet normal  -0.000000e+000  9.510565e-001  3.090170e-001
    outer loop
      vertex  3.000000e+000 -2.467502e+000 -1.792745e+000
      vertex  0.000000e+000 -3.050000e+000  3.735173e-016
      vertex  3.000000e+000 -3.050000e+000  3.735173e-016
    endloop
  endfacet
  facet normal  0.000000e+000  5.877852e-001 -8.090171e-001
    outer loop
      vertex  0.000000e+000 -9.425018e-001  2.900722e+000
      vertex  3.000000e+000 -2.467502e+000  1.792745e+000
      vertex  0.000000e+000 -2.467502e+000  1.792745e+000
    endloop
  endfacet
  facet normal  0.000000e+000  9.510565e-001 -3.090170e-001
    outer loop
      vertex  0.000000e+000 -2.467502e+000  1.792745e+000
      vertex  3.000000e+000 -2.467502e+000  1.792745e+000
      vertex  3.000000e+000 -3.050000e+000  3.735173e-016
    endloop
  endfacet
  facet normal  0.000000e+000  9.510565e-001 -3.090170e-001
    outer loop
      vertex  0.000000e+000 -2.467502e+000  1.792745e+000
      vertex  3.000000e+000 -3.050000e+000  3.735173e-016
      vertex  0.000000e+000 -3.050000e+000  3.735173e-016
    endloop
  endfacet
  facet normal  0.000000e+000  5.877852e-001 -8.090171e-001
    outer loop
      vertex  3.000000e+000 -2.467502e+000  1.792745e+000
      vertex  0.000000e+000 -9.425018e-001  2.900722e+000
      vertex  3.000000e+000 -9.425018e-001  2.900722e+000
    endloop
  endfacet
  facet normal  0.000000e+000  0.000000e+000 -1.000000e+000
    outer loop
      vertex  3.000000e+000 -9.425018e-001  2.900722e+000
      vertex  0.000000e+000 -9.425018e-001  2.900722e+000
      vertex  0.000000e+000  9.425018e-001  2.900722e+000
    endloop
  endfacet
  facet normal  0.000000e+000  0.000000e+000 -1.000000e+000
    outer loop
      vertex  3.000000e+000 -9.425018e-001  2.900722e+000
      vertex  0.000000e+000  9.425018e-001  2.900722e+000
      vertex  3.000000e+000  9.425018e-001  2.900722e+000
    endloop
  endfacet
  facet normal  -0.000000e+000 -5.877852e-001 -8.090171e-001
    outer loop
      vertex  3.000000e+000  9.425018e-001  2.900722e+000
      vertex  0.000000e+000  9.425018e-001  2.900722e+000
      vertex  0.000000e+000  2.467502e+000  1.792745e+000
    endloop
  endfacet
  facet normal  0.000000e+000 -5.877852e-001 -8.090171e-001
    outer loop
      vertex  3.000000e+000  9.425018e-001  2.900722e+000
      vertex  0.000000e+000  2.467502e+000  1.792745e+000
      vertex  3.000000e+000  2.467502e+000  1.792745e+000
    endloop
  endfacet
  facet normal  -0.000000e+000 -9.510565e-001 -3.090170e-001
    outer loop
      vertex  3.000000e+000  2.467502e+000  1.792745e+000
      vertex  0.000000e+000  2.467502e+000  1.792745e+000
      vertex  0.000000e+000  3.050000e+000  0.000000e+000
    endloop
  endfacet
  facet normal -7.694878e-017 -9.510565e-001 -3.090170e-001
    outer loop
      vertex  3.000000e+000  2.467502e+000  1.792745e+000
      vertex  0.000000e+000  3.050000e+000  0.000000e+000
      vertex  3.000000e+000  3.050000e+000 -7.470346e-016
    endloop
  endfacet
  facet normal  0.000000e+000  5.877848e-001 -8.090173e-001
    outer loop
      vertex  0.000000e+000  3.905750e+001  2.900722e+000
      vertex  3.000000e+000  3.753250e+001  1.792745e+000
      vertex  0.000000e+000  3.753250e+001  1.792745e+000
    endloop
  endfacet
  facet normal  0.000000e+000  9.510568e-001 -3.090163e-001
    outer loop
      vertex  0.000000e+000  3.753250e+001  1.792745e+000
      vertex  3.000000e+000  3.753250e+001  1.792745e+000
      vertex  3.000000e+000  3.695000e+001  3.735173e-016
    endloop
  endfacet
  facet normal  0.000000e+000  9.510568e-001 -3.090163e-001
    outer loop
      vertex  0.000000e+000  3.753250e+001  1.792745e+000
      vertex  3.000000e+000  3.695000e+001  3.735173e-016
      vertex  0.000000e+000  3.695000e+001  3.735173e-016
    endloop
  endfacet
  facet normal  0.000000e+000  5.877848e-001 -8.090173e-001
    outer loop
      vertex  3.000000e+000  3.753250e+001  1.792745e+000
      vertex  0.000000e+000  3.905750e+001  2.900722e+000
      vertex  3.000000e+000  3.905750e+001  2.900722e+000
    endloop
  endfacet
  facet normal  0.000000e+000  0.000000e+000 -1.000000e+000
    outer loop
      vertex  3.000000e+000  3.905750e+001  2.900722e+000
      vertex  0.000000e+000  3.905750e+001  2.900722e+000
      vertex  0.000000e+000  4.094250e+001  2.900722e+000
    endloop
  endfacet
  facet normal  0.000000e+000  0.000000e+000 -1.000000e+000
    outer loop
      vertex  3.000000e+000  3.905750e+001  2.900722e+000
      vertex  0.000000e+000  4.094250e+001  2.900722e+000
      vertex  3.000000e+000  4.094250e+001  2.900722e+000
    endloop
  endfacet
  facet normal  -0.000000e+000 -5.877848e-001 -8.090173e-001
    outer loop
      vertex  3.000000e+000  4.094250e+001  2.900722e+000
      vertex  0.000000e+000  4.094250e+001  2.900722e+000
      vertex  0.000000e+000  4.246750e+001  1.792745e+000
    endloop
  endfacet
  facet normal  0.000000e+000 -5.877848e-001 -8.090173e-001
    outer loop
      vertex  3.000000e+000  4.094250e+001  2.900722e+000
      vertex  0.000000e+000  4.246750e+001  1.792745e+000
      vertex  3.000000e+000  4.246750e+001  1.792745e+000
    endloop
  endfacet
  facet normal  -0.000000e+000 -9.510568e-001 -3.090163e-001
    outer loop
      vertex  3.000000e+000  4.246750e+001  1.792745e+000
      vertex  0.000000e+000  4.246750e+001  1.792745e+000
      vertex  0.000000e+000  4.305000e+001  0.000000e+000
    endloop
  endfacet
  facet normal  0.000000e+000 -9.510568e-001 -3.090163e-001
    outer loop
      vertex  3.000000e+000  4.246750e+001  1.792745e+000
      vertex  0.000000e+000  4.305000e+001  0.000000e+000
      vertex  3.000000e+000  4.305000e+001  0.000000e+000
    endloop
  endfacet
  facet normal  0.000000e+000 -5.877848e-001  8.090173e-001
    outer loop
      vertex  0.000000e+000  4.094250e+001 -2.900722e+000
      vertex  3.000000e+000  4.246750e+001 -1.792745e+000
      vertex  0.000000e+000  4.246750e+001 -1.792745e+000
    endloop
  endfacet
  facet normal  0.000000e+000 -9.510568e-001  3.090163e-001
    outer loop
      vertex  0.000000e+000  4.246750e+001 -1.792745e+000
      vertex  3.000000e+000  4.246750e+001 -1.792745e+000
      vertex  3.000000e+000  4.305000e+001  0.000000e+000
    endloop
  endfacet
  facet normal  0.000000e+000 -9.510568e-001  3.090163e-001
    outer loop
      vertex  0.000000e+000  4.246750e+001 -1.792745e+000
      vertex  3.000000e+000  4.305000e+001  0.000000e+000
      vertex  0.000000e+000  4.305000e+001  0.000000e+000
    endloop
  endfacet
  facet normal  0.000000e+000 -5.877848e-001  8.090173e-001
    outer loop
      vertex  3.000000e+000  4.246750e+001 -1.792745e+000
      vertex  0.000000e+000  4.094250e+001 -2.900722e+000
      vertex  3.000000e+000  4.094250e+001 -2.900722e+000
    endloop
  endfacet
  facet normal  0.000000e+000  0.000000e+000  1.000000e+000
    outer loop
      vertex  3.000000e+000  4.094250e+001 -2.900722e+000
      vertex  0.000000e+000  4.094250e+001 -2.900722e+000
      vertex  0.000000e+000  3.905750e+001 -2.900722e+000
    endloop
  endfacet
  facet normal  0.000000e+000  0.000000e+000  1.000000e+000
    outer loop
      vertex  3.000000e+000  4.094250e+001 -2.900722e+000
      vertex  0.000000e+000  3.905750e+001 -2.900722e+000
      vertex  3.000000e+000  3.905750e+001 -2.900722e+000
    endloop
  endfacet
  facet normal  0.000000e+000  5.877848e-001  8.090173e-001
    outer loop
      vertex  3.000000e+000  3.905750e+001 -2.900722e+000
      vertex  0.000000e+000  3.905750e+001 -2.900722e+000
      vertex  0.000000e+000  3.753250e+001 -1.792745e+000
    endloop
  endfacet
  facet normal  -0.000000e+000  5.877848e-001  8.090173e-001
    outer loop
      vertex  3.000000e+000  3.905750e+001 -2.900722e+000
      vertex  0.000000e+000  3.753250e+001 -1.792745e+000
      vertex  3.000000e+000  3.753250e+001 -1.792745e+000
    endloop
  endfacet
  facet normal  0.000000e+000  9.510568e-001  3.090163e-001
    outer loop
      vertex  3.000000e+000  3.753250e+001 -1.792745e+000
      vertex  0.000000e+000  3.753250e+001 -1.792745e+000
      vertex  0.000000e+000  3.695000e+001  3.735173e-016
    endloop
  endfacet
  facet normal  -0.000000e+000  9.510568e-001  3.090163e-001
    outer loop
      vertex  3.000000e+000  3.753250e+001 -1.792745e+000
      vertex  0.000000e+000  3.695000e+001  3.735173e-016
      vertex  3.000000e+000  3.695000e+001  3.735173e-016
    endloop
  endfacet
  facet normal  0.000000e+000  0.000000e+000  1.000000e+000
    outer loop
      vertex  0.000000e+000 -1.608123e-015  1.000000e+001
      vertex  3.000000e+000 -1.776357e-015  1.000000e+001
      vertex  0.000000e+000  4.000000e+001  1.000000e+001
    endloop
  endfacet
  facet normal  -0.000000e+000  0.000000e+000  1.000000e+000
    outer loop
      vertex  0.000000e+000  4.000000e+001  1.000000e+001
      vertex  3.000000e+000 -1.776357e-015  1.000000e+001
      vertex  3.000000e+000  4.000000e+001  1.000000e+001
    endloop
  endfacet
endsolid CATIA STL
