solid CATIA STL
  facet normal  0.000000e+000  1.000000e+000  0.000000e+000
    outer loop
      vertex  1.836970e-015  3.000000e+000 -1.000000e+001
      vertex  8.652476e-001  3.000000e+000 -2.662958e+000
      vertex  7.071068e+000  3.000000e+000 -7.071068e+000
    endloop
  endfacet
  facet normal  0.000000e+000  1.000000e+000  0.000000e+000
    outer loop
      vertex -8.652476e-001  3.000000e+000  2.662958e+000
      vertex  2.388061e-016  3.000000e+000  6.200000e+000
      vertex  8.652476e-001  3.000000e+000  2.662958e+000
    endloop
  endfacet
  facet normal  0.000000e+000  1.000000e+000  -0.000000e+000
    outer loop
      vertex  3.826834e+000  3.000000e+000  9.238795e+000
      vertex -7.960204e-017  3.000000e+000  8.800000e+000
      vertex -6.123234e-016  3.000000e+000  1.000000e+001
    endloop
  endfacet
  facet normal  0.000000e+000  1.000000e+000  0.000000e+000
    outer loop
      vertex  1.836970e-015  3.000000e+000 -1.000000e+001
      vertex  7.071068e+000  3.000000e+000 -7.071068e+000
      vertex  3.826834e+000  3.000000e+000 -9.238795e+000
    endloop
  endfacet
  facet normal  -0.000000e+000  1.000000e+000  0.000000e+000
    outer loop
      vertex -7.960204e-017  3.000000e+000  8.800000e+000
      vertex -3.826834e+000  3.000000e+000  9.238795e+000
      vertex -6.123234e-016  3.000000e+000  1.000000e+001
    endloop
  endfacet
  facet normal  0.000000e+000  1.000000e+000  0.000000e+000
    outer loop
      vertex  7.071068e+000  3.000000e+000  7.071068e+000
      vertex  9.238795e+000  3.000000e+000  3.826834e+000
      vertex  9.192388e-001  3.000000e+000  6.580761e+000
    endloop
  endfacet
  facet normal  0.000000e+000  1.000000e+000  0.000000e+000
    outer loop
      vertex  7.071068e+000  3.000000e+000  7.071068e+000
      vertex  9.192388e-001  3.000000e+000  6.580761e+000
      vertex  1.300000e+000  3.000000e+000  7.500000e+000
    endloop
  endfacet
  facet normal  -0.000000e+000  1.000000e+000  -0.000000e+000
    outer loop
      vertex  7.071068e+000  3.000000e+000  7.071068e+000
      vertex  1.300000e+000  3.000000e+000  7.500000e+000
      vertex  9.192388e-001  3.000000e+000  8.419239e+000
    endloop
  endfacet
  facet normal  -0.000000e+000  1.000000e+000  -0.000000e+000
    outer loop
      vertex  7.071068e+000  3.000000e+000  7.071068e+000
      vertex  9.192388e-001  3.000000e+000  8.419239e+000
      vertex -7.960204e-017  3.000000e+000  8.800000e+000
    endloop
  endfacet
  facet normal  -0.000000e+000  1.000000e+000  0.000000e+000
    outer loop
      vertex  7.071068e+000  3.000000e+000  7.071068e+000
      vertex -7.960204e-017  3.000000e+000  8.800000e+000
      vertex  3.826834e+000  3.000000e+000  9.238795e+000
    endloop
  endfacet
  facet normal  0.000000e+000  1.000000e+000  -0.000000e+000
    outer loop
      vertex  9.238795e+000  3.000000e+000 -3.826834e+000
      vertex  7.071068e+000  3.000000e+000 -7.071068e+000
      vertex  8.652476e-001  3.000000e+000 -2.662958e+000
    endloop
  endfacet
  facet normal  -0.000000e+000  9.999999e-001  0.000000e+000
    outer loop
      vertex  9.238795e+000  3.000000e+000 -3.826834e+000
      vertex  8.652476e-001  3.000000e+000 -2.662958e+000
      vertex  2.265248e+000  3.000000e+000 -1.645799e+000
    endloop
  endfacet
  facet normal  -0.000000e+000  1.000000e+000  0.000000e+000
    outer loop
      vertex  9.238795e+000  3.000000e+000 -3.826834e+000
      vertex  2.265248e+000  3.000000e+000 -1.645799e+000
      vertex  2.800000e+000  3.000000e+000  3.429011e-016
    endloop
  endfacet
  facet normal  -0.000000e+000  9.999999e-001  0.000000e+000
    outer loop
      vertex  9.238795e+000  3.000000e+000 -3.826834e+000
      vertex  2.800000e+000  3.000000e+000  3.429011e-016
      vertex  1.000000e+001  3.000000e+000  1.224647e-015
    endloop
  endfacet
  facet normal  0.000000e+000  1.000000e+000  0.000000e+000
    outer loop
      vertex -3.826834e+000  3.000000e+000 -9.238795e+000
      vertex -7.071068e+000  3.000000e+000 -7.071068e+000
      vertex  1.836970e-015  3.000000e+000 -1.000000e+001
    endloop
  endfacet
  facet normal  0.000000e+000  1.000000e+000  0.000000e+000
    outer loop
      vertex  1.836970e-015  3.000000e+000 -1.000000e+001
      vertex -7.071068e+000  3.000000e+000 -7.071068e+000
      vertex -9.238795e+000  3.000000e+000 -3.826834e+000
    endloop
  endfacet
  facet normal  -0.000000e+000  1.000000e+000  0.000000e+000
    outer loop
      vertex  1.836970e-015  3.000000e+000 -1.000000e+001
      vertex -9.238795e+000  3.000000e+000 -3.826834e+000
      vertex  8.652476e-001  3.000000e+000 -2.662958e+000
    endloop
  endfacet
  facet normal  0.000000e+000  1.000000e+000  0.000000e+000
    outer loop
      vertex  8.652476e-001  3.000000e+000 -2.662958e+000
      vertex -9.238795e+000  3.000000e+000 -3.826834e+000
      vertex -8.652476e-001  3.000000e+000 -2.662958e+000
    endloop
  endfacet
  facet normal  0.000000e+000  1.000000e+000  0.000000e+000
    outer loop
      vertex  2.388061e-016  3.000000e+000  6.200000e+000
      vertex  9.192388e-001  3.000000e+000  6.580761e+000
      vertex  8.652476e-001  3.000000e+000  2.662958e+000
    endloop
  endfacet
  facet normal  0.000000e+000  1.000000e+000  0.000000e+000
    outer loop
      vertex  8.652476e-001  3.000000e+000  2.662958e+000
      vertex  9.192388e-001  3.000000e+000  6.580761e+000
      vertex  9.238795e+000  3.000000e+000  3.826834e+000
    endloop
  endfacet
  facet normal  0.000000e+000  1.000000e+000  0.000000e+000
    outer loop
      vertex  8.652476e-001  3.000000e+000  2.662958e+000
      vertex  9.238795e+000  3.000000e+000  3.826834e+000
      vertex  2.265248e+000  3.000000e+000  1.645799e+000
    endloop
  endfacet
  facet normal  -0.000000e+000  1.000000e+000  0.000000e+000
    outer loop
      vertex  2.265248e+000  3.000000e+000  1.645799e+000
      vertex  9.238795e+000  3.000000e+000  3.826834e+000
      vertex  1.000000e+001  3.000000e+000  1.224647e-015
    endloop
  endfacet
  facet normal  0.000000e+000  1.000000e+000  0.000000e+000
    outer loop
      vertex  2.265248e+000  3.000000e+000  1.645799e+000
      vertex  1.000000e+001  3.000000e+000  1.224647e-015
      vertex  2.800000e+000  3.000000e+000  3.429011e-016
    endloop
  endfacet
  facet normal  0.000000e+000  1.000000e+000  0.000000e+000
    outer loop
      vertex -9.192388e-001  3.000000e+000  6.580761e+000
      vertex  2.388061e-016  3.000000e+000  6.200000e+000
      vertex -9.238795e+000  3.000000e+000  3.826834e+000
    endloop
  endfacet
  facet normal  -0.000000e+000  1.000000e+000  0.000000e+000
    outer loop
      vertex -9.238795e+000  3.000000e+000  3.826834e+000
      vertex  2.388061e-016  3.000000e+000  6.200000e+000
      vertex -8.652476e-001  3.000000e+000  2.662958e+000
    endloop
  endfacet
  facet normal  0.000000e+000  1.000000e+000  0.000000e+000
    outer loop
      vertex -9.238795e+000  3.000000e+000  3.826834e+000
      vertex -8.652476e-001  3.000000e+000  2.662958e+000
      vertex -1.000000e+001  3.000000e+000  0.000000e+000
    endloop
  endfacet
  facet normal  0.000000e+000  1.000000e+000  0.000000e+000
    outer loop
      vertex -1.000000e+001  3.000000e+000  0.000000e+000
      vertex -8.652476e-001  3.000000e+000  2.662958e+000
      vertex -2.265248e+000  3.000000e+000  1.645799e+000
    endloop
  endfacet
  facet normal  0.000000e+000  1.000000e+000  0.000000e+000
    outer loop
      vertex -1.000000e+001  3.000000e+000  0.000000e+000
      vertex -2.265248e+000  3.000000e+000  1.645799e+000
      vertex -2.800000e+000  3.000000e+000  0.000000e+000
    endloop
  endfacet
  facet normal  0.000000e+000  1.000000e+000  0.000000e+000
    outer loop
      vertex -3.826834e+000  3.000000e+000  9.238795e+000
      vertex -7.960204e-017  3.000000e+000  8.800000e+000
      vertex -7.071068e+000  3.000000e+000  7.071068e+000
    endloop
  endfacet
  facet normal  0.000000e+000  1.000000e+000  0.000000e+000
    outer loop
      vertex -7.071068e+000  3.000000e+000  7.071068e+000
      vertex -7.960204e-017  3.000000e+000  8.800000e+000
      vertex -9.192388e-001  3.000000e+000  8.419239e+000
    endloop
  endfacet
  facet normal  0.000000e+000  1.000000e+000  0.000000e+000
    outer loop
      vertex -7.071068e+000  3.000000e+000  7.071068e+000
      vertex -9.192388e-001  3.000000e+000  8.419239e+000
      vertex -1.300000e+000  3.000000e+000  7.500000e+000
    endloop
  endfacet
  facet normal  0.000000e+000  1.000000e+000  0.000000e+000
    outer loop
      vertex -9.192388e-001  3.000000e+000  6.580761e+000
      vertex -9.238795e+000  3.000000e+000  3.826834e+000
      vertex -1.300000e+000  3.000000e+000  7.500000e+000
    endloop
  endfacet
  facet normal  0.000000e+000  1.000000e+000  0.000000e+000
    outer loop
      vertex -1.300000e+000  3.000000e+000  7.500000e+000
      vertex -9.238795e+000  3.000000e+000  3.826834e+000
      vertex -7.071068e+000  3.000000e+000  7.071068e+000
    endloop
  endfacet
  facet normal  0.000000e+000  9.999999e-001  0.000000e+000
    outer loop
      vertex -1.000000e+001  3.000000e+000  0.000000e+000
      vertex -2.800000e+000  3.000000e+000  0.000000e+000
      vertex -9.238795e+000  3.000000e+000 -3.826834e+000
    endloop
  endfacet
  facet normal  0.000000e+000  9.999999e-001  0.000000e+000
    outer loop
      vertex -9.238795e+000  3.000000e+000 -3.826834e+000
      vertex -2.800000e+000  3.000000e+000  0.000000e+000
      vertex -2.265248e+000  3.000000e+000 -1.645799e+000
    endloop
  endfacet
  facet normal  0.000000e+000  9.999999e-001  0.000000e+000
    outer loop
      vertex -9.238795e+000  3.000000e+000 -3.826834e+000
      vertex -2.265248e+000  3.000000e+000 -1.645799e+000
      vertex -8.652476e-001  3.000000e+000 -2.662958e+000
    endloop
  endfacet
  facet normal  0.000000e+000  9.999999e-001  0.000000e+000
    outer loop
      vertex  8.652476e-001  1.200000e+001  2.662958e+000
      vertex  2.265248e+000  1.200000e+001  1.645799e+000
      vertex -8.652476e-001  1.200000e+001  2.662958e+000
    endloop
  endfacet
  facet normal  0.000000e+000  1.000000e+000  0.000000e+000
    outer loop
      vertex -8.652476e-001  1.200000e+001  2.662958e+000
      vertex  2.265248e+000  1.200000e+001  1.645799e+000
      vertex -1.285879e-016  1.200000e+001  2.100000e+000
    endloop
  endfacet
  facet normal  0.000000e+000  1.000000e+000  0.000000e+000
    outer loop
      vertex -8.652476e-001  1.200000e+001  2.662958e+000
      vertex -1.285879e-016  1.200000e+001  2.100000e+000
      vertex -2.265248e+000  1.200000e+001  1.645799e+000
    endloop
  endfacet
  facet normal  -0.000000e+000  1.000000e+000  0.000000e+000
    outer loop
      vertex -2.265248e+000  1.200000e+001  1.645799e+000
      vertex -1.285879e-016  1.200000e+001  2.100000e+000
      vertex -1.484924e+000  1.200000e+001  1.484924e+000
    endloop
  endfacet
  facet normal  0.000000e+000  1.000000e+000  0.000000e+000
    outer loop
      vertex -2.265248e+000  1.200000e+001  1.645799e+000
      vertex -1.484924e+000  1.200000e+001  1.484924e+000
      vertex -2.800000e+000  1.200000e+001 -6.858022e-016
    endloop
  endfacet
  facet normal  0.000000e+000  1.000000e+000  0.000000e+000
    outer loop
      vertex -2.800000e+000  1.200000e+001 -6.858022e-016
      vertex -1.484924e+000  1.200000e+001  1.484924e+000
      vertex -2.100000e+000  1.200000e+001  0.000000e+000
    endloop
  endfacet
  facet normal  0.000000e+000  1.000000e+000  0.000000e+000
    outer loop
      vertex -2.800000e+000  1.200000e+001 -6.858022e-016
      vertex -2.100000e+000  1.200000e+001  0.000000e+000
      vertex -2.265248e+000  1.200000e+001 -1.645799e+000
    endloop
  endfacet
  facet normal  0.000000e+000  9.999999e-001  0.000000e+000
    outer loop
      vertex -2.265248e+000  1.200000e+001 -1.645799e+000
      vertex -2.100000e+000  1.200000e+001  0.000000e+000
      vertex -1.484924e+000  1.200000e+001 -1.484924e+000
    endloop
  endfacet
  facet normal  0.000000e+000  1.000000e+000  0.000000e+000
    outer loop
      vertex -2.265248e+000  1.200000e+001 -1.645799e+000
      vertex -1.484924e+000  1.200000e+001 -1.484924e+000
      vertex -8.652476e-001  1.200000e+001 -2.662958e+000
    endloop
  endfacet
  facet normal  0.000000e+000  1.000000e+000  -0.000000e+000
    outer loop
      vertex -8.652476e-001  1.200000e+001 -2.662958e+000
      vertex -1.484924e+000  1.200000e+001 -1.484924e+000
      vertex  2.250938e-015  1.200000e+001 -2.100000e+000
    endloop
  endfacet
  facet normal  0.000000e+000  1.000000e+000  0.000000e+000
    outer loop
      vertex -8.652476e-001  1.200000e+001 -2.662958e+000
      vertex  2.250938e-015  1.200000e+001 -2.100000e+000
      vertex  8.652476e-001  1.200000e+001 -2.662958e+000
    endloop
  endfacet
  facet normal  -0.000000e+000  1.000000e+000  0.000000e+000
    outer loop
      vertex  8.652476e-001  1.200000e+001 -2.662958e+000
      vertex  2.250938e-015  1.200000e+001 -2.100000e+000
      vertex  2.265248e+000  1.200000e+001 -1.645799e+000
    endloop
  endfacet
  facet normal  0.000000e+000  1.000000e+000  0.000000e+000
    outer loop
      vertex  2.265248e+000  1.200000e+001 -1.645799e+000
      vertex  2.250938e-015  1.200000e+001 -2.100000e+000
      vertex  1.484924e+000  1.200000e+001 -1.484924e+000
    endloop
  endfacet
  facet normal  -0.000000e+000  1.000000e+000  0.000000e+000
    outer loop
      vertex  2.265248e+000  1.200000e+001 -1.645799e+000
      vertex  1.484924e+000  1.200000e+001 -1.484924e+000
      vertex  2.800000e+000  1.200000e+001  3.429011e-016
    endloop
  endfacet
  facet normal  0.000000e+000  1.000000e+000  0.000000e+000
    outer loop
      vertex  2.800000e+000  1.200000e+001  3.429011e-016
      vertex  1.484924e+000  1.200000e+001 -1.484924e+000
      vertex  2.100000e+000  1.200000e+001  2.571758e-016
    endloop
  endfacet
  facet normal  0.000000e+000  1.000000e+000  0.000000e+000
    outer loop
      vertex  2.800000e+000  1.200000e+001  3.429011e-016
      vertex  2.100000e+000  1.200000e+001  2.571758e-016
      vertex  2.265248e+000  1.200000e+001  1.645799e+000
    endloop
  endfacet
  facet normal  0.000000e+000  9.999999e-001  0.000000e+000
    outer loop
      vertex  2.265248e+000  1.200000e+001  1.645799e+000
      vertex  2.100000e+000  1.200000e+001  2.571758e-016
      vertex  1.484924e+000  1.200000e+001  1.484924e+000
    endloop
  endfacet
  facet normal  0.000000e+000  1.000000e+000  -0.000000e+000
    outer loop
      vertex  2.265248e+000  1.200000e+001  1.645799e+000
      vertex  1.484924e+000  1.200000e+001  1.484924e+000
      vertex -1.285879e-016  1.200000e+001  2.100000e+000
    endloop
  endfacet
  facet normal  9.510566e-001  0.000000e+000  3.090170e-001
    outer loop
      vertex  2.800000e+000  3.000000e+000  3.429011e-016
      vertex  2.800000e+000  1.200000e+001  3.429011e-016
      vertex  2.265248e+000  3.000000e+000  1.645799e+000
    endloop
  endfacet
  facet normal  9.510566e-001  -0.000000e+000  3.090170e-001
    outer loop
      vertex  2.265248e+000  3.000000e+000  1.645799e+000
      vertex  2.800000e+000  1.200000e+001  3.429011e-016
      vertex  2.265248e+000  1.200000e+001  1.645799e+000
    endloop
  endfacet
  facet normal  5.877852e-001  0.000000e+000  8.090170e-001
    outer loop
      vertex  2.265248e+000  3.000000e+000  1.645799e+000
      vertex  2.265248e+000  1.200000e+001  1.645799e+000
      vertex  8.652476e-001  3.000000e+000  2.662958e+000
    endloop
  endfacet
  facet normal  5.877852e-001  -0.000000e+000  8.090170e-001
    outer loop
      vertex  8.652476e-001  3.000000e+000  2.662958e+000
      vertex  2.265248e+000  1.200000e+001  1.645799e+000
      vertex  8.652476e-001  1.200000e+001  2.662958e+000
    endloop
  endfacet
  facet normal  0.000000e+000  0.000000e+000  1.000000e+000
    outer loop
      vertex  8.652476e-001  3.000000e+000  2.662958e+000
      vertex  8.652476e-001  1.200000e+001  2.662958e+000
      vertex -8.652476e-001  3.000000e+000  2.662958e+000
    endloop
  endfacet
  facet normal  0.000000e+000  0.000000e+000  1.000000e+000
    outer loop
      vertex -8.652476e-001  3.000000e+000  2.662958e+000
      vertex  8.652476e-001  1.200000e+001  2.662958e+000
      vertex -8.652476e-001  1.200000e+001  2.662958e+000
    endloop
  endfacet
  facet normal -5.877852e-001  0.000000e+000  8.090170e-001
    outer loop
      vertex -8.652476e-001  3.000000e+000  2.662958e+000
      vertex -8.652476e-001  1.200000e+001  2.662958e+000
      vertex -2.265248e+000  3.000000e+000  1.645799e+000
    endloop
  endfacet
  facet normal -5.877852e-001  0.000000e+000  8.090170e-001
    outer loop
      vertex -2.265248e+000  3.000000e+000  1.645799e+000
      vertex -8.652476e-001  1.200000e+001  2.662958e+000
      vertex -2.265248e+000  1.200000e+001  1.645799e+000
    endloop
  endfacet
  facet normal -9.510566e-001  0.000000e+000  3.090170e-001
    outer loop
      vertex -2.265248e+000  3.000000e+000  1.645799e+000
      vertex -2.265248e+000  1.200000e+001  1.645799e+000
      vertex -2.800000e+000  3.000000e+000  0.000000e+000
    endloop
  endfacet
  facet normal -9.510566e-001  2.354717e-017  3.090170e-001
    outer loop
      vertex -2.800000e+000  3.000000e+000  0.000000e+000
      vertex -2.265248e+000  1.200000e+001  1.645799e+000
      vertex -2.800000e+000  1.200000e+001 -6.858022e-016
    endloop
  endfacet
  facet normal -9.510566e-001 -2.354717e-017 -3.090170e-001
    outer loop
      vertex -2.800000e+000  3.000000e+000  0.000000e+000
      vertex -2.800000e+000  1.200000e+001 -6.858022e-016
      vertex -2.265248e+000  3.000000e+000 -1.645799e+000
    endloop
  endfacet
  facet normal -9.510566e-001  0.000000e+000 -3.090170e-001
    outer loop
      vertex -2.265248e+000  3.000000e+000 -1.645799e+000
      vertex -2.800000e+000  1.200000e+001 -6.858022e-016
      vertex -2.265248e+000  1.200000e+001 -1.645799e+000
    endloop
  endfacet
  facet normal -5.877852e-001  -0.000000e+000 -8.090170e-001
    outer loop
      vertex -2.265248e+000  3.000000e+000 -1.645799e+000
      vertex -2.265248e+000  1.200000e+001 -1.645799e+000
      vertex -8.652476e-001  3.000000e+000 -2.662958e+000
    endloop
  endfacet
  facet normal -5.877852e-001  0.000000e+000 -8.090170e-001
    outer loop
      vertex -8.652476e-001  3.000000e+000 -2.662958e+000
      vertex -2.265248e+000  1.200000e+001 -1.645799e+000
      vertex -8.652476e-001  1.200000e+001 -2.662958e+000
    endloop
  endfacet
  facet normal  0.000000e+000  0.000000e+000 -1.000000e+000
    outer loop
      vertex -8.652476e-001  3.000000e+000 -2.662958e+000
      vertex -8.652476e-001  1.200000e+001 -2.662958e+000
      vertex  8.652476e-001  3.000000e+000 -2.662958e+000
    endloop
  endfacet
  facet normal  0.000000e+000  0.000000e+000 -1.000000e+000
    outer loop
      vertex  8.652476e-001  3.000000e+000 -2.662958e+000
      vertex -8.652476e-001  1.200000e+001 -2.662958e+000
      vertex  8.652476e-001  1.200000e+001 -2.662958e+000
    endloop
  endfacet
  facet normal  5.877852e-001  0.000000e+000 -8.090170e-001
    outer loop
      vertex  8.652476e-001  3.000000e+000 -2.662958e+000
      vertex  8.652476e-001  1.200000e+001 -2.662958e+000
      vertex  2.265248e+000  3.000000e+000 -1.645799e+000
    endloop
  endfacet
  facet normal  5.877852e-001  0.000000e+000 -8.090170e-001
    outer loop
      vertex  2.265248e+000  3.000000e+000 -1.645799e+000
      vertex  8.652476e-001  1.200000e+001 -2.662958e+000
      vertex  2.265248e+000  1.200000e+001 -1.645799e+000
    endloop
  endfacet
  facet normal  9.510566e-001  0.000000e+000 -3.090170e-001
    outer loop
      vertex  2.265248e+000  3.000000e+000 -1.645799e+000
      vertex  2.265248e+000  1.200000e+001 -1.645799e+000
      vertex  2.800000e+000  3.000000e+000  3.429011e-016
    endloop
  endfacet
  facet normal  9.510566e-001  0.000000e+000 -3.090170e-001
    outer loop
      vertex  2.800000e+000  3.000000e+000  3.429011e-016
      vertex  2.265248e+000  1.200000e+001 -1.645799e+000
      vertex  2.800000e+000  1.200000e+001  3.429011e-016
    endloop
  endfacet
  facet normal  3.826834e-001  0.000000e+000  9.238795e-001
    outer loop
      vertex  2.250938e-015  3.000000e+000 -2.100000e+000
      vertex -1.484924e+000  1.200000e+001 -1.484924e+000
      vertex -1.484924e+000  3.000000e+000 -1.484924e+000
    endloop
  endfacet
  facet normal  9.238795e-001  -0.000000e+000  3.826834e-001
    outer loop
      vertex -1.484924e+000  3.000000e+000 -1.484924e+000
      vertex -1.484924e+000  1.200000e+001 -1.484924e+000
      vertex -2.100000e+000  1.200000e+001  0.000000e+000
    endloop
  endfacet
  facet normal  9.238795e-001  0.000000e+000  3.826834e-001
    outer loop
      vertex -1.484924e+000  3.000000e+000 -1.484924e+000
      vertex -2.100000e+000  1.200000e+001  0.000000e+000
      vertex -2.100000e+000  3.000000e+000  0.000000e+000
    endloop
  endfacet
  facet normal  3.826834e-001  -0.000000e+000  9.238795e-001
    outer loop
      vertex -1.484924e+000  1.200000e+001 -1.484924e+000
      vertex  2.250938e-015  3.000000e+000 -2.100000e+000
      vertex  2.250938e-015  1.200000e+001 -2.100000e+000
    endloop
  endfacet
  facet normal -3.826834e-001  0.000000e+000  9.238795e-001
    outer loop
      vertex  2.250938e-015  1.200000e+001 -2.100000e+000
      vertex  2.250938e-015  3.000000e+000 -2.100000e+000
      vertex  1.484924e+000  3.000000e+000 -1.484924e+000
    endloop
  endfacet
  facet normal -3.826834e-001  0.000000e+000  9.238795e-001
    outer loop
      vertex  2.250938e-015  1.200000e+001 -2.100000e+000
      vertex  1.484924e+000  3.000000e+000 -1.484924e+000
      vertex  1.484924e+000  1.200000e+001 -1.484924e+000
    endloop
  endfacet
  facet normal -9.238795e-001  0.000000e+000  3.826834e-001
    outer loop
      vertex  1.484924e+000  1.200000e+001 -1.484924e+000
      vertex  1.484924e+000  3.000000e+000 -1.484924e+000
      vertex  2.100000e+000  3.000000e+000  2.571758e-016
    endloop
  endfacet
  facet normal -9.238795e-001  0.000000e+000  3.826834e-001
    outer loop
      vertex  1.484924e+000  1.200000e+001 -1.484924e+000
      vertex  2.100000e+000  3.000000e+000  2.571758e-016
      vertex  2.100000e+000  1.200000e+001  2.571758e-016
    endloop
  endfacet
  facet normal -3.826834e-001  -0.000000e+000 -9.238795e-001
    outer loop
      vertex -1.285879e-016  3.000000e+000  2.100000e+000
      vertex  1.484924e+000  1.200000e+001  1.484924e+000
      vertex  1.484924e+000  3.000000e+000  1.484924e+000
    endloop
  endfacet
  facet normal -9.238795e-001  0.000000e+000 -3.826834e-001
    outer loop
      vertex  1.484924e+000  3.000000e+000  1.484924e+000
      vertex  1.484924e+000  1.200000e+001  1.484924e+000
      vertex  2.100000e+000  1.200000e+001  2.571758e-016
    endloop
  endfacet
  facet normal -9.238795e-001  -0.000000e+000 -3.826834e-001
    outer loop
      vertex  1.484924e+000  3.000000e+000  1.484924e+000
      vertex  2.100000e+000  1.200000e+001  2.571758e-016
      vertex  2.100000e+000  3.000000e+000  2.571758e-016
    endloop
  endfacet
  facet normal -3.826834e-001  0.000000e+000 -9.238795e-001
    outer loop
      vertex  1.484924e+000  1.200000e+001  1.484924e+000
      vertex -1.285879e-016  3.000000e+000  2.100000e+000
      vertex -1.285879e-016  1.200000e+001  2.100000e+000
    endloop
  endfacet
  facet normal  3.826834e-001  0.000000e+000 -9.238795e-001
    outer loop
      vertex -1.285879e-016  1.200000e+001  2.100000e+000
      vertex -1.285879e-016  3.000000e+000  2.100000e+000
      vertex -1.484924e+000  3.000000e+000  1.484924e+000
    endloop
  endfacet
  facet normal  3.826834e-001  0.000000e+000 -9.238795e-001
    outer loop
      vertex -1.285879e-016  1.200000e+001  2.100000e+000
      vertex -1.484924e+000  3.000000e+000  1.484924e+000
      vertex -1.484924e+000  1.200000e+001  1.484924e+000
    endloop
  endfacet
  facet normal  9.238795e-001  0.000000e+000 -3.826834e-001
    outer loop
      vertex -1.484924e+000  1.200000e+001  1.484924e+000
      vertex -1.484924e+000  3.000000e+000  1.484924e+000
      vertex -2.100000e+000  3.000000e+000  0.000000e+000
    endloop
  endfacet
  facet normal  9.238795e-001  0.000000e+000 -3.826834e-001
    outer loop
      vertex -1.484924e+000  1.200000e+001  1.484924e+000
      vertex -2.100000e+000  3.000000e+000  0.000000e+000
      vertex -2.100000e+000  1.200000e+001  0.000000e+000
    endloop
  endfacet
  facet normal  0.000000e+000  1.000000e+000  0.000000e+000
    outer loop
      vertex  1.484924e+000  3.000000e+000  1.484924e+000
      vertex -1.484924e+000  3.000000e+000  1.484924e+000
      vertex -1.285879e-016  3.000000e+000  2.100000e+000
    endloop
  endfacet
  facet normal  0.000000e+000  1.000000e+000  0.000000e+000
    outer loop
      vertex -1.484924e+000  3.000000e+000  1.484924e+000
      vertex  1.484924e+000  3.000000e+000  1.484924e+000
      vertex -2.100000e+000  3.000000e+000  0.000000e+000
    endloop
  endfacet
  facet normal  0.000000e+000  1.000000e+000  0.000000e+000
    outer loop
      vertex -2.100000e+000  3.000000e+000  0.000000e+000
      vertex  1.484924e+000  3.000000e+000  1.484924e+000
      vertex  2.100000e+000  3.000000e+000  2.571758e-016
    endloop
  endfacet
  facet normal  0.000000e+000  1.000000e+000  0.000000e+000
    outer loop
      vertex -2.100000e+000  3.000000e+000  0.000000e+000
      vertex  2.100000e+000  3.000000e+000  2.571758e-016
      vertex -1.484924e+000  3.000000e+000 -1.484924e+000
    endloop
  endfacet
  facet normal  0.000000e+000  1.000000e+000  0.000000e+000
    outer loop
      vertex -1.484924e+000  3.000000e+000 -1.484924e+000
      vertex  2.100000e+000  3.000000e+000  2.571758e-016
      vertex  1.484924e+000  3.000000e+000 -1.484924e+000
    endloop
  endfacet
  facet normal  0.000000e+000  1.000000e+000  0.000000e+000
    outer loop
      vertex -1.484924e+000  3.000000e+000 -1.484924e+000
      vertex  1.484924e+000  3.000000e+000 -1.484924e+000
      vertex  2.250938e-015  3.000000e+000 -2.100000e+000
    endloop
  endfacet
  facet normal -9.238796e-001  -0.000000e+000 -3.826833e-001
    outer loop
      vertex -1.300000e+000  3.000000e+000  7.500000e+000
      vertex -1.300000e+000  9.000000e+000  7.500000e+000
      vertex -9.192388e-001  3.000000e+000  6.580761e+000
    endloop
  endfacet
  facet normal -9.238796e-001  0.000000e+000 -3.826833e-001
    outer loop
      vertex -9.192388e-001  3.000000e+000  6.580761e+000
      vertex -1.300000e+000  9.000000e+000  7.500000e+000
      vertex -9.192388e-001  9.000000e+000  6.580761e+000
    endloop
  endfacet
  facet normal -3.826834e-001  -0.000000e+000 -9.238796e-001
    outer loop
      vertex -9.192388e-001  3.000000e+000  6.580761e+000
      vertex -9.192388e-001  9.000000e+000  6.580761e+000
      vertex  2.388061e-016  3.000000e+000  6.200000e+000
    endloop
  endfacet
  facet normal -3.826834e-001  0.000000e+000 -9.238796e-001
    outer loop
      vertex  2.388061e-016  3.000000e+000  6.200000e+000
      vertex -9.192388e-001  9.000000e+000  6.580761e+000
      vertex  2.388061e-016  9.000000e+000  6.200000e+000
    endloop
  endfacet
  facet normal  3.826834e-001  0.000000e+000 -9.238796e-001
    outer loop
      vertex  2.388061e-016  3.000000e+000  6.200000e+000
      vertex  2.388061e-016  9.000000e+000  6.200000e+000
      vertex  9.192388e-001  3.000000e+000  6.580761e+000
    endloop
  endfacet
  facet normal  3.826834e-001  0.000000e+000 -9.238796e-001
    outer loop
      vertex  9.192388e-001  3.000000e+000  6.580761e+000
      vertex  2.388061e-016  9.000000e+000  6.200000e+000
      vertex  9.192388e-001  9.000000e+000  6.580761e+000
    endloop
  endfacet
  facet normal  9.238796e-001  0.000000e+000 -3.826833e-001
    outer loop
      vertex  9.192388e-001  3.000000e+000  6.580761e+000
      vertex  9.192388e-001  9.000000e+000  6.580761e+000
      vertex  1.300000e+000  3.000000e+000  7.500000e+000
    endloop
  endfacet
  facet normal  9.238796e-001  0.000000e+000 -3.826833e-001
    outer loop
      vertex  1.300000e+000  3.000000e+000  7.500000e+000
      vertex  9.192388e-001  9.000000e+000  6.580761e+000
      vertex  1.300000e+000  9.000000e+000  7.500000e+000
    endloop
  endfacet
  facet normal  9.238796e-001  0.000000e+000  3.826833e-001
    outer loop
      vertex  1.300000e+000  3.000000e+000  7.500000e+000
      vertex  1.300000e+000  9.000000e+000  7.500000e+000
      vertex  9.192388e-001  3.000000e+000  8.419239e+000
    endloop
  endfacet
  facet normal  9.238796e-001  -0.000000e+000  3.826833e-001
    outer loop
      vertex  9.192388e-001  3.000000e+000  8.419239e+000
      vertex  1.300000e+000  9.000000e+000  7.500000e+000
      vertex  9.192388e-001  9.000000e+000  8.419239e+000
    endloop
  endfacet
  facet normal  3.826834e-001  0.000000e+000  9.238796e-001
    outer loop
      vertex  9.192388e-001  3.000000e+000  8.419239e+000
      vertex  9.192388e-001  9.000000e+000  8.419239e+000
      vertex -7.960204e-017  3.000000e+000  8.800000e+000
    endloop
  endfacet
  facet normal  3.826834e-001  -0.000000e+000  9.238796e-001
    outer loop
      vertex -7.960204e-017  3.000000e+000  8.800000e+000
      vertex  9.192388e-001  9.000000e+000  8.419239e+000
      vertex -7.960204e-017  9.000000e+000  8.800000e+000
    endloop
  endfacet
  facet normal -3.826834e-001  0.000000e+000  9.238796e-001
    outer loop
      vertex -7.960204e-017  3.000000e+000  8.800000e+000
      vertex -7.960204e-017  9.000000e+000  8.800000e+000
      vertex -9.192388e-001  3.000000e+000  8.419239e+000
    endloop
  endfacet
  facet normal -3.826834e-001  0.000000e+000  9.238796e-001
    outer loop
      vertex -9.192388e-001  3.000000e+000  8.419239e+000
      vertex -7.960204e-017  9.000000e+000  8.800000e+000
      vertex -9.192388e-001  9.000000e+000  8.419239e+000
    endloop
  endfacet
  facet normal -9.238796e-001  0.000000e+000  3.826833e-001
    outer loop
      vertex -9.192388e-001  3.000000e+000  8.419239e+000
      vertex -9.192388e-001  9.000000e+000  8.419239e+000
      vertex -1.300000e+000  3.000000e+000  7.500000e+000
    endloop
  endfacet
  facet normal -9.238796e-001  0.000000e+000  3.826833e-001
    outer loop
      vertex -1.300000e+000  3.000000e+000  7.500000e+000
      vertex -9.192388e-001  9.000000e+000  8.419239e+000
      vertex -1.300000e+000  9.000000e+000  7.500000e+000
    endloop
  endfacet
  facet normal  0.000000e+000  1.000000e+000  0.000000e+000
    outer loop
      vertex  9.192388e-001  9.000000e+000  8.419239e+000
      vertex -9.192388e-001  9.000000e+000  8.419239e+000
      vertex -7.960204e-017  9.000000e+000  8.800000e+000
    endloop
  endfacet
  facet normal  0.000000e+000  9.999999e-001  0.000000e+000
    outer loop
      vertex -9.192388e-001  9.000000e+000  8.419239e+000
      vertex  9.192388e-001  9.000000e+000  8.419239e+000
      vertex -1.300000e+000  9.000000e+000  7.500000e+000
    endloop
  endfacet
  facet normal  0.000000e+000  1.000000e+000  0.000000e+000
    outer loop
      vertex -1.300000e+000  9.000000e+000  7.500000e+000
      vertex  9.192388e-001  9.000000e+000  8.419239e+000
      vertex  1.300000e+000  9.000000e+000  7.500000e+000
    endloop
  endfacet
  facet normal  0.000000e+000  1.000000e+000  0.000000e+000
    outer loop
      vertex -1.300000e+000  9.000000e+000  7.500000e+000
      vertex  1.300000e+000  9.000000e+000  7.500000e+000
      vertex -9.192388e-001  9.000000e+000  6.580761e+000
    endloop
  endfacet
  facet normal  0.000000e+000  9.999999e-001  0.000000e+000
    outer loop
      vertex -9.192388e-001  9.000000e+000  6.580761e+000
      vertex  1.300000e+000  9.000000e+000  7.500000e+000
      vertex  9.192388e-001  9.000000e+000  6.580761e+000
    endloop
  endfacet
  facet normal  0.000000e+000  1.000000e+000  0.000000e+000
    outer loop
      vertex -9.192388e-001  9.000000e+000  6.580761e+000
      vertex  9.192388e-001  9.000000e+000  6.580761e+000
      vertex  2.388061e-016  9.000000e+000  6.200000e+000
    endloop
  endfacet
  facet normal  0.000000e+000 -9.999999e-001  0.000000e+000
    outer loop
      vertex -6.123234e-016  0.000000e+000  1.000000e+001
      vertex  2.464509e-015  0.000000e+000  8.700000e+000
      vertex  3.826834e+000  0.000000e+000  9.238795e+000
    endloop
  endfacet
  facet normal  0.000000e+000 -1.000000e+000  0.000000e+000
    outer loop
      vertex  3.826834e+000  0.000000e+000  9.238795e+000
      vertex  2.464509e-015  0.000000e+000  8.700000e+000
      vertex  3.468219e+000  0.000000e+000  7.978813e+000
    endloop
  endfacet
  facet normal  0.000000e+000 -1.000000e+000  0.000000e+000
    outer loop
      vertex  3.468219e+000  0.000000e+000  7.978813e+000
      vertex  7.071068e+000  0.000000e+000  7.071068e+000
      vertex  3.826834e+000  0.000000e+000  9.238795e+000
    endloop
  endfacet
  facet normal  0.000000e+000 -1.000000e+000  0.000000e+000
    outer loop
      vertex  9.238795e+000  0.000000e+000 -3.826834e+000
      vertex  1.000000e+001  0.000000e+000  1.224647e-015
      vertex  8.200000e+000  0.000000e+000 -2.906888e+000
    endloop
  endfacet
  facet normal  0.000000e+000 -1.000000e+000  0.000000e+000
    outer loop
      vertex -3.468219e+000  0.000000e+000 -7.978813e+000
      vertex -7.071068e+000  0.000000e+000 -7.071068e+000
      vertex -3.826834e+000  0.000000e+000 -9.238795e+000
    endloop
  endfacet
  facet normal  0.000000e+000 -1.000000e+000  -0.000000e+000
    outer loop
      vertex -1.598164e-015  0.000000e+000 -8.700000e+000
      vertex -3.468219e+000  0.000000e+000 -7.978813e+000
      vertex -3.826834e+000  0.000000e+000 -9.238795e+000
    endloop
  endfacet
  facet normal  0.000000e+000 -1.000000e+000  0.000000e+000
    outer loop
      vertex  3.468219e+000  0.000000e+000  7.978813e+000
      vertex  6.361442e+000  0.000000e+000  5.934818e+000
      vertex  7.071068e+000  0.000000e+000  7.071068e+000
    endloop
  endfacet
  facet normal  0.000000e+000 -1.000000e+000  -0.000000e+000
    outer loop
      vertex  7.071068e+000  0.000000e+000  7.071068e+000
      vertex  6.361442e+000  0.000000e+000  5.934818e+000
      vertex  8.200000e+000  0.000000e+000  2.906888e+000
    endloop
  endfacet
  facet normal  0.000000e+000 -1.000000e+000  0.000000e+000
    outer loop
      vertex  7.071068e+000  0.000000e+000  7.071068e+000
      vertex  8.200000e+000  0.000000e+000  2.906888e+000
      vertex  9.238795e+000  0.000000e+000  3.826834e+000
    endloop
  endfacet
  facet normal  0.000000e+000 -9.999999e-001  0.000000e+000
    outer loop
      vertex  9.238795e+000  0.000000e+000  3.826834e+000
      vertex  8.200000e+000  0.000000e+000  2.906888e+000
      vertex  8.200000e+000  0.000000e+000 -2.906888e+000
    endloop
  endfacet
  facet normal  0.000000e+000 -1.000000e+000  0.000000e+000
    outer loop
      vertex  9.238795e+000  0.000000e+000  3.826834e+000
      vertex  8.200000e+000  0.000000e+000 -2.906888e+000
      vertex  1.000000e+001  0.000000e+000  1.224647e-015
    endloop
  endfacet
  facet normal  0.000000e+000 -9.999999e-001  0.000000e+000
    outer loop
      vertex -3.826834e+000  0.000000e+000 -9.238795e+000
      vertex  1.836970e-015  0.000000e+000 -1.000000e+001
      vertex -1.598164e-015  0.000000e+000 -8.700000e+000
    endloop
  endfacet
  facet normal  0.000000e+000 -9.999999e-001  0.000000e+000
    outer loop
      vertex -1.598164e-015  0.000000e+000 -8.700000e+000
      vertex  1.836970e-015  0.000000e+000 -1.000000e+001
      vertex  3.826834e+000  0.000000e+000 -9.238795e+000
    endloop
  endfacet
  facet normal  0.000000e+000 -1.000000e+000  0.000000e+000
    outer loop
      vertex -1.598164e-015  0.000000e+000 -8.700000e+000
      vertex  3.826834e+000  0.000000e+000 -9.238795e+000
      vertex  3.468219e+000  0.000000e+000 -7.978813e+000
    endloop
  endfacet
  facet normal  0.000000e+000 -1.000000e+000  0.000000e+000
    outer loop
      vertex  3.468219e+000  0.000000e+000 -7.978813e+000
      vertex  3.826834e+000  0.000000e+000 -9.238795e+000
      vertex  7.071068e+000  0.000000e+000 -7.071068e+000
    endloop
  endfacet
  facet normal  -0.000000e+000 -1.000000e+000  0.000000e+000
    outer loop
      vertex  3.468219e+000  0.000000e+000 -7.978813e+000
      vertex  7.071068e+000  0.000000e+000 -7.071068e+000
      vertex  6.361442e+000  0.000000e+000 -5.934818e+000
    endloop
  endfacet
  facet normal  0.000000e+000 -9.999999e-001  0.000000e+000
    outer loop
      vertex  6.361442e+000  0.000000e+000 -5.934818e+000
      vertex  7.071068e+000  0.000000e+000 -7.071068e+000
      vertex  9.238795e+000  0.000000e+000 -3.826834e+000
    endloop
  endfacet
  facet normal  -0.000000e+000 -1.000000e+000  0.000000e+000
    outer loop
      vertex  6.361442e+000  0.000000e+000 -5.934818e+000
      vertex  9.238795e+000  0.000000e+000 -3.826834e+000
      vertex  8.200000e+000  0.000000e+000 -2.906888e+000
    endloop
  endfacet
  facet normal  -0.000000e+000 -1.000000e+000  0.000000e+000
    outer loop
      vertex -9.238795e+000  0.000000e+000 -3.826834e+000
      vertex -8.200000e+000  0.000000e+000 -2.906888e+000
      vertex -1.000000e+001  0.000000e+000  0.000000e+000
    endloop
  endfacet
  facet normal  0.000000e+000 -1.000000e+000  0.000000e+000
    outer loop
      vertex -1.000000e+001  0.000000e+000  0.000000e+000
      vertex -8.200000e+000  0.000000e+000 -2.906888e+000
      vertex -8.200000e+000  0.000000e+000  2.906888e+000
    endloop
  endfacet
  facet normal  -0.000000e+000 -1.000000e+000  0.000000e+000
    outer loop
      vertex -1.000000e+001  0.000000e+000  0.000000e+000
      vertex -8.200000e+000  0.000000e+000  2.906888e+000
      vertex -9.238795e+000  0.000000e+000  3.826834e+000
    endloop
  endfacet
  facet normal  0.000000e+000 -1.000000e+000  0.000000e+000
    outer loop
      vertex -9.238795e+000  0.000000e+000  3.826834e+000
      vertex -8.200000e+000  0.000000e+000  2.906888e+000
      vertex -6.361442e+000  0.000000e+000  5.934818e+000
    endloop
  endfacet
  facet normal  -0.000000e+000 -9.999999e-001  0.000000e+000
    outer loop
      vertex -9.238795e+000  0.000000e+000  3.826834e+000
      vertex -6.361442e+000  0.000000e+000  5.934818e+000
      vertex -7.071068e+000  0.000000e+000  7.071068e+000
    endloop
  endfacet
  facet normal  0.000000e+000 -1.000000e+000  0.000000e+000
    outer loop
      vertex -7.071068e+000  0.000000e+000  7.071068e+000
      vertex -6.361442e+000  0.000000e+000  5.934818e+000
      vertex -3.468219e+000  0.000000e+000  7.978813e+000
    endloop
  endfacet
  facet normal  -0.000000e+000 -1.000000e+000  0.000000e+000
    outer loop
      vertex -7.071068e+000  0.000000e+000  7.071068e+000
      vertex -3.468219e+000  0.000000e+000  7.978813e+000
      vertex -3.826834e+000  0.000000e+000  9.238795e+000
    endloop
  endfacet
  facet normal  0.000000e+000 -1.000000e+000  0.000000e+000
    outer loop
      vertex -3.826834e+000  0.000000e+000  9.238795e+000
      vertex -3.468219e+000  0.000000e+000  7.978813e+000
      vertex  2.464509e-015  0.000000e+000  8.700000e+000
    endloop
  endfacet
  facet normal  0.000000e+000 -9.999999e-001  0.000000e+000
    outer loop
      vertex -3.826834e+000  0.000000e+000  9.238795e+000
      vertex  2.464509e-015  0.000000e+000  8.700000e+000
      vertex -6.123234e-016  0.000000e+000  1.000000e+001
    endloop
  endfacet
  facet normal  0.000000e+000 -1.000000e+000  -0.000000e+000
    outer loop
      vertex -3.468219e+000  0.000000e+000 -7.978813e+000
      vertex -6.361442e+000  0.000000e+000 -5.934818e+000
      vertex -7.071068e+000  0.000000e+000 -7.071068e+000
    endloop
  endfacet
  facet normal  0.000000e+000 -1.000000e+000  0.000000e+000
    outer loop
      vertex -7.071068e+000  0.000000e+000 -7.071068e+000
      vertex -6.361442e+000  0.000000e+000 -5.934818e+000
      vertex -8.200000e+000  0.000000e+000 -2.906888e+000
    endloop
  endfacet
  facet normal  0.000000e+000 -1.000000e+000  -0.000000e+000
    outer loop
      vertex -7.071068e+000  0.000000e+000 -7.071068e+000
      vertex -8.200000e+000  0.000000e+000 -2.906888e+000
      vertex -9.238795e+000  0.000000e+000 -3.826834e+000
    endloop
  endfacet
  facet normal  1.000000e+000  -0.000000e+000  0.000000e+000
    outer loop
      vertex -8.200000e+000  2.000000e+000  2.906888e+000
      vertex -8.200000e+000  0.000000e+000  2.906888e+000
      vertex -8.200000e+000  2.000000e+000 -2.906888e+000
    endloop
  endfacet
  facet normal  1.000000e+000  0.000000e+000  0.000000e+000
    outer loop
      vertex -8.200000e+000  2.000000e+000 -2.906888e+000
      vertex -8.200000e+000  0.000000e+000  2.906888e+000
      vertex -8.200000e+000  0.000000e+000 -2.906888e+000
    endloop
  endfacet
  facet normal  2.035866e-001  0.000000e+000 -9.790570e-001
    outer loop
      vertex  5.327214e-016  2.000000e+000  8.700000e+000
      vertex -3.468219e+000  0.000000e+000  7.978813e+000
      vertex -3.468219e+000  2.000000e+000  7.978813e+000
    endloop
  endfacet
  facet normal  5.770074e-001  0.000000e+000 -8.167390e-001
    outer loop
      vertex -3.468219e+000  2.000000e+000  7.978813e+000
      vertex -3.468219e+000  0.000000e+000  7.978813e+000
      vertex -6.361442e+000  0.000000e+000  5.934818e+000
    endloop
  endfacet
  facet normal  5.770074e-001  0.000000e+000 -8.167390e-001
    outer loop
      vertex -3.468219e+000  2.000000e+000  7.978813e+000
      vertex -6.361442e+000  0.000000e+000  5.934818e+000
      vertex -6.361442e+000  2.000000e+000  5.934818e+000
    endloop
  endfacet
  facet normal  8.547660e-001  0.000000e+000 -5.190138e-001
    outer loop
      vertex -6.361442e+000  2.000000e+000  5.934818e+000
      vertex -6.361442e+000  0.000000e+000  5.934818e+000
      vertex -8.200000e+000  0.000000e+000  2.906888e+000
    endloop
  endfacet
  facet normal  8.547660e-001  0.000000e+000 -5.190138e-001
    outer loop
      vertex -6.361442e+000  2.000000e+000  5.934818e+000
      vertex -8.200000e+000  0.000000e+000  2.906888e+000
      vertex -8.200000e+000  2.000000e+000  2.906888e+000
    endloop
  endfacet
  facet normal  2.035866e-001  1.966431e-016 -9.790570e-001
    outer loop
      vertex -3.468219e+000  0.000000e+000  7.978813e+000
      vertex  5.327214e-016  2.000000e+000  8.700000e+000
      vertex  2.464509e-015  0.000000e+000  8.700000e+000
    endloop
  endfacet
  facet normal -2.035866e-001 -1.966431e-016 -9.790570e-001
    outer loop
      vertex  2.464509e-015  0.000000e+000  8.700000e+000
      vertex  5.327214e-016  2.000000e+000  8.700000e+000
      vertex  3.468219e+000  2.000000e+000  7.978813e+000
    endloop
  endfacet
  facet normal -2.035866e-001  -0.000000e+000 -9.790570e-001
    outer loop
      vertex  2.464509e-015  0.000000e+000  8.700000e+000
      vertex  3.468219e+000  2.000000e+000  7.978813e+000
      vertex  3.468219e+000  0.000000e+000  7.978813e+000
    endloop
  endfacet
  facet normal -5.770074e-001  0.000000e+000 -8.167390e-001
    outer loop
      vertex  3.468219e+000  0.000000e+000  7.978813e+000
      vertex  3.468219e+000  2.000000e+000  7.978813e+000
      vertex  6.361442e+000  2.000000e+000  5.934818e+000
    endloop
  endfacet
  facet normal -5.770074e-001  -0.000000e+000 -8.167390e-001
    outer loop
      vertex  3.468219e+000  0.000000e+000  7.978813e+000
      vertex  6.361442e+000  2.000000e+000  5.934818e+000
      vertex  6.361442e+000  0.000000e+000  5.934818e+000
    endloop
  endfacet
  facet normal -8.547660e-001  0.000000e+000 -5.190138e-001
    outer loop
      vertex  6.361442e+000  0.000000e+000  5.934818e+000
      vertex  6.361442e+000  2.000000e+000  5.934818e+000
      vertex  8.200000e+000  2.000000e+000  2.906888e+000
    endloop
  endfacet
  facet normal -8.547660e-001  -0.000000e+000 -5.190138e-001
    outer loop
      vertex  6.361442e+000  0.000000e+000  5.934818e+000
      vertex  8.200000e+000  2.000000e+000  2.906888e+000
      vertex  8.200000e+000  0.000000e+000  2.906888e+000
    endloop
  endfacet
  facet normal -1.000000e+000  0.000000e+000  0.000000e+000
    outer loop
      vertex  8.200000e+000  2.000000e+000  2.906888e+000
      vertex  8.200000e+000  2.000000e+000 -2.906888e+000
      vertex  8.200000e+000  0.000000e+000  2.906888e+000
    endloop
  endfacet
  facet normal -1.000000e+000  0.000000e+000  0.000000e+000
    outer loop
      vertex  8.200000e+000  0.000000e+000  2.906888e+000
      vertex  8.200000e+000  2.000000e+000 -2.906888e+000
      vertex  8.200000e+000  0.000000e+000 -2.906888e+000
    endloop
  endfacet
  facet normal -2.035866e-001  0.000000e+000  9.790570e-001
    outer loop
      vertex -1.598164e-015  2.000000e+000 -8.700000e+000
      vertex  3.468219e+000  0.000000e+000 -7.978813e+000
      vertex  3.468219e+000  2.000000e+000 -7.978813e+000
    endloop
  endfacet
  facet normal -5.770074e-001  0.000000e+000  8.167390e-001
    outer loop
      vertex  3.468219e+000  2.000000e+000 -7.978813e+000
      vertex  3.468219e+000  0.000000e+000 -7.978813e+000
      vertex  6.361442e+000  0.000000e+000 -5.934818e+000
    endloop
  endfacet
  facet normal -5.770074e-001  0.000000e+000  8.167390e-001
    outer loop
      vertex  3.468219e+000  2.000000e+000 -7.978813e+000
      vertex  6.361442e+000  0.000000e+000 -5.934818e+000
      vertex  6.361442e+000  2.000000e+000 -5.934818e+000
    endloop
  endfacet
  facet normal -8.547660e-001  0.000000e+000  5.190138e-001
    outer loop
      vertex  6.361442e+000  2.000000e+000 -5.934818e+000
      vertex  6.361442e+000  0.000000e+000 -5.934818e+000
      vertex  8.200000e+000  0.000000e+000 -2.906888e+000
    endloop
  endfacet
  facet normal -8.547660e-001  0.000000e+000  5.190138e-001
    outer loop
      vertex  6.361442e+000  2.000000e+000 -5.934818e+000
      vertex  8.200000e+000  0.000000e+000 -2.906888e+000
      vertex  8.200000e+000  2.000000e+000 -2.906888e+000
    endloop
  endfacet
  facet normal -2.035866e-001  0.000000e+000  9.790570e-001
    outer loop
      vertex  3.468219e+000  0.000000e+000 -7.978813e+000
      vertex -1.598164e-015  2.000000e+000 -8.700000e+000
      vertex -1.598164e-015  0.000000e+000 -8.700000e+000
    endloop
  endfacet
  facet normal  2.035866e-001  -0.000000e+000  9.790570e-001
    outer loop
      vertex -1.598164e-015  0.000000e+000 -8.700000e+000
      vertex -1.598164e-015  2.000000e+000 -8.700000e+000
      vertex -3.468219e+000  2.000000e+000 -7.978813e+000
    endloop
  endfacet
  facet normal  2.035866e-001  0.000000e+000  9.790570e-001
    outer loop
      vertex -1.598164e-015  0.000000e+000 -8.700000e+000
      vertex -3.468219e+000  2.000000e+000 -7.978813e+000
      vertex -3.468219e+000  0.000000e+000 -7.978813e+000
    endloop
  endfacet
  facet normal  5.770074e-001  -0.000000e+000  8.167390e-001
    outer loop
      vertex -3.468219e+000  0.000000e+000 -7.978813e+000
      vertex -3.468219e+000  2.000000e+000 -7.978813e+000
      vertex -6.361442e+000  2.000000e+000 -5.934818e+000
    endloop
  endfacet
  facet normal  5.770074e-001  0.000000e+000  8.167390e-001
    outer loop
      vertex -3.468219e+000  0.000000e+000 -7.978813e+000
      vertex -6.361442e+000  2.000000e+000 -5.934818e+000
      vertex -6.361442e+000  0.000000e+000 -5.934818e+000
    endloop
  endfacet
  facet normal  8.547660e-001  -0.000000e+000  5.190138e-001
    outer loop
      vertex -6.361442e+000  0.000000e+000 -5.934818e+000
      vertex -6.361442e+000  2.000000e+000 -5.934818e+000
      vertex -8.200000e+000  2.000000e+000 -2.906888e+000
    endloop
  endfacet
  facet normal  8.547660e-001  0.000000e+000  5.190138e-001
    outer loop
      vertex -6.361442e+000  0.000000e+000 -5.934818e+000
      vertex -8.200000e+000  2.000000e+000 -2.906888e+000
      vertex -8.200000e+000  0.000000e+000 -2.906888e+000
    endloop
  endfacet
  facet normal  0.000000e+000 -1.000000e+000  0.000000e+000
    outer loop
      vertex -3.468219e+000  2.000000e+000  7.978813e+000
      vertex  3.468219e+000  2.000000e+000  7.978813e+000
      vertex  5.327214e-016  2.000000e+000  8.700000e+000
    endloop
  endfacet
  facet normal  0.000000e+000 -1.000000e+000  0.000000e+000
    outer loop
      vertex  3.468219e+000  2.000000e+000  7.978813e+000
      vertex -3.468219e+000  2.000000e+000  7.978813e+000
      vertex  6.361442e+000  2.000000e+000  5.934818e+000
    endloop
  endfacet
  facet normal  0.000000e+000 -9.999999e-001  0.000000e+000
    outer loop
      vertex  6.361442e+000  2.000000e+000  5.934818e+000
      vertex -3.468219e+000  2.000000e+000  7.978813e+000
      vertex -6.361442e+000  2.000000e+000  5.934818e+000
    endloop
  endfacet
  facet normal  0.000000e+000 -1.000000e+000  0.000000e+000
    outer loop
      vertex  6.361442e+000  2.000000e+000  5.934818e+000
      vertex -6.361442e+000  2.000000e+000  5.934818e+000
      vertex  8.200000e+000  2.000000e+000  2.906888e+000
    endloop
  endfacet
  facet normal  0.000000e+000 -9.999999e-001  0.000000e+000
    outer loop
      vertex  8.200000e+000  2.000000e+000  2.906888e+000
      vertex -6.361442e+000  2.000000e+000  5.934818e+000
      vertex -8.200000e+000  2.000000e+000  2.906888e+000
    endloop
  endfacet
  facet normal  0.000000e+000 -1.000000e+000  0.000000e+000
    outer loop
      vertex  8.200000e+000  2.000000e+000  2.906888e+000
      vertex -8.200000e+000  2.000000e+000  2.906888e+000
      vertex  8.200000e+000  2.000000e+000 -2.906888e+000
    endloop
  endfacet
  facet normal  0.000000e+000 -1.000000e+000  0.000000e+000
    outer loop
      vertex  8.200000e+000  2.000000e+000 -2.906888e+000
      vertex -8.200000e+000  2.000000e+000  2.906888e+000
      vertex -8.200000e+000  2.000000e+000 -2.906888e+000
    endloop
  endfacet
  facet normal  0.000000e+000 -9.999999e-001  0.000000e+000
    outer loop
      vertex  8.200000e+000  2.000000e+000 -2.906888e+000
      vertex -8.200000e+000  2.000000e+000 -2.906888e+000
      vertex  6.361442e+000  2.000000e+000 -5.934818e+000
    endloop
  endfacet
  facet normal  0.000000e+000 -1.000000e+000  0.000000e+000
    outer loop
      vertex  6.361442e+000  2.000000e+000 -5.934818e+000
      vertex -8.200000e+000  2.000000e+000 -2.906888e+000
      vertex -6.361442e+000  2.000000e+000 -5.934818e+000
    endloop
  endfacet
  facet normal  0.000000e+000 -9.999999e-001  0.000000e+000
    outer loop
      vertex  6.361442e+000  2.000000e+000 -5.934818e+000
      vertex -6.361442e+000  2.000000e+000 -5.934818e+000
      vertex  3.468219e+000  2.000000e+000 -7.978813e+000
    endloop
  endfacet
  facet normal  0.000000e+000 -1.000000e+000  0.000000e+000
    outer loop
      vertex  3.468219e+000  2.000000e+000 -7.978813e+000
      vertex -6.361442e+000  2.000000e+000 -5.934818e+000
      vertex -3.468219e+000  2.000000e+000 -7.978813e+000
    endloop
  endfacet
  facet normal  0.000000e+000 -1.000000e+000  0.000000e+000
    outer loop
      vertex  3.468219e+000  2.000000e+000 -7.978813e+000
      vertex -3.468219e+000  2.000000e+000 -7.978813e+000
      vertex -1.598164e-015  2.000000e+000 -8.700000e+000
    endloop
  endfacet
  facet normal -9.807853e-001  -0.000000e+000 -1.950903e-001
    outer loop
      vertex -1.000000e+001  0.000000e+000  0.000000e+000
      vertex -1.000000e+001  3.000000e+000  0.000000e+000
      vertex -9.238795e+000  0.000000e+000 -3.826834e+000
    endloop
  endfacet
  facet normal -9.807853e-001  0.000000e+000 -1.950903e-001
    outer loop
      vertex -9.238795e+000  0.000000e+000 -3.826834e+000
      vertex -1.000000e+001  3.000000e+000  0.000000e+000
      vertex -9.238795e+000  3.000000e+000 -3.826834e+000
    endloop
  endfacet
  facet normal -8.314695e-001  -0.000000e+000 -5.555702e-001
    outer loop
      vertex -9.238795e+000  0.000000e+000 -3.826834e+000
      vertex -9.238795e+000  3.000000e+000 -3.826834e+000
      vertex -7.071068e+000  0.000000e+000 -7.071068e+000
    endloop
  endfacet
  facet normal -8.314695e-001  0.000000e+000 -5.555702e-001
    outer loop
      vertex -7.071068e+000  0.000000e+000 -7.071068e+000
      vertex -9.238795e+000  3.000000e+000 -3.826834e+000
      vertex -7.071068e+000  3.000000e+000 -7.071068e+000
    endloop
  endfacet
  facet normal -5.555702e-001  -0.000000e+000 -8.314695e-001
    outer loop
      vertex -7.071068e+000  0.000000e+000 -7.071068e+000
      vertex -7.071068e+000  3.000000e+000 -7.071068e+000
      vertex -3.826834e+000  0.000000e+000 -9.238795e+000
    endloop
  endfacet
  facet normal -5.555702e-001  0.000000e+000 -8.314695e-001
    outer loop
      vertex -3.826834e+000  0.000000e+000 -9.238795e+000
      vertex -7.071068e+000  3.000000e+000 -7.071068e+000
      vertex -3.826834e+000  3.000000e+000 -9.238795e+000
    endloop
  endfacet
  facet normal -1.950903e-001  -0.000000e+000 -9.807853e-001
    outer loop
      vertex -3.826834e+000  0.000000e+000 -9.238795e+000
      vertex -3.826834e+000  3.000000e+000 -9.238795e+000
      vertex  1.836970e-015  0.000000e+000 -1.000000e+001
    endloop
  endfacet
  facet normal -1.950903e-001  0.000000e+000 -9.807853e-001
    outer loop
      vertex  1.836970e-015  0.000000e+000 -1.000000e+001
      vertex -3.826834e+000  3.000000e+000 -9.238795e+000
      vertex  1.836970e-015  3.000000e+000 -1.000000e+001
    endloop
  endfacet
  facet normal  1.950903e-001  0.000000e+000 -9.807853e-001
    outer loop
      vertex  1.836970e-015  0.000000e+000 -1.000000e+001
      vertex  1.836970e-015  3.000000e+000 -1.000000e+001
      vertex  3.826834e+000  0.000000e+000 -9.238795e+000
    endloop
  endfacet
  facet normal  1.950903e-001  0.000000e+000 -9.807853e-001
    outer loop
      vertex  3.826834e+000  0.000000e+000 -9.238795e+000
      vertex  1.836970e-015  3.000000e+000 -1.000000e+001
      vertex  3.826834e+000  3.000000e+000 -9.238795e+000
    endloop
  endfacet
  facet normal  5.555702e-001  0.000000e+000 -8.314695e-001
    outer loop
      vertex  3.826834e+000  0.000000e+000 -9.238795e+000
      vertex  3.826834e+000  3.000000e+000 -9.238795e+000
      vertex  7.071068e+000  0.000000e+000 -7.071068e+000
    endloop
  endfacet
  facet normal  5.555702e-001  0.000000e+000 -8.314695e-001
    outer loop
      vertex  7.071068e+000  0.000000e+000 -7.071068e+000
      vertex  3.826834e+000  3.000000e+000 -9.238795e+000
      vertex  7.071068e+000  3.000000e+000 -7.071068e+000
    endloop
  endfacet
  facet normal  8.314695e-001  0.000000e+000 -5.555702e-001
    outer loop
      vertex  7.071068e+000  0.000000e+000 -7.071068e+000
      vertex  7.071068e+000  3.000000e+000 -7.071068e+000
      vertex  9.238795e+000  0.000000e+000 -3.826834e+000
    endloop
  endfacet
  facet normal  8.314695e-001  0.000000e+000 -5.555702e-001
    outer loop
      vertex  9.238795e+000  0.000000e+000 -3.826834e+000
      vertex  7.071068e+000  3.000000e+000 -7.071068e+000
      vertex  9.238795e+000  3.000000e+000 -3.826834e+000
    endloop
  endfacet
  facet normal  9.807853e-001  0.000000e+000 -1.950903e-001
    outer loop
      vertex  9.238795e+000  0.000000e+000 -3.826834e+000
      vertex  9.238795e+000  3.000000e+000 -3.826834e+000
      vertex  1.000000e+001  0.000000e+000  1.224647e-015
    endloop
  endfacet
  facet normal  9.807853e-001  0.000000e+000 -1.950903e-001
    outer loop
      vertex  1.000000e+001  0.000000e+000  1.224647e-015
      vertex  9.238795e+000  3.000000e+000 -3.826834e+000
      vertex  1.000000e+001  3.000000e+000  1.224647e-015
    endloop
  endfacet
  facet normal  9.807853e-001  0.000000e+000  1.950903e-001
    outer loop
      vertex  1.000000e+001  0.000000e+000  1.224647e-015
      vertex  1.000000e+001  3.000000e+000  1.224647e-015
      vertex  9.238795e+000  0.000000e+000  3.826834e+000
    endloop
  endfacet
  facet normal  9.807853e-001  -0.000000e+000  1.950903e-001
    outer loop
      vertex  9.238795e+000  0.000000e+000  3.826834e+000
      vertex  1.000000e+001  3.000000e+000  1.224647e-015
      vertex  9.238795e+000  3.000000e+000  3.826834e+000
    endloop
  endfacet
  facet normal  8.314695e-001  0.000000e+000  5.555702e-001
    outer loop
      vertex  9.238795e+000  0.000000e+000  3.826834e+000
      vertex  9.238795e+000  3.000000e+000  3.826834e+000
      vertex  7.071068e+000  0.000000e+000  7.071068e+000
    endloop
  endfacet
  facet normal  8.314695e-001  -0.000000e+000  5.555702e-001
    outer loop
      vertex  7.071068e+000  0.000000e+000  7.071068e+000
      vertex  9.238795e+000  3.000000e+000  3.826834e+000
      vertex  7.071068e+000  3.000000e+000  7.071068e+000
    endloop
  endfacet
  facet normal  5.555702e-001  0.000000e+000  8.314695e-001
    outer loop
      vertex  7.071068e+000  0.000000e+000  7.071068e+000
      vertex  7.071068e+000  3.000000e+000  7.071068e+000
      vertex  3.826834e+000  0.000000e+000  9.238795e+000
    endloop
  endfacet
  facet normal  5.555702e-001  -0.000000e+000  8.314695e-001
    outer loop
      vertex  3.826834e+000  0.000000e+000  9.238795e+000
      vertex  7.071068e+000  3.000000e+000  7.071068e+000
      vertex  3.826834e+000  3.000000e+000  9.238795e+000
    endloop
  endfacet
  facet normal  1.950903e-001  0.000000e+000  9.807853e-001
    outer loop
      vertex  3.826834e+000  0.000000e+000  9.238795e+000
      vertex  3.826834e+000  3.000000e+000  9.238795e+000
      vertex -6.123234e-016  0.000000e+000  1.000000e+001
    endloop
  endfacet
  facet normal  1.950903e-001  -0.000000e+000  9.807853e-001
    outer loop
      vertex -6.123234e-016  0.000000e+000  1.000000e+001
      vertex  3.826834e+000  3.000000e+000  9.238795e+000
      vertex -6.123234e-016  3.000000e+000  1.000000e+001
    endloop
  endfacet
  facet normal -1.950903e-001  0.000000e+000  9.807853e-001
    outer loop
      vertex -6.123234e-016  0.000000e+000  1.000000e+001
      vertex -6.123234e-016  3.000000e+000  1.000000e+001
      vertex -3.826834e+000  0.000000e+000  9.238795e+000
    endloop
  endfacet
  facet normal -1.950903e-001  0.000000e+000  9.807853e-001
    outer loop
      vertex -3.826834e+000  0.000000e+000  9.238795e+000
      vertex -6.123234e-016  3.000000e+000  1.000000e+001
      vertex -3.826834e+000  3.000000e+000  9.238795e+000
    endloop
  endfacet
  facet normal -5.555702e-001  0.000000e+000  8.314695e-001
    outer loop
      vertex -3.826834e+000  0.000000e+000  9.238795e+000
      vertex -3.826834e+000  3.000000e+000  9.238795e+000
      vertex -7.071068e+000  0.000000e+000  7.071068e+000
    endloop
  endfacet
  facet normal -5.555702e-001  0.000000e+000  8.314695e-001
    outer loop
      vertex -7.071068e+000  0.000000e+000  7.071068e+000
      vertex -3.826834e+000  3.000000e+000  9.238795e+000
      vertex -7.071068e+000  3.000000e+000  7.071068e+000
    endloop
  endfacet
  facet normal -8.314695e-001  0.000000e+000  5.555702e-001
    outer loop
      vertex -7.071068e+000  0.000000e+000  7.071068e+000
      vertex -7.071068e+000  3.000000e+000  7.071068e+000
      vertex -9.238795e+000  0.000000e+000  3.826834e+000
    endloop
  endfacet
  facet normal -8.314695e-001  0.000000e+000  5.555702e-001
    outer loop
      vertex -9.238795e+000  0.000000e+000  3.826834e+000
      vertex -7.071068e+000  3.000000e+000  7.071068e+000
      vertex -9.238795e+000  3.000000e+000  3.826834e+000
    endloop
  endfacet
  facet normal -9.807853e-001  0.000000e+000  1.950903e-001
    outer loop
      vertex -9.238795e+000  0.000000e+000  3.826834e+000
      vertex -9.238795e+000  3.000000e+000  3.826834e+000
      vertex -1.000000e+001  0.000000e+000  0.000000e+000
    endloop
  endfacet
  facet normal -9.807853e-001  0.000000e+000  1.950903e-001
    outer loop
      vertex -1.000000e+001  0.000000e+000  0.000000e+000
      vertex -9.238795e+000  3.000000e+000  3.826834e+000
      vertex -1.000000e+001  3.000000e+000  0.000000e+000
    endloop
  endfacet
endsolid CATIA STL
