solid CATIA STL
  facet normal  0.000000e+000 -1.000000e+000  0.000000e+000
    outer loop
      vertex  2.955365e+000  0.000000e+000  6.972684e+000
      vertex  7.503347e+000  0.000000e+000  6.610581e+000
      vertex  2.850470e+000  0.000000e+000  7.769444e+000
    endloop
  endfacet
  facet normal  0.000000e+000 -1.000000e+000  -0.000000e+000
    outer loop
      vertex  1.000000e+001  0.000000e+000  1.224647e-015
      vertex  9.355038e+000  0.000000e+000  3.533166e+000
      vertex  9.425018e-001  0.000000e+000  2.900722e+000
    endloop
  endfacet
  facet normal  0.000000e+000 -1.000000e+000  0.000000e+000
    outer loop
      vertex  1.000000e+001  0.000000e+000  1.224647e-015
      vertex  9.425018e-001  0.000000e+000  2.900722e+000
      vertex  2.467502e+000  0.000000e+000  1.792745e+000
    endloop
  endfacet
  facet normal  0.000000e+000 -1.000000e+000  0.000000e+000
    outer loop
      vertex  1.000000e+001  0.000000e+000  1.224647e-015
      vertex  2.467502e+000  0.000000e+000  1.792745e+000
      vertex  3.050000e+000  0.000000e+000  3.735173e-016
    endloop
  endfacet
  facet normal  0.000000e+000 -1.000000e+000  0.000000e+000
    outer loop
      vertex -9.682458e+000  0.000000e+000  2.500000e+000
      vertex -3.000000e+001  0.000000e+000  2.500000e+000
      vertex -3.000000e+001  0.000000e+000 -2.500000e+000
    endloop
  endfacet
  facet normal  0.000000e+000 -1.000000e+000  0.000000e+000
    outer loop
      vertex -9.682458e+000  0.000000e+000  2.500000e+000
      vertex -3.000000e+001  0.000000e+000 -2.500000e+000
      vertex -2.467502e+000  0.000000e+000  1.792745e+000
    endloop
  endfacet
  facet normal  0.000000e+000 -1.000000e+000  0.000000e+000
    outer loop
      vertex -9.682458e+000  0.000000e+000  2.500000e+000
      vertex -2.467502e+000  0.000000e+000  1.792745e+000
      vertex -9.425018e-001  0.000000e+000  2.900722e+000
    endloop
  endfacet
  facet normal  -0.000000e+000 -1.000000e+000  0.000000e+000
    outer loop
      vertex -9.682458e+000  0.000000e+000  2.500000e+000
      vertex -9.425018e-001  0.000000e+000  2.900722e+000
      vertex -8.174685e+000  0.000000e+000  5.759733e+000
    endloop
  endfacet
  facet normal  0.000000e+000 -9.999999e-001  0.000000e+000
    outer loop
      vertex -3.000000e+001  0.000000e+000 -2.500000e+000
      vertex -9.682458e+000  0.000000e+000 -2.500000e+000
      vertex -2.467502e+000  0.000000e+000 -1.792745e+000
    endloop
  endfacet
  facet normal  -0.000000e+000 -1.000000e+000  0.000000e+000
    outer loop
      vertex -3.000000e+001  0.000000e+000 -2.500000e+000
      vertex -2.467502e+000  0.000000e+000 -1.792745e+000
      vertex -3.050000e+000  0.000000e+000  0.000000e+000
    endloop
  endfacet
  facet normal  -0.000000e+000 -1.000000e+000  0.000000e+000
    outer loop
      vertex -3.000000e+001  0.000000e+000 -2.500000e+000
      vertex -3.050000e+000  0.000000e+000  0.000000e+000
      vertex -2.467502e+000  0.000000e+000  1.792745e+000
    endloop
  endfacet
  facet normal  0.000000e+000 -1.000000e+000  0.000000e+000
    outer loop
      vertex  9.355038e+000  0.000000e+000 -3.533166e+000
      vertex  1.000000e+001  0.000000e+000  1.224647e-015
      vertex  3.050000e+000  0.000000e+000  3.735173e-016
    endloop
  endfacet
  facet normal  0.000000e+000 -1.000000e+000  -0.000000e+000
    outer loop
      vertex  9.355038e+000  0.000000e+000 -3.533166e+000
      vertex  3.050000e+000  0.000000e+000  3.735173e-016
      vertex  2.467502e+000  0.000000e+000 -1.792745e+000
    endloop
  endfacet
  facet normal  0.000000e+000 -9.999999e-001  -0.000000e+000
    outer loop
      vertex  9.355038e+000  0.000000e+000 -3.533166e+000
      vertex  2.467502e+000  0.000000e+000 -1.792745e+000
      vertex  9.425018e-001  0.000000e+000 -2.900722e+000
    endloop
  endfacet
  facet normal  0.000000e+000 -1.000000e+000  0.000000e+000
    outer loop
      vertex -8.174685e+000  0.000000e+000  5.759733e+000
      vertex -9.425018e-001  0.000000e+000  2.900722e+000
      vertex -1.669383e+000  0.000000e+000  6.230222e+000
    endloop
  endfacet
  facet normal  -0.000000e+000 -1.000000e+000  0.000000e+000
    outer loop
      vertex -8.174685e+000  0.000000e+000  5.759733e+000
      vertex -1.669383e+000  0.000000e+000  6.230222e+000
      vertex -2.466143e+000  0.000000e+000  6.335117e+000
    endloop
  endfacet
  facet normal  -0.000000e+000 -1.000000e+000  0.000000e+000
    outer loop
      vertex -8.174685e+000  0.000000e+000  5.759733e+000
      vertex -2.466143e+000  0.000000e+000  6.335117e+000
      vertex -2.955365e+000  0.000000e+000  6.972684e+000
    endloop
  endfacet
  facet normal  -0.000000e+000 -1.000000e+000  0.000000e+000
    outer loop
      vertex -8.174685e+000  0.000000e+000  5.759733e+000
      vertex -2.955365e+000  0.000000e+000  6.972684e+000
      vertex -2.850470e+000  0.000000e+000  7.769444e+000
    endloop
  endfacet
  facet normal  -0.000000e+000 -1.000000e+000  0.000000e+000
    outer loop
      vertex -8.174685e+000  0.000000e+000  5.759733e+000
      vertex -2.850470e+000  0.000000e+000  7.769444e+000
      vertex -2.212903e+000  0.000000e+000  8.258666e+000
    endloop
  endfacet
  facet normal  -0.000000e+000 -1.000000e+000  0.000000e+000
    outer loop
      vertex -8.174685e+000  0.000000e+000  5.759733e+000
      vertex -2.212903e+000  0.000000e+000  8.258666e+000
      vertex -5.612439e+000  0.000000e+000  8.276505e+000
    endloop
  endfacet
  facet normal  -0.000000e+000 -1.000000e+000  0.000000e+000
    outer loop
      vertex -8.174685e+000  0.000000e+000 -5.759733e+000
      vertex -9.425018e-001  0.000000e+000 -2.900722e+000
      vertex -9.682458e+000  0.000000e+000 -2.500000e+000
    endloop
  endfacet
  facet normal  0.000000e+000 -1.000000e+000  0.000000e+000
    outer loop
      vertex -9.682458e+000  0.000000e+000 -2.500000e+000
      vertex -9.425018e-001  0.000000e+000 -2.900722e+000
      vertex -2.467502e+000  0.000000e+000 -1.792745e+000
    endloop
  endfacet
  facet normal  0.000000e+000 -1.000000e+000  0.000000e+000
    outer loop
      vertex  7.503347e+000  0.000000e+000 -6.610581e+000
      vertex  9.355038e+000  0.000000e+000 -3.533166e+000
      vertex  4.683781e+000  0.000000e+000 -8.835281e+000
    endloop
  endfacet
  facet normal  0.000000e+000 -1.000000e+000  0.000000e+000
    outer loop
      vertex  4.683781e+000  0.000000e+000 -8.835281e+000
      vertex  9.355038e+000  0.000000e+000 -3.533166e+000
      vertex  9.425018e-001  0.000000e+000 -2.900722e+000
    endloop
  endfacet
  facet normal  0.000000e+000 -1.000000e+000  0.000000e+000
    outer loop
      vertex  4.683781e+000  0.000000e+000 -8.835281e+000
      vertex  9.425018e-001  0.000000e+000 -2.900722e+000
      vertex  1.260043e+000  0.000000e+000 -9.920297e+000
    endloop
  endfacet
  facet normal  0.000000e+000 -1.000000e+000  0.000000e+000
    outer loop
      vertex  1.260043e+000  0.000000e+000 -9.920297e+000
      vertex  9.425018e-001  0.000000e+000 -2.900722e+000
      vertex -9.425018e-001  0.000000e+000 -2.900722e+000
    endloop
  endfacet
  facet normal  0.000000e+000 -1.000000e+000  -0.000000e+000
    outer loop
      vertex  1.260043e+000  0.000000e+000 -9.920297e+000
      vertex -9.425018e-001  0.000000e+000 -2.900722e+000
      vertex -2.326231e+000  0.000000e+000 -9.725670e+000
    endloop
  endfacet
  facet normal  0.000000e+000 -9.999999e-001  0.000000e+000
    outer loop
      vertex -2.326231e+000  0.000000e+000 -9.725670e+000
      vertex -9.425018e-001  0.000000e+000 -2.900722e+000
      vertex -8.174685e+000  0.000000e+000 -5.759733e+000
    endloop
  endfacet
  facet normal  0.000000e+000 -1.000000e+000  0.000000e+000
    outer loop
      vertex -2.326231e+000  0.000000e+000 -9.725670e+000
      vertex -8.174685e+000  0.000000e+000 -5.759733e+000
      vertex -5.612439e+000  0.000000e+000 -8.276505e+000
    endloop
  endfacet
  facet normal  0.000000e+000 -1.000000e+000  0.000000e+000
    outer loop
      vertex  2.955365e+000  0.000000e+000  6.972684e+000
      vertex  2.466143e+000  0.000000e+000  6.335117e+000
      vertex  7.503347e+000  0.000000e+000  6.610581e+000
    endloop
  endfacet
  facet normal  0.000000e+000 -1.000000e+000  0.000000e+000
    outer loop
      vertex  7.503347e+000  0.000000e+000  6.610581e+000
      vertex  2.466143e+000  0.000000e+000  6.335117e+000
      vertex  1.669383e+000  0.000000e+000  6.230222e+000
    endloop
  endfacet
  facet normal  0.000000e+000 -1.000000e+000  0.000000e+000
    outer loop
      vertex  7.503347e+000  0.000000e+000  6.610581e+000
      vertex  1.669383e+000  0.000000e+000  6.230222e+000
      vertex  9.355038e+000  0.000000e+000  3.533166e+000
    endloop
  endfacet
  facet normal  0.000000e+000 -9.999999e-001  0.000000e+000
    outer loop
      vertex  9.355038e+000  0.000000e+000  3.533166e+000
      vertex  1.669383e+000  0.000000e+000  6.230222e+000
      vertex  1.037239e-015  0.000000e+000  6.450000e+000
    endloop
  endfacet
  facet normal  0.000000e+000 -1.000000e+000  0.000000e+000
    outer loop
      vertex  9.355038e+000  0.000000e+000  3.533166e+000
      vertex  1.037239e-015  0.000000e+000  6.450000e+000
      vertex  9.425018e-001  0.000000e+000  2.900722e+000
    endloop
  endfacet
  facet normal  0.000000e+000 -1.000000e+000  0.000000e+000
    outer loop
      vertex  9.425018e-001  0.000000e+000  2.900722e+000
      vertex  1.037239e-015  0.000000e+000  6.450000e+000
      vertex -1.669383e+000  0.000000e+000  6.230222e+000
    endloop
  endfacet
  facet normal  0.000000e+000 -1.000000e+000  0.000000e+000
    outer loop
      vertex  9.425018e-001  0.000000e+000  2.900722e+000
      vertex -1.669383e+000  0.000000e+000  6.230222e+000
      vertex -9.425018e-001  0.000000e+000  2.900722e+000
    endloop
  endfacet
  facet normal  0.000000e+000 -1.000000e+000  0.000000e+000
    outer loop
      vertex -2.212903e+000  0.000000e+000  8.258666e+000
      vertex  1.374945e-015  0.000000e+000  8.550000e+000
      vertex -5.612439e+000  0.000000e+000  8.276505e+000
    endloop
  endfacet
  facet normal  0.000000e+000 -9.999999e-001  0.000000e+000
    outer loop
      vertex -5.612439e+000  0.000000e+000  8.276505e+000
      vertex  1.374945e-015  0.000000e+000  8.550000e+000
      vertex -2.326231e+000  0.000000e+000  9.725670e+000
    endloop
  endfacet
  facet normal  -0.000000e+000 -1.000000e+000  0.000000e+000
    outer loop
      vertex  1.374945e-015  0.000000e+000  8.550000e+000
      vertex  4.683781e+000  0.000000e+000  8.835281e+000
      vertex -2.326231e+000  0.000000e+000  9.725670e+000
    endloop
  endfacet
  facet normal  0.000000e+000 -1.000000e+000  0.000000e+000
    outer loop
      vertex -2.326231e+000  0.000000e+000  9.725670e+000
      vertex  4.683781e+000  0.000000e+000  8.835281e+000
      vertex  1.260043e+000  0.000000e+000  9.920297e+000
    endloop
  endfacet
  facet normal  0.000000e+000 -1.000000e+000  0.000000e+000
    outer loop
      vertex  1.374945e-015  0.000000e+000  8.550000e+000
      vertex  2.212903e+000  0.000000e+000  8.258666e+000
      vertex  4.683781e+000  0.000000e+000  8.835281e+000
    endloop
  endfacet
  facet normal  0.000000e+000 -1.000000e+000  0.000000e+000
    outer loop
      vertex  4.683781e+000  0.000000e+000  8.835281e+000
      vertex  2.212903e+000  0.000000e+000  8.258666e+000
      vertex  2.850470e+000  0.000000e+000  7.769444e+000
    endloop
  endfacet
  facet normal  0.000000e+000 -9.999999e-001  0.000000e+000
    outer loop
      vertex  4.683781e+000  0.000000e+000  8.835281e+000
      vertex  2.850470e+000  0.000000e+000  7.769444e+000
      vertex  7.503347e+000  0.000000e+000  6.610581e+000
    endloop
  endfacet
  facet normal  0.000000e+000  1.000000e+000  0.000000e+000
    outer loop
      vertex  2.850470e+000  3.000000e+000  7.769444e+000
      vertex  7.503347e+000  3.000000e+000  6.610581e+000
      vertex  2.955365e+000  3.000000e+000  6.972684e+000
    endloop
  endfacet
  facet normal  0.000000e+000  1.000000e+000  -0.000000e+000
    outer loop
      vertex  1.000000e+001  3.000000e+000  1.224647e-015
      vertex  3.050000e+000  3.000000e+000  3.735173e-016
      vertex  2.467502e+000  3.000000e+000  1.792745e+000
    endloop
  endfacet
  facet normal  -0.000000e+000  1.000000e+000  -0.000000e+000
    outer loop
      vertex  1.000000e+001  3.000000e+000  1.224647e-015
      vertex  2.467502e+000  3.000000e+000  1.792745e+000
      vertex  9.425018e-001  3.000000e+000  2.900722e+000
    endloop
  endfacet
  facet normal  -0.000000e+000  1.000000e+000  0.000000e+000
    outer loop
      vertex  1.000000e+001  3.000000e+000  1.224647e-015
      vertex  9.425018e-001  3.000000e+000  2.900722e+000
      vertex  9.355038e+000  3.000000e+000  3.533166e+000
    endloop
  endfacet
  facet normal  0.000000e+000  1.000000e+000  0.000000e+000
    outer loop
      vertex -9.682458e+000  3.000000e+000  2.500000e+000
      vertex -8.174685e+000  3.000000e+000  5.759733e+000
      vertex -9.425018e-001  3.000000e+000  2.900722e+000
    endloop
  endfacet
  facet normal  0.000000e+000  1.000000e+000  0.000000e+000
    outer loop
      vertex -9.682458e+000  3.000000e+000  2.500000e+000
      vertex -9.425018e-001  3.000000e+000  2.900722e+000
      vertex -2.467502e+000  3.000000e+000  1.792745e+000
    endloop
  endfacet
  facet normal  0.000000e+000  1.000000e+000  0.000000e+000
    outer loop
      vertex -9.682458e+000  3.000000e+000  2.500000e+000
      vertex -2.467502e+000  3.000000e+000  1.792745e+000
      vertex -3.000000e+001  3.000000e+000 -2.500000e+000
    endloop
  endfacet
  facet normal  0.000000e+000  1.000000e+000  0.000000e+000
    outer loop
      vertex -9.682458e+000  3.000000e+000  2.500000e+000
      vertex -3.000000e+001  3.000000e+000 -2.500000e+000
      vertex -3.000000e+001  3.000000e+000  2.500000e+000
    endloop
  endfacet
  facet normal  0.000000e+000  1.000000e+000  0.000000e+000
    outer loop
      vertex -3.000000e+001  3.000000e+000 -2.500000e+000
      vertex -2.467502e+000  3.000000e+000  1.792745e+000
      vertex -3.050000e+000  3.000000e+000  0.000000e+000
    endloop
  endfacet
  facet normal  0.000000e+000  9.999999e-001  0.000000e+000
    outer loop
      vertex -3.000000e+001  3.000000e+000 -2.500000e+000
      vertex -3.050000e+000  3.000000e+000  0.000000e+000
      vertex -2.467502e+000  3.000000e+000 -1.792745e+000
    endloop
  endfacet
  facet normal  0.000000e+000  1.000000e+000  0.000000e+000
    outer loop
      vertex -3.000000e+001  3.000000e+000 -2.500000e+000
      vertex -2.467502e+000  3.000000e+000 -1.792745e+000
      vertex -9.682458e+000  3.000000e+000 -2.500000e+000
    endloop
  endfacet
  facet normal  -0.000000e+000  9.999999e-001  0.000000e+000
    outer loop
      vertex  9.355038e+000  3.000000e+000 -3.533166e+000
      vertex  9.425018e-001  3.000000e+000 -2.900722e+000
      vertex  2.467502e+000  3.000000e+000 -1.792745e+000
    endloop
  endfacet
  facet normal  -0.000000e+000  9.999999e-001  0.000000e+000
    outer loop
      vertex  9.355038e+000  3.000000e+000 -3.533166e+000
      vertex  2.467502e+000  3.000000e+000 -1.792745e+000
      vertex  3.050000e+000  3.000000e+000  3.735173e-016
    endloop
  endfacet
  facet normal  -0.000000e+000  1.000000e+000  0.000000e+000
    outer loop
      vertex  9.355038e+000  3.000000e+000 -3.533166e+000
      vertex  3.050000e+000  3.000000e+000  3.735173e-016
      vertex  1.000000e+001  3.000000e+000  1.224647e-015
    endloop
  endfacet
  facet normal  0.000000e+000  1.000000e+000  0.000000e+000
    outer loop
      vertex -8.174685e+000  3.000000e+000  5.759733e+000
      vertex -5.612439e+000  3.000000e+000  8.276505e+000
      vertex -2.212903e+000  3.000000e+000  8.258666e+000
    endloop
  endfacet
  facet normal  0.000000e+000  1.000000e+000  0.000000e+000
    outer loop
      vertex -8.174685e+000  3.000000e+000  5.759733e+000
      vertex -2.212903e+000  3.000000e+000  8.258666e+000
      vertex -2.850470e+000  3.000000e+000  7.769444e+000
    endloop
  endfacet
  facet normal  0.000000e+000  1.000000e+000  0.000000e+000
    outer loop
      vertex -8.174685e+000  3.000000e+000  5.759733e+000
      vertex -2.850470e+000  3.000000e+000  7.769444e+000
      vertex -2.955365e+000  3.000000e+000  6.972684e+000
    endloop
  endfacet
  facet normal  0.000000e+000  1.000000e+000  0.000000e+000
    outer loop
      vertex -8.174685e+000  3.000000e+000  5.759733e+000
      vertex -2.955365e+000  3.000000e+000  6.972684e+000
      vertex -2.466143e+000  3.000000e+000  6.335117e+000
    endloop
  endfacet
  facet normal  0.000000e+000  1.000000e+000  0.000000e+000
    outer loop
      vertex -8.174685e+000  3.000000e+000  5.759733e+000
      vertex -2.466143e+000  3.000000e+000  6.335117e+000
      vertex -1.669383e+000  3.000000e+000  6.230222e+000
    endloop
  endfacet
  facet normal  0.000000e+000  1.000000e+000  0.000000e+000
    outer loop
      vertex -8.174685e+000  3.000000e+000  5.759733e+000
      vertex -1.669383e+000  3.000000e+000  6.230222e+000
      vertex -9.425018e-001  3.000000e+000  2.900722e+000
    endloop
  endfacet
  facet normal  0.000000e+000  1.000000e+000  0.000000e+000
    outer loop
      vertex -8.174685e+000  3.000000e+000 -5.759733e+000
      vertex -9.682458e+000  3.000000e+000 -2.500000e+000
      vertex -9.425018e-001  3.000000e+000 -2.900722e+000
    endloop
  endfacet
  facet normal  0.000000e+000  1.000000e+000  0.000000e+000
    outer loop
      vertex -9.425018e-001  3.000000e+000 -2.900722e+000
      vertex -9.682458e+000  3.000000e+000 -2.500000e+000
      vertex -2.467502e+000  3.000000e+000 -1.792745e+000
    endloop
  endfacet
  facet normal  0.000000e+000  1.000000e+000  0.000000e+000
    outer loop
      vertex -5.612439e+000  3.000000e+000 -8.276505e+000
      vertex -8.174685e+000  3.000000e+000 -5.759733e+000
      vertex -2.326231e+000  3.000000e+000 -9.725670e+000
    endloop
  endfacet
  facet normal  0.000000e+000  9.999999e-001  -0.000000e+000
    outer loop
      vertex -2.326231e+000  3.000000e+000 -9.725670e+000
      vertex -8.174685e+000  3.000000e+000 -5.759733e+000
      vertex -9.425018e-001  3.000000e+000 -2.900722e+000
    endloop
  endfacet
  facet normal  0.000000e+000  1.000000e+000  0.000000e+000
    outer loop
      vertex -2.326231e+000  3.000000e+000 -9.725670e+000
      vertex -9.425018e-001  3.000000e+000 -2.900722e+000
      vertex  1.260043e+000  3.000000e+000 -9.920297e+000
    endloop
  endfacet
  facet normal  0.000000e+000  1.000000e+000  0.000000e+000
    outer loop
      vertex  1.260043e+000  3.000000e+000 -9.920297e+000
      vertex -9.425018e-001  3.000000e+000 -2.900722e+000
      vertex  9.425018e-001  3.000000e+000 -2.900722e+000
    endloop
  endfacet
  facet normal  0.000000e+000  1.000000e+000  0.000000e+000
    outer loop
      vertex  1.260043e+000  3.000000e+000 -9.920297e+000
      vertex  9.425018e-001  3.000000e+000 -2.900722e+000
      vertex  4.683781e+000  3.000000e+000 -8.835281e+000
    endloop
  endfacet
  facet normal  0.000000e+000  1.000000e+000  -0.000000e+000
    outer loop
      vertex  4.683781e+000  3.000000e+000 -8.835281e+000
      vertex  9.425018e-001  3.000000e+000 -2.900722e+000
      vertex  9.355038e+000  3.000000e+000 -3.533166e+000
    endloop
  endfacet
  facet normal  0.000000e+000  1.000000e+000  0.000000e+000
    outer loop
      vertex  4.683781e+000  3.000000e+000 -8.835281e+000
      vertex  9.355038e+000  3.000000e+000 -3.533166e+000
      vertex  7.503347e+000  3.000000e+000 -6.610581e+000
    endloop
  endfacet
  facet normal  0.000000e+000  1.000000e+000  0.000000e+000
    outer loop
      vertex -9.425018e-001  3.000000e+000  2.900722e+000
      vertex -1.669383e+000  3.000000e+000  6.230222e+000
      vertex  9.425018e-001  3.000000e+000  2.900722e+000
    endloop
  endfacet
  facet normal  0.000000e+000  1.000000e+000  0.000000e+000
    outer loop
      vertex  9.425018e-001  3.000000e+000  2.900722e+000
      vertex -1.669383e+000  3.000000e+000  6.230222e+000
      vertex  1.037239e-015  3.000000e+000  6.450000e+000
    endloop
  endfacet
  facet normal  0.000000e+000  1.000000e+000  0.000000e+000
    outer loop
      vertex  9.425018e-001  3.000000e+000  2.900722e+000
      vertex  1.037239e-015  3.000000e+000  6.450000e+000
      vertex  9.355038e+000  3.000000e+000  3.533166e+000
    endloop
  endfacet
  facet normal  0.000000e+000  9.999999e-001  0.000000e+000
    outer loop
      vertex  9.355038e+000  3.000000e+000  3.533166e+000
      vertex  1.037239e-015  3.000000e+000  6.450000e+000
      vertex  1.669383e+000  3.000000e+000  6.230222e+000
    endloop
  endfacet
  facet normal  -0.000000e+000  1.000000e+000  0.000000e+000
    outer loop
      vertex  9.355038e+000  3.000000e+000  3.533166e+000
      vertex  1.669383e+000  3.000000e+000  6.230222e+000
      vertex  7.503347e+000  3.000000e+000  6.610581e+000
    endloop
  endfacet
  facet normal  0.000000e+000  1.000000e+000  0.000000e+000
    outer loop
      vertex  7.503347e+000  3.000000e+000  6.610581e+000
      vertex  1.669383e+000  3.000000e+000  6.230222e+000
      vertex  2.466143e+000  3.000000e+000  6.335117e+000
    endloop
  endfacet
  facet normal  0.000000e+000  1.000000e+000  0.000000e+000
    outer loop
      vertex  7.503347e+000  3.000000e+000  6.610581e+000
      vertex  2.466143e+000  3.000000e+000  6.335117e+000
      vertex  2.955365e+000  3.000000e+000  6.972684e+000
    endloop
  endfacet
  facet normal  -0.000000e+000  1.000000e+000  0.000000e+000
    outer loop
      vertex -2.212903e+000  3.000000e+000  8.258666e+000
      vertex -5.612439e+000  3.000000e+000  8.276505e+000
      vertex  1.374945e-015  3.000000e+000  8.550000e+000
    endloop
  endfacet
  facet normal  0.000000e+000  9.999999e-001  0.000000e+000
    outer loop
      vertex  1.374945e-015  3.000000e+000  8.550000e+000
      vertex -5.612439e+000  3.000000e+000  8.276505e+000
      vertex -2.326231e+000  3.000000e+000  9.725670e+000
    endloop
  endfacet
  facet normal  0.000000e+000  1.000000e+000  0.000000e+000
    outer loop
      vertex  1.374945e-015  3.000000e+000  8.550000e+000
      vertex -2.326231e+000  3.000000e+000  9.725670e+000
      vertex  4.683781e+000  3.000000e+000  8.835281e+000
    endloop
  endfacet
  facet normal  0.000000e+000  1.000000e+000  0.000000e+000
    outer loop
      vertex  4.683781e+000  3.000000e+000  8.835281e+000
      vertex -2.326231e+000  3.000000e+000  9.725670e+000
      vertex  1.260043e+000  3.000000e+000  9.920297e+000
    endloop
  endfacet
  facet normal  -0.000000e+000  9.999999e-001  0.000000e+000
    outer loop
      vertex  7.503347e+000  3.000000e+000  6.610581e+000
      vertex  2.850470e+000  3.000000e+000  7.769444e+000
      vertex  4.683781e+000  3.000000e+000  8.835281e+000
    endloop
  endfacet
  facet normal  0.000000e+000  1.000000e+000  0.000000e+000
    outer loop
      vertex  4.683781e+000  3.000000e+000  8.835281e+000
      vertex  2.850470e+000  3.000000e+000  7.769444e+000
      vertex  2.212903e+000  3.000000e+000  8.258666e+000
    endloop
  endfacet
  facet normal  0.000000e+000  1.000000e+000  -0.000000e+000
    outer loop
      vertex  4.683781e+000  3.000000e+000  8.835281e+000
      vertex  2.212903e+000  3.000000e+000  8.258666e+000
      vertex  1.374945e-015  3.000000e+000  8.550000e+000
    endloop
  endfacet
  facet normal  0.000000e+000  0.000000e+000  1.000000e+000
    outer loop
      vertex -9.682458e+000  0.000000e+000  2.500000e+000
      vertex -9.682458e+000  3.000000e+000  2.500000e+000
      vertex -3.000000e+001  0.000000e+000  2.500000e+000
    endloop
  endfacet
  facet normal  0.000000e+000  0.000000e+000  1.000000e+000
    outer loop
      vertex -3.000000e+001  0.000000e+000  2.500000e+000
      vertex -9.682458e+000  3.000000e+000  2.500000e+000
      vertex -3.000000e+001  3.000000e+000  2.500000e+000
    endloop
  endfacet
  facet normal  0.000000e+000  0.000000e+000 -1.000000e+000
    outer loop
      vertex -3.000000e+001  0.000000e+000 -2.500000e+000
      vertex -3.000000e+001  3.000000e+000 -2.500000e+000
      vertex -9.682458e+000  0.000000e+000 -2.500000e+000
    endloop
  endfacet
  facet normal  0.000000e+000  0.000000e+000 -1.000000e+000
    outer loop
      vertex -9.682458e+000  0.000000e+000 -2.500000e+000
      vertex -3.000000e+001  3.000000e+000 -2.500000e+000
      vertex -9.682458e+000  3.000000e+000 -2.500000e+000
    endloop
  endfacet
  facet normal  9.837438e-001  0.000000e+000  1.795776e-001
    outer loop
      vertex  1.000000e+001  0.000000e+000  1.224647e-015
      vertex  1.000000e+001  3.000000e+000  1.224647e-015
      vertex  9.355038e+000  0.000000e+000  3.533166e+000
    endloop
  endfacet
  facet normal  9.837438e-001  -0.000000e+000  1.795776e-001
    outer loop
      vertex  9.355038e+000  0.000000e+000  3.533166e+000
      vertex  1.000000e+001  3.000000e+000  1.224647e-015
      vertex  9.355038e+000  3.000000e+000  3.533166e+000
    endloop
  endfacet
  facet normal  8.568484e-001  0.000000e+000  5.155685e-001
    outer loop
      vertex  9.355038e+000  0.000000e+000  3.533166e+000
      vertex  9.355038e+000  3.000000e+000  3.533166e+000
      vertex  7.503347e+000  0.000000e+000  6.610581e+000
    endloop
  endfacet
  facet normal  8.568484e-001  -0.000000e+000  5.155685e-001
    outer loop
      vertex  7.503347e+000  0.000000e+000  6.610581e+000
      vertex  9.355038e+000  3.000000e+000  3.533166e+000
      vertex  7.503347e+000  3.000000e+000  6.610581e+000
    endloop
  endfacet
  facet normal  6.194259e-001  0.000000e+000  7.850551e-001
    outer loop
      vertex  7.503347e+000  0.000000e+000  6.610581e+000
      vertex  7.503347e+000  3.000000e+000  6.610581e+000
      vertex  4.683781e+000  0.000000e+000  8.835281e+000
    endloop
  endfacet
  facet normal  6.194259e-001  -0.000000e+000  7.850551e-001
    outer loop
      vertex  4.683781e+000  0.000000e+000  8.835281e+000
      vertex  7.503347e+000  3.000000e+000  6.610581e+000
      vertex  4.683781e+000  3.000000e+000  8.835281e+000
    endloop
  endfacet
  facet normal  3.021021e-001  0.000000e+000  9.532755e-001
    outer loop
      vertex  4.683781e+000  0.000000e+000  8.835281e+000
      vertex  4.683781e+000  3.000000e+000  8.835281e+000
      vertex  1.260043e+000  0.000000e+000  9.920297e+000
    endloop
  endfacet
  facet normal  3.021021e-001  -0.000000e+000  9.532755e-001
    outer loop
      vertex  1.260043e+000  0.000000e+000  9.920297e+000
      vertex  4.683781e+000  3.000000e+000  8.835281e+000
      vertex  1.260043e+000  3.000000e+000  9.920297e+000
    endloop
  endfacet
  facet normal -5.419018e-002  0.000000e+000  9.985306e-001
    outer loop
      vertex  1.260043e+000  0.000000e+000  9.920297e+000
      vertex  1.260043e+000  3.000000e+000  9.920297e+000
      vertex -2.326231e+000  0.000000e+000  9.725670e+000
    endloop
  endfacet
  facet normal -5.419018e-002  0.000000e+000  9.985306e-001
    outer loop
      vertex -2.326231e+000  0.000000e+000  9.725670e+000
      vertex  1.260043e+000  3.000000e+000  9.920297e+000
      vertex -2.326231e+000  3.000000e+000  9.725670e+000
    endloop
  endfacet
  facet normal -4.034928e-001  0.000000e+000  9.149828e-001
    outer loop
      vertex -2.326231e+000  0.000000e+000  9.725670e+000
      vertex -2.326231e+000  3.000000e+000  9.725670e+000
      vertex -5.612439e+000  0.000000e+000  8.276505e+000
    endloop
  endfacet
  facet normal -4.034928e-001  0.000000e+000  9.149828e-001
    outer loop
      vertex -5.612439e+000  0.000000e+000  8.276505e+000
      vertex -2.326231e+000  3.000000e+000  9.725670e+000
      vertex -5.612439e+000  3.000000e+000  8.276505e+000
    endloop
  endfacet
  facet normal -7.007477e-001  0.000000e+000  7.134091e-001
    outer loop
      vertex -5.612439e+000  0.000000e+000  8.276505e+000
      vertex -5.612439e+000  3.000000e+000  8.276505e+000
      vertex -8.174685e+000  0.000000e+000  5.759733e+000
    endloop
  endfacet
  facet normal -7.007477e-001  0.000000e+000  7.134091e-001
    outer loop
      vertex -8.174685e+000  0.000000e+000  5.759733e+000
      vertex -5.612439e+000  3.000000e+000  8.276505e+000
      vertex -8.174685e+000  3.000000e+000  5.759733e+000
    endloop
  endfacet
  facet normal -9.076114e-001  0.000000e+000  4.198112e-001
    outer loop
      vertex -8.174685e+000  0.000000e+000  5.759733e+000
      vertex -8.174685e+000  3.000000e+000  5.759733e+000
      vertex -9.682458e+000  0.000000e+000  2.500000e+000
    endloop
  endfacet
  facet normal -9.076114e-001  0.000000e+000  4.198112e-001
    outer loop
      vertex -9.682458e+000  0.000000e+000  2.500000e+000
      vertex -8.174685e+000  3.000000e+000  5.759733e+000
      vertex -9.682458e+000  3.000000e+000  2.500000e+000
    endloop
  endfacet
  facet normal -9.076114e-001  -0.000000e+000 -4.198112e-001
    outer loop
      vertex -9.682458e+000  0.000000e+000 -2.500000e+000
      vertex -9.682458e+000  3.000000e+000 -2.500000e+000
      vertex -8.174685e+000  0.000000e+000 -5.759733e+000
    endloop
  endfacet
  facet normal -9.076114e-001  0.000000e+000 -4.198112e-001
    outer loop
      vertex -8.174685e+000  0.000000e+000 -5.759733e+000
      vertex -9.682458e+000  3.000000e+000 -2.500000e+000
      vertex -8.174685e+000  3.000000e+000 -5.759733e+000
    endloop
  endfacet
  facet normal -7.007477e-001  -0.000000e+000 -7.134091e-001
    outer loop
      vertex -8.174685e+000  0.000000e+000 -5.759733e+000
      vertex -8.174685e+000  3.000000e+000 -5.759733e+000
      vertex -5.612439e+000  0.000000e+000 -8.276505e+000
    endloop
  endfacet
  facet normal -7.007477e-001  0.000000e+000 -7.134091e-001
    outer loop
      vertex -5.612439e+000  0.000000e+000 -8.276505e+000
      vertex -8.174685e+000  3.000000e+000 -5.759733e+000
      vertex -5.612439e+000  3.000000e+000 -8.276505e+000
    endloop
  endfacet
  facet normal -4.034928e-001  -0.000000e+000 -9.149828e-001
    outer loop
      vertex -5.612439e+000  0.000000e+000 -8.276505e+000
      vertex -5.612439e+000  3.000000e+000 -8.276505e+000
      vertex -2.326231e+000  0.000000e+000 -9.725670e+000
    endloop
  endfacet
  facet normal -4.034928e-001  0.000000e+000 -9.149828e-001
    outer loop
      vertex -2.326231e+000  0.000000e+000 -9.725670e+000
      vertex -5.612439e+000  3.000000e+000 -8.276505e+000
      vertex -2.326231e+000  3.000000e+000 -9.725670e+000
    endloop
  endfacet
  facet normal -5.419018e-002  -0.000000e+000 -9.985306e-001
    outer loop
      vertex -2.326231e+000  0.000000e+000 -9.725670e+000
      vertex -2.326231e+000  3.000000e+000 -9.725670e+000
      vertex  1.260043e+000  0.000000e+000 -9.920297e+000
    endloop
  endfacet
  facet normal -5.419018e-002  0.000000e+000 -9.985306e-001
    outer loop
      vertex  1.260043e+000  0.000000e+000 -9.920297e+000
      vertex -2.326231e+000  3.000000e+000 -9.725670e+000
      vertex  1.260043e+000  3.000000e+000 -9.920297e+000
    endloop
  endfacet
  facet normal  3.021021e-001  0.000000e+000 -9.532755e-001
    outer loop
      vertex  1.260043e+000  0.000000e+000 -9.920297e+000
      vertex  1.260043e+000  3.000000e+000 -9.920297e+000
      vertex  4.683781e+000  0.000000e+000 -8.835281e+000
    endloop
  endfacet
  facet normal  3.021021e-001  0.000000e+000 -9.532755e-001
    outer loop
      vertex  4.683781e+000  0.000000e+000 -8.835281e+000
      vertex  1.260043e+000  3.000000e+000 -9.920297e+000
      vertex  4.683781e+000  3.000000e+000 -8.835281e+000
    endloop
  endfacet
  facet normal  6.194259e-001  0.000000e+000 -7.850551e-001
    outer loop
      vertex  4.683781e+000  0.000000e+000 -8.835281e+000
      vertex  4.683781e+000  3.000000e+000 -8.835281e+000
      vertex  7.503347e+000  0.000000e+000 -6.610581e+000
    endloop
  endfacet
  facet normal  6.194259e-001  0.000000e+000 -7.850551e-001
    outer loop
      vertex  7.503347e+000  0.000000e+000 -6.610581e+000
      vertex  4.683781e+000  3.000000e+000 -8.835281e+000
      vertex  7.503347e+000  3.000000e+000 -6.610581e+000
    endloop
  endfacet
  facet normal  8.568484e-001  0.000000e+000 -5.155685e-001
    outer loop
      vertex  7.503347e+000  0.000000e+000 -6.610581e+000
      vertex  7.503347e+000  3.000000e+000 -6.610581e+000
      vertex  9.355038e+000  0.000000e+000 -3.533166e+000
    endloop
  endfacet
  facet normal  8.568484e-001  0.000000e+000 -5.155685e-001
    outer loop
      vertex  9.355038e+000  0.000000e+000 -3.533166e+000
      vertex  7.503347e+000  3.000000e+000 -6.610581e+000
      vertex  9.355038e+000  3.000000e+000 -3.533166e+000
    endloop
  endfacet
  facet normal  9.837438e-001  0.000000e+000 -1.795776e-001
    outer loop
      vertex  9.355038e+000  0.000000e+000 -3.533166e+000
      vertex  9.355038e+000  3.000000e+000 -3.533166e+000
      vertex  1.000000e+001  0.000000e+000  1.224647e-015
    endloop
  endfacet
  facet normal  9.837438e-001  0.000000e+000 -1.795776e-001
    outer loop
      vertex  1.000000e+001  0.000000e+000  1.224647e-015
      vertex  9.355038e+000  3.000000e+000 -3.533166e+000
      vertex  1.000000e+001  3.000000e+000  1.224647e-015
    endloop
  endfacet
  facet normal -1.000000e+000  0.000000e+000  0.000000e+000
    outer loop
      vertex -3.000000e+001  0.000000e+000 -2.500000e+000
      vertex -3.000000e+001  0.000000e+000  2.500000e+000
      vertex -3.000000e+001  3.000000e+000 -2.500000e+000
    endloop
  endfacet
  facet normal -1.000000e+000  0.000000e+000  0.000000e+000
    outer loop
      vertex -3.000000e+001  3.000000e+000 -2.500000e+000
      vertex -3.000000e+001  0.000000e+000  2.500000e+000
      vertex -3.000000e+001  3.000000e+000  2.500000e+000
    endloop
  endfacet
  facet normal -7.933536e-001  0.000000e+000  6.087612e-001
    outer loop
      vertex  2.955365e+000  0.000000e+000  6.972684e+000
      vertex  2.466143e+000  3.000000e+000  6.335117e+000
      vertex  2.466143e+000  0.000000e+000  6.335117e+000
    endloop
  endfacet
  facet normal -1.305258e-001  0.000000e+000  9.914450e-001
    outer loop
      vertex  2.466143e+000  0.000000e+000  6.335117e+000
      vertex  2.466143e+000  3.000000e+000  6.335117e+000
      vertex  1.669383e+000  3.000000e+000  6.230222e+000
    endloop
  endfacet
  facet normal -1.305258e-001  0.000000e+000  9.914450e-001
    outer loop
      vertex  2.466143e+000  0.000000e+000  6.335117e+000
      vertex  1.669383e+000  3.000000e+000  6.230222e+000
      vertex  1.669383e+000  0.000000e+000  6.230222e+000
    endloop
  endfacet
  facet normal -7.933536e-001  0.000000e+000  6.087612e-001
    outer loop
      vertex  2.466143e+000  3.000000e+000  6.335117e+000
      vertex  2.955365e+000  0.000000e+000  6.972684e+000
      vertex  2.955365e+000  3.000000e+000  6.972684e+000
    endloop
  endfacet
  facet normal -9.914449e-001  -0.000000e+000 -1.305261e-001
    outer loop
      vertex  2.955365e+000  3.000000e+000  6.972684e+000
      vertex  2.955365e+000  0.000000e+000  6.972684e+000
      vertex  2.850470e+000  0.000000e+000  7.769444e+000
    endloop
  endfacet
  facet normal -9.914449e-001  0.000000e+000 -1.305261e-001
    outer loop
      vertex  2.955365e+000  3.000000e+000  6.972684e+000
      vertex  2.850470e+000  0.000000e+000  7.769444e+000
      vertex  2.850470e+000  3.000000e+000  7.769444e+000
    endloop
  endfacet
  facet normal -6.087617e-001  -0.000000e+000 -7.933531e-001
    outer loop
      vertex  2.850470e+000  3.000000e+000  7.769444e+000
      vertex  2.850470e+000  0.000000e+000  7.769444e+000
      vertex  2.212903e+000  0.000000e+000  8.258666e+000
    endloop
  endfacet
  facet normal -6.087617e-001  0.000000e+000 -7.933531e-001
    outer loop
      vertex  2.850470e+000  3.000000e+000  7.769444e+000
      vertex  2.212903e+000  0.000000e+000  8.258666e+000
      vertex  2.212903e+000  3.000000e+000  8.258666e+000
    endloop
  endfacet
  facet normal  1.305260e-001  0.000000e+000  9.914449e-001
    outer loop
      vertex  1.669383e+000  0.000000e+000  6.230222e+000
      vertex  1.669383e+000  3.000000e+000  6.230222e+000
      vertex  1.037239e-015  0.000000e+000  6.450000e+000
    endloop
  endfacet
  facet normal  1.305260e-001  -0.000000e+000  9.914449e-001
    outer loop
      vertex  1.037239e-015  0.000000e+000  6.450000e+000
      vertex  1.669383e+000  3.000000e+000  6.230222e+000
      vertex  1.037239e-015  3.000000e+000  6.450000e+000
    endloop
  endfacet
  facet normal -1.305260e-001  0.000000e+000  9.914449e-001
    outer loop
      vertex  1.037239e-015  0.000000e+000  6.450000e+000
      vertex  1.037239e-015  3.000000e+000  6.450000e+000
      vertex -1.669383e+000  0.000000e+000  6.230222e+000
    endloop
  endfacet
  facet normal -1.305260e-001  0.000000e+000  9.914449e-001
    outer loop
      vertex -1.669383e+000  0.000000e+000  6.230222e+000
      vertex  1.037239e-015  3.000000e+000  6.450000e+000
      vertex -1.669383e+000  3.000000e+000  6.230222e+000
    endloop
  endfacet
  facet normal  9.914449e-001  0.000000e+000 -1.305261e-001
    outer loop
      vertex -2.955365e+000  0.000000e+000  6.972684e+000
      vertex -2.850470e+000  3.000000e+000  7.769444e+000
      vertex -2.850470e+000  0.000000e+000  7.769444e+000
    endloop
  endfacet
  facet normal  6.087617e-001  0.000000e+000 -7.933531e-001
    outer loop
      vertex -2.850470e+000  0.000000e+000  7.769444e+000
      vertex -2.850470e+000  3.000000e+000  7.769444e+000
      vertex -2.212903e+000  3.000000e+000  8.258666e+000
    endloop
  endfacet
  facet normal  6.087617e-001  0.000000e+000 -7.933531e-001
    outer loop
      vertex -2.850470e+000  0.000000e+000  7.769444e+000
      vertex -2.212903e+000  3.000000e+000  8.258666e+000
      vertex -2.212903e+000  0.000000e+000  8.258666e+000
    endloop
  endfacet
  facet normal  9.914449e-001  0.000000e+000 -1.305261e-001
    outer loop
      vertex -2.850470e+000  3.000000e+000  7.769444e+000
      vertex -2.955365e+000  0.000000e+000  6.972684e+000
      vertex -2.955365e+000  3.000000e+000  6.972684e+000
    endloop
  endfacet
  facet normal  7.933536e-001  0.000000e+000  6.087612e-001
    outer loop
      vertex -2.955365e+000  3.000000e+000  6.972684e+000
      vertex -2.955365e+000  0.000000e+000  6.972684e+000
      vertex -2.466143e+000  0.000000e+000  6.335117e+000
    endloop
  endfacet
  facet normal  7.933536e-001  -0.000000e+000  6.087612e-001
    outer loop
      vertex -2.955365e+000  3.000000e+000  6.972684e+000
      vertex -2.466143e+000  0.000000e+000  6.335117e+000
      vertex -2.466143e+000  3.000000e+000  6.335117e+000
    endloop
  endfacet
  facet normal  1.305258e-001  0.000000e+000  9.914450e-001
    outer loop
      vertex -2.466143e+000  3.000000e+000  6.335117e+000
      vertex -2.466143e+000  0.000000e+000  6.335117e+000
      vertex -1.669383e+000  0.000000e+000  6.230222e+000
    endloop
  endfacet
  facet normal  1.305258e-001  -0.000000e+000  9.914450e-001
    outer loop
      vertex -2.466143e+000  3.000000e+000  6.335117e+000
      vertex -1.669383e+000  0.000000e+000  6.230222e+000
      vertex -1.669383e+000  3.000000e+000  6.230222e+000
    endloop
  endfacet
  facet normal -1.305262e-001  0.000000e+000 -9.914449e-001
    outer loop
      vertex  2.212903e+000  0.000000e+000  8.258666e+000
      vertex  1.374945e-015  0.000000e+000  8.550000e+000
      vertex  2.212903e+000  3.000000e+000  8.258666e+000
    endloop
  endfacet
  facet normal -1.305262e-001  0.000000e+000 -9.914449e-001
    outer loop
      vertex  2.212903e+000  3.000000e+000  8.258666e+000
      vertex  1.374945e-015  0.000000e+000  8.550000e+000
      vertex  1.374945e-015  3.000000e+000  8.550000e+000
    endloop
  endfacet
  facet normal  1.305262e-001  0.000000e+000 -9.914449e-001
    outer loop
      vertex  1.374945e-015  0.000000e+000  8.550000e+000
      vertex -2.212903e+000  0.000000e+000  8.258666e+000
      vertex  1.374945e-015  3.000000e+000  8.550000e+000
    endloop
  endfacet
  facet normal  1.305262e-001  0.000000e+000 -9.914449e-001
    outer loop
      vertex  1.374945e-015  3.000000e+000  8.550000e+000
      vertex -2.212903e+000  0.000000e+000  8.258666e+000
      vertex -2.212903e+000  3.000000e+000  8.258666e+000
    endloop
  endfacet
  facet normal -5.877852e-001  -0.000000e+000 -8.090171e-001
    outer loop
      vertex  9.425018e-001  0.000000e+000  2.900722e+000
      vertex  2.467502e+000  3.000000e+000  1.792745e+000
      vertex  2.467502e+000  0.000000e+000  1.792745e+000
    endloop
  endfacet
  facet normal -9.510565e-001  0.000000e+000 -3.090170e-001
    outer loop
      vertex  2.467502e+000  0.000000e+000  1.792745e+000
      vertex  2.467502e+000  3.000000e+000  1.792745e+000
      vertex  3.050000e+000  3.000000e+000  3.735173e-016
    endloop
  endfacet
  facet normal -9.510565e-001  -0.000000e+000 -3.090170e-001
    outer loop
      vertex  2.467502e+000  0.000000e+000  1.792745e+000
      vertex  3.050000e+000  3.000000e+000  3.735173e-016
      vertex  3.050000e+000  0.000000e+000  3.735173e-016
    endloop
  endfacet
  facet normal -5.877852e-001  0.000000e+000 -8.090171e-001
    outer loop
      vertex  2.467502e+000  3.000000e+000  1.792745e+000
      vertex  9.425018e-001  0.000000e+000  2.900722e+000
      vertex  9.425018e-001  3.000000e+000  2.900722e+000
    endloop
  endfacet
  facet normal  0.000000e+000  -0.000000e+000 -1.000000e+000
    outer loop
      vertex  9.425018e-001  3.000000e+000  2.900722e+000
      vertex  9.425018e-001  0.000000e+000  2.900722e+000
      vertex -9.425018e-001  0.000000e+000  2.900722e+000
    endloop
  endfacet
  facet normal  0.000000e+000  0.000000e+000 -1.000000e+000
    outer loop
      vertex  9.425018e-001  3.000000e+000  2.900722e+000
      vertex -9.425018e-001  0.000000e+000  2.900722e+000
      vertex -9.425018e-001  3.000000e+000  2.900722e+000
    endloop
  endfacet
  facet normal  5.877852e-001  0.000000e+000 -8.090171e-001
    outer loop
      vertex -9.425018e-001  3.000000e+000  2.900722e+000
      vertex -9.425018e-001  0.000000e+000  2.900722e+000
      vertex -2.467502e+000  0.000000e+000  1.792745e+000
    endloop
  endfacet
  facet normal  5.877852e-001  0.000000e+000 -8.090171e-001
    outer loop
      vertex -9.425018e-001  3.000000e+000  2.900722e+000
      vertex -2.467502e+000  0.000000e+000  1.792745e+000
      vertex -2.467502e+000  3.000000e+000  1.792745e+000
    endloop
  endfacet
  facet normal  9.510565e-001  0.000000e+000 -3.090170e-001
    outer loop
      vertex -2.467502e+000  3.000000e+000  1.792745e+000
      vertex -2.467502e+000  0.000000e+000  1.792745e+000
      vertex -3.050000e+000  0.000000e+000  0.000000e+000
    endloop
  endfacet
  facet normal  9.510565e-001  0.000000e+000 -3.090170e-001
    outer loop
      vertex -2.467502e+000  3.000000e+000  1.792745e+000
      vertex -3.050000e+000  0.000000e+000  0.000000e+000
      vertex -3.050000e+000  3.000000e+000  0.000000e+000
    endloop
  endfacet
  facet normal  5.877852e-001  0.000000e+000  8.090171e-001
    outer loop
      vertex -9.425018e-001  0.000000e+000 -2.900722e+000
      vertex -2.467502e+000  3.000000e+000 -1.792745e+000
      vertex -2.467502e+000  0.000000e+000 -1.792745e+000
    endloop
  endfacet
  facet normal  9.510565e-001  -0.000000e+000  3.090170e-001
    outer loop
      vertex -2.467502e+000  0.000000e+000 -1.792745e+000
      vertex -2.467502e+000  3.000000e+000 -1.792745e+000
      vertex -3.050000e+000  3.000000e+000  0.000000e+000
    endloop
  endfacet
  facet normal  9.510565e-001  0.000000e+000  3.090170e-001
    outer loop
      vertex -2.467502e+000  0.000000e+000 -1.792745e+000
      vertex -3.050000e+000  3.000000e+000  0.000000e+000
      vertex -3.050000e+000  0.000000e+000  0.000000e+000
    endloop
  endfacet
  facet normal  5.877852e-001  -0.000000e+000  8.090171e-001
    outer loop
      vertex -2.467502e+000  3.000000e+000 -1.792745e+000
      vertex -9.425018e-001  0.000000e+000 -2.900722e+000
      vertex -9.425018e-001  3.000000e+000 -2.900722e+000
    endloop
  endfacet
  facet normal  0.000000e+000  0.000000e+000  1.000000e+000
    outer loop
      vertex -9.425018e-001  3.000000e+000 -2.900722e+000
      vertex -9.425018e-001  0.000000e+000 -2.900722e+000
      vertex  9.425018e-001  0.000000e+000 -2.900722e+000
    endloop
  endfacet
  facet normal  0.000000e+000  -0.000000e+000  1.000000e+000
    outer loop
      vertex -9.425018e-001  3.000000e+000 -2.900722e+000
      vertex  9.425018e-001  0.000000e+000 -2.900722e+000
      vertex  9.425018e-001  3.000000e+000 -2.900722e+000
    endloop
  endfacet
  facet normal -5.877852e-001  0.000000e+000  8.090171e-001
    outer loop
      vertex  9.425018e-001  3.000000e+000 -2.900722e+000
      vertex  9.425018e-001  0.000000e+000 -2.900722e+000
      vertex  2.467502e+000  0.000000e+000 -1.792745e+000
    endloop
  endfacet
  facet normal -5.877852e-001  0.000000e+000  8.090171e-001
    outer loop
      vertex  9.425018e-001  3.000000e+000 -2.900722e+000
      vertex  2.467502e+000  0.000000e+000 -1.792745e+000
      vertex  2.467502e+000  3.000000e+000 -1.792745e+000
    endloop
  endfacet
  facet normal -9.510565e-001  0.000000e+000  3.090170e-001
    outer loop
      vertex  2.467502e+000  3.000000e+000 -1.792745e+000
      vertex  2.467502e+000  0.000000e+000 -1.792745e+000
      vertex  3.050000e+000  0.000000e+000  3.735173e-016
    endloop
  endfacet
  facet normal -9.510565e-001  0.000000e+000  3.090170e-001
    outer loop
      vertex  2.467502e+000  3.000000e+000 -1.792745e+000
      vertex  3.050000e+000  0.000000e+000  3.735173e-016
      vertex  3.050000e+000  3.000000e+000  3.735173e-016
    endloop
  endfacet
endsolid CATIA STL
