solid CATIA STL
  facet normal  0.000000e+000  1.000000e+000  0.000000e+000
    outer loop
      vertex  9.116001e-001  1.200000e+001  2.805617e+000
      vertex  2.386600e+000  1.200000e+001  1.733966e+000
      vertex -9.116001e-001  1.200000e+001  2.805617e+000
    endloop
  endfacet
  facet normal  0.000000e+000  1.000000e+000  0.000000e+000
    outer loop
      vertex -9.116001e-001  1.200000e+001  2.805617e+000
      vertex  2.386600e+000  1.200000e+001  1.733966e+000
      vertex -1.285879e-016  1.200000e+001  2.100000e+000
    endloop
  endfacet
  facet normal  0.000000e+000  1.000000e+000  0.000000e+000
    outer loop
      vertex -9.116001e-001  1.200000e+001  2.805617e+000
      vertex -1.285879e-016  1.200000e+001  2.100000e+000
      vertex -2.386600e+000  1.200000e+001  1.733966e+000
    endloop
  endfacet
  facet normal  -0.000000e+000  9.999999e-001  0.000000e+000
    outer loop
      vertex -2.386600e+000  1.200000e+001  1.733966e+000
      vertex -1.285879e-016  1.200000e+001  2.100000e+000
      vertex -1.484924e+000  1.200000e+001  1.484924e+000
    endloop
  endfacet
  facet normal  0.000000e+000  1.000000e+000  0.000000e+000
    outer loop
      vertex -2.386600e+000  1.200000e+001  1.733966e+000
      vertex -1.484924e+000  1.200000e+001  1.484924e+000
      vertex -2.950000e+000  1.200000e+001  0.000000e+000
    endloop
  endfacet
  facet normal  0.000000e+000  1.000000e+000  0.000000e+000
    outer loop
      vertex -2.950000e+000  1.200000e+001  0.000000e+000
      vertex -1.484924e+000  1.200000e+001  1.484924e+000
      vertex -2.100000e+000  1.200000e+001  0.000000e+000
    endloop
  endfacet
  facet normal  0.000000e+000  1.000000e+000  0.000000e+000
    outer loop
      vertex -2.950000e+000  1.200000e+001  0.000000e+000
      vertex -2.100000e+000  1.200000e+001  0.000000e+000
      vertex -2.386600e+000  1.200000e+001 -1.733966e+000
    endloop
  endfacet
  facet normal  0.000000e+000  1.000000e+000  0.000000e+000
    outer loop
      vertex -2.386600e+000  1.200000e+001 -1.733966e+000
      vertex -2.100000e+000  1.200000e+001  0.000000e+000
      vertex -1.484924e+000  1.200000e+001 -1.484924e+000
    endloop
  endfacet
  facet normal  0.000000e+000  1.000000e+000  0.000000e+000
    outer loop
      vertex -2.386600e+000  1.200000e+001 -1.733966e+000
      vertex -1.484924e+000  1.200000e+001 -1.484924e+000
      vertex -9.116001e-001  1.200000e+001 -2.805617e+000
    endloop
  endfacet
  facet normal  0.000000e+000  1.000000e+000  -0.000000e+000
    outer loop
      vertex -9.116001e-001  1.200000e+001 -2.805617e+000
      vertex -1.484924e+000  1.200000e+001 -1.484924e+000
      vertex  2.250938e-015  1.200000e+001 -2.100000e+000
    endloop
  endfacet
  facet normal  0.000000e+000  9.999999e-001  0.000000e+000
    outer loop
      vertex -9.116001e-001  1.200000e+001 -2.805617e+000
      vertex  2.250938e-015  1.200000e+001 -2.100000e+000
      vertex  9.116001e-001  1.200000e+001 -2.805617e+000
    endloop
  endfacet
  facet normal  -0.000000e+000  1.000000e+000  0.000000e+000
    outer loop
      vertex  9.116001e-001  1.200000e+001 -2.805617e+000
      vertex  2.250938e-015  1.200000e+001 -2.100000e+000
      vertex  2.386600e+000  1.200000e+001 -1.733966e+000
    endloop
  endfacet
  facet normal  0.000000e+000  9.999999e-001  0.000000e+000
    outer loop
      vertex  2.386600e+000  1.200000e+001 -1.733966e+000
      vertex  2.250938e-015  1.200000e+001 -2.100000e+000
      vertex  1.484924e+000  1.200000e+001 -1.484924e+000
    endloop
  endfacet
  facet normal  -0.000000e+000  1.000000e+000  0.000000e+000
    outer loop
      vertex  2.386600e+000  1.200000e+001 -1.733966e+000
      vertex  1.484924e+000  1.200000e+001 -1.484924e+000
      vertex  2.950000e+000  1.200000e+001  3.612708e-016
    endloop
  endfacet
  facet normal  0.000000e+000  1.000000e+000  0.000000e+000
    outer loop
      vertex  2.950000e+000  1.200000e+001  3.612708e-016
      vertex  1.484924e+000  1.200000e+001 -1.484924e+000
      vertex  2.100000e+000  1.200000e+001  2.571758e-016
    endloop
  endfacet
  facet normal  0.000000e+000  1.000000e+000  0.000000e+000
    outer loop
      vertex  2.950000e+000  1.200000e+001  3.612708e-016
      vertex  2.100000e+000  1.200000e+001  2.571758e-016
      vertex  2.386600e+000  1.200000e+001  1.733966e+000
    endloop
  endfacet
  facet normal  0.000000e+000  1.000000e+000  0.000000e+000
    outer loop
      vertex  2.386600e+000  1.200000e+001  1.733966e+000
      vertex  2.100000e+000  1.200000e+001  2.571758e-016
      vertex  1.484924e+000  1.200000e+001  1.484924e+000
    endloop
  endfacet
  facet normal  0.000000e+000  1.000000e+000  -0.000000e+000
    outer loop
      vertex  2.386600e+000  1.200000e+001  1.733966e+000
      vertex  1.484924e+000  1.200000e+001  1.484924e+000
      vertex -1.285879e-016  1.200000e+001  2.100000e+000
    endloop
  endfacet
  facet normal  3.826834e-001  0.000000e+000  9.238795e-001
    outer loop
      vertex  2.250938e-015  3.000000e+000 -2.100000e+000
      vertex -1.484924e+000  1.200000e+001 -1.484924e+000
      vertex -1.484924e+000  3.000000e+000 -1.484924e+000
    endloop
  endfacet
  facet normal  9.238795e-001  -0.000000e+000  3.826834e-001
    outer loop
      vertex -1.484924e+000  3.000000e+000 -1.484924e+000
      vertex -1.484924e+000  1.200000e+001 -1.484924e+000
      vertex -2.100000e+000  1.200000e+001  0.000000e+000
    endloop
  endfacet
  facet normal  9.238795e-001  0.000000e+000  3.826834e-001
    outer loop
      vertex -1.484924e+000  3.000000e+000 -1.484924e+000
      vertex -2.100000e+000  1.200000e+001  0.000000e+000
      vertex -2.100000e+000  3.000000e+000  0.000000e+000
    endloop
  endfacet
  facet normal  3.826834e-001  -0.000000e+000  9.238795e-001
    outer loop
      vertex -1.484924e+000  1.200000e+001 -1.484924e+000
      vertex  2.250938e-015  3.000000e+000 -2.100000e+000
      vertex  2.250938e-015  1.200000e+001 -2.100000e+000
    endloop
  endfacet
  facet normal -3.826834e-001  0.000000e+000  9.238795e-001
    outer loop
      vertex  2.250938e-015  1.200000e+001 -2.100000e+000
      vertex  2.250938e-015  3.000000e+000 -2.100000e+000
      vertex  1.484924e+000  3.000000e+000 -1.484924e+000
    endloop
  endfacet
  facet normal -3.826834e-001  0.000000e+000  9.238795e-001
    outer loop
      vertex  2.250938e-015  1.200000e+001 -2.100000e+000
      vertex  1.484924e+000  3.000000e+000 -1.484924e+000
      vertex  1.484924e+000  1.200000e+001 -1.484924e+000
    endloop
  endfacet
  facet normal -9.238795e-001  0.000000e+000  3.826834e-001
    outer loop
      vertex  1.484924e+000  1.200000e+001 -1.484924e+000
      vertex  1.484924e+000  3.000000e+000 -1.484924e+000
      vertex  2.100000e+000  3.000000e+000  2.571758e-016
    endloop
  endfacet
  facet normal -9.238795e-001  0.000000e+000  3.826834e-001
    outer loop
      vertex  1.484924e+000  1.200000e+001 -1.484924e+000
      vertex  2.100000e+000  3.000000e+000  2.571758e-016
      vertex  2.100000e+000  1.200000e+001  2.571758e-016
    endloop
  endfacet
  facet normal -3.826834e-001  -0.000000e+000 -9.238795e-001
    outer loop
      vertex -1.285879e-016  3.000000e+000  2.100000e+000
      vertex  1.484924e+000  1.200000e+001  1.484924e+000
      vertex  1.484924e+000  3.000000e+000  1.484924e+000
    endloop
  endfacet
  facet normal -9.238795e-001  0.000000e+000 -3.826834e-001
    outer loop
      vertex  1.484924e+000  3.000000e+000  1.484924e+000
      vertex  1.484924e+000  1.200000e+001  1.484924e+000
      vertex  2.100000e+000  1.200000e+001  2.571758e-016
    endloop
  endfacet
  facet normal -9.238795e-001  -0.000000e+000 -3.826834e-001
    outer loop
      vertex  1.484924e+000  3.000000e+000  1.484924e+000
      vertex  2.100000e+000  1.200000e+001  2.571758e-016
      vertex  2.100000e+000  3.000000e+000  2.571758e-016
    endloop
  endfacet
  facet normal -3.826834e-001  0.000000e+000 -9.238795e-001
    outer loop
      vertex  1.484924e+000  1.200000e+001  1.484924e+000
      vertex -1.285879e-016  3.000000e+000  2.100000e+000
      vertex -1.285879e-016  1.200000e+001  2.100000e+000
    endloop
  endfacet
  facet normal  3.826834e-001  0.000000e+000 -9.238795e-001
    outer loop
      vertex -1.285879e-016  1.200000e+001  2.100000e+000
      vertex -1.285879e-016  3.000000e+000  2.100000e+000
      vertex -1.484924e+000  3.000000e+000  1.484924e+000
    endloop
  endfacet
  facet normal  3.826834e-001  0.000000e+000 -9.238795e-001
    outer loop
      vertex -1.285879e-016  1.200000e+001  2.100000e+000
      vertex -1.484924e+000  3.000000e+000  1.484924e+000
      vertex -1.484924e+000  1.200000e+001  1.484924e+000
    endloop
  endfacet
  facet normal  9.238795e-001  0.000000e+000 -3.826834e-001
    outer loop
      vertex -1.484924e+000  1.200000e+001  1.484924e+000
      vertex -1.484924e+000  3.000000e+000  1.484924e+000
      vertex -2.100000e+000  3.000000e+000  0.000000e+000
    endloop
  endfacet
  facet normal  9.238795e-001  0.000000e+000 -3.826834e-001
    outer loop
      vertex -1.484924e+000  1.200000e+001  1.484924e+000
      vertex -2.100000e+000  3.000000e+000  0.000000e+000
      vertex -2.100000e+000  1.200000e+001  0.000000e+000
    endloop
  endfacet
  facet normal  0.000000e+000  1.000000e+000  0.000000e+000
    outer loop
      vertex  1.484924e+000  3.000000e+000  1.484924e+000
      vertex -1.484924e+000  3.000000e+000  1.484924e+000
      vertex -1.285879e-016  3.000000e+000  2.100000e+000
    endloop
  endfacet
  facet normal  0.000000e+000  1.000000e+000  0.000000e+000
    outer loop
      vertex -1.484924e+000  3.000000e+000  1.484924e+000
      vertex  1.484924e+000  3.000000e+000  1.484924e+000
      vertex -2.100000e+000  3.000000e+000  0.000000e+000
    endloop
  endfacet
  facet normal  0.000000e+000  1.000000e+000  0.000000e+000
    outer loop
      vertex -2.100000e+000  3.000000e+000  0.000000e+000
      vertex  1.484924e+000  3.000000e+000  1.484924e+000
      vertex  2.100000e+000  3.000000e+000  2.571758e-016
    endloop
  endfacet
  facet normal  0.000000e+000  1.000000e+000  0.000000e+000
    outer loop
      vertex -2.100000e+000  3.000000e+000  0.000000e+000
      vertex  2.100000e+000  3.000000e+000  2.571758e-016
      vertex -1.484924e+000  3.000000e+000 -1.484924e+000
    endloop
  endfacet
  facet normal  0.000000e+000  1.000000e+000  0.000000e+000
    outer loop
      vertex -1.484924e+000  3.000000e+000 -1.484924e+000
      vertex  2.100000e+000  3.000000e+000  2.571758e-016
      vertex  1.484924e+000  3.000000e+000 -1.484924e+000
    endloop
  endfacet
  facet normal  0.000000e+000  1.000000e+000  0.000000e+000
    outer loop
      vertex -1.484924e+000  3.000000e+000 -1.484924e+000
      vertex  1.484924e+000  3.000000e+000 -1.484924e+000
      vertex  2.250938e-015  3.000000e+000 -2.100000e+000
    endloop
  endfacet
  facet normal  0.000000e+000  1.000000e+000  0.000000e+000
    outer loop
      vertex -9.500000e-001  3.000000e+000  7.500000e+000
      vertex -7.071068e+000  3.000000e+000  7.071068e+000
      vertex -6.717514e-001  3.000000e+000  8.171751e+000
    endloop
  endfacet
  facet normal  0.000000e+000  1.000000e+000  0.000000e+000
    outer loop
      vertex  9.500000e-001  3.000000e+000  7.500000e+000
      vertex  6.717514e-001  3.000000e+000  8.171751e+000
      vertex  7.071068e+000  3.000000e+000  7.071068e+000
    endloop
  endfacet
  facet normal  0.000000e+000  1.000000e+000  0.000000e+000
    outer loop
      vertex  1.836970e-015  3.000000e+000 -1.000000e+001
      vertex  9.116001e-001  3.000000e+000 -2.805617e+000
      vertex  7.071068e+000  3.000000e+000 -7.071068e+000
    endloop
  endfacet
  facet normal  0.000000e+000  1.000000e+000  0.000000e+000
    outer loop
      vertex  1.745122e-016  3.000000e+000  6.550000e+000
      vertex  9.238795e+000  3.000000e+000  3.826834e+000
      vertex  9.116001e-001  3.000000e+000  2.805617e+000
    endloop
  endfacet
  facet normal  0.000000e+000  1.000000e+000  0.000000e+000
    outer loop
      vertex -5.817072e-017  3.000000e+000  8.450000e+000
      vertex  7.071068e+000  3.000000e+000  7.071068e+000
      vertex  6.717514e-001  3.000000e+000  8.171751e+000
    endloop
  endfacet
  facet normal  0.000000e+000  1.000000e+000  0.000000e+000
    outer loop
      vertex  1.836970e-015  3.000000e+000 -1.000000e+001
      vertex  7.071068e+000  3.000000e+000 -7.071068e+000
      vertex  3.826834e+000  3.000000e+000 -9.238795e+000
    endloop
  endfacet
  facet normal  0.000000e+000  1.000000e+000  0.000000e+000
    outer loop
      vertex -7.071068e+000  3.000000e+000  7.071068e+000
      vertex -5.817072e-017  3.000000e+000  8.450000e+000
      vertex -6.717514e-001  3.000000e+000  8.171751e+000
    endloop
  endfacet
  facet normal  0.000000e+000  1.000000e+000  0.000000e+000
    outer loop
      vertex -9.238795e+000  3.000000e+000 -3.826834e+000
      vertex -2.386600e+000  3.000000e+000 -1.733966e+000
      vertex -9.116001e-001  3.000000e+000 -2.805617e+000
    endloop
  endfacet
  facet normal  0.000000e+000  1.000000e+000  0.000000e+000
    outer loop
      vertex -1.000000e+001  3.000000e+000  0.000000e+000
      vertex -9.238795e+000  3.000000e+000  3.826834e+000
      vertex -9.116001e-001  3.000000e+000  2.805617e+000
    endloop
  endfacet
  facet normal  0.000000e+000  1.000000e+000  0.000000e+000
    outer loop
      vertex -1.000000e+001  3.000000e+000  0.000000e+000
      vertex -9.116001e-001  3.000000e+000  2.805617e+000
      vertex -2.386600e+000  3.000000e+000  1.733966e+000
    endloop
  endfacet
  facet normal  0.000000e+000  1.000000e+000  0.000000e+000
    outer loop
      vertex -1.000000e+001  3.000000e+000  0.000000e+000
      vertex -2.386600e+000  3.000000e+000  1.733966e+000
      vertex -2.950000e+000  3.000000e+000  0.000000e+000
    endloop
  endfacet
  facet normal  0.000000e+000  1.000000e+000  0.000000e+000
    outer loop
      vertex -1.000000e+001  3.000000e+000  0.000000e+000
      vertex -2.950000e+000  3.000000e+000  0.000000e+000
      vertex -2.386600e+000  3.000000e+000 -1.733966e+000
    endloop
  endfacet
  facet normal  0.000000e+000  1.000000e+000  0.000000e+000
    outer loop
      vertex -1.000000e+001  3.000000e+000  0.000000e+000
      vertex -2.386600e+000  3.000000e+000 -1.733966e+000
      vertex -9.238795e+000  3.000000e+000 -3.826834e+000
    endloop
  endfacet
  facet normal  0.000000e+000  1.000000e+000  -0.000000e+000
    outer loop
      vertex  1.000000e+001  3.000000e+000  1.224647e-015
      vertex  2.950000e+000  3.000000e+000  3.612708e-016
      vertex  2.386600e+000  3.000000e+000  1.733966e+000
    endloop
  endfacet
  facet normal  -0.000000e+000  1.000000e+000  -0.000000e+000
    outer loop
      vertex  1.000000e+001  3.000000e+000  1.224647e-015
      vertex  2.386600e+000  3.000000e+000  1.733966e+000
      vertex  9.116001e-001  3.000000e+000  2.805617e+000
    endloop
  endfacet
  facet normal  -0.000000e+000  1.000000e+000  0.000000e+000
    outer loop
      vertex  1.000000e+001  3.000000e+000  1.224647e-015
      vertex  9.116001e-001  3.000000e+000  2.805617e+000
      vertex  9.238795e+000  3.000000e+000  3.826834e+000
    endloop
  endfacet
  facet normal  0.000000e+000  1.000000e+000  -0.000000e+000
    outer loop
      vertex  9.238795e+000  3.000000e+000 -3.826834e+000
      vertex  7.071068e+000  3.000000e+000 -7.071068e+000
      vertex  9.116001e-001  3.000000e+000 -2.805617e+000
    endloop
  endfacet
  facet normal  -0.000000e+000  1.000000e+000  0.000000e+000
    outer loop
      vertex  9.238795e+000  3.000000e+000 -3.826834e+000
      vertex  9.116001e-001  3.000000e+000 -2.805617e+000
      vertex  2.386600e+000  3.000000e+000 -1.733966e+000
    endloop
  endfacet
  facet normal  -0.000000e+000  9.999999e-001  0.000000e+000
    outer loop
      vertex  9.238795e+000  3.000000e+000 -3.826834e+000
      vertex  2.386600e+000  3.000000e+000 -1.733966e+000
      vertex  2.950000e+000  3.000000e+000  3.612708e-016
    endloop
  endfacet
  facet normal  -0.000000e+000  1.000000e+000  0.000000e+000
    outer loop
      vertex  9.238795e+000  3.000000e+000 -3.826834e+000
      vertex  2.950000e+000  3.000000e+000  3.612708e-016
      vertex  1.000000e+001  3.000000e+000  1.224647e-015
    endloop
  endfacet
  facet normal  0.000000e+000  1.000000e+000  0.000000e+000
    outer loop
      vertex -3.826834e+000  3.000000e+000 -9.238795e+000
      vertex -7.071068e+000  3.000000e+000 -7.071068e+000
      vertex  1.836970e-015  3.000000e+000 -1.000000e+001
    endloop
  endfacet
  facet normal  0.000000e+000  1.000000e+000  0.000000e+000
    outer loop
      vertex  1.836970e-015  3.000000e+000 -1.000000e+001
      vertex -7.071068e+000  3.000000e+000 -7.071068e+000
      vertex -9.238795e+000  3.000000e+000 -3.826834e+000
    endloop
  endfacet
  facet normal  -0.000000e+000  1.000000e+000  0.000000e+000
    outer loop
      vertex  1.836970e-015  3.000000e+000 -1.000000e+001
      vertex -9.238795e+000  3.000000e+000 -3.826834e+000
      vertex  9.116001e-001  3.000000e+000 -2.805617e+000
    endloop
  endfacet
  facet normal  0.000000e+000  1.000000e+000  0.000000e+000
    outer loop
      vertex  9.116001e-001  3.000000e+000 -2.805617e+000
      vertex -9.238795e+000  3.000000e+000 -3.826834e+000
      vertex -9.116001e-001  3.000000e+000 -2.805617e+000
    endloop
  endfacet
  facet normal  0.000000e+000  9.999999e-001  0.000000e+000
    outer loop
      vertex  9.116001e-001  3.000000e+000  2.805617e+000
      vertex -9.116001e-001  3.000000e+000  2.805617e+000
      vertex  1.745122e-016  3.000000e+000  6.550000e+000
    endloop
  endfacet
  facet normal  0.000000e+000  1.000000e+000  0.000000e+000
    outer loop
      vertex  1.745122e-016  3.000000e+000  6.550000e+000
      vertex -9.116001e-001  3.000000e+000  2.805617e+000
      vertex -9.238795e+000  3.000000e+000  3.826834e+000
    endloop
  endfacet
  facet normal  0.000000e+000  1.000000e+000  0.000000e+000
    outer loop
      vertex  1.745122e-016  3.000000e+000  6.550000e+000
      vertex -9.238795e+000  3.000000e+000  3.826834e+000
      vertex -6.717514e-001  3.000000e+000  6.828249e+000
    endloop
  endfacet
  facet normal  0.000000e+000  1.000000e+000  0.000000e+000
    outer loop
      vertex -6.717514e-001  3.000000e+000  6.828249e+000
      vertex -9.238795e+000  3.000000e+000  3.826834e+000
      vertex -7.071068e+000  3.000000e+000  7.071068e+000
    endloop
  endfacet
  facet normal  -0.000000e+000  1.000000e+000  0.000000e+000
    outer loop
      vertex -6.717514e-001  3.000000e+000  6.828249e+000
      vertex -7.071068e+000  3.000000e+000  7.071068e+000
      vertex -9.500000e-001  3.000000e+000  7.500000e+000
    endloop
  endfacet
  facet normal  0.000000e+000  1.000000e+000  0.000000e+000
    outer loop
      vertex  3.826834e+000  3.000000e+000  9.238795e+000
      vertex  7.071068e+000  3.000000e+000  7.071068e+000
      vertex -6.123234e-016  3.000000e+000  1.000000e+001
    endloop
  endfacet
  facet normal  0.000000e+000  1.000000e+000  0.000000e+000
    outer loop
      vertex -6.123234e-016  3.000000e+000  1.000000e+001
      vertex  7.071068e+000  3.000000e+000  7.071068e+000
      vertex -5.817072e-017  3.000000e+000  8.450000e+000
    endloop
  endfacet
  facet normal  0.000000e+000  9.999999e-001  0.000000e+000
    outer loop
      vertex -6.123234e-016  3.000000e+000  1.000000e+001
      vertex -5.817072e-017  3.000000e+000  8.450000e+000
      vertex -3.826834e+000  3.000000e+000  9.238795e+000
    endloop
  endfacet
  facet normal  0.000000e+000  1.000000e+000  0.000000e+000
    outer loop
      vertex -3.826834e+000  3.000000e+000  9.238795e+000
      vertex -5.817072e-017  3.000000e+000  8.450000e+000
      vertex -7.071068e+000  3.000000e+000  7.071068e+000
    endloop
  endfacet
  facet normal  -0.000000e+000  1.000000e+000  0.000000e+000
    outer loop
      vertex  9.238795e+000  3.000000e+000  3.826834e+000
      vertex  1.745122e-016  3.000000e+000  6.550000e+000
      vertex  7.071068e+000  3.000000e+000  7.071068e+000
    endloop
  endfacet
  facet normal  0.000000e+000  1.000000e+000  0.000000e+000
    outer loop
      vertex  7.071068e+000  3.000000e+000  7.071068e+000
      vertex  1.745122e-016  3.000000e+000  6.550000e+000
      vertex  6.717514e-001  3.000000e+000  6.828249e+000
    endloop
  endfacet
  facet normal  0.000000e+000  1.000000e+000  0.000000e+000
    outer loop
      vertex  7.071068e+000  3.000000e+000  7.071068e+000
      vertex  6.717514e-001  3.000000e+000  6.828249e+000
      vertex  9.500000e-001  3.000000e+000  7.500000e+000
    endloop
  endfacet
  facet normal -9.238796e-001  -0.000000e+000 -3.826834e-001
    outer loop
      vertex -9.500000e-001  3.000000e+000  7.500000e+000
      vertex -9.500000e-001  9.000000e+000  7.500000e+000
      vertex -6.717514e-001  3.000000e+000  6.828249e+000
    endloop
  endfacet
  facet normal -9.238796e-001  0.000000e+000 -3.826834e-001
    outer loop
      vertex -6.717514e-001  3.000000e+000  6.828249e+000
      vertex -9.500000e-001  9.000000e+000  7.500000e+000
      vertex -6.717514e-001  9.000000e+000  6.828249e+000
    endloop
  endfacet
  facet normal -3.826832e-001  -0.000000e+000 -9.238797e-001
    outer loop
      vertex -6.717514e-001  3.000000e+000  6.828249e+000
      vertex -6.717514e-001  9.000000e+000  6.828249e+000
      vertex  1.745122e-016  3.000000e+000  6.550000e+000
    endloop
  endfacet
  facet normal -3.826832e-001  0.000000e+000 -9.238797e-001
    outer loop
      vertex  1.745122e-016  3.000000e+000  6.550000e+000
      vertex -6.717514e-001  9.000000e+000  6.828249e+000
      vertex  1.745122e-016  9.000000e+000  6.550000e+000
    endloop
  endfacet
  facet normal  3.826832e-001  0.000000e+000 -9.238797e-001
    outer loop
      vertex  1.745122e-016  3.000000e+000  6.550000e+000
      vertex  1.745122e-016  9.000000e+000  6.550000e+000
      vertex  6.717514e-001  3.000000e+000  6.828249e+000
    endloop
  endfacet
  facet normal  3.826832e-001  0.000000e+000 -9.238797e-001
    outer loop
      vertex  6.717514e-001  3.000000e+000  6.828249e+000
      vertex  1.745122e-016  9.000000e+000  6.550000e+000
      vertex  6.717514e-001  9.000000e+000  6.828249e+000
    endloop
  endfacet
  facet normal  9.238796e-001  0.000000e+000 -3.826834e-001
    outer loop
      vertex  6.717514e-001  3.000000e+000  6.828249e+000
      vertex  6.717514e-001  9.000000e+000  6.828249e+000
      vertex  9.500000e-001  3.000000e+000  7.500000e+000
    endloop
  endfacet
  facet normal  9.238796e-001  0.000000e+000 -3.826834e-001
    outer loop
      vertex  9.500000e-001  3.000000e+000  7.500000e+000
      vertex  6.717514e-001  9.000000e+000  6.828249e+000
      vertex  9.500000e-001  9.000000e+000  7.500000e+000
    endloop
  endfacet
  facet normal  9.238794e-001  0.000000e+000  3.826836e-001
    outer loop
      vertex  9.500000e-001  3.000000e+000  7.500000e+000
      vertex  9.500000e-001  9.000000e+000  7.500000e+000
      vertex  6.717514e-001  3.000000e+000  8.171751e+000
    endloop
  endfacet
  facet normal  9.238794e-001  -0.000000e+000  3.826836e-001
    outer loop
      vertex  6.717514e-001  3.000000e+000  8.171751e+000
      vertex  9.500000e-001  9.000000e+000  7.500000e+000
      vertex  6.717514e-001  9.000000e+000  8.171751e+000
    endloop
  endfacet
  facet normal  3.826837e-001  0.000000e+000  9.238794e-001
    outer loop
      vertex  6.717514e-001  3.000000e+000  8.171751e+000
      vertex  6.717514e-001  9.000000e+000  8.171751e+000
      vertex -5.817072e-017  3.000000e+000  8.450000e+000
    endloop
  endfacet
  facet normal  3.826837e-001  -0.000000e+000  9.238794e-001
    outer loop
      vertex -5.817072e-017  3.000000e+000  8.450000e+000
      vertex  6.717514e-001  9.000000e+000  8.171751e+000
      vertex -5.817072e-017  9.000000e+000  8.450000e+000
    endloop
  endfacet
  facet normal -3.826837e-001  0.000000e+000  9.238794e-001
    outer loop
      vertex -5.817072e-017  3.000000e+000  8.450000e+000
      vertex -5.817072e-017  9.000000e+000  8.450000e+000
      vertex -6.717514e-001  3.000000e+000  8.171751e+000
    endloop
  endfacet
  facet normal -3.826837e-001  0.000000e+000  9.238794e-001
    outer loop
      vertex -6.717514e-001  3.000000e+000  8.171751e+000
      vertex -5.817072e-017  9.000000e+000  8.450000e+000
      vertex -6.717514e-001  9.000000e+000  8.171751e+000
    endloop
  endfacet
  facet normal -9.238794e-001  0.000000e+000  3.826836e-001
    outer loop
      vertex -6.717514e-001  3.000000e+000  8.171751e+000
      vertex -6.717514e-001  9.000000e+000  8.171751e+000
      vertex -9.500000e-001  3.000000e+000  7.500000e+000
    endloop
  endfacet
  facet normal -9.238794e-001  0.000000e+000  3.826836e-001
    outer loop
      vertex -9.500000e-001  3.000000e+000  7.500000e+000
      vertex -6.717514e-001  9.000000e+000  8.171751e+000
      vertex -9.500000e-001  9.000000e+000  7.500000e+000
    endloop
  endfacet
  facet normal  0.000000e+000  1.000000e+000  0.000000e+000
    outer loop
      vertex  6.717514e-001  9.000000e+000  8.171751e+000
      vertex -6.717514e-001  9.000000e+000  8.171751e+000
      vertex -5.817072e-017  9.000000e+000  8.450000e+000
    endloop
  endfacet
  facet normal  0.000000e+000  9.999999e-001  0.000000e+000
    outer loop
      vertex -6.717514e-001  9.000000e+000  8.171751e+000
      vertex  6.717514e-001  9.000000e+000  8.171751e+000
      vertex -9.500000e-001  9.000000e+000  7.500000e+000
    endloop
  endfacet
  facet normal  0.000000e+000  1.000000e+000  0.000000e+000
    outer loop
      vertex -9.500000e-001  9.000000e+000  7.500000e+000
      vertex  6.717514e-001  9.000000e+000  8.171751e+000
      vertex  9.500000e-001  9.000000e+000  7.500000e+000
    endloop
  endfacet
  facet normal  0.000000e+000  1.000000e+000  0.000000e+000
    outer loop
      vertex -9.500000e-001  9.000000e+000  7.500000e+000
      vertex  9.500000e-001  9.000000e+000  7.500000e+000
      vertex -6.717514e-001  9.000000e+000  6.828249e+000
    endloop
  endfacet
  facet normal  0.000000e+000  1.000000e+000  0.000000e+000
    outer loop
      vertex -6.717514e-001  9.000000e+000  6.828249e+000
      vertex  9.500000e-001  9.000000e+000  7.500000e+000
      vertex  6.717514e-001  9.000000e+000  6.828249e+000
    endloop
  endfacet
  facet normal  0.000000e+000  1.000000e+000  0.000000e+000
    outer loop
      vertex -6.717514e-001  9.000000e+000  6.828249e+000
      vertex  6.717514e-001  9.000000e+000  6.828249e+000
      vertex  1.745122e-016  9.000000e+000  6.550000e+000
    endloop
  endfacet
  facet normal -9.510565e-001  -0.000000e+000 -3.090171e-001
    outer loop
      vertex -2.950000e+000  3.000000e+000  0.000000e+000
      vertex -2.950000e+000  1.200000e+001  0.000000e+000
      vertex -2.386600e+000  3.000000e+000 -1.733966e+000
    endloop
  endfacet
  facet normal -9.510565e-001  0.000000e+000 -3.090171e-001
    outer loop
      vertex -2.386600e+000  3.000000e+000 -1.733966e+000
      vertex -2.950000e+000  1.200000e+001  0.000000e+000
      vertex -2.386600e+000  1.200000e+001 -1.733966e+000
    endloop
  endfacet
  facet normal -5.877852e-001  -0.000000e+000 -8.090169e-001
    outer loop
      vertex -2.386600e+000  3.000000e+000 -1.733966e+000
      vertex -2.386600e+000  1.200000e+001 -1.733966e+000
      vertex -9.116001e-001  3.000000e+000 -2.805617e+000
    endloop
  endfacet
  facet normal -5.877852e-001  0.000000e+000 -8.090169e-001
    outer loop
      vertex -9.116001e-001  3.000000e+000 -2.805617e+000
      vertex -2.386600e+000  1.200000e+001 -1.733966e+000
      vertex -9.116001e-001  1.200000e+001 -2.805617e+000
    endloop
  endfacet
  facet normal  0.000000e+000  0.000000e+000 -1.000000e+000
    outer loop
      vertex -9.116001e-001  3.000000e+000 -2.805617e+000
      vertex -9.116001e-001  1.200000e+001 -2.805617e+000
      vertex  9.116001e-001  3.000000e+000 -2.805617e+000
    endloop
  endfacet
  facet normal  0.000000e+000  0.000000e+000 -1.000000e+000
    outer loop
      vertex  9.116001e-001  3.000000e+000 -2.805617e+000
      vertex -9.116001e-001  1.200000e+001 -2.805617e+000
      vertex  9.116001e-001  1.200000e+001 -2.805617e+000
    endloop
  endfacet
  facet normal  5.877852e-001  0.000000e+000 -8.090169e-001
    outer loop
      vertex  9.116001e-001  3.000000e+000 -2.805617e+000
      vertex  9.116001e-001  1.200000e+001 -2.805617e+000
      vertex  2.386600e+000  3.000000e+000 -1.733966e+000
    endloop
  endfacet
  facet normal  5.877852e-001  0.000000e+000 -8.090169e-001
    outer loop
      vertex  2.386600e+000  3.000000e+000 -1.733966e+000
      vertex  9.116001e-001  1.200000e+001 -2.805617e+000
      vertex  2.386600e+000  1.200000e+001 -1.733966e+000
    endloop
  endfacet
  facet normal  9.510565e-001  0.000000e+000 -3.090171e-001
    outer loop
      vertex  2.386600e+000  3.000000e+000 -1.733966e+000
      vertex  2.386600e+000  1.200000e+001 -1.733966e+000
      vertex  2.950000e+000  3.000000e+000  3.612708e-016
    endloop
  endfacet
  facet normal  9.510565e-001  0.000000e+000 -3.090171e-001
    outer loop
      vertex  2.950000e+000  3.000000e+000  3.612708e-016
      vertex  2.386600e+000  1.200000e+001 -1.733966e+000
      vertex  2.950000e+000  1.200000e+001  3.612708e-016
    endloop
  endfacet
  facet normal  9.510565e-001  0.000000e+000  3.090171e-001
    outer loop
      vertex  2.950000e+000  3.000000e+000  3.612708e-016
      vertex  2.950000e+000  1.200000e+001  3.612708e-016
      vertex  2.386600e+000  3.000000e+000  1.733966e+000
    endloop
  endfacet
  facet normal  9.510565e-001  -0.000000e+000  3.090171e-001
    outer loop
      vertex  2.386600e+000  3.000000e+000  1.733966e+000
      vertex  2.950000e+000  1.200000e+001  3.612708e-016
      vertex  2.386600e+000  1.200000e+001  1.733966e+000
    endloop
  endfacet
  facet normal  5.877852e-001  0.000000e+000  8.090169e-001
    outer loop
      vertex  2.386600e+000  3.000000e+000  1.733966e+000
      vertex  2.386600e+000  1.200000e+001  1.733966e+000
      vertex  9.116001e-001  3.000000e+000  2.805617e+000
    endloop
  endfacet
  facet normal  5.877852e-001  -0.000000e+000  8.090169e-001
    outer loop
      vertex  9.116001e-001  3.000000e+000  2.805617e+000
      vertex  2.386600e+000  1.200000e+001  1.733966e+000
      vertex  9.116001e-001  1.200000e+001  2.805617e+000
    endloop
  endfacet
  facet normal  0.000000e+000  0.000000e+000  1.000000e+000
    outer loop
      vertex  9.116001e-001  3.000000e+000  2.805617e+000
      vertex  9.116001e-001  1.200000e+001  2.805617e+000
      vertex -9.116001e-001  3.000000e+000  2.805617e+000
    endloop
  endfacet
  facet normal  0.000000e+000  0.000000e+000  1.000000e+000
    outer loop
      vertex -9.116001e-001  3.000000e+000  2.805617e+000
      vertex  9.116001e-001  1.200000e+001  2.805617e+000
      vertex -9.116001e-001  1.200000e+001  2.805617e+000
    endloop
  endfacet
  facet normal -5.877852e-001  0.000000e+000  8.090169e-001
    outer loop
      vertex -9.116001e-001  3.000000e+000  2.805617e+000
      vertex -9.116001e-001  1.200000e+001  2.805617e+000
      vertex -2.386600e+000  3.000000e+000  1.733966e+000
    endloop
  endfacet
  facet normal -5.877852e-001  0.000000e+000  8.090169e-001
    outer loop
      vertex -2.386600e+000  3.000000e+000  1.733966e+000
      vertex -9.116001e-001  1.200000e+001  2.805617e+000
      vertex -2.386600e+000  1.200000e+001  1.733966e+000
    endloop
  endfacet
  facet normal -9.510565e-001  0.000000e+000  3.090171e-001
    outer loop
      vertex -2.386600e+000  3.000000e+000  1.733966e+000
      vertex -2.386600e+000  1.200000e+001  1.733966e+000
      vertex -2.950000e+000  3.000000e+000  0.000000e+000
    endloop
  endfacet
  facet normal -9.510565e-001  0.000000e+000  3.090171e-001
    outer loop
      vertex -2.950000e+000  3.000000e+000  0.000000e+000
      vertex -2.386600e+000  1.200000e+001  1.733966e+000
      vertex -2.950000e+000  1.200000e+001  0.000000e+000
    endloop
  endfacet
  facet normal  0.000000e+000 -1.000000e+000  0.000000e+000
    outer loop
      vertex -7.071068e+000  0.000000e+000  7.071068e+000
      vertex  1.614679e-015  0.000000e+000  5.700000e+000
      vertex -3.826834e+000  0.000000e+000  9.238795e+000
    endloop
  endfacet
  facet normal  0.000000e+000 -1.000000e+000  0.000000e+000
    outer loop
      vertex -3.826834e+000  0.000000e+000  9.238795e+000
      vertex  1.614679e-015  0.000000e+000  5.700000e+000
      vertex -6.123234e-016  0.000000e+000  1.000000e+001
    endloop
  endfacet
  facet normal  -0.000000e+000 -1.000000e+000  0.000000e+000
    outer loop
      vertex  1.614679e-015  0.000000e+000  5.700000e+000
      vertex  7.071068e+000  0.000000e+000  7.071068e+000
      vertex -6.123234e-016  0.000000e+000  1.000000e+001
    endloop
  endfacet
  facet normal  0.000000e+000 -1.000000e+000  0.000000e+000
    outer loop
      vertex -6.123234e-016  0.000000e+000  1.000000e+001
      vertex  7.071068e+000  0.000000e+000  7.071068e+000
      vertex  3.826834e+000  0.000000e+000  9.238795e+000
    endloop
  endfacet
  facet normal  -0.000000e+000 -9.999999e-001  0.000000e+000
    outer loop
      vertex  4.936345e+000  0.000000e+000  2.850000e+000
      vertex  9.238795e+000  0.000000e+000  3.826834e+000
      vertex  2.850000e+000  0.000000e+000  4.936345e+000
    endloop
  endfacet
  facet normal  0.000000e+000 -9.999999e-001  0.000000e+000
    outer loop
      vertex  2.850000e+000  0.000000e+000  4.936345e+000
      vertex  9.238795e+000  0.000000e+000  3.826834e+000
      vertex  7.071068e+000  0.000000e+000  7.071068e+000
    endloop
  endfacet
  facet normal  0.000000e+000 -1.000000e+000  0.000000e+000
    outer loop
      vertex  2.850000e+000  0.000000e+000  4.936345e+000
      vertex  7.071068e+000  0.000000e+000  7.071068e+000
      vertex  1.614679e-015  0.000000e+000  5.700000e+000
    endloop
  endfacet
  facet normal  0.000000e+000 -1.000000e+000  0.000000e+000
    outer loop
      vertex -1.117231e-014  0.000000e+000 -5.700000e+000
      vertex  7.071068e+000  0.000000e+000 -7.071068e+000
      vertex  2.850000e+000  0.000000e+000 -4.936345e+000
    endloop
  endfacet
  facet normal  0.000000e+000 -9.999999e-001  0.000000e+000
    outer loop
      vertex  2.850000e+000  0.000000e+000 -4.936345e+000
      vertex  7.071068e+000  0.000000e+000 -7.071068e+000
      vertex  9.238795e+000  0.000000e+000 -3.826834e+000
    endloop
  endfacet
  facet normal  -0.000000e+000 -9.999999e-001  0.000000e+000
    outer loop
      vertex  2.850000e+000  0.000000e+000 -4.936345e+000
      vertex  9.238795e+000  0.000000e+000 -3.826834e+000
      vertex  4.936345e+000  0.000000e+000 -2.850000e+000
    endloop
  endfacet
  facet normal  0.000000e+000 -1.000000e+000  0.000000e+000
    outer loop
      vertex  4.936345e+000  0.000000e+000 -2.850000e+000
      vertex  9.238795e+000  0.000000e+000 -3.826834e+000
      vertex  1.000000e+001  0.000000e+000  1.224647e-015
    endloop
  endfacet
  facet normal  0.000000e+000 -1.000000e+000  0.000000e+000
    outer loop
      vertex  4.936345e+000  0.000000e+000 -2.850000e+000
      vertex  1.000000e+001  0.000000e+000  1.224647e-015
      vertex  5.700000e+000  0.000000e+000  0.000000e+000
    endloop
  endfacet
  facet normal  0.000000e+000 -1.000000e+000  0.000000e+000
    outer loop
      vertex  5.700000e+000  0.000000e+000  0.000000e+000
      vertex  1.000000e+001  0.000000e+000  1.224647e-015
      vertex  9.238795e+000  0.000000e+000  3.826834e+000
    endloop
  endfacet
  facet normal  0.000000e+000 -9.999999e-001  0.000000e+000
    outer loop
      vertex  5.700000e+000  0.000000e+000  0.000000e+000
      vertex  9.238795e+000  0.000000e+000  3.826834e+000
      vertex  4.936345e+000  0.000000e+000  2.850000e+000
    endloop
  endfacet
  facet normal  0.000000e+000 -1.000000e+000  0.000000e+000
    outer loop
      vertex -3.826834e+000  0.000000e+000 -9.238795e+000
      vertex  1.836970e-015  0.000000e+000 -1.000000e+001
      vertex -7.071068e+000  0.000000e+000 -7.071068e+000
    endloop
  endfacet
  facet normal  0.000000e+000 -1.000000e+000  0.000000e+000
    outer loop
      vertex -7.071068e+000  0.000000e+000 -7.071068e+000
      vertex  1.836970e-015  0.000000e+000 -1.000000e+001
      vertex -1.117231e-014  0.000000e+000 -5.700000e+000
    endloop
  endfacet
  facet normal  -0.000000e+000 -1.000000e+000  0.000000e+000
    outer loop
      vertex  1.836970e-015  0.000000e+000 -1.000000e+001
      vertex  3.826834e+000  0.000000e+000 -9.238795e+000
      vertex -1.117231e-014  0.000000e+000 -5.700000e+000
    endloop
  endfacet
  facet normal  0.000000e+000 -1.000000e+000  0.000000e+000
    outer loop
      vertex -1.117231e-014  0.000000e+000 -5.700000e+000
      vertex  3.826834e+000  0.000000e+000 -9.238795e+000
      vertex  7.071068e+000  0.000000e+000 -7.071068e+000
    endloop
  endfacet
  facet normal  0.000000e+000 -1.000000e+000  0.000000e+000
    outer loop
      vertex -4.936345e+000  0.000000e+000  2.850000e+000
      vertex -2.850000e+000  0.000000e+000  4.936345e+000
      vertex -9.238795e+000  0.000000e+000  3.826834e+000
    endloop
  endfacet
  facet normal  0.000000e+000 -9.999999e-001  0.000000e+000
    outer loop
      vertex -9.238795e+000  0.000000e+000  3.826834e+000
      vertex -2.850000e+000  0.000000e+000  4.936345e+000
      vertex  1.614679e-015  0.000000e+000  5.700000e+000
    endloop
  endfacet
  facet normal  -0.000000e+000 -1.000000e+000  0.000000e+000
    outer loop
      vertex -9.238795e+000  0.000000e+000  3.826834e+000
      vertex  1.614679e-015  0.000000e+000  5.700000e+000
      vertex -7.071068e+000  0.000000e+000  7.071068e+000
    endloop
  endfacet
  facet normal  0.000000e+000 -1.000000e+000  -0.000000e+000
    outer loop
      vertex -1.117231e-014  0.000000e+000 -5.700000e+000
      vertex -2.850000e+000  0.000000e+000 -4.936345e+000
      vertex -7.071068e+000  0.000000e+000 -7.071068e+000
    endloop
  endfacet
  facet normal  0.000000e+000 -1.000000e+000  0.000000e+000
    outer loop
      vertex -7.071068e+000  0.000000e+000 -7.071068e+000
      vertex -2.850000e+000  0.000000e+000 -4.936345e+000
      vertex -4.936345e+000  0.000000e+000 -2.850000e+000
    endloop
  endfacet
  facet normal  0.000000e+000 -1.000000e+000  0.000000e+000
    outer loop
      vertex -7.071068e+000  0.000000e+000 -7.071068e+000
      vertex -4.936345e+000  0.000000e+000 -2.850000e+000
      vertex -9.238795e+000  0.000000e+000 -3.826834e+000
    endloop
  endfacet
  facet normal  0.000000e+000 -9.999999e-001  0.000000e+000
    outer loop
      vertex -9.238795e+000  0.000000e+000 -3.826834e+000
      vertex -4.936345e+000  0.000000e+000 -2.850000e+000
      vertex -5.700000e+000  0.000000e+000  3.229357e-015
    endloop
  endfacet
  facet normal  0.000000e+000 -1.000000e+000  0.000000e+000
    outer loop
      vertex -9.238795e+000  0.000000e+000 -3.826834e+000
      vertex -5.700000e+000  0.000000e+000  3.229357e-015
      vertex -1.000000e+001  0.000000e+000  0.000000e+000
    endloop
  endfacet
  facet normal  0.000000e+000 -1.000000e+000  0.000000e+000
    outer loop
      vertex -1.000000e+001  0.000000e+000  0.000000e+000
      vertex -5.700000e+000  0.000000e+000  3.229357e-015
      vertex -4.936345e+000  0.000000e+000  2.850000e+000
    endloop
  endfacet
  facet normal  -0.000000e+000 -1.000000e+000  0.000000e+000
    outer loop
      vertex -1.000000e+001  0.000000e+000  0.000000e+000
      vertex -4.936345e+000  0.000000e+000  2.850000e+000
      vertex -9.238795e+000  0.000000e+000  3.826834e+000
    endloop
  endfacet
  facet normal -2.588191e-001  0.000000e+000  9.659259e-001
    outer loop
      vertex -1.047073e-015  2.000000e+000 -5.700000e+000
      vertex  2.850000e+000  0.000000e+000 -4.936345e+000
      vertex  2.850000e+000  2.000000e+000 -4.936345e+000
    endloop
  endfacet
  facet normal -7.071068e-001  0.000000e+000  7.071068e-001
    outer loop
      vertex  2.850000e+000  2.000000e+000 -4.936345e+000
      vertex  2.850000e+000  0.000000e+000 -4.936345e+000
      vertex  4.936345e+000  0.000000e+000 -2.850000e+000
    endloop
  endfacet
  facet normal -7.071068e-001  0.000000e+000  7.071068e-001
    outer loop
      vertex  2.850000e+000  2.000000e+000 -4.936345e+000
      vertex  4.936345e+000  0.000000e+000 -2.850000e+000
      vertex  4.936345e+000  2.000000e+000 -2.850000e+000
    endloop
  endfacet
  facet normal -9.659259e-001  0.000000e+000  2.588191e-001
    outer loop
      vertex  4.936345e+000  2.000000e+000 -2.850000e+000
      vertex  4.936345e+000  0.000000e+000 -2.850000e+000
      vertex  5.700000e+000  0.000000e+000  0.000000e+000
    endloop
  endfacet
  facet normal -9.659259e-001  0.000000e+000  2.588191e-001
    outer loop
      vertex  4.936345e+000  2.000000e+000 -2.850000e+000
      vertex  5.700000e+000  0.000000e+000  0.000000e+000
      vertex  5.700000e+000  2.000000e+000  0.000000e+000
    endloop
  endfacet
  facet normal -2.588191e-001  1.310302e-015  9.659259e-001
    outer loop
      vertex  2.850000e+000  0.000000e+000 -4.936345e+000
      vertex -1.047073e-015  2.000000e+000 -5.700000e+000
      vertex -1.117231e-014  0.000000e+000 -5.700000e+000
    endloop
  endfacet
  facet normal  2.588191e-001 -1.310302e-015  9.659259e-001
    outer loop
      vertex -1.117231e-014  0.000000e+000 -5.700000e+000
      vertex -1.047073e-015  2.000000e+000 -5.700000e+000
      vertex -2.850000e+000  2.000000e+000 -4.936345e+000
    endloop
  endfacet
  facet normal  2.588191e-001  0.000000e+000  9.659259e-001
    outer loop
      vertex -1.117231e-014  0.000000e+000 -5.700000e+000
      vertex -2.850000e+000  2.000000e+000 -4.936345e+000
      vertex -2.850000e+000  0.000000e+000 -4.936345e+000
    endloop
  endfacet
  facet normal  7.071068e-001  -0.000000e+000  7.071068e-001
    outer loop
      vertex -2.850000e+000  0.000000e+000 -4.936345e+000
      vertex -2.850000e+000  2.000000e+000 -4.936345e+000
      vertex -4.936345e+000  2.000000e+000 -2.850000e+000
    endloop
  endfacet
  facet normal  7.071068e-001  0.000000e+000  7.071068e-001
    outer loop
      vertex -2.850000e+000  0.000000e+000 -4.936345e+000
      vertex -4.936345e+000  2.000000e+000 -2.850000e+000
      vertex -4.936345e+000  0.000000e+000 -2.850000e+000
    endloop
  endfacet
  facet normal  9.659259e-001  -0.000000e+000  2.588191e-001
    outer loop
      vertex -4.936345e+000  0.000000e+000 -2.850000e+000
      vertex -4.936345e+000  2.000000e+000 -2.850000e+000
      vertex -5.700000e+000  2.000000e+000  6.980487e-016
    endloop
  endfacet
  facet normal  9.659259e-001  3.275754e-016  2.588191e-001
    outer loop
      vertex -4.936345e+000  0.000000e+000 -2.850000e+000
      vertex -5.700000e+000  2.000000e+000  6.980487e-016
      vertex -5.700000e+000  0.000000e+000  3.229357e-015
    endloop
  endfacet
  facet normal  2.588191e-001  0.000000e+000 -9.659259e-001
    outer loop
      vertex  3.490243e-016  2.000000e+000  5.700000e+000
      vertex -2.850000e+000  0.000000e+000  4.936345e+000
      vertex -2.850000e+000  2.000000e+000  4.936345e+000
    endloop
  endfacet
  facet normal  7.071068e-001  0.000000e+000 -7.071068e-001
    outer loop
      vertex -2.850000e+000  2.000000e+000  4.936345e+000
      vertex -2.850000e+000  0.000000e+000  4.936345e+000
      vertex -4.936345e+000  0.000000e+000  2.850000e+000
    endloop
  endfacet
  facet normal  7.071068e-001  0.000000e+000 -7.071068e-001
    outer loop
      vertex -2.850000e+000  2.000000e+000  4.936345e+000
      vertex -4.936345e+000  0.000000e+000  2.850000e+000
      vertex -4.936345e+000  2.000000e+000  2.850000e+000
    endloop
  endfacet
  facet normal  9.659259e-001  0.000000e+000 -2.588191e-001
    outer loop
      vertex -4.936345e+000  2.000000e+000  2.850000e+000
      vertex -4.936345e+000  0.000000e+000  2.850000e+000
      vertex -5.700000e+000  0.000000e+000  3.229357e-015
    endloop
  endfacet
  facet normal  9.659259e-001 -3.275754e-016 -2.588191e-001
    outer loop
      vertex -4.936345e+000  2.000000e+000  2.850000e+000
      vertex -5.700000e+000  0.000000e+000  3.229357e-015
      vertex -5.700000e+000  2.000000e+000  6.980487e-016
    endloop
  endfacet
  facet normal  2.588191e-001  1.637877e-016 -9.659259e-001
    outer loop
      vertex -2.850000e+000  0.000000e+000  4.936345e+000
      vertex  3.490243e-016  2.000000e+000  5.700000e+000
      vertex  1.614679e-015  0.000000e+000  5.700000e+000
    endloop
  endfacet
  facet normal -2.588191e-001 -1.637877e-016 -9.659259e-001
    outer loop
      vertex  1.614679e-015  0.000000e+000  5.700000e+000
      vertex  3.490243e-016  2.000000e+000  5.700000e+000
      vertex  2.850000e+000  2.000000e+000  4.936345e+000
    endloop
  endfacet
  facet normal -2.588191e-001  -0.000000e+000 -9.659259e-001
    outer loop
      vertex  1.614679e-015  0.000000e+000  5.700000e+000
      vertex  2.850000e+000  2.000000e+000  4.936345e+000
      vertex  2.850000e+000  0.000000e+000  4.936345e+000
    endloop
  endfacet
  facet normal -7.071068e-001  0.000000e+000 -7.071068e-001
    outer loop
      vertex  2.850000e+000  0.000000e+000  4.936345e+000
      vertex  2.850000e+000  2.000000e+000  4.936345e+000
      vertex  4.936345e+000  2.000000e+000  2.850000e+000
    endloop
  endfacet
  facet normal -7.071068e-001  -0.000000e+000 -7.071068e-001
    outer loop
      vertex  2.850000e+000  0.000000e+000  4.936345e+000
      vertex  4.936345e+000  2.000000e+000  2.850000e+000
      vertex  4.936345e+000  0.000000e+000  2.850000e+000
    endloop
  endfacet
  facet normal -9.659259e-001  0.000000e+000 -2.588191e-001
    outer loop
      vertex  4.936345e+000  0.000000e+000  2.850000e+000
      vertex  4.936345e+000  2.000000e+000  2.850000e+000
      vertex  5.700000e+000  2.000000e+000  0.000000e+000
    endloop
  endfacet
  facet normal -9.659259e-001  -0.000000e+000 -2.588191e-001
    outer loop
      vertex  4.936345e+000  0.000000e+000  2.850000e+000
      vertex  5.700000e+000  2.000000e+000  0.000000e+000
      vertex  5.700000e+000  0.000000e+000  0.000000e+000
    endloop
  endfacet
  facet normal  0.000000e+000 -1.000000e+000  0.000000e+000
    outer loop
      vertex -2.850000e+000  2.000000e+000  4.936345e+000
      vertex  2.850000e+000  2.000000e+000  4.936345e+000
      vertex  3.490243e-016  2.000000e+000  5.700000e+000
    endloop
  endfacet
  facet normal  0.000000e+000 -1.000000e+000  0.000000e+000
    outer loop
      vertex  2.850000e+000  2.000000e+000  4.936345e+000
      vertex -2.850000e+000  2.000000e+000  4.936345e+000
      vertex  4.936345e+000  2.000000e+000  2.850000e+000
    endloop
  endfacet
  facet normal  0.000000e+000 -1.000000e+000  0.000000e+000
    outer loop
      vertex  4.936345e+000  2.000000e+000  2.850000e+000
      vertex -2.850000e+000  2.000000e+000  4.936345e+000
      vertex -4.936345e+000  2.000000e+000  2.850000e+000
    endloop
  endfacet
  facet normal  0.000000e+000 -1.000000e+000  0.000000e+000
    outer loop
      vertex  4.936345e+000  2.000000e+000  2.850000e+000
      vertex -4.936345e+000  2.000000e+000  2.850000e+000
      vertex  5.700000e+000  2.000000e+000  0.000000e+000
    endloop
  endfacet
  facet normal  0.000000e+000 -1.000000e+000  0.000000e+000
    outer loop
      vertex  5.700000e+000  2.000000e+000  0.000000e+000
      vertex -4.936345e+000  2.000000e+000  2.850000e+000
      vertex -5.700000e+000  2.000000e+000  6.980487e-016
    endloop
  endfacet
  facet normal  0.000000e+000 -1.000000e+000  0.000000e+000
    outer loop
      vertex  5.700000e+000  2.000000e+000  0.000000e+000
      vertex -5.700000e+000  2.000000e+000  6.980487e-016
      vertex  4.936345e+000  2.000000e+000 -2.850000e+000
    endloop
  endfacet
  facet normal  0.000000e+000 -1.000000e+000  0.000000e+000
    outer loop
      vertex  4.936345e+000  2.000000e+000 -2.850000e+000
      vertex -5.700000e+000  2.000000e+000  6.980487e-016
      vertex -4.936345e+000  2.000000e+000 -2.850000e+000
    endloop
  endfacet
  facet normal  0.000000e+000 -1.000000e+000  0.000000e+000
    outer loop
      vertex  4.936345e+000  2.000000e+000 -2.850000e+000
      vertex -4.936345e+000  2.000000e+000 -2.850000e+000
      vertex  2.850000e+000  2.000000e+000 -4.936345e+000
    endloop
  endfacet
  facet normal  0.000000e+000 -1.000000e+000  0.000000e+000
    outer loop
      vertex  2.850000e+000  2.000000e+000 -4.936345e+000
      vertex -4.936345e+000  2.000000e+000 -2.850000e+000
      vertex -2.850000e+000  2.000000e+000 -4.936345e+000
    endloop
  endfacet
  facet normal  0.000000e+000 -1.000000e+000  0.000000e+000
    outer loop
      vertex  2.850000e+000  2.000000e+000 -4.936345e+000
      vertex -2.850000e+000  2.000000e+000 -4.936345e+000
      vertex -1.047073e-015  2.000000e+000 -5.700000e+000
    endloop
  endfacet
  facet normal -9.807853e-001  -0.000000e+000 -1.950903e-001
    outer loop
      vertex -1.000000e+001  0.000000e+000  0.000000e+000
      vertex -1.000000e+001  3.000000e+000  0.000000e+000
      vertex -9.238795e+000  0.000000e+000 -3.826834e+000
    endloop
  endfacet
  facet normal -9.807853e-001  0.000000e+000 -1.950903e-001
    outer loop
      vertex -9.238795e+000  0.000000e+000 -3.826834e+000
      vertex -1.000000e+001  3.000000e+000  0.000000e+000
      vertex -9.238795e+000  3.000000e+000 -3.826834e+000
    endloop
  endfacet
  facet normal -8.314695e-001  -0.000000e+000 -5.555702e-001
    outer loop
      vertex -9.238795e+000  0.000000e+000 -3.826834e+000
      vertex -9.238795e+000  3.000000e+000 -3.826834e+000
      vertex -7.071068e+000  0.000000e+000 -7.071068e+000
    endloop
  endfacet
  facet normal -8.314695e-001  0.000000e+000 -5.555702e-001
    outer loop
      vertex -7.071068e+000  0.000000e+000 -7.071068e+000
      vertex -9.238795e+000  3.000000e+000 -3.826834e+000
      vertex -7.071068e+000  3.000000e+000 -7.071068e+000
    endloop
  endfacet
  facet normal -5.555702e-001  -0.000000e+000 -8.314695e-001
    outer loop
      vertex -7.071068e+000  0.000000e+000 -7.071068e+000
      vertex -7.071068e+000  3.000000e+000 -7.071068e+000
      vertex -3.826834e+000  0.000000e+000 -9.238795e+000
    endloop
  endfacet
  facet normal -5.555702e-001  0.000000e+000 -8.314695e-001
    outer loop
      vertex -3.826834e+000  0.000000e+000 -9.238795e+000
      vertex -7.071068e+000  3.000000e+000 -7.071068e+000
      vertex -3.826834e+000  3.000000e+000 -9.238795e+000
    endloop
  endfacet
  facet normal -1.950903e-001  -0.000000e+000 -9.807853e-001
    outer loop
      vertex -3.826834e+000  0.000000e+000 -9.238795e+000
      vertex -3.826834e+000  3.000000e+000 -9.238795e+000
      vertex  1.836970e-015  0.000000e+000 -1.000000e+001
    endloop
  endfacet
  facet normal -1.950903e-001  0.000000e+000 -9.807853e-001
    outer loop
      vertex  1.836970e-015  0.000000e+000 -1.000000e+001
      vertex -3.826834e+000  3.000000e+000 -9.238795e+000
      vertex  1.836970e-015  3.000000e+000 -1.000000e+001
    endloop
  endfacet
  facet normal  1.950903e-001  0.000000e+000 -9.807853e-001
    outer loop
      vertex  1.836970e-015  0.000000e+000 -1.000000e+001
      vertex  1.836970e-015  3.000000e+000 -1.000000e+001
      vertex  3.826834e+000  0.000000e+000 -9.238795e+000
    endloop
  endfacet
  facet normal  1.950903e-001  0.000000e+000 -9.807853e-001
    outer loop
      vertex  3.826834e+000  0.000000e+000 -9.238795e+000
      vertex  1.836970e-015  3.000000e+000 -1.000000e+001
      vertex  3.826834e+000  3.000000e+000 -9.238795e+000
    endloop
  endfacet
  facet normal  5.555702e-001  0.000000e+000 -8.314695e-001
    outer loop
      vertex  3.826834e+000  0.000000e+000 -9.238795e+000
      vertex  3.826834e+000  3.000000e+000 -9.238795e+000
      vertex  7.071068e+000  0.000000e+000 -7.071068e+000
    endloop
  endfacet
  facet normal  5.555702e-001  0.000000e+000 -8.314695e-001
    outer loop
      vertex  7.071068e+000  0.000000e+000 -7.071068e+000
      vertex  3.826834e+000  3.000000e+000 -9.238795e+000
      vertex  7.071068e+000  3.000000e+000 -7.071068e+000
    endloop
  endfacet
  facet normal  8.314695e-001  0.000000e+000 -5.555702e-001
    outer loop
      vertex  7.071068e+000  0.000000e+000 -7.071068e+000
      vertex  7.071068e+000  3.000000e+000 -7.071068e+000
      vertex  9.238795e+000  0.000000e+000 -3.826834e+000
    endloop
  endfacet
  facet normal  8.314695e-001  0.000000e+000 -5.555702e-001
    outer loop
      vertex  9.238795e+000  0.000000e+000 -3.826834e+000
      vertex  7.071068e+000  3.000000e+000 -7.071068e+000
      vertex  9.238795e+000  3.000000e+000 -3.826834e+000
    endloop
  endfacet
  facet normal  9.807853e-001  0.000000e+000 -1.950903e-001
    outer loop
      vertex  9.238795e+000  0.000000e+000 -3.826834e+000
      vertex  9.238795e+000  3.000000e+000 -3.826834e+000
      vertex  1.000000e+001  0.000000e+000  1.224647e-015
    endloop
  endfacet
  facet normal  9.807853e-001  0.000000e+000 -1.950903e-001
    outer loop
      vertex  1.000000e+001  0.000000e+000  1.224647e-015
      vertex  9.238795e+000  3.000000e+000 -3.826834e+000
      vertex  1.000000e+001  3.000000e+000  1.224647e-015
    endloop
  endfacet
  facet normal  9.807853e-001  0.000000e+000  1.950903e-001
    outer loop
      vertex  1.000000e+001  0.000000e+000  1.224647e-015
      vertex  1.000000e+001  3.000000e+000  1.224647e-015
      vertex  9.238795e+000  0.000000e+000  3.826834e+000
    endloop
  endfacet
  facet normal  9.807853e-001  -0.000000e+000  1.950903e-001
    outer loop
      vertex  9.238795e+000  0.000000e+000  3.826834e+000
      vertex  1.000000e+001  3.000000e+000  1.224647e-015
      vertex  9.238795e+000  3.000000e+000  3.826834e+000
    endloop
  endfacet
  facet normal  8.314695e-001  0.000000e+000  5.555702e-001
    outer loop
      vertex  9.238795e+000  0.000000e+000  3.826834e+000
      vertex  9.238795e+000  3.000000e+000  3.826834e+000
      vertex  7.071068e+000  0.000000e+000  7.071068e+000
    endloop
  endfacet
  facet normal  8.314695e-001  -0.000000e+000  5.555702e-001
    outer loop
      vertex  7.071068e+000  0.000000e+000  7.071068e+000
      vertex  9.238795e+000  3.000000e+000  3.826834e+000
      vertex  7.071068e+000  3.000000e+000  7.071068e+000
    endloop
  endfacet
  facet normal  5.555702e-001  0.000000e+000  8.314695e-001
    outer loop
      vertex  7.071068e+000  0.000000e+000  7.071068e+000
      vertex  7.071068e+000  3.000000e+000  7.071068e+000
      vertex  3.826834e+000  0.000000e+000  9.238795e+000
    endloop
  endfacet
  facet normal  5.555702e-001  -0.000000e+000  8.314695e-001
    outer loop
      vertex  3.826834e+000  0.000000e+000  9.238795e+000
      vertex  7.071068e+000  3.000000e+000  7.071068e+000
      vertex  3.826834e+000  3.000000e+000  9.238795e+000
    endloop
  endfacet
  facet normal  1.950903e-001  0.000000e+000  9.807853e-001
    outer loop
      vertex  3.826834e+000  0.000000e+000  9.238795e+000
      vertex  3.826834e+000  3.000000e+000  9.238795e+000
      vertex -6.123234e-016  0.000000e+000  1.000000e+001
    endloop
  endfacet
  facet normal  1.950903e-001  -0.000000e+000  9.807853e-001
    outer loop
      vertex -6.123234e-016  0.000000e+000  1.000000e+001
      vertex  3.826834e+000  3.000000e+000  9.238795e+000
      vertex -6.123234e-016  3.000000e+000  1.000000e+001
    endloop
  endfacet
  facet normal -1.950903e-001  0.000000e+000  9.807853e-001
    outer loop
      vertex -6.123234e-016  0.000000e+000  1.000000e+001
      vertex -6.123234e-016  3.000000e+000  1.000000e+001
      vertex -3.826834e+000  0.000000e+000  9.238795e+000
    endloop
  endfacet
  facet normal -1.950903e-001  0.000000e+000  9.807853e-001
    outer loop
      vertex -3.826834e+000  0.000000e+000  9.238795e+000
      vertex -6.123234e-016  3.000000e+000  1.000000e+001
      vertex -3.826834e+000  3.000000e+000  9.238795e+000
    endloop
  endfacet
  facet normal -5.555702e-001  0.000000e+000  8.314695e-001
    outer loop
      vertex -3.826834e+000  0.000000e+000  9.238795e+000
      vertex -3.826834e+000  3.000000e+000  9.238795e+000
      vertex -7.071068e+000  0.000000e+000  7.071068e+000
    endloop
  endfacet
  facet normal -5.555702e-001  0.000000e+000  8.314695e-001
    outer loop
      vertex -7.071068e+000  0.000000e+000  7.071068e+000
      vertex -3.826834e+000  3.000000e+000  9.238795e+000
      vertex -7.071068e+000  3.000000e+000  7.071068e+000
    endloop
  endfacet
  facet normal -8.314695e-001  0.000000e+000  5.555702e-001
    outer loop
      vertex -7.071068e+000  0.000000e+000  7.071068e+000
      vertex -7.071068e+000  3.000000e+000  7.071068e+000
      vertex -9.238795e+000  0.000000e+000  3.826834e+000
    endloop
  endfacet
  facet normal -8.314695e-001  0.000000e+000  5.555702e-001
    outer loop
      vertex -9.238795e+000  0.000000e+000  3.826834e+000
      vertex -7.071068e+000  3.000000e+000  7.071068e+000
      vertex -9.238795e+000  3.000000e+000  3.826834e+000
    endloop
  endfacet
  facet normal -9.807853e-001  0.000000e+000  1.950903e-001
    outer loop
      vertex -9.238795e+000  0.000000e+000  3.826834e+000
      vertex -9.238795e+000  3.000000e+000  3.826834e+000
      vertex -1.000000e+001  0.000000e+000  0.000000e+000
    endloop
  endfacet
  facet normal -9.807853e-001  0.000000e+000  1.950903e-001
    outer loop
      vertex -1.000000e+001  0.000000e+000  0.000000e+000
      vertex -9.238795e+000  3.000000e+000  3.826834e+000
      vertex -1.000000e+001  3.000000e+000  0.000000e+000
    endloop
  endfacet
endsolid CATIA STL
