solid CATIA STL
  facet normal  1.000000e+000  -0.000000e+000  0.000000e+000
    outer loop
      vertex  1.900000e+001  4.400000e+001 -4.500000e+000
      vertex  1.900000e+001  2.400000e+001 -4.500000e+000
      vertex  1.900000e+001  2.200000e+001 -6.500000e+000
    endloop
  endfacet
  facet normal  1.000000e+000  0.000000e+000  0.000000e+000
    outer loop
      vertex  1.900000e+001  4.400000e+001 -4.500000e+000
      vertex  1.900000e+001  2.200000e+001 -6.500000e+000
      vertex  1.900000e+001  3.300000e+001 -6.500000e+000
    endloop
  endfacet
  facet normal  1.000000e+000  0.000000e+000  0.000000e+000
    outer loop
      vertex  1.900000e+001  4.400000e+001 -4.500000e+000
      vertex  1.900000e+001  3.300000e+001 -6.500000e+000
      vertex  1.900000e+001  3.500000e+001 -6.500000e+000
    endloop
  endfacet
  facet normal  1.000000e+000  0.000000e+000  0.000000e+000
    outer loop
      vertex  1.900000e+001  4.400000e+001 -4.500000e+000
      vertex  1.900000e+001  3.500000e+001 -6.500000e+000
      vertex  1.900000e+001  4.600000e+001 -6.500000e+000
    endloop
  endfacet
  facet normal  1.000000e+000  0.000000e+000  -0.000000e+000
    outer loop
      vertex  1.900000e+001  4.400000e+001 -4.500000e+000
      vertex  1.900000e+001  4.600000e+001 -6.500000e+000
      vertex  1.900000e+001  4.600000e+001  4.500000e+000
    endloop
  endfacet
  facet normal  1.000000e+000  0.000000e+000  0.000000e+000
    outer loop
      vertex  1.900000e+001  4.400000e+001 -4.500000e+000
      vertex  1.900000e+001  4.600000e+001  4.500000e+000
      vertex  1.900000e+001  4.400000e+001  4.500000e+000
    endloop
  endfacet
  facet normal  1.000000e+000  0.000000e+000  -0.000000e+000
    outer loop
      vertex  1.900000e+001 -1.000000e+001 -1.400000e+001
      vertex  1.900000e+001  5.000000e+001 -1.400000e+001
      vertex  1.900000e+001  5.000000e+001 -1.200000e+001
    endloop
  endfacet
  facet normal  1.000000e+000  0.000000e+000  0.000000e+000
    outer loop
      vertex  1.900000e+001 -1.000000e+001 -1.400000e+001
      vertex  1.900000e+001  5.000000e+001 -1.200000e+001
      vertex  1.900000e+001  3.500000e+001 -1.200000e+001
    endloop
  endfacet
  facet normal  1.000000e+000  0.000000e+000  0.000000e+000
    outer loop
      vertex  1.900000e+001 -1.000000e+001 -1.400000e+001
      vertex  1.900000e+001  3.500000e+001 -1.200000e+001
      vertex  1.900000e+001  3.300000e+001 -1.200000e+001
    endloop
  endfacet
  facet normal  1.000000e+000  0.000000e+000  0.000000e+000
    outer loop
      vertex  1.900000e+001 -1.000000e+001 -1.400000e+001
      vertex  1.900000e+001  3.300000e+001 -1.200000e+001
      vertex  1.900000e+001  7.000000e+000 -1.200000e+001
    endloop
  endfacet
  facet normal  1.000000e+000  0.000000e+000  0.000000e+000
    outer loop
      vertex  1.900000e+001 -1.000000e+001 -1.400000e+001
      vertex  1.900000e+001  7.000000e+000 -1.200000e+001
      vertex  1.900000e+001  5.000000e+000 -1.200000e+001
    endloop
  endfacet
  facet normal  1.000000e+000  0.000000e+000  0.000000e+000
    outer loop
      vertex  1.900000e+001 -1.000000e+001 -1.400000e+001
      vertex  1.900000e+001  5.000000e+000 -1.200000e+001
      vertex  1.900000e+001 -1.000000e+001 -1.200000e+001
    endloop
  endfacet
  facet normal  1.000000e+000  -0.000000e+000  0.000000e+000
    outer loop
      vertex  1.900000e+001  1.600000e+001 -4.500000e+000
      vertex  1.900000e+001 -4.000000e+000 -4.500000e+000
      vertex  1.900000e+001 -6.000000e+000 -6.500000e+000
    endloop
  endfacet
  facet normal  1.000000e+000  0.000000e+000  0.000000e+000
    outer loop
      vertex  1.900000e+001  1.600000e+001 -4.500000e+000
      vertex  1.900000e+001 -6.000000e+000 -6.500000e+000
      vertex  1.900000e+001  5.000000e+000 -6.500000e+000
    endloop
  endfacet
  facet normal  1.000000e+000  0.000000e+000  0.000000e+000
    outer loop
      vertex  1.900000e+001  1.600000e+001 -4.500000e+000
      vertex  1.900000e+001  5.000000e+000 -6.500000e+000
      vertex  1.900000e+001  7.000000e+000 -6.500000e+000
    endloop
  endfacet
  facet normal  1.000000e+000  0.000000e+000  0.000000e+000
    outer loop
      vertex  1.900000e+001  1.600000e+001 -4.500000e+000
      vertex  1.900000e+001  7.000000e+000 -6.500000e+000
      vertex  1.900000e+001  1.800000e+001 -6.500000e+000
    endloop
  endfacet
  facet normal  1.000000e+000  0.000000e+000  -0.000000e+000
    outer loop
      vertex  1.900000e+001  1.600000e+001 -4.500000e+000
      vertex  1.900000e+001  1.800000e+001 -6.500000e+000
      vertex  1.900000e+001  1.800000e+001  4.500000e+000
    endloop
  endfacet
  facet normal  1.000000e+000  0.000000e+000  0.000000e+000
    outer loop
      vertex  1.900000e+001  1.600000e+001 -4.500000e+000
      vertex  1.900000e+001  1.800000e+001  4.500000e+000
      vertex  1.900000e+001  1.600000e+001  4.500000e+000
    endloop
  endfacet
  facet normal  1.000000e+000  0.000000e+000  0.000000e+000
    outer loop
      vertex  1.900000e+001  3.300000e+001 -1.200000e+001
      vertex  1.900000e+001  3.500000e+001 -1.200000e+001
      vertex  1.900000e+001  3.300000e+001 -6.500000e+000
    endloop
  endfacet
  facet normal  1.000000e+000  -0.000000e+000  0.000000e+000
    outer loop
      vertex  1.900000e+001  3.300000e+001 -6.500000e+000
      vertex  1.900000e+001  3.500000e+001 -1.200000e+001
      vertex  1.900000e+001  3.500000e+001 -6.500000e+000
    endloop
  endfacet
  facet normal  1.000000e+000  0.000000e+000  0.000000e+000
    outer loop
      vertex  1.900000e+001 -6.000000e+000 -6.500000e+000
      vertex  1.900000e+001 -4.000000e+000 -4.500000e+000
      vertex  1.900000e+001 -6.000000e+000  4.500000e+000
    endloop
  endfacet
  facet normal  1.000000e+000  -0.000000e+000  0.000000e+000
    outer loop
      vertex  1.900000e+001 -6.000000e+000  4.500000e+000
      vertex  1.900000e+001 -4.000000e+000 -4.500000e+000
      vertex  1.900000e+001 -4.000000e+000  4.500000e+000
    endloop
  endfacet
  facet normal  1.000000e+000  0.000000e+000  0.000000e+000
    outer loop
      vertex  1.900000e+001  5.000000e+000 -1.200000e+001
      vertex  1.900000e+001  7.000000e+000 -1.200000e+001
      vertex  1.900000e+001  5.000000e+000 -6.500000e+000
    endloop
  endfacet
  facet normal  1.000000e+000  -0.000000e+000  0.000000e+000
    outer loop
      vertex  1.900000e+001  5.000000e+000 -6.500000e+000
      vertex  1.900000e+001  7.000000e+000 -1.200000e+001
      vertex  1.900000e+001  7.000000e+000 -6.500000e+000
    endloop
  endfacet
  facet normal  1.000000e+000  0.000000e+000  0.000000e+000
    outer loop
      vertex  1.900000e+001  2.200000e+001 -6.500000e+000
      vertex  1.900000e+001  2.400000e+001 -4.500000e+000
      vertex  1.900000e+001  2.200000e+001  4.500000e+000
    endloop
  endfacet
  facet normal  1.000000e+000  -0.000000e+000  0.000000e+000
    outer loop
      vertex  1.900000e+001  2.200000e+001  4.500000e+000
      vertex  1.900000e+001  2.400000e+001 -4.500000e+000
      vertex  1.900000e+001  2.400000e+001  4.500000e+000
    endloop
  endfacet
  facet normal -1.000000e+000  0.000000e+000  0.000000e+000
    outer loop
      vertex -3.000000e+000  5.000000e+001 -1.400000e+001
      vertex -3.000000e+000 -1.000000e+001 -1.400000e+001
      vertex -3.000000e+000  5.000000e+001 -1.200000e+001
    endloop
  endfacet
  facet normal -1.000000e+000  -0.000000e+000  0.000000e+000
    outer loop
      vertex -3.000000e+000  5.000000e+001 -1.200000e+001
      vertex -3.000000e+000 -1.000000e+001 -1.400000e+001
      vertex -3.000000e+000 -1.000000e+001 -1.200000e+001
    endloop
  endfacet
  facet normal  0.000000e+000  1.000000e+000  0.000000e+000
    outer loop
      vertex  3.000000e+000  5.000000e+001 -1.200000e+001
      vertex  1.900000e+001  5.000000e+001 -1.200000e+001
      vertex  1.900000e+001  5.000000e+001 -1.400000e+001
    endloop
  endfacet
  facet normal  0.000000e+000  1.000000e+000  0.000000e+000
    outer loop
      vertex  3.000000e+000  5.000000e+001 -1.200000e+001
      vertex  1.900000e+001  5.000000e+001 -1.400000e+001
      vertex  0.000000e+000  5.000000e+001 -1.200000e+001
    endloop
  endfacet
  facet normal  0.000000e+000  1.000000e+000  0.000000e+000
    outer loop
      vertex  3.000000e+000  5.000000e+001 -1.200000e+001
      vertex  0.000000e+000  5.000000e+001 -1.200000e+001
      vertex  0.000000e+000  5.000000e+001  3.907985e-014
    endloop
  endfacet
  facet normal  -0.000000e+000  1.000000e+000  0.000000e+000
    outer loop
      vertex  3.000000e+000  5.000000e+001 -1.200000e+001
      vertex  0.000000e+000  5.000000e+001  3.907985e-014
      vertex  3.000000e+000  5.000000e+001  3.907985e-014
    endloop
  endfacet
  facet normal  0.000000e+000  1.000000e+000  0.000000e+000
    outer loop
      vertex -3.000000e+000  5.000000e+001 -1.400000e+001
      vertex -3.000000e+000  5.000000e+001 -1.200000e+001
      vertex  1.900000e+001  5.000000e+001 -1.400000e+001
    endloop
  endfacet
  facet normal  0.000000e+000  1.000000e+000  0.000000e+000
    outer loop
      vertex  1.900000e+001  5.000000e+001 -1.400000e+001
      vertex -3.000000e+000  5.000000e+001 -1.200000e+001
      vertex  0.000000e+000  5.000000e+001 -1.200000e+001
    endloop
  endfacet
  facet normal  -0.000000e+000 -1.000000e+000  -0.000000e+000
    outer loop
      vertex  1.900000e+001 -1.000000e+001 -1.400000e+001
      vertex  1.900000e+001 -1.000000e+001 -1.200000e+001
      vertex  3.000000e+000 -1.000000e+001 -1.200000e+001
    endloop
  endfacet
  facet normal  -0.000000e+000 -1.000000e+000  -0.000000e+000
    outer loop
      vertex  1.900000e+001 -1.000000e+001 -1.400000e+001
      vertex  3.000000e+000 -1.000000e+001 -1.200000e+001
      vertex  0.000000e+000 -1.000000e+001 -1.200000e+001
    endloop
  endfacet
  facet normal  -0.000000e+000 -1.000000e+000  -0.000000e+000
    outer loop
      vertex  1.900000e+001 -1.000000e+001 -1.400000e+001
      vertex  0.000000e+000 -1.000000e+001 -1.200000e+001
      vertex -3.000000e+000 -1.000000e+001 -1.200000e+001
    endloop
  endfacet
  facet normal  0.000000e+000 -1.000000e+000  0.000000e+000
    outer loop
      vertex  1.900000e+001 -1.000000e+001 -1.400000e+001
      vertex -3.000000e+000 -1.000000e+001 -1.200000e+001
      vertex -3.000000e+000 -1.000000e+001 -1.400000e+001
    endloop
  endfacet
  facet normal  0.000000e+000 -1.000000e+000  0.000000e+000
    outer loop
      vertex  3.000000e+000 -1.000000e+001  1.224647e-015
      vertex  0.000000e+000 -1.000000e+001  1.224647e-015
      vertex  3.000000e+000 -1.000000e+001 -1.200000e+001
    endloop
  endfacet
  facet normal  0.000000e+000 -1.000000e+000  0.000000e+000
    outer loop
      vertex  3.000000e+000 -1.000000e+001 -1.200000e+001
      vertex  0.000000e+000 -1.000000e+001  1.224647e-015
      vertex  0.000000e+000 -1.000000e+001 -1.200000e+001
    endloop
  endfacet
  facet normal  0.000000e+000  0.000000e+000 -9.999999e-001
    outer loop
      vertex  1.900000e+001  5.000000e+001 -1.400000e+001
      vertex  1.900000e+001 -1.000000e+001 -1.400000e+001
      vertex -3.000000e+000  5.000000e+001 -1.400000e+001
    endloop
  endfacet
  facet normal  0.000000e+000  0.000000e+000 -9.999999e-001
    outer loop
      vertex -3.000000e+000  5.000000e+001 -1.400000e+001
      vertex  1.900000e+001 -1.000000e+001 -1.400000e+001
      vertex -3.000000e+000 -1.000000e+001 -1.400000e+001
    endloop
  endfacet
  facet normal  -0.000000e+000  0.000000e+000  1.000000e+000
    outer loop
      vertex  0.000000e+000  5.000000e+001 -1.200000e+001
      vertex -3.000000e+000  5.000000e+001 -1.200000e+001
      vertex  0.000000e+000 -1.000000e+001 -1.200000e+001
    endloop
  endfacet
  facet normal  0.000000e+000  0.000000e+000  1.000000e+000
    outer loop
      vertex  0.000000e+000 -1.000000e+001 -1.200000e+001
      vertex -3.000000e+000  5.000000e+001 -1.200000e+001
      vertex -3.000000e+000 -1.000000e+001 -1.200000e+001
    endloop
  endfacet
  facet normal -1.000000e+000  0.000000e+000  0.000000e+000
    outer loop
      vertex  0.000000e+000  3.887997e+001  6.352010e+000
      vertex  0.000000e+000  3.905750e+001  2.900722e+000
      vertex  0.000000e+000  3.677500e+001  5.585864e+000
    endloop
  endfacet
  facet normal -1.000000e+000  0.000000e+000  0.000000e+000
    outer loop
      vertex  0.000000e+000  3.905750e+001  2.900722e+000
      vertex  0.000000e+000  3.597824e+001  5.480968e+000
      vertex  0.000000e+000  3.677500e+001  5.585864e+000
    endloop
  endfacet
  facet normal -1.000000e+000  0.000000e+000  0.000000e+000
    outer loop
      vertex  0.000000e+000  4.021760e+000  5.480968e+000
      vertex  0.000000e+000  9.425018e-001  2.900722e+000
      vertex  0.000000e+000  3.225000e+000  5.585864e+000
    endloop
  endfacet
  facet normal -1.000000e+000  0.000000e+000  0.000000e+000
    outer loop
      vertex  0.000000e+000 -4.764222e+000  6.766951e+000
      vertex  0.000000e+000 -7.071068e+000  7.071068e+000
      vertex  0.000000e+000 -4.275000e+000  7.404517e+000
    endloop
  endfacet
  facet normal -1.000000e+000  0.000000e+000  0.000000e+000
    outer loop
      vertex  0.000000e+000 -1.000000e+001 -1.200000e+001
      vertex  0.000000e+000 -1.000000e+001  1.224647e-015
      vertex  0.000000e+000 -3.050000e+000  3.735173e-016
    endloop
  endfacet
  facet normal -1.000000e+000  0.000000e+000  -0.000000e+000
    outer loop
      vertex  0.000000e+000 -1.000000e+001 -1.200000e+001
      vertex  0.000000e+000 -3.050000e+000  3.735173e-016
      vertex  0.000000e+000 -2.467502e+000 -1.792745e+000
    endloop
  endfacet
  facet normal -1.000000e+000  0.000000e+000  -0.000000e+000
    outer loop
      vertex  0.000000e+000 -1.000000e+001 -1.200000e+001
      vertex  0.000000e+000 -2.467502e+000 -1.792745e+000
      vertex  0.000000e+000 -9.425018e-001 -2.900722e+000
    endloop
  endfacet
  facet normal -1.000000e+000  0.000000e+000  -0.000000e+000
    outer loop
      vertex  0.000000e+000 -1.000000e+001 -1.200000e+001
      vertex  0.000000e+000 -9.425018e-001 -2.900722e+000
      vertex  0.000000e+000  9.425018e-001 -2.900722e+000
    endloop
  endfacet
  facet normal -1.000000e+000  0.000000e+000  -0.000000e+000
    outer loop
      vertex  0.000000e+000 -1.000000e+001 -1.200000e+001
      vertex  0.000000e+000  9.425018e-001 -2.900722e+000
      vertex  0.000000e+000  3.905750e+001 -2.900722e+000
    endloop
  endfacet
  facet normal -1.000000e+000  0.000000e+000  -0.000000e+000
    outer loop
      vertex  0.000000e+000 -1.000000e+001 -1.200000e+001
      vertex  0.000000e+000  3.905750e+001 -2.900722e+000
      vertex  0.000000e+000  4.094250e+001 -2.900722e+000
    endloop
  endfacet
  facet normal -1.000000e+000  0.000000e+000  -0.000000e+000
    outer loop
      vertex  0.000000e+000 -1.000000e+001 -1.200000e+001
      vertex  0.000000e+000  4.094250e+001 -2.900722e+000
      vertex  0.000000e+000  5.000000e+001 -1.200000e+001
    endloop
  endfacet
  facet normal -1.000000e+000  0.000000e+000  -0.000000e+000
    outer loop
      vertex  0.000000e+000 -9.238795e+000  3.826834e+000
      vertex  0.000000e+000 -7.071068e+000  7.071068e+000
      vertex  0.000000e+000 -4.764222e+000  6.766951e+000
    endloop
  endfacet
  facet normal -1.000000e+000  0.000000e+000  -0.000000e+000
    outer loop
      vertex  0.000000e+000 -9.238795e+000  3.826834e+000
      vertex  0.000000e+000 -4.764222e+000  6.766951e+000
      vertex  0.000000e+000 -4.659327e+000  5.970191e+000
    endloop
  endfacet
  facet normal -1.000000e+000  0.000000e+000  -0.000000e+000
    outer loop
      vertex  0.000000e+000 -9.238795e+000  3.826834e+000
      vertex  0.000000e+000 -4.659327e+000  5.970191e+000
      vertex  0.000000e+000 -4.021760e+000  5.480968e+000
    endloop
  endfacet
  facet normal -1.000000e+000  0.000000e+000  -0.000000e+000
    outer loop
      vertex  0.000000e+000  9.425018e-001  2.900722e+000
      vertex  0.000000e+000  1.120031e+000  6.352010e+000
      vertex  0.000000e+000  3.225000e+000  5.585864e+000
    endloop
  endfacet
  facet normal -1.000000e+000  0.000000e+000  0.000000e+000
    outer loop
      vertex  0.000000e+000  1.120031e+000  6.352010e+000
      vertex  0.000000e+000  9.425018e-001  2.900722e+000
      vertex  0.000000e+000 -1.120031e+000  6.352010e+000
    endloop
  endfacet
  facet normal -1.000000e+000  0.000000e+000  0.000000e+000
    outer loop
      vertex  0.000000e+000 -1.120031e+000  6.352010e+000
      vertex  0.000000e+000  9.425018e-001  2.900722e+000
      vertex  0.000000e+000 -9.425018e-001  2.900722e+000
    endloop
  endfacet
  facet normal -1.000000e+000  0.000000e+000  0.000000e+000
    outer loop
      vertex  0.000000e+000 -1.120031e+000  6.352010e+000
      vertex  0.000000e+000 -9.425018e-001  2.900722e+000
      vertex  0.000000e+000 -3.225000e+000  5.585864e+000
    endloop
  endfacet
  facet normal -9.999999e-001  0.000000e+000  -0.000000e+000
    outer loop
      vertex  0.000000e+000 -3.225000e+000  5.585864e+000
      vertex  0.000000e+000 -9.425018e-001  2.900722e+000
      vertex  0.000000e+000 -9.238795e+000  3.826834e+000
    endloop
  endfacet
  facet normal -9.999999e-001  0.000000e+000  0.000000e+000
    outer loop
      vertex  0.000000e+000 -3.225000e+000  5.585864e+000
      vertex  0.000000e+000 -9.238795e+000  3.826834e+000
      vertex  0.000000e+000 -4.021760e+000  5.480968e+000
    endloop
  endfacet
  facet normal -1.000000e+000  0.000000e+000  0.000000e+000
    outer loop
      vertex  0.000000e+000  3.851531e+001  8.420106e+000
      vertex  0.000000e+000  1.484692e+000  8.420106e+000
      vertex  0.000000e+000  4.000000e+001  1.000000e+001
    endloop
  endfacet
  facet normal -1.000000e+000  0.000000e+000  0.000000e+000
    outer loop
      vertex  0.000000e+000  4.000000e+001  1.000000e+001
      vertex  0.000000e+000  1.484692e+000  8.420106e+000
      vertex  0.000000e+000 -1.484692e+000  8.420106e+000
    endloop
  endfacet
  facet normal -9.999999e-001  0.000000e+000  0.000000e+000
    outer loop
      vertex  0.000000e+000  4.000000e+001  1.000000e+001
      vertex  0.000000e+000 -1.484692e+000  8.420106e+000
      vertex  0.000000e+000 -1.608123e-015  1.000000e+001
    endloop
  endfacet
  facet normal -1.000000e+000  0.000000e+000  0.000000e+000
    outer loop
      vertex  0.000000e+000  4.322500e+001  5.585864e+000
      vertex  0.000000e+000  4.094250e+001  2.900722e+000
      vertex  0.000000e+000  4.112003e+001  6.352010e+000
    endloop
  endfacet
  facet normal -1.000000e+000  0.000000e+000  0.000000e+000
    outer loop
      vertex  0.000000e+000  4.112003e+001  6.352010e+000
      vertex  0.000000e+000  4.094250e+001  2.900722e+000
      vertex  0.000000e+000  3.905750e+001  2.900722e+000
    endloop
  endfacet
  facet normal -1.000000e+000  0.000000e+000  0.000000e+000
    outer loop
      vertex  0.000000e+000  4.112003e+001  6.352010e+000
      vertex  0.000000e+000  3.905750e+001  2.900722e+000
      vertex  0.000000e+000  3.887997e+001  6.352010e+000
    endloop
  endfacet
  facet normal -1.000000e+000  0.000000e+000  0.000000e+000
    outer loop
      vertex  0.000000e+000  4.305000e+001  0.000000e+000
      vertex  0.000000e+000  4.246750e+001  1.792745e+000
      vertex  0.000000e+000  5.000000e+001  3.907985e-014
    endloop
  endfacet
  facet normal -1.000000e+000  0.000000e+000  0.000000e+000
    outer loop
      vertex  0.000000e+000  5.000000e+001  3.907985e-014
      vertex  0.000000e+000  4.246750e+001  1.792745e+000
      vertex  0.000000e+000  4.094250e+001  2.900722e+000
    endloop
  endfacet
  facet normal -1.000000e+000  0.000000e+000  0.000000e+000
    outer loop
      vertex  0.000000e+000  5.000000e+001  3.907985e-014
      vertex  0.000000e+000  4.094250e+001  2.900722e+000
      vertex  0.000000e+000  4.923880e+001  3.826834e+000
    endloop
  endfacet
  facet normal -1.000000e+000  -0.000000e+000  0.000000e+000
    outer loop
      vertex  0.000000e+000  4.923880e+001  3.826834e+000
      vertex  0.000000e+000  4.094250e+001  2.900722e+000
      vertex  0.000000e+000  4.322500e+001  5.585864e+000
    endloop
  endfacet
  facet normal -1.000000e+000  0.000000e+000  0.000000e+000
    outer loop
      vertex  0.000000e+000  4.923880e+001  3.826834e+000
      vertex  0.000000e+000  4.322500e+001  5.585864e+000
      vertex  0.000000e+000  4.402176e+001  5.480968e+000
    endloop
  endfacet
  facet normal -9.999999e-001  0.000000e+000  0.000000e+000
    outer loop
      vertex  0.000000e+000  4.476422e+001  6.766951e+000
      vertex  0.000000e+000  4.427500e+001  7.404517e+000
      vertex  0.000000e+000  4.707107e+001  7.071068e+000
    endloop
  endfacet
  facet normal -1.000000e+000  0.000000e+000  0.000000e+000
    outer loop
      vertex  0.000000e+000  4.707107e+001  7.071068e+000
      vertex  0.000000e+000  4.427500e+001  7.404517e+000
      vertex  0.000000e+000  4.148469e+001  8.420106e+000
    endloop
  endfacet
  facet normal -1.000000e+000  0.000000e+000  0.000000e+000
    outer loop
      vertex  0.000000e+000  4.707107e+001  7.071068e+000
      vertex  0.000000e+000  4.148469e+001  8.420106e+000
      vertex  0.000000e+000  4.382684e+001  9.238795e+000
    endloop
  endfacet
  facet normal -1.000000e+000  0.000000e+000  0.000000e+000
    outer loop
      vertex  0.000000e+000  4.382684e+001  9.238795e+000
      vertex  0.000000e+000  4.148469e+001  8.420106e+000
      vertex  0.000000e+000  3.851531e+001  8.420106e+000
    endloop
  endfacet
  facet normal -9.999999e-001  0.000000e+000  0.000000e+000
    outer loop
      vertex  0.000000e+000  4.382684e+001  9.238795e+000
      vertex  0.000000e+000  3.851531e+001  8.420106e+000
      vertex  0.000000e+000  4.000000e+001  1.000000e+001
    endloop
  endfacet
  facet normal -1.000000e+000  0.000000e+000  0.000000e+000
    outer loop
      vertex  0.000000e+000 -1.608123e-015  1.000000e+001
      vertex  0.000000e+000 -1.484692e+000  8.420106e+000
      vertex  0.000000e+000 -3.826834e+000  9.238795e+000
    endloop
  endfacet
  facet normal -1.000000e+000  0.000000e+000  -0.000000e+000
    outer loop
      vertex  0.000000e+000 -3.826834e+000  9.238795e+000
      vertex  0.000000e+000 -1.484692e+000  8.420106e+000
      vertex  0.000000e+000 -4.275000e+000  7.404517e+000
    endloop
  endfacet
  facet normal -1.000000e+000  -0.000000e+000  0.000000e+000
    outer loop
      vertex  0.000000e+000 -3.826834e+000  9.238795e+000
      vertex  0.000000e+000 -4.275000e+000  7.404517e+000
      vertex  0.000000e+000 -7.071068e+000  7.071068e+000
    endloop
  endfacet
  facet normal -1.000000e+000  0.000000e+000  0.000000e+000
    outer loop
      vertex  0.000000e+000 -3.050000e+000  3.735173e-016
      vertex  0.000000e+000 -1.000000e+001  1.224647e-015
      vertex  0.000000e+000 -2.467502e+000  1.792745e+000
    endloop
  endfacet
  facet normal -1.000000e+000  -0.000000e+000  0.000000e+000
    outer loop
      vertex  0.000000e+000 -2.467502e+000  1.792745e+000
      vertex  0.000000e+000 -1.000000e+001  1.224647e-015
      vertex  0.000000e+000 -9.238795e+000  3.826834e+000
    endloop
  endfacet
  facet normal -9.999999e-001  0.000000e+000  0.000000e+000
    outer loop
      vertex  0.000000e+000 -2.467502e+000  1.792745e+000
      vertex  0.000000e+000 -9.238795e+000  3.826834e+000
      vertex  0.000000e+000 -9.425018e-001  2.900722e+000
    endloop
  endfacet
  facet normal -1.000000e+000  0.000000e+000  -0.000000e+000
    outer loop
      vertex  0.000000e+000  9.425018e-001  2.900722e+000
      vertex  0.000000e+000  4.021760e+000  5.480968e+000
      vertex  0.000000e+000  3.597824e+001  5.480968e+000
    endloop
  endfacet
  facet normal -1.000000e+000  0.000000e+000  0.000000e+000
    outer loop
      vertex  0.000000e+000  3.597824e+001  5.480968e+000
      vertex  0.000000e+000  4.021760e+000  5.480968e+000
      vertex  0.000000e+000  4.659327e+000  5.970191e+000
    endloop
  endfacet
  facet normal -1.000000e+000  0.000000e+000  0.000000e+000
    outer loop
      vertex  0.000000e+000  3.597824e+001  5.480968e+000
      vertex  0.000000e+000  4.659327e+000  5.970191e+000
      vertex  0.000000e+000  3.534067e+001  5.970191e+000
    endloop
  endfacet
  facet normal -9.999999e-001  0.000000e+000  0.000000e+000
    outer loop
      vertex  0.000000e+000  3.534067e+001  5.970191e+000
      vertex  0.000000e+000  4.659327e+000  5.970191e+000
      vertex  0.000000e+000  4.764222e+000  6.766951e+000
    endloop
  endfacet
  facet normal -1.000000e+000  0.000000e+000  0.000000e+000
    outer loop
      vertex  0.000000e+000  3.534067e+001  5.970191e+000
      vertex  0.000000e+000  4.764222e+000  6.766951e+000
      vertex  0.000000e+000  3.523578e+001  6.766951e+000
    endloop
  endfacet
  facet normal -1.000000e+000  0.000000e+000  0.000000e+000
    outer loop
      vertex  0.000000e+000  3.523578e+001  6.766951e+000
      vertex  0.000000e+000  4.764222e+000  6.766951e+000
      vertex  0.000000e+000  4.275000e+000  7.404517e+000
    endloop
  endfacet
  facet normal -1.000000e+000  0.000000e+000  0.000000e+000
    outer loop
      vertex  0.000000e+000  3.523578e+001  6.766951e+000
      vertex  0.000000e+000  4.275000e+000  7.404517e+000
      vertex  0.000000e+000  3.572500e+001  7.404517e+000
    endloop
  endfacet
  facet normal -9.999999e-001  0.000000e+000  0.000000e+000
    outer loop
      vertex  0.000000e+000  3.572500e+001  7.404517e+000
      vertex  0.000000e+000  4.275000e+000  7.404517e+000
      vertex  0.000000e+000  1.484692e+000  8.420106e+000
    endloop
  endfacet
  facet normal -1.000000e+000  0.000000e+000  0.000000e+000
    outer loop
      vertex  0.000000e+000  3.572500e+001  7.404517e+000
      vertex  0.000000e+000  1.484692e+000  8.420106e+000
      vertex  0.000000e+000  3.851531e+001  8.420106e+000
    endloop
  endfacet
  facet normal -9.999999e-001  0.000000e+000  0.000000e+000
    outer loop
      vertex  0.000000e+000  3.597824e+001  5.480968e+000
      vertex  0.000000e+000  3.905750e+001  2.900722e+000
      vertex  0.000000e+000  9.425018e-001  2.900722e+000
    endloop
  endfacet
  facet normal -9.999999e-001  0.000000e+000  0.000000e+000
    outer loop
      vertex  0.000000e+000  9.425018e-001  2.900722e+000
      vertex  0.000000e+000  3.905750e+001  2.900722e+000
      vertex  0.000000e+000  3.753250e+001  1.792745e+000
    endloop
  endfacet
  facet normal -1.000000e+000  0.000000e+000  0.000000e+000
    outer loop
      vertex  0.000000e+000  9.425018e-001  2.900722e+000
      vertex  0.000000e+000  3.753250e+001  1.792745e+000
      vertex  0.000000e+000  2.467502e+000  1.792745e+000
    endloop
  endfacet
  facet normal -9.999999e-001  0.000000e+000  0.000000e+000
    outer loop
      vertex  0.000000e+000  2.467502e+000  1.792745e+000
      vertex  0.000000e+000  3.753250e+001  1.792745e+000
      vertex  0.000000e+000  3.695000e+001  3.735173e-016
    endloop
  endfacet
  facet normal -1.000000e+000  -0.000000e+000  0.000000e+000
    outer loop
      vertex  0.000000e+000  2.467502e+000  1.792745e+000
      vertex  0.000000e+000  3.695000e+001  3.735173e-016
      vertex  0.000000e+000  3.050000e+000  0.000000e+000
    endloop
  endfacet
  facet normal -1.000000e+000  0.000000e+000  0.000000e+000
    outer loop
      vertex  0.000000e+000  3.050000e+000  0.000000e+000
      vertex  0.000000e+000  3.695000e+001  3.735173e-016
      vertex  0.000000e+000  3.753250e+001 -1.792745e+000
    endloop
  endfacet
  facet normal -9.999999e-001  0.000000e+000  0.000000e+000
    outer loop
      vertex  0.000000e+000  3.050000e+000  0.000000e+000
      vertex  0.000000e+000  3.753250e+001 -1.792745e+000
      vertex  0.000000e+000  2.467502e+000 -1.792745e+000
    endloop
  endfacet
  facet normal -1.000000e+000  0.000000e+000  0.000000e+000
    outer loop
      vertex  0.000000e+000  2.467502e+000 -1.792745e+000
      vertex  0.000000e+000  3.753250e+001 -1.792745e+000
      vertex  0.000000e+000  3.905750e+001 -2.900722e+000
    endloop
  endfacet
  facet normal -9.999999e-001  0.000000e+000  0.000000e+000
    outer loop
      vertex  0.000000e+000  2.467502e+000 -1.792745e+000
      vertex  0.000000e+000  3.905750e+001 -2.900722e+000
      vertex  0.000000e+000  9.425018e-001 -2.900722e+000
    endloop
  endfacet
  facet normal -9.999999e-001  0.000000e+000  -0.000000e+000
    outer loop
      vertex  0.000000e+000  4.402176e+001  5.480968e+000
      vertex  0.000000e+000  4.465933e+001  5.970191e+000
      vertex  0.000000e+000  4.923880e+001  3.826834e+000
    endloop
  endfacet
  facet normal -9.999999e-001  0.000000e+000  0.000000e+000
    outer loop
      vertex  0.000000e+000  4.923880e+001  3.826834e+000
      vertex  0.000000e+000  4.465933e+001  5.970191e+000
      vertex  0.000000e+000  4.476422e+001  6.766951e+000
    endloop
  endfacet
  facet normal -9.999999e-001  0.000000e+000  0.000000e+000
    outer loop
      vertex  0.000000e+000  4.923880e+001  3.826834e+000
      vertex  0.000000e+000  4.476422e+001  6.766951e+000
      vertex  0.000000e+000  4.707107e+001  7.071068e+000
    endloop
  endfacet
  facet normal -1.000000e+000  0.000000e+000  -0.000000e+000
    outer loop
      vertex  0.000000e+000  4.094250e+001 -2.900722e+000
      vertex  0.000000e+000  4.246750e+001 -1.792745e+000
      vertex  0.000000e+000  5.000000e+001 -1.200000e+001
    endloop
  endfacet
  facet normal -1.000000e+000  0.000000e+000  0.000000e+000
    outer loop
      vertex  0.000000e+000  5.000000e+001 -1.200000e+001
      vertex  0.000000e+000  4.246750e+001 -1.792745e+000
      vertex  0.000000e+000  4.305000e+001  0.000000e+000
    endloop
  endfacet
  facet normal -1.000000e+000  0.000000e+000  0.000000e+000
    outer loop
      vertex  0.000000e+000  5.000000e+001 -1.200000e+001
      vertex  0.000000e+000  4.305000e+001  0.000000e+000
      vertex  0.000000e+000  5.000000e+001  3.907985e-014
    endloop
  endfacet
  facet normal  0.000000e+000 -1.000000e+000  0.000000e+000
    outer loop
      vertex  1.700000e+001  3.300000e+001 -6.500000e+000
      vertex  1.700000e+001  3.300000e+001 -1.200000e+001
      vertex  1.900000e+001  3.300000e+001 -6.500000e+000
    endloop
  endfacet
  facet normal  0.000000e+000 -1.000000e+000  -0.000000e+000
    outer loop
      vertex  1.900000e+001  3.300000e+001 -6.500000e+000
      vertex  1.700000e+001  3.300000e+001 -1.200000e+001
      vertex  1.900000e+001  3.300000e+001 -1.200000e+001
    endloop
  endfacet
  facet normal  0.000000e+000  1.000000e+000  0.000000e+000
    outer loop
      vertex  1.700000e+001  3.500000e+001 -1.200000e+001
      vertex  1.700000e+001  3.500000e+001 -6.500000e+000
      vertex  1.900000e+001  3.500000e+001 -1.200000e+001
    endloop
  endfacet
  facet normal  0.000000e+000  1.000000e+000  -0.000000e+000
    outer loop
      vertex  1.900000e+001  3.500000e+001 -1.200000e+001
      vertex  1.700000e+001  3.500000e+001 -6.500000e+000
      vertex  1.900000e+001  3.500000e+001 -6.500000e+000
    endloop
  endfacet
  facet normal  0.000000e+000 -1.000000e+000  0.000000e+000
    outer loop
      vertex  1.700000e+001  5.000000e+000 -6.500000e+000
      vertex  1.700000e+001  5.000000e+000 -1.200000e+001
      vertex  1.900000e+001  5.000000e+000 -6.500000e+000
    endloop
  endfacet
  facet normal  0.000000e+000 -1.000000e+000  -0.000000e+000
    outer loop
      vertex  1.900000e+001  5.000000e+000 -6.500000e+000
      vertex  1.700000e+001  5.000000e+000 -1.200000e+001
      vertex  1.900000e+001  5.000000e+000 -1.200000e+001
    endloop
  endfacet
  facet normal  0.000000e+000  1.000000e+000  0.000000e+000
    outer loop
      vertex  1.700000e+001  7.000000e+000 -1.200000e+001
      vertex  1.700000e+001  7.000000e+000 -6.500000e+000
      vertex  1.900000e+001  7.000000e+000 -1.200000e+001
    endloop
  endfacet
  facet normal  0.000000e+000  1.000000e+000  -0.000000e+000
    outer loop
      vertex  1.900000e+001  7.000000e+000 -1.200000e+001
      vertex  1.700000e+001  7.000000e+000 -6.500000e+000
      vertex  1.900000e+001  7.000000e+000 -6.500000e+000
    endloop
  endfacet
  facet normal  0.000000e+000  -0.000000e+000  1.000000e+000
    outer loop
      vertex  3.000000e+000 -1.000000e+001 -1.200000e+001
      vertex  1.900000e+001 -1.000000e+001 -1.200000e+001
      vertex  1.900000e+001  5.000000e+000 -1.200000e+001
    endloop
  endfacet
  facet normal  0.000000e+000  0.000000e+000  1.000000e+000
    outer loop
      vertex  3.000000e+000 -1.000000e+001 -1.200000e+001
      vertex  1.900000e+001  5.000000e+000 -1.200000e+001
      vertex  1.700000e+001  5.000000e+000 -1.200000e+001
    endloop
  endfacet
  facet normal  0.000000e+000  -0.000000e+000  1.000000e+000
    outer loop
      vertex  3.000000e+000 -1.000000e+001 -1.200000e+001
      vertex  1.700000e+001  5.000000e+000 -1.200000e+001
      vertex  1.700000e+001  7.000000e+000 -1.200000e+001
    endloop
  endfacet
  facet normal  0.000000e+000  -0.000000e+000  1.000000e+000
    outer loop
      vertex  3.000000e+000 -1.000000e+001 -1.200000e+001
      vertex  1.700000e+001  7.000000e+000 -1.200000e+001
      vertex  1.700000e+001  3.300000e+001 -1.200000e+001
    endloop
  endfacet
  facet normal  0.000000e+000  -0.000000e+000  1.000000e+000
    outer loop
      vertex  3.000000e+000 -1.000000e+001 -1.200000e+001
      vertex  1.700000e+001  3.300000e+001 -1.200000e+001
      vertex  1.700000e+001  3.500000e+001 -1.200000e+001
    endloop
  endfacet
  facet normal  0.000000e+000  0.000000e+000  1.000000e+000
    outer loop
      vertex  3.000000e+000 -1.000000e+001 -1.200000e+001
      vertex  1.700000e+001  3.500000e+001 -1.200000e+001
      vertex  3.000000e+000  5.000000e+001 -1.200000e+001
    endloop
  endfacet
  facet normal  0.000000e+000  0.000000e+000  1.000000e+000
    outer loop
      vertex  1.900000e+001  7.000000e+000 -1.200000e+001
      vertex  1.900000e+001  3.300000e+001 -1.200000e+001
      vertex  1.700000e+001  7.000000e+000 -1.200000e+001
    endloop
  endfacet
  facet normal  0.000000e+000  0.000000e+000  1.000000e+000
    outer loop
      vertex  1.700000e+001  7.000000e+000 -1.200000e+001
      vertex  1.900000e+001  3.300000e+001 -1.200000e+001
      vertex  1.700000e+001  3.300000e+001 -1.200000e+001
    endloop
  endfacet
  facet normal  -0.000000e+000  0.000000e+000  1.000000e+000
    outer loop
      vertex  1.900000e+001  5.000000e+001 -1.200000e+001
      vertex  3.000000e+000  5.000000e+001 -1.200000e+001
      vertex  1.900000e+001  3.500000e+001 -1.200000e+001
    endloop
  endfacet
  facet normal  0.000000e+000  0.000000e+000  1.000000e+000
    outer loop
      vertex  1.900000e+001  3.500000e+001 -1.200000e+001
      vertex  3.000000e+000  5.000000e+001 -1.200000e+001
      vertex  1.700000e+001  3.500000e+001 -1.200000e+001
    endloop
  endfacet
  facet normal -1.000000e+000  0.000000e+000  0.000000e+000
    outer loop
      vertex  1.700000e+001  1.600000e+001 -4.500000e+000
      vertex  1.700000e+001  1.600000e+001  4.500000e+000
      vertex  1.700000e+001  1.800000e+001  4.500000e+000
    endloop
  endfacet
  facet normal -1.000000e+000  0.000000e+000  -0.000000e+000
    outer loop
      vertex  1.700000e+001  1.600000e+001 -4.500000e+000
      vertex  1.700000e+001  1.800000e+001  4.500000e+000
      vertex  1.700000e+001  1.800000e+001 -6.500000e+000
    endloop
  endfacet
  facet normal -1.000000e+000  0.000000e+000  0.000000e+000
    outer loop
      vertex  1.700000e+001  1.600000e+001 -4.500000e+000
      vertex  1.700000e+001  1.800000e+001 -6.500000e+000
      vertex  1.700000e+001  7.000000e+000 -6.500000e+000
    endloop
  endfacet
  facet normal -1.000000e+000  0.000000e+000  0.000000e+000
    outer loop
      vertex  1.700000e+001  1.600000e+001 -4.500000e+000
      vertex  1.700000e+001  7.000000e+000 -6.500000e+000
      vertex  1.700000e+001  5.000000e+000 -6.500000e+000
    endloop
  endfacet
  facet normal -1.000000e+000  0.000000e+000  0.000000e+000
    outer loop
      vertex  1.700000e+001  1.600000e+001 -4.500000e+000
      vertex  1.700000e+001  5.000000e+000 -6.500000e+000
      vertex  1.700000e+001 -6.000000e+000 -6.500000e+000
    endloop
  endfacet
  facet normal -1.000000e+000  0.000000e+000  0.000000e+000
    outer loop
      vertex  1.700000e+001  1.600000e+001 -4.500000e+000
      vertex  1.700000e+001 -6.000000e+000 -6.500000e+000
      vertex  1.700000e+001 -4.000000e+000 -4.500000e+000
    endloop
  endfacet
  facet normal -1.000000e+000  0.000000e+000  0.000000e+000
    outer loop
      vertex  1.700000e+001 -6.000000e+000 -6.500000e+000
      vertex  1.700000e+001 -6.000000e+000  4.500000e+000
      vertex  1.700000e+001 -4.000000e+000 -4.500000e+000
    endloop
  endfacet
  facet normal -1.000000e+000  0.000000e+000  0.000000e+000
    outer loop
      vertex  1.700000e+001 -4.000000e+000 -4.500000e+000
      vertex  1.700000e+001 -6.000000e+000  4.500000e+000
      vertex  1.700000e+001 -4.000000e+000  4.500000e+000
    endloop
  endfacet
  facet normal -1.000000e+000  0.000000e+000  0.000000e+000
    outer loop
      vertex  1.700000e+001  5.000000e+000 -1.200000e+001
      vertex  1.700000e+001  5.000000e+000 -6.500000e+000
      vertex  1.700000e+001  7.000000e+000 -1.200000e+001
    endloop
  endfacet
  facet normal -1.000000e+000  0.000000e+000  0.000000e+000
    outer loop
      vertex  1.700000e+001  7.000000e+000 -1.200000e+001
      vertex  1.700000e+001  5.000000e+000 -6.500000e+000
      vertex  1.700000e+001  7.000000e+000 -6.500000e+000
    endloop
  endfacet
  facet normal -1.000000e+000  0.000000e+000  0.000000e+000
    outer loop
      vertex  1.700000e+001  4.400000e+001 -4.500000e+000
      vertex  1.700000e+001  4.400000e+001  4.500000e+000
      vertex  1.700000e+001  4.600000e+001  4.500000e+000
    endloop
  endfacet
  facet normal -1.000000e+000  0.000000e+000  -0.000000e+000
    outer loop
      vertex  1.700000e+001  4.400000e+001 -4.500000e+000
      vertex  1.700000e+001  4.600000e+001  4.500000e+000
      vertex  1.700000e+001  4.600000e+001 -6.500000e+000
    endloop
  endfacet
  facet normal -1.000000e+000  0.000000e+000  0.000000e+000
    outer loop
      vertex  1.700000e+001  4.400000e+001 -4.500000e+000
      vertex  1.700000e+001  4.600000e+001 -6.500000e+000
      vertex  1.700000e+001  3.500000e+001 -6.500000e+000
    endloop
  endfacet
  facet normal -1.000000e+000  0.000000e+000  0.000000e+000
    outer loop
      vertex  1.700000e+001  4.400000e+001 -4.500000e+000
      vertex  1.700000e+001  3.500000e+001 -6.500000e+000
      vertex  1.700000e+001  3.300000e+001 -6.500000e+000
    endloop
  endfacet
  facet normal -1.000000e+000  0.000000e+000  0.000000e+000
    outer loop
      vertex  1.700000e+001  4.400000e+001 -4.500000e+000
      vertex  1.700000e+001  3.300000e+001 -6.500000e+000
      vertex  1.700000e+001  2.200000e+001 -6.500000e+000
    endloop
  endfacet
  facet normal -1.000000e+000  0.000000e+000  0.000000e+000
    outer loop
      vertex  1.700000e+001  4.400000e+001 -4.500000e+000
      vertex  1.700000e+001  2.200000e+001 -6.500000e+000
      vertex  1.700000e+001  2.400000e+001 -4.500000e+000
    endloop
  endfacet
  facet normal -1.000000e+000  0.000000e+000  0.000000e+000
    outer loop
      vertex  1.700000e+001  2.200000e+001 -6.500000e+000
      vertex  1.700000e+001  2.200000e+001  4.500000e+000
      vertex  1.700000e+001  2.400000e+001 -4.500000e+000
    endloop
  endfacet
  facet normal -1.000000e+000  0.000000e+000  0.000000e+000
    outer loop
      vertex  1.700000e+001  2.400000e+001 -4.500000e+000
      vertex  1.700000e+001  2.200000e+001  4.500000e+000
      vertex  1.700000e+001  2.400000e+001  4.500000e+000
    endloop
  endfacet
  facet normal -1.000000e+000  0.000000e+000  0.000000e+000
    outer loop
      vertex  1.700000e+001  3.300000e+001 -1.200000e+001
      vertex  1.700000e+001  3.300000e+001 -6.500000e+000
      vertex  1.700000e+001  3.500000e+001 -1.200000e+001
    endloop
  endfacet
  facet normal -1.000000e+000  0.000000e+000  0.000000e+000
    outer loop
      vertex  1.700000e+001  3.500000e+001 -1.200000e+001
      vertex  1.700000e+001  3.300000e+001 -6.500000e+000
      vertex  1.700000e+001  3.500000e+001 -6.500000e+000
    endloop
  endfacet
  facet normal  0.000000e+000  0.000000e+000  1.000000e+000
    outer loop
      vertex  1.700000e+001  1.600000e+001  4.500000e+000
      vertex  1.900000e+001  1.600000e+001  4.500000e+000
      vertex  1.700000e+001  1.800000e+001  4.500000e+000
    endloop
  endfacet
  facet normal  -0.000000e+000  0.000000e+000  1.000000e+000
    outer loop
      vertex  1.700000e+001  1.800000e+001  4.500000e+000
      vertex  1.900000e+001  1.600000e+001  4.500000e+000
      vertex  1.900000e+001  1.800000e+001  4.500000e+000
    endloop
  endfacet
  facet normal  0.000000e+000  1.000000e+000  0.000000e+000
    outer loop
      vertex  1.700000e+001  1.800000e+001 -6.500000e+000
      vertex  1.700000e+001  1.800000e+001  4.500000e+000
      vertex  1.900000e+001  1.800000e+001 -6.500000e+000
    endloop
  endfacet
  facet normal  0.000000e+000  1.000000e+000  -0.000000e+000
    outer loop
      vertex  1.900000e+001  1.800000e+001 -6.500000e+000
      vertex  1.700000e+001  1.800000e+001  4.500000e+000
      vertex  1.900000e+001  1.800000e+001  4.500000e+000
    endloop
  endfacet
  facet normal  0.000000e+000  0.000000e+000 -1.000000e+000
    outer loop
      vertex  1.700000e+001  7.000000e+000 -6.500000e+000
      vertex  1.700000e+001  1.800000e+001 -6.500000e+000
      vertex  1.900000e+001  7.000000e+000 -6.500000e+000
    endloop
  endfacet
  facet normal  0.000000e+000  0.000000e+000 -1.000000e+000
    outer loop
      vertex  1.900000e+001  7.000000e+000 -6.500000e+000
      vertex  1.700000e+001  1.800000e+001 -6.500000e+000
      vertex  1.900000e+001  1.800000e+001 -6.500000e+000
    endloop
  endfacet
  facet normal  0.000000e+000  0.000000e+000 -1.000000e+000
    outer loop
      vertex  1.700000e+001 -6.000000e+000 -6.500000e+000
      vertex  1.700000e+001  5.000000e+000 -6.500000e+000
      vertex  1.900000e+001 -6.000000e+000 -6.500000e+000
    endloop
  endfacet
  facet normal  0.000000e+000  0.000000e+000 -1.000000e+000
    outer loop
      vertex  1.900000e+001 -6.000000e+000 -6.500000e+000
      vertex  1.700000e+001  5.000000e+000 -6.500000e+000
      vertex  1.900000e+001  5.000000e+000 -6.500000e+000
    endloop
  endfacet
  facet normal  0.000000e+000 -1.000000e+000  0.000000e+000
    outer loop
      vertex  1.700000e+001 -6.000000e+000  4.500000e+000
      vertex  1.700000e+001 -6.000000e+000 -6.500000e+000
      vertex  1.900000e+001 -6.000000e+000  4.500000e+000
    endloop
  endfacet
  facet normal  0.000000e+000 -1.000000e+000  -0.000000e+000
    outer loop
      vertex  1.900000e+001 -6.000000e+000  4.500000e+000
      vertex  1.700000e+001 -6.000000e+000 -6.500000e+000
      vertex  1.900000e+001 -6.000000e+000 -6.500000e+000
    endloop
  endfacet
  facet normal  0.000000e+000  0.000000e+000  1.000000e+000
    outer loop
      vertex  1.700000e+001 -6.000000e+000  4.500000e+000
      vertex  1.900000e+001 -6.000000e+000  4.500000e+000
      vertex  1.700000e+001 -4.000000e+000  4.500000e+000
    endloop
  endfacet
  facet normal  -0.000000e+000  0.000000e+000  1.000000e+000
    outer loop
      vertex  1.700000e+001 -4.000000e+000  4.500000e+000
      vertex  1.900000e+001 -6.000000e+000  4.500000e+000
      vertex  1.900000e+001 -4.000000e+000  4.500000e+000
    endloop
  endfacet
  facet normal  0.000000e+000  1.000000e+000  0.000000e+000
    outer loop
      vertex  1.700000e+001 -4.000000e+000  4.500000e+000
      vertex  1.900000e+001 -4.000000e+000  4.500000e+000
      vertex  1.700000e+001 -4.000000e+000 -4.500000e+000
    endloop
  endfacet
  facet normal  0.000000e+000  1.000000e+000  0.000000e+000
    outer loop
      vertex  1.700000e+001 -4.000000e+000 -4.500000e+000
      vertex  1.900000e+001 -4.000000e+000  4.500000e+000
      vertex  1.900000e+001 -4.000000e+000 -4.500000e+000
    endloop
  endfacet
  facet normal  0.000000e+000  0.000000e+000  1.000000e+000
    outer loop
      vertex  1.700000e+001  1.600000e+001 -4.500000e+000
      vertex  1.700000e+001 -4.000000e+000 -4.500000e+000
      vertex  1.900000e+001  1.600000e+001 -4.500000e+000
    endloop
  endfacet
  facet normal  0.000000e+000  0.000000e+000  1.000000e+000
    outer loop
      vertex  1.900000e+001  1.600000e+001 -4.500000e+000
      vertex  1.700000e+001 -4.000000e+000 -4.500000e+000
      vertex  1.900000e+001 -4.000000e+000 -4.500000e+000
    endloop
  endfacet
  facet normal  0.000000e+000 -1.000000e+000  0.000000e+000
    outer loop
      vertex  1.700000e+001  1.600000e+001 -4.500000e+000
      vertex  1.900000e+001  1.600000e+001 -4.500000e+000
      vertex  1.700000e+001  1.600000e+001  4.500000e+000
    endloop
  endfacet
  facet normal  0.000000e+000 -1.000000e+000  0.000000e+000
    outer loop
      vertex  1.700000e+001  1.600000e+001  4.500000e+000
      vertex  1.900000e+001  1.600000e+001 -4.500000e+000
      vertex  1.900000e+001  1.600000e+001  4.500000e+000
    endloop
  endfacet
  facet normal  0.000000e+000  0.000000e+000 -1.000000e+000
    outer loop
      vertex  1.700000e+001  2.200000e+001 -6.500000e+000
      vertex  1.700000e+001  3.300000e+001 -6.500000e+000
      vertex  1.900000e+001  2.200000e+001 -6.500000e+000
    endloop
  endfacet
  facet normal  0.000000e+000  0.000000e+000 -1.000000e+000
    outer loop
      vertex  1.900000e+001  2.200000e+001 -6.500000e+000
      vertex  1.700000e+001  3.300000e+001 -6.500000e+000
      vertex  1.900000e+001  3.300000e+001 -6.500000e+000
    endloop
  endfacet
  facet normal  0.000000e+000 -1.000000e+000  0.000000e+000
    outer loop
      vertex  1.700000e+001  2.200000e+001  4.500000e+000
      vertex  1.700000e+001  2.200000e+001 -6.500000e+000
      vertex  1.900000e+001  2.200000e+001  4.500000e+000
    endloop
  endfacet
  facet normal  0.000000e+000 -1.000000e+000  -0.000000e+000
    outer loop
      vertex  1.900000e+001  2.200000e+001  4.500000e+000
      vertex  1.700000e+001  2.200000e+001 -6.500000e+000
      vertex  1.900000e+001  2.200000e+001 -6.500000e+000
    endloop
  endfacet
  facet normal  0.000000e+000  0.000000e+000  1.000000e+000
    outer loop
      vertex  1.700000e+001  2.200000e+001  4.500000e+000
      vertex  1.900000e+001  2.200000e+001  4.500000e+000
      vertex  1.700000e+001  2.400000e+001  4.500000e+000
    endloop
  endfacet
  facet normal  -0.000000e+000  0.000000e+000  1.000000e+000
    outer loop
      vertex  1.700000e+001  2.400000e+001  4.500000e+000
      vertex  1.900000e+001  2.200000e+001  4.500000e+000
      vertex  1.900000e+001  2.400000e+001  4.500000e+000
    endloop
  endfacet
  facet normal  0.000000e+000  1.000000e+000  0.000000e+000
    outer loop
      vertex  1.700000e+001  2.400000e+001  4.500000e+000
      vertex  1.900000e+001  2.400000e+001  4.500000e+000
      vertex  1.700000e+001  2.400000e+001 -4.500000e+000
    endloop
  endfacet
  facet normal  0.000000e+000  1.000000e+000  0.000000e+000
    outer loop
      vertex  1.700000e+001  2.400000e+001 -4.500000e+000
      vertex  1.900000e+001  2.400000e+001  4.500000e+000
      vertex  1.900000e+001  2.400000e+001 -4.500000e+000
    endloop
  endfacet
  facet normal  0.000000e+000  0.000000e+000  1.000000e+000
    outer loop
      vertex  1.700000e+001  4.400000e+001 -4.500000e+000
      vertex  1.700000e+001  2.400000e+001 -4.500000e+000
      vertex  1.900000e+001  4.400000e+001 -4.500000e+000
    endloop
  endfacet
  facet normal  0.000000e+000  0.000000e+000  1.000000e+000
    outer loop
      vertex  1.900000e+001  4.400000e+001 -4.500000e+000
      vertex  1.700000e+001  2.400000e+001 -4.500000e+000
      vertex  1.900000e+001  2.400000e+001 -4.500000e+000
    endloop
  endfacet
  facet normal  0.000000e+000 -1.000000e+000  0.000000e+000
    outer loop
      vertex  1.700000e+001  4.400000e+001 -4.500000e+000
      vertex  1.900000e+001  4.400000e+001 -4.500000e+000
      vertex  1.700000e+001  4.400000e+001  4.500000e+000
    endloop
  endfacet
  facet normal  0.000000e+000 -1.000000e+000  0.000000e+000
    outer loop
      vertex  1.700000e+001  4.400000e+001  4.500000e+000
      vertex  1.900000e+001  4.400000e+001 -4.500000e+000
      vertex  1.900000e+001  4.400000e+001  4.500000e+000
    endloop
  endfacet
  facet normal  0.000000e+000  0.000000e+000  1.000000e+000
    outer loop
      vertex  1.700000e+001  4.400000e+001  4.500000e+000
      vertex  1.900000e+001  4.400000e+001  4.500000e+000
      vertex  1.700000e+001  4.600000e+001  4.500000e+000
    endloop
  endfacet
  facet normal  -0.000000e+000  0.000000e+000  1.000000e+000
    outer loop
      vertex  1.700000e+001  4.600000e+001  4.500000e+000
      vertex  1.900000e+001  4.400000e+001  4.500000e+000
      vertex  1.900000e+001  4.600000e+001  4.500000e+000
    endloop
  endfacet
  facet normal  0.000000e+000  1.000000e+000  0.000000e+000
    outer loop
      vertex  1.700000e+001  4.600000e+001  4.500000e+000
      vertex  1.900000e+001  4.600000e+001  4.500000e+000
      vertex  1.700000e+001  4.600000e+001 -6.500000e+000
    endloop
  endfacet
  facet normal  0.000000e+000  1.000000e+000  0.000000e+000
    outer loop
      vertex  1.700000e+001  4.600000e+001 -6.500000e+000
      vertex  1.900000e+001  4.600000e+001  4.500000e+000
      vertex  1.900000e+001  4.600000e+001 -6.500000e+000
    endloop
  endfacet
  facet normal  0.000000e+000  0.000000e+000 -1.000000e+000
    outer loop
      vertex  1.700000e+001  3.500000e+001 -6.500000e+000
      vertex  1.700000e+001  4.600000e+001 -6.500000e+000
      vertex  1.900000e+001  3.500000e+001 -6.500000e+000
    endloop
  endfacet
  facet normal  0.000000e+000  0.000000e+000 -1.000000e+000
    outer loop
      vertex  1.900000e+001  3.500000e+001 -6.500000e+000
      vertex  1.700000e+001  4.600000e+001 -6.500000e+000
      vertex  1.900000e+001  4.600000e+001 -6.500000e+000
    endloop
  endfacet
  facet normal  1.000000e+000  0.000000e+000  0.000000e+000
    outer loop
      vertex  3.000000e+000  3.677500e+001  5.585864e+000
      vertex  3.000000e+000  3.905750e+001  2.900722e+000
      vertex  3.000000e+000  3.887997e+001  6.352010e+000
    endloop
  endfacet
  facet normal  1.000000e+000  -0.000000e+000  0.000000e+000
    outer loop
      vertex  3.000000e+000  3.677500e+001  5.585864e+000
      vertex  3.000000e+000  3.597824e+001  5.480968e+000
      vertex  3.000000e+000  3.905750e+001  2.900722e+000
    endloop
  endfacet
  facet normal  1.000000e+000  0.000000e+000  0.000000e+000
    outer loop
      vertex  3.000000e+000  3.225000e+000  5.585864e+000
      vertex  3.000000e+000  9.425018e-001  2.900722e+000
      vertex  3.000000e+000  4.021760e+000  5.480968e+000
    endloop
  endfacet
  facet normal  1.000000e+000  -0.000000e+000  0.000000e+000
    outer loop
      vertex  3.000000e+000 -4.275000e+000  7.404517e+000
      vertex  3.000000e+000 -7.071068e+000  7.071068e+000
      vertex  3.000000e+000 -4.764222e+000  6.766951e+000
    endloop
  endfacet
  facet normal  1.000000e+000  0.000000e+000  0.000000e+000
    outer loop
      vertex  3.000000e+000 -1.000000e+001 -1.200000e+001
      vertex  3.000000e+000  5.000000e+001 -1.200000e+001
      vertex  3.000000e+000  4.094250e+001 -2.900722e+000
    endloop
  endfacet
  facet normal  1.000000e+000  0.000000e+000  0.000000e+000
    outer loop
      vertex  3.000000e+000 -1.000000e+001 -1.200000e+001
      vertex  3.000000e+000  4.094250e+001 -2.900722e+000
      vertex  3.000000e+000  3.905750e+001 -2.900722e+000
    endloop
  endfacet
  facet normal  1.000000e+000  0.000000e+000  0.000000e+000
    outer loop
      vertex  3.000000e+000 -1.000000e+001 -1.200000e+001
      vertex  3.000000e+000  3.905750e+001 -2.900722e+000
      vertex  3.000000e+000  9.425018e-001 -2.900722e+000
    endloop
  endfacet
  facet normal  1.000000e+000  0.000000e+000  0.000000e+000
    outer loop
      vertex  3.000000e+000 -1.000000e+001 -1.200000e+001
      vertex  3.000000e+000  9.425018e-001 -2.900722e+000
      vertex  3.000000e+000 -9.425018e-001 -2.900722e+000
    endloop
  endfacet
  facet normal  1.000000e+000  0.000000e+000  0.000000e+000
    outer loop
      vertex  3.000000e+000 -1.000000e+001 -1.200000e+001
      vertex  3.000000e+000 -9.425018e-001 -2.900722e+000
      vertex  3.000000e+000 -2.467502e+000 -1.792745e+000
    endloop
  endfacet
  facet normal  1.000000e+000  0.000000e+000  0.000000e+000
    outer loop
      vertex  3.000000e+000 -1.000000e+001 -1.200000e+001
      vertex  3.000000e+000 -2.467502e+000 -1.792745e+000
      vertex  3.000000e+000 -3.050000e+000  3.735173e-016
    endloop
  endfacet
  facet normal  1.000000e+000  0.000000e+000  0.000000e+000
    outer loop
      vertex  3.000000e+000 -1.000000e+001 -1.200000e+001
      vertex  3.000000e+000 -3.050000e+000  3.735173e-016
      vertex  3.000000e+000 -1.000000e+001  1.224647e-015
    endloop
  endfacet
  facet normal  1.000000e+000  0.000000e+000  0.000000e+000
    outer loop
      vertex  3.000000e+000 -9.238795e+000  3.826834e+000
      vertex  3.000000e+000 -4.021760e+000  5.480968e+000
      vertex  3.000000e+000 -4.659327e+000  5.970191e+000
    endloop
  endfacet
  facet normal  1.000000e+000  0.000000e+000  0.000000e+000
    outer loop
      vertex  3.000000e+000 -9.238795e+000  3.826834e+000
      vertex  3.000000e+000 -4.659327e+000  5.970191e+000
      vertex  3.000000e+000 -4.764222e+000  6.766951e+000
    endloop
  endfacet
  facet normal  1.000000e+000  0.000000e+000  0.000000e+000
    outer loop
      vertex  3.000000e+000 -9.238795e+000  3.826834e+000
      vertex  3.000000e+000 -4.764222e+000  6.766951e+000
      vertex  3.000000e+000 -7.071068e+000  7.071068e+000
    endloop
  endfacet
  facet normal  1.000000e+000  0.000000e+000  0.000000e+000
    outer loop
      vertex  3.000000e+000  3.225000e+000  5.585864e+000
      vertex  3.000000e+000  1.120031e+000  6.352010e+000
      vertex  3.000000e+000  9.425018e-001  2.900722e+000
    endloop
  endfacet
  facet normal  1.000000e+000  0.000000e+000  -0.000000e+000
    outer loop
      vertex  3.000000e+000  9.425018e-001  2.900722e+000
      vertex  3.000000e+000  1.120031e+000  6.352010e+000
      vertex  3.000000e+000 -1.120031e+000  6.352010e+000
    endloop
  endfacet
  facet normal  1.000000e+000  0.000000e+000  0.000000e+000
    outer loop
      vertex  3.000000e+000  9.425018e-001  2.900722e+000
      vertex  3.000000e+000 -1.120031e+000  6.352010e+000
      vertex  3.000000e+000 -9.425018e-001  2.900722e+000
    endloop
  endfacet
  facet normal  1.000000e+000  0.000000e+000  0.000000e+000
    outer loop
      vertex  3.000000e+000 -9.425018e-001  2.900722e+000
      vertex  3.000000e+000 -1.120031e+000  6.352010e+000
      vertex  3.000000e+000 -3.225000e+000  5.585864e+000
    endloop
  endfacet
  facet normal  9.999999e-001  0.000000e+000  0.000000e+000
    outer loop
      vertex  3.000000e+000 -9.425018e-001  2.900722e+000
      vertex  3.000000e+000 -3.225000e+000  5.585864e+000
      vertex  3.000000e+000 -9.238795e+000  3.826834e+000
    endloop
  endfacet
  facet normal  9.999999e-001  0.000000e+000  0.000000e+000
    outer loop
      vertex  3.000000e+000 -9.238795e+000  3.826834e+000
      vertex  3.000000e+000 -3.225000e+000  5.585864e+000
      vertex  3.000000e+000 -4.021760e+000  5.480968e+000
    endloop
  endfacet
  facet normal  9.999999e-001  0.000000e+000  0.000000e+000
    outer loop
      vertex  3.000000e+000 -1.608123e-015  1.000000e+001
      vertex  3.000000e+000 -1.484692e+000  8.420106e+000
      vertex  3.000000e+000  4.000000e+001  1.000000e+001
    endloop
  endfacet
  facet normal  1.000000e+000  0.000000e+000  0.000000e+000
    outer loop
      vertex  3.000000e+000  4.000000e+001  1.000000e+001
      vertex  3.000000e+000 -1.484692e+000  8.420106e+000
      vertex  3.000000e+000  1.484692e+000  8.420106e+000
    endloop
  endfacet
  facet normal  1.000000e+000  0.000000e+000  0.000000e+000
    outer loop
      vertex  3.000000e+000  4.000000e+001  1.000000e+001
      vertex  3.000000e+000  1.484692e+000  8.420106e+000
      vertex  3.000000e+000  3.851531e+001  8.420106e+000
    endloop
  endfacet
  facet normal  1.000000e+000  0.000000e+000  -0.000000e+000
    outer loop
      vertex  3.000000e+000  3.887997e+001  6.352010e+000
      vertex  3.000000e+000  3.905750e+001  2.900722e+000
      vertex  3.000000e+000  4.112003e+001  6.352010e+000
    endloop
  endfacet
  facet normal  1.000000e+000  0.000000e+000  0.000000e+000
    outer loop
      vertex  3.000000e+000  4.112003e+001  6.352010e+000
      vertex  3.000000e+000  3.905750e+001  2.900722e+000
      vertex  3.000000e+000  4.094250e+001  2.900722e+000
    endloop
  endfacet
  facet normal  1.000000e+000  0.000000e+000  0.000000e+000
    outer loop
      vertex  3.000000e+000  4.112003e+001  6.352010e+000
      vertex  3.000000e+000  4.094250e+001  2.900722e+000
      vertex  3.000000e+000  4.322500e+001  5.585864e+000
    endloop
  endfacet
  facet normal  1.000000e+000  0.000000e+000  0.000000e+000
    outer loop
      vertex  3.000000e+000  4.402176e+001  5.480968e+000
      vertex  3.000000e+000  4.322500e+001  5.585864e+000
      vertex  3.000000e+000  4.923880e+001  3.826834e+000
    endloop
  endfacet
  facet normal  1.000000e+000  0.000000e+000  0.000000e+000
    outer loop
      vertex  3.000000e+000  4.923880e+001  3.826834e+000
      vertex  3.000000e+000  4.322500e+001  5.585864e+000
      vertex  3.000000e+000  4.094250e+001  2.900722e+000
    endloop
  endfacet
  facet normal  1.000000e+000  -0.000000e+000  0.000000e+000
    outer loop
      vertex  3.000000e+000  4.923880e+001  3.826834e+000
      vertex  3.000000e+000  4.094250e+001  2.900722e+000
      vertex  3.000000e+000  5.000000e+001  3.907985e-014
    endloop
  endfacet
  facet normal  1.000000e+000  0.000000e+000  0.000000e+000
    outer loop
      vertex  3.000000e+000  5.000000e+001  3.907985e-014
      vertex  3.000000e+000  4.094250e+001  2.900722e+000
      vertex  3.000000e+000  4.246750e+001  1.792745e+000
    endloop
  endfacet
  facet normal  1.000000e+000  0.000000e+000  0.000000e+000
    outer loop
      vertex  3.000000e+000  5.000000e+001  3.907985e-014
      vertex  3.000000e+000  4.246750e+001  1.792745e+000
      vertex  3.000000e+000  4.305000e+001  0.000000e+000
    endloop
  endfacet
  facet normal  9.999999e-001  0.000000e+000  0.000000e+000
    outer loop
      vertex  3.000000e+000  4.000000e+001  1.000000e+001
      vertex  3.000000e+000  3.851531e+001  8.420106e+000
      vertex  3.000000e+000  4.382684e+001  9.238795e+000
    endloop
  endfacet
  facet normal  1.000000e+000  0.000000e+000  0.000000e+000
    outer loop
      vertex  3.000000e+000  4.382684e+001  9.238795e+000
      vertex  3.000000e+000  3.851531e+001  8.420106e+000
      vertex  3.000000e+000  4.148469e+001  8.420106e+000
    endloop
  endfacet
  facet normal  1.000000e+000  -0.000000e+000  0.000000e+000
    outer loop
      vertex  3.000000e+000  4.382684e+001  9.238795e+000
      vertex  3.000000e+000  4.148469e+001  8.420106e+000
      vertex  3.000000e+000  4.707107e+001  7.071068e+000
    endloop
  endfacet
  facet normal  1.000000e+000  0.000000e+000  0.000000e+000
    outer loop
      vertex  3.000000e+000  4.707107e+001  7.071068e+000
      vertex  3.000000e+000  4.148469e+001  8.420106e+000
      vertex  3.000000e+000  4.427500e+001  7.404517e+000
    endloop
  endfacet
  facet normal  9.999999e-001  0.000000e+000  0.000000e+000
    outer loop
      vertex  3.000000e+000  4.707107e+001  7.071068e+000
      vertex  3.000000e+000  4.427500e+001  7.404517e+000
      vertex  3.000000e+000  4.476422e+001  6.766951e+000
    endloop
  endfacet
  facet normal  1.000000e+000  0.000000e+000  -0.000000e+000
    outer loop
      vertex  3.000000e+000 -7.071068e+000  7.071068e+000
      vertex  3.000000e+000 -4.275000e+000  7.404517e+000
      vertex  3.000000e+000 -3.826834e+000  9.238795e+000
    endloop
  endfacet
  facet normal  1.000000e+000  0.000000e+000  0.000000e+000
    outer loop
      vertex  3.000000e+000 -3.826834e+000  9.238795e+000
      vertex  3.000000e+000 -4.275000e+000  7.404517e+000
      vertex  3.000000e+000 -1.484692e+000  8.420106e+000
    endloop
  endfacet
  facet normal  1.000000e+000  0.000000e+000  -0.000000e+000
    outer loop
      vertex  3.000000e+000 -3.826834e+000  9.238795e+000
      vertex  3.000000e+000 -1.484692e+000  8.420106e+000
      vertex  3.000000e+000 -1.608123e-015  1.000000e+001
    endloop
  endfacet
  facet normal  9.999999e-001  0.000000e+000  0.000000e+000
    outer loop
      vertex  3.000000e+000 -9.425018e-001  2.900722e+000
      vertex  3.000000e+000 -9.238795e+000  3.826834e+000
      vertex  3.000000e+000 -2.467502e+000  1.792745e+000
    endloop
  endfacet
  facet normal  1.000000e+000  0.000000e+000  0.000000e+000
    outer loop
      vertex  3.000000e+000 -2.467502e+000  1.792745e+000
      vertex  3.000000e+000 -9.238795e+000  3.826834e+000
      vertex  3.000000e+000 -1.000000e+001  1.224647e-015
    endloop
  endfacet
  facet normal  1.000000e+000  -0.000000e+000  0.000000e+000
    outer loop
      vertex  3.000000e+000 -2.467502e+000  1.792745e+000
      vertex  3.000000e+000 -1.000000e+001  1.224647e-015
      vertex  3.000000e+000 -3.050000e+000  3.735173e-016
    endloop
  endfacet
  facet normal  1.000000e+000  -0.000000e+000  0.000000e+000
    outer loop
      vertex  3.000000e+000  3.851531e+001  8.420106e+000
      vertex  3.000000e+000  1.484692e+000  8.420106e+000
      vertex  3.000000e+000  3.572500e+001  7.404517e+000
    endloop
  endfacet
  facet normal  9.999999e-001  0.000000e+000  0.000000e+000
    outer loop
      vertex  3.000000e+000  3.572500e+001  7.404517e+000
      vertex  3.000000e+000  1.484692e+000  8.420106e+000
      vertex  3.000000e+000  4.275000e+000  7.404517e+000
    endloop
  endfacet
  facet normal  1.000000e+000  -0.000000e+000  0.000000e+000
    outer loop
      vertex  3.000000e+000  3.572500e+001  7.404517e+000
      vertex  3.000000e+000  4.275000e+000  7.404517e+000
      vertex  3.000000e+000  3.523578e+001  6.766951e+000
    endloop
  endfacet
  facet normal  1.000000e+000  0.000000e+000  0.000000e+000
    outer loop
      vertex  3.000000e+000  3.523578e+001  6.766951e+000
      vertex  3.000000e+000  4.275000e+000  7.404517e+000
      vertex  3.000000e+000  4.764222e+000  6.766951e+000
    endloop
  endfacet
  facet normal  1.000000e+000  -0.000000e+000  0.000000e+000
    outer loop
      vertex  3.000000e+000  3.523578e+001  6.766951e+000
      vertex  3.000000e+000  4.764222e+000  6.766951e+000
      vertex  3.000000e+000  3.534067e+001  5.970191e+000
    endloop
  endfacet
  facet normal  9.999999e-001  0.000000e+000  0.000000e+000
    outer loop
      vertex  3.000000e+000  3.534067e+001  5.970191e+000
      vertex  3.000000e+000  4.764222e+000  6.766951e+000
      vertex  3.000000e+000  4.659327e+000  5.970191e+000
    endloop
  endfacet
  facet normal  1.000000e+000  -0.000000e+000  0.000000e+000
    outer loop
      vertex  3.000000e+000  3.534067e+001  5.970191e+000
      vertex  3.000000e+000  4.659327e+000  5.970191e+000
      vertex  3.000000e+000  3.597824e+001  5.480968e+000
    endloop
  endfacet
  facet normal  1.000000e+000  0.000000e+000  0.000000e+000
    outer loop
      vertex  3.000000e+000  3.597824e+001  5.480968e+000
      vertex  3.000000e+000  4.659327e+000  5.970191e+000
      vertex  3.000000e+000  4.021760e+000  5.480968e+000
    endloop
  endfacet
  facet normal  1.000000e+000  -0.000000e+000  0.000000e+000
    outer loop
      vertex  3.000000e+000  3.597824e+001  5.480968e+000
      vertex  3.000000e+000  4.021760e+000  5.480968e+000
      vertex  3.000000e+000  9.425018e-001  2.900722e+000
    endloop
  endfacet
  facet normal  9.999999e-001  0.000000e+000  0.000000e+000
    outer loop
      vertex  3.000000e+000  9.425018e-001 -2.900722e+000
      vertex  3.000000e+000  3.905750e+001 -2.900722e+000
      vertex  3.000000e+000  2.467502e+000 -1.792745e+000
    endloop
  endfacet
  facet normal  1.000000e+000  -0.000000e+000  0.000000e+000
    outer loop
      vertex  3.000000e+000  2.467502e+000 -1.792745e+000
      vertex  3.000000e+000  3.905750e+001 -2.900722e+000
      vertex  3.000000e+000  3.753250e+001 -1.792745e+000
    endloop
  endfacet
  facet normal  9.999999e-001  0.000000e+000  0.000000e+000
    outer loop
      vertex  3.000000e+000  2.467502e+000 -1.792745e+000
      vertex  3.000000e+000  3.753250e+001 -1.792745e+000
      vertex  3.000000e+000  3.050000e+000  0.000000e+000
    endloop
  endfacet
  facet normal  1.000000e+000  -0.000000e+000  0.000000e+000
    outer loop
      vertex  3.000000e+000  3.050000e+000  0.000000e+000
      vertex  3.000000e+000  3.753250e+001 -1.792745e+000
      vertex  3.000000e+000  3.695000e+001  3.735173e-016
    endloop
  endfacet
  facet normal  1.000000e+000  0.000000e+000  0.000000e+000
    outer loop
      vertex  3.000000e+000  3.050000e+000  0.000000e+000
      vertex  3.000000e+000  3.695000e+001  3.735173e-016
      vertex  3.000000e+000  2.467502e+000  1.792745e+000
    endloop
  endfacet
  facet normal  9.999999e-001  -0.000000e+000  0.000000e+000
    outer loop
      vertex  3.000000e+000  2.467502e+000  1.792745e+000
      vertex  3.000000e+000  3.695000e+001  3.735173e-016
      vertex  3.000000e+000  3.753250e+001  1.792745e+000
    endloop
  endfacet
  facet normal  1.000000e+000  0.000000e+000  0.000000e+000
    outer loop
      vertex  3.000000e+000  2.467502e+000  1.792745e+000
      vertex  3.000000e+000  3.753250e+001  1.792745e+000
      vertex  3.000000e+000  9.425018e-001  2.900722e+000
    endloop
  endfacet
  facet normal  9.999999e-001  -0.000000e+000  0.000000e+000
    outer loop
      vertex  3.000000e+000  9.425018e-001  2.900722e+000
      vertex  3.000000e+000  3.753250e+001  1.792745e+000
      vertex  3.000000e+000  3.905750e+001  2.900722e+000
    endloop
  endfacet
  facet normal  9.999999e-001  0.000000e+000  0.000000e+000
    outer loop
      vertex  3.000000e+000  9.425018e-001  2.900722e+000
      vertex  3.000000e+000  3.905750e+001  2.900722e+000
      vertex  3.000000e+000  3.597824e+001  5.480968e+000
    endloop
  endfacet
  facet normal  9.999999e-001  -0.000000e+000  0.000000e+000
    outer loop
      vertex  3.000000e+000  4.707107e+001  7.071068e+000
      vertex  3.000000e+000  4.476422e+001  6.766951e+000
      vertex  3.000000e+000  4.923880e+001  3.826834e+000
    endloop
  endfacet
  facet normal  9.999999e-001  0.000000e+000  0.000000e+000
    outer loop
      vertex  3.000000e+000  4.923880e+001  3.826834e+000
      vertex  3.000000e+000  4.476422e+001  6.766951e+000
      vertex  3.000000e+000  4.465933e+001  5.970191e+000
    endloop
  endfacet
  facet normal  9.999999e-001  0.000000e+000  0.000000e+000
    outer loop
      vertex  3.000000e+000  4.923880e+001  3.826834e+000
      vertex  3.000000e+000  4.465933e+001  5.970191e+000
      vertex  3.000000e+000  4.402176e+001  5.480968e+000
    endloop
  endfacet
  facet normal  1.000000e+000  -0.000000e+000  0.000000e+000
    outer loop
      vertex  3.000000e+000  5.000000e+001  3.907985e-014
      vertex  3.000000e+000  4.305000e+001  0.000000e+000
      vertex  3.000000e+000  5.000000e+001 -1.200000e+001
    endloop
  endfacet
  facet normal  1.000000e+000  0.000000e+000  0.000000e+000
    outer loop
      vertex  3.000000e+000  5.000000e+001 -1.200000e+001
      vertex  3.000000e+000  4.305000e+001  0.000000e+000
      vertex  3.000000e+000  4.246750e+001 -1.792745e+000
    endloop
  endfacet
  facet normal  1.000000e+000  0.000000e+000  0.000000e+000
    outer loop
      vertex  3.000000e+000  5.000000e+001 -1.200000e+001
      vertex  3.000000e+000  4.246750e+001 -1.792745e+000
      vertex  3.000000e+000  4.094250e+001 -2.900722e+000
    endloop
  endfacet
  facet normal  0.000000e+000  1.950903e-001  9.807854e-001
    outer loop
      vertex  0.000000e+000  4.000000e+001  1.000000e+001
      vertex  3.000000e+000  4.000000e+001  1.000000e+001
      vertex  0.000000e+000  4.382684e+001  9.238795e+000
    endloop
  endfacet
  facet normal  -0.000000e+000  1.950903e-001  9.807854e-001
    outer loop
      vertex  0.000000e+000  4.382684e+001  9.238795e+000
      vertex  3.000000e+000  4.000000e+001  1.000000e+001
      vertex  3.000000e+000  4.382684e+001  9.238795e+000
    endloop
  endfacet
  facet normal  0.000000e+000  5.555704e-001  8.314695e-001
    outer loop
      vertex  0.000000e+000  4.382684e+001  9.238795e+000
      vertex  3.000000e+000  4.382684e+001  9.238795e+000
      vertex  0.000000e+000  4.707107e+001  7.071068e+000
    endloop
  endfacet
  facet normal  -0.000000e+000  5.555704e-001  8.314695e-001
    outer loop
      vertex  0.000000e+000  4.707107e+001  7.071068e+000
      vertex  3.000000e+000  4.382684e+001  9.238795e+000
      vertex  3.000000e+000  4.707107e+001  7.071068e+000
    endloop
  endfacet
  facet normal  0.000000e+000  8.314695e-001  5.555704e-001
    outer loop
      vertex  0.000000e+000  4.707107e+001  7.071068e+000
      vertex  3.000000e+000  4.707107e+001  7.071068e+000
      vertex  0.000000e+000  4.923880e+001  3.826834e+000
    endloop
  endfacet
  facet normal  -0.000000e+000  8.314695e-001  5.555704e-001
    outer loop
      vertex  0.000000e+000  4.923880e+001  3.826834e+000
      vertex  3.000000e+000  4.707107e+001  7.071068e+000
      vertex  3.000000e+000  4.923880e+001  3.826834e+000
    endloop
  endfacet
  facet normal  0.000000e+000  9.807853e-001  1.950901e-001
    outer loop
      vertex  0.000000e+000  4.923880e+001  3.826834e+000
      vertex  3.000000e+000  4.923880e+001  3.826834e+000
      vertex  0.000000e+000  5.000000e+001  3.907985e-014
    endloop
  endfacet
  facet normal  -0.000000e+000  9.807853e-001  1.950901e-001
    outer loop
      vertex  0.000000e+000  5.000000e+001  3.907985e-014
      vertex  3.000000e+000  4.923880e+001  3.826834e+000
      vertex  3.000000e+000  5.000000e+001  3.907985e-014
    endloop
  endfacet
  facet normal  0.000000e+000 -9.807853e-001  1.950903e-001
    outer loop
      vertex  0.000000e+000 -1.000000e+001  1.224647e-015
      vertex  3.000000e+000 -1.000000e+001  1.224647e-015
      vertex  0.000000e+000 -9.238795e+000  3.826834e+000
    endloop
  endfacet
  facet normal  0.000000e+000 -9.807853e-001  1.950903e-001
    outer loop
      vertex  0.000000e+000 -9.238795e+000  3.826834e+000
      vertex  3.000000e+000 -1.000000e+001  1.224647e-015
      vertex  3.000000e+000 -9.238795e+000  3.826834e+000
    endloop
  endfacet
  facet normal  0.000000e+000 -8.314695e-001  5.555702e-001
    outer loop
      vertex  0.000000e+000 -9.238795e+000  3.826834e+000
      vertex  3.000000e+000 -9.238795e+000  3.826834e+000
      vertex  0.000000e+000 -7.071068e+000  7.071068e+000
    endloop
  endfacet
  facet normal  0.000000e+000 -8.314695e-001  5.555702e-001
    outer loop
      vertex  0.000000e+000 -7.071068e+000  7.071068e+000
      vertex  3.000000e+000 -9.238795e+000  3.826834e+000
      vertex  3.000000e+000 -7.071068e+000  7.071068e+000
    endloop
  endfacet
  facet normal  0.000000e+000 -5.555702e-001  8.314695e-001
    outer loop
      vertex  0.000000e+000 -7.071068e+000  7.071068e+000
      vertex  3.000000e+000 -7.071068e+000  7.071068e+000
      vertex  0.000000e+000 -3.826834e+000  9.238795e+000
    endloop
  endfacet
  facet normal  0.000000e+000 -5.555702e-001  8.314695e-001
    outer loop
      vertex  0.000000e+000 -3.826834e+000  9.238795e+000
      vertex  3.000000e+000 -7.071068e+000  7.071068e+000
      vertex  3.000000e+000 -3.826834e+000  9.238795e+000
    endloop
  endfacet
  facet normal  0.000000e+000 -1.950903e-001  9.807853e-001
    outer loop
      vertex  0.000000e+000 -3.826834e+000  9.238795e+000
      vertex  3.000000e+000 -3.826834e+000  9.238795e+000
      vertex  0.000000e+000 -1.608123e-015  1.000000e+001
    endloop
  endfacet
  facet normal  0.000000e+000 -1.950903e-001  9.807853e-001
    outer loop
      vertex  0.000000e+000 -1.608123e-015  1.000000e+001
      vertex  3.000000e+000 -3.826834e+000  9.238795e+000
      vertex  3.000000e+000 -1.608123e-015  1.000000e+001
    endloop
  endfacet
  facet normal  0.000000e+000  6.087598e-001  7.933547e-001
    outer loop
      vertex  0.000000e+000  3.534067e+001  5.970191e+000
      vertex  3.000000e+000  3.597824e+001  5.480968e+000
      vertex  0.000000e+000  3.597824e+001  5.480968e+000
    endloop
  endfacet
  facet normal  0.000000e+000 -1.305263e-001  9.914449e-001
    outer loop
      vertex  0.000000e+000  3.597824e+001  5.480968e+000
      vertex  3.000000e+000  3.597824e+001  5.480968e+000
      vertex  3.000000e+000  3.677500e+001  5.585864e+000
    endloop
  endfacet
  facet normal  0.000000e+000 -1.305263e-001  9.914449e-001
    outer loop
      vertex  0.000000e+000  3.597824e+001  5.480968e+000
      vertex  3.000000e+000  3.677500e+001  5.585864e+000
      vertex  0.000000e+000  3.677500e+001  5.585864e+000
    endloop
  endfacet
  facet normal  -0.000000e+000  6.087598e-001  7.933547e-001
    outer loop
      vertex  3.000000e+000  3.597824e+001  5.480968e+000
      vertex  0.000000e+000  3.534067e+001  5.970191e+000
      vertex  3.000000e+000  3.534067e+001  5.970191e+000
    endloop
  endfacet
  facet normal  0.000000e+000  9.914452e-001  1.305229e-001
    outer loop
      vertex  3.000000e+000  3.534067e+001  5.970191e+000
      vertex  0.000000e+000  3.534067e+001  5.970191e+000
      vertex  0.000000e+000  3.523578e+001  6.766951e+000
    endloop
  endfacet
  facet normal  -0.000000e+000  9.914452e-001  1.305229e-001
    outer loop
      vertex  3.000000e+000  3.534067e+001  5.970191e+000
      vertex  0.000000e+000  3.523578e+001  6.766951e+000
      vertex  3.000000e+000  3.523578e+001  6.766951e+000
    endloop
  endfacet
  facet normal  0.000000e+000  7.933548e-001 -6.087596e-001
    outer loop
      vertex  3.000000e+000  3.523578e+001  6.766951e+000
      vertex  0.000000e+000  3.523578e+001  6.766951e+000
      vertex  0.000000e+000  3.572500e+001  7.404517e+000
    endloop
  endfacet
  facet normal  0.000000e+000  7.933548e-001 -6.087596e-001
    outer loop
      vertex  3.000000e+000  3.523578e+001  6.766951e+000
      vertex  0.000000e+000  3.572500e+001  7.404517e+000
      vertex  3.000000e+000  3.572500e+001  7.404517e+000
    endloop
  endfacet
  facet normal  0.000000e+000 -3.420200e-001  9.396927e-001
    outer loop
      vertex  0.000000e+000  3.677500e+001  5.585864e+000
      vertex  3.000000e+000  3.677500e+001  5.585864e+000
      vertex  0.000000e+000  3.887997e+001  6.352010e+000
    endloop
  endfacet
  facet normal  0.000000e+000 -3.420200e-001  9.396927e-001
    outer loop
      vertex  0.000000e+000  3.887997e+001  6.352010e+000
      vertex  3.000000e+000  3.677500e+001  5.585864e+000
      vertex  3.000000e+000  3.887997e+001  6.352010e+000
    endloop
  endfacet
  facet normal  0.000000e+000  0.000000e+000  1.000000e+000
    outer loop
      vertex  0.000000e+000  3.887997e+001  6.352010e+000
      vertex  3.000000e+000  3.887997e+001  6.352010e+000
      vertex  0.000000e+000  4.112003e+001  6.352010e+000
    endloop
  endfacet
  facet normal  -0.000000e+000  0.000000e+000  1.000000e+000
    outer loop
      vertex  0.000000e+000  4.112003e+001  6.352010e+000
      vertex  3.000000e+000  3.887997e+001  6.352010e+000
      vertex  3.000000e+000  4.112003e+001  6.352010e+000
    endloop
  endfacet
  facet normal  0.000000e+000  3.420200e-001  9.396927e-001
    outer loop
      vertex  0.000000e+000  4.112003e+001  6.352010e+000
      vertex  3.000000e+000  4.112003e+001  6.352010e+000
      vertex  0.000000e+000  4.322500e+001  5.585864e+000
    endloop
  endfacet
  facet normal  -0.000000e+000  3.420200e-001  9.396927e-001
    outer loop
      vertex  0.000000e+000  4.322500e+001  5.585864e+000
      vertex  3.000000e+000  4.112003e+001  6.352010e+000
      vertex  3.000000e+000  4.322500e+001  5.585864e+000
    endloop
  endfacet
  facet normal  0.000000e+000 -9.914452e-001  1.305229e-001
    outer loop
      vertex  0.000000e+000  4.465933e+001  5.970191e+000
      vertex  3.000000e+000  4.476422e+001  6.766951e+000
      vertex  0.000000e+000  4.476422e+001  6.766951e+000
    endloop
  endfacet
  facet normal  0.000000e+000 -7.933548e-001 -6.087596e-001
    outer loop
      vertex  0.000000e+000  4.476422e+001  6.766951e+000
      vertex  3.000000e+000  4.476422e+001  6.766951e+000
      vertex  3.000000e+000  4.427500e+001  7.404517e+000
    endloop
  endfacet
  facet normal  -0.000000e+000 -7.933548e-001 -6.087596e-001
    outer loop
      vertex  0.000000e+000  4.476422e+001  6.766951e+000
      vertex  3.000000e+000  4.427500e+001  7.404517e+000
      vertex  0.000000e+000  4.427500e+001  7.404517e+000
    endloop
  endfacet
  facet normal  0.000000e+000 -9.914452e-001  1.305229e-001
    outer loop
      vertex  3.000000e+000  4.476422e+001  6.766951e+000
      vertex  0.000000e+000  4.465933e+001  5.970191e+000
      vertex  3.000000e+000  4.465933e+001  5.970191e+000
    endloop
  endfacet
  facet normal  0.000000e+000 -6.087598e-001  7.933547e-001
    outer loop
      vertex  3.000000e+000  4.465933e+001  5.970191e+000
      vertex  0.000000e+000  4.465933e+001  5.970191e+000
      vertex  0.000000e+000  4.402176e+001  5.480968e+000
    endloop
  endfacet
  facet normal  0.000000e+000 -6.087598e-001  7.933547e-001
    outer loop
      vertex  3.000000e+000  4.465933e+001  5.970191e+000
      vertex  0.000000e+000  4.402176e+001  5.480968e+000
      vertex  3.000000e+000  4.402176e+001  5.480968e+000
    endloop
  endfacet
  facet normal  0.000000e+000  1.305263e-001  9.914449e-001
    outer loop
      vertex  3.000000e+000  4.402176e+001  5.480968e+000
      vertex  0.000000e+000  4.402176e+001  5.480968e+000
      vertex  0.000000e+000  4.322500e+001  5.585864e+000
    endloop
  endfacet
  facet normal  -0.000000e+000  1.305263e-001  9.914449e-001
    outer loop
      vertex  3.000000e+000  4.402176e+001  5.480968e+000
      vertex  0.000000e+000  4.322500e+001  5.585864e+000
      vertex  3.000000e+000  4.322500e+001  5.585864e+000
    endloop
  endfacet
  facet normal  0.000000e+000  3.420199e-001 -9.396927e-001
    outer loop
      vertex  0.000000e+000  3.851531e+001  8.420106e+000
      vertex  3.000000e+000  3.572500e+001  7.404517e+000
      vertex  0.000000e+000  3.572500e+001  7.404517e+000
    endloop
  endfacet
  facet normal  0.000000e+000  3.420199e-001 -9.396927e-001
    outer loop
      vertex  3.000000e+000  3.572500e+001  7.404517e+000
      vertex  0.000000e+000  3.851531e+001  8.420106e+000
      vertex  3.000000e+000  3.851531e+001  8.420106e+000
    endloop
  endfacet
  facet normal  0.000000e+000  0.000000e+000 -1.000000e+000
    outer loop
      vertex  3.000000e+000  3.851531e+001  8.420106e+000
      vertex  0.000000e+000  3.851531e+001  8.420106e+000
      vertex  0.000000e+000  4.148469e+001  8.420106e+000
    endloop
  endfacet
  facet normal  0.000000e+000  0.000000e+000 -1.000000e+000
    outer loop
      vertex  3.000000e+000  3.851531e+001  8.420106e+000
      vertex  0.000000e+000  4.148469e+001  8.420106e+000
      vertex  3.000000e+000  4.148469e+001  8.420106e+000
    endloop
  endfacet
  facet normal  -0.000000e+000 -3.420199e-001 -9.396927e-001
    outer loop
      vertex  3.000000e+000  4.148469e+001  8.420106e+000
      vertex  0.000000e+000  4.148469e+001  8.420106e+000
      vertex  0.000000e+000  4.427500e+001  7.404517e+000
    endloop
  endfacet
  facet normal  0.000000e+000 -3.420199e-001 -9.396927e-001
    outer loop
      vertex  3.000000e+000  4.148469e+001  8.420106e+000
      vertex  0.000000e+000  4.427500e+001  7.404517e+000
      vertex  3.000000e+000  4.427500e+001  7.404517e+000
    endloop
  endfacet
  facet normal  0.000000e+000  6.087615e-001  7.933534e-001
    outer loop
      vertex  0.000000e+000 -4.659327e+000  5.970191e+000
      vertex  3.000000e+000 -4.021760e+000  5.480968e+000
      vertex  0.000000e+000 -4.021760e+000  5.480968e+000
    endloop
  endfacet
  facet normal  0.000000e+000 -1.305264e-001  9.914449e-001
    outer loop
      vertex  0.000000e+000 -4.021760e+000  5.480968e+000
      vertex  3.000000e+000 -4.021760e+000  5.480968e+000
      vertex  3.000000e+000 -3.225000e+000  5.585864e+000
    endloop
  endfacet
  facet normal  0.000000e+000 -1.305264e-001  9.914449e-001
    outer loop
      vertex  0.000000e+000 -4.021760e+000  5.480968e+000
      vertex  3.000000e+000 -3.225000e+000  5.585864e+000
      vertex  0.000000e+000 -3.225000e+000  5.585864e+000
    endloop
  endfacet
  facet normal  -0.000000e+000  6.087615e-001  7.933534e-001
    outer loop
      vertex  3.000000e+000 -4.021760e+000  5.480968e+000
      vertex  0.000000e+000 -4.659327e+000  5.970191e+000
      vertex  3.000000e+000 -4.659327e+000  5.970191e+000
    endloop
  endfacet
  facet normal  0.000000e+000  9.914449e-001  1.305264e-001
    outer loop
      vertex  3.000000e+000 -4.659327e+000  5.970191e+000
      vertex  0.000000e+000 -4.659327e+000  5.970191e+000
      vertex  0.000000e+000 -4.764222e+000  6.766951e+000
    endloop
  endfacet
  facet normal  -0.000000e+000  9.914449e-001  1.305264e-001
    outer loop
      vertex  3.000000e+000 -4.659327e+000  5.970191e+000
      vertex  0.000000e+000 -4.764222e+000  6.766951e+000
      vertex  3.000000e+000 -4.764222e+000  6.766951e+000
    endloop
  endfacet
  facet normal  0.000000e+000  7.933534e-001 -6.087615e-001
    outer loop
      vertex  3.000000e+000 -4.764222e+000  6.766951e+000
      vertex  0.000000e+000 -4.764222e+000  6.766951e+000
      vertex  0.000000e+000 -4.275000e+000  7.404517e+000
    endloop
  endfacet
  facet normal  0.000000e+000  7.933534e-001 -6.087615e-001
    outer loop
      vertex  3.000000e+000 -4.764222e+000  6.766951e+000
      vertex  0.000000e+000 -4.275000e+000  7.404517e+000
      vertex  3.000000e+000 -4.275000e+000  7.404517e+000
    endloop
  endfacet
  facet normal  0.000000e+000 -3.420200e-001  9.396927e-001
    outer loop
      vertex  0.000000e+000 -3.225000e+000  5.585864e+000
      vertex  3.000000e+000 -3.225000e+000  5.585864e+000
      vertex  0.000000e+000 -1.120031e+000  6.352010e+000
    endloop
  endfacet
  facet normal  0.000000e+000 -3.420200e-001  9.396927e-001
    outer loop
      vertex  0.000000e+000 -1.120031e+000  6.352010e+000
      vertex  3.000000e+000 -3.225000e+000  5.585864e+000
      vertex  3.000000e+000 -1.120031e+000  6.352010e+000
    endloop
  endfacet
  facet normal  0.000000e+000  0.000000e+000  1.000000e+000
    outer loop
      vertex  0.000000e+000 -1.120031e+000  6.352010e+000
      vertex  3.000000e+000 -1.120031e+000  6.352010e+000
      vertex  0.000000e+000  1.120031e+000  6.352010e+000
    endloop
  endfacet
  facet normal  -0.000000e+000  0.000000e+000  1.000000e+000
    outer loop
      vertex  0.000000e+000  1.120031e+000  6.352010e+000
      vertex  3.000000e+000 -1.120031e+000  6.352010e+000
      vertex  3.000000e+000  1.120031e+000  6.352010e+000
    endloop
  endfacet
  facet normal  0.000000e+000  3.420200e-001  9.396927e-001
    outer loop
      vertex  0.000000e+000  1.120031e+000  6.352010e+000
      vertex  3.000000e+000  1.120031e+000  6.352010e+000
      vertex  0.000000e+000  3.225000e+000  5.585864e+000
    endloop
  endfacet
  facet normal  -0.000000e+000  3.420200e-001  9.396927e-001
    outer loop
      vertex  0.000000e+000  3.225000e+000  5.585864e+000
      vertex  3.000000e+000  1.120031e+000  6.352010e+000
      vertex  3.000000e+000  3.225000e+000  5.585864e+000
    endloop
  endfacet
  facet normal  0.000000e+000 -9.914449e-001  1.305264e-001
    outer loop
      vertex  0.000000e+000  4.659327e+000  5.970191e+000
      vertex  3.000000e+000  4.764222e+000  6.766951e+000
      vertex  0.000000e+000  4.764222e+000  6.766951e+000
    endloop
  endfacet
  facet normal  0.000000e+000 -7.933534e-001 -6.087615e-001
    outer loop
      vertex  0.000000e+000  4.764222e+000  6.766951e+000
      vertex  3.000000e+000  4.764222e+000  6.766951e+000
      vertex  3.000000e+000  4.275000e+000  7.404517e+000
    endloop
  endfacet
  facet normal  -0.000000e+000 -7.933534e-001 -6.087615e-001
    outer loop
      vertex  0.000000e+000  4.764222e+000  6.766951e+000
      vertex  3.000000e+000  4.275000e+000  7.404517e+000
      vertex  0.000000e+000  4.275000e+000  7.404517e+000
    endloop
  endfacet
  facet normal  0.000000e+000 -9.914449e-001  1.305264e-001
    outer loop
      vertex  3.000000e+000  4.764222e+000  6.766951e+000
      vertex  0.000000e+000  4.659327e+000  5.970191e+000
      vertex  3.000000e+000  4.659327e+000  5.970191e+000
    endloop
  endfacet
  facet normal  0.000000e+000 -6.087615e-001  7.933534e-001
    outer loop
      vertex  3.000000e+000  4.659327e+000  5.970191e+000
      vertex  0.000000e+000  4.659327e+000  5.970191e+000
      vertex  0.000000e+000  4.021760e+000  5.480968e+000
    endloop
  endfacet
  facet normal  0.000000e+000 -6.087615e-001  7.933534e-001
    outer loop
      vertex  3.000000e+000  4.659327e+000  5.970191e+000
      vertex  0.000000e+000  4.021760e+000  5.480968e+000
      vertex  3.000000e+000  4.021760e+000  5.480968e+000
    endloop
  endfacet
  facet normal  0.000000e+000  1.305264e-001  9.914449e-001
    outer loop
      vertex  3.000000e+000  4.021760e+000  5.480968e+000
      vertex  0.000000e+000  4.021760e+000  5.480968e+000
      vertex  0.000000e+000  3.225000e+000  5.585864e+000
    endloop
  endfacet
  facet normal  -0.000000e+000  1.305264e-001  9.914449e-001
    outer loop
      vertex  3.000000e+000  4.021760e+000  5.480968e+000
      vertex  0.000000e+000  3.225000e+000  5.585864e+000
      vertex  3.000000e+000  3.225000e+000  5.585864e+000
    endloop
  endfacet
  facet normal  0.000000e+000  3.420201e-001 -9.396927e-001
    outer loop
      vertex  0.000000e+000 -1.484692e+000  8.420106e+000
      vertex  3.000000e+000 -4.275000e+000  7.404517e+000
      vertex  0.000000e+000 -4.275000e+000  7.404517e+000
    endloop
  endfacet
  facet normal  0.000000e+000  3.420201e-001 -9.396927e-001
    outer loop
      vertex  3.000000e+000 -4.275000e+000  7.404517e+000
      vertex  0.000000e+000 -1.484692e+000  8.420106e+000
      vertex  3.000000e+000 -1.484692e+000  8.420106e+000
    endloop
  endfacet
  facet normal  0.000000e+000  0.000000e+000 -1.000000e+000
    outer loop
      vertex  3.000000e+000 -1.484692e+000  8.420106e+000
      vertex  0.000000e+000 -1.484692e+000  8.420106e+000
      vertex  0.000000e+000  1.484692e+000  8.420106e+000
    endloop
  endfacet
  facet normal  0.000000e+000  0.000000e+000 -1.000000e+000
    outer loop
      vertex  3.000000e+000 -1.484692e+000  8.420106e+000
      vertex  0.000000e+000  1.484692e+000  8.420106e+000
      vertex  3.000000e+000  1.484692e+000  8.420106e+000
    endloop
  endfacet
  facet normal  -0.000000e+000 -3.420201e-001 -9.396927e-001
    outer loop
      vertex  3.000000e+000  1.484692e+000  8.420106e+000
      vertex  0.000000e+000  1.484692e+000  8.420106e+000
      vertex  0.000000e+000  4.275000e+000  7.404517e+000
    endloop
  endfacet
  facet normal  0.000000e+000 -3.420201e-001 -9.396927e-001
    outer loop
      vertex  3.000000e+000  1.484692e+000  8.420106e+000
      vertex  0.000000e+000  4.275000e+000  7.404517e+000
      vertex  3.000000e+000  4.275000e+000  7.404517e+000
    endloop
  endfacet
  facet normal  0.000000e+000  5.877848e-001 -8.090173e-001
    outer loop
      vertex  0.000000e+000  3.905750e+001  2.900722e+000
      vertex  3.000000e+000  3.753250e+001  1.792745e+000
      vertex  0.000000e+000  3.753250e+001  1.792745e+000
    endloop
  endfacet
  facet normal  0.000000e+000  9.510568e-001 -3.090163e-001
    outer loop
      vertex  0.000000e+000  3.753250e+001  1.792745e+000
      vertex  3.000000e+000  3.753250e+001  1.792745e+000
      vertex  3.000000e+000  3.695000e+001  3.735173e-016
    endloop
  endfacet
  facet normal  0.000000e+000  9.510568e-001 -3.090163e-001
    outer loop
      vertex  0.000000e+000  3.753250e+001  1.792745e+000
      vertex  3.000000e+000  3.695000e+001  3.735173e-016
      vertex  0.000000e+000  3.695000e+001  3.735173e-016
    endloop
  endfacet
  facet normal  0.000000e+000  5.877848e-001 -8.090173e-001
    outer loop
      vertex  3.000000e+000  3.753250e+001  1.792745e+000
      vertex  0.000000e+000  3.905750e+001  2.900722e+000
      vertex  3.000000e+000  3.905750e+001  2.900722e+000
    endloop
  endfacet
  facet normal  0.000000e+000  0.000000e+000 -1.000000e+000
    outer loop
      vertex  3.000000e+000  3.905750e+001  2.900722e+000
      vertex  0.000000e+000  3.905750e+001  2.900722e+000
      vertex  0.000000e+000  4.094250e+001  2.900722e+000
    endloop
  endfacet
  facet normal  0.000000e+000  0.000000e+000 -1.000000e+000
    outer loop
      vertex  3.000000e+000  3.905750e+001  2.900722e+000
      vertex  0.000000e+000  4.094250e+001  2.900722e+000
      vertex  3.000000e+000  4.094250e+001  2.900722e+000
    endloop
  endfacet
  facet normal  -0.000000e+000 -5.877848e-001 -8.090173e-001
    outer loop
      vertex  3.000000e+000  4.094250e+001  2.900722e+000
      vertex  0.000000e+000  4.094250e+001  2.900722e+000
      vertex  0.000000e+000  4.246750e+001  1.792745e+000
    endloop
  endfacet
  facet normal  0.000000e+000 -5.877848e-001 -8.090173e-001
    outer loop
      vertex  3.000000e+000  4.094250e+001  2.900722e+000
      vertex  0.000000e+000  4.246750e+001  1.792745e+000
      vertex  3.000000e+000  4.246750e+001  1.792745e+000
    endloop
  endfacet
  facet normal  -0.000000e+000 -9.510568e-001 -3.090163e-001
    outer loop
      vertex  3.000000e+000  4.246750e+001  1.792745e+000
      vertex  0.000000e+000  4.246750e+001  1.792745e+000
      vertex  0.000000e+000  4.305000e+001  0.000000e+000
    endloop
  endfacet
  facet normal  0.000000e+000 -9.510568e-001 -3.090163e-001
    outer loop
      vertex  3.000000e+000  4.246750e+001  1.792745e+000
      vertex  0.000000e+000  4.305000e+001  0.000000e+000
      vertex  3.000000e+000  4.305000e+001  0.000000e+000
    endloop
  endfacet
  facet normal  0.000000e+000 -5.877848e-001  8.090173e-001
    outer loop
      vertex  0.000000e+000  4.094250e+001 -2.900722e+000
      vertex  3.000000e+000  4.246750e+001 -1.792745e+000
      vertex  0.000000e+000  4.246750e+001 -1.792745e+000
    endloop
  endfacet
  facet normal  0.000000e+000 -9.510568e-001  3.090163e-001
    outer loop
      vertex  0.000000e+000  4.246750e+001 -1.792745e+000
      vertex  3.000000e+000  4.246750e+001 -1.792745e+000
      vertex  3.000000e+000  4.305000e+001  0.000000e+000
    endloop
  endfacet
  facet normal  0.000000e+000 -9.510568e-001  3.090163e-001
    outer loop
      vertex  0.000000e+000  4.246750e+001 -1.792745e+000
      vertex  3.000000e+000  4.305000e+001  0.000000e+000
      vertex  0.000000e+000  4.305000e+001  0.000000e+000
    endloop
  endfacet
  facet normal  0.000000e+000 -5.877848e-001  8.090173e-001
    outer loop
      vertex  3.000000e+000  4.246750e+001 -1.792745e+000
      vertex  0.000000e+000  4.094250e+001 -2.900722e+000
      vertex  3.000000e+000  4.094250e+001 -2.900722e+000
    endloop
  endfacet
  facet normal  0.000000e+000  0.000000e+000  1.000000e+000
    outer loop
      vertex  3.000000e+000  4.094250e+001 -2.900722e+000
      vertex  0.000000e+000  4.094250e+001 -2.900722e+000
      vertex  0.000000e+000  3.905750e+001 -2.900722e+000
    endloop
  endfacet
  facet normal  0.000000e+000  0.000000e+000  1.000000e+000
    outer loop
      vertex  3.000000e+000  4.094250e+001 -2.900722e+000
      vertex  0.000000e+000  3.905750e+001 -2.900722e+000
      vertex  3.000000e+000  3.905750e+001 -2.900722e+000
    endloop
  endfacet
  facet normal  0.000000e+000  5.877848e-001  8.090173e-001
    outer loop
      vertex  3.000000e+000  3.905750e+001 -2.900722e+000
      vertex  0.000000e+000  3.905750e+001 -2.900722e+000
      vertex  0.000000e+000  3.753250e+001 -1.792745e+000
    endloop
  endfacet
  facet normal  -0.000000e+000  5.877848e-001  8.090173e-001
    outer loop
      vertex  3.000000e+000  3.905750e+001 -2.900722e+000
      vertex  0.000000e+000  3.753250e+001 -1.792745e+000
      vertex  3.000000e+000  3.753250e+001 -1.792745e+000
    endloop
  endfacet
  facet normal  0.000000e+000  9.510568e-001  3.090163e-001
    outer loop
      vertex  3.000000e+000  3.753250e+001 -1.792745e+000
      vertex  0.000000e+000  3.753250e+001 -1.792745e+000
      vertex  0.000000e+000  3.695000e+001  3.735173e-016
    endloop
  endfacet
  facet normal  -0.000000e+000  9.510568e-001  3.090163e-001
    outer loop
      vertex  3.000000e+000  3.753250e+001 -1.792745e+000
      vertex  0.000000e+000  3.695000e+001  3.735173e-016
      vertex  3.000000e+000  3.695000e+001  3.735173e-016
    endloop
  endfacet
  facet normal  0.000000e+000  5.877852e-001 -8.090171e-001
    outer loop
      vertex  0.000000e+000 -9.425018e-001  2.900722e+000
      vertex  3.000000e+000 -2.467502e+000  1.792745e+000
      vertex  0.000000e+000 -2.467502e+000  1.792745e+000
    endloop
  endfacet
  facet normal  0.000000e+000  9.510565e-001 -3.090170e-001
    outer loop
      vertex  0.000000e+000 -2.467502e+000  1.792745e+000
      vertex  3.000000e+000 -2.467502e+000  1.792745e+000
      vertex  3.000000e+000 -3.050000e+000  3.735173e-016
    endloop
  endfacet
  facet normal  0.000000e+000  9.510565e-001 -3.090170e-001
    outer loop
      vertex  0.000000e+000 -2.467502e+000  1.792745e+000
      vertex  3.000000e+000 -3.050000e+000  3.735173e-016
      vertex  0.000000e+000 -3.050000e+000  3.735173e-016
    endloop
  endfacet
  facet normal  0.000000e+000  5.877852e-001 -8.090171e-001
    outer loop
      vertex  3.000000e+000 -2.467502e+000  1.792745e+000
      vertex  0.000000e+000 -9.425018e-001  2.900722e+000
      vertex  3.000000e+000 -9.425018e-001  2.900722e+000
    endloop
  endfacet
  facet normal  0.000000e+000  0.000000e+000 -1.000000e+000
    outer loop
      vertex  3.000000e+000 -9.425018e-001  2.900722e+000
      vertex  0.000000e+000 -9.425018e-001  2.900722e+000
      vertex  0.000000e+000  9.425018e-001  2.900722e+000
    endloop
  endfacet
  facet normal  0.000000e+000  0.000000e+000 -1.000000e+000
    outer loop
      vertex  3.000000e+000 -9.425018e-001  2.900722e+000
      vertex  0.000000e+000  9.425018e-001  2.900722e+000
      vertex  3.000000e+000  9.425018e-001  2.900722e+000
    endloop
  endfacet
  facet normal  -0.000000e+000 -5.877852e-001 -8.090171e-001
    outer loop
      vertex  3.000000e+000  9.425018e-001  2.900722e+000
      vertex  0.000000e+000  9.425018e-001  2.900722e+000
      vertex  0.000000e+000  2.467502e+000  1.792745e+000
    endloop
  endfacet
  facet normal  0.000000e+000 -5.877852e-001 -8.090171e-001
    outer loop
      vertex  3.000000e+000  9.425018e-001  2.900722e+000
      vertex  0.000000e+000  2.467502e+000  1.792745e+000
      vertex  3.000000e+000  2.467502e+000  1.792745e+000
    endloop
  endfacet
  facet normal  -0.000000e+000 -9.510565e-001 -3.090170e-001
    outer loop
      vertex  3.000000e+000  2.467502e+000  1.792745e+000
      vertex  0.000000e+000  2.467502e+000  1.792745e+000
      vertex  0.000000e+000  3.050000e+000  0.000000e+000
    endloop
  endfacet
  facet normal  0.000000e+000 -9.510565e-001 -3.090170e-001
    outer loop
      vertex  3.000000e+000  2.467502e+000  1.792745e+000
      vertex  0.000000e+000  3.050000e+000  0.000000e+000
      vertex  3.000000e+000  3.050000e+000  0.000000e+000
    endloop
  endfacet
  facet normal  0.000000e+000 -5.877852e-001  8.090171e-001
    outer loop
      vertex  0.000000e+000  9.425018e-001 -2.900722e+000
      vertex  3.000000e+000  2.467502e+000 -1.792745e+000
      vertex  0.000000e+000  2.467502e+000 -1.792745e+000
    endloop
  endfacet
  facet normal  0.000000e+000 -9.510565e-001  3.090170e-001
    outer loop
      vertex  0.000000e+000  2.467502e+000 -1.792745e+000
      vertex  3.000000e+000  2.467502e+000 -1.792745e+000
      vertex  3.000000e+000  3.050000e+000  0.000000e+000
    endloop
  endfacet
  facet normal  0.000000e+000 -9.510565e-001  3.090170e-001
    outer loop
      vertex  0.000000e+000  2.467502e+000 -1.792745e+000
      vertex  3.000000e+000  3.050000e+000  0.000000e+000
      vertex  0.000000e+000  3.050000e+000  0.000000e+000
    endloop
  endfacet
  facet normal  0.000000e+000 -5.877852e-001  8.090171e-001
    outer loop
      vertex  3.000000e+000  2.467502e+000 -1.792745e+000
      vertex  0.000000e+000  9.425018e-001 -2.900722e+000
      vertex  3.000000e+000  9.425018e-001 -2.900722e+000
    endloop
  endfacet
  facet normal  0.000000e+000  0.000000e+000  1.000000e+000
    outer loop
      vertex  3.000000e+000  9.425018e-001 -2.900722e+000
      vertex  0.000000e+000  9.425018e-001 -2.900722e+000
      vertex  0.000000e+000 -9.425018e-001 -2.900722e+000
    endloop
  endfacet
  facet normal  0.000000e+000  0.000000e+000  1.000000e+000
    outer loop
      vertex  3.000000e+000  9.425018e-001 -2.900722e+000
      vertex  0.000000e+000 -9.425018e-001 -2.900722e+000
      vertex  3.000000e+000 -9.425018e-001 -2.900722e+000
    endloop
  endfacet
  facet normal  0.000000e+000  5.877852e-001  8.090171e-001
    outer loop
      vertex  3.000000e+000 -9.425018e-001 -2.900722e+000
      vertex  0.000000e+000 -9.425018e-001 -2.900722e+000
      vertex  0.000000e+000 -2.467502e+000 -1.792745e+000
    endloop
  endfacet
  facet normal  -0.000000e+000  5.877852e-001  8.090171e-001
    outer loop
      vertex  3.000000e+000 -9.425018e-001 -2.900722e+000
      vertex  0.000000e+000 -2.467502e+000 -1.792745e+000
      vertex  3.000000e+000 -2.467502e+000 -1.792745e+000
    endloop
  endfacet
  facet normal  0.000000e+000  9.510565e-001  3.090170e-001
    outer loop
      vertex  3.000000e+000 -2.467502e+000 -1.792745e+000
      vertex  0.000000e+000 -2.467502e+000 -1.792745e+000
      vertex  0.000000e+000 -3.050000e+000  3.735173e-016
    endloop
  endfacet
  facet normal  -0.000000e+000  9.510565e-001  3.090170e-001
    outer loop
      vertex  3.000000e+000 -2.467502e+000 -1.792745e+000
      vertex  0.000000e+000 -3.050000e+000  3.735173e-016
      vertex  3.000000e+000 -3.050000e+000  3.735173e-016
    endloop
  endfacet
  facet normal  0.000000e+000  0.000000e+000  1.000000e+000
    outer loop
      vertex  3.000000e+000 -1.608123e-015  1.000000e+001
      vertex  3.000000e+000  4.000000e+001  1.000000e+001
      vertex  0.000000e+000 -1.608123e-015  1.000000e+001
    endloop
  endfacet
  facet normal  0.000000e+000  0.000000e+000  1.000000e+000
    outer loop
      vertex  0.000000e+000 -1.608123e-015  1.000000e+001
      vertex  3.000000e+000  4.000000e+001  1.000000e+001
      vertex  0.000000e+000  4.000000e+001  1.000000e+001
    endloop
  endfacet
endsolid CATIA STL
