solid CATIA STL
  facet normal  0.000000e+000 -9.999999e-001  0.000000e+000
    outer loop
      vertex -8.652476e-001 -3.000000e+000  2.662958e+000
      vertex -2.265248e+000 -3.000000e+000  1.645799e+000
      vertex  8.652476e-001 -3.000000e+000  2.662958e+000
    endloop
  endfacet
  facet normal  0.000000e+000 -1.000000e+000  0.000000e+000
    outer loop
      vertex  8.652476e-001 -3.000000e+000  2.662958e+000
      vertex -2.265248e+000 -3.000000e+000  1.645799e+000
      vertex  1.224647e-016 -3.000000e+000  2.000000e+000
    endloop
  endfacet
  facet normal  0.000000e+000 -1.000000e+000  0.000000e+000
    outer loop
      vertex  8.652476e-001 -3.000000e+000  2.662958e+000
      vertex  1.224647e-016 -3.000000e+000  2.000000e+000
      vertex  2.265248e+000 -3.000000e+000  1.645799e+000
    endloop
  endfacet
  facet normal  -0.000000e+000 -9.999999e-001  0.000000e+000
    outer loop
      vertex  2.265248e+000 -3.000000e+000  1.645799e+000
      vertex  1.224647e-016 -3.000000e+000  2.000000e+000
      vertex  1.414214e+000 -3.000000e+000  1.414214e+000
    endloop
  endfacet
  facet normal  0.000000e+000 -1.000000e+000  0.000000e+000
    outer loop
      vertex  2.265248e+000 -3.000000e+000  1.645799e+000
      vertex  1.414214e+000 -3.000000e+000  1.414214e+000
      vertex  2.800000e+000 -3.000000e+000  0.000000e+000
    endloop
  endfacet
  facet normal  0.000000e+000 -1.000000e+000  0.000000e+000
    outer loop
      vertex  2.800000e+000 -3.000000e+000  0.000000e+000
      vertex  1.414214e+000 -3.000000e+000  1.414214e+000
      vertex  2.000000e+000 -3.000000e+000  0.000000e+000
    endloop
  endfacet
  facet normal  0.000000e+000 -1.000000e+000  0.000000e+000
    outer loop
      vertex  2.800000e+000 -3.000000e+000  0.000000e+000
      vertex  2.000000e+000 -3.000000e+000  0.000000e+000
      vertex  2.265248e+000 -3.000000e+000 -1.645799e+000
    endloop
  endfacet
  facet normal  0.000000e+000 -1.000000e+000  0.000000e+000
    outer loop
      vertex  2.265248e+000 -3.000000e+000 -1.645799e+000
      vertex  2.000000e+000 -3.000000e+000  0.000000e+000
      vertex  1.414214e+000 -3.000000e+000 -1.414214e+000
    endloop
  endfacet
  facet normal  0.000000e+000 -1.000000e+000  -0.000000e+000
    outer loop
      vertex  2.265248e+000 -3.000000e+000 -1.645799e+000
      vertex  1.414214e+000 -3.000000e+000 -1.414214e+000
      vertex  8.652476e-001 -3.000000e+000 -2.662958e+000
    endloop
  endfacet
  facet normal  0.000000e+000 -1.000000e+000  0.000000e+000
    outer loop
      vertex  8.652476e-001 -3.000000e+000 -2.662958e+000
      vertex  1.414214e+000 -3.000000e+000 -1.414214e+000
      vertex -3.673940e-016 -3.000000e+000 -2.000000e+000
    endloop
  endfacet
  facet normal  0.000000e+000 -1.000000e+000  -0.000000e+000
    outer loop
      vertex  8.652476e-001 -3.000000e+000 -2.662958e+000
      vertex -3.673940e-016 -3.000000e+000 -2.000000e+000
      vertex -8.652476e-001 -3.000000e+000 -2.662958e+000
    endloop
  endfacet
  facet normal  -0.000000e+000 -1.000000e+000  0.000000e+000
    outer loop
      vertex -8.652476e-001 -3.000000e+000 -2.662958e+000
      vertex -3.673940e-016 -3.000000e+000 -2.000000e+000
      vertex -2.265248e+000 -3.000000e+000 -1.645799e+000
    endloop
  endfacet
  facet normal  0.000000e+000 -9.999999e-001  0.000000e+000
    outer loop
      vertex -2.265248e+000 -3.000000e+000 -1.645799e+000
      vertex -3.673940e-016 -3.000000e+000 -2.000000e+000
      vertex -1.414214e+000 -3.000000e+000 -1.414214e+000
    endloop
  endfacet
  facet normal  -0.000000e+000 -1.000000e+000  0.000000e+000
    outer loop
      vertex -2.265248e+000 -3.000000e+000 -1.645799e+000
      vertex -1.414214e+000 -3.000000e+000 -1.414214e+000
      vertex -2.800000e+000 -3.000000e+000  3.429011e-016
    endloop
  endfacet
  facet normal  0.000000e+000 -1.000000e+000  0.000000e+000
    outer loop
      vertex -2.800000e+000 -3.000000e+000  3.429011e-016
      vertex -1.414214e+000 -3.000000e+000 -1.414214e+000
      vertex -2.000000e+000 -3.000000e+000  2.449294e-016
    endloop
  endfacet
  facet normal  0.000000e+000 -1.000000e+000  0.000000e+000
    outer loop
      vertex -2.800000e+000 -3.000000e+000  3.429011e-016
      vertex -2.000000e+000 -3.000000e+000  2.449294e-016
      vertex -2.265248e+000 -3.000000e+000  1.645799e+000
    endloop
  endfacet
  facet normal  0.000000e+000 -1.000000e+000  0.000000e+000
    outer loop
      vertex -2.265248e+000 -3.000000e+000  1.645799e+000
      vertex -2.000000e+000 -3.000000e+000  2.449294e-016
      vertex -1.414214e+000 -3.000000e+000  1.414214e+000
    endloop
  endfacet
  facet normal  0.000000e+000 -1.000000e+000  0.000000e+000
    outer loop
      vertex -2.265248e+000 -3.000000e+000  1.645799e+000
      vertex -1.414214e+000 -3.000000e+000  1.414214e+000
      vertex  1.224647e-016 -3.000000e+000  2.000000e+000
    endloop
  endfacet
  facet normal -3.826834e-001  0.000000e+000  9.238794e-001
    outer loop
      vertex -3.673940e-016  6.000000e+000 -2.000000e+000
      vertex  1.414214e+000 -3.000000e+000 -1.414214e+000
      vertex  1.414214e+000  6.000000e+000 -1.414214e+000
    endloop
  endfacet
  facet normal -9.238794e-001  0.000000e+000  3.826834e-001
    outer loop
      vertex  1.414214e+000  6.000000e+000 -1.414214e+000
      vertex  1.414214e+000 -3.000000e+000 -1.414214e+000
      vertex  2.000000e+000 -3.000000e+000  0.000000e+000
    endloop
  endfacet
  facet normal -9.238794e-001  0.000000e+000  3.826834e-001
    outer loop
      vertex  1.414214e+000  6.000000e+000 -1.414214e+000
      vertex  2.000000e+000 -3.000000e+000  0.000000e+000
      vertex  2.000000e+000  6.000000e+000  0.000000e+000
    endloop
  endfacet
  facet normal -3.826834e-001  0.000000e+000  9.238794e-001
    outer loop
      vertex  1.414214e+000 -3.000000e+000 -1.414214e+000
      vertex -3.673940e-016  6.000000e+000 -2.000000e+000
      vertex -3.673940e-016 -3.000000e+000 -2.000000e+000
    endloop
  endfacet
  facet normal  3.826834e-001  -0.000000e+000  9.238794e-001
    outer loop
      vertex -3.673940e-016 -3.000000e+000 -2.000000e+000
      vertex -3.673940e-016  6.000000e+000 -2.000000e+000
      vertex -1.414214e+000  6.000000e+000 -1.414214e+000
    endloop
  endfacet
  facet normal  3.826834e-001  0.000000e+000  9.238794e-001
    outer loop
      vertex -3.673940e-016 -3.000000e+000 -2.000000e+000
      vertex -1.414214e+000  6.000000e+000 -1.414214e+000
      vertex -1.414214e+000 -3.000000e+000 -1.414214e+000
    endloop
  endfacet
  facet normal  9.238794e-001  -0.000000e+000  3.826834e-001
    outer loop
      vertex -1.414214e+000 -3.000000e+000 -1.414214e+000
      vertex -1.414214e+000  6.000000e+000 -1.414214e+000
      vertex -2.000000e+000  6.000000e+000  2.449294e-016
    endloop
  endfacet
  facet normal  9.238794e-001  0.000000e+000  3.826834e-001
    outer loop
      vertex -1.414214e+000 -3.000000e+000 -1.414214e+000
      vertex -2.000000e+000  6.000000e+000  2.449294e-016
      vertex -2.000000e+000 -3.000000e+000  2.449294e-016
    endloop
  endfacet
  facet normal  3.826834e-001  0.000000e+000 -9.238794e-001
    outer loop
      vertex  1.224647e-016  6.000000e+000  2.000000e+000
      vertex -1.414214e+000 -3.000000e+000  1.414214e+000
      vertex -1.414214e+000  6.000000e+000  1.414214e+000
    endloop
  endfacet
  facet normal  9.238794e-001  0.000000e+000 -3.826834e-001
    outer loop
      vertex -1.414214e+000  6.000000e+000  1.414214e+000
      vertex -1.414214e+000 -3.000000e+000  1.414214e+000
      vertex -2.000000e+000 -3.000000e+000  2.449294e-016
    endloop
  endfacet
  facet normal  9.238794e-001  0.000000e+000 -3.826834e-001
    outer loop
      vertex -1.414214e+000  6.000000e+000  1.414214e+000
      vertex -2.000000e+000 -3.000000e+000  2.449294e-016
      vertex -2.000000e+000  6.000000e+000  2.449294e-016
    endloop
  endfacet
  facet normal  3.826834e-001  0.000000e+000 -9.238794e-001
    outer loop
      vertex -1.414214e+000 -3.000000e+000  1.414214e+000
      vertex  1.224647e-016  6.000000e+000  2.000000e+000
      vertex  1.224647e-016 -3.000000e+000  2.000000e+000
    endloop
  endfacet
  facet normal -3.826834e-001  0.000000e+000 -9.238794e-001
    outer loop
      vertex  1.224647e-016 -3.000000e+000  2.000000e+000
      vertex  1.224647e-016  6.000000e+000  2.000000e+000
      vertex  1.414214e+000  6.000000e+000  1.414214e+000
    endloop
  endfacet
  facet normal -3.826834e-001  -0.000000e+000 -9.238794e-001
    outer loop
      vertex  1.224647e-016 -3.000000e+000  2.000000e+000
      vertex  1.414214e+000  6.000000e+000  1.414214e+000
      vertex  1.414214e+000 -3.000000e+000  1.414214e+000
    endloop
  endfacet
  facet normal -9.238794e-001  0.000000e+000 -3.826834e-001
    outer loop
      vertex  1.414214e+000 -3.000000e+000  1.414214e+000
      vertex  1.414214e+000  6.000000e+000  1.414214e+000
      vertex  2.000000e+000  6.000000e+000  0.000000e+000
    endloop
  endfacet
  facet normal -9.238794e-001  -0.000000e+000 -3.826834e-001
    outer loop
      vertex  1.414214e+000 -3.000000e+000  1.414214e+000
      vertex  2.000000e+000  6.000000e+000  0.000000e+000
      vertex  2.000000e+000 -3.000000e+000  0.000000e+000
    endloop
  endfacet
  facet normal  0.000000e+000 -9.999999e-001  0.000000e+000
    outer loop
      vertex -1.414214e+000  6.000000e+000  1.414214e+000
      vertex  1.414214e+000  6.000000e+000  1.414214e+000
      vertex  1.224647e-016  6.000000e+000  2.000000e+000
    endloop
  endfacet
  facet normal  0.000000e+000 -1.000000e+000  0.000000e+000
    outer loop
      vertex  1.414214e+000  6.000000e+000  1.414214e+000
      vertex -1.414214e+000  6.000000e+000  1.414214e+000
      vertex  2.000000e+000  6.000000e+000  0.000000e+000
    endloop
  endfacet
  facet normal  0.000000e+000 -9.999999e-001  0.000000e+000
    outer loop
      vertex  2.000000e+000  6.000000e+000  0.000000e+000
      vertex -1.414214e+000  6.000000e+000  1.414214e+000
      vertex -2.000000e+000  6.000000e+000  2.449294e-016
    endloop
  endfacet
  facet normal  0.000000e+000 -9.999999e-001  0.000000e+000
    outer loop
      vertex  2.000000e+000  6.000000e+000  0.000000e+000
      vertex -2.000000e+000  6.000000e+000  2.449294e-016
      vertex  1.414214e+000  6.000000e+000 -1.414214e+000
    endloop
  endfacet
  facet normal  0.000000e+000 -1.000000e+000  0.000000e+000
    outer loop
      vertex  1.414214e+000  6.000000e+000 -1.414214e+000
      vertex -2.000000e+000  6.000000e+000  2.449294e-016
      vertex -1.414214e+000  6.000000e+000 -1.414214e+000
    endloop
  endfacet
  facet normal  0.000000e+000 -9.999999e-001  0.000000e+000
    outer loop
      vertex  1.414214e+000  6.000000e+000 -1.414214e+000
      vertex -1.414214e+000  6.000000e+000 -1.414214e+000
      vertex -3.673940e-016  6.000000e+000 -2.000000e+000
    endloop
  endfacet
  facet normal  0.000000e+000 -1.000000e+000  -0.000000e+000
    outer loop
      vertex -5.541527e-016  0.000000e+000  9.050000e+000
      vertex -2.326231e+000  0.000000e+000  9.725670e+000
      vertex -2.342312e+000  0.000000e+000  8.741629e+000
    endloop
  endfacet
  facet normal  0.000000e+000 -1.000000e+000  0.000000e+000
    outer loop
      vertex -2.716143e+000  0.000000e+000  5.902104e+000
      vertex -8.174685e+000  0.000000e+000  5.759733e+000
      vertex -1.539973e+000  0.000000e+000  5.747259e+000
    endloop
  endfacet
  facet normal  0.000000e+000 -1.000000e+000  0.000000e+000
    outer loop
      vertex -2.265248e+000  0.000000e+000  1.645799e+000
      vertex -8.652476e-001  0.000000e+000  2.662958e+000
      vertex -9.682458e+000  0.000000e+000  2.500000e+000
    endloop
  endfacet
  facet normal  0.000000e+000 -1.000000e+000  0.000000e+000
    outer loop
      vertex -3.000000e+001  0.000000e+000 -2.500000e+000
      vertex -9.682458e+000  0.000000e+000 -2.500000e+000
      vertex -2.265248e+000  0.000000e+000 -1.645799e+000
    endloop
  endfacet
  facet normal  -0.000000e+000 -1.000000e+000  0.000000e+000
    outer loop
      vertex -3.000000e+001  0.000000e+000 -2.500000e+000
      vertex -2.265248e+000  0.000000e+000 -1.645799e+000
      vertex -2.800000e+000  0.000000e+000 -9.005487e-016
    endloop
  endfacet
  facet normal  -0.000000e+000 -9.999999e-001  0.000000e+000
    outer loop
      vertex -3.000000e+001  0.000000e+000 -2.500000e+000
      vertex -2.800000e+000  0.000000e+000 -9.005487e-016
      vertex -2.265248e+000  0.000000e+000  1.645799e+000
    endloop
  endfacet
  facet normal  -0.000000e+000 -1.000000e+000  0.000000e+000
    outer loop
      vertex -3.000000e+001  0.000000e+000 -2.500000e+000
      vertex -2.265248e+000  0.000000e+000  1.645799e+000
      vertex -9.682458e+000  0.000000e+000  2.500000e+000
    endloop
  endfacet
  facet normal  -0.000000e+000 -1.000000e+000  0.000000e+000
    outer loop
      vertex -3.000000e+001  0.000000e+000 -2.500000e+000
      vertex -9.682458e+000  0.000000e+000  2.500000e+000
      vertex -3.000000e+001  0.000000e+000  2.500000e+000
    endloop
  endfacet
  facet normal  0.000000e+000 -1.000000e+000  -0.000000e+000
    outer loop
      vertex  7.503347e+000  0.000000e+000  6.610581e+000
      vertex  4.683781e+000  0.000000e+000  8.835281e+000
      vertex  2.342312e+000  0.000000e+000  8.741629e+000
    endloop
  endfacet
  facet normal  0.000000e+000 -1.000000e+000  0.000000e+000
    outer loop
      vertex  7.503347e+000  0.000000e+000  6.610581e+000
      vertex  2.342312e+000  0.000000e+000  8.741629e+000
      vertex  3.283482e+000  0.000000e+000  8.019444e+000
    endloop
  endfacet
  facet normal  0.000000e+000 -1.000000e+000  0.000000e+000
    outer loop
      vertex  7.503347e+000  0.000000e+000  6.610581e+000
      vertex  3.283482e+000  0.000000e+000  8.019444e+000
      vertex  3.438328e+000  0.000000e+000  6.843274e+000
    endloop
  endfacet
  facet normal  0.000000e+000 -1.000000e+000  -0.000000e+000
    outer loop
      vertex  7.503347e+000  0.000000e+000  6.610581e+000
      vertex  3.438328e+000  0.000000e+000  6.843274e+000
      vertex  2.716143e+000  0.000000e+000  5.902104e+000
    endloop
  endfacet
  facet normal  0.000000e+000 -1.000000e+000  0.000000e+000
    outer loop
      vertex  7.503347e+000  0.000000e+000  6.610581e+000
      vertex  2.716143e+000  0.000000e+000  5.902104e+000
      vertex  9.355038e+000  0.000000e+000  3.533166e+000
    endloop
  endfacet
  facet normal  0.000000e+000 -1.000000e+000  0.000000e+000
    outer loop
      vertex  9.355038e+000  0.000000e+000 -3.533166e+000
      vertex  1.000000e+001  0.000000e+000  1.224647e-015
      vertex  2.800000e+000  0.000000e+000  0.000000e+000
    endloop
  endfacet
  facet normal  0.000000e+000 -1.000000e+000  -0.000000e+000
    outer loop
      vertex  9.355038e+000  0.000000e+000 -3.533166e+000
      vertex  2.800000e+000  0.000000e+000  0.000000e+000
      vertex  2.265248e+000  0.000000e+000 -1.645799e+000
    endloop
  endfacet
  facet normal  0.000000e+000 -9.999999e-001  -0.000000e+000
    outer loop
      vertex  9.355038e+000  0.000000e+000 -3.533166e+000
      vertex  2.265248e+000  0.000000e+000 -1.645799e+000
      vertex  8.652476e-001  0.000000e+000 -2.662958e+000
    endloop
  endfacet
  facet normal  -0.000000e+000 -1.000000e+000  0.000000e+000
    outer loop
      vertex -8.174685e+000  0.000000e+000 -5.759733e+000
      vertex -8.652476e-001  0.000000e+000 -2.662958e+000
      vertex -9.682458e+000  0.000000e+000 -2.500000e+000
    endloop
  endfacet
  facet normal  0.000000e+000 -1.000000e+000  0.000000e+000
    outer loop
      vertex -9.682458e+000  0.000000e+000 -2.500000e+000
      vertex -8.652476e-001  0.000000e+000 -2.662958e+000
      vertex -2.265248e+000  0.000000e+000 -1.645799e+000
    endloop
  endfacet
  facet normal  0.000000e+000 -1.000000e+000  0.000000e+000
    outer loop
      vertex  7.503347e+000  0.000000e+000 -6.610581e+000
      vertex  9.355038e+000  0.000000e+000 -3.533166e+000
      vertex  4.683781e+000  0.000000e+000 -8.835281e+000
    endloop
  endfacet
  facet normal  0.000000e+000 -1.000000e+000  0.000000e+000
    outer loop
      vertex  4.683781e+000  0.000000e+000 -8.835281e+000
      vertex  9.355038e+000  0.000000e+000 -3.533166e+000
      vertex  8.652476e-001  0.000000e+000 -2.662958e+000
    endloop
  endfacet
  facet normal  0.000000e+000 -1.000000e+000  0.000000e+000
    outer loop
      vertex  4.683781e+000  0.000000e+000 -8.835281e+000
      vertex  8.652476e-001  0.000000e+000 -2.662958e+000
      vertex  1.260043e+000  0.000000e+000 -9.920297e+000
    endloop
  endfacet
  facet normal  0.000000e+000 -1.000000e+000  0.000000e+000
    outer loop
      vertex  1.260043e+000  0.000000e+000 -9.920297e+000
      vertex  8.652476e-001  0.000000e+000 -2.662958e+000
      vertex -8.652476e-001  0.000000e+000 -2.662958e+000
    endloop
  endfacet
  facet normal  0.000000e+000 -1.000000e+000  -0.000000e+000
    outer loop
      vertex  1.260043e+000  0.000000e+000 -9.920297e+000
      vertex -8.652476e-001  0.000000e+000 -2.662958e+000
      vertex -2.326231e+000  0.000000e+000 -9.725670e+000
    endloop
  endfacet
  facet normal  0.000000e+000 -1.000000e+000  0.000000e+000
    outer loop
      vertex -2.326231e+000  0.000000e+000 -9.725670e+000
      vertex -8.652476e-001  0.000000e+000 -2.662958e+000
      vertex -8.174685e+000  0.000000e+000 -5.759733e+000
    endloop
  endfacet
  facet normal  0.000000e+000 -1.000000e+000  0.000000e+000
    outer loop
      vertex -2.326231e+000  0.000000e+000 -9.725670e+000
      vertex -8.174685e+000  0.000000e+000 -5.759733e+000
      vertex -5.612439e+000  0.000000e+000 -8.276505e+000
    endloop
  endfacet
  facet normal  0.000000e+000 -1.000000e+000  0.000000e+000
    outer loop
      vertex  2.716143e+000  0.000000e+000  5.902104e+000
      vertex  1.539973e+000  0.000000e+000  5.747259e+000
      vertex  9.355038e+000  0.000000e+000  3.533166e+000
    endloop
  endfacet
  facet normal  0.000000e+000 -1.000000e+000  0.000000e+000
    outer loop
      vertex  9.355038e+000  0.000000e+000  3.533166e+000
      vertex  1.539973e+000  0.000000e+000  5.747259e+000
      vertex -3.643324e-016  0.000000e+000  5.950000e+000
    endloop
  endfacet
  facet normal  0.000000e+000 -9.999999e-001  0.000000e+000
    outer loop
      vertex  9.355038e+000  0.000000e+000  3.533166e+000
      vertex -3.643324e-016  0.000000e+000  5.950000e+000
      vertex  8.652476e-001  0.000000e+000  2.662958e+000
    endloop
  endfacet
  facet normal  0.000000e+000 -9.999999e-001  0.000000e+000
    outer loop
      vertex  8.652476e-001  0.000000e+000  2.662958e+000
      vertex -3.643324e-016  0.000000e+000  5.950000e+000
      vertex -1.539973e+000  0.000000e+000  5.747259e+000
    endloop
  endfacet
  facet normal  0.000000e+000 -1.000000e+000  0.000000e+000
    outer loop
      vertex  8.652476e-001  0.000000e+000  2.662958e+000
      vertex -1.539973e+000  0.000000e+000  5.747259e+000
      vertex -8.652476e-001  0.000000e+000  2.662958e+000
    endloop
  endfacet
  facet normal  0.000000e+000 -9.999999e-001  0.000000e+000
    outer loop
      vertex -8.652476e-001  0.000000e+000  2.662958e+000
      vertex -1.539973e+000  0.000000e+000  5.747259e+000
      vertex -8.174685e+000  0.000000e+000  5.759733e+000
    endloop
  endfacet
  facet normal  0.000000e+000 -1.000000e+000  -0.000000e+000
    outer loop
      vertex -8.652476e-001  0.000000e+000  2.662958e+000
      vertex -8.174685e+000  0.000000e+000  5.759733e+000
      vertex -9.682458e+000  0.000000e+000  2.500000e+000
    endloop
  endfacet
  facet normal  -0.000000e+000 -1.000000e+000  0.000000e+000
    outer loop
      vertex  2.342312e+000  0.000000e+000  8.741629e+000
      vertex  4.683781e+000  0.000000e+000  8.835281e+000
      vertex -5.541527e-016  0.000000e+000  9.050000e+000
    endloop
  endfacet
  facet normal  0.000000e+000 -1.000000e+000  0.000000e+000
    outer loop
      vertex -5.541527e-016  0.000000e+000  9.050000e+000
      vertex  4.683781e+000  0.000000e+000  8.835281e+000
      vertex  1.260043e+000  0.000000e+000  9.920297e+000
    endloop
  endfacet
  facet normal  0.000000e+000 -1.000000e+000  0.000000e+000
    outer loop
      vertex -5.541527e-016  0.000000e+000  9.050000e+000
      vertex  1.260043e+000  0.000000e+000  9.920297e+000
      vertex -2.326231e+000  0.000000e+000  9.725670e+000
    endloop
  endfacet
  facet normal  -0.000000e+000 -1.000000e+000  0.000000e+000
    outer loop
      vertex  2.800000e+000  0.000000e+000  0.000000e+000
      vertex  1.000000e+001  0.000000e+000  1.224647e-015
      vertex  2.265248e+000  0.000000e+000  1.645799e+000
    endloop
  endfacet
  facet normal  0.000000e+000 -1.000000e+000  0.000000e+000
    outer loop
      vertex  2.265248e+000  0.000000e+000  1.645799e+000
      vertex  1.000000e+001  0.000000e+000  1.224647e-015
      vertex  9.355038e+000  0.000000e+000  3.533166e+000
    endloop
  endfacet
  facet normal  0.000000e+000 -9.999999e-001  0.000000e+000
    outer loop
      vertex  2.265248e+000  0.000000e+000  1.645799e+000
      vertex  9.355038e+000  0.000000e+000  3.533166e+000
      vertex  8.652476e-001  0.000000e+000  2.662958e+000
    endloop
  endfacet
  facet normal  0.000000e+000 -1.000000e+000  -0.000000e+000
    outer loop
      vertex -2.716143e+000  0.000000e+000  5.902104e+000
      vertex -3.438328e+000  0.000000e+000  6.843274e+000
      vertex -8.174685e+000  0.000000e+000  5.759733e+000
    endloop
  endfacet
  facet normal  0.000000e+000 -1.000000e+000  0.000000e+000
    outer loop
      vertex -8.174685e+000  0.000000e+000  5.759733e+000
      vertex -3.438328e+000  0.000000e+000  6.843274e+000
      vertex -3.283482e+000  0.000000e+000  8.019444e+000
    endloop
  endfacet
  facet normal  -0.000000e+000 -1.000000e+000  0.000000e+000
    outer loop
      vertex -8.174685e+000  0.000000e+000  5.759733e+000
      vertex -3.283482e+000  0.000000e+000  8.019444e+000
      vertex -5.612439e+000  0.000000e+000  8.276505e+000
    endloop
  endfacet
  facet normal  0.000000e+000 -1.000000e+000  0.000000e+000
    outer loop
      vertex -5.612439e+000  0.000000e+000  8.276505e+000
      vertex -3.283482e+000  0.000000e+000  8.019444e+000
      vertex -2.342312e+000  0.000000e+000  8.741629e+000
    endloop
  endfacet
  facet normal  -0.000000e+000 -1.000000e+000  0.000000e+000
    outer loop
      vertex -5.612439e+000  0.000000e+000  8.276505e+000
      vertex -2.342312e+000  0.000000e+000  8.741629e+000
      vertex -2.326231e+000  0.000000e+000  9.725670e+000
    endloop
  endfacet
  facet normal  9.510565e-001  0.000000e+000 -3.090170e-001
    outer loop
      vertex  2.800000e+000  0.000000e+000  0.000000e+000
      vertex  2.800000e+000 -3.000000e+000  0.000000e+000
      vertex  2.265248e+000  0.000000e+000 -1.645799e+000
    endloop
  endfacet
  facet normal  9.510565e-001  0.000000e+000 -3.090170e-001
    outer loop
      vertex  2.265248e+000  0.000000e+000 -1.645799e+000
      vertex  2.800000e+000 -3.000000e+000  0.000000e+000
      vertex  2.265248e+000 -3.000000e+000 -1.645799e+000
    endloop
  endfacet
  facet normal  5.877852e-001  0.000000e+000 -8.090169e-001
    outer loop
      vertex  2.265248e+000  0.000000e+000 -1.645799e+000
      vertex  2.265248e+000 -3.000000e+000 -1.645799e+000
      vertex  8.652476e-001  0.000000e+000 -2.662958e+000
    endloop
  endfacet
  facet normal  5.877852e-001  0.000000e+000 -8.090169e-001
    outer loop
      vertex  8.652476e-001  0.000000e+000 -2.662958e+000
      vertex  2.265248e+000 -3.000000e+000 -1.645799e+000
      vertex  8.652476e-001 -3.000000e+000 -2.662958e+000
    endloop
  endfacet
  facet normal  0.000000e+000  0.000000e+000 -1.000000e+000
    outer loop
      vertex  8.652476e-001  0.000000e+000 -2.662958e+000
      vertex  8.652476e-001 -3.000000e+000 -2.662958e+000
      vertex -8.652476e-001  0.000000e+000 -2.662958e+000
    endloop
  endfacet
  facet normal  0.000000e+000  0.000000e+000 -1.000000e+000
    outer loop
      vertex -8.652476e-001  0.000000e+000 -2.662958e+000
      vertex  8.652476e-001 -3.000000e+000 -2.662958e+000
      vertex -8.652476e-001 -3.000000e+000 -2.662958e+000
    endloop
  endfacet
  facet normal -5.877852e-001  0.000000e+000 -8.090169e-001
    outer loop
      vertex -8.652476e-001  0.000000e+000 -2.662958e+000
      vertex -8.652476e-001 -3.000000e+000 -2.662958e+000
      vertex -2.265248e+000  0.000000e+000 -1.645799e+000
    endloop
  endfacet
  facet normal -5.877852e-001  -0.000000e+000 -8.090169e-001
    outer loop
      vertex -2.265248e+000  0.000000e+000 -1.645799e+000
      vertex -8.652476e-001 -3.000000e+000 -2.662958e+000
      vertex -2.265248e+000 -3.000000e+000 -1.645799e+000
    endloop
  endfacet
  facet normal -9.510565e-001  0.000000e+000 -3.090170e-001
    outer loop
      vertex -2.265248e+000  0.000000e+000 -1.645799e+000
      vertex -2.265248e+000 -3.000000e+000 -1.645799e+000
      vertex -2.800000e+000  0.000000e+000 -9.005487e-016
    endloop
  endfacet
  facet normal -9.510565e-001 -1.280824e-016 -3.090170e-001
    outer loop
      vertex -2.800000e+000  0.000000e+000 -9.005487e-016
      vertex -2.265248e+000 -3.000000e+000 -1.645799e+000
      vertex -2.800000e+000 -3.000000e+000  3.429011e-016
    endloop
  endfacet
  facet normal -9.510565e-001  1.280824e-016  3.090170e-001
    outer loop
      vertex -2.800000e+000  0.000000e+000 -9.005487e-016
      vertex -2.800000e+000 -3.000000e+000  3.429011e-016
      vertex -2.265248e+000  0.000000e+000  1.645799e+000
    endloop
  endfacet
  facet normal -9.510565e-001  0.000000e+000  3.090170e-001
    outer loop
      vertex -2.265248e+000  0.000000e+000  1.645799e+000
      vertex -2.800000e+000 -3.000000e+000  3.429011e-016
      vertex -2.265248e+000 -3.000000e+000  1.645799e+000
    endloop
  endfacet
  facet normal -5.877852e-001  0.000000e+000  8.090169e-001
    outer loop
      vertex -2.265248e+000  0.000000e+000  1.645799e+000
      vertex -2.265248e+000 -3.000000e+000  1.645799e+000
      vertex -8.652476e-001  0.000000e+000  2.662958e+000
    endloop
  endfacet
  facet normal -5.877852e-001  0.000000e+000  8.090169e-001
    outer loop
      vertex -8.652476e-001  0.000000e+000  2.662958e+000
      vertex -2.265248e+000 -3.000000e+000  1.645799e+000
      vertex -8.652476e-001 -3.000000e+000  2.662958e+000
    endloop
  endfacet
  facet normal  0.000000e+000  0.000000e+000  1.000000e+000
    outer loop
      vertex -8.652476e-001  0.000000e+000  2.662958e+000
      vertex -8.652476e-001 -3.000000e+000  2.662958e+000
      vertex  8.652476e-001  0.000000e+000  2.662958e+000
    endloop
  endfacet
  facet normal  0.000000e+000  0.000000e+000  1.000000e+000
    outer loop
      vertex  8.652476e-001  0.000000e+000  2.662958e+000
      vertex -8.652476e-001 -3.000000e+000  2.662958e+000
      vertex  8.652476e-001 -3.000000e+000  2.662958e+000
    endloop
  endfacet
  facet normal  5.877852e-001  -0.000000e+000  8.090169e-001
    outer loop
      vertex  8.652476e-001  0.000000e+000  2.662958e+000
      vertex  8.652476e-001 -3.000000e+000  2.662958e+000
      vertex  2.265248e+000  0.000000e+000  1.645799e+000
    endloop
  endfacet
  facet normal  5.877852e-001  0.000000e+000  8.090169e-001
    outer loop
      vertex  2.265248e+000  0.000000e+000  1.645799e+000
      vertex  8.652476e-001 -3.000000e+000  2.662958e+000
      vertex  2.265248e+000 -3.000000e+000  1.645799e+000
    endloop
  endfacet
  facet normal  9.510565e-001  -0.000000e+000  3.090170e-001
    outer loop
      vertex  2.265248e+000  0.000000e+000  1.645799e+000
      vertex  2.265248e+000 -3.000000e+000  1.645799e+000
      vertex  2.800000e+000  0.000000e+000  0.000000e+000
    endloop
  endfacet
  facet normal  9.510565e-001  0.000000e+000  3.090170e-001
    outer loop
      vertex  2.800000e+000  0.000000e+000  0.000000e+000
      vertex  2.265248e+000 -3.000000e+000  1.645799e+000
      vertex  2.800000e+000 -3.000000e+000  0.000000e+000
    endloop
  endfacet
  facet normal  0.000000e+000  1.000000e+000  0.000000e+000
    outer loop
      vertex -2.342312e+000  3.000000e+000  8.741629e+000
      vertex -2.326231e+000  3.000000e+000  9.725670e+000
      vertex -5.541527e-016  3.000000e+000  9.050000e+000
    endloop
  endfacet
  facet normal  -0.000000e+000  1.000000e+000  0.000000e+000
    outer loop
      vertex -1.539973e+000  3.000000e+000  5.747259e+000
      vertex -8.174685e+000  3.000000e+000  5.759733e+000
      vertex -2.716143e+000  3.000000e+000  5.902104e+000
    endloop
  endfacet
  facet normal  0.000000e+000  1.000000e+000  0.000000e+000
    outer loop
      vertex -9.682458e+000  3.000000e+000  2.500000e+000
      vertex -8.652476e-001  3.000000e+000  2.662958e+000
      vertex -2.265248e+000  3.000000e+000  1.645799e+000
    endloop
  endfacet
  facet normal  -0.000000e+000  1.000000e+000  0.000000e+000
    outer loop
      vertex -3.000000e+001  3.000000e+000 -2.500000e+000
      vertex -3.000000e+001  3.000000e+000  2.500000e+000
      vertex -9.682458e+000  3.000000e+000  2.500000e+000
    endloop
  endfacet
  facet normal  0.000000e+000  1.000000e+000  0.000000e+000
    outer loop
      vertex -3.000000e+001  3.000000e+000 -2.500000e+000
      vertex -9.682458e+000  3.000000e+000  2.500000e+000
      vertex -2.265248e+000  3.000000e+000  1.645799e+000
    endloop
  endfacet
  facet normal  0.000000e+000  9.999999e-001  0.000000e+000
    outer loop
      vertex -3.000000e+001  3.000000e+000 -2.500000e+000
      vertex -2.265248e+000  3.000000e+000  1.645799e+000
      vertex -2.800000e+000  3.000000e+000  0.000000e+000
    endloop
  endfacet
  facet normal  0.000000e+000  1.000000e+000  0.000000e+000
    outer loop
      vertex -3.000000e+001  3.000000e+000 -2.500000e+000
      vertex -2.800000e+000  3.000000e+000  0.000000e+000
      vertex -2.265248e+000  3.000000e+000 -1.645799e+000
    endloop
  endfacet
  facet normal  0.000000e+000  1.000000e+000  0.000000e+000
    outer loop
      vertex -3.000000e+001  3.000000e+000 -2.500000e+000
      vertex -2.265248e+000  3.000000e+000 -1.645799e+000
      vertex -9.682458e+000  3.000000e+000 -2.500000e+000
    endloop
  endfacet
  facet normal  0.000000e+000  1.000000e+000  0.000000e+000
    outer loop
      vertex  7.503347e+000  3.000000e+000  6.610581e+000
      vertex  9.355038e+000  3.000000e+000  3.533166e+000
      vertex  2.716143e+000  3.000000e+000  5.902104e+000
    endloop
  endfacet
  facet normal  0.000000e+000  9.999999e-001  0.000000e+000
    outer loop
      vertex  7.503347e+000  3.000000e+000  6.610581e+000
      vertex  2.716143e+000  3.000000e+000  5.902104e+000
      vertex  3.438328e+000  3.000000e+000  6.843274e+000
    endloop
  endfacet
  facet normal  -0.000000e+000  1.000000e+000  -0.000000e+000
    outer loop
      vertex  7.503347e+000  3.000000e+000  6.610581e+000
      vertex  3.438328e+000  3.000000e+000  6.843274e+000
      vertex  3.283482e+000  3.000000e+000  8.019444e+000
    endloop
  endfacet
  facet normal  -0.000000e+000  1.000000e+000  -0.000000e+000
    outer loop
      vertex  7.503347e+000  3.000000e+000  6.610581e+000
      vertex  3.283482e+000  3.000000e+000  8.019444e+000
      vertex  2.342312e+000  3.000000e+000  8.741629e+000
    endloop
  endfacet
  facet normal  -0.000000e+000  1.000000e+000  0.000000e+000
    outer loop
      vertex  7.503347e+000  3.000000e+000  6.610581e+000
      vertex  2.342312e+000  3.000000e+000  8.741629e+000
      vertex  4.683781e+000  3.000000e+000  8.835281e+000
    endloop
  endfacet
  facet normal  0.000000e+000  1.000000e+000  0.000000e+000
    outer loop
      vertex -8.174685e+000  3.000000e+000 -5.759733e+000
      vertex -9.682458e+000  3.000000e+000 -2.500000e+000
      vertex -8.652476e-001  3.000000e+000 -2.662958e+000
    endloop
  endfacet
  facet normal  0.000000e+000  1.000000e+000  0.000000e+000
    outer loop
      vertex -8.652476e-001  3.000000e+000 -2.662958e+000
      vertex -9.682458e+000  3.000000e+000 -2.500000e+000
      vertex -2.265248e+000  3.000000e+000 -1.645799e+000
    endloop
  endfacet
  facet normal  0.000000e+000  1.000000e+000  0.000000e+000
    outer loop
      vertex -5.612439e+000  3.000000e+000 -8.276505e+000
      vertex -8.174685e+000  3.000000e+000 -5.759733e+000
      vertex -2.326231e+000  3.000000e+000 -9.725670e+000
    endloop
  endfacet
  facet normal  0.000000e+000  1.000000e+000  -0.000000e+000
    outer loop
      vertex -2.326231e+000  3.000000e+000 -9.725670e+000
      vertex -8.174685e+000  3.000000e+000 -5.759733e+000
      vertex -8.652476e-001  3.000000e+000 -2.662958e+000
    endloop
  endfacet
  facet normal  0.000000e+000  1.000000e+000  0.000000e+000
    outer loop
      vertex -2.326231e+000  3.000000e+000 -9.725670e+000
      vertex -8.652476e-001  3.000000e+000 -2.662958e+000
      vertex  1.260043e+000  3.000000e+000 -9.920297e+000
    endloop
  endfacet
  facet normal  0.000000e+000  1.000000e+000  0.000000e+000
    outer loop
      vertex  1.260043e+000  3.000000e+000 -9.920297e+000
      vertex -8.652476e-001  3.000000e+000 -2.662958e+000
      vertex  8.652476e-001  3.000000e+000 -2.662958e+000
    endloop
  endfacet
  facet normal  0.000000e+000  1.000000e+000  0.000000e+000
    outer loop
      vertex  1.260043e+000  3.000000e+000 -9.920297e+000
      vertex  8.652476e-001  3.000000e+000 -2.662958e+000
      vertex  4.683781e+000  3.000000e+000 -8.835281e+000
    endloop
  endfacet
  facet normal  0.000000e+000  1.000000e+000  -0.000000e+000
    outer loop
      vertex  4.683781e+000  3.000000e+000 -8.835281e+000
      vertex  8.652476e-001  3.000000e+000 -2.662958e+000
      vertex  9.355038e+000  3.000000e+000 -3.533166e+000
    endloop
  endfacet
  facet normal  0.000000e+000  1.000000e+000  0.000000e+000
    outer loop
      vertex  4.683781e+000  3.000000e+000 -8.835281e+000
      vertex  9.355038e+000  3.000000e+000 -3.533166e+000
      vertex  7.503347e+000  3.000000e+000 -6.610581e+000
    endloop
  endfacet
  facet normal  0.000000e+000  1.000000e+000  0.000000e+000
    outer loop
      vertex -9.682458e+000  3.000000e+000  2.500000e+000
      vertex -8.174685e+000  3.000000e+000  5.759733e+000
      vertex -8.652476e-001  3.000000e+000  2.662958e+000
    endloop
  endfacet
  facet normal  0.000000e+000  9.999999e-001  0.000000e+000
    outer loop
      vertex -8.652476e-001  3.000000e+000  2.662958e+000
      vertex -8.174685e+000  3.000000e+000  5.759733e+000
      vertex -1.539973e+000  3.000000e+000  5.747259e+000
    endloop
  endfacet
  facet normal  0.000000e+000  1.000000e+000  0.000000e+000
    outer loop
      vertex -8.652476e-001  3.000000e+000  2.662958e+000
      vertex -1.539973e+000  3.000000e+000  5.747259e+000
      vertex  8.652476e-001  3.000000e+000  2.662958e+000
    endloop
  endfacet
  facet normal  0.000000e+000  9.999999e-001  0.000000e+000
    outer loop
      vertex  8.652476e-001  3.000000e+000  2.662958e+000
      vertex -1.539973e+000  3.000000e+000  5.747259e+000
      vertex -3.643324e-016  3.000000e+000  5.950000e+000
    endloop
  endfacet
  facet normal  0.000000e+000  9.999999e-001  0.000000e+000
    outer loop
      vertex  8.652476e-001  3.000000e+000  2.662958e+000
      vertex -3.643324e-016  3.000000e+000  5.950000e+000
      vertex  9.355038e+000  3.000000e+000  3.533166e+000
    endloop
  endfacet
  facet normal  0.000000e+000  1.000000e+000  0.000000e+000
    outer loop
      vertex  9.355038e+000  3.000000e+000  3.533166e+000
      vertex -3.643324e-016  3.000000e+000  5.950000e+000
      vertex  1.539973e+000  3.000000e+000  5.747259e+000
    endloop
  endfacet
  facet normal  -0.000000e+000  1.000000e+000  0.000000e+000
    outer loop
      vertex  9.355038e+000  3.000000e+000  3.533166e+000
      vertex  1.539973e+000  3.000000e+000  5.747259e+000
      vertex  2.716143e+000  3.000000e+000  5.902104e+000
    endloop
  endfacet
  facet normal  0.000000e+000  1.000000e+000  0.000000e+000
    outer loop
      vertex -2.326231e+000  3.000000e+000  9.725670e+000
      vertex  1.260043e+000  3.000000e+000  9.920297e+000
      vertex -5.541527e-016  3.000000e+000  9.050000e+000
    endloop
  endfacet
  facet normal  -0.000000e+000  1.000000e+000  0.000000e+000
    outer loop
      vertex -5.541527e-016  3.000000e+000  9.050000e+000
      vertex  1.260043e+000  3.000000e+000  9.920297e+000
      vertex  4.683781e+000  3.000000e+000  8.835281e+000
    endloop
  endfacet
  facet normal  0.000000e+000  1.000000e+000  0.000000e+000
    outer loop
      vertex -5.541527e-016  3.000000e+000  9.050000e+000
      vertex  4.683781e+000  3.000000e+000  8.835281e+000
      vertex  2.342312e+000  3.000000e+000  8.741629e+000
    endloop
  endfacet
  facet normal  0.000000e+000  9.999999e-001  0.000000e+000
    outer loop
      vertex  8.652476e-001  3.000000e+000  2.662958e+000
      vertex  9.355038e+000  3.000000e+000  3.533166e+000
      vertex  2.265248e+000  3.000000e+000  1.645799e+000
    endloop
  endfacet
  facet normal  -0.000000e+000  1.000000e+000  0.000000e+000
    outer loop
      vertex  2.265248e+000  3.000000e+000  1.645799e+000
      vertex  9.355038e+000  3.000000e+000  3.533166e+000
      vertex  1.000000e+001  3.000000e+000  1.224647e-015
    endloop
  endfacet
  facet normal  0.000000e+000  1.000000e+000  0.000000e+000
    outer loop
      vertex  2.265248e+000  3.000000e+000  1.645799e+000
      vertex  1.000000e+001  3.000000e+000  1.224647e-015
      vertex  2.800000e+000  3.000000e+000  3.429011e-016
    endloop
  endfacet
  facet normal  0.000000e+000  1.000000e+000  0.000000e+000
    outer loop
      vertex  2.800000e+000  3.000000e+000  3.429011e-016
      vertex  1.000000e+001  3.000000e+000  1.224647e-015
      vertex  2.265248e+000  3.000000e+000 -1.645799e+000
    endloop
  endfacet
  facet normal  -0.000000e+000  1.000000e+000  0.000000e+000
    outer loop
      vertex  2.265248e+000  3.000000e+000 -1.645799e+000
      vertex  1.000000e+001  3.000000e+000  1.224647e-015
      vertex  9.355038e+000  3.000000e+000 -3.533166e+000
    endloop
  endfacet
  facet normal  0.000000e+000  9.999999e-001  0.000000e+000
    outer loop
      vertex  2.265248e+000  3.000000e+000 -1.645799e+000
      vertex  9.355038e+000  3.000000e+000 -3.533166e+000
      vertex  8.652476e-001  3.000000e+000 -2.662958e+000
    endloop
  endfacet
  facet normal  0.000000e+000  1.000000e+000  -0.000000e+000
    outer loop
      vertex -2.326231e+000  3.000000e+000  9.725670e+000
      vertex -2.342312e+000  3.000000e+000  8.741629e+000
      vertex -5.612439e+000  3.000000e+000  8.276505e+000
    endloop
  endfacet
  facet normal  -0.000000e+000  1.000000e+000  0.000000e+000
    outer loop
      vertex -5.612439e+000  3.000000e+000  8.276505e+000
      vertex -2.342312e+000  3.000000e+000  8.741629e+000
      vertex -3.283482e+000  3.000000e+000  8.019444e+000
    endloop
  endfacet
  facet normal  0.000000e+000  1.000000e+000  0.000000e+000
    outer loop
      vertex -5.612439e+000  3.000000e+000  8.276505e+000
      vertex -3.283482e+000  3.000000e+000  8.019444e+000
      vertex -8.174685e+000  3.000000e+000  5.759733e+000
    endloop
  endfacet
  facet normal  0.000000e+000  1.000000e+000  0.000000e+000
    outer loop
      vertex -8.174685e+000  3.000000e+000  5.759733e+000
      vertex -3.283482e+000  3.000000e+000  8.019444e+000
      vertex -3.438328e+000  3.000000e+000  6.843274e+000
    endloop
  endfacet
  facet normal  0.000000e+000  1.000000e+000  0.000000e+000
    outer loop
      vertex -8.174685e+000  3.000000e+000  5.759733e+000
      vertex -3.438328e+000  3.000000e+000  6.843274e+000
      vertex -2.716143e+000  3.000000e+000  5.902104e+000
    endloop
  endfacet
  facet normal -9.510565e-001  -0.000000e+000 -3.090170e-001
    outer loop
      vertex -2.800000e+000  3.000000e+000  0.000000e+000
      vertex -2.800000e+000  7.000000e+000  0.000000e+000
      vertex -2.265248e+000  3.000000e+000 -1.645799e+000
    endloop
  endfacet
  facet normal -9.510565e-001  0.000000e+000 -3.090170e-001
    outer loop
      vertex -2.265248e+000  3.000000e+000 -1.645799e+000
      vertex -2.800000e+000  7.000000e+000  0.000000e+000
      vertex -2.265248e+000  7.000000e+000 -1.645799e+000
    endloop
  endfacet
  facet normal -5.877852e-001  -0.000000e+000 -8.090170e-001
    outer loop
      vertex -2.265248e+000  3.000000e+000 -1.645799e+000
      vertex -2.265248e+000  7.000000e+000 -1.645799e+000
      vertex -8.652476e-001  3.000000e+000 -2.662958e+000
    endloop
  endfacet
  facet normal -5.877852e-001  0.000000e+000 -8.090170e-001
    outer loop
      vertex -8.652476e-001  3.000000e+000 -2.662958e+000
      vertex -2.265248e+000  7.000000e+000 -1.645799e+000
      vertex -8.652476e-001  7.000000e+000 -2.662958e+000
    endloop
  endfacet
  facet normal  0.000000e+000  0.000000e+000 -1.000000e+000
    outer loop
      vertex -8.652476e-001  3.000000e+000 -2.662958e+000
      vertex -8.652476e-001  7.000000e+000 -2.662958e+000
      vertex  8.652476e-001  3.000000e+000 -2.662958e+000
    endloop
  endfacet
  facet normal  0.000000e+000  0.000000e+000 -1.000000e+000
    outer loop
      vertex  8.652476e-001  3.000000e+000 -2.662958e+000
      vertex -8.652476e-001  7.000000e+000 -2.662958e+000
      vertex  8.652476e-001  7.000000e+000 -2.662958e+000
    endloop
  endfacet
  facet normal  5.877852e-001  0.000000e+000 -8.090170e-001
    outer loop
      vertex  8.652476e-001  3.000000e+000 -2.662958e+000
      vertex  8.652476e-001  7.000000e+000 -2.662958e+000
      vertex  2.265248e+000  3.000000e+000 -1.645799e+000
    endloop
  endfacet
  facet normal  5.877852e-001  0.000000e+000 -8.090170e-001
    outer loop
      vertex  2.265248e+000  3.000000e+000 -1.645799e+000
      vertex  8.652476e-001  7.000000e+000 -2.662958e+000
      vertex  2.265248e+000  7.000000e+000 -1.645799e+000
    endloop
  endfacet
  facet normal  9.510565e-001  0.000000e+000 -3.090170e-001
    outer loop
      vertex  2.265248e+000  3.000000e+000 -1.645799e+000
      vertex  2.265248e+000  7.000000e+000 -1.645799e+000
      vertex  2.800000e+000  3.000000e+000  3.429011e-016
    endloop
  endfacet
  facet normal  9.510565e-001  0.000000e+000 -3.090170e-001
    outer loop
      vertex  2.800000e+000  3.000000e+000  3.429011e-016
      vertex  2.265248e+000  7.000000e+000 -1.645799e+000
      vertex  2.800000e+000  7.000000e+000  3.429011e-016
    endloop
  endfacet
  facet normal  9.510565e-001  0.000000e+000  3.090170e-001
    outer loop
      vertex  2.800000e+000  3.000000e+000  3.429011e-016
      vertex  2.800000e+000  7.000000e+000  3.429011e-016
      vertex  2.265248e+000  3.000000e+000  1.645799e+000
    endloop
  endfacet
  facet normal  9.510565e-001  -0.000000e+000  3.090170e-001
    outer loop
      vertex  2.265248e+000  3.000000e+000  1.645799e+000
      vertex  2.800000e+000  7.000000e+000  3.429011e-016
      vertex  2.265248e+000  7.000000e+000  1.645799e+000
    endloop
  endfacet
  facet normal  5.877852e-001  0.000000e+000  8.090170e-001
    outer loop
      vertex  2.265248e+000  3.000000e+000  1.645799e+000
      vertex  2.265248e+000  7.000000e+000  1.645799e+000
      vertex  8.652476e-001  3.000000e+000  2.662958e+000
    endloop
  endfacet
  facet normal  5.877852e-001  -0.000000e+000  8.090170e-001
    outer loop
      vertex  8.652476e-001  3.000000e+000  2.662958e+000
      vertex  2.265248e+000  7.000000e+000  1.645799e+000
      vertex  8.652476e-001  7.000000e+000  2.662958e+000
    endloop
  endfacet
  facet normal  0.000000e+000  0.000000e+000  1.000000e+000
    outer loop
      vertex  8.652476e-001  3.000000e+000  2.662958e+000
      vertex  8.652476e-001  7.000000e+000  2.662958e+000
      vertex -8.652476e-001  3.000000e+000  2.662958e+000
    endloop
  endfacet
  facet normal  0.000000e+000  0.000000e+000  1.000000e+000
    outer loop
      vertex -8.652476e-001  3.000000e+000  2.662958e+000
      vertex  8.652476e-001  7.000000e+000  2.662958e+000
      vertex -8.652476e-001  7.000000e+000  2.662958e+000
    endloop
  endfacet
  facet normal -5.877852e-001  0.000000e+000  8.090170e-001
    outer loop
      vertex -8.652476e-001  3.000000e+000  2.662958e+000
      vertex -8.652476e-001  7.000000e+000  2.662958e+000
      vertex -2.265248e+000  3.000000e+000  1.645799e+000
    endloop
  endfacet
  facet normal -5.877852e-001  0.000000e+000  8.090170e-001
    outer loop
      vertex -2.265248e+000  3.000000e+000  1.645799e+000
      vertex -8.652476e-001  7.000000e+000  2.662958e+000
      vertex -2.265248e+000  7.000000e+000  1.645799e+000
    endloop
  endfacet
  facet normal -9.510565e-001  0.000000e+000  3.090170e-001
    outer loop
      vertex -2.265248e+000  3.000000e+000  1.645799e+000
      vertex -2.265248e+000  7.000000e+000  1.645799e+000
      vertex -2.800000e+000  3.000000e+000  0.000000e+000
    endloop
  endfacet
  facet normal -9.510565e-001  0.000000e+000  3.090170e-001
    outer loop
      vertex -2.800000e+000  3.000000e+000  0.000000e+000
      vertex -2.265248e+000  7.000000e+000  1.645799e+000
      vertex -2.800000e+000  7.000000e+000  0.000000e+000
    endloop
  endfacet
  facet normal  0.000000e+000  1.000000e+000  0.000000e+000
    outer loop
      vertex -8.652476e-001  7.000000e+000  2.662958e+000
      vertex  8.652476e-001  7.000000e+000  2.662958e+000
      vertex -2.265248e+000  7.000000e+000  1.645799e+000
    endloop
  endfacet
  facet normal  0.000000e+000  1.000000e+000  0.000000e+000
    outer loop
      vertex -2.265248e+000  7.000000e+000  1.645799e+000
      vertex  8.652476e-001  7.000000e+000  2.662958e+000
      vertex  2.265248e+000  7.000000e+000  1.645799e+000
    endloop
  endfacet
  facet normal  0.000000e+000  1.000000e+000  0.000000e+000
    outer loop
      vertex -2.265248e+000  7.000000e+000  1.645799e+000
      vertex  2.265248e+000  7.000000e+000  1.645799e+000
      vertex -2.800000e+000  7.000000e+000  0.000000e+000
    endloop
  endfacet
  facet normal  0.000000e+000  1.000000e+000  0.000000e+000
    outer loop
      vertex -2.800000e+000  7.000000e+000  0.000000e+000
      vertex  2.265248e+000  7.000000e+000  1.645799e+000
      vertex  2.800000e+000  7.000000e+000  3.429011e-016
    endloop
  endfacet
  facet normal  0.000000e+000  1.000000e+000  0.000000e+000
    outer loop
      vertex -2.800000e+000  7.000000e+000  0.000000e+000
      vertex  2.800000e+000  7.000000e+000  3.429011e-016
      vertex -2.265248e+000  7.000000e+000 -1.645799e+000
    endloop
  endfacet
  facet normal  0.000000e+000  1.000000e+000  0.000000e+000
    outer loop
      vertex -2.265248e+000  7.000000e+000 -1.645799e+000
      vertex  2.800000e+000  7.000000e+000  3.429011e-016
      vertex  2.265248e+000  7.000000e+000 -1.645799e+000
    endloop
  endfacet
  facet normal  0.000000e+000  1.000000e+000  0.000000e+000
    outer loop
      vertex -2.265248e+000  7.000000e+000 -1.645799e+000
      vertex  2.265248e+000  7.000000e+000 -1.645799e+000
      vertex -8.652476e-001  7.000000e+000 -2.662958e+000
    endloop
  endfacet
  facet normal  0.000000e+000  1.000000e+000  0.000000e+000
    outer loop
      vertex -8.652476e-001  7.000000e+000 -2.662958e+000
      vertex  2.265248e+000  7.000000e+000 -1.645799e+000
      vertex  8.652476e-001  7.000000e+000 -2.662958e+000
    endloop
  endfacet
  facet normal  0.000000e+000  0.000000e+000  1.000000e+000
    outer loop
      vertex -9.682458e+000  0.000000e+000  2.500000e+000
      vertex -9.682458e+000  3.000000e+000  2.500000e+000
      vertex -3.000000e+001  0.000000e+000  2.500000e+000
    endloop
  endfacet
  facet normal  0.000000e+000  0.000000e+000  1.000000e+000
    outer loop
      vertex -3.000000e+001  0.000000e+000  2.500000e+000
      vertex -9.682458e+000  3.000000e+000  2.500000e+000
      vertex -3.000000e+001  3.000000e+000  2.500000e+000
    endloop
  endfacet
  facet normal  0.000000e+000  0.000000e+000 -1.000000e+000
    outer loop
      vertex -3.000000e+001  0.000000e+000 -2.500000e+000
      vertex -3.000000e+001  3.000000e+000 -2.500000e+000
      vertex -9.682458e+000  0.000000e+000 -2.500000e+000
    endloop
  endfacet
  facet normal  0.000000e+000  0.000000e+000 -1.000000e+000
    outer loop
      vertex -9.682458e+000  0.000000e+000 -2.500000e+000
      vertex -3.000000e+001  3.000000e+000 -2.500000e+000
      vertex -9.682458e+000  3.000000e+000 -2.500000e+000
    endloop
  endfacet
  facet normal  9.837438e-001  0.000000e+000  1.795776e-001
    outer loop
      vertex  1.000000e+001  0.000000e+000  1.224647e-015
      vertex  1.000000e+001  3.000000e+000  1.224647e-015
      vertex  9.355038e+000  0.000000e+000  3.533166e+000
    endloop
  endfacet
  facet normal  9.837438e-001  -0.000000e+000  1.795776e-001
    outer loop
      vertex  9.355038e+000  0.000000e+000  3.533166e+000
      vertex  1.000000e+001  3.000000e+000  1.224647e-015
      vertex  9.355038e+000  3.000000e+000  3.533166e+000
    endloop
  endfacet
  facet normal  8.568484e-001  0.000000e+000  5.155685e-001
    outer loop
      vertex  9.355038e+000  0.000000e+000  3.533166e+000
      vertex  9.355038e+000  3.000000e+000  3.533166e+000
      vertex  7.503347e+000  0.000000e+000  6.610581e+000
    endloop
  endfacet
  facet normal  8.568484e-001  -0.000000e+000  5.155685e-001
    outer loop
      vertex  7.503347e+000  0.000000e+000  6.610581e+000
      vertex  9.355038e+000  3.000000e+000  3.533166e+000
      vertex  7.503347e+000  3.000000e+000  6.610581e+000
    endloop
  endfacet
  facet normal  6.194259e-001  0.000000e+000  7.850551e-001
    outer loop
      vertex  7.503347e+000  0.000000e+000  6.610581e+000
      vertex  7.503347e+000  3.000000e+000  6.610581e+000
      vertex  4.683781e+000  0.000000e+000  8.835281e+000
    endloop
  endfacet
  facet normal  6.194259e-001  -0.000000e+000  7.850551e-001
    outer loop
      vertex  4.683781e+000  0.000000e+000  8.835281e+000
      vertex  7.503347e+000  3.000000e+000  6.610581e+000
      vertex  4.683781e+000  3.000000e+000  8.835281e+000
    endloop
  endfacet
  facet normal  3.021021e-001  0.000000e+000  9.532755e-001
    outer loop
      vertex  4.683781e+000  0.000000e+000  8.835281e+000
      vertex  4.683781e+000  3.000000e+000  8.835281e+000
      vertex  1.260043e+000  0.000000e+000  9.920297e+000
    endloop
  endfacet
  facet normal  3.021021e-001  -0.000000e+000  9.532755e-001
    outer loop
      vertex  1.260043e+000  0.000000e+000  9.920297e+000
      vertex  4.683781e+000  3.000000e+000  8.835281e+000
      vertex  1.260043e+000  3.000000e+000  9.920297e+000
    endloop
  endfacet
  facet normal -5.419018e-002  0.000000e+000  9.985306e-001
    outer loop
      vertex  1.260043e+000  0.000000e+000  9.920297e+000
      vertex  1.260043e+000  3.000000e+000  9.920297e+000
      vertex -2.326231e+000  0.000000e+000  9.725670e+000
    endloop
  endfacet
  facet normal -5.419018e-002  0.000000e+000  9.985306e-001
    outer loop
      vertex -2.326231e+000  0.000000e+000  9.725670e+000
      vertex  1.260043e+000  3.000000e+000  9.920297e+000
      vertex -2.326231e+000  3.000000e+000  9.725670e+000
    endloop
  endfacet
  facet normal -4.034928e-001  0.000000e+000  9.149828e-001
    outer loop
      vertex -2.326231e+000  0.000000e+000  9.725670e+000
      vertex -2.326231e+000  3.000000e+000  9.725670e+000
      vertex -5.612439e+000  0.000000e+000  8.276505e+000
    endloop
  endfacet
  facet normal -4.034928e-001  0.000000e+000  9.149828e-001
    outer loop
      vertex -5.612439e+000  0.000000e+000  8.276505e+000
      vertex -2.326231e+000  3.000000e+000  9.725670e+000
      vertex -5.612439e+000  3.000000e+000  8.276505e+000
    endloop
  endfacet
  facet normal -7.007477e-001  0.000000e+000  7.134091e-001
    outer loop
      vertex -5.612439e+000  0.000000e+000  8.276505e+000
      vertex -5.612439e+000  3.000000e+000  8.276505e+000
      vertex -8.174685e+000  0.000000e+000  5.759733e+000
    endloop
  endfacet
  facet normal -7.007477e-001  0.000000e+000  7.134091e-001
    outer loop
      vertex -8.174685e+000  0.000000e+000  5.759733e+000
      vertex -5.612439e+000  3.000000e+000  8.276505e+000
      vertex -8.174685e+000  3.000000e+000  5.759733e+000
    endloop
  endfacet
  facet normal -9.076114e-001  0.000000e+000  4.198112e-001
    outer loop
      vertex -8.174685e+000  0.000000e+000  5.759733e+000
      vertex -8.174685e+000  3.000000e+000  5.759733e+000
      vertex -9.682458e+000  0.000000e+000  2.500000e+000
    endloop
  endfacet
  facet normal -9.076114e-001  0.000000e+000  4.198112e-001
    outer loop
      vertex -9.682458e+000  0.000000e+000  2.500000e+000
      vertex -8.174685e+000  3.000000e+000  5.759733e+000
      vertex -9.682458e+000  3.000000e+000  2.500000e+000
    endloop
  endfacet
  facet normal -9.076114e-001  -0.000000e+000 -4.198112e-001
    outer loop
      vertex -9.682458e+000  0.000000e+000 -2.500000e+000
      vertex -9.682458e+000  3.000000e+000 -2.500000e+000
      vertex -8.174685e+000  0.000000e+000 -5.759733e+000
    endloop
  endfacet
  facet normal -9.076114e-001  0.000000e+000 -4.198112e-001
    outer loop
      vertex -8.174685e+000  0.000000e+000 -5.759733e+000
      vertex -9.682458e+000  3.000000e+000 -2.500000e+000
      vertex -8.174685e+000  3.000000e+000 -5.759733e+000
    endloop
  endfacet
  facet normal -7.007477e-001  -0.000000e+000 -7.134091e-001
    outer loop
      vertex -8.174685e+000  0.000000e+000 -5.759733e+000
      vertex -8.174685e+000  3.000000e+000 -5.759733e+000
      vertex -5.612439e+000  0.000000e+000 -8.276505e+000
    endloop
  endfacet
  facet normal -7.007477e-001  0.000000e+000 -7.134091e-001
    outer loop
      vertex -5.612439e+000  0.000000e+000 -8.276505e+000
      vertex -8.174685e+000  3.000000e+000 -5.759733e+000
      vertex -5.612439e+000  3.000000e+000 -8.276505e+000
    endloop
  endfacet
  facet normal -4.034928e-001  -0.000000e+000 -9.149828e-001
    outer loop
      vertex -5.612439e+000  0.000000e+000 -8.276505e+000
      vertex -5.612439e+000  3.000000e+000 -8.276505e+000
      vertex -2.326231e+000  0.000000e+000 -9.725670e+000
    endloop
  endfacet
  facet normal -4.034928e-001  0.000000e+000 -9.149828e-001
    outer loop
      vertex -2.326231e+000  0.000000e+000 -9.725670e+000
      vertex -5.612439e+000  3.000000e+000 -8.276505e+000
      vertex -2.326231e+000  3.000000e+000 -9.725670e+000
    endloop
  endfacet
  facet normal -5.419018e-002  -0.000000e+000 -9.985306e-001
    outer loop
      vertex -2.326231e+000  0.000000e+000 -9.725670e+000
      vertex -2.326231e+000  3.000000e+000 -9.725670e+000
      vertex  1.260043e+000  0.000000e+000 -9.920297e+000
    endloop
  endfacet
  facet normal -5.419018e-002  0.000000e+000 -9.985306e-001
    outer loop
      vertex  1.260043e+000  0.000000e+000 -9.920297e+000
      vertex -2.326231e+000  3.000000e+000 -9.725670e+000
      vertex  1.260043e+000  3.000000e+000 -9.920297e+000
    endloop
  endfacet
  facet normal  3.021021e-001  0.000000e+000 -9.532755e-001
    outer loop
      vertex  1.260043e+000  0.000000e+000 -9.920297e+000
      vertex  1.260043e+000  3.000000e+000 -9.920297e+000
      vertex  4.683781e+000  0.000000e+000 -8.835281e+000
    endloop
  endfacet
  facet normal  3.021021e-001  0.000000e+000 -9.532755e-001
    outer loop
      vertex  4.683781e+000  0.000000e+000 -8.835281e+000
      vertex  1.260043e+000  3.000000e+000 -9.920297e+000
      vertex  4.683781e+000  3.000000e+000 -8.835281e+000
    endloop
  endfacet
  facet normal  6.194259e-001  0.000000e+000 -7.850551e-001
    outer loop
      vertex  4.683781e+000  0.000000e+000 -8.835281e+000
      vertex  4.683781e+000  3.000000e+000 -8.835281e+000
      vertex  7.503347e+000  0.000000e+000 -6.610581e+000
    endloop
  endfacet
  facet normal  6.194259e-001  0.000000e+000 -7.850551e-001
    outer loop
      vertex  7.503347e+000  0.000000e+000 -6.610581e+000
      vertex  4.683781e+000  3.000000e+000 -8.835281e+000
      vertex  7.503347e+000  3.000000e+000 -6.610581e+000
    endloop
  endfacet
  facet normal  8.568484e-001  0.000000e+000 -5.155685e-001
    outer loop
      vertex  7.503347e+000  0.000000e+000 -6.610581e+000
      vertex  7.503347e+000  3.000000e+000 -6.610581e+000
      vertex  9.355038e+000  0.000000e+000 -3.533166e+000
    endloop
  endfacet
  facet normal  8.568484e-001  0.000000e+000 -5.155685e-001
    outer loop
      vertex  9.355038e+000  0.000000e+000 -3.533166e+000
      vertex  7.503347e+000  3.000000e+000 -6.610581e+000
      vertex  9.355038e+000  3.000000e+000 -3.533166e+000
    endloop
  endfacet
  facet normal  9.837438e-001  0.000000e+000 -1.795776e-001
    outer loop
      vertex  9.355038e+000  0.000000e+000 -3.533166e+000
      vertex  9.355038e+000  3.000000e+000 -3.533166e+000
      vertex  1.000000e+001  0.000000e+000  1.224647e-015
    endloop
  endfacet
  facet normal  9.837438e-001  0.000000e+000 -1.795776e-001
    outer loop
      vertex  1.000000e+001  0.000000e+000  1.224647e-015
      vertex  9.355038e+000  3.000000e+000 -3.533166e+000
      vertex  1.000000e+001  3.000000e+000  1.224647e-015
    endloop
  endfacet
  facet normal -1.000000e+000  0.000000e+000  0.000000e+000
    outer loop
      vertex -3.000000e+001  0.000000e+000 -2.500000e+000
      vertex -3.000000e+001  0.000000e+000  2.500000e+000
      vertex -3.000000e+001  3.000000e+000 -2.500000e+000
    endloop
  endfacet
  facet normal -1.000000e+000  0.000000e+000  0.000000e+000
    outer loop
      vertex -3.000000e+001  3.000000e+000 -2.500000e+000
      vertex -3.000000e+001  0.000000e+000  2.500000e+000
      vertex -3.000000e+001  3.000000e+000  2.500000e+000
    endloop
  endfacet
  facet normal -7.933534e-001  0.000000e+000  6.087614e-001
    outer loop
      vertex  3.438328e+000  0.000000e+000  6.843274e+000
      vertex  2.716143e+000  3.000000e+000  5.902104e+000
      vertex  2.716143e+000  0.000000e+000  5.902104e+000
    endloop
  endfacet
  facet normal -1.305262e-001  0.000000e+000  9.914449e-001
    outer loop
      vertex  2.716143e+000  0.000000e+000  5.902104e+000
      vertex  2.716143e+000  3.000000e+000  5.902104e+000
      vertex  1.539973e+000  3.000000e+000  5.747259e+000
    endloop
  endfacet
  facet normal -1.305262e-001  0.000000e+000  9.914449e-001
    outer loop
      vertex  2.716143e+000  0.000000e+000  5.902104e+000
      vertex  1.539973e+000  3.000000e+000  5.747259e+000
      vertex  1.539973e+000  0.000000e+000  5.747259e+000
    endloop
  endfacet
  facet normal -7.933534e-001  0.000000e+000  6.087614e-001
    outer loop
      vertex  2.716143e+000  3.000000e+000  5.902104e+000
      vertex  3.438328e+000  0.000000e+000  6.843274e+000
      vertex  3.438328e+000  3.000000e+000  6.843274e+000
    endloop
  endfacet
  facet normal -9.914449e-001  -0.000000e+000 -1.305261e-001
    outer loop
      vertex  3.438328e+000  3.000000e+000  6.843274e+000
      vertex  3.438328e+000  0.000000e+000  6.843274e+000
      vertex  3.283482e+000  0.000000e+000  8.019444e+000
    endloop
  endfacet
  facet normal -9.914449e-001  0.000000e+000 -1.305261e-001
    outer loop
      vertex  3.438328e+000  3.000000e+000  6.843274e+000
      vertex  3.283482e+000  0.000000e+000  8.019444e+000
      vertex  3.283482e+000  3.000000e+000  8.019444e+000
    endloop
  endfacet
  facet normal -6.087614e-001  -0.000000e+000 -7.933533e-001
    outer loop
      vertex  3.283482e+000  3.000000e+000  8.019444e+000
      vertex  3.283482e+000  0.000000e+000  8.019444e+000
      vertex  2.342312e+000  0.000000e+000  8.741629e+000
    endloop
  endfacet
  facet normal -6.087614e-001  0.000000e+000 -7.933533e-001
    outer loop
      vertex  3.283482e+000  3.000000e+000  8.019444e+000
      vertex  2.342312e+000  0.000000e+000  8.741629e+000
      vertex  2.342312e+000  3.000000e+000  8.741629e+000
    endloop
  endfacet
  facet normal  1.305261e-001  0.000000e+000  9.914449e-001
    outer loop
      vertex  1.539973e+000  0.000000e+000  5.747259e+000
      vertex  1.539973e+000  3.000000e+000  5.747259e+000
      vertex -3.643324e-016  0.000000e+000  5.950000e+000
    endloop
  endfacet
  facet normal  1.305261e-001  -0.000000e+000  9.914449e-001
    outer loop
      vertex -3.643324e-016  0.000000e+000  5.950000e+000
      vertex  1.539973e+000  3.000000e+000  5.747259e+000
      vertex -3.643324e-016  3.000000e+000  5.950000e+000
    endloop
  endfacet
  facet normal -1.305261e-001  0.000000e+000  9.914449e-001
    outer loop
      vertex -3.643324e-016  0.000000e+000  5.950000e+000
      vertex -3.643324e-016  3.000000e+000  5.950000e+000
      vertex -1.539973e+000  0.000000e+000  5.747259e+000
    endloop
  endfacet
  facet normal -1.305261e-001  0.000000e+000  9.914449e-001
    outer loop
      vertex -1.539973e+000  0.000000e+000  5.747259e+000
      vertex -3.643324e-016  3.000000e+000  5.950000e+000
      vertex -1.539973e+000  3.000000e+000  5.747259e+000
    endloop
  endfacet
  facet normal  9.914449e-001  0.000000e+000 -1.305261e-001
    outer loop
      vertex -3.438328e+000  0.000000e+000  6.843274e+000
      vertex -3.283482e+000  3.000000e+000  8.019444e+000
      vertex -3.283482e+000  0.000000e+000  8.019444e+000
    endloop
  endfacet
  facet normal  6.087614e-001  0.000000e+000 -7.933533e-001
    outer loop
      vertex -3.283482e+000  0.000000e+000  8.019444e+000
      vertex -3.283482e+000  3.000000e+000  8.019444e+000
      vertex -2.342312e+000  3.000000e+000  8.741629e+000
    endloop
  endfacet
  facet normal  6.087614e-001  0.000000e+000 -7.933533e-001
    outer loop
      vertex -3.283482e+000  0.000000e+000  8.019444e+000
      vertex -2.342312e+000  3.000000e+000  8.741629e+000
      vertex -2.342312e+000  0.000000e+000  8.741629e+000
    endloop
  endfacet
  facet normal  9.914449e-001  0.000000e+000 -1.305261e-001
    outer loop
      vertex -3.283482e+000  3.000000e+000  8.019444e+000
      vertex -3.438328e+000  0.000000e+000  6.843274e+000
      vertex -3.438328e+000  3.000000e+000  6.843274e+000
    endloop
  endfacet
  facet normal  7.933534e-001  0.000000e+000  6.087614e-001
    outer loop
      vertex -3.438328e+000  3.000000e+000  6.843274e+000
      vertex -3.438328e+000  0.000000e+000  6.843274e+000
      vertex -2.716143e+000  0.000000e+000  5.902104e+000
    endloop
  endfacet
  facet normal  7.933534e-001  -0.000000e+000  6.087614e-001
    outer loop
      vertex -3.438328e+000  3.000000e+000  6.843274e+000
      vertex -2.716143e+000  0.000000e+000  5.902104e+000
      vertex -2.716143e+000  3.000000e+000  5.902104e+000
    endloop
  endfacet
  facet normal  1.305262e-001  0.000000e+000  9.914449e-001
    outer loop
      vertex -2.716143e+000  3.000000e+000  5.902104e+000
      vertex -2.716143e+000  0.000000e+000  5.902104e+000
      vertex -1.539973e+000  0.000000e+000  5.747259e+000
    endloop
  endfacet
  facet normal  1.305262e-001  -0.000000e+000  9.914449e-001
    outer loop
      vertex -2.716143e+000  3.000000e+000  5.902104e+000
      vertex -1.539973e+000  0.000000e+000  5.747259e+000
      vertex -1.539973e+000  3.000000e+000  5.747259e+000
    endloop
  endfacet
  facet normal -1.305263e-001  0.000000e+000 -9.914448e-001
    outer loop
      vertex  2.342312e+000  0.000000e+000  8.741629e+000
      vertex -5.541527e-016  0.000000e+000  9.050000e+000
      vertex  2.342312e+000  3.000000e+000  8.741629e+000
    endloop
  endfacet
  facet normal -1.305263e-001  0.000000e+000 -9.914448e-001
    outer loop
      vertex  2.342312e+000  3.000000e+000  8.741629e+000
      vertex -5.541527e-016  0.000000e+000  9.050000e+000
      vertex -5.541527e-016  3.000000e+000  9.050000e+000
    endloop
  endfacet
  facet normal  1.305263e-001  0.000000e+000 -9.914448e-001
    outer loop
      vertex -5.541527e-016  0.000000e+000  9.050000e+000
      vertex -2.342312e+000  0.000000e+000  8.741629e+000
      vertex -5.541527e-016  3.000000e+000  9.050000e+000
    endloop
  endfacet
  facet normal  1.305263e-001  0.000000e+000 -9.914448e-001
    outer loop
      vertex -5.541527e-016  3.000000e+000  9.050000e+000
      vertex -2.342312e+000  0.000000e+000  8.741629e+000
      vertex -2.342312e+000  3.000000e+000  8.741629e+000
    endloop
  endfacet
endsolid CATIA STL
