solid CATIA STL
  facet normal -7.071089e-001  5.246493e-008  7.071046e-001
    outer loop
      vertex -3.868135e+001  4.214508e+000 -6.181349e+000
      vertex -3.919239e+001  1.500000e+000 -6.692388e+000
      vertex -3.877818e+001  2.914214e+000 -6.278174e+000
    endloop
  endfacet
  facet normal -7.071066e-001  0.000000e+000  7.071069e-001
    outer loop
      vertex -3.000000e+001  0.000000e+000  2.500000e+000
      vertex -3.000000e+001  3.000000e+000  2.500000e+000
      vertex -3.594106e+001  0.000000e+000 -3.441057e+000
    endloop
  endfacet
  facet normal -7.071069e-001  1.126091e-006  7.071066e-001
    outer loop
      vertex -3.594106e+001  0.000000e+000 -3.441057e+000
      vertex -3.000000e+001  3.000000e+000  2.500000e+000
      vertex -3.636396e+001  1.500000e+000 -3.863961e+000
    endloop
  endfacet
  facet normal -7.071082e-001  4.462891e-007  7.071054e-001
    outer loop
      vertex -3.594106e+001  0.000000e+000 -3.441057e+000
      vertex -3.636396e+001  1.500000e+000 -3.863961e+000
      vertex -3.671751e+001 -1.098076e+000 -4.217515e+000
    endloop
  endfacet
  facet normal -7.071043e-001 -6.034983e-007  7.071092e-001
    outer loop
      vertex -3.671751e+001 -1.098076e+000 -4.217515e+000
      vertex -3.636396e+001  1.500000e+000 -3.863961e+000
      vertex -3.677818e+001  8.578644e-002 -4.278174e+000
    endloop
  endfacet
  facet normal -7.071061e-001 -7.902179e-007  7.071074e-001
    outer loop
      vertex -3.671751e+001 -1.098076e+000 -4.217515e+000
      vertex -3.677818e+001  8.578644e-002 -4.278174e+000
      vertex -3.777818e+001 -1.500000e+000 -5.278174e+000
    endloop
  endfacet
  facet normal -7.071068e-001  0.000000e+000  7.071068e-001
    outer loop
      vertex -3.777818e+001 -1.500000e+000 -5.278174e+000
      vertex -3.677818e+001  8.578644e-002 -4.278174e+000
      vertex -3.777818e+001 -5.000000e-001 -5.278174e+000
    endloop
  endfacet
  facet normal -7.071066e-001  0.000000e+000  7.071070e-001
    outer loop
      vertex -3.777818e+001 -1.500000e+000 -5.278174e+000
      vertex -3.777818e+001 -5.000000e-001 -5.278174e+000
      vertex -3.868135e+001 -1.214508e+000 -6.181349e+000
    endloop
  endfacet
  facet normal -7.071066e-001  2.711334e-007  7.071068e-001
    outer loop
      vertex -3.868135e+001 -1.214508e+000 -6.181349e+000
      vertex -3.777818e+001 -5.000000e-001 -5.278174e+000
      vertex -3.877818e+001  8.578644e-002 -6.278174e+000
    endloop
  endfacet
  facet normal -7.071089e-001 -5.902304e-008  7.071047e-001
    outer loop
      vertex -3.868135e+001 -1.214508e+000 -6.181349e+000
      vertex -3.877818e+001  8.578644e-002 -6.278174e+000
      vertex -3.919239e+001  1.500000e+000 -6.692388e+000
    endloop
  endfacet
  facet normal -7.071075e-001 -7.984276e-008  7.071060e-001
    outer loop
      vertex -3.961529e+001 -1.110223e-015 -7.115292e+000
      vertex -3.868135e+001 -1.214508e+000 -6.181349e+000
      vertex -3.989949e+001  1.500000e+000 -7.399495e+000
    endloop
  endfacet
  facet normal -7.071065e-001  8.343962e-007  7.071069e-001
    outer loop
      vertex -3.989949e+001  1.500000e+000 -7.399495e+000
      vertex -3.868135e+001 -1.214508e+000 -6.181349e+000
      vertex -3.919239e+001  1.500000e+000 -6.692388e+000
    endloop
  endfacet
  facet normal -7.071066e-001 -3.178912e-007  7.071071e-001
    outer loop
      vertex -3.989949e+001  1.500000e+000 -7.399495e+000
      vertex -3.919239e+001  1.500000e+000 -6.692388e+000
      vertex -3.961529e+001  3.000000e+000 -7.115292e+000
    endloop
  endfacet
  facet normal -7.071071e-001 -6.274036e-007  7.071064e-001
    outer loop
      vertex -3.961529e+001  3.000000e+000 -7.115292e+000
      vertex -3.919239e+001  1.500000e+000 -6.692388e+000
      vertex -3.868135e+001  4.214508e+000 -6.181349e+000
    endloop
  endfacet
  facet normal -7.071066e-001 -2.940263e-007  7.071070e-001
    outer loop
      vertex -3.868135e+001  4.214508e+000 -6.181349e+000
      vertex -3.877818e+001  2.914214e+000 -6.278174e+000
      vertex -3.777818e+001  4.500000e+000 -5.278174e+000
    endloop
  endfacet
  facet normal -7.071068e-001  0.000000e+000  7.071068e-001
    outer loop
      vertex -3.777818e+001  4.500000e+000 -5.278174e+000
      vertex -3.877818e+001  2.914214e+000 -6.278174e+000
      vertex -3.777818e+001  3.500000e+000 -5.278174e+000
    endloop
  endfacet
  facet normal -7.071063e-001  0.000000e+000  7.071072e-001
    outer loop
      vertex -3.777818e+001  4.500000e+000 -5.278174e+000
      vertex -3.777818e+001  3.500000e+000 -5.278174e+000
      vertex -3.671751e+001  4.098076e+000 -4.217515e+000
    endloop
  endfacet
  facet normal -7.071066e-001  8.295285e-007  7.071070e-001
    outer loop
      vertex -3.671751e+001  4.098076e+000 -4.217515e+000
      vertex -3.777818e+001  3.500000e+000 -5.278174e+000
      vertex -3.677818e+001  2.914214e+000 -4.278174e+000
    endloop
  endfacet
  facet normal -7.071072e-001  9.004801e-007  7.071064e-001
    outer loop
      vertex -3.671751e+001  4.098076e+000 -4.217515e+000
      vertex -3.677818e+001  2.914214e+000 -4.278174e+000
      vertex -3.594106e+001  3.000000e+000 -3.441057e+000
    endloop
  endfacet
  facet normal -7.071072e-001 -1.036911e-006  7.071064e-001
    outer loop
      vertex -3.594106e+001  3.000000e+000 -3.441057e+000
      vertex -3.677818e+001  2.914214e+000 -4.278174e+000
      vertex -3.636396e+001  1.500000e+000 -3.863961e+000
    endloop
  endfacet
  facet normal -7.071068e-001 -1.286409e-006  7.071069e-001
    outer loop
      vertex -3.594106e+001  3.000000e+000 -3.441057e+000
      vertex -3.636396e+001  1.500000e+000 -3.863961e+000
      vertex -3.000000e+001  3.000000e+000  2.500000e+000
    endloop
  endfacet
  facet normal  6.532817e-001  3.826828e-001  6.532816e-001
    outer loop
      vertex -3.374767e+001  1.500000e+000 -1.213711e+001
      vertex -3.877818e+001  8.578644e-002 -6.278174e+000
      vertex -3.333345e+001  8.578644e-002 -1.172290e+001
    endloop
  endfacet
  facet normal  2.705981e-001  9.238795e-001  2.705981e-001
    outer loop
      vertex -3.333345e+001  8.578644e-002 -1.172290e+001
      vertex -3.877818e+001  8.578644e-002 -6.278174e+000
      vertex -3.777818e+001 -5.000000e-001 -5.278174e+000
    endloop
  endfacet
  facet normal  2.705981e-001  9.238795e-001  2.705981e-001
    outer loop
      vertex -3.333345e+001  8.578644e-002 -1.172290e+001
      vertex -3.777818e+001 -5.000000e-001 -5.278174e+000
      vertex -3.233345e+001 -5.000000e-001 -1.072290e+001
    endloop
  endfacet
  facet normal  6.532819e-001  3.826825e-001  6.532817e-001
    outer loop
      vertex -3.877818e+001  8.578644e-002 -6.278174e+000
      vertex -3.374767e+001  1.500000e+000 -1.213711e+001
      vertex -3.919239e+001  1.500000e+000 -6.692388e+000
    endloop
  endfacet
  facet normal  6.532817e-001 -3.826827e-001  6.532816e-001
    outer loop
      vertex -3.919239e+001  1.500000e+000 -6.692388e+000
      vertex -3.374767e+001  1.500000e+000 -1.213711e+001
      vertex -3.333345e+001  2.914214e+000 -1.172290e+001
    endloop
  endfacet
  facet normal  6.532818e-001 -3.826824e-001  6.532817e-001
    outer loop
      vertex -3.919239e+001  1.500000e+000 -6.692388e+000
      vertex -3.333345e+001  2.914214e+000 -1.172290e+001
      vertex -3.877818e+001  2.914214e+000 -6.278174e+000
    endloop
  endfacet
  facet normal  2.705980e-001 -9.238796e-001  2.705980e-001
    outer loop
      vertex -3.877818e+001  2.914214e+000 -6.278174e+000
      vertex -3.333345e+001  2.914214e+000 -1.172290e+001
      vertex -3.233345e+001  3.500000e+000 -1.072290e+001
    endloop
  endfacet
  facet normal  2.705980e-001 -9.238796e-001  2.705980e-001
    outer loop
      vertex -3.877818e+001  2.914214e+000 -6.278174e+000
      vertex -3.233345e+001  3.500000e+000 -1.072290e+001
      vertex -3.777818e+001  3.500000e+000 -5.278174e+000
    endloop
  endfacet
  facet normal -6.532815e-001 -3.826831e-001 -6.532816e-001
    outer loop
      vertex -3.091924e+001  1.500000e+000 -9.308683e+000
      vertex -3.677818e+001  2.914214e+000 -4.278174e+000
      vertex -3.133345e+001  2.914214e+000 -9.722897e+000
    endloop
  endfacet
  facet normal -2.705980e-001 -9.238795e-001 -2.705981e-001
    outer loop
      vertex -3.133345e+001  2.914214e+000 -9.722897e+000
      vertex -3.677818e+001  2.914214e+000 -4.278174e+000
      vertex -3.777818e+001  3.500000e+000 -5.278174e+000
    endloop
  endfacet
  facet normal -2.705978e-001 -9.238797e-001 -2.705978e-001
    outer loop
      vertex -3.133345e+001  2.914214e+000 -9.722897e+000
      vertex -3.777818e+001  3.500000e+000 -5.278174e+000
      vertex -3.233345e+001  3.500000e+000 -1.072290e+001
    endloop
  endfacet
  facet normal -6.532814e-001 -3.826838e-001 -6.532813e-001
    outer loop
      vertex -3.677818e+001  2.914214e+000 -4.278174e+000
      vertex -3.091924e+001  1.500000e+000 -9.308683e+000
      vertex -3.636396e+001  1.500000e+000 -3.863961e+000
    endloop
  endfacet
  facet normal -6.532816e-001  3.826832e-001 -6.532815e-001
    outer loop
      vertex -3.636396e+001  1.500000e+000 -3.863961e+000
      vertex -3.091924e+001  1.500000e+000 -9.308683e+000
      vertex -3.133345e+001  8.578644e-002 -9.722897e+000
    endloop
  endfacet
  facet normal -6.532813e-001  3.826838e-001 -6.532814e-001
    outer loop
      vertex -3.636396e+001  1.500000e+000 -3.863961e+000
      vertex -3.133345e+001  8.578644e-002 -9.722897e+000
      vertex -3.677818e+001  8.578644e-002 -4.278174e+000
    endloop
  endfacet
  facet normal -2.705978e-001  9.238796e-001 -2.705978e-001
    outer loop
      vertex -3.677818e+001  8.578644e-002 -4.278174e+000
      vertex -3.133345e+001  8.578644e-002 -9.722897e+000
      vertex -3.233345e+001 -5.000000e-001 -1.072290e+001
    endloop
  endfacet
  facet normal -2.705981e-001  9.238795e-001 -2.705981e-001
    outer loop
      vertex -3.677818e+001  8.578644e-002 -4.278174e+000
      vertex -3.233345e+001 -5.000000e-001 -1.072290e+001
      vertex -3.777818e+001 -5.000000e-001 -5.278174e+000
    endloop
  endfacet
  facet normal -7.071068e-001  0.000000e+000  7.071068e-001
    outer loop
      vertex -3.133345e+001  2.914214e+000 -9.722897e+000
      vertex -3.133345e+001  8.578644e-002 -9.722897e+000
      vertex -3.091924e+001  1.500000e+000 -9.308683e+000
    endloop
  endfacet
  facet normal -7.071061e-001  0.000000e+000  7.071074e-001
    outer loop
      vertex -3.133345e+001  8.578644e-002 -9.722897e+000
      vertex -3.133345e+001  2.914214e+000 -9.722897e+000
      vertex -3.233345e+001 -5.000000e-001 -1.072290e+001
    endloop
  endfacet
  facet normal -7.071061e-001  0.000000e+000  7.071074e-001
    outer loop
      vertex -3.233345e+001 -5.000000e-001 -1.072290e+001
      vertex -3.133345e+001  2.914214e+000 -9.722897e+000
      vertex -3.233345e+001  3.500000e+000 -1.072290e+001
    endloop
  endfacet
  facet normal -7.071068e-001  0.000000e+000  7.071068e-001
    outer loop
      vertex -3.233345e+001 -5.000000e-001 -1.072290e+001
      vertex -3.233345e+001  3.500000e+000 -1.072290e+001
      vertex -3.333345e+001  8.578644e-002 -1.172290e+001
    endloop
  endfacet
  facet normal -7.071068e-001  0.000000e+000  7.071068e-001
    outer loop
      vertex -3.333345e+001  8.578644e-002 -1.172290e+001
      vertex -3.233345e+001  3.500000e+000 -1.072290e+001
      vertex -3.333345e+001  2.914214e+000 -1.172290e+001
    endloop
  endfacet
  facet normal -7.071092e-001  0.000000e+000  7.071043e-001
    outer loop
      vertex -3.333345e+001  8.578644e-002 -1.172290e+001
      vertex -3.333345e+001  2.914214e+000 -1.172290e+001
      vertex -3.374767e+001  1.500000e+000 -1.213711e+001
    endloop
  endfacet
  facet normal  7.071068e-001  0.000000e+000 -7.071068e-001
    outer loop
      vertex -2.890174e+001  2.427051e+000 -1.011961e+001
      vertex -2.890174e+001  5.729490e-001 -1.011961e+001
      vertex -2.967236e+001  3.927051e+000 -1.089023e+001
    endloop
  endfacet
  facet normal  7.071068e-001  0.000000e+000 -7.071068e-001
    outer loop
      vertex -2.967236e+001  3.927051e+000 -1.089023e+001
      vertex -2.890174e+001  5.729490e-001 -1.011961e+001
      vertex -2.967236e+001 -9.270510e-001 -1.089023e+001
    endloop
  endfacet
  facet normal  7.071068e-001  0.000000e+000 -7.071068e-001
    outer loop
      vertex -2.967236e+001  3.927051e+000 -1.089023e+001
      vertex -2.967236e+001 -9.270510e-001 -1.089023e+001
      vertex -3.091924e+001  4.500000e+000 -1.213711e+001
    endloop
  endfacet
  facet normal  7.071068e-001  0.000000e+000 -7.071068e-001
    outer loop
      vertex -3.091924e+001  4.500000e+000 -1.213711e+001
      vertex -2.967236e+001 -9.270510e-001 -1.089023e+001
      vertex -3.091924e+001 -1.500000e+000 -1.213711e+001
    endloop
  endfacet
  facet normal  7.071071e-001  0.000000e+000 -7.071065e-001
    outer loop
      vertex -3.091924e+001  4.500000e+000 -1.213711e+001
      vertex -3.091924e+001 -1.500000e+000 -1.213711e+001
      vertex -3.216612e+001  3.927051e+000 -1.338399e+001
    endloop
  endfacet
  facet normal  7.071071e-001  0.000000e+000 -7.071065e-001
    outer loop
      vertex -3.216612e+001  3.927051e+000 -1.338399e+001
      vertex -3.091924e+001 -1.500000e+000 -1.213711e+001
      vertex -3.216612e+001 -9.270510e-001 -1.338399e+001
    endloop
  endfacet
  facet normal  7.071068e-001  0.000000e+000 -7.071068e-001
    outer loop
      vertex -3.216612e+001  3.927051e+000 -1.338399e+001
      vertex -3.216612e+001 -9.270510e-001 -1.338399e+001
      vertex -3.293673e+001  2.427051e+000 -1.415461e+001
    endloop
  endfacet
  facet normal  7.071068e-001  0.000000e+000 -7.071068e-001
    outer loop
      vertex -3.293673e+001  2.427051e+000 -1.415461e+001
      vertex -3.216612e+001 -9.270510e-001 -1.338399e+001
      vertex -3.293673e+001  5.729490e-001 -1.415461e+001
    endloop
  endfacet
  facet normal  6.681061e-001 -2.587641e-001  6.976212e-001
    outer loop
      vertex -3.240553e+001  0.000000e+000 -6.976591e+000
      vertex -2.890174e+001  5.729490e-001 -1.011961e+001
      vertex -3.212132e+001  1.500000e+000 -6.692388e+000
    endloop
  endfacet
  facet normal  7.288417e-001  0.000000e+000  6.846823e-001
    outer loop
      vertex -2.890174e+001  5.729490e-001 -1.011961e+001
      vertex -2.890174e+001  2.427051e+000 -1.011961e+001
      vertex -3.212132e+001  1.500000e+000 -6.692388e+000
    endloop
  endfacet
  facet normal  6.681061e-001  2.587641e-001  6.976212e-001
    outer loop
      vertex -3.240553e+001  3.000000e+000 -6.976591e+000
      vertex -3.212132e+001  1.500000e+000 -6.692388e+000
      vertex -2.890174e+001  2.427051e+000 -1.011961e+001
    endloop
  endfacet
  facet normal  5.914515e-001  5.875591e-001  5.522313e-001
    outer loop
      vertex -3.240553e+001  3.000000e+000 -6.976591e+000
      vertex -2.890174e+001  2.427051e+000 -1.011961e+001
      vertex -2.967236e+001  3.927051e+000 -1.089023e+001
    endloop
  endfacet
  facet normal  5.066048e-001  6.898224e-001  5.172007e-001
    outer loop
      vertex -3.240553e+001  3.000000e+000 -6.976591e+000
      vertex -2.967236e+001  3.927051e+000 -1.089023e+001
      vertex -3.671751e+001  4.098076e+000 -4.217515e+000
    endloop
  endfacet
  facet normal  5.000004e-001  7.071062e-001  5.000004e-001
    outer loop
      vertex -3.240553e+001  3.000000e+000 -6.976591e+000
      vertex -3.671751e+001  4.098076e+000 -4.217515e+000
      vertex -3.594106e+001  3.000000e+000 -3.441057e+000
    endloop
  endfacet
  facet normal  5.914515e-001 -5.875591e-001  5.522313e-001
    outer loop
      vertex -2.967236e+001 -9.270510e-001 -1.089023e+001
      vertex -2.890174e+001  5.729490e-001 -1.011961e+001
      vertex -3.240553e+001  0.000000e+000 -6.976591e+000
    endloop
  endfacet
  facet normal  5.254833e-001 -6.691298e-001  5.254833e-001
    outer loop
      vertex -2.967236e+001 -9.270510e-001 -1.089023e+001
      vertex -3.240553e+001  0.000000e+000 -6.976591e+000
      vertex -3.594106e+001  0.000000e+000 -3.441057e+000
    endloop
  endfacet
  facet normal  4.952298e-001 -7.070903e-001  5.047482e-001
    outer loop
      vertex -2.967236e+001 -9.270510e-001 -1.089023e+001
      vertex -3.594106e+001  0.000000e+000 -3.441057e+000
      vertex -3.671751e+001 -1.098076e+000 -4.217515e+000
    endloop
  endfacet
  facet normal  1.900768e-001 -9.658775e-001  1.759301e-001
    outer loop
      vertex -2.967236e+001 -9.270510e-001 -1.089023e+001
      vertex -3.671751e+001 -1.098076e+000 -4.217515e+000
      vertex -3.777818e+001 -1.500000e+000 -5.278174e+000
    endloop
  endfacet
  facet normal  2.185079e-001 -9.510566e-001  2.185079e-001
    outer loop
      vertex -2.967236e+001 -9.270510e-001 -1.089023e+001
      vertex -3.777818e+001 -1.500000e+000 -5.278174e+000
      vertex -3.091924e+001 -1.500000e+000 -1.213711e+001
    endloop
  endfacet
  facet normal  2.185079e-001  9.510566e-001  2.185079e-001
    outer loop
      vertex -3.091924e+001  4.500000e+000 -1.213711e+001
      vertex -3.777818e+001  4.500000e+000 -5.278174e+000
      vertex -2.967236e+001  3.927051e+000 -1.089023e+001
    endloop
  endfacet
  facet normal  1.900768e-001  9.658776e-001  1.759301e-001
    outer loop
      vertex -2.967236e+001  3.927051e+000 -1.089023e+001
      vertex -3.777818e+001  4.500000e+000 -5.278174e+000
      vertex -3.671751e+001  4.098076e+000 -4.217515e+000
    endloop
  endfacet
  facet normal -6.963234e-001  0.000000e+000 -7.177282e-001
    outer loop
      vertex -3.293673e+001  2.427051e+000 -1.415461e+001
      vertex -3.293673e+001  5.729490e-001 -1.415461e+001
      vertex -3.989949e+001  1.500000e+000 -7.399495e+000
    endloop
  endfacet
  facet normal -4.871416e-001  7.360498e-001 -4.700252e-001
    outer loop
      vertex -3.961529e+001  3.000000e+000 -7.115292e+000
      vertex -3.868135e+001  4.214508e+000 -6.181349e+000
      vertex -3.216612e+001  3.927051e+000 -1.338399e+001
    endloop
  endfacet
  facet normal -5.625050e-001  5.877321e-001 -5.815145e-001
    outer loop
      vertex -3.961529e+001  3.000000e+000 -7.115292e+000
      vertex -3.216612e+001  3.927051e+000 -1.338399e+001
      vertex -3.293673e+001  2.427051e+000 -1.415461e+001
    endloop
  endfacet
  facet normal -6.901295e-001  2.588055e-001 -6.758263e-001
    outer loop
      vertex -3.961529e+001  3.000000e+000 -7.115292e+000
      vertex -3.293673e+001  2.427051e+000 -1.415461e+001
      vertex -3.989949e+001  1.500000e+000 -7.399495e+000
    endloop
  endfacet
  facet normal -6.901295e-001 -2.588056e-001 -6.758262e-001
    outer loop
      vertex -3.961529e+001 -1.110223e-015 -7.115292e+000
      vertex -3.989949e+001  1.500000e+000 -7.399495e+000
      vertex -3.293673e+001  5.729490e-001 -1.415461e+001
    endloop
  endfacet
  facet normal -5.625050e-001 -5.877321e-001 -5.815145e-001
    outer loop
      vertex -3.961529e+001 -1.110223e-015 -7.115292e+000
      vertex -3.293673e+001  5.729490e-001 -1.415461e+001
      vertex -3.216612e+001 -9.270510e-001 -1.338399e+001
    endloop
  endfacet
  facet normal -4.871417e-001 -7.360498e-001 -4.700252e-001
    outer loop
      vertex -3.961529e+001 -1.110223e-015 -7.115292e+000
      vertex -3.216612e+001 -9.270510e-001 -1.338399e+001
      vertex -3.868135e+001 -1.214508e+000 -6.181349e+000
    endloop
  endfacet
  facet normal -2.095115e-001  9.509798e-001 -2.274695e-001
    outer loop
      vertex -3.216612e+001  3.927051e+000 -1.338399e+001
      vertex -3.868135e+001  4.214508e+000 -6.181349e+000
      vertex -3.091924e+001  4.500000e+000 -1.213711e+001
    endloop
  endfacet
  facet normal -1.542434e-001  9.759191e-001 -1.542434e-001
    outer loop
      vertex -3.091924e+001  4.500000e+000 -1.213711e+001
      vertex -3.868135e+001  4.214508e+000 -6.181349e+000
      vertex -3.777818e+001  4.500000e+000 -5.278174e+000
    endloop
  endfacet
  facet normal -2.185081e-001 -9.510565e-001 -2.185081e-001
    outer loop
      vertex -3.091924e+001 -1.500000e+000 -1.213711e+001
      vertex -3.777818e+001 -1.500000e+000 -5.278174e+000
      vertex -3.216612e+001 -9.270510e-001 -1.338399e+001
    endloop
  endfacet
  facet normal -1.414994e-001 -9.757611e-001 -1.669374e-001
    outer loop
      vertex -3.216612e+001 -9.270510e-001 -1.338399e+001
      vertex -3.777818e+001 -1.500000e+000 -5.278174e+000
      vertex -3.868135e+001 -1.214508e+000 -6.181349e+000
    endloop
  endfacet
  facet normal  7.071066e-001  0.000000e+000 -7.071069e-001
    outer loop
      vertex -2.792893e+001  0.000000e+000 -2.500000e+000
      vertex -3.240553e+001  0.000000e+000 -6.976591e+000
      vertex -2.792893e+001  3.000000e+000 -2.500000e+000
    endloop
  endfacet
  facet normal  7.071071e-001 -1.610449e-006 -7.071064e-001
    outer loop
      vertex -2.792893e+001  3.000000e+000 -2.500000e+000
      vertex -3.240553e+001  0.000000e+000 -6.976591e+000
      vertex -3.212132e+001  1.500000e+000 -6.692388e+000
    endloop
  endfacet
  facet normal  7.071066e-001  1.518944e-006 -7.071069e-001
    outer loop
      vertex -2.792893e+001  3.000000e+000 -2.500000e+000
      vertex -3.212132e+001  1.500000e+000 -6.692388e+000
      vertex -3.240553e+001  3.000000e+000 -6.976591e+000
    endloop
  endfacet
  facet normal  0.000000e+000  1.000000e+000  0.000000e+000
    outer loop
      vertex -2.342312e+000  3.000000e+000  8.741629e+000
      vertex -2.326231e+000  3.000000e+000  9.725670e+000
      vertex -5.541527e-016  3.000000e+000  9.050000e+000
    endloop
  endfacet
  facet normal  -0.000000e+000  1.000000e+000  0.000000e+000
    outer loop
      vertex -1.539973e+000  3.000000e+000  5.747259e+000
      vertex -8.174685e+000  3.000000e+000  5.759733e+000
      vertex -2.716143e+000  3.000000e+000  5.902104e+000
    endloop
  endfacet
  facet normal  0.000000e+000  1.000000e+000  0.000000e+000
    outer loop
      vertex -9.682458e+000  3.000000e+000  2.500000e+000
      vertex -9.116001e-001  3.000000e+000  2.805617e+000
      vertex -2.386600e+000  3.000000e+000  1.733966e+000
    endloop
  endfacet
  facet normal  0.000000e+000  1.000000e+000  -0.000000e+000
    outer loop
      vertex -2.792893e+001  3.000000e+000 -2.500000e+000
      vertex -3.240553e+001  3.000000e+000 -6.976591e+000
      vertex -3.594106e+001  3.000000e+000 -3.441057e+000
    endloop
  endfacet
  facet normal  0.000000e+000  1.000000e+000  0.000000e+000
    outer loop
      vertex -2.792893e+001  3.000000e+000 -2.500000e+000
      vertex -3.594106e+001  3.000000e+000 -3.441057e+000
      vertex -3.000000e+001  3.000000e+000  2.500000e+000
    endloop
  endfacet
  facet normal  -0.000000e+000  1.000000e+000  0.000000e+000
    outer loop
      vertex -2.792893e+001  3.000000e+000 -2.500000e+000
      vertex -3.000000e+001  3.000000e+000  2.500000e+000
      vertex -9.682458e+000  3.000000e+000  2.500000e+000
    endloop
  endfacet
  facet normal  0.000000e+000  1.000000e+000  0.000000e+000
    outer loop
      vertex -2.792893e+001  3.000000e+000 -2.500000e+000
      vertex -9.682458e+000  3.000000e+000  2.500000e+000
      vertex -2.386600e+000  3.000000e+000  1.733966e+000
    endloop
  endfacet
  facet normal  0.000000e+000  1.000000e+000  0.000000e+000
    outer loop
      vertex -2.792893e+001  3.000000e+000 -2.500000e+000
      vertex -2.386600e+000  3.000000e+000  1.733966e+000
      vertex -2.950000e+000  3.000000e+000  0.000000e+000
    endloop
  endfacet
  facet normal  0.000000e+000  1.000000e+000  0.000000e+000
    outer loop
      vertex -2.792893e+001  3.000000e+000 -2.500000e+000
      vertex -2.950000e+000  3.000000e+000  0.000000e+000
      vertex -2.386600e+000  3.000000e+000 -1.733966e+000
    endloop
  endfacet
  facet normal  0.000000e+000  9.999999e-001  0.000000e+000
    outer loop
      vertex -9.682458e+000  3.000000e+000 -2.500000e+000
      vertex -2.792893e+001  3.000000e+000 -2.500000e+000
      vertex -2.386600e+000  3.000000e+000 -1.733966e+000
    endloop
  endfacet
  facet normal  0.000000e+000  1.000000e+000  0.000000e+000
    outer loop
      vertex -9.682458e+000  3.000000e+000 -2.500000e+000
      vertex -2.386600e+000  3.000000e+000 -1.733966e+000
      vertex -9.116001e-001  3.000000e+000 -2.805617e+000
    endloop
  endfacet
  facet normal  0.000000e+000  1.000000e+000  0.000000e+000
    outer loop
      vertex -9.682458e+000  3.000000e+000 -2.500000e+000
      vertex -9.116001e-001  3.000000e+000 -2.805617e+000
      vertex -8.174685e+000  3.000000e+000 -5.759733e+000
    endloop
  endfacet
  facet normal  0.000000e+000  1.000000e+000  0.000000e+000
    outer loop
      vertex  7.503347e+000  3.000000e+000  6.610581e+000
      vertex  9.355038e+000  3.000000e+000  3.533166e+000
      vertex  2.716143e+000  3.000000e+000  5.902104e+000
    endloop
  endfacet
  facet normal  0.000000e+000  9.999999e-001  0.000000e+000
    outer loop
      vertex  7.503347e+000  3.000000e+000  6.610581e+000
      vertex  2.716143e+000  3.000000e+000  5.902104e+000
      vertex  3.438328e+000  3.000000e+000  6.843274e+000
    endloop
  endfacet
  facet normal  -0.000000e+000  1.000000e+000  -0.000000e+000
    outer loop
      vertex  7.503347e+000  3.000000e+000  6.610581e+000
      vertex  3.438328e+000  3.000000e+000  6.843274e+000
      vertex  3.283482e+000  3.000000e+000  8.019444e+000
    endloop
  endfacet
  facet normal  -0.000000e+000  1.000000e+000  -0.000000e+000
    outer loop
      vertex  7.503347e+000  3.000000e+000  6.610581e+000
      vertex  3.283482e+000  3.000000e+000  8.019444e+000
      vertex  2.342312e+000  3.000000e+000  8.741629e+000
    endloop
  endfacet
  facet normal  -0.000000e+000  1.000000e+000  0.000000e+000
    outer loop
      vertex  7.503347e+000  3.000000e+000  6.610581e+000
      vertex  2.342312e+000  3.000000e+000  8.741629e+000
      vertex  4.683781e+000  3.000000e+000  8.835281e+000
    endloop
  endfacet
  facet normal  -0.000000e+000  1.000000e+000  0.000000e+000
    outer loop
      vertex  9.355038e+000  3.000000e+000 -3.533166e+000
      vertex  9.116001e-001  3.000000e+000 -2.805617e+000
      vertex  2.386600e+000  3.000000e+000 -1.733966e+000
    endloop
  endfacet
  facet normal  -0.000000e+000  1.000000e+000  0.000000e+000
    outer loop
      vertex  9.355038e+000  3.000000e+000 -3.533166e+000
      vertex  2.386600e+000  3.000000e+000 -1.733966e+000
      vertex  2.950000e+000  3.000000e+000  3.612708e-016
    endloop
  endfacet
  facet normal  -0.000000e+000  1.000000e+000  0.000000e+000
    outer loop
      vertex  9.355038e+000  3.000000e+000 -3.533166e+000
      vertex  2.950000e+000  3.000000e+000  3.612708e-016
      vertex  1.000000e+001  3.000000e+000  1.224647e-015
    endloop
  endfacet
  facet normal  0.000000e+000  1.000000e+000  0.000000e+000
    outer loop
      vertex -5.612439e+000  3.000000e+000 -8.276505e+000
      vertex -8.174685e+000  3.000000e+000 -5.759733e+000
      vertex -2.326231e+000  3.000000e+000 -9.725670e+000
    endloop
  endfacet
  facet normal  0.000000e+000  1.000000e+000  -0.000000e+000
    outer loop
      vertex -2.326231e+000  3.000000e+000 -9.725670e+000
      vertex -8.174685e+000  3.000000e+000 -5.759733e+000
      vertex -9.116001e-001  3.000000e+000 -2.805617e+000
    endloop
  endfacet
  facet normal  0.000000e+000  1.000000e+000  0.000000e+000
    outer loop
      vertex -2.326231e+000  3.000000e+000 -9.725670e+000
      vertex -9.116001e-001  3.000000e+000 -2.805617e+000
      vertex  1.260043e+000  3.000000e+000 -9.920297e+000
    endloop
  endfacet
  facet normal  0.000000e+000  1.000000e+000  0.000000e+000
    outer loop
      vertex  1.260043e+000  3.000000e+000 -9.920297e+000
      vertex -9.116001e-001  3.000000e+000 -2.805617e+000
      vertex  9.116001e-001  3.000000e+000 -2.805617e+000
    endloop
  endfacet
  facet normal  0.000000e+000  1.000000e+000  0.000000e+000
    outer loop
      vertex  1.260043e+000  3.000000e+000 -9.920297e+000
      vertex  9.116001e-001  3.000000e+000 -2.805617e+000
      vertex  4.683781e+000  3.000000e+000 -8.835281e+000
    endloop
  endfacet
  facet normal  0.000000e+000  1.000000e+000  -0.000000e+000
    outer loop
      vertex  4.683781e+000  3.000000e+000 -8.835281e+000
      vertex  9.116001e-001  3.000000e+000 -2.805617e+000
      vertex  9.355038e+000  3.000000e+000 -3.533166e+000
    endloop
  endfacet
  facet normal  0.000000e+000  1.000000e+000  0.000000e+000
    outer loop
      vertex  4.683781e+000  3.000000e+000 -8.835281e+000
      vertex  9.355038e+000  3.000000e+000 -3.533166e+000
      vertex  7.503347e+000  3.000000e+000 -6.610581e+000
    endloop
  endfacet
  facet normal  0.000000e+000  1.000000e+000  0.000000e+000
    outer loop
      vertex -9.682458e+000  3.000000e+000  2.500000e+000
      vertex -8.174685e+000  3.000000e+000  5.759733e+000
      vertex -9.116001e-001  3.000000e+000  2.805617e+000
    endloop
  endfacet
  facet normal  0.000000e+000  1.000000e+000  0.000000e+000
    outer loop
      vertex -9.116001e-001  3.000000e+000  2.805617e+000
      vertex -8.174685e+000  3.000000e+000  5.759733e+000
      vertex -1.539973e+000  3.000000e+000  5.747259e+000
    endloop
  endfacet
  facet normal  0.000000e+000  1.000000e+000  0.000000e+000
    outer loop
      vertex -9.116001e-001  3.000000e+000  2.805617e+000
      vertex -1.539973e+000  3.000000e+000  5.747259e+000
      vertex  9.116001e-001  3.000000e+000  2.805617e+000
    endloop
  endfacet
  facet normal  0.000000e+000  1.000000e+000  0.000000e+000
    outer loop
      vertex  9.116001e-001  3.000000e+000  2.805617e+000
      vertex -1.539973e+000  3.000000e+000  5.747259e+000
      vertex -1.685498e-015  3.000000e+000  5.950000e+000
    endloop
  endfacet
  facet normal  0.000000e+000  1.000000e+000  0.000000e+000
    outer loop
      vertex  9.116001e-001  3.000000e+000  2.805617e+000
      vertex -1.685498e-015  3.000000e+000  5.950000e+000
      vertex  9.355038e+000  3.000000e+000  3.533166e+000
    endloop
  endfacet
  facet normal  0.000000e+000  1.000000e+000  0.000000e+000
    outer loop
      vertex  9.355038e+000  3.000000e+000  3.533166e+000
      vertex -1.685498e-015  3.000000e+000  5.950000e+000
      vertex  1.539973e+000  3.000000e+000  5.747259e+000
    endloop
  endfacet
  facet normal  -0.000000e+000  1.000000e+000  0.000000e+000
    outer loop
      vertex  9.355038e+000  3.000000e+000  3.533166e+000
      vertex  1.539973e+000  3.000000e+000  5.747259e+000
      vertex  2.716143e+000  3.000000e+000  5.902104e+000
    endloop
  endfacet
  facet normal  0.000000e+000  1.000000e+000  0.000000e+000
    outer loop
      vertex -2.326231e+000  3.000000e+000  9.725670e+000
      vertex  1.260043e+000  3.000000e+000  9.920297e+000
      vertex -5.541527e-016  3.000000e+000  9.050000e+000
    endloop
  endfacet
  facet normal  -0.000000e+000  1.000000e+000  0.000000e+000
    outer loop
      vertex -5.541527e-016  3.000000e+000  9.050000e+000
      vertex  1.260043e+000  3.000000e+000  9.920297e+000
      vertex  4.683781e+000  3.000000e+000  8.835281e+000
    endloop
  endfacet
  facet normal  0.000000e+000  1.000000e+000  0.000000e+000
    outer loop
      vertex -5.541527e-016  3.000000e+000  9.050000e+000
      vertex  4.683781e+000  3.000000e+000  8.835281e+000
      vertex  2.342312e+000  3.000000e+000  8.741629e+000
    endloop
  endfacet
  facet normal  0.000000e+000  1.000000e+000  0.000000e+000
    outer loop
      vertex  9.116001e-001  3.000000e+000  2.805617e+000
      vertex  9.355038e+000  3.000000e+000  3.533166e+000
      vertex  2.386600e+000  3.000000e+000  1.733966e+000
    endloop
  endfacet
  facet normal  -0.000000e+000  1.000000e+000  0.000000e+000
    outer loop
      vertex  2.386600e+000  3.000000e+000  1.733966e+000
      vertex  9.355038e+000  3.000000e+000  3.533166e+000
      vertex  1.000000e+001  3.000000e+000  1.224647e-015
    endloop
  endfacet
  facet normal  0.000000e+000  1.000000e+000  0.000000e+000
    outer loop
      vertex  2.386600e+000  3.000000e+000  1.733966e+000
      vertex  1.000000e+001  3.000000e+000  1.224647e-015
      vertex  2.950000e+000  3.000000e+000  3.612708e-016
    endloop
  endfacet
  facet normal  0.000000e+000  1.000000e+000  -0.000000e+000
    outer loop
      vertex -2.326231e+000  3.000000e+000  9.725670e+000
      vertex -2.342312e+000  3.000000e+000  8.741629e+000
      vertex -5.612439e+000  3.000000e+000  8.276505e+000
    endloop
  endfacet
  facet normal  -0.000000e+000  1.000000e+000  0.000000e+000
    outer loop
      vertex -5.612439e+000  3.000000e+000  8.276505e+000
      vertex -2.342312e+000  3.000000e+000  8.741629e+000
      vertex -3.283482e+000  3.000000e+000  8.019444e+000
    endloop
  endfacet
  facet normal  0.000000e+000  1.000000e+000  0.000000e+000
    outer loop
      vertex -5.612439e+000  3.000000e+000  8.276505e+000
      vertex -3.283482e+000  3.000000e+000  8.019444e+000
      vertex -8.174685e+000  3.000000e+000  5.759733e+000
    endloop
  endfacet
  facet normal  0.000000e+000  1.000000e+000  0.000000e+000
    outer loop
      vertex -8.174685e+000  3.000000e+000  5.759733e+000
      vertex -3.283482e+000  3.000000e+000  8.019444e+000
      vertex -3.438328e+000  3.000000e+000  6.843274e+000
    endloop
  endfacet
  facet normal  0.000000e+000  1.000000e+000  0.000000e+000
    outer loop
      vertex -8.174685e+000  3.000000e+000  5.759733e+000
      vertex -3.438328e+000  3.000000e+000  6.843274e+000
      vertex -2.716143e+000  3.000000e+000  5.902104e+000
    endloop
  endfacet
  facet normal  0.000000e+000 -1.000000e+000  -0.000000e+000
    outer loop
      vertex -5.541527e-016  0.000000e+000  9.050000e+000
      vertex -2.326231e+000  0.000000e+000  9.725670e+000
      vertex -2.342312e+000  0.000000e+000  8.741629e+000
    endloop
  endfacet
  facet normal  0.000000e+000 -1.000000e+000  0.000000e+000
    outer loop
      vertex -2.716143e+000  0.000000e+000  5.902104e+000
      vertex -8.174685e+000  0.000000e+000  5.759733e+000
      vertex -1.539973e+000  0.000000e+000  5.747259e+000
    endloop
  endfacet
  facet normal  0.000000e+000 -1.000000e+000  0.000000e+000
    outer loop
      vertex -2.386600e+000  0.000000e+000  1.733966e+000
      vertex -9.116001e-001  0.000000e+000  2.805617e+000
      vertex -9.682458e+000  0.000000e+000  2.500000e+000
    endloop
  endfacet
  facet normal  -0.000000e+000 -1.000000e+000  0.000000e+000
    outer loop
      vertex -2.792893e+001  0.000000e+000 -2.500000e+000
      vertex -2.386600e+000  0.000000e+000 -1.733966e+000
      vertex -2.950000e+000  0.000000e+000  1.671334e-015
    endloop
  endfacet
  facet normal  -0.000000e+000 -1.000000e+000  0.000000e+000
    outer loop
      vertex -2.792893e+001  0.000000e+000 -2.500000e+000
      vertex -2.950000e+000  0.000000e+000  1.671334e-015
      vertex -2.386600e+000  0.000000e+000  1.733966e+000
    endloop
  endfacet
  facet normal  -0.000000e+000 -1.000000e+000  0.000000e+000
    outer loop
      vertex -2.792893e+001  0.000000e+000 -2.500000e+000
      vertex -2.386600e+000  0.000000e+000  1.733966e+000
      vertex -9.682458e+000  0.000000e+000  2.500000e+000
    endloop
  endfacet
  facet normal  -0.000000e+000 -1.000000e+000  0.000000e+000
    outer loop
      vertex -2.792893e+001  0.000000e+000 -2.500000e+000
      vertex -9.682458e+000  0.000000e+000  2.500000e+000
      vertex -3.000000e+001  0.000000e+000  2.500000e+000
    endloop
  endfacet
  facet normal  0.000000e+000 -1.000000e+000  -0.000000e+000
    outer loop
      vertex -2.792893e+001  0.000000e+000 -2.500000e+000
      vertex -3.000000e+001  0.000000e+000  2.500000e+000
      vertex -3.594106e+001  0.000000e+000 -3.441057e+000
    endloop
  endfacet
  facet normal  0.000000e+000 -1.000000e+000  0.000000e+000
    outer loop
      vertex -2.792893e+001  0.000000e+000 -2.500000e+000
      vertex -3.594106e+001  0.000000e+000 -3.441057e+000
      vertex -3.240553e+001  0.000000e+000 -6.976591e+000
    endloop
  endfacet
  facet normal  0.000000e+000 -1.000000e+000  0.000000e+000
    outer loop
      vertex -9.682458e+000  0.000000e+000 -2.500000e+000
      vertex -8.174685e+000  0.000000e+000 -5.759733e+000
      vertex -9.116001e-001  0.000000e+000 -2.805617e+000
    endloop
  endfacet
  facet normal  0.000000e+000 -1.000000e+000  0.000000e+000
    outer loop
      vertex -9.682458e+000  0.000000e+000 -2.500000e+000
      vertex -9.116001e-001  0.000000e+000 -2.805617e+000
      vertex -2.386600e+000  0.000000e+000 -1.733966e+000
    endloop
  endfacet
  facet normal  0.000000e+000 -1.000000e+000  0.000000e+000
    outer loop
      vertex -9.682458e+000  0.000000e+000 -2.500000e+000
      vertex -2.386600e+000  0.000000e+000 -1.733966e+000
      vertex -2.792893e+001  0.000000e+000 -2.500000e+000
    endloop
  endfacet
  facet normal  0.000000e+000 -1.000000e+000  -0.000000e+000
    outer loop
      vertex  7.503347e+000  0.000000e+000  6.610581e+000
      vertex  4.683781e+000  0.000000e+000  8.835281e+000
      vertex  2.342312e+000  0.000000e+000  8.741629e+000
    endloop
  endfacet
  facet normal  0.000000e+000 -1.000000e+000  0.000000e+000
    outer loop
      vertex  7.503347e+000  0.000000e+000  6.610581e+000
      vertex  2.342312e+000  0.000000e+000  8.741629e+000
      vertex  3.283482e+000  0.000000e+000  8.019444e+000
    endloop
  endfacet
  facet normal  0.000000e+000 -1.000000e+000  0.000000e+000
    outer loop
      vertex  7.503347e+000  0.000000e+000  6.610581e+000
      vertex  3.283482e+000  0.000000e+000  8.019444e+000
      vertex  3.438328e+000  0.000000e+000  6.843274e+000
    endloop
  endfacet
  facet normal  0.000000e+000 -1.000000e+000  -0.000000e+000
    outer loop
      vertex  7.503347e+000  0.000000e+000  6.610581e+000
      vertex  3.438328e+000  0.000000e+000  6.843274e+000
      vertex  2.716143e+000  0.000000e+000  5.902104e+000
    endloop
  endfacet
  facet normal  0.000000e+000 -1.000000e+000  0.000000e+000
    outer loop
      vertex  7.503347e+000  0.000000e+000  6.610581e+000
      vertex  2.716143e+000  0.000000e+000  5.902104e+000
      vertex  9.355038e+000  0.000000e+000  3.533166e+000
    endloop
  endfacet
  facet normal  0.000000e+000 -1.000000e+000  0.000000e+000
    outer loop
      vertex  9.355038e+000  0.000000e+000 -3.533166e+000
      vertex  1.000000e+001  0.000000e+000  1.224647e-015
      vertex  2.950000e+000  0.000000e+000  0.000000e+000
    endloop
  endfacet
  facet normal  0.000000e+000 -1.000000e+000  -0.000000e+000
    outer loop
      vertex  9.355038e+000  0.000000e+000 -3.533166e+000
      vertex  2.950000e+000  0.000000e+000  0.000000e+000
      vertex  2.386600e+000  0.000000e+000 -1.733966e+000
    endloop
  endfacet
  facet normal  0.000000e+000 -1.000000e+000  -0.000000e+000
    outer loop
      vertex  9.355038e+000  0.000000e+000 -3.533166e+000
      vertex  2.386600e+000  0.000000e+000 -1.733966e+000
      vertex  9.116001e-001  0.000000e+000 -2.805617e+000
    endloop
  endfacet
  facet normal  0.000000e+000 -1.000000e+000  0.000000e+000
    outer loop
      vertex  7.503347e+000  0.000000e+000 -6.610581e+000
      vertex  9.355038e+000  0.000000e+000 -3.533166e+000
      vertex  4.683781e+000  0.000000e+000 -8.835281e+000
    endloop
  endfacet
  facet normal  0.000000e+000 -1.000000e+000  0.000000e+000
    outer loop
      vertex  4.683781e+000  0.000000e+000 -8.835281e+000
      vertex  9.355038e+000  0.000000e+000 -3.533166e+000
      vertex  9.116001e-001  0.000000e+000 -2.805617e+000
    endloop
  endfacet
  facet normal  0.000000e+000 -1.000000e+000  0.000000e+000
    outer loop
      vertex  4.683781e+000  0.000000e+000 -8.835281e+000
      vertex  9.116001e-001  0.000000e+000 -2.805617e+000
      vertex  1.260043e+000  0.000000e+000 -9.920297e+000
    endloop
  endfacet
  facet normal  0.000000e+000 -1.000000e+000  0.000000e+000
    outer loop
      vertex  1.260043e+000  0.000000e+000 -9.920297e+000
      vertex  9.116001e-001  0.000000e+000 -2.805617e+000
      vertex -9.116001e-001  0.000000e+000 -2.805617e+000
    endloop
  endfacet
  facet normal  0.000000e+000 -1.000000e+000  -0.000000e+000
    outer loop
      vertex  1.260043e+000  0.000000e+000 -9.920297e+000
      vertex -9.116001e-001  0.000000e+000 -2.805617e+000
      vertex -2.326231e+000  0.000000e+000 -9.725670e+000
    endloop
  endfacet
  facet normal  0.000000e+000 -1.000000e+000  0.000000e+000
    outer loop
      vertex -2.326231e+000  0.000000e+000 -9.725670e+000
      vertex -9.116001e-001  0.000000e+000 -2.805617e+000
      vertex -8.174685e+000  0.000000e+000 -5.759733e+000
    endloop
  endfacet
  facet normal  0.000000e+000 -1.000000e+000  0.000000e+000
    outer loop
      vertex -2.326231e+000  0.000000e+000 -9.725670e+000
      vertex -8.174685e+000  0.000000e+000 -5.759733e+000
      vertex -5.612439e+000  0.000000e+000 -8.276505e+000
    endloop
  endfacet
  facet normal  0.000000e+000 -1.000000e+000  0.000000e+000
    outer loop
      vertex  2.716143e+000  0.000000e+000  5.902104e+000
      vertex  1.539973e+000  0.000000e+000  5.747259e+000
      vertex  9.355038e+000  0.000000e+000  3.533166e+000
    endloop
  endfacet
  facet normal  0.000000e+000 -1.000000e+000  0.000000e+000
    outer loop
      vertex  9.355038e+000  0.000000e+000  3.533166e+000
      vertex  1.539973e+000  0.000000e+000  5.747259e+000
      vertex -1.685498e-015  0.000000e+000  5.950000e+000
    endloop
  endfacet
  facet normal  0.000000e+000 -1.000000e+000  0.000000e+000
    outer loop
      vertex  9.355038e+000  0.000000e+000  3.533166e+000
      vertex -1.685498e-015  0.000000e+000  5.950000e+000
      vertex  9.116001e-001  0.000000e+000  2.805617e+000
    endloop
  endfacet
  facet normal  0.000000e+000 -1.000000e+000  0.000000e+000
    outer loop
      vertex  9.116001e-001  0.000000e+000  2.805617e+000
      vertex -1.685498e-015  0.000000e+000  5.950000e+000
      vertex -1.539973e+000  0.000000e+000  5.747259e+000
    endloop
  endfacet
  facet normal  0.000000e+000 -1.000000e+000  0.000000e+000
    outer loop
      vertex  9.116001e-001  0.000000e+000  2.805617e+000
      vertex -1.539973e+000  0.000000e+000  5.747259e+000
      vertex -9.116001e-001  0.000000e+000  2.805617e+000
    endloop
  endfacet
  facet normal  0.000000e+000 -1.000000e+000  0.000000e+000
    outer loop
      vertex -9.116001e-001  0.000000e+000  2.805617e+000
      vertex -1.539973e+000  0.000000e+000  5.747259e+000
      vertex -8.174685e+000  0.000000e+000  5.759733e+000
    endloop
  endfacet
  facet normal  0.000000e+000 -1.000000e+000  -0.000000e+000
    outer loop
      vertex -9.116001e-001  0.000000e+000  2.805617e+000
      vertex -8.174685e+000  0.000000e+000  5.759733e+000
      vertex -9.682458e+000  0.000000e+000  2.500000e+000
    endloop
  endfacet
  facet normal  -0.000000e+000 -1.000000e+000  0.000000e+000
    outer loop
      vertex  2.342312e+000  0.000000e+000  8.741629e+000
      vertex  4.683781e+000  0.000000e+000  8.835281e+000
      vertex -5.541527e-016  0.000000e+000  9.050000e+000
    endloop
  endfacet
  facet normal  0.000000e+000 -1.000000e+000  0.000000e+000
    outer loop
      vertex -5.541527e-016  0.000000e+000  9.050000e+000
      vertex  4.683781e+000  0.000000e+000  8.835281e+000
      vertex  1.260043e+000  0.000000e+000  9.920297e+000
    endloop
  endfacet
  facet normal  0.000000e+000 -1.000000e+000  0.000000e+000
    outer loop
      vertex -5.541527e-016  0.000000e+000  9.050000e+000
      vertex  1.260043e+000  0.000000e+000  9.920297e+000
      vertex -2.326231e+000  0.000000e+000  9.725670e+000
    endloop
  endfacet
  facet normal  -0.000000e+000 -1.000000e+000  0.000000e+000
    outer loop
      vertex  2.950000e+000  0.000000e+000  0.000000e+000
      vertex  1.000000e+001  0.000000e+000  1.224647e-015
      vertex  2.386600e+000  0.000000e+000  1.733966e+000
    endloop
  endfacet
  facet normal  0.000000e+000 -1.000000e+000  0.000000e+000
    outer loop
      vertex  2.386600e+000  0.000000e+000  1.733966e+000
      vertex  1.000000e+001  0.000000e+000  1.224647e-015
      vertex  9.355038e+000  0.000000e+000  3.533166e+000
    endloop
  endfacet
  facet normal  0.000000e+000 -1.000000e+000  0.000000e+000
    outer loop
      vertex  2.386600e+000  0.000000e+000  1.733966e+000
      vertex  9.355038e+000  0.000000e+000  3.533166e+000
      vertex  9.116001e-001  0.000000e+000  2.805617e+000
    endloop
  endfacet
  facet normal  0.000000e+000 -1.000000e+000  -0.000000e+000
    outer loop
      vertex -2.716143e+000  0.000000e+000  5.902104e+000
      vertex -3.438328e+000  0.000000e+000  6.843274e+000
      vertex -8.174685e+000  0.000000e+000  5.759733e+000
    endloop
  endfacet
  facet normal  0.000000e+000 -1.000000e+000  0.000000e+000
    outer loop
      vertex -8.174685e+000  0.000000e+000  5.759733e+000
      vertex -3.438328e+000  0.000000e+000  6.843274e+000
      vertex -3.283482e+000  0.000000e+000  8.019444e+000
    endloop
  endfacet
  facet normal  -0.000000e+000 -1.000000e+000  0.000000e+000
    outer loop
      vertex -8.174685e+000  0.000000e+000  5.759733e+000
      vertex -3.283482e+000  0.000000e+000  8.019444e+000
      vertex -5.612439e+000  0.000000e+000  8.276505e+000
    endloop
  endfacet
  facet normal  0.000000e+000 -1.000000e+000  0.000000e+000
    outer loop
      vertex -5.612439e+000  0.000000e+000  8.276505e+000
      vertex -3.283482e+000  0.000000e+000  8.019444e+000
      vertex -2.342312e+000  0.000000e+000  8.741629e+000
    endloop
  endfacet
  facet normal  -0.000000e+000 -1.000000e+000  0.000000e+000
    outer loop
      vertex -5.612439e+000  0.000000e+000  8.276505e+000
      vertex -2.342312e+000  0.000000e+000  8.741629e+000
      vertex -2.326231e+000  0.000000e+000  9.725670e+000
    endloop
  endfacet
  facet normal -9.510565e-001 -2.024160e-016  3.090171e-001
    outer loop
      vertex -2.950000e+000  0.000000e+000  1.671334e-015
      vertex -2.950000e+000 -2.000000e+000  3.612708e-016
      vertex -2.386600e+000  0.000000e+000  1.733966e+000
    endloop
  endfacet
  facet normal -9.510565e-001  0.000000e+000  3.090171e-001
    outer loop
      vertex -2.386600e+000  0.000000e+000  1.733966e+000
      vertex -2.950000e+000 -2.000000e+000  3.612708e-016
      vertex -2.386600e+000 -2.000000e+000  1.733966e+000
    endloop
  endfacet
  facet normal -5.877853e-001  0.000000e+000  8.090171e-001
    outer loop
      vertex -2.386600e+000  0.000000e+000  1.733966e+000
      vertex -2.386600e+000 -2.000000e+000  1.733966e+000
      vertex -9.116001e-001  0.000000e+000  2.805617e+000
    endloop
  endfacet
  facet normal -5.877853e-001  0.000000e+000  8.090171e-001
    outer loop
      vertex -9.116001e-001  0.000000e+000  2.805617e+000
      vertex -2.386600e+000 -2.000000e+000  1.733966e+000
      vertex -9.116001e-001 -2.000000e+000  2.805617e+000
    endloop
  endfacet
  facet normal  0.000000e+000  0.000000e+000  1.000000e+000
    outer loop
      vertex -9.116001e-001  0.000000e+000  2.805617e+000
      vertex -9.116001e-001 -2.000000e+000  2.805617e+000
      vertex  9.116001e-001  0.000000e+000  2.805617e+000
    endloop
  endfacet
  facet normal  0.000000e+000  0.000000e+000  1.000000e+000
    outer loop
      vertex  9.116001e-001  0.000000e+000  2.805617e+000
      vertex -9.116001e-001 -2.000000e+000  2.805617e+000
      vertex  9.116001e-001 -2.000000e+000  2.805617e+000
    endloop
  endfacet
  facet normal  5.877853e-001  -0.000000e+000  8.090171e-001
    outer loop
      vertex  9.116001e-001  0.000000e+000  2.805617e+000
      vertex  9.116001e-001 -2.000000e+000  2.805617e+000
      vertex  2.386600e+000  0.000000e+000  1.733966e+000
    endloop
  endfacet
  facet normal  5.877853e-001  0.000000e+000  8.090171e-001
    outer loop
      vertex  2.386600e+000  0.000000e+000  1.733966e+000
      vertex  9.116001e-001 -2.000000e+000  2.805617e+000
      vertex  2.386600e+000 -2.000000e+000  1.733966e+000
    endloop
  endfacet
  facet normal  9.510565e-001  -0.000000e+000  3.090171e-001
    outer loop
      vertex  2.386600e+000  0.000000e+000  1.733966e+000
      vertex  2.386600e+000 -2.000000e+000  1.733966e+000
      vertex  2.950000e+000  0.000000e+000  0.000000e+000
    endloop
  endfacet
  facet normal  9.510565e-001  0.000000e+000  3.090171e-001
    outer loop
      vertex  2.950000e+000  0.000000e+000  0.000000e+000
      vertex  2.386600e+000 -2.000000e+000  1.733966e+000
      vertex  2.950000e+000 -2.000000e+000  0.000000e+000
    endloop
  endfacet
  facet normal  9.510565e-001  0.000000e+000 -3.090171e-001
    outer loop
      vertex  2.950000e+000  0.000000e+000  0.000000e+000
      vertex  2.950000e+000 -2.000000e+000  0.000000e+000
      vertex  2.386600e+000  0.000000e+000 -1.733966e+000
    endloop
  endfacet
  facet normal  9.510565e-001  0.000000e+000 -3.090171e-001
    outer loop
      vertex  2.386600e+000  0.000000e+000 -1.733966e+000
      vertex  2.950000e+000 -2.000000e+000  0.000000e+000
      vertex  2.386600e+000 -2.000000e+000 -1.733966e+000
    endloop
  endfacet
  facet normal  5.877853e-001  0.000000e+000 -8.090171e-001
    outer loop
      vertex  2.386600e+000  0.000000e+000 -1.733966e+000
      vertex  2.386600e+000 -2.000000e+000 -1.733966e+000
      vertex  9.116001e-001  0.000000e+000 -2.805617e+000
    endloop
  endfacet
  facet normal  5.877853e-001  0.000000e+000 -8.090171e-001
    outer loop
      vertex  9.116001e-001  0.000000e+000 -2.805617e+000
      vertex  2.386600e+000 -2.000000e+000 -1.733966e+000
      vertex  9.116001e-001 -2.000000e+000 -2.805617e+000
    endloop
  endfacet
  facet normal  0.000000e+000  0.000000e+000 -1.000000e+000
    outer loop
      vertex  9.116001e-001  0.000000e+000 -2.805617e+000
      vertex  9.116001e-001 -2.000000e+000 -2.805617e+000
      vertex -9.116001e-001  0.000000e+000 -2.805617e+000
    endloop
  endfacet
  facet normal  0.000000e+000  0.000000e+000 -1.000000e+000
    outer loop
      vertex -9.116001e-001  0.000000e+000 -2.805617e+000
      vertex  9.116001e-001 -2.000000e+000 -2.805617e+000
      vertex -9.116001e-001 -2.000000e+000 -2.805617e+000
    endloop
  endfacet
  facet normal -5.877853e-001  0.000000e+000 -8.090171e-001
    outer loop
      vertex -9.116001e-001  0.000000e+000 -2.805617e+000
      vertex -9.116001e-001 -2.000000e+000 -2.805617e+000
      vertex -2.386600e+000  0.000000e+000 -1.733966e+000
    endloop
  endfacet
  facet normal -5.877853e-001  -0.000000e+000 -8.090171e-001
    outer loop
      vertex -2.386600e+000  0.000000e+000 -1.733966e+000
      vertex -9.116001e-001 -2.000000e+000 -2.805617e+000
      vertex -2.386600e+000 -2.000000e+000 -1.733966e+000
    endloop
  endfacet
  facet normal -9.510565e-001  0.000000e+000 -3.090171e-001
    outer loop
      vertex -2.386600e+000  0.000000e+000 -1.733966e+000
      vertex -2.386600e+000 -2.000000e+000 -1.733966e+000
      vertex -2.950000e+000  0.000000e+000  1.671334e-015
    endloop
  endfacet
  facet normal -9.510565e-001  2.024160e-016 -3.090171e-001
    outer loop
      vertex -2.950000e+000  0.000000e+000  1.671334e-015
      vertex -2.386600e+000 -2.000000e+000 -1.733966e+000
      vertex -2.950000e+000 -2.000000e+000  3.612708e-016
    endloop
  endfacet
  facet normal  3.826835e-001  0.000000e+000 -9.238796e-001
    outer loop
      vertex  1.224647e-016  6.000000e+000  2.000000e+000
      vertex -1.414214e+000 -2.000000e+000  1.414214e+000
      vertex -1.414214e+000  6.000000e+000  1.414214e+000
    endloop
  endfacet
  facet normal  9.238796e-001  0.000000e+000 -3.826835e-001
    outer loop
      vertex -1.414214e+000  6.000000e+000  1.414214e+000
      vertex -1.414214e+000 -2.000000e+000  1.414214e+000
      vertex -2.000000e+000 -2.000000e+000  2.449294e-016
    endloop
  endfacet
  facet normal  9.238796e-001  0.000000e+000 -3.826835e-001
    outer loop
      vertex -1.414214e+000  6.000000e+000  1.414214e+000
      vertex -2.000000e+000 -2.000000e+000  2.449294e-016
      vertex -2.000000e+000  6.000000e+000  2.449294e-016
    endloop
  endfacet
  facet normal  3.826835e-001  0.000000e+000 -9.238796e-001
    outer loop
      vertex -1.414214e+000 -2.000000e+000  1.414214e+000
      vertex  1.224647e-016  6.000000e+000  2.000000e+000
      vertex  1.224647e-016 -2.000000e+000  2.000000e+000
    endloop
  endfacet
  facet normal -3.826835e-001  0.000000e+000 -9.238796e-001
    outer loop
      vertex  1.224647e-016 -2.000000e+000  2.000000e+000
      vertex  1.224647e-016  6.000000e+000  2.000000e+000
      vertex  1.414214e+000  6.000000e+000  1.414214e+000
    endloop
  endfacet
  facet normal -3.826835e-001  -0.000000e+000 -9.238796e-001
    outer loop
      vertex  1.224647e-016 -2.000000e+000  2.000000e+000
      vertex  1.414214e+000  6.000000e+000  1.414214e+000
      vertex  1.414214e+000 -2.000000e+000  1.414214e+000
    endloop
  endfacet
  facet normal -9.238796e-001  0.000000e+000 -3.826835e-001
    outer loop
      vertex  1.414214e+000 -2.000000e+000  1.414214e+000
      vertex  1.414214e+000  6.000000e+000  1.414214e+000
      vertex  2.000000e+000  6.000000e+000  0.000000e+000
    endloop
  endfacet
  facet normal -9.238796e-001  -0.000000e+000 -3.826835e-001
    outer loop
      vertex  1.414214e+000 -2.000000e+000  1.414214e+000
      vertex  2.000000e+000  6.000000e+000  0.000000e+000
      vertex  2.000000e+000 -2.000000e+000  0.000000e+000
    endloop
  endfacet
  facet normal -3.826835e-001  0.000000e+000  9.238796e-001
    outer loop
      vertex -3.673940e-016  6.000000e+000 -2.000000e+000
      vertex  1.414214e+000 -2.000000e+000 -1.414214e+000
      vertex  1.414214e+000  6.000000e+000 -1.414214e+000
    endloop
  endfacet
  facet normal -9.238796e-001  0.000000e+000  3.826835e-001
    outer loop
      vertex  1.414214e+000  6.000000e+000 -1.414214e+000
      vertex  1.414214e+000 -2.000000e+000 -1.414214e+000
      vertex  2.000000e+000 -2.000000e+000  0.000000e+000
    endloop
  endfacet
  facet normal -9.238796e-001  0.000000e+000  3.826835e-001
    outer loop
      vertex  1.414214e+000  6.000000e+000 -1.414214e+000
      vertex  2.000000e+000 -2.000000e+000  0.000000e+000
      vertex  2.000000e+000  6.000000e+000  0.000000e+000
    endloop
  endfacet
  facet normal -3.826835e-001  0.000000e+000  9.238796e-001
    outer loop
      vertex  1.414214e+000 -2.000000e+000 -1.414214e+000
      vertex -3.673940e-016  6.000000e+000 -2.000000e+000
      vertex -3.673940e-016 -2.000000e+000 -2.000000e+000
    endloop
  endfacet
  facet normal  3.826835e-001  -0.000000e+000  9.238796e-001
    outer loop
      vertex -3.673940e-016 -2.000000e+000 -2.000000e+000
      vertex -3.673940e-016  6.000000e+000 -2.000000e+000
      vertex -1.414214e+000  6.000000e+000 -1.414214e+000
    endloop
  endfacet
  facet normal  3.826835e-001  0.000000e+000  9.238796e-001
    outer loop
      vertex -3.673940e-016 -2.000000e+000 -2.000000e+000
      vertex -1.414214e+000  6.000000e+000 -1.414214e+000
      vertex -1.414214e+000 -2.000000e+000 -1.414214e+000
    endloop
  endfacet
  facet normal  9.238796e-001  -0.000000e+000  3.826835e-001
    outer loop
      vertex -1.414214e+000 -2.000000e+000 -1.414214e+000
      vertex -1.414214e+000  6.000000e+000 -1.414214e+000
      vertex -2.000000e+000  6.000000e+000  2.449294e-016
    endloop
  endfacet
  facet normal  9.238796e-001  0.000000e+000  3.826835e-001
    outer loop
      vertex -1.414214e+000 -2.000000e+000 -1.414214e+000
      vertex -2.000000e+000  6.000000e+000  2.449294e-016
      vertex -2.000000e+000 -2.000000e+000  2.449294e-016
    endloop
  endfacet
  facet normal  0.000000e+000 -1.000000e+000  0.000000e+000
    outer loop
      vertex -3.673940e-016 -2.000000e+000 -2.000000e+000
      vertex  9.116001e-001 -2.000000e+000 -2.805617e+000
      vertex  2.386600e+000 -2.000000e+000 -1.733966e+000
    endloop
  endfacet
  facet normal  0.000000e+000 -1.000000e+000  0.000000e+000
    outer loop
      vertex  9.116001e-001 -2.000000e+000  2.805617e+000
      vertex -9.116001e-001 -2.000000e+000  2.805617e+000
      vertex  1.224647e-016 -2.000000e+000  2.000000e+000
    endloop
  endfacet
  facet normal  -0.000000e+000 -1.000000e+000  0.000000e+000
    outer loop
      vertex  1.224647e-016 -2.000000e+000  2.000000e+000
      vertex -9.116001e-001 -2.000000e+000  2.805617e+000
      vertex -2.386600e+000 -2.000000e+000  1.733966e+000
    endloop
  endfacet
  facet normal  0.000000e+000 -1.000000e+000  0.000000e+000
    outer loop
      vertex  1.224647e-016 -2.000000e+000  2.000000e+000
      vertex -2.386600e+000 -2.000000e+000  1.733966e+000
      vertex -1.414214e+000 -2.000000e+000  1.414214e+000
    endloop
  endfacet
  facet normal  0.000000e+000 -9.999999e-001  0.000000e+000
    outer loop
      vertex -1.414214e+000 -2.000000e+000  1.414214e+000
      vertex -2.386600e+000 -2.000000e+000  1.733966e+000
      vertex -2.000000e+000 -2.000000e+000  2.449294e-016
    endloop
  endfacet
  facet normal  0.000000e+000 -1.000000e+000  0.000000e+000
    outer loop
      vertex -2.000000e+000 -2.000000e+000  2.449294e-016
      vertex -2.386600e+000 -2.000000e+000  1.733966e+000
      vertex -2.950000e+000 -2.000000e+000  3.612708e-016
    endloop
  endfacet
  facet normal  0.000000e+000 -1.000000e+000  0.000000e+000
    outer loop
      vertex -2.000000e+000 -2.000000e+000  2.449294e-016
      vertex -2.950000e+000 -2.000000e+000  3.612708e-016
      vertex -1.414214e+000 -2.000000e+000 -1.414214e+000
    endloop
  endfacet
  facet normal  -0.000000e+000 -1.000000e+000  0.000000e+000
    outer loop
      vertex -1.414214e+000 -2.000000e+000 -1.414214e+000
      vertex -2.950000e+000 -2.000000e+000  3.612708e-016
      vertex -2.386600e+000 -2.000000e+000 -1.733966e+000
    endloop
  endfacet
  facet normal  0.000000e+000 -1.000000e+000  0.000000e+000
    outer loop
      vertex -1.414214e+000 -2.000000e+000 -1.414214e+000
      vertex -2.386600e+000 -2.000000e+000 -1.733966e+000
      vertex -3.673940e-016 -2.000000e+000 -2.000000e+000
    endloop
  endfacet
  facet normal  -0.000000e+000 -1.000000e+000  0.000000e+000
    outer loop
      vertex -3.673940e-016 -2.000000e+000 -2.000000e+000
      vertex -2.386600e+000 -2.000000e+000 -1.733966e+000
      vertex -9.116001e-001 -2.000000e+000 -2.805617e+000
    endloop
  endfacet
  facet normal  0.000000e+000 -1.000000e+000  0.000000e+000
    outer loop
      vertex -3.673940e-016 -2.000000e+000 -2.000000e+000
      vertex -9.116001e-001 -2.000000e+000 -2.805617e+000
      vertex  9.116001e-001 -2.000000e+000 -2.805617e+000
    endloop
  endfacet
  facet normal  0.000000e+000 -1.000000e+000  0.000000e+000
    outer loop
      vertex  9.116001e-001 -2.000000e+000  2.805617e+000
      vertex  1.224647e-016 -2.000000e+000  2.000000e+000
      vertex  2.386600e+000 -2.000000e+000  1.733966e+000
    endloop
  endfacet
  facet normal  -0.000000e+000 -1.000000e+000  0.000000e+000
    outer loop
      vertex  2.386600e+000 -2.000000e+000  1.733966e+000
      vertex  1.224647e-016 -2.000000e+000  2.000000e+000
      vertex  1.414214e+000 -2.000000e+000  1.414214e+000
    endloop
  endfacet
  facet normal  0.000000e+000 -1.000000e+000  0.000000e+000
    outer loop
      vertex  2.386600e+000 -2.000000e+000  1.733966e+000
      vertex  1.414214e+000 -2.000000e+000  1.414214e+000
      vertex  2.950000e+000 -2.000000e+000  0.000000e+000
    endloop
  endfacet
  facet normal  0.000000e+000 -1.000000e+000  0.000000e+000
    outer loop
      vertex  2.950000e+000 -2.000000e+000  0.000000e+000
      vertex  1.414214e+000 -2.000000e+000  1.414214e+000
      vertex  2.000000e+000 -2.000000e+000  0.000000e+000
    endloop
  endfacet
  facet normal  0.000000e+000 -1.000000e+000  0.000000e+000
    outer loop
      vertex  2.950000e+000 -2.000000e+000  0.000000e+000
      vertex  2.000000e+000 -2.000000e+000  0.000000e+000
      vertex  2.386600e+000 -2.000000e+000 -1.733966e+000
    endloop
  endfacet
  facet normal  0.000000e+000 -9.999999e-001  0.000000e+000
    outer loop
      vertex  2.386600e+000 -2.000000e+000 -1.733966e+000
      vertex  2.000000e+000 -2.000000e+000  0.000000e+000
      vertex  1.414214e+000 -2.000000e+000 -1.414214e+000
    endloop
  endfacet
  facet normal  0.000000e+000 -1.000000e+000  -0.000000e+000
    outer loop
      vertex  2.386600e+000 -2.000000e+000 -1.733966e+000
      vertex  1.414214e+000 -2.000000e+000 -1.414214e+000
      vertex -3.673940e-016 -2.000000e+000 -2.000000e+000
    endloop
  endfacet
  facet normal  0.000000e+000 -9.999999e-001  0.000000e+000
    outer loop
      vertex -1.414214e+000  6.000000e+000  1.414214e+000
      vertex  1.414214e+000  6.000000e+000  1.414214e+000
      vertex  1.224647e-016  6.000000e+000  2.000000e+000
    endloop
  endfacet
  facet normal  0.000000e+000 -1.000000e+000  0.000000e+000
    outer loop
      vertex  1.414214e+000  6.000000e+000  1.414214e+000
      vertex -1.414214e+000  6.000000e+000  1.414214e+000
      vertex  2.000000e+000  6.000000e+000  0.000000e+000
    endloop
  endfacet
  facet normal  0.000000e+000 -9.999999e-001  0.000000e+000
    outer loop
      vertex  2.000000e+000  6.000000e+000  0.000000e+000
      vertex -1.414214e+000  6.000000e+000  1.414214e+000
      vertex -2.000000e+000  6.000000e+000  2.449294e-016
    endloop
  endfacet
  facet normal  0.000000e+000 -9.999999e-001  0.000000e+000
    outer loop
      vertex  2.000000e+000  6.000000e+000  0.000000e+000
      vertex -2.000000e+000  6.000000e+000  2.449294e-016
      vertex  1.414214e+000  6.000000e+000 -1.414214e+000
    endloop
  endfacet
  facet normal  0.000000e+000 -1.000000e+000  0.000000e+000
    outer loop
      vertex  1.414214e+000  6.000000e+000 -1.414214e+000
      vertex -2.000000e+000  6.000000e+000  2.449294e-016
      vertex -1.414214e+000  6.000000e+000 -1.414214e+000
    endloop
  endfacet
  facet normal  0.000000e+000 -9.999999e-001  0.000000e+000
    outer loop
      vertex  1.414214e+000  6.000000e+000 -1.414214e+000
      vertex -1.414214e+000  6.000000e+000 -1.414214e+000
      vertex -3.673940e-016  6.000000e+000 -2.000000e+000
    endloop
  endfacet
  facet normal -9.510565e-001  -0.000000e+000 -3.090171e-001
    outer loop
      vertex -2.950000e+000  3.000000e+000  0.000000e+000
      vertex -2.950000e+000  9.000000e+000  0.000000e+000
      vertex -2.386600e+000  3.000000e+000 -1.733966e+000
    endloop
  endfacet
  facet normal -9.510565e-001  0.000000e+000 -3.090171e-001
    outer loop
      vertex -2.386600e+000  3.000000e+000 -1.733966e+000
      vertex -2.950000e+000  9.000000e+000  0.000000e+000
      vertex -2.386600e+000  9.000000e+000 -1.733966e+000
    endloop
  endfacet
  facet normal -5.877853e-001  -0.000000e+000 -8.090171e-001
    outer loop
      vertex -2.386600e+000  3.000000e+000 -1.733966e+000
      vertex -2.386600e+000  9.000000e+000 -1.733966e+000
      vertex -9.116001e-001  3.000000e+000 -2.805617e+000
    endloop
  endfacet
  facet normal -5.877853e-001  0.000000e+000 -8.090171e-001
    outer loop
      vertex -9.116001e-001  3.000000e+000 -2.805617e+000
      vertex -2.386600e+000  9.000000e+000 -1.733966e+000
      vertex -9.116001e-001  9.000000e+000 -2.805617e+000
    endloop
  endfacet
  facet normal  0.000000e+000  0.000000e+000 -1.000000e+000
    outer loop
      vertex -9.116001e-001  3.000000e+000 -2.805617e+000
      vertex -9.116001e-001  9.000000e+000 -2.805617e+000
      vertex  9.116001e-001  3.000000e+000 -2.805617e+000
    endloop
  endfacet
  facet normal  0.000000e+000  0.000000e+000 -1.000000e+000
    outer loop
      vertex  9.116001e-001  3.000000e+000 -2.805617e+000
      vertex -9.116001e-001  9.000000e+000 -2.805617e+000
      vertex  9.116001e-001  9.000000e+000 -2.805617e+000
    endloop
  endfacet
  facet normal  5.877853e-001  0.000000e+000 -8.090171e-001
    outer loop
      vertex  9.116001e-001  3.000000e+000 -2.805617e+000
      vertex  9.116001e-001  9.000000e+000 -2.805617e+000
      vertex  2.386600e+000  3.000000e+000 -1.733966e+000
    endloop
  endfacet
  facet normal  5.877853e-001  0.000000e+000 -8.090171e-001
    outer loop
      vertex  2.386600e+000  3.000000e+000 -1.733966e+000
      vertex  9.116001e-001  9.000000e+000 -2.805617e+000
      vertex  2.386600e+000  9.000000e+000 -1.733966e+000
    endloop
  endfacet
  facet normal  9.510565e-001  0.000000e+000 -3.090171e-001
    outer loop
      vertex  2.386600e+000  3.000000e+000 -1.733966e+000
      vertex  2.386600e+000  9.000000e+000 -1.733966e+000
      vertex  2.950000e+000  3.000000e+000  3.612708e-016
    endloop
  endfacet
  facet normal  9.510565e-001  0.000000e+000 -3.090171e-001
    outer loop
      vertex  2.950000e+000  3.000000e+000  3.612708e-016
      vertex  2.386600e+000  9.000000e+000 -1.733966e+000
      vertex  2.950000e+000  9.000000e+000  3.612708e-016
    endloop
  endfacet
  facet normal  9.510565e-001  0.000000e+000  3.090171e-001
    outer loop
      vertex  2.950000e+000  3.000000e+000  3.612708e-016
      vertex  2.950000e+000  9.000000e+000  3.612708e-016
      vertex  2.386600e+000  3.000000e+000  1.733966e+000
    endloop
  endfacet
  facet normal  9.510565e-001  -0.000000e+000  3.090171e-001
    outer loop
      vertex  2.386600e+000  3.000000e+000  1.733966e+000
      vertex  2.950000e+000  9.000000e+000  3.612708e-016
      vertex  2.386600e+000  9.000000e+000  1.733966e+000
    endloop
  endfacet
  facet normal  5.877853e-001  0.000000e+000  8.090171e-001
    outer loop
      vertex  2.386600e+000  3.000000e+000  1.733966e+000
      vertex  2.386600e+000  9.000000e+000  1.733966e+000
      vertex  9.116001e-001  3.000000e+000  2.805617e+000
    endloop
  endfacet
  facet normal  5.877853e-001  -0.000000e+000  8.090171e-001
    outer loop
      vertex  9.116001e-001  3.000000e+000  2.805617e+000
      vertex  2.386600e+000  9.000000e+000  1.733966e+000
      vertex  9.116001e-001  9.000000e+000  2.805617e+000
    endloop
  endfacet
  facet normal  0.000000e+000  0.000000e+000  1.000000e+000
    outer loop
      vertex  9.116001e-001  3.000000e+000  2.805617e+000
      vertex  9.116001e-001  9.000000e+000  2.805617e+000
      vertex -9.116001e-001  3.000000e+000  2.805617e+000
    endloop
  endfacet
  facet normal  0.000000e+000  0.000000e+000  1.000000e+000
    outer loop
      vertex -9.116001e-001  3.000000e+000  2.805617e+000
      vertex  9.116001e-001  9.000000e+000  2.805617e+000
      vertex -9.116001e-001  9.000000e+000  2.805617e+000
    endloop
  endfacet
  facet normal -5.877853e-001  0.000000e+000  8.090171e-001
    outer loop
      vertex -9.116001e-001  3.000000e+000  2.805617e+000
      vertex -9.116001e-001  9.000000e+000  2.805617e+000
      vertex -2.386600e+000  3.000000e+000  1.733966e+000
    endloop
  endfacet
  facet normal -5.877853e-001  0.000000e+000  8.090171e-001
    outer loop
      vertex -2.386600e+000  3.000000e+000  1.733966e+000
      vertex -9.116001e-001  9.000000e+000  2.805617e+000
      vertex -2.386600e+000  9.000000e+000  1.733966e+000
    endloop
  endfacet
  facet normal -9.510565e-001  0.000000e+000  3.090171e-001
    outer loop
      vertex -2.386600e+000  3.000000e+000  1.733966e+000
      vertex -2.386600e+000  9.000000e+000  1.733966e+000
      vertex -2.950000e+000  3.000000e+000  0.000000e+000
    endloop
  endfacet
  facet normal -9.510565e-001  0.000000e+000  3.090171e-001
    outer loop
      vertex -2.950000e+000  3.000000e+000  0.000000e+000
      vertex -2.386600e+000  9.000000e+000  1.733966e+000
      vertex -2.950000e+000  9.000000e+000  0.000000e+000
    endloop
  endfacet
  facet normal  0.000000e+000  1.000000e+000  0.000000e+000
    outer loop
      vertex -9.116001e-001  9.000000e+000  2.805617e+000
      vertex  9.116001e-001  9.000000e+000  2.805617e+000
      vertex -2.386600e+000  9.000000e+000  1.733966e+000
    endloop
  endfacet
  facet normal  0.000000e+000  1.000000e+000  0.000000e+000
    outer loop
      vertex -2.386600e+000  9.000000e+000  1.733966e+000
      vertex  9.116001e-001  9.000000e+000  2.805617e+000
      vertex  2.386600e+000  9.000000e+000  1.733966e+000
    endloop
  endfacet
  facet normal  0.000000e+000  1.000000e+000  0.000000e+000
    outer loop
      vertex -2.386600e+000  9.000000e+000  1.733966e+000
      vertex  2.386600e+000  9.000000e+000  1.733966e+000
      vertex -2.950000e+000  9.000000e+000  0.000000e+000
    endloop
  endfacet
  facet normal  0.000000e+000  1.000000e+000  0.000000e+000
    outer loop
      vertex -2.950000e+000  9.000000e+000  0.000000e+000
      vertex  2.386600e+000  9.000000e+000  1.733966e+000
      vertex  2.950000e+000  9.000000e+000  3.612708e-016
    endloop
  endfacet
  facet normal  0.000000e+000  1.000000e+000  0.000000e+000
    outer loop
      vertex -2.950000e+000  9.000000e+000  0.000000e+000
      vertex  2.950000e+000  9.000000e+000  3.612708e-016
      vertex -2.386600e+000  9.000000e+000 -1.733966e+000
    endloop
  endfacet
  facet normal  0.000000e+000  1.000000e+000  0.000000e+000
    outer loop
      vertex -2.386600e+000  9.000000e+000 -1.733966e+000
      vertex  2.950000e+000  9.000000e+000  3.612708e-016
      vertex  2.386600e+000  9.000000e+000 -1.733966e+000
    endloop
  endfacet
  facet normal  0.000000e+000  1.000000e+000  0.000000e+000
    outer loop
      vertex -2.386600e+000  9.000000e+000 -1.733966e+000
      vertex  2.386600e+000  9.000000e+000 -1.733966e+000
      vertex -9.116001e-001  9.000000e+000 -2.805617e+000
    endloop
  endfacet
  facet normal  0.000000e+000  1.000000e+000  0.000000e+000
    outer loop
      vertex -9.116001e-001  9.000000e+000 -2.805617e+000
      vertex  2.386600e+000  9.000000e+000 -1.733966e+000
      vertex  9.116001e-001  9.000000e+000 -2.805617e+000
    endloop
  endfacet
  facet normal  0.000000e+000  0.000000e+000  1.000000e+000
    outer loop
      vertex -9.682458e+000  0.000000e+000  2.500000e+000
      vertex -9.682458e+000  3.000000e+000  2.500000e+000
      vertex -3.000000e+001  0.000000e+000  2.500000e+000
    endloop
  endfacet
  facet normal  0.000000e+000  0.000000e+000  1.000000e+000
    outer loop
      vertex -3.000000e+001  0.000000e+000  2.500000e+000
      vertex -9.682458e+000  3.000000e+000  2.500000e+000
      vertex -3.000000e+001  3.000000e+000  2.500000e+000
    endloop
  endfacet
  facet normal  0.000000e+000  0.000000e+000 -1.000000e+000
    outer loop
      vertex -2.792893e+001  0.000000e+000 -2.500000e+000
      vertex -2.792893e+001  3.000000e+000 -2.500000e+000
      vertex -9.682458e+000  0.000000e+000 -2.500000e+000
    endloop
  endfacet
  facet normal  0.000000e+000  0.000000e+000 -1.000000e+000
    outer loop
      vertex -9.682458e+000  0.000000e+000 -2.500000e+000
      vertex -2.792893e+001  3.000000e+000 -2.500000e+000
      vertex -9.682458e+000  3.000000e+000 -2.500000e+000
    endloop
  endfacet
  facet normal  9.837438e-001  0.000000e+000  1.795776e-001
    outer loop
      vertex  1.000000e+001  0.000000e+000  1.224647e-015
      vertex  1.000000e+001  3.000000e+000  1.224647e-015
      vertex  9.355038e+000  0.000000e+000  3.533166e+000
    endloop
  endfacet
  facet normal  9.837438e-001  -0.000000e+000  1.795776e-001
    outer loop
      vertex  9.355038e+000  0.000000e+000  3.533166e+000
      vertex  1.000000e+001  3.000000e+000  1.224647e-015
      vertex  9.355038e+000  3.000000e+000  3.533166e+000
    endloop
  endfacet
  facet normal  8.568484e-001  0.000000e+000  5.155685e-001
    outer loop
      vertex  9.355038e+000  0.000000e+000  3.533166e+000
      vertex  9.355038e+000  3.000000e+000  3.533166e+000
      vertex  7.503347e+000  0.000000e+000  6.610581e+000
    endloop
  endfacet
  facet normal  8.568484e-001  -0.000000e+000  5.155685e-001
    outer loop
      vertex  7.503347e+000  0.000000e+000  6.610581e+000
      vertex  9.355038e+000  3.000000e+000  3.533166e+000
      vertex  7.503347e+000  3.000000e+000  6.610581e+000
    endloop
  endfacet
  facet normal  6.194259e-001  0.000000e+000  7.850551e-001
    outer loop
      vertex  7.503347e+000  0.000000e+000  6.610581e+000
      vertex  7.503347e+000  3.000000e+000  6.610581e+000
      vertex  4.683781e+000  0.000000e+000  8.835281e+000
    endloop
  endfacet
  facet normal  6.194259e-001  -0.000000e+000  7.850551e-001
    outer loop
      vertex  4.683781e+000  0.000000e+000  8.835281e+000
      vertex  7.503347e+000  3.000000e+000  6.610581e+000
      vertex  4.683781e+000  3.000000e+000  8.835281e+000
    endloop
  endfacet
  facet normal  3.021021e-001  0.000000e+000  9.532755e-001
    outer loop
      vertex  4.683781e+000  0.000000e+000  8.835281e+000
      vertex  4.683781e+000  3.000000e+000  8.835281e+000
      vertex  1.260043e+000  0.000000e+000  9.920297e+000
    endloop
  endfacet
  facet normal  3.021021e-001  -0.000000e+000  9.532755e-001
    outer loop
      vertex  1.260043e+000  0.000000e+000  9.920297e+000
      vertex  4.683781e+000  3.000000e+000  8.835281e+000
      vertex  1.260043e+000  3.000000e+000  9.920297e+000
    endloop
  endfacet
  facet normal -5.419018e-002  0.000000e+000  9.985306e-001
    outer loop
      vertex  1.260043e+000  0.000000e+000  9.920297e+000
      vertex  1.260043e+000  3.000000e+000  9.920297e+000
      vertex -2.326231e+000  0.000000e+000  9.725670e+000
    endloop
  endfacet
  facet normal -5.419018e-002  0.000000e+000  9.985306e-001
    outer loop
      vertex -2.326231e+000  0.000000e+000  9.725670e+000
      vertex  1.260043e+000  3.000000e+000  9.920297e+000
      vertex -2.326231e+000  3.000000e+000  9.725670e+000
    endloop
  endfacet
  facet normal -4.034928e-001  0.000000e+000  9.149828e-001
    outer loop
      vertex -2.326231e+000  0.000000e+000  9.725670e+000
      vertex -2.326231e+000  3.000000e+000  9.725670e+000
      vertex -5.612439e+000  0.000000e+000  8.276505e+000
    endloop
  endfacet
  facet normal -4.034928e-001  0.000000e+000  9.149828e-001
    outer loop
      vertex -5.612439e+000  0.000000e+000  8.276505e+000
      vertex -2.326231e+000  3.000000e+000  9.725670e+000
      vertex -5.612439e+000  3.000000e+000  8.276505e+000
    endloop
  endfacet
  facet normal -7.007477e-001  0.000000e+000  7.134091e-001
    outer loop
      vertex -5.612439e+000  0.000000e+000  8.276505e+000
      vertex -5.612439e+000  3.000000e+000  8.276505e+000
      vertex -8.174685e+000  0.000000e+000  5.759733e+000
    endloop
  endfacet
  facet normal -7.007477e-001  0.000000e+000  7.134091e-001
    outer loop
      vertex -8.174685e+000  0.000000e+000  5.759733e+000
      vertex -5.612439e+000  3.000000e+000  8.276505e+000
      vertex -8.174685e+000  3.000000e+000  5.759733e+000
    endloop
  endfacet
  facet normal -9.076114e-001  0.000000e+000  4.198112e-001
    outer loop
      vertex -8.174685e+000  0.000000e+000  5.759733e+000
      vertex -8.174685e+000  3.000000e+000  5.759733e+000
      vertex -9.682458e+000  0.000000e+000  2.500000e+000
    endloop
  endfacet
  facet normal -9.076114e-001  0.000000e+000  4.198112e-001
    outer loop
      vertex -9.682458e+000  0.000000e+000  2.500000e+000
      vertex -8.174685e+000  3.000000e+000  5.759733e+000
      vertex -9.682458e+000  3.000000e+000  2.500000e+000
    endloop
  endfacet
  facet normal -9.076114e-001  -0.000000e+000 -4.198112e-001
    outer loop
      vertex -9.682458e+000  0.000000e+000 -2.500000e+000
      vertex -9.682458e+000  3.000000e+000 -2.500000e+000
      vertex -8.174685e+000  0.000000e+000 -5.759733e+000
    endloop
  endfacet
  facet normal -9.076114e-001  0.000000e+000 -4.198112e-001
    outer loop
      vertex -8.174685e+000  0.000000e+000 -5.759733e+000
      vertex -9.682458e+000  3.000000e+000 -2.500000e+000
      vertex -8.174685e+000  3.000000e+000 -5.759733e+000
    endloop
  endfacet
  facet normal -7.007477e-001  -0.000000e+000 -7.134091e-001
    outer loop
      vertex -8.174685e+000  0.000000e+000 -5.759733e+000
      vertex -8.174685e+000  3.000000e+000 -5.759733e+000
      vertex -5.612439e+000  0.000000e+000 -8.276505e+000
    endloop
  endfacet
  facet normal -7.007477e-001  0.000000e+000 -7.134091e-001
    outer loop
      vertex -5.612439e+000  0.000000e+000 -8.276505e+000
      vertex -8.174685e+000  3.000000e+000 -5.759733e+000
      vertex -5.612439e+000  3.000000e+000 -8.276505e+000
    endloop
  endfacet
  facet normal -4.034928e-001  -0.000000e+000 -9.149828e-001
    outer loop
      vertex -5.612439e+000  0.000000e+000 -8.276505e+000
      vertex -5.612439e+000  3.000000e+000 -8.276505e+000
      vertex -2.326231e+000  0.000000e+000 -9.725670e+000
    endloop
  endfacet
  facet normal -4.034928e-001  0.000000e+000 -9.149828e-001
    outer loop
      vertex -2.326231e+000  0.000000e+000 -9.725670e+000
      vertex -5.612439e+000  3.000000e+000 -8.276505e+000
      vertex -2.326231e+000  3.000000e+000 -9.725670e+000
    endloop
  endfacet
  facet normal -5.419018e-002  -0.000000e+000 -9.985306e-001
    outer loop
      vertex -2.326231e+000  0.000000e+000 -9.725670e+000
      vertex -2.326231e+000  3.000000e+000 -9.725670e+000
      vertex  1.260043e+000  0.000000e+000 -9.920297e+000
    endloop
  endfacet
  facet normal -5.419018e-002  0.000000e+000 -9.985306e-001
    outer loop
      vertex  1.260043e+000  0.000000e+000 -9.920297e+000
      vertex -2.326231e+000  3.000000e+000 -9.725670e+000
      vertex  1.260043e+000  3.000000e+000 -9.920297e+000
    endloop
  endfacet
  facet normal  3.021021e-001  0.000000e+000 -9.532755e-001
    outer loop
      vertex  1.260043e+000  0.000000e+000 -9.920297e+000
      vertex  1.260043e+000  3.000000e+000 -9.920297e+000
      vertex  4.683781e+000  0.000000e+000 -8.835281e+000
    endloop
  endfacet
  facet normal  3.021021e-001  0.000000e+000 -9.532755e-001
    outer loop
      vertex  4.683781e+000  0.000000e+000 -8.835281e+000
      vertex  1.260043e+000  3.000000e+000 -9.920297e+000
      vertex  4.683781e+000  3.000000e+000 -8.835281e+000
    endloop
  endfacet
  facet normal  6.194259e-001  0.000000e+000 -7.850551e-001
    outer loop
      vertex  4.683781e+000  0.000000e+000 -8.835281e+000
      vertex  4.683781e+000  3.000000e+000 -8.835281e+000
      vertex  7.503347e+000  0.000000e+000 -6.610581e+000
    endloop
  endfacet
  facet normal  6.194259e-001  0.000000e+000 -7.850551e-001
    outer loop
      vertex  7.503347e+000  0.000000e+000 -6.610581e+000
      vertex  4.683781e+000  3.000000e+000 -8.835281e+000
      vertex  7.503347e+000  3.000000e+000 -6.610581e+000
    endloop
  endfacet
  facet normal  8.568484e-001  0.000000e+000 -5.155685e-001
    outer loop
      vertex  7.503347e+000  0.000000e+000 -6.610581e+000
      vertex  7.503347e+000  3.000000e+000 -6.610581e+000
      vertex  9.355038e+000  0.000000e+000 -3.533166e+000
    endloop
  endfacet
  facet normal  8.568484e-001  0.000000e+000 -5.155685e-001
    outer loop
      vertex  9.355038e+000  0.000000e+000 -3.533166e+000
      vertex  7.503347e+000  3.000000e+000 -6.610581e+000
      vertex  9.355038e+000  3.000000e+000 -3.533166e+000
    endloop
  endfacet
  facet normal  9.837438e-001  0.000000e+000 -1.795776e-001
    outer loop
      vertex  9.355038e+000  0.000000e+000 -3.533166e+000
      vertex  9.355038e+000  3.000000e+000 -3.533166e+000
      vertex  1.000000e+001  0.000000e+000  1.224647e-015
    endloop
  endfacet
  facet normal  9.837438e-001  0.000000e+000 -1.795776e-001
    outer loop
      vertex  1.000000e+001  0.000000e+000  1.224647e-015
      vertex  9.355038e+000  3.000000e+000 -3.533166e+000
      vertex  1.000000e+001  3.000000e+000  1.224647e-015
    endloop
  endfacet
  facet normal -7.933534e-001  0.000000e+000  6.087614e-001
    outer loop
      vertex  3.438328e+000  0.000000e+000  6.843274e+000
      vertex  2.716143e+000  3.000000e+000  5.902104e+000
      vertex  2.716143e+000  0.000000e+000  5.902104e+000
    endloop
  endfacet
  facet normal -1.305262e-001  0.000000e+000  9.914449e-001
    outer loop
      vertex  2.716143e+000  0.000000e+000  5.902104e+000
      vertex  2.716143e+000  3.000000e+000  5.902104e+000
      vertex  1.539973e+000  3.000000e+000  5.747259e+000
    endloop
  endfacet
  facet normal -1.305262e-001  0.000000e+000  9.914449e-001
    outer loop
      vertex  2.716143e+000  0.000000e+000  5.902104e+000
      vertex  1.539973e+000  3.000000e+000  5.747259e+000
      vertex  1.539973e+000  0.000000e+000  5.747259e+000
    endloop
  endfacet
  facet normal -7.933534e-001  0.000000e+000  6.087614e-001
    outer loop
      vertex  2.716143e+000  3.000000e+000  5.902104e+000
      vertex  3.438328e+000  0.000000e+000  6.843274e+000
      vertex  3.438328e+000  3.000000e+000  6.843274e+000
    endloop
  endfacet
  facet normal -9.914449e-001  -0.000000e+000 -1.305261e-001
    outer loop
      vertex  3.438328e+000  3.000000e+000  6.843274e+000
      vertex  3.438328e+000  0.000000e+000  6.843274e+000
      vertex  3.283482e+000  0.000000e+000  8.019444e+000
    endloop
  endfacet
  facet normal -9.914449e-001  0.000000e+000 -1.305261e-001
    outer loop
      vertex  3.438328e+000  3.000000e+000  6.843274e+000
      vertex  3.283482e+000  0.000000e+000  8.019444e+000
      vertex  3.283482e+000  3.000000e+000  8.019444e+000
    endloop
  endfacet
  facet normal -6.087614e-001  -0.000000e+000 -7.933533e-001
    outer loop
      vertex  3.283482e+000  3.000000e+000  8.019444e+000
      vertex  3.283482e+000  0.000000e+000  8.019444e+000
      vertex  2.342312e+000  0.000000e+000  8.741629e+000
    endloop
  endfacet
  facet normal -6.087614e-001  0.000000e+000 -7.933533e-001
    outer loop
      vertex  3.283482e+000  3.000000e+000  8.019444e+000
      vertex  2.342312e+000  0.000000e+000  8.741629e+000
      vertex  2.342312e+000  3.000000e+000  8.741629e+000
    endloop
  endfacet
  facet normal  1.305261e-001  0.000000e+000  9.914449e-001
    outer loop
      vertex  1.539973e+000  0.000000e+000  5.747259e+000
      vertex  1.539973e+000  3.000000e+000  5.747259e+000
      vertex -1.685498e-015  0.000000e+000  5.950000e+000
    endloop
  endfacet
  facet normal  1.305261e-001  -0.000000e+000  9.914449e-001
    outer loop
      vertex -1.685498e-015  0.000000e+000  5.950000e+000
      vertex  1.539973e+000  3.000000e+000  5.747259e+000
      vertex -1.685498e-015  3.000000e+000  5.950000e+000
    endloop
  endfacet
  facet normal -1.305261e-001  0.000000e+000  9.914449e-001
    outer loop
      vertex -1.685498e-015  0.000000e+000  5.950000e+000
      vertex -1.685498e-015  3.000000e+000  5.950000e+000
      vertex -1.539973e+000  0.000000e+000  5.747259e+000
    endloop
  endfacet
  facet normal -1.305261e-001  0.000000e+000  9.914449e-001
    outer loop
      vertex -1.539973e+000  0.000000e+000  5.747259e+000
      vertex -1.685498e-015  3.000000e+000  5.950000e+000
      vertex -1.539973e+000  3.000000e+000  5.747259e+000
    endloop
  endfacet
  facet normal  9.914449e-001  0.000000e+000 -1.305261e-001
    outer loop
      vertex -3.438328e+000  0.000000e+000  6.843274e+000
      vertex -3.283482e+000  3.000000e+000  8.019444e+000
      vertex -3.283482e+000  0.000000e+000  8.019444e+000
    endloop
  endfacet
  facet normal  6.087614e-001  0.000000e+000 -7.933533e-001
    outer loop
      vertex -3.283482e+000  0.000000e+000  8.019444e+000
      vertex -3.283482e+000  3.000000e+000  8.019444e+000
      vertex -2.342312e+000  3.000000e+000  8.741629e+000
    endloop
  endfacet
  facet normal  6.087614e-001  0.000000e+000 -7.933533e-001
    outer loop
      vertex -3.283482e+000  0.000000e+000  8.019444e+000
      vertex -2.342312e+000  3.000000e+000  8.741629e+000
      vertex -2.342312e+000  0.000000e+000  8.741629e+000
    endloop
  endfacet
  facet normal  9.914449e-001  0.000000e+000 -1.305261e-001
    outer loop
      vertex -3.283482e+000  3.000000e+000  8.019444e+000
      vertex -3.438328e+000  0.000000e+000  6.843274e+000
      vertex -3.438328e+000  3.000000e+000  6.843274e+000
    endloop
  endfacet
  facet normal  7.933534e-001  0.000000e+000  6.087614e-001
    outer loop
      vertex -3.438328e+000  3.000000e+000  6.843274e+000
      vertex -3.438328e+000  0.000000e+000  6.843274e+000
      vertex -2.716143e+000  0.000000e+000  5.902104e+000
    endloop
  endfacet
  facet normal  7.933534e-001  -0.000000e+000  6.087614e-001
    outer loop
      vertex -3.438328e+000  3.000000e+000  6.843274e+000
      vertex -2.716143e+000  0.000000e+000  5.902104e+000
      vertex -2.716143e+000  3.000000e+000  5.902104e+000
    endloop
  endfacet
  facet normal  1.305262e-001  0.000000e+000  9.914449e-001
    outer loop
      vertex -2.716143e+000  3.000000e+000  5.902104e+000
      vertex -2.716143e+000  0.000000e+000  5.902104e+000
      vertex -1.539973e+000  0.000000e+000  5.747259e+000
    endloop
  endfacet
  facet normal  1.305262e-001  -0.000000e+000  9.914449e-001
    outer loop
      vertex -2.716143e+000  3.000000e+000  5.902104e+000
      vertex -1.539973e+000  0.000000e+000  5.747259e+000
      vertex -1.539973e+000  3.000000e+000  5.747259e+000
    endloop
  endfacet
  facet normal -1.305263e-001  0.000000e+000 -9.914448e-001
    outer loop
      vertex  2.342312e+000  0.000000e+000  8.741629e+000
      vertex -5.541527e-016  0.000000e+000  9.050000e+000
      vertex  2.342312e+000  3.000000e+000  8.741629e+000
    endloop
  endfacet
  facet normal -1.305263e-001  0.000000e+000 -9.914448e-001
    outer loop
      vertex  2.342312e+000  3.000000e+000  8.741629e+000
      vertex -5.541527e-016  0.000000e+000  9.050000e+000
      vertex -5.541527e-016  3.000000e+000  9.050000e+000
    endloop
  endfacet
  facet normal  1.305263e-001  0.000000e+000 -9.914448e-001
    outer loop
      vertex -5.541527e-016  0.000000e+000  9.050000e+000
      vertex -2.342312e+000  0.000000e+000  8.741629e+000
      vertex -5.541527e-016  3.000000e+000  9.050000e+000
    endloop
  endfacet
  facet normal  1.305263e-001  0.000000e+000 -9.914448e-001
    outer loop
      vertex -5.541527e-016  3.000000e+000  9.050000e+000
      vertex -2.342312e+000  0.000000e+000  8.741629e+000
      vertex -2.342312e+000  3.000000e+000  8.741629e+000
    endloop
  endfacet
endsolid CATIA STL
