solid CATIA STL
  facet normal -9.396926e-001  0.000000e+000  3.420202e-001
    outer loop
      vertex  4.449896e+001  0.000000e+000  2.500000e+000
      vertex  4.774780e+001  0.000000e+000  1.142610e+001
      vertex  4.449896e+001  3.000000e+000  2.500000e+000
    endloop
  endfacet
  facet normal -9.396926e-001  0.000000e+000  3.420202e-001
    outer loop
      vertex  4.449896e+001  3.000000e+000  2.500000e+000
      vertex  4.774780e+001  0.000000e+000  1.142610e+001
      vertex  4.774780e+001  1.500000e+000  1.142610e+001
    endloop
  endfacet
  facet normal -9.396926e-001  0.000000e+000  3.420202e-001
    outer loop
      vertex  4.449896e+001  3.000000e+000  2.500000e+000
      vertex  4.774780e+001  1.500000e+000  1.142610e+001
      vertex  4.774780e+001  3.000000e+000  1.142610e+001
    endloop
  endfacet
  facet normal  3.420178e-001  -0.000000e+000  9.396935e-001
    outer loop
      vertex  4.774780e+001  3.000000e+000  1.142610e+001
      vertex  4.774780e+001  1.500000e+000  1.142610e+001
      vertex  4.802303e+001  2.207107e+000  1.132593e+001
    endloop
  endfacet
  facet normal  3.420202e-001  9.566110e-007  9.396926e-001
    outer loop
      vertex  4.774780e+001  3.000000e+000  1.142610e+001
      vertex  4.802303e+001  2.207107e+000  1.132593e+001
      vertex  4.868749e+001  2.500000e+000  1.108408e+001
    endloop
  endfacet
  facet normal  3.420202e-001  8.742018e-007  9.396926e-001
    outer loop
      vertex  4.774780e+001  3.000000e+000  1.142610e+001
      vertex  4.868749e+001  2.500000e+000  1.108408e+001
      vertex  5.056688e+001  3.000000e+000  1.040004e+001
    endloop
  endfacet
  facet normal  3.420202e-001 -1.303010e-006  9.396926e-001
    outer loop
      vertex  4.774780e+001  0.000000e+000  1.142610e+001
      vertex  5.056688e+001  0.000000e+000  1.040004e+001
      vertex  4.935196e+001  7.928932e-001  1.084224e+001
    endloop
  endfacet
  facet normal  3.420176e-001  4.913022e-006  9.396936e-001
    outer loop
      vertex  4.774780e+001  0.000000e+000  1.142610e+001
      vertex  4.935196e+001  7.928932e-001  1.084224e+001
      vertex  4.868749e+001  5.000000e-001  1.108408e+001
    endloop
  endfacet
  facet normal  3.420202e-001 -9.681364e-007  9.396926e-001
    outer loop
      vertex  4.774780e+001  0.000000e+000  1.142610e+001
      vertex  4.868749e+001  5.000000e-001  1.108408e+001
      vertex  4.802303e+001  7.928932e-001  1.132593e+001
    endloop
  endfacet
  facet normal  3.420178e-001  0.000000e+000  9.396935e-001
    outer loop
      vertex  4.774780e+001  0.000000e+000  1.142610e+001
      vertex  4.802303e+001  7.928932e-001  1.132593e+001
      vertex  4.774780e+001  1.500000e+000  1.142610e+001
    endloop
  endfacet
  facet normal  3.420200e-001  1.554618e-006  9.396926e-001
    outer loop
      vertex  5.056688e+001  3.000000e+000  1.040004e+001
      vertex  4.868749e+001  2.500000e+000  1.108408e+001
      vertex  4.935196e+001  2.207107e+000  1.084224e+001
    endloop
  endfacet
  facet normal  3.420209e-001  8.448504e-008  9.396924e-001
    outer loop
      vertex  5.056688e+001  3.000000e+000  1.040004e+001
      vertex  4.935196e+001  2.207107e+000  1.084224e+001
      vertex  4.962719e+001  1.500000e+000  1.074206e+001
    endloop
  endfacet
  facet normal  3.420216e-001 -3.895532e-007  9.396922e-001
    outer loop
      vertex  5.056688e+001  3.000000e+000  1.040004e+001
      vertex  4.962719e+001  1.500000e+000  1.074206e+001
      vertex  4.935196e+001  7.928932e-001  1.084224e+001
    endloop
  endfacet
  facet normal  3.420209e-001  0.000000e+000  9.396923e-001
    outer loop
      vertex  5.056688e+001  3.000000e+000  1.040004e+001
      vertex  4.935196e+001  7.928932e-001  1.084224e+001
      vertex  5.056688e+001  0.000000e+000  1.040004e+001
    endloop
  endfacet
  facet normal -3.420198e-001  0.000000e+000 -9.396928e-001
    outer loop
      vertex  5.116800e+001  3.000000e+000  2.082303e+001
      vertex  5.398708e+001  3.000000e+000  1.979697e+001
      vertex  5.210769e+001  2.500000e+000  2.048101e+001
    endloop
  endfacet
  facet normal -3.420209e-001 -2.351188e-006 -9.396923e-001
    outer loop
      vertex  5.116800e+001  3.000000e+000  2.082303e+001
      vertex  5.210769e+001  2.500000e+000  2.048101e+001
      vertex  5.144323e+001  2.207107e+000  2.072286e+001
    endloop
  endfacet
  facet normal -3.420149e-001  0.000000e+000 -9.396945e-001
    outer loop
      vertex  5.116800e+001  3.000000e+000  2.082303e+001
      vertex  5.144323e+001  2.207107e+000  2.072286e+001
      vertex  5.116800e+001  1.500000e+000  2.082303e+001
    endloop
  endfacet
  facet normal -3.420149e-001  -0.000000e+000 -9.396945e-001
    outer loop
      vertex  5.116800e+001  0.000000e+000  2.082303e+001
      vertex  5.116800e+001  1.500000e+000  2.082303e+001
      vertex  5.144323e+001  7.928932e-001  2.072286e+001
    endloop
  endfacet
  facet normal -3.420209e-001  2.339662e-006 -9.396923e-001
    outer loop
      vertex  5.116800e+001  0.000000e+000  2.082303e+001
      vertex  5.144323e+001  7.928932e-001  2.072286e+001
      vertex  5.210769e+001  5.000000e-001  2.048101e+001
    endloop
  endfacet
  facet normal -3.420176e-001 -4.667371e-006 -9.396936e-001
    outer loop
      vertex  5.116800e+001  0.000000e+000  2.082303e+001
      vertex  5.210769e+001  5.000000e-001  2.048101e+001
      vertex  5.277216e+001  7.928932e-001  2.023917e+001
    endloop
  endfacet
  facet normal -3.420198e-001  3.508099e-007 -9.396927e-001
    outer loop
      vertex  5.116800e+001  0.000000e+000  2.082303e+001
      vertex  5.277216e+001  7.928932e-001  2.023917e+001
      vertex  5.398708e+001  0.000000e+000  1.979697e+001
    endloop
  endfacet
  facet normal -3.420200e-001  0.000000e+000 -9.396927e-001
    outer loop
      vertex  5.398708e+001  3.000000e+000  1.979697e+001
      vertex  5.398708e+001  0.000000e+000  1.979697e+001
      vertex  5.277216e+001  7.928932e-001  2.023917e+001
    endloop
  endfacet
  facet normal -3.420182e-001 -1.057348e-006 -9.396933e-001
    outer loop
      vertex  5.398708e+001  3.000000e+000  1.979697e+001
      vertex  5.277216e+001  7.928932e-001  2.023917e+001
      vertex  5.304739e+001  1.500000e+000  2.013899e+001
    endloop
  endfacet
  facet normal -3.420201e-001  2.469558e-007 -9.396926e-001
    outer loop
      vertex  5.398708e+001  3.000000e+000  1.979697e+001
      vertex  5.304739e+001  1.500000e+000  2.013899e+001
      vertex  5.277216e+001  2.207107e+000  2.023917e+001
    endloop
  endfacet
  facet normal -3.420196e-001 -6.028106e-007 -9.396928e-001
    outer loop
      vertex  5.398708e+001  3.000000e+000  1.979697e+001
      vertex  5.277216e+001  2.207107e+000  2.023917e+001
      vertex  5.210769e+001  2.500000e+000  2.048101e+001
    endloop
  endfacet
  facet normal -9.396926e-001  0.000000e+000  3.420201e-001
    outer loop
      vertex  5.185204e+001  3.000000e+000  2.270242e+001
      vertex  5.116800e+001  3.000000e+000  2.082303e+001
      vertex  5.185204e+001  0.000000e+000  2.270242e+001
    endloop
  endfacet
  facet normal -9.396926e-001  0.000000e+000  3.420201e-001
    outer loop
      vertex  5.185204e+001  0.000000e+000  2.270242e+001
      vertex  5.116800e+001  3.000000e+000  2.082303e+001
      vertex  5.116800e+001  1.500000e+000  2.082303e+001
    endloop
  endfacet
  facet normal -9.396926e-001  0.000000e+000  3.420201e-001
    outer loop
      vertex  5.185204e+001  0.000000e+000  2.270242e+001
      vertex  5.116800e+001  1.500000e+000  2.082303e+001
      vertex  5.116800e+001  0.000000e+000  2.082303e+001
    endloop
  endfacet
  facet normal  3.596048e-001  9.238795e-001 -1.308854e-001
    outer loop
      vertex  4.868749e+001  2.500000e+000  1.108408e+001
      vertex  5.210769e+001  2.500000e+000  2.048101e+001
      vertex  4.935196e+001  2.207107e+000  1.084224e+001
    endloop
  endfacet
  facet normal  3.596048e-001  9.238795e-001 -1.308854e-001
    outer loop
      vertex  4.935196e+001  2.207107e+000  1.084224e+001
      vertex  5.210769e+001  2.500000e+000  2.048101e+001
      vertex  5.277216e+001  2.207107e+000  2.023917e+001
    endloop
  endfacet
  facet normal  8.681625e-001  3.826845e-001 -3.159852e-001
    outer loop
      vertex  4.935196e+001  2.207107e+000  1.084224e+001
      vertex  5.277216e+001  2.207107e+000  2.023917e+001
      vertex  4.962719e+001  1.500000e+000  1.074206e+001
    endloop
  endfacet
  facet normal  8.681625e-001  3.826845e-001 -3.159852e-001
    outer loop
      vertex  4.962719e+001  1.500000e+000  1.074206e+001
      vertex  5.277216e+001  2.207107e+000  2.023917e+001
      vertex  5.304739e+001  1.500000e+000  2.013899e+001
    endloop
  endfacet
  facet normal  8.681624e-001 -3.826845e-001 -3.159852e-001
    outer loop
      vertex  4.962719e+001  1.500000e+000  1.074206e+001
      vertex  5.304739e+001  1.500000e+000  2.013899e+001
      vertex  4.935196e+001  7.928932e-001  1.084224e+001
    endloop
  endfacet
  facet normal  8.681624e-001 -3.826845e-001 -3.159852e-001
    outer loop
      vertex  4.935196e+001  7.928932e-001  1.084224e+001
      vertex  5.304739e+001  1.500000e+000  2.013899e+001
      vertex  5.277216e+001  7.928932e-001  2.023917e+001
    endloop
  endfacet
  facet normal  3.596050e-001 -9.238795e-001 -1.308855e-001
    outer loop
      vertex  4.935196e+001  7.928932e-001  1.084224e+001
      vertex  5.277216e+001  7.928932e-001  2.023917e+001
      vertex  4.868749e+001  5.000000e-001  1.108408e+001
    endloop
  endfacet
  facet normal  3.596050e-001 -9.238795e-001 -1.308855e-001
    outer loop
      vertex  4.868749e+001  5.000000e-001  1.108408e+001
      vertex  5.277216e+001  7.928932e-001  2.023917e+001
      vertex  5.210769e+001  5.000000e-001  2.048101e+001
    endloop
  endfacet
  facet normal -3.596048e-001 -9.238794e-001  1.308854e-001
    outer loop
      vertex  4.868749e+001  5.000000e-001  1.108408e+001
      vertex  5.210769e+001  5.000000e-001  2.048101e+001
      vertex  4.802303e+001  7.928932e-001  1.132593e+001
    endloop
  endfacet
  facet normal -3.596047e-001 -9.238796e-001  1.308854e-001
    outer loop
      vertex  4.802303e+001  7.928932e-001  1.132593e+001
      vertex  5.210769e+001  5.000000e-001  2.048101e+001
      vertex  5.144323e+001  7.928932e-001  2.072286e+001
    endloop
  endfacet
  facet normal -8.681626e-001 -3.826841e-001  3.159852e-001
    outer loop
      vertex  4.802303e+001  7.928932e-001  1.132593e+001
      vertex  5.144323e+001  7.928932e-001  2.072286e+001
      vertex  4.774780e+001  1.500000e+000  1.142610e+001
    endloop
  endfacet
  facet normal -8.681627e-001 -3.826837e-001  3.159853e-001
    outer loop
      vertex  4.774780e+001  1.500000e+000  1.142610e+001
      vertex  5.144323e+001  7.928932e-001  2.072286e+001
      vertex  5.116800e+001  1.500000e+000  2.082303e+001
    endloop
  endfacet
  facet normal -8.681626e-001  3.826841e-001  3.159852e-001
    outer loop
      vertex  4.774780e+001  1.500000e+000  1.142610e+001
      vertex  5.116800e+001  1.500000e+000  2.082303e+001
      vertex  4.802303e+001  2.207107e+000  1.132593e+001
    endloop
  endfacet
  facet normal -8.681628e-001  3.826836e-001  3.159853e-001
    outer loop
      vertex  4.802303e+001  2.207107e+000  1.132593e+001
      vertex  5.116800e+001  1.500000e+000  2.082303e+001
      vertex  5.144323e+001  2.207107e+000  2.072286e+001
    endloop
  endfacet
  facet normal -3.596048e-001  9.238796e-001  1.308854e-001
    outer loop
      vertex  4.802303e+001  2.207107e+000  1.132593e+001
      vertex  5.144323e+001  2.207107e+000  2.072286e+001
      vertex  4.868749e+001  2.500000e+000  1.108408e+001
    endloop
  endfacet
  facet normal -3.596047e-001  9.238796e-001  1.308854e-001
    outer loop
      vertex  4.868749e+001  2.500000e+000  1.108408e+001
      vertex  5.144323e+001  2.207107e+000  2.072286e+001
      vertex  5.210769e+001  2.500000e+000  2.048101e+001
    endloop
  endfacet
  facet normal -9.510565e-001  1.921235e-016  3.090170e-001
    outer loop
      vertex -2.800000e+000  0.000000e+000 -9.005487e-016
      vertex -2.800000e+000 -2.000000e+000  3.429011e-016
      vertex -2.265248e+000  0.000000e+000  1.645799e+000
    endloop
  endfacet
  facet normal -9.510565e-001  0.000000e+000  3.090170e-001
    outer loop
      vertex -2.265248e+000  0.000000e+000  1.645799e+000
      vertex -2.800000e+000 -2.000000e+000  3.429011e-016
      vertex -2.265248e+000 -2.000000e+000  1.645799e+000
    endloop
  endfacet
  facet normal -5.877852e-001  0.000000e+000  8.090170e-001
    outer loop
      vertex -2.265248e+000  0.000000e+000  1.645799e+000
      vertex -2.265248e+000 -2.000000e+000  1.645799e+000
      vertex -8.652476e-001  0.000000e+000  2.662958e+000
    endloop
  endfacet
  facet normal -5.877852e-001  0.000000e+000  8.090170e-001
    outer loop
      vertex -8.652476e-001  0.000000e+000  2.662958e+000
      vertex -2.265248e+000 -2.000000e+000  1.645799e+000
      vertex -8.652476e-001 -2.000000e+000  2.662958e+000
    endloop
  endfacet
  facet normal  0.000000e+000  0.000000e+000  1.000000e+000
    outer loop
      vertex -8.652476e-001  0.000000e+000  2.662958e+000
      vertex -8.652476e-001 -2.000000e+000  2.662958e+000
      vertex  8.652476e-001  0.000000e+000  2.662958e+000
    endloop
  endfacet
  facet normal  0.000000e+000  0.000000e+000  1.000000e+000
    outer loop
      vertex  8.652476e-001  0.000000e+000  2.662958e+000
      vertex -8.652476e-001 -2.000000e+000  2.662958e+000
      vertex  8.652476e-001 -2.000000e+000  2.662958e+000
    endloop
  endfacet
  facet normal  5.877852e-001  -0.000000e+000  8.090170e-001
    outer loop
      vertex  8.652476e-001  0.000000e+000  2.662958e+000
      vertex  8.652476e-001 -2.000000e+000  2.662958e+000
      vertex  2.265248e+000  0.000000e+000  1.645799e+000
    endloop
  endfacet
  facet normal  5.877852e-001  0.000000e+000  8.090170e-001
    outer loop
      vertex  2.265248e+000  0.000000e+000  1.645799e+000
      vertex  8.652476e-001 -2.000000e+000  2.662958e+000
      vertex  2.265248e+000 -2.000000e+000  1.645799e+000
    endloop
  endfacet
  facet normal  9.510565e-001  -0.000000e+000  3.090170e-001
    outer loop
      vertex  2.265248e+000  0.000000e+000  1.645799e+000
      vertex  2.265248e+000 -2.000000e+000  1.645799e+000
      vertex  2.800000e+000  0.000000e+000  0.000000e+000
    endloop
  endfacet
  facet normal  9.510565e-001  0.000000e+000  3.090170e-001
    outer loop
      vertex  2.800000e+000  0.000000e+000  0.000000e+000
      vertex  2.265248e+000 -2.000000e+000  1.645799e+000
      vertex  2.800000e+000 -2.000000e+000  0.000000e+000
    endloop
  endfacet
  facet normal  9.510565e-001  0.000000e+000 -3.090170e-001
    outer loop
      vertex  2.800000e+000  0.000000e+000  0.000000e+000
      vertex  2.800000e+000 -2.000000e+000  0.000000e+000
      vertex  2.265248e+000  0.000000e+000 -1.645799e+000
    endloop
  endfacet
  facet normal  9.510565e-001  0.000000e+000 -3.090170e-001
    outer loop
      vertex  2.265248e+000  0.000000e+000 -1.645799e+000
      vertex  2.800000e+000 -2.000000e+000  0.000000e+000
      vertex  2.265248e+000 -2.000000e+000 -1.645799e+000
    endloop
  endfacet
  facet normal  5.877852e-001  0.000000e+000 -8.090170e-001
    outer loop
      vertex  2.265248e+000  0.000000e+000 -1.645799e+000
      vertex  2.265248e+000 -2.000000e+000 -1.645799e+000
      vertex  8.652476e-001  0.000000e+000 -2.662958e+000
    endloop
  endfacet
  facet normal  5.877852e-001  0.000000e+000 -8.090170e-001
    outer loop
      vertex  8.652476e-001  0.000000e+000 -2.662958e+000
      vertex  2.265248e+000 -2.000000e+000 -1.645799e+000
      vertex  8.652476e-001 -2.000000e+000 -2.662958e+000
    endloop
  endfacet
  facet normal  0.000000e+000  0.000000e+000 -1.000000e+000
    outer loop
      vertex  8.652476e-001  0.000000e+000 -2.662958e+000
      vertex  8.652476e-001 -2.000000e+000 -2.662958e+000
      vertex -8.652476e-001  0.000000e+000 -2.662958e+000
    endloop
  endfacet
  facet normal  0.000000e+000  0.000000e+000 -1.000000e+000
    outer loop
      vertex -8.652476e-001  0.000000e+000 -2.662958e+000
      vertex  8.652476e-001 -2.000000e+000 -2.662958e+000
      vertex -8.652476e-001 -2.000000e+000 -2.662958e+000
    endloop
  endfacet
  facet normal -5.877852e-001  0.000000e+000 -8.090170e-001
    outer loop
      vertex -8.652476e-001  0.000000e+000 -2.662958e+000
      vertex -8.652476e-001 -2.000000e+000 -2.662958e+000
      vertex -2.265248e+000  0.000000e+000 -1.645799e+000
    endloop
  endfacet
  facet normal -5.877852e-001  -0.000000e+000 -8.090170e-001
    outer loop
      vertex -2.265248e+000  0.000000e+000 -1.645799e+000
      vertex -8.652476e-001 -2.000000e+000 -2.662958e+000
      vertex -2.265248e+000 -2.000000e+000 -1.645799e+000
    endloop
  endfacet
  facet normal -9.510565e-001  0.000000e+000 -3.090170e-001
    outer loop
      vertex -2.265248e+000  0.000000e+000 -1.645799e+000
      vertex -2.265248e+000 -2.000000e+000 -1.645799e+000
      vertex -2.800000e+000  0.000000e+000 -9.005487e-016
    endloop
  endfacet
  facet normal -9.510565e-001 -1.921235e-016 -3.090170e-001
    outer loop
      vertex -2.800000e+000  0.000000e+000 -9.005487e-016
      vertex -2.265248e+000 -2.000000e+000 -1.645799e+000
      vertex -2.800000e+000 -2.000000e+000  3.429011e-016
    endloop
  endfacet
  facet normal  3.826835e-001  0.000000e+000 -9.238796e-001
    outer loop
      vertex  1.224647e-016  6.000000e+000  2.000000e+000
      vertex -1.414214e+000 -2.000000e+000  1.414214e+000
      vertex -1.414214e+000  6.000000e+000  1.414214e+000
    endloop
  endfacet
  facet normal  9.238796e-001  0.000000e+000 -3.826835e-001
    outer loop
      vertex -1.414214e+000  6.000000e+000  1.414214e+000
      vertex -1.414214e+000 -2.000000e+000  1.414214e+000
      vertex -2.000000e+000 -2.000000e+000  2.449294e-016
    endloop
  endfacet
  facet normal  9.238796e-001  0.000000e+000 -3.826835e-001
    outer loop
      vertex -1.414214e+000  6.000000e+000  1.414214e+000
      vertex -2.000000e+000 -2.000000e+000  2.449294e-016
      vertex -2.000000e+000  6.000000e+000  2.449294e-016
    endloop
  endfacet
  facet normal  3.826835e-001  0.000000e+000 -9.238796e-001
    outer loop
      vertex -1.414214e+000 -2.000000e+000  1.414214e+000
      vertex  1.224647e-016  6.000000e+000  2.000000e+000
      vertex  1.224647e-016 -2.000000e+000  2.000000e+000
    endloop
  endfacet
  facet normal -3.826835e-001  0.000000e+000 -9.238796e-001
    outer loop
      vertex  1.224647e-016 -2.000000e+000  2.000000e+000
      vertex  1.224647e-016  6.000000e+000  2.000000e+000
      vertex  1.414214e+000  6.000000e+000  1.414214e+000
    endloop
  endfacet
  facet normal -3.826835e-001  -0.000000e+000 -9.238796e-001
    outer loop
      vertex  1.224647e-016 -2.000000e+000  2.000000e+000
      vertex  1.414214e+000  6.000000e+000  1.414214e+000
      vertex  1.414214e+000 -2.000000e+000  1.414214e+000
    endloop
  endfacet
  facet normal -9.238796e-001  0.000000e+000 -3.826835e-001
    outer loop
      vertex  1.414214e+000 -2.000000e+000  1.414214e+000
      vertex  1.414214e+000  6.000000e+000  1.414214e+000
      vertex  2.000000e+000  6.000000e+000  0.000000e+000
    endloop
  endfacet
  facet normal -9.238796e-001  -0.000000e+000 -3.826835e-001
    outer loop
      vertex  1.414214e+000 -2.000000e+000  1.414214e+000
      vertex  2.000000e+000  6.000000e+000  0.000000e+000
      vertex  2.000000e+000 -2.000000e+000  0.000000e+000
    endloop
  endfacet
  facet normal -3.826835e-001  0.000000e+000  9.238796e-001
    outer loop
      vertex -3.673940e-016  6.000000e+000 -2.000000e+000
      vertex  1.414214e+000 -2.000000e+000 -1.414214e+000
      vertex  1.414214e+000  6.000000e+000 -1.414214e+000
    endloop
  endfacet
  facet normal -9.238796e-001  0.000000e+000  3.826835e-001
    outer loop
      vertex  1.414214e+000  6.000000e+000 -1.414214e+000
      vertex  1.414214e+000 -2.000000e+000 -1.414214e+000
      vertex  2.000000e+000 -2.000000e+000  0.000000e+000
    endloop
  endfacet
  facet normal -9.238796e-001  0.000000e+000  3.826835e-001
    outer loop
      vertex  1.414214e+000  6.000000e+000 -1.414214e+000
      vertex  2.000000e+000 -2.000000e+000  0.000000e+000
      vertex  2.000000e+000  6.000000e+000  0.000000e+000
    endloop
  endfacet
  facet normal -3.826835e-001  0.000000e+000  9.238796e-001
    outer loop
      vertex  1.414214e+000 -2.000000e+000 -1.414214e+000
      vertex -3.673940e-016  6.000000e+000 -2.000000e+000
      vertex -3.673940e-016 -2.000000e+000 -2.000000e+000
    endloop
  endfacet
  facet normal  3.826835e-001  -0.000000e+000  9.238796e-001
    outer loop
      vertex -3.673940e-016 -2.000000e+000 -2.000000e+000
      vertex -3.673940e-016  6.000000e+000 -2.000000e+000
      vertex -1.414214e+000  6.000000e+000 -1.414214e+000
    endloop
  endfacet
  facet normal  3.826835e-001  0.000000e+000  9.238796e-001
    outer loop
      vertex -3.673940e-016 -2.000000e+000 -2.000000e+000
      vertex -1.414214e+000  6.000000e+000 -1.414214e+000
      vertex -1.414214e+000 -2.000000e+000 -1.414214e+000
    endloop
  endfacet
  facet normal  9.238796e-001  -0.000000e+000  3.826835e-001
    outer loop
      vertex -1.414214e+000 -2.000000e+000 -1.414214e+000
      vertex -1.414214e+000  6.000000e+000 -1.414214e+000
      vertex -2.000000e+000  6.000000e+000  2.449294e-016
    endloop
  endfacet
  facet normal  9.238796e-001  0.000000e+000  3.826835e-001
    outer loop
      vertex -1.414214e+000 -2.000000e+000 -1.414214e+000
      vertex -2.000000e+000  6.000000e+000  2.449294e-016
      vertex -2.000000e+000 -2.000000e+000  2.449294e-016
    endloop
  endfacet
  facet normal  0.000000e+000 -9.999999e-001  0.000000e+000
    outer loop
      vertex -8.652476e-001 -2.000000e+000  2.662958e+000
      vertex -2.265248e+000 -2.000000e+000  1.645799e+000
      vertex  8.652476e-001 -2.000000e+000  2.662958e+000
    endloop
  endfacet
  facet normal  0.000000e+000 -1.000000e+000  0.000000e+000
    outer loop
      vertex  8.652476e-001 -2.000000e+000  2.662958e+000
      vertex -2.265248e+000 -2.000000e+000  1.645799e+000
      vertex  1.224647e-016 -2.000000e+000  2.000000e+000
    endloop
  endfacet
  facet normal  0.000000e+000 -1.000000e+000  0.000000e+000
    outer loop
      vertex  8.652476e-001 -2.000000e+000  2.662958e+000
      vertex  1.224647e-016 -2.000000e+000  2.000000e+000
      vertex  2.265248e+000 -2.000000e+000  1.645799e+000
    endloop
  endfacet
  facet normal  -0.000000e+000 -9.999999e-001  0.000000e+000
    outer loop
      vertex  2.265248e+000 -2.000000e+000  1.645799e+000
      vertex  1.224647e-016 -2.000000e+000  2.000000e+000
      vertex  1.414214e+000 -2.000000e+000  1.414214e+000
    endloop
  endfacet
  facet normal  0.000000e+000 -1.000000e+000  0.000000e+000
    outer loop
      vertex  2.265248e+000 -2.000000e+000  1.645799e+000
      vertex  1.414214e+000 -2.000000e+000  1.414214e+000
      vertex  2.800000e+000 -2.000000e+000  0.000000e+000
    endloop
  endfacet
  facet normal  0.000000e+000 -1.000000e+000  0.000000e+000
    outer loop
      vertex  2.800000e+000 -2.000000e+000  0.000000e+000
      vertex  1.414214e+000 -2.000000e+000  1.414214e+000
      vertex  2.000000e+000 -2.000000e+000  0.000000e+000
    endloop
  endfacet
  facet normal  0.000000e+000 -1.000000e+000  0.000000e+000
    outer loop
      vertex  2.800000e+000 -2.000000e+000  0.000000e+000
      vertex  2.000000e+000 -2.000000e+000  0.000000e+000
      vertex  2.265248e+000 -2.000000e+000 -1.645799e+000
    endloop
  endfacet
  facet normal  0.000000e+000 -1.000000e+000  0.000000e+000
    outer loop
      vertex  2.265248e+000 -2.000000e+000 -1.645799e+000
      vertex  2.000000e+000 -2.000000e+000  0.000000e+000
      vertex  1.414214e+000 -2.000000e+000 -1.414214e+000
    endloop
  endfacet
  facet normal  0.000000e+000 -1.000000e+000  -0.000000e+000
    outer loop
      vertex  2.265248e+000 -2.000000e+000 -1.645799e+000
      vertex  1.414214e+000 -2.000000e+000 -1.414214e+000
      vertex  8.652476e-001 -2.000000e+000 -2.662958e+000
    endloop
  endfacet
  facet normal  0.000000e+000 -1.000000e+000  0.000000e+000
    outer loop
      vertex  8.652476e-001 -2.000000e+000 -2.662958e+000
      vertex  1.414214e+000 -2.000000e+000 -1.414214e+000
      vertex -3.673940e-016 -2.000000e+000 -2.000000e+000
    endloop
  endfacet
  facet normal  0.000000e+000 -1.000000e+000  -0.000000e+000
    outer loop
      vertex  8.652476e-001 -2.000000e+000 -2.662958e+000
      vertex -3.673940e-016 -2.000000e+000 -2.000000e+000
      vertex -8.652476e-001 -2.000000e+000 -2.662958e+000
    endloop
  endfacet
  facet normal  -0.000000e+000 -1.000000e+000  0.000000e+000
    outer loop
      vertex -8.652476e-001 -2.000000e+000 -2.662958e+000
      vertex -3.673940e-016 -2.000000e+000 -2.000000e+000
      vertex -2.265248e+000 -2.000000e+000 -1.645799e+000
    endloop
  endfacet
  facet normal  0.000000e+000 -9.999999e-001  0.000000e+000
    outer loop
      vertex -2.265248e+000 -2.000000e+000 -1.645799e+000
      vertex -3.673940e-016 -2.000000e+000 -2.000000e+000
      vertex -1.414214e+000 -2.000000e+000 -1.414214e+000
    endloop
  endfacet
  facet normal  -0.000000e+000 -1.000000e+000  0.000000e+000
    outer loop
      vertex -2.265248e+000 -2.000000e+000 -1.645799e+000
      vertex -1.414214e+000 -2.000000e+000 -1.414214e+000
      vertex -2.800000e+000 -2.000000e+000  3.429011e-016
    endloop
  endfacet
  facet normal  0.000000e+000 -1.000000e+000  0.000000e+000
    outer loop
      vertex -2.800000e+000 -2.000000e+000  3.429011e-016
      vertex -1.414214e+000 -2.000000e+000 -1.414214e+000
      vertex -2.000000e+000 -2.000000e+000  2.449294e-016
    endloop
  endfacet
  facet normal  0.000000e+000 -1.000000e+000  0.000000e+000
    outer loop
      vertex -2.800000e+000 -2.000000e+000  3.429011e-016
      vertex -2.000000e+000 -2.000000e+000  2.449294e-016
      vertex -2.265248e+000 -2.000000e+000  1.645799e+000
    endloop
  endfacet
  facet normal  0.000000e+000 -1.000000e+000  0.000000e+000
    outer loop
      vertex -2.265248e+000 -2.000000e+000  1.645799e+000
      vertex -2.000000e+000 -2.000000e+000  2.449294e-016
      vertex -1.414214e+000 -2.000000e+000  1.414214e+000
    endloop
  endfacet
  facet normal  0.000000e+000 -1.000000e+000  0.000000e+000
    outer loop
      vertex -2.265248e+000 -2.000000e+000  1.645799e+000
      vertex -1.414214e+000 -2.000000e+000  1.414214e+000
      vertex  1.224647e-016 -2.000000e+000  2.000000e+000
    endloop
  endfacet
  facet normal  0.000000e+000 -9.999999e-001  0.000000e+000
    outer loop
      vertex -1.414214e+000  6.000000e+000  1.414214e+000
      vertex  1.414214e+000  6.000000e+000  1.414214e+000
      vertex  1.224647e-016  6.000000e+000  2.000000e+000
    endloop
  endfacet
  facet normal  0.000000e+000 -1.000000e+000  0.000000e+000
    outer loop
      vertex  1.414214e+000  6.000000e+000  1.414214e+000
      vertex -1.414214e+000  6.000000e+000  1.414214e+000
      vertex  2.000000e+000  6.000000e+000  0.000000e+000
    endloop
  endfacet
  facet normal  0.000000e+000 -9.999999e-001  0.000000e+000
    outer loop
      vertex  2.000000e+000  6.000000e+000  0.000000e+000
      vertex -1.414214e+000  6.000000e+000  1.414214e+000
      vertex -2.000000e+000  6.000000e+000  2.449294e-016
    endloop
  endfacet
  facet normal  0.000000e+000 -9.999999e-001  0.000000e+000
    outer loop
      vertex  2.000000e+000  6.000000e+000  0.000000e+000
      vertex -2.000000e+000  6.000000e+000  2.449294e-016
      vertex  1.414214e+000  6.000000e+000 -1.414214e+000
    endloop
  endfacet
  facet normal  0.000000e+000 -1.000000e+000  0.000000e+000
    outer loop
      vertex  1.414214e+000  6.000000e+000 -1.414214e+000
      vertex -2.000000e+000  6.000000e+000  2.449294e-016
      vertex -1.414214e+000  6.000000e+000 -1.414214e+000
    endloop
  endfacet
  facet normal  0.000000e+000 -9.999999e-001  0.000000e+000
    outer loop
      vertex  1.414214e+000  6.000000e+000 -1.414214e+000
      vertex -1.414214e+000  6.000000e+000 -1.414214e+000
      vertex -3.673940e-016  6.000000e+000 -2.000000e+000
    endloop
  endfacet
  facet normal  0.000000e+000 -1.000000e+000  0.000000e+000
    outer loop
      vertex  8.652476e-001  0.000000e+000  2.662958e+000
      vertex  2.265248e+000  0.000000e+000  1.645799e+000
      vertex  9.682458e+000  0.000000e+000  2.500000e+000
    endloop
  endfacet
  facet normal  0.000000e+000 -1.000000e+000  0.000000e+000
    outer loop
      vertex -5.541527e-016  0.000000e+000  9.050000e+000
      vertex -4.683781e+000  0.000000e+000  8.835281e+000
      vertex -2.342312e+000  0.000000e+000  8.741629e+000
    endloop
  endfacet
  facet normal  -0.000000e+000 -1.000000e+000  -0.000000e+000
    outer loop
      vertex  4.800000e+001  0.000000e+000 -2.500000e+000
      vertex  4.449896e+001  0.000000e+000  2.500000e+000
      vertex  9.682458e+000  0.000000e+000  2.500000e+000
    endloop
  endfacet
  facet normal  0.000000e+000 -9.999999e-001  -0.000000e+000
    outer loop
      vertex  4.800000e+001  0.000000e+000 -2.500000e+000
      vertex  9.682458e+000  0.000000e+000  2.500000e+000
      vertex  2.265248e+000  0.000000e+000  1.645799e+000
    endloop
  endfacet
  facet normal  0.000000e+000 -1.000000e+000  0.000000e+000
    outer loop
      vertex  4.800000e+001  0.000000e+000 -2.500000e+000
      vertex  2.265248e+000  0.000000e+000  1.645799e+000
      vertex  2.800000e+000  0.000000e+000  0.000000e+000
    endloop
  endfacet
  facet normal  0.000000e+000 -1.000000e+000  -0.000000e+000
    outer loop
      vertex  4.800000e+001  0.000000e+000 -2.500000e+000
      vertex  2.800000e+000  0.000000e+000  0.000000e+000
      vertex  2.265248e+000  0.000000e+000 -1.645799e+000
    endloop
  endfacet
  facet normal  0.000000e+000 -1.000000e+000  0.000000e+000
    outer loop
      vertex  4.800000e+001  0.000000e+000 -2.500000e+000
      vertex  2.265248e+000  0.000000e+000 -1.645799e+000
      vertex  9.682458e+000  0.000000e+000 -2.500000e+000
    endloop
  endfacet
  facet normal  0.000000e+000 -9.999999e-001  -0.000000e+000
    outer loop
      vertex -8.652476e-001  0.000000e+000 -2.662958e+000
      vertex -2.265248e+000  0.000000e+000 -1.645799e+000
      vertex -9.355038e+000  0.000000e+000 -3.533166e+000
    endloop
  endfacet
  facet normal  0.000000e+000 -1.000000e+000  0.000000e+000
    outer loop
      vertex -8.652476e-001  0.000000e+000 -2.662958e+000
      vertex -9.355038e+000  0.000000e+000 -3.533166e+000
      vertex -7.503347e+000  0.000000e+000 -6.610581e+000
    endloop
  endfacet
  facet normal  0.000000e+000 -9.999999e-001  0.000000e+000
    outer loop
      vertex -8.652476e-001  0.000000e+000 -2.662958e+000
      vertex -7.503347e+000  0.000000e+000 -6.610581e+000
      vertex -4.683781e+000  0.000000e+000 -8.835281e+000
    endloop
  endfacet
  facet normal  0.000000e+000 -1.000000e+000  0.000000e+000
    outer loop
      vertex -8.652476e-001  0.000000e+000 -2.662958e+000
      vertex -4.683781e+000  0.000000e+000 -8.835281e+000
      vertex -1.260043e+000  0.000000e+000 -9.920297e+000
    endloop
  endfacet
  facet normal  0.000000e+000 -1.000000e+000  -0.000000e+000
    outer loop
      vertex  8.174685e+000  0.000000e+000  5.759733e+000
      vertex  5.612439e+000  0.000000e+000  8.276505e+000
      vertex  3.283482e+000  0.000000e+000  8.019444e+000
    endloop
  endfacet
  facet normal  0.000000e+000 -1.000000e+000  0.000000e+000
    outer loop
      vertex  8.174685e+000  0.000000e+000  5.759733e+000
      vertex  3.283482e+000  0.000000e+000  8.019444e+000
      vertex  3.438328e+000  0.000000e+000  6.843274e+000
    endloop
  endfacet
  facet normal  0.000000e+000 -1.000000e+000  -0.000000e+000
    outer loop
      vertex  8.174685e+000  0.000000e+000  5.759733e+000
      vertex  3.438328e+000  0.000000e+000  6.843274e+000
      vertex  2.716143e+000  0.000000e+000  5.902104e+000
    endloop
  endfacet
  facet normal  0.000000e+000 -1.000000e+000  -0.000000e+000
    outer loop
      vertex  8.174685e+000  0.000000e+000  5.759733e+000
      vertex  2.716143e+000  0.000000e+000  5.902104e+000
      vertex  1.539973e+000  0.000000e+000  5.747259e+000
    endloop
  endfacet
  facet normal  0.000000e+000 -9.999999e-001  -0.000000e+000
    outer loop
      vertex  8.174685e+000  0.000000e+000  5.759733e+000
      vertex  1.539973e+000  0.000000e+000  5.747259e+000
      vertex  8.652476e-001  0.000000e+000  2.662958e+000
    endloop
  endfacet
  facet normal  0.000000e+000 -1.000000e+000  0.000000e+000
    outer loop
      vertex  8.174685e+000  0.000000e+000  5.759733e+000
      vertex  8.652476e-001  0.000000e+000  2.662958e+000
      vertex  9.682458e+000  0.000000e+000  2.500000e+000
    endloop
  endfacet
  facet normal  0.000000e+000 -1.000000e+000  -0.000000e+000
    outer loop
      vertex  5.398708e+001  0.000000e+000  1.979697e+001
      vertex  5.185204e+001  0.000000e+000  2.270242e+001
      vertex  5.116800e+001  0.000000e+000  2.082303e+001
    endloop
  endfacet
  facet normal  0.000000e+000 -9.999999e-001  0.000000e+000
    outer loop
      vertex  5.185204e+001  0.000000e+000  2.270242e+001
      vertex  5.398708e+001  0.000000e+000  1.979697e+001
      vertex  5.655050e+001  0.000000e+000  2.099232e+001
    endloop
  endfacet
  facet normal  0.000000e+000 -1.000000e+000  0.000000e+000
    outer loop
      vertex  5.655050e+001  0.000000e+000  2.099232e+001
      vertex  5.398708e+001  0.000000e+000  1.979697e+001
      vertex  5.056688e+001  0.000000e+000  1.040004e+001
    endloop
  endfacet
  facet normal  0.000000e+000 -1.000000e+000  -0.000000e+000
    outer loop
      vertex  5.655050e+001  0.000000e+000  2.099232e+001
      vertex  5.056688e+001  0.000000e+000  1.040004e+001
      vertex  4.800000e+001  0.000000e+000 -2.500000e+000
    endloop
  endfacet
  facet normal  0.000000e+000 -1.000000e+000  0.000000e+000
    outer loop
      vertex  4.800000e+001  0.000000e+000 -2.500000e+000
      vertex  5.056688e+001  0.000000e+000  1.040004e+001
      vertex  4.774780e+001  0.000000e+000  1.142610e+001
    endloop
  endfacet
  facet normal  0.000000e+000 -1.000000e+000  -0.000000e+000
    outer loop
      vertex  4.800000e+001  0.000000e+000 -2.500000e+000
      vertex  4.774780e+001  0.000000e+000  1.142610e+001
      vertex  4.449896e+001  0.000000e+000  2.500000e+000
    endloop
  endfacet
  facet normal  0.000000e+000 -1.000000e+000  0.000000e+000
    outer loop
      vertex  2.265248e+000  0.000000e+000 -1.645799e+000
      vertex  8.652476e-001  0.000000e+000 -2.662958e+000
      vertex  9.682458e+000  0.000000e+000 -2.500000e+000
    endloop
  endfacet
  facet normal  0.000000e+000 -1.000000e+000  0.000000e+000
    outer loop
      vertex  9.682458e+000  0.000000e+000 -2.500000e+000
      vertex  8.652476e-001  0.000000e+000 -2.662958e+000
      vertex  8.174685e+000  0.000000e+000 -5.759733e+000
    endloop
  endfacet
  facet normal  -0.000000e+000 -1.000000e+000  0.000000e+000
    outer loop
      vertex -1.260043e+000  0.000000e+000 -9.920297e+000
      vertex  2.326231e+000  0.000000e+000 -9.725670e+000
      vertex -8.652476e-001  0.000000e+000 -2.662958e+000
    endloop
  endfacet
  facet normal  0.000000e+000 -1.000000e+000  0.000000e+000
    outer loop
      vertex -8.652476e-001  0.000000e+000 -2.662958e+000
      vertex  2.326231e+000  0.000000e+000 -9.725670e+000
      vertex  8.652476e-001  0.000000e+000 -2.662958e+000
    endloop
  endfacet
  facet normal  -0.000000e+000 -9.999999e-001  0.000000e+000
    outer loop
      vertex  2.326231e+000  0.000000e+000 -9.725670e+000
      vertex  5.612439e+000  0.000000e+000 -8.276505e+000
      vertex  8.652476e-001  0.000000e+000 -2.662958e+000
    endloop
  endfacet
  facet normal  0.000000e+000 -1.000000e+000  0.000000e+000
    outer loop
      vertex  8.652476e-001  0.000000e+000 -2.662958e+000
      vertex  5.612439e+000  0.000000e+000 -8.276505e+000
      vertex  8.174685e+000  0.000000e+000 -5.759733e+000
    endloop
  endfacet
  facet normal  0.000000e+000 -1.000000e+000  0.000000e+000
    outer loop
      vertex  1.539973e+000  0.000000e+000  5.747259e+000
      vertex -1.685498e-015  0.000000e+000  5.950000e+000
      vertex  8.652476e-001  0.000000e+000  2.662958e+000
    endloop
  endfacet
  facet normal  0.000000e+000 -9.999999e-001  0.000000e+000
    outer loop
      vertex  8.652476e-001  0.000000e+000  2.662958e+000
      vertex -1.685498e-015  0.000000e+000  5.950000e+000
      vertex -1.539973e+000  0.000000e+000  5.747259e+000
    endloop
  endfacet
  facet normal  0.000000e+000 -1.000000e+000  0.000000e+000
    outer loop
      vertex  8.652476e-001  0.000000e+000  2.662958e+000
      vertex -1.539973e+000  0.000000e+000  5.747259e+000
      vertex -8.652476e-001  0.000000e+000  2.662958e+000
    endloop
  endfacet
  facet normal  0.000000e+000 -1.000000e+000  0.000000e+000
    outer loop
      vertex -8.652476e-001  0.000000e+000  2.662958e+000
      vertex -1.539973e+000  0.000000e+000  5.747259e+000
      vertex -2.716143e+000  0.000000e+000  5.902104e+000
    endloop
  endfacet
  facet normal  0.000000e+000 -1.000000e+000  -0.000000e+000
    outer loop
      vertex -8.652476e-001  0.000000e+000  2.662958e+000
      vertex -2.716143e+000  0.000000e+000  5.902104e+000
      vertex -9.355038e+000  0.000000e+000  3.533166e+000
    endloop
  endfacet
  facet normal  0.000000e+000 -1.000000e+000  0.000000e+000
    outer loop
      vertex -9.355038e+000  0.000000e+000  3.533166e+000
      vertex -2.716143e+000  0.000000e+000  5.902104e+000
      vertex -3.438328e+000  0.000000e+000  6.843274e+000
    endloop
  endfacet
  facet normal  0.000000e+000 -1.000000e+000  0.000000e+000
    outer loop
      vertex -9.355038e+000  0.000000e+000  3.533166e+000
      vertex -3.438328e+000  0.000000e+000  6.843274e+000
      vertex -7.503347e+000  0.000000e+000  6.610581e+000
    endloop
  endfacet
  facet normal  0.000000e+000 -1.000000e+000  -0.000000e+000
    outer loop
      vertex  2.342312e+000  0.000000e+000  8.741629e+000
      vertex  2.326231e+000  0.000000e+000  9.725670e+000
      vertex -5.541527e-016  0.000000e+000  9.050000e+000
    endloop
  endfacet
  facet normal  0.000000e+000 -1.000000e+000  0.000000e+000
    outer loop
      vertex -5.541527e-016  0.000000e+000  9.050000e+000
      vertex  2.326231e+000  0.000000e+000  9.725670e+000
      vertex -1.260043e+000  0.000000e+000  9.920297e+000
    endloop
  endfacet
  facet normal  0.000000e+000 -1.000000e+000  -0.000000e+000
    outer loop
      vertex -5.541527e-016  0.000000e+000  9.050000e+000
      vertex -1.260043e+000  0.000000e+000  9.920297e+000
      vertex -4.683781e+000  0.000000e+000  8.835281e+000
    endloop
  endfacet
  facet normal  -0.000000e+000 -1.000000e+000  0.000000e+000
    outer loop
      vertex  3.283482e+000  0.000000e+000  8.019444e+000
      vertex  5.612439e+000  0.000000e+000  8.276505e+000
      vertex  2.342312e+000  0.000000e+000  8.741629e+000
    endloop
  endfacet
  facet normal  0.000000e+000 -1.000000e+000  0.000000e+000
    outer loop
      vertex  2.342312e+000  0.000000e+000  8.741629e+000
      vertex  5.612439e+000  0.000000e+000  8.276505e+000
      vertex  2.326231e+000  0.000000e+000  9.725670e+000
    endloop
  endfacet
  facet normal  0.000000e+000 -1.000000e+000  0.000000e+000
    outer loop
      vertex -3.438328e+000  0.000000e+000  6.843274e+000
      vertex -3.283482e+000  0.000000e+000  8.019444e+000
      vertex -7.503347e+000  0.000000e+000  6.610581e+000
    endloop
  endfacet
  facet normal  0.000000e+000 -1.000000e+000  0.000000e+000
    outer loop
      vertex -7.503347e+000  0.000000e+000  6.610581e+000
      vertex -3.283482e+000  0.000000e+000  8.019444e+000
      vertex -2.342312e+000  0.000000e+000  8.741629e+000
    endloop
  endfacet
  facet normal  -0.000000e+000 -1.000000e+000  0.000000e+000
    outer loop
      vertex -7.503347e+000  0.000000e+000  6.610581e+000
      vertex -2.342312e+000  0.000000e+000  8.741629e+000
      vertex -4.683781e+000  0.000000e+000  8.835281e+000
    endloop
  endfacet
  facet normal  0.000000e+000 -1.000000e+000  0.000000e+000
    outer loop
      vertex -2.800000e+000  0.000000e+000 -9.005487e-016
      vertex -2.265248e+000  0.000000e+000  1.645799e+000
      vertex -1.000000e+001  0.000000e+000  0.000000e+000
    endloop
  endfacet
  facet normal  0.000000e+000 -1.000000e+000  0.000000e+000
    outer loop
      vertex -1.000000e+001  0.000000e+000  0.000000e+000
      vertex -2.265248e+000  0.000000e+000  1.645799e+000
      vertex -8.652476e-001  0.000000e+000  2.662958e+000
    endloop
  endfacet
  facet normal  -0.000000e+000 -9.999999e-001  0.000000e+000
    outer loop
      vertex -1.000000e+001  0.000000e+000  0.000000e+000
      vertex -8.652476e-001  0.000000e+000  2.662958e+000
      vertex -9.355038e+000  0.000000e+000  3.533166e+000
    endloop
  endfacet
  facet normal  0.000000e+000 -1.000000e+000  -0.000000e+000
    outer loop
      vertex -2.265248e+000  0.000000e+000 -1.645799e+000
      vertex -2.800000e+000  0.000000e+000 -9.005487e-016
      vertex -9.355038e+000  0.000000e+000 -3.533166e+000
    endloop
  endfacet
  facet normal  0.000000e+000 -1.000000e+000  0.000000e+000
    outer loop
      vertex -9.355038e+000  0.000000e+000 -3.533166e+000
      vertex -2.800000e+000  0.000000e+000 -9.005487e-016
      vertex -1.000000e+001  0.000000e+000  0.000000e+000
    endloop
  endfacet
  facet normal  0.000000e+000  1.000000e+000  -0.000000e+000
    outer loop
      vertex  9.682458e+000  3.000000e+000  2.500000e+000
      vertex  2.265248e+000  3.000000e+000  1.645799e+000
      vertex  8.652476e-001  3.000000e+000  2.662958e+000
    endloop
  endfacet
  facet normal  -0.000000e+000  1.000000e+000  0.000000e+000
    outer loop
      vertex -2.342312e+000  3.000000e+000  8.741629e+000
      vertex -4.683781e+000  3.000000e+000  8.835281e+000
      vertex -5.541527e-016  3.000000e+000  9.050000e+000
    endloop
  endfacet
  facet normal  0.000000e+000  1.000000e+000  -0.000000e+000
    outer loop
      vertex  4.800000e+001  3.000000e+000 -2.500000e+000
      vertex  9.682458e+000  3.000000e+000 -2.500000e+000
      vertex  2.265248e+000  3.000000e+000 -1.645799e+000
    endloop
  endfacet
  facet normal  -0.000000e+000  1.000000e+000  0.000000e+000
    outer loop
      vertex  4.800000e+001  3.000000e+000 -2.500000e+000
      vertex  2.265248e+000  3.000000e+000 -1.645799e+000
      vertex  2.800000e+000  3.000000e+000  3.429011e-016
    endloop
  endfacet
  facet normal  -0.000000e+000  1.000000e+000  -0.000000e+000
    outer loop
      vertex  4.800000e+001  3.000000e+000 -2.500000e+000
      vertex  2.800000e+000  3.000000e+000  3.429011e-016
      vertex  2.265248e+000  3.000000e+000  1.645799e+000
    endloop
  endfacet
  facet normal  -0.000000e+000  9.999999e-001  0.000000e+000
    outer loop
      vertex  4.800000e+001  3.000000e+000 -2.500000e+000
      vertex  2.265248e+000  3.000000e+000  1.645799e+000
      vertex  9.682458e+000  3.000000e+000  2.500000e+000
    endloop
  endfacet
  facet normal  -0.000000e+000  1.000000e+000  0.000000e+000
    outer loop
      vertex  4.800000e+001  3.000000e+000 -2.500000e+000
      vertex  9.682458e+000  3.000000e+000  2.500000e+000
      vertex  4.449896e+001  3.000000e+000  2.500000e+000
    endloop
  endfacet
  facet normal  0.000000e+000  1.000000e+000  -0.000000e+000
    outer loop
      vertex -8.652476e-001  3.000000e+000 -2.662958e+000
      vertex -1.260043e+000  3.000000e+000 -9.920297e+000
      vertex -4.683781e+000  3.000000e+000 -8.835281e+000
    endloop
  endfacet
  facet normal  0.000000e+000  1.000000e+000  -0.000000e+000
    outer loop
      vertex -8.652476e-001  3.000000e+000 -2.662958e+000
      vertex -4.683781e+000  3.000000e+000 -8.835281e+000
      vertex -7.503347e+000  3.000000e+000 -6.610581e+000
    endloop
  endfacet
  facet normal  0.000000e+000  1.000000e+000  -0.000000e+000
    outer loop
      vertex -8.652476e-001  3.000000e+000 -2.662958e+000
      vertex -7.503347e+000  3.000000e+000 -6.610581e+000
      vertex -9.355038e+000  3.000000e+000 -3.533166e+000
    endloop
  endfacet
  facet normal  0.000000e+000  9.999999e-001  0.000000e+000
    outer loop
      vertex -8.652476e-001  3.000000e+000 -2.662958e+000
      vertex -9.355038e+000  3.000000e+000 -3.533166e+000
      vertex -2.265248e+000  3.000000e+000 -1.645799e+000
    endloop
  endfacet
  facet normal  0.000000e+000  1.000000e+000  0.000000e+000
    outer loop
      vertex  8.174685e+000  3.000000e+000  5.759733e+000
      vertex  9.682458e+000  3.000000e+000  2.500000e+000
      vertex  8.652476e-001  3.000000e+000  2.662958e+000
    endloop
  endfacet
  facet normal  0.000000e+000  9.999999e-001  0.000000e+000
    outer loop
      vertex  8.174685e+000  3.000000e+000  5.759733e+000
      vertex  8.652476e-001  3.000000e+000  2.662958e+000
      vertex  1.539973e+000  3.000000e+000  5.747259e+000
    endloop
  endfacet
  facet normal  0.000000e+000  1.000000e+000  0.000000e+000
    outer loop
      vertex  8.174685e+000  3.000000e+000  5.759733e+000
      vertex  1.539973e+000  3.000000e+000  5.747259e+000
      vertex  2.716143e+000  3.000000e+000  5.902104e+000
    endloop
  endfacet
  facet normal  -0.000000e+000  1.000000e+000  0.000000e+000
    outer loop
      vertex  8.174685e+000  3.000000e+000  5.759733e+000
      vertex  2.716143e+000  3.000000e+000  5.902104e+000
      vertex  3.438328e+000  3.000000e+000  6.843274e+000
    endloop
  endfacet
  facet normal  -0.000000e+000  1.000000e+000  -0.000000e+000
    outer loop
      vertex  8.174685e+000  3.000000e+000  5.759733e+000
      vertex  3.438328e+000  3.000000e+000  6.843274e+000
      vertex  3.283482e+000  3.000000e+000  8.019444e+000
    endloop
  endfacet
  facet normal  -0.000000e+000  1.000000e+000  0.000000e+000
    outer loop
      vertex  8.174685e+000  3.000000e+000  5.759733e+000
      vertex  3.283482e+000  3.000000e+000  8.019444e+000
      vertex  5.612439e+000  3.000000e+000  8.276505e+000
    endloop
  endfacet
  facet normal  0.000000e+000  1.000000e+000  0.000000e+000
    outer loop
      vertex  5.116800e+001  3.000000e+000  2.082303e+001
      vertex  5.185204e+001  3.000000e+000  2.270242e+001
      vertex  5.398708e+001  3.000000e+000  1.979697e+001
    endloop
  endfacet
  facet normal  0.000000e+000  9.999999e-001  -0.000000e+000
    outer loop
      vertex  5.398708e+001  3.000000e+000  1.979697e+001
      vertex  5.185204e+001  3.000000e+000  2.270242e+001
      vertex  5.655050e+001  3.000000e+000  2.099232e+001
    endloop
  endfacet
  facet normal  0.000000e+000  1.000000e+000  0.000000e+000
    outer loop
      vertex  5.398708e+001  3.000000e+000  1.979697e+001
      vertex  5.655050e+001  3.000000e+000  2.099232e+001
      vertex  5.056688e+001  3.000000e+000  1.040004e+001
    endloop
  endfacet
  facet normal  -0.000000e+000  1.000000e+000  0.000000e+000
    outer loop
      vertex  5.056688e+001  3.000000e+000  1.040004e+001
      vertex  5.655050e+001  3.000000e+000  2.099232e+001
      vertex  4.800000e+001  3.000000e+000 -2.500000e+000
    endloop
  endfacet
  facet normal  0.000000e+000  1.000000e+000  -0.000000e+000
    outer loop
      vertex  5.056688e+001  3.000000e+000  1.040004e+001
      vertex  4.800000e+001  3.000000e+000 -2.500000e+000
      vertex  4.774780e+001  3.000000e+000  1.142610e+001
    endloop
  endfacet
  facet normal  0.000000e+000  1.000000e+000  0.000000e+000
    outer loop
      vertex  4.774780e+001  3.000000e+000  1.142610e+001
      vertex  4.800000e+001  3.000000e+000 -2.500000e+000
      vertex  4.449896e+001  3.000000e+000  2.500000e+000
    endloop
  endfacet
  facet normal  0.000000e+000  1.000000e+000  0.000000e+000
    outer loop
      vertex  2.265248e+000  3.000000e+000 -1.645799e+000
      vertex  9.682458e+000  3.000000e+000 -2.500000e+000
      vertex  8.652476e-001  3.000000e+000 -2.662958e+000
    endloop
  endfacet
  facet normal  -0.000000e+000  1.000000e+000  0.000000e+000
    outer loop
      vertex  8.652476e-001  3.000000e+000 -2.662958e+000
      vertex  9.682458e+000  3.000000e+000 -2.500000e+000
      vertex  8.174685e+000  3.000000e+000 -5.759733e+000
    endloop
  endfacet
  facet normal  0.000000e+000  1.000000e+000  0.000000e+000
    outer loop
      vertex -1.260043e+000  3.000000e+000 -9.920297e+000
      vertex -8.652476e-001  3.000000e+000 -2.662958e+000
      vertex  2.326231e+000  3.000000e+000 -9.725670e+000
    endloop
  endfacet
  facet normal  0.000000e+000  1.000000e+000  0.000000e+000
    outer loop
      vertex  2.326231e+000  3.000000e+000 -9.725670e+000
      vertex -8.652476e-001  3.000000e+000 -2.662958e+000
      vertex  8.652476e-001  3.000000e+000 -2.662958e+000
    endloop
  endfacet
  facet normal  0.000000e+000  9.999999e-001  0.000000e+000
    outer loop
      vertex  2.326231e+000  3.000000e+000 -9.725670e+000
      vertex  8.652476e-001  3.000000e+000 -2.662958e+000
      vertex  5.612439e+000  3.000000e+000 -8.276505e+000
    endloop
  endfacet
  facet normal  0.000000e+000  1.000000e+000  -0.000000e+000
    outer loop
      vertex  5.612439e+000  3.000000e+000 -8.276505e+000
      vertex  8.652476e-001  3.000000e+000 -2.662958e+000
      vertex  8.174685e+000  3.000000e+000 -5.759733e+000
    endloop
  endfacet
  facet normal  0.000000e+000  1.000000e+000  0.000000e+000
    outer loop
      vertex -7.503347e+000  3.000000e+000  6.610581e+000
      vertex -3.438328e+000  3.000000e+000  6.843274e+000
      vertex -9.355038e+000  3.000000e+000  3.533166e+000
    endloop
  endfacet
  facet normal  0.000000e+000  1.000000e+000  0.000000e+000
    outer loop
      vertex -9.355038e+000  3.000000e+000  3.533166e+000
      vertex -3.438328e+000  3.000000e+000  6.843274e+000
      vertex -2.716143e+000  3.000000e+000  5.902104e+000
    endloop
  endfacet
  facet normal  0.000000e+000  1.000000e+000  0.000000e+000
    outer loop
      vertex -9.355038e+000  3.000000e+000  3.533166e+000
      vertex -2.716143e+000  3.000000e+000  5.902104e+000
      vertex -8.652476e-001  3.000000e+000  2.662958e+000
    endloop
  endfacet
  facet normal  0.000000e+000  1.000000e+000  0.000000e+000
    outer loop
      vertex -8.652476e-001  3.000000e+000  2.662958e+000
      vertex -2.716143e+000  3.000000e+000  5.902104e+000
      vertex -1.539973e+000  3.000000e+000  5.747259e+000
    endloop
  endfacet
  facet normal  0.000000e+000  1.000000e+000  0.000000e+000
    outer loop
      vertex -8.652476e-001  3.000000e+000  2.662958e+000
      vertex -1.539973e+000  3.000000e+000  5.747259e+000
      vertex  8.652476e-001  3.000000e+000  2.662958e+000
    endloop
  endfacet
  facet normal  0.000000e+000  9.999999e-001  0.000000e+000
    outer loop
      vertex  8.652476e-001  3.000000e+000  2.662958e+000
      vertex -1.539973e+000  3.000000e+000  5.747259e+000
      vertex -1.685498e-015  3.000000e+000  5.950000e+000
    endloop
  endfacet
  facet normal  0.000000e+000  1.000000e+000  0.000000e+000
    outer loop
      vertex  8.652476e-001  3.000000e+000  2.662958e+000
      vertex -1.685498e-015  3.000000e+000  5.950000e+000
      vertex  1.539973e+000  3.000000e+000  5.747259e+000
    endloop
  endfacet
  facet normal  0.000000e+000  1.000000e+000  0.000000e+000
    outer loop
      vertex -4.683781e+000  3.000000e+000  8.835281e+000
      vertex -1.260043e+000  3.000000e+000  9.920297e+000
      vertex -5.541527e-016  3.000000e+000  9.050000e+000
    endloop
  endfacet
  facet normal  0.000000e+000  1.000000e+000  -0.000000e+000
    outer loop
      vertex -5.541527e-016  3.000000e+000  9.050000e+000
      vertex -1.260043e+000  3.000000e+000  9.920297e+000
      vertex  2.326231e+000  3.000000e+000  9.725670e+000
    endloop
  endfacet
  facet normal  0.000000e+000  1.000000e+000  0.000000e+000
    outer loop
      vertex -5.541527e-016  3.000000e+000  9.050000e+000
      vertex  2.326231e+000  3.000000e+000  9.725670e+000
      vertex  2.342312e+000  3.000000e+000  8.741629e+000
    endloop
  endfacet
  facet normal  0.000000e+000  1.000000e+000  0.000000e+000
    outer loop
      vertex  3.283482e+000  3.000000e+000  8.019444e+000
      vertex  2.342312e+000  3.000000e+000  8.741629e+000
      vertex  5.612439e+000  3.000000e+000  8.276505e+000
    endloop
  endfacet
  facet normal  0.000000e+000  1.000000e+000  0.000000e+000
    outer loop
      vertex  5.612439e+000  3.000000e+000  8.276505e+000
      vertex  2.342312e+000  3.000000e+000  8.741629e+000
      vertex  2.326231e+000  3.000000e+000  9.725670e+000
    endloop
  endfacet
  facet normal  0.000000e+000  1.000000e+000  0.000000e+000
    outer loop
      vertex -4.683781e+000  3.000000e+000  8.835281e+000
      vertex -2.342312e+000  3.000000e+000  8.741629e+000
      vertex -7.503347e+000  3.000000e+000  6.610581e+000
    endloop
  endfacet
  facet normal  0.000000e+000  1.000000e+000  0.000000e+000
    outer loop
      vertex -7.503347e+000  3.000000e+000  6.610581e+000
      vertex -2.342312e+000  3.000000e+000  8.741629e+000
      vertex -3.283482e+000  3.000000e+000  8.019444e+000
    endloop
  endfacet
  facet normal  0.000000e+000  1.000000e+000  0.000000e+000
    outer loop
      vertex -7.503347e+000  3.000000e+000  6.610581e+000
      vertex -3.283482e+000  3.000000e+000  8.019444e+000
      vertex -3.438328e+000  3.000000e+000  6.843274e+000
    endloop
  endfacet
  facet normal  0.000000e+000  9.999999e-001  0.000000e+000
    outer loop
      vertex -9.355038e+000  3.000000e+000  3.533166e+000
      vertex -8.652476e-001  3.000000e+000  2.662958e+000
      vertex -1.000000e+001  3.000000e+000  0.000000e+000
    endloop
  endfacet
  facet normal  0.000000e+000  1.000000e+000  0.000000e+000
    outer loop
      vertex -1.000000e+001  3.000000e+000  0.000000e+000
      vertex -8.652476e-001  3.000000e+000  2.662958e+000
      vertex -2.265248e+000  3.000000e+000  1.645799e+000
    endloop
  endfacet
  facet normal  0.000000e+000  1.000000e+000  0.000000e+000
    outer loop
      vertex -1.000000e+001  3.000000e+000  0.000000e+000
      vertex -2.265248e+000  3.000000e+000  1.645799e+000
      vertex -2.800000e+000  3.000000e+000  0.000000e+000
    endloop
  endfacet
  facet normal  0.000000e+000  1.000000e+000  0.000000e+000
    outer loop
      vertex -2.265248e+000  3.000000e+000 -1.645799e+000
      vertex -9.355038e+000  3.000000e+000 -3.533166e+000
      vertex -2.800000e+000  3.000000e+000  0.000000e+000
    endloop
  endfacet
  facet normal  0.000000e+000  1.000000e+000  0.000000e+000
    outer loop
      vertex -2.800000e+000  3.000000e+000  0.000000e+000
      vertex -9.355038e+000  3.000000e+000 -3.533166e+000
      vertex -1.000000e+001  3.000000e+000  0.000000e+000
    endloop
  endfacet
  facet normal -9.510565e-001  -0.000000e+000 -3.090170e-001
    outer loop
      vertex -2.800000e+000  3.000000e+000  0.000000e+000
      vertex -2.800000e+000  9.000000e+000  0.000000e+000
      vertex -2.265248e+000  3.000000e+000 -1.645799e+000
    endloop
  endfacet
  facet normal -9.510565e-001  0.000000e+000 -3.090170e-001
    outer loop
      vertex -2.265248e+000  3.000000e+000 -1.645799e+000
      vertex -2.800000e+000  9.000000e+000  0.000000e+000
      vertex -2.265248e+000  9.000000e+000 -1.645799e+000
    endloop
  endfacet
  facet normal -5.877852e-001  -0.000000e+000 -8.090169e-001
    outer loop
      vertex -2.265248e+000  3.000000e+000 -1.645799e+000
      vertex -2.265248e+000  9.000000e+000 -1.645799e+000
      vertex -8.652476e-001  3.000000e+000 -2.662958e+000
    endloop
  endfacet
  facet normal -5.877852e-001  0.000000e+000 -8.090169e-001
    outer loop
      vertex -8.652476e-001  3.000000e+000 -2.662958e+000
      vertex -2.265248e+000  9.000000e+000 -1.645799e+000
      vertex -8.652476e-001  9.000000e+000 -2.662958e+000
    endloop
  endfacet
  facet normal  0.000000e+000  0.000000e+000 -1.000000e+000
    outer loop
      vertex -8.652476e-001  3.000000e+000 -2.662958e+000
      vertex -8.652476e-001  9.000000e+000 -2.662958e+000
      vertex  8.652476e-001  3.000000e+000 -2.662958e+000
    endloop
  endfacet
  facet normal  0.000000e+000  0.000000e+000 -1.000000e+000
    outer loop
      vertex  8.652476e-001  3.000000e+000 -2.662958e+000
      vertex -8.652476e-001  9.000000e+000 -2.662958e+000
      vertex  8.652476e-001  9.000000e+000 -2.662958e+000
    endloop
  endfacet
  facet normal  5.877852e-001  0.000000e+000 -8.090169e-001
    outer loop
      vertex  8.652476e-001  3.000000e+000 -2.662958e+000
      vertex  8.652476e-001  9.000000e+000 -2.662958e+000
      vertex  2.265248e+000  3.000000e+000 -1.645799e+000
    endloop
  endfacet
  facet normal  5.877852e-001  0.000000e+000 -8.090169e-001
    outer loop
      vertex  2.265248e+000  3.000000e+000 -1.645799e+000
      vertex  8.652476e-001  9.000000e+000 -2.662958e+000
      vertex  2.265248e+000  9.000000e+000 -1.645799e+000
    endloop
  endfacet
  facet normal  9.510565e-001  0.000000e+000 -3.090170e-001
    outer loop
      vertex  2.265248e+000  3.000000e+000 -1.645799e+000
      vertex  2.265248e+000  9.000000e+000 -1.645799e+000
      vertex  2.800000e+000  3.000000e+000  3.429011e-016
    endloop
  endfacet
  facet normal  9.510565e-001  0.000000e+000 -3.090170e-001
    outer loop
      vertex  2.800000e+000  3.000000e+000  3.429011e-016
      vertex  2.265248e+000  9.000000e+000 -1.645799e+000
      vertex  2.800000e+000  9.000000e+000  3.429011e-016
    endloop
  endfacet
  facet normal  9.510565e-001  0.000000e+000  3.090170e-001
    outer loop
      vertex  2.800000e+000  3.000000e+000  3.429011e-016
      vertex  2.800000e+000  9.000000e+000  3.429011e-016
      vertex  2.265248e+000  3.000000e+000  1.645799e+000
    endloop
  endfacet
  facet normal  9.510565e-001  -0.000000e+000  3.090170e-001
    outer loop
      vertex  2.265248e+000  3.000000e+000  1.645799e+000
      vertex  2.800000e+000  9.000000e+000  3.429011e-016
      vertex  2.265248e+000  9.000000e+000  1.645799e+000
    endloop
  endfacet
  facet normal  5.877852e-001  0.000000e+000  8.090169e-001
    outer loop
      vertex  2.265248e+000  3.000000e+000  1.645799e+000
      vertex  2.265248e+000  9.000000e+000  1.645799e+000
      vertex  8.652476e-001  3.000000e+000  2.662958e+000
    endloop
  endfacet
  facet normal  5.877852e-001  -0.000000e+000  8.090169e-001
    outer loop
      vertex  8.652476e-001  3.000000e+000  2.662958e+000
      vertex  2.265248e+000  9.000000e+000  1.645799e+000
      vertex  8.652476e-001  9.000000e+000  2.662958e+000
    endloop
  endfacet
  facet normal  0.000000e+000  0.000000e+000  1.000000e+000
    outer loop
      vertex  8.652476e-001  3.000000e+000  2.662958e+000
      vertex  8.652476e-001  9.000000e+000  2.662958e+000
      vertex -8.652476e-001  3.000000e+000  2.662958e+000
    endloop
  endfacet
  facet normal  0.000000e+000  0.000000e+000  1.000000e+000
    outer loop
      vertex -8.652476e-001  3.000000e+000  2.662958e+000
      vertex  8.652476e-001  9.000000e+000  2.662958e+000
      vertex -8.652476e-001  9.000000e+000  2.662958e+000
    endloop
  endfacet
  facet normal -5.877852e-001  0.000000e+000  8.090169e-001
    outer loop
      vertex -8.652476e-001  3.000000e+000  2.662958e+000
      vertex -8.652476e-001  9.000000e+000  2.662958e+000
      vertex -2.265248e+000  3.000000e+000  1.645799e+000
    endloop
  endfacet
  facet normal -5.877852e-001  0.000000e+000  8.090169e-001
    outer loop
      vertex -2.265248e+000  3.000000e+000  1.645799e+000
      vertex -8.652476e-001  9.000000e+000  2.662958e+000
      vertex -2.265248e+000  9.000000e+000  1.645799e+000
    endloop
  endfacet
  facet normal -9.510565e-001  0.000000e+000  3.090170e-001
    outer loop
      vertex -2.265248e+000  3.000000e+000  1.645799e+000
      vertex -2.265248e+000  9.000000e+000  1.645799e+000
      vertex -2.800000e+000  3.000000e+000  0.000000e+000
    endloop
  endfacet
  facet normal -9.510565e-001  0.000000e+000  3.090170e-001
    outer loop
      vertex -2.800000e+000  3.000000e+000  0.000000e+000
      vertex -2.265248e+000  9.000000e+000  1.645799e+000
      vertex -2.800000e+000  9.000000e+000  0.000000e+000
    endloop
  endfacet
  facet normal  0.000000e+000  1.000000e+000  0.000000e+000
    outer loop
      vertex -8.652476e-001  9.000000e+000  2.662958e+000
      vertex  8.652476e-001  9.000000e+000  2.662958e+000
      vertex -2.265248e+000  9.000000e+000  1.645799e+000
    endloop
  endfacet
  facet normal  0.000000e+000  1.000000e+000  0.000000e+000
    outer loop
      vertex -2.265248e+000  9.000000e+000  1.645799e+000
      vertex  8.652476e-001  9.000000e+000  2.662958e+000
      vertex  2.265248e+000  9.000000e+000  1.645799e+000
    endloop
  endfacet
  facet normal  0.000000e+000  1.000000e+000  0.000000e+000
    outer loop
      vertex -2.265248e+000  9.000000e+000  1.645799e+000
      vertex  2.265248e+000  9.000000e+000  1.645799e+000
      vertex -2.800000e+000  9.000000e+000  0.000000e+000
    endloop
  endfacet
  facet normal  0.000000e+000  1.000000e+000  0.000000e+000
    outer loop
      vertex -2.800000e+000  9.000000e+000  0.000000e+000
      vertex  2.265248e+000  9.000000e+000  1.645799e+000
      vertex  2.800000e+000  9.000000e+000  3.429011e-016
    endloop
  endfacet
  facet normal  0.000000e+000  1.000000e+000  0.000000e+000
    outer loop
      vertex -2.800000e+000  9.000000e+000  0.000000e+000
      vertex  2.800000e+000  9.000000e+000  3.429011e-016
      vertex -2.265248e+000  9.000000e+000 -1.645799e+000
    endloop
  endfacet
  facet normal  0.000000e+000  1.000000e+000  0.000000e+000
    outer loop
      vertex -2.265248e+000  9.000000e+000 -1.645799e+000
      vertex  2.800000e+000  9.000000e+000  3.429011e-016
      vertex  2.265248e+000  9.000000e+000 -1.645799e+000
    endloop
  endfacet
  facet normal  0.000000e+000  1.000000e+000  0.000000e+000
    outer loop
      vertex -2.265248e+000  9.000000e+000 -1.645799e+000
      vertex  2.265248e+000  9.000000e+000 -1.645799e+000
      vertex -8.652476e-001  9.000000e+000 -2.662958e+000
    endloop
  endfacet
  facet normal  0.000000e+000  1.000000e+000  0.000000e+000
    outer loop
      vertex -8.652476e-001  9.000000e+000 -2.662958e+000
      vertex  2.265248e+000  9.000000e+000 -1.645799e+000
      vertex  8.652476e-001  9.000000e+000 -2.662958e+000
    endloop
  endfacet
  facet normal  0.000000e+000  0.000000e+000 -1.000000e+000
    outer loop
      vertex  4.800000e+001  0.000000e+000 -2.500000e+000
      vertex  9.682458e+000  0.000000e+000 -2.500000e+000
      vertex  4.800000e+001  3.000000e+000 -2.500000e+000
    endloop
  endfacet
  facet normal  -0.000000e+000  0.000000e+000 -1.000000e+000
    outer loop
      vertex  4.800000e+001  3.000000e+000 -2.500000e+000
      vertex  9.682458e+000  0.000000e+000 -2.500000e+000
      vertex  9.682458e+000  3.000000e+000 -2.500000e+000
    endloop
  endfacet
  facet normal  0.000000e+000  0.000000e+000  1.000000e+000
    outer loop
      vertex  9.682458e+000  0.000000e+000  2.500000e+000
      vertex  4.449896e+001  0.000000e+000  2.500000e+000
      vertex  9.682458e+000  3.000000e+000  2.500000e+000
    endloop
  endfacet
  facet normal  -0.000000e+000  0.000000e+000  1.000000e+000
    outer loop
      vertex  9.682458e+000  3.000000e+000  2.500000e+000
      vertex  4.449896e+001  0.000000e+000  2.500000e+000
      vertex  4.449896e+001  3.000000e+000  2.500000e+000
    endloop
  endfacet
  facet normal  9.076114e-001  0.000000e+000  4.198112e-001
    outer loop
      vertex  9.682458e+000  0.000000e+000  2.500000e+000
      vertex  9.682458e+000  3.000000e+000  2.500000e+000
      vertex  8.174685e+000  0.000000e+000  5.759733e+000
    endloop
  endfacet
  facet normal  9.076114e-001  -0.000000e+000  4.198112e-001
    outer loop
      vertex  8.174685e+000  0.000000e+000  5.759733e+000
      vertex  9.682458e+000  3.000000e+000  2.500000e+000
      vertex  8.174685e+000  3.000000e+000  5.759733e+000
    endloop
  endfacet
  facet normal  7.007477e-001  0.000000e+000  7.134091e-001
    outer loop
      vertex  8.174685e+000  0.000000e+000  5.759733e+000
      vertex  8.174685e+000  3.000000e+000  5.759733e+000
      vertex  5.612439e+000  0.000000e+000  8.276505e+000
    endloop
  endfacet
  facet normal  7.007477e-001  -0.000000e+000  7.134091e-001
    outer loop
      vertex  5.612439e+000  0.000000e+000  8.276505e+000
      vertex  8.174685e+000  3.000000e+000  5.759733e+000
      vertex  5.612439e+000  3.000000e+000  8.276505e+000
    endloop
  endfacet
  facet normal  4.034928e-001  0.000000e+000  9.149828e-001
    outer loop
      vertex  5.612439e+000  0.000000e+000  8.276505e+000
      vertex  5.612439e+000  3.000000e+000  8.276505e+000
      vertex  2.326231e+000  0.000000e+000  9.725670e+000
    endloop
  endfacet
  facet normal  4.034928e-001  -0.000000e+000  9.149828e-001
    outer loop
      vertex  2.326231e+000  0.000000e+000  9.725670e+000
      vertex  5.612439e+000  3.000000e+000  8.276505e+000
      vertex  2.326231e+000  3.000000e+000  9.725670e+000
    endloop
  endfacet
  facet normal  5.419018e-002  0.000000e+000  9.985306e-001
    outer loop
      vertex  2.326231e+000  0.000000e+000  9.725670e+000
      vertex  2.326231e+000  3.000000e+000  9.725670e+000
      vertex -1.260043e+000  0.000000e+000  9.920297e+000
    endloop
  endfacet
  facet normal  5.419018e-002  -0.000000e+000  9.985306e-001
    outer loop
      vertex -1.260043e+000  0.000000e+000  9.920297e+000
      vertex  2.326231e+000  3.000000e+000  9.725670e+000
      vertex -1.260043e+000  3.000000e+000  9.920297e+000
    endloop
  endfacet
  facet normal -3.021021e-001  0.000000e+000  9.532755e-001
    outer loop
      vertex -1.260043e+000  0.000000e+000  9.920297e+000
      vertex -1.260043e+000  3.000000e+000  9.920297e+000
      vertex -4.683781e+000  0.000000e+000  8.835281e+000
    endloop
  endfacet
  facet normal -3.021021e-001  0.000000e+000  9.532755e-001
    outer loop
      vertex -4.683781e+000  0.000000e+000  8.835281e+000
      vertex -1.260043e+000  3.000000e+000  9.920297e+000
      vertex -4.683781e+000  3.000000e+000  8.835281e+000
    endloop
  endfacet
  facet normal -6.194259e-001  0.000000e+000  7.850551e-001
    outer loop
      vertex -4.683781e+000  0.000000e+000  8.835281e+000
      vertex -4.683781e+000  3.000000e+000  8.835281e+000
      vertex -7.503347e+000  0.000000e+000  6.610581e+000
    endloop
  endfacet
  facet normal -6.194259e-001  0.000000e+000  7.850551e-001
    outer loop
      vertex -7.503347e+000  0.000000e+000  6.610581e+000
      vertex -4.683781e+000  3.000000e+000  8.835281e+000
      vertex -7.503347e+000  3.000000e+000  6.610581e+000
    endloop
  endfacet
  facet normal -8.568484e-001  0.000000e+000  5.155685e-001
    outer loop
      vertex -7.503347e+000  0.000000e+000  6.610581e+000
      vertex -7.503347e+000  3.000000e+000  6.610581e+000
      vertex -9.355038e+000  0.000000e+000  3.533166e+000
    endloop
  endfacet
  facet normal -8.568484e-001  0.000000e+000  5.155685e-001
    outer loop
      vertex -9.355038e+000  0.000000e+000  3.533166e+000
      vertex -7.503347e+000  3.000000e+000  6.610581e+000
      vertex -9.355038e+000  3.000000e+000  3.533166e+000
    endloop
  endfacet
  facet normal -9.837438e-001  0.000000e+000  1.795776e-001
    outer loop
      vertex -9.355038e+000  0.000000e+000  3.533166e+000
      vertex -9.355038e+000  3.000000e+000  3.533166e+000
      vertex -1.000000e+001  0.000000e+000  0.000000e+000
    endloop
  endfacet
  facet normal -9.837438e-001  0.000000e+000  1.795776e-001
    outer loop
      vertex -1.000000e+001  0.000000e+000  0.000000e+000
      vertex -9.355038e+000  3.000000e+000  3.533166e+000
      vertex -1.000000e+001  3.000000e+000  0.000000e+000
    endloop
  endfacet
  facet normal -9.837438e-001  -0.000000e+000 -1.795776e-001
    outer loop
      vertex -1.000000e+001  0.000000e+000  0.000000e+000
      vertex -1.000000e+001  3.000000e+000  0.000000e+000
      vertex -9.355038e+000  0.000000e+000 -3.533166e+000
    endloop
  endfacet
  facet normal -9.837438e-001  0.000000e+000 -1.795776e-001
    outer loop
      vertex -9.355038e+000  0.000000e+000 -3.533166e+000
      vertex -1.000000e+001  3.000000e+000  0.000000e+000
      vertex -9.355038e+000  3.000000e+000 -3.533166e+000
    endloop
  endfacet
  facet normal -8.568484e-001  -0.000000e+000 -5.155685e-001
    outer loop
      vertex -9.355038e+000  0.000000e+000 -3.533166e+000
      vertex -9.355038e+000  3.000000e+000 -3.533166e+000
      vertex -7.503347e+000  0.000000e+000 -6.610581e+000
    endloop
  endfacet
  facet normal -8.568484e-001  0.000000e+000 -5.155685e-001
    outer loop
      vertex -7.503347e+000  0.000000e+000 -6.610581e+000
      vertex -9.355038e+000  3.000000e+000 -3.533166e+000
      vertex -7.503347e+000  3.000000e+000 -6.610581e+000
    endloop
  endfacet
  facet normal -6.194259e-001  -0.000000e+000 -7.850551e-001
    outer loop
      vertex -7.503347e+000  0.000000e+000 -6.610581e+000
      vertex -7.503347e+000  3.000000e+000 -6.610581e+000
      vertex -4.683781e+000  0.000000e+000 -8.835281e+000
    endloop
  endfacet
  facet normal -6.194259e-001  0.000000e+000 -7.850551e-001
    outer loop
      vertex -4.683781e+000  0.000000e+000 -8.835281e+000
      vertex -7.503347e+000  3.000000e+000 -6.610581e+000
      vertex -4.683781e+000  3.000000e+000 -8.835281e+000
    endloop
  endfacet
  facet normal -3.021021e-001  -0.000000e+000 -9.532755e-001
    outer loop
      vertex -4.683781e+000  0.000000e+000 -8.835281e+000
      vertex -4.683781e+000  3.000000e+000 -8.835281e+000
      vertex -1.260043e+000  0.000000e+000 -9.920297e+000
    endloop
  endfacet
  facet normal -3.021021e-001  0.000000e+000 -9.532755e-001
    outer loop
      vertex -1.260043e+000  0.000000e+000 -9.920297e+000
      vertex -4.683781e+000  3.000000e+000 -8.835281e+000
      vertex -1.260043e+000  3.000000e+000 -9.920297e+000
    endloop
  endfacet
  facet normal  5.419018e-002  0.000000e+000 -9.985306e-001
    outer loop
      vertex -1.260043e+000  0.000000e+000 -9.920297e+000
      vertex -1.260043e+000  3.000000e+000 -9.920297e+000
      vertex  2.326231e+000  0.000000e+000 -9.725670e+000
    endloop
  endfacet
  facet normal  5.419018e-002  0.000000e+000 -9.985306e-001
    outer loop
      vertex  2.326231e+000  0.000000e+000 -9.725670e+000
      vertex -1.260043e+000  3.000000e+000 -9.920297e+000
      vertex  2.326231e+000  3.000000e+000 -9.725670e+000
    endloop
  endfacet
  facet normal  4.034928e-001  0.000000e+000 -9.149828e-001
    outer loop
      vertex  2.326231e+000  0.000000e+000 -9.725670e+000
      vertex  2.326231e+000  3.000000e+000 -9.725670e+000
      vertex  5.612439e+000  0.000000e+000 -8.276505e+000
    endloop
  endfacet
  facet normal  4.034928e-001  0.000000e+000 -9.149828e-001
    outer loop
      vertex  5.612439e+000  0.000000e+000 -8.276505e+000
      vertex  2.326231e+000  3.000000e+000 -9.725670e+000
      vertex  5.612439e+000  3.000000e+000 -8.276505e+000
    endloop
  endfacet
  facet normal  7.007477e-001  0.000000e+000 -7.134091e-001
    outer loop
      vertex  5.612439e+000  0.000000e+000 -8.276505e+000
      vertex  5.612439e+000  3.000000e+000 -8.276505e+000
      vertex  8.174685e+000  0.000000e+000 -5.759733e+000
    endloop
  endfacet
  facet normal  7.007477e-001  0.000000e+000 -7.134091e-001
    outer loop
      vertex  8.174685e+000  0.000000e+000 -5.759733e+000
      vertex  5.612439e+000  3.000000e+000 -8.276505e+000
      vertex  8.174685e+000  3.000000e+000 -5.759733e+000
    endloop
  endfacet
  facet normal  9.076114e-001  0.000000e+000 -4.198112e-001
    outer loop
      vertex  8.174685e+000  0.000000e+000 -5.759733e+000
      vertex  8.174685e+000  3.000000e+000 -5.759733e+000
      vertex  9.682458e+000  0.000000e+000 -2.500000e+000
    endloop
  endfacet
  facet normal  9.076114e-001  0.000000e+000 -4.198112e-001
    outer loop
      vertex  9.682458e+000  0.000000e+000 -2.500000e+000
      vertex  8.174685e+000  3.000000e+000 -5.759733e+000
      vertex  9.682458e+000  3.000000e+000 -2.500000e+000
    endloop
  endfacet
  facet normal  9.396926e-001  0.000000e+000 -3.420201e-001
    outer loop
      vertex  4.800000e+001  0.000000e+000 -2.500000e+000
      vertex  4.800000e+001  3.000000e+000 -2.500000e+000
      vertex  5.655050e+001  0.000000e+000  2.099232e+001
    endloop
  endfacet
  facet normal  9.396926e-001  0.000000e+000 -3.420201e-001
    outer loop
      vertex  5.655050e+001  0.000000e+000  2.099232e+001
      vertex  4.800000e+001  3.000000e+000 -2.500000e+000
      vertex  5.655050e+001  3.000000e+000  2.099232e+001
    endloop
  endfacet
  facet normal  3.420201e-001  0.000000e+000  9.396927e-001
    outer loop
      vertex  5.655050e+001  0.000000e+000  2.099232e+001
      vertex  5.655050e+001  3.000000e+000  2.099232e+001
      vertex  5.185204e+001  0.000000e+000  2.270242e+001
    endloop
  endfacet
  facet normal  3.420201e-001  -0.000000e+000  9.396927e-001
    outer loop
      vertex  5.185204e+001  0.000000e+000  2.270242e+001
      vertex  5.655050e+001  3.000000e+000  2.099232e+001
      vertex  5.185204e+001  3.000000e+000  2.270242e+001
    endloop
  endfacet
  facet normal -9.396925e-001  0.000000e+000  3.420204e-001
    outer loop
      vertex  5.398708e+001  0.000000e+000  1.979697e+001
      vertex  5.398708e+001  3.000000e+000  1.979697e+001
      vertex  5.056688e+001  0.000000e+000  1.040004e+001
    endloop
  endfacet
  facet normal -9.396925e-001  0.000000e+000  3.420204e-001
    outer loop
      vertex  5.056688e+001  0.000000e+000  1.040004e+001
      vertex  5.398708e+001  3.000000e+000  1.979697e+001
      vertex  5.056688e+001  3.000000e+000  1.040004e+001
    endloop
  endfacet
  facet normal -7.933534e-001  0.000000e+000  6.087614e-001
    outer loop
      vertex  3.438328e+000  0.000000e+000  6.843274e+000
      vertex  2.716143e+000  3.000000e+000  5.902104e+000
      vertex  2.716143e+000  0.000000e+000  5.902104e+000
    endloop
  endfacet
  facet normal -1.305262e-001  0.000000e+000  9.914449e-001
    outer loop
      vertex  2.716143e+000  0.000000e+000  5.902104e+000
      vertex  2.716143e+000  3.000000e+000  5.902104e+000
      vertex  1.539973e+000  3.000000e+000  5.747259e+000
    endloop
  endfacet
  facet normal -1.305262e-001  0.000000e+000  9.914449e-001
    outer loop
      vertex  2.716143e+000  0.000000e+000  5.902104e+000
      vertex  1.539973e+000  3.000000e+000  5.747259e+000
      vertex  1.539973e+000  0.000000e+000  5.747259e+000
    endloop
  endfacet
  facet normal -7.933534e-001  0.000000e+000  6.087614e-001
    outer loop
      vertex  2.716143e+000  3.000000e+000  5.902104e+000
      vertex  3.438328e+000  0.000000e+000  6.843274e+000
      vertex  3.438328e+000  3.000000e+000  6.843274e+000
    endloop
  endfacet
  facet normal -9.914449e-001  -0.000000e+000 -1.305261e-001
    outer loop
      vertex  3.438328e+000  3.000000e+000  6.843274e+000
      vertex  3.438328e+000  0.000000e+000  6.843274e+000
      vertex  3.283482e+000  0.000000e+000  8.019444e+000
    endloop
  endfacet
  facet normal -9.914449e-001  0.000000e+000 -1.305261e-001
    outer loop
      vertex  3.438328e+000  3.000000e+000  6.843274e+000
      vertex  3.283482e+000  0.000000e+000  8.019444e+000
      vertex  3.283482e+000  3.000000e+000  8.019444e+000
    endloop
  endfacet
  facet normal -6.087614e-001  -0.000000e+000 -7.933533e-001
    outer loop
      vertex  3.283482e+000  3.000000e+000  8.019444e+000
      vertex  3.283482e+000  0.000000e+000  8.019444e+000
      vertex  2.342312e+000  0.000000e+000  8.741629e+000
    endloop
  endfacet
  facet normal -6.087614e-001  0.000000e+000 -7.933533e-001
    outer loop
      vertex  3.283482e+000  3.000000e+000  8.019444e+000
      vertex  2.342312e+000  0.000000e+000  8.741629e+000
      vertex  2.342312e+000  3.000000e+000  8.741629e+000
    endloop
  endfacet
  facet normal  1.305261e-001  0.000000e+000  9.914449e-001
    outer loop
      vertex  1.539973e+000  0.000000e+000  5.747259e+000
      vertex  1.539973e+000  3.000000e+000  5.747259e+000
      vertex -1.685498e-015  0.000000e+000  5.950000e+000
    endloop
  endfacet
  facet normal  1.305261e-001  -0.000000e+000  9.914449e-001
    outer loop
      vertex -1.685498e-015  0.000000e+000  5.950000e+000
      vertex  1.539973e+000  3.000000e+000  5.747259e+000
      vertex -1.685498e-015  3.000000e+000  5.950000e+000
    endloop
  endfacet
  facet normal -1.305261e-001  0.000000e+000  9.914449e-001
    outer loop
      vertex -1.685498e-015  0.000000e+000  5.950000e+000
      vertex -1.685498e-015  3.000000e+000  5.950000e+000
      vertex -1.539973e+000  0.000000e+000  5.747259e+000
    endloop
  endfacet
  facet normal -1.305261e-001  0.000000e+000  9.914449e-001
    outer loop
      vertex -1.539973e+000  0.000000e+000  5.747259e+000
      vertex -1.685498e-015  3.000000e+000  5.950000e+000
      vertex -1.539973e+000  3.000000e+000  5.747259e+000
    endloop
  endfacet
  facet normal  9.914449e-001  0.000000e+000 -1.305261e-001
    outer loop
      vertex -3.438328e+000  0.000000e+000  6.843274e+000
      vertex -3.283482e+000  3.000000e+000  8.019444e+000
      vertex -3.283482e+000  0.000000e+000  8.019444e+000
    endloop
  endfacet
  facet normal  6.087614e-001  0.000000e+000 -7.933533e-001
    outer loop
      vertex -3.283482e+000  0.000000e+000  8.019444e+000
      vertex -3.283482e+000  3.000000e+000  8.019444e+000
      vertex -2.342312e+000  3.000000e+000  8.741629e+000
    endloop
  endfacet
  facet normal  6.087614e-001  0.000000e+000 -7.933533e-001
    outer loop
      vertex -3.283482e+000  0.000000e+000  8.019444e+000
      vertex -2.342312e+000  3.000000e+000  8.741629e+000
      vertex -2.342312e+000  0.000000e+000  8.741629e+000
    endloop
  endfacet
  facet normal  9.914449e-001  0.000000e+000 -1.305261e-001
    outer loop
      vertex -3.283482e+000  3.000000e+000  8.019444e+000
      vertex -3.438328e+000  0.000000e+000  6.843274e+000
      vertex -3.438328e+000  3.000000e+000  6.843274e+000
    endloop
  endfacet
  facet normal  7.933534e-001  0.000000e+000  6.087614e-001
    outer loop
      vertex -3.438328e+000  3.000000e+000  6.843274e+000
      vertex -3.438328e+000  0.000000e+000  6.843274e+000
      vertex -2.716143e+000  0.000000e+000  5.902104e+000
    endloop
  endfacet
  facet normal  7.933534e-001  -0.000000e+000  6.087614e-001
    outer loop
      vertex -3.438328e+000  3.000000e+000  6.843274e+000
      vertex -2.716143e+000  0.000000e+000  5.902104e+000
      vertex -2.716143e+000  3.000000e+000  5.902104e+000
    endloop
  endfacet
  facet normal  1.305262e-001  0.000000e+000  9.914449e-001
    outer loop
      vertex -2.716143e+000  3.000000e+000  5.902104e+000
      vertex -2.716143e+000  0.000000e+000  5.902104e+000
      vertex -1.539973e+000  0.000000e+000  5.747259e+000
    endloop
  endfacet
  facet normal  1.305262e-001  -0.000000e+000  9.914449e-001
    outer loop
      vertex -2.716143e+000  3.000000e+000  5.902104e+000
      vertex -1.539973e+000  0.000000e+000  5.747259e+000
      vertex -1.539973e+000  3.000000e+000  5.747259e+000
    endloop
  endfacet
  facet normal -1.305263e-001  0.000000e+000 -9.914448e-001
    outer loop
      vertex  2.342312e+000  0.000000e+000  8.741629e+000
      vertex -5.541527e-016  0.000000e+000  9.050000e+000
      vertex  2.342312e+000  3.000000e+000  8.741629e+000
    endloop
  endfacet
  facet normal -1.305263e-001  0.000000e+000 -9.914448e-001
    outer loop
      vertex  2.342312e+000  3.000000e+000  8.741629e+000
      vertex -5.541527e-016  0.000000e+000  9.050000e+000
      vertex -5.541527e-016  3.000000e+000  9.050000e+000
    endloop
  endfacet
  facet normal  1.305263e-001  0.000000e+000 -9.914448e-001
    outer loop
      vertex -5.541527e-016  0.000000e+000  9.050000e+000
      vertex -2.342312e+000  0.000000e+000  8.741629e+000
      vertex -5.541527e-016  3.000000e+000  9.050000e+000
    endloop
  endfacet
  facet normal  1.305263e-001  0.000000e+000 -9.914448e-001
    outer loop
      vertex -5.541527e-016  3.000000e+000  9.050000e+000
      vertex -2.342312e+000  0.000000e+000  8.741629e+000
      vertex -2.342312e+000  3.000000e+000  8.741629e+000
    endloop
  endfacet
endsolid CATIA STL
